<?xml version="1.0" encoding="UTF-8"?>
<svg id="Layer_1" xmlns="http://www.w3.org/2000/svg" version="1.1" viewBox="0 0 764 139.55">
  <!-- Generator: Adobe Illustrator 29.6.1, SVG Export Plug-In . SVG Version: 2.1.1 Build 9)  -->
  <defs>
    <style>
      .st0 {
        fill: #fff;
      }

      .st1 {
        fill: #00e1ff;
      }
    </style>
  </defs>
  <g>
    <g>
      <path class="st1" d="M293.87,83.59c.09.1.14.21.14.35v3.96c0,.14-.05.25-.14.35s-.21.14-.35.14h-5.11c-.14,0-.2.07-.2.2v22.96c0,.14-.05.25-.14.35-.1.1-.21.14-.35.14h-4.78c-.14,0-.25-.05-.35-.14-.1-.1-.14-.21-.14-.35v-22.96c0-.14-.07-.2-.2-.2h-4.9c-.14,0-.25-.05-.35-.14-.1-.09-.14-.21-.14-.35v-3.96c0-.14.05-.25.14-.35.1-.09.21-.14.35-.14h16.18c.14,0,.25.05.35.14Z"/>
      <path class="st1" d="M298.22,110.17c-1.5-1.47-2.25-3.43-2.25-5.88v-13.07c0-2.45.75-4.41,2.25-5.88,1.5-1.47,3.5-2.21,6.01-2.21s4.51.74,6.03,2.21c1.51,1.47,2.27,3.43,2.27,5.88v13.07c0,2.45-.76,4.41-2.27,5.88-1.51,1.47-3.52,2.21-6.03,2.21s-4.51-.74-6.01-2.21ZM306.07,106.63c.46-.53.69-1.23.69-2.1v-13.56c0-.87-.23-1.57-.69-2.1s-1.08-.8-1.84-.8-1.37.27-1.82.8-.67,1.23-.67,2.1v13.56c0,.87.22,1.57.67,2.1s1.05.8,1.82.8,1.38-.26,1.84-.8Z"/>
      <path class="st1" d="M337.32,84.51c1.17.74,2.08,1.76,2.72,3.08.64,1.32.96,2.83.96,4.51,0,2.53-.68,4.56-2.04,6.09-1.36,1.53-3.15,2.29-5.35,2.29h-3.06c-.14,0-.2.07-.2.21v10.87c0,.14-.05.25-.14.35s-.21.14-.35.14h-4.78c-.14,0-.25-.05-.35-.14s-.14-.21-.14-.35v-27.66c0-.14.05-.25.14-.35.1-.09.21-.14.35-.14h8.25c1.5,0,2.83.37,4,1.1ZM334.44,94.99c.53-.67.8-1.59.8-2.76s-.27-2.14-.8-2.82-1.23-1.02-2.1-1.02h-1.8c-.14,0-.2.07-.2.2v7.19c0,.14.07.2.2.2h1.8c.87,0,1.57-.33,2.1-1Z"/>
      <path class="st1" d="M358.83,88.25c-.1.1-.21.14-.35.14h-8.54c-.14,0-.2.07-.2.2v6.46c0,.14.07.2.2.2h4.9c.14,0,.25.05.35.14s.14.21.14.35v3.96c0,.14-.05.25-.14.35-.1.1-.21.14-.35.14h-4.9c-.14,0-.2.07-.2.21v6.5c0,.14.07.2.2.2h8.54c.14,0,.25.05.35.14.09.1.14.21.14.35v3.96c0,.14-.05.25-.14.35-.1.1-.21.14-.35.14h-14.01c-.14,0-.25-.05-.35-.14s-.14-.21-.14-.35v-27.62c0-.14.05-.25.14-.35.1-.09.21-.14.35-.14h14.01c.14,0,.25.05.35.14.09.1.14.21.14.35v3.96c0,.14-.05.25-.14.35Z"/>
      <path class="st1" d="M372.95,111.64l-3.15-11.28c-.05-.11-.12-.16-.2-.16h-1.39c-.14,0-.2.07-.2.21v11.15c0,.14-.05.25-.14.35-.1.1-.21.14-.35.14h-4.78c-.14,0-.25-.05-.35-.14s-.14-.21-.14-.35v-27.62c0-.14.05-.25.14-.35.1-.09.21-.14.35-.14h8.25c1.5,0,2.83.36,4,1.08,1.17.72,2.08,1.74,2.72,3.04.64,1.31.96,2.81.96,4.49s-.31,3.02-.92,4.25c-.61,1.23-1.46,2.18-2.55,2.86-.05.03-.1.06-.12.1-.03.04-.03.09,0,.14l3.76,12.05.04.16c0,.27-.15.41-.45.41h-4.9c-.3,0-.49-.14-.57-.41ZM368,88.6v6.99c0,.14.07.2.2.2h1.84c.84,0,1.53-.33,2.06-1,.53-.67.8-1.56.8-2.68s-.27-2.05-.8-2.72c-.53-.67-1.22-1-2.06-1h-1.84c-.14,0-.2.07-.2.2Z"/>
      <path class="st1" d="M396.66,88.25c-.1.1-.21.14-.35.14h-8.5c-.14,0-.2.07-.2.2v6.46c0,.14.07.2.2.2h4.86c.14,0,.25.05.35.14s.14.21.14.35v3.96c0,.14-.05.25-.14.35-.1.1-.21.14-.35.14h-4.86c-.14,0-.2.07-.2.21v11.15c0,.14-.05.25-.14.35-.1.1-.21.14-.35.14h-4.78c-.14,0-.25-.05-.35-.14s-.14-.21-.14-.35v-27.62c0-.14.05-.25.14-.35.1-.09.21-.14.35-.14h13.97c.14,0,.25.05.35.14.09.1.14.21.14.35v3.96c0,.14-.05.25-.14.35Z"/>
      <path class="st1" d="M414.27,88.25c-.1.1-.21.14-.35.14h-8.54c-.14,0-.21.07-.21.2v6.46c0,.14.07.2.21.2h4.9c.14,0,.25.05.35.14.09.1.14.21.14.35v3.96c0,.14-.05.25-.14.35s-.21.14-.35.14h-4.9c-.14,0-.21.07-.21.21v6.5c0,.14.07.2.21.2h8.54c.14,0,.25.05.35.14.09.1.14.21.14.35v3.96c0,.14-.05.25-.14.35-.1.1-.21.14-.35.14h-14.01c-.14,0-.25-.05-.35-.14-.1-.1-.14-.21-.14-.35v-27.62c0-.14.05-.25.14-.35s.21-.14.35-.14h14.01c.14,0,.25.05.35.14.09.1.14.21.14.35v3.96c0,.14-.05.25-.14.35Z"/>
      <path class="st1" d="M419.5,110.19c-1.49-1.46-2.23-3.41-2.23-5.86v-13.24c0-2.42.74-4.36,2.23-5.8,1.48-1.44,3.45-2.17,5.9-2.17s4.46.72,5.94,2.17c1.48,1.44,2.23,3.38,2.23,5.8v.45c0,.14-.05.25-.14.35-.1.1-.21.14-.35.14l-4.78.2c-.33,0-.49-.15-.49-.45v-1.06c0-.79-.22-1.43-.65-1.92s-1.02-.74-1.76-.74-1.28.25-1.72.74-.65,1.13-.65,1.92v14.1c0,.79.22,1.42.65,1.9.44.48,1.01.71,1.72.71s1.32-.24,1.76-.71c.44-.48.65-1.11.65-1.9v-1.1c0-.14.05-.25.14-.35.09-.1.21-.14.35-.14l4.78.21c.14,0,.25.05.35.14.09.1.14.21.14.35v.41c0,2.45-.75,4.41-2.25,5.86-1.5,1.46-3.47,2.19-5.92,2.19s-4.42-.73-5.9-2.19Z"/>
      <path class="st1" d="M453.21,83.59c.1.1.14.21.14.35v3.96c0,.14-.05.25-.14.35-.1.1-.21.14-.35.14h-5.11c-.14,0-.2.07-.2.2v22.96c0,.14-.05.25-.14.35s-.21.14-.35.14h-4.78c-.14,0-.25-.05-.35-.14s-.14-.21-.14-.35v-22.96c0-.14-.07-.2-.2-.2h-4.9c-.14,0-.25-.05-.35-.14-.1-.09-.14-.21-.14-.35v-3.96c0-.14.05-.25.14-.35s.21-.14.35-.14h16.18c.14,0,.25.05.35.14Z"/>
      <path class="st1" d="M456.64,111.91c-.1-.1-.14-.21-.14-.35v-27.62c0-.14.05-.25.14-.35.1-.09.21-.14.35-.14h4.78c.14,0,.25.05.35.14.1.1.14.21.14.35v27.62c0,.14-.05.25-.14.35s-.21.14-.35.14h-4.78c-.14,0-.25-.05-.35-.14Z"/>
      <path class="st1" d="M468.1,110.17c-1.5-1.47-2.25-3.43-2.25-5.88v-13.07c0-2.45.75-4.41,2.25-5.88s3.5-2.21,6.01-2.21,4.51.74,6.03,2.21,2.27,3.43,2.27,5.88v13.07c0,2.45-.76,4.41-2.27,5.88-1.51,1.47-3.52,2.21-6.03,2.21s-4.51-.74-6.01-2.21ZM475.94,106.63c.46-.53.69-1.23.69-2.1v-13.56c0-.87-.23-1.57-.69-2.1-.46-.53-1.08-.8-1.84-.8s-1.37.27-1.82.8c-.45.53-.67,1.23-.67,2.1v13.56c0,.87.22,1.57.67,2.1.45.53,1.05.8,1.82.8s1.38-.26,1.84-.8Z"/>
      <path class="st1" d="M497.78,83.59c.1-.09.21-.14.35-.14h4.74c.14,0,.25.05.35.14.09.1.14.21.14.35v27.62c0,.14-.05.25-.14.35-.1.1-.21.14-.35.14h-5.39c-.27,0-.45-.14-.53-.41l-5.07-15.81c-.03-.08-.08-.12-.14-.1-.07.01-.1.06-.1.14l.04,15.69c0,.14-.05.25-.14.35s-.21.14-.35.14h-4.74c-.14,0-.25-.05-.35-.14s-.14-.21-.14-.35v-27.62c0-.14.05-.25.14-.35.1-.09.21-.14.35-.14h5.35c.27,0,.45.14.53.41l5.11,15.81c.03.08.07.12.14.1.07-.01.1-.06.1-.14l-.04-15.69c0-.14.05-.25.14-.35Z"/>
    </g>
    <g>
      <path class="st0" d="M293.87,83.59c.09.1.14.21.14.35v3.96c0,.14-.05.25-.14.35s-.21.14-.35.14h-5.11c-.14,0-.2.07-.2.2v22.96c0,.14-.05.25-.14.35-.1.1-.21.14-.35.14h-4.78c-.14,0-.25-.05-.35-.14-.1-.1-.14-.21-.14-.35v-22.96c0-.14-.07-.2-.2-.2h-4.9c-.14,0-.25-.05-.35-.14-.1-.09-.14-.21-.14-.35v-3.96c0-.14.05-.25.14-.35.1-.09.21-.14.35-.14h16.18c.14,0,.25.05.35.14Z"/>
      <path class="st0" d="M298.22,110.17c-1.5-1.47-2.25-3.43-2.25-5.88v-13.07c0-2.45.75-4.41,2.25-5.88,1.5-1.47,3.5-2.21,6.01-2.21s4.51.74,6.03,2.21c1.51,1.47,2.27,3.43,2.27,5.88v13.07c0,2.45-.76,4.41-2.27,5.88-1.51,1.47-3.52,2.21-6.03,2.21s-4.51-.74-6.01-2.21ZM306.07,106.63c.46-.53.69-1.23.69-2.1v-13.56c0-.87-.23-1.57-.69-2.1s-1.08-.8-1.84-.8-1.37.27-1.82.8-.67,1.23-.67,2.1v13.56c0,.87.22,1.57.67,2.1s1.05.8,1.82.8,1.38-.26,1.84-.8Z"/>
      <path class="st0" d="M337.32,84.51c1.17.74,2.08,1.76,2.72,3.08.64,1.32.96,2.83.96,4.51,0,2.53-.68,4.56-2.04,6.09-1.36,1.53-3.15,2.29-5.35,2.29h-3.06c-.14,0-.2.07-.2.21v10.87c0,.14-.05.25-.14.35s-.21.14-.35.14h-4.78c-.14,0-.25-.05-.35-.14s-.14-.21-.14-.35v-27.66c0-.14.05-.25.14-.35.1-.09.21-.14.35-.14h8.25c1.5,0,2.83.37,4,1.1ZM334.44,94.99c.53-.67.8-1.59.8-2.76s-.27-2.14-.8-2.82-1.23-1.02-2.1-1.02h-1.8c-.14,0-.2.07-.2.2v7.19c0,.14.07.2.2.2h1.8c.87,0,1.57-.33,2.1-1Z"/>
      <path class="st0" d="M358.83,88.25c-.1.1-.21.14-.35.14h-8.54c-.14,0-.2.07-.2.2v6.46c0,.14.07.2.2.2h4.9c.14,0,.25.05.35.14s.14.21.14.35v3.96c0,.14-.05.25-.14.35-.1.1-.21.14-.35.14h-4.9c-.14,0-.2.07-.2.21v6.5c0,.14.07.2.2.2h8.54c.14,0,.25.05.35.14.09.1.14.21.14.35v3.96c0,.14-.05.25-.14.35-.1.1-.21.14-.35.14h-14.01c-.14,0-.25-.05-.35-.14s-.14-.21-.14-.35v-27.62c0-.14.05-.25.14-.35.1-.09.21-.14.35-.14h14.01c.14,0,.25.05.35.14.09.1.14.21.14.35v3.96c0,.14-.05.25-.14.35Z"/>
      <path class="st0" d="M372.95,111.64l-3.15-11.28c-.05-.11-.12-.16-.2-.16h-1.39c-.14,0-.2.07-.2.21v11.15c0,.14-.05.25-.14.35-.1.1-.21.14-.35.14h-4.78c-.14,0-.25-.05-.35-.14s-.14-.21-.14-.35v-27.62c0-.14.05-.25.14-.35.1-.09.21-.14.35-.14h8.25c1.5,0,2.83.36,4,1.08,1.17.72,2.08,1.74,2.72,3.04.64,1.31.96,2.81.96,4.49s-.31,3.02-.92,4.25c-.61,1.23-1.46,2.18-2.55,2.86-.05.03-.1.06-.12.1-.03.04-.03.09,0,.14l3.76,12.05.04.16c0,.27-.15.41-.45.41h-4.9c-.3,0-.49-.14-.57-.41ZM368,88.6v6.99c0,.14.07.2.2.2h1.84c.84,0,1.53-.33,2.06-1,.53-.67.8-1.56.8-2.68s-.27-2.05-.8-2.72c-.53-.67-1.22-1-2.06-1h-1.84c-.14,0-.2.07-.2.2Z"/>
      <path class="st0" d="M396.66,88.25c-.1.1-.21.14-.35.14h-8.5c-.14,0-.2.07-.2.2v6.46c0,.14.07.2.2.2h4.86c.14,0,.25.05.35.14s.14.21.14.35v3.96c0,.14-.05.25-.14.35-.1.1-.21.14-.35.14h-4.86c-.14,0-.2.07-.2.21v11.15c0,.14-.05.25-.14.35-.1.1-.21.14-.35.14h-4.78c-.14,0-.25-.05-.35-.14s-.14-.21-.14-.35v-27.62c0-.14.05-.25.14-.35.1-.09.21-.14.35-.14h13.97c.14,0,.25.05.35.14.09.1.14.21.14.35v3.96c0,.14-.05.25-.14.35Z"/>
      <path class="st0" d="M414.27,88.25c-.1.1-.21.14-.35.14h-8.54c-.14,0-.21.07-.21.2v6.46c0,.14.07.2.21.2h4.9c.14,0,.25.05.35.14.09.1.14.21.14.35v3.96c0,.14-.05.25-.14.35s-.21.14-.35.14h-4.9c-.14,0-.21.07-.21.21v6.5c0,.14.07.2.21.2h8.54c.14,0,.25.05.35.14.09.1.14.21.14.35v3.96c0,.14-.05.25-.14.35-.1.1-.21.14-.35.14h-14.01c-.14,0-.25-.05-.35-.14-.1-.1-.14-.21-.14-.35v-27.62c0-.14.05-.25.14-.35s.21-.14.35-.14h14.01c.14,0,.25.05.35.14.09.1.14.21.14.35v3.96c0,.14-.05.25-.14.35Z"/>
      <path class="st0" d="M419.5,110.19c-1.49-1.46-2.23-3.41-2.23-5.86v-13.24c0-2.42.74-4.36,2.23-5.8,1.48-1.44,3.45-2.17,5.9-2.17s4.46.72,5.94,2.17c1.48,1.44,2.23,3.38,2.23,5.8v.45c0,.14-.05.25-.14.35-.1.1-.21.14-.35.14l-4.78.2c-.33,0-.49-.15-.49-.45v-1.06c0-.79-.22-1.43-.65-1.92s-1.02-.74-1.76-.74-1.28.25-1.72.74-.65,1.13-.65,1.92v14.1c0,.79.22,1.42.65,1.9.44.48,1.01.71,1.72.71s1.32-.24,1.76-.71c.44-.48.65-1.11.65-1.9v-1.1c0-.14.05-.25.14-.35.09-.1.21-.14.35-.14l4.78.21c.14,0,.25.05.35.14.09.1.14.21.14.35v.41c0,2.45-.75,4.41-2.25,5.86-1.5,1.46-3.47,2.19-5.92,2.19s-4.42-.73-5.9-2.19Z"/>
      <path class="st0" d="M453.21,83.59c.1.1.14.21.14.35v3.96c0,.14-.05.25-.14.35-.1.1-.21.14-.35.14h-5.11c-.14,0-.2.07-.2.2v22.96c0,.14-.05.25-.14.35s-.21.14-.35.14h-4.78c-.14,0-.25-.05-.35-.14s-.14-.21-.14-.35v-22.96c0-.14-.07-.2-.2-.2h-4.9c-.14,0-.25-.05-.35-.14-.1-.09-.14-.21-.14-.35v-3.96c0-.14.05-.25.14-.35s.21-.14.35-.14h16.18c.14,0,.25.05.35.14Z"/>
      <path class="st0" d="M456.64,111.91c-.1-.1-.14-.21-.14-.35v-27.62c0-.14.05-.25.14-.35.1-.09.21-.14.35-.14h4.78c.14,0,.25.05.35.14.1.1.14.21.14.35v27.62c0,.14-.05.25-.14.35s-.21.14-.35.14h-4.78c-.14,0-.25-.05-.35-.14Z"/>
      <path class="st0" d="M468.1,110.17c-1.5-1.47-2.25-3.43-2.25-5.88v-13.07c0-2.45.75-4.41,2.25-5.88s3.5-2.21,6.01-2.21,4.51.74,6.03,2.21,2.27,3.43,2.27,5.88v13.07c0,2.45-.76,4.41-2.27,5.88-1.51,1.47-3.52,2.21-6.03,2.21s-4.51-.74-6.01-2.21ZM475.94,106.63c.46-.53.69-1.23.69-2.1v-13.56c0-.87-.23-1.57-.69-2.1-.46-.53-1.08-.8-1.84-.8s-1.37.27-1.82.8c-.45.53-.67,1.23-.67,2.1v13.56c0,.87.22,1.57.67,2.1.45.53,1.05.8,1.82.8s1.38-.26,1.84-.8Z"/>
      <path class="st0" d="M497.78,83.59c.1-.09.21-.14.35-.14h4.74c.14,0,.25.05.35.14.09.1.14.21.14.35v27.62c0,.14-.05.25-.14.35-.1.1-.21.14-.35.14h-5.39c-.27,0-.45-.14-.53-.41l-5.07-15.81c-.03-.08-.08-.12-.14-.1-.07.01-.1.06-.1.14l.04,15.69c0,.14-.05.25-.14.35s-.21.14-.35.14h-4.74c-.14,0-.25-.05-.35-.14s-.14-.21-.14-.35v-27.62c0-.14.05-.25.14-.35.1-.09.21-.14.35-.14h5.35c.27,0,.45.14.53.41l5.11,15.81c.03.08.07.12.14.1.07-.01.1-.06.1-.14l-.04-15.69c0-.14.05-.25.14-.35Z"/>
    </g>
  </g>
  <g>
    <g>
      <path class="st1" d="M173.97,63.1c-.12-.12-.18-.26-.18-.43V28.19c0-.17.06-.31.18-.43.12-.12.26-.18.43-.18h9.23c3.09,0,5.58.9,7.44,2.7s2.81,4.2,2.81,7.19v15.91c0,2.99-.94,5.39-2.81,7.19s-4.35,2.7-7.44,2.7h-9.23c-.17,0-.31-.06-.43-.18ZM181.23,57.11l2.29-.05c.92-.03,1.67-.42,2.24-1.17.58-.75.88-1.73.92-2.96v-14.99c0-1.29-.29-2.31-.87-3.06-.58-.75-1.36-1.12-2.35-1.12h-2.24c-.17,0-.25.08-.25.25v22.85c0,.17.08.25.25.25Z"/>
      <path class="st1" d="M216.91,33.57c-.12.12-.26.18-.43.18h-10.66c-.17,0-.25.08-.25.25v8.06c0,.17.08.25.25.25h6.12c.17,0,.31.06.43.18.12.12.18.26.18.43v4.95c0,.17-.06.32-.18.43-.12.12-.26.18-.43.18h-6.12c-.17,0-.25.08-.25.25v8.11c0,.17.08.25.25.25h10.66c.17,0,.31.06.43.18.12.12.18.26.18.43v4.95c0,.17-.06.31-.18.43-.12.12-.26.18-.43.18h-17.49c-.17,0-.31-.06-.43-.18-.12-.12-.18-.26-.18-.43V28.19c0-.17.06-.31.18-.43.12-.12.26-.18.43-.18h17.49c.17,0,.31.06.43.18.12.12.18.26.18.43v4.95c0,.17-.06.31-.18.43Z"/>
      <path class="st1" d="M225.14,62.51c-1.5-.78-2.65-1.88-3.47-3.29-.82-1.41-1.22-3.03-1.22-4.87v-1.48c0-.17.06-.31.18-.43.12-.12.26-.18.43-.18h5.86c.17,0,.31.06.43.18s.18.26.18.43v1.12c0,1.05.27,1.9.82,2.55.54.65,1.22.97,2.04.97s1.5-.31,2.04-.92c.54-.61.82-1.41.82-2.4s-.34-1.89-1.02-2.63c-.68-.73-2.01-1.81-3.98-3.24-1.7-1.22-3.08-2.31-4.13-3.26-1.05-.95-1.96-2.12-2.7-3.52-.75-1.39-1.12-3.01-1.12-4.84,0-2.89.9-5.2,2.7-6.93,1.8-1.73,4.18-2.6,7.14-2.6s5.4.9,7.22,2.7c1.82,1.8,2.73,4.17,2.73,7.09v1.22c0,.17-.06.31-.18.43-.12.12-.26.18-.43.18h-5.86c-.17,0-.31-.06-.43-.18-.12-.12-.18-.26-.18-.43v-1.38c0-1.05-.26-1.89-.79-2.52-.53-.63-1.22-.94-2.07-.94s-1.48.3-1.99.89c-.51.59-.76,1.42-.76,2.47s.32,1.92.97,2.7c.65.78,1.92,1.87,3.82,3.26,2.11,1.56,3.7,2.83,4.77,3.8,1.07.97,1.9,2.04,2.5,3.21.59,1.17.89,2.58.89,4.21,0,2.99-.92,5.37-2.75,7.14s-4.25,2.65-7.24,2.65c-1.97,0-3.71-.39-5.2-1.17Z"/>
      <path class="st1" d="M244.44,63.1c-.12-.12-.18-.26-.18-.43V28.19c0-.17.06-.31.18-.43.12-.12.26-.18.43-.18h5.97c.17,0,.31.06.43.18s.18.26.18.43v34.47c0,.17-.06.31-.18.43-.12.12-.26.18-.43.18h-5.97c-.17,0-.31-.06-.43-.18Z"/>
      <path class="st1" d="M258.72,61.06c-1.85-1.75-2.78-4.09-2.78-7.01v-17.24c0-2.92.93-5.26,2.78-7.01,1.85-1.75,4.31-2.63,7.37-2.63s5.52.88,7.39,2.65c1.87,1.77,2.8,4.11,2.8,7.04v1.94c0,.17-.06.32-.18.43-.12.12-.26.18-.43.18h-5.97c-.17,0-.31-.06-.43-.18-.12-.12-.18-.26-.18-.43v-2.04c0-1.02-.27-1.84-.82-2.47-.54-.63-1.27-.94-2.19-.94s-1.6.31-2.14.94c-.54.63-.82,1.45-.82,2.47v17.34c0,1.02.27,1.84.82,2.47.54.63,1.26.94,2.14.94s1.65-.31,2.19-.94c.54-.63.82-1.45.82-2.47v-4.08c0-.17-.09-.25-.26-.25h-2.24c-.17,0-.31-.06-.43-.18-.12-.12-.18-.26-.18-.43v-4.54c0-.17.06-.31.18-.43.12-.12.26-.18.43-.18h9.08c.17,0,.31.06.43.18.12.12.18.26.18.43v9.43c0,2.92-.94,5.26-2.8,7.01-1.87,1.75-4.33,2.63-7.39,2.63s-5.52-.88-7.37-2.63Z"/>
      <path class="st1" d="M295.49,27.76c.12-.12.26-.18.43-.18h5.92c.17,0,.31.06.43.18.12.12.18.26.18.43v34.47c0,.17-.06.31-.18.43-.12.12-.26.18-.43.18h-6.73c-.34,0-.56-.17-.66-.51l-6.32-19.74c-.03-.1-.09-.14-.18-.13-.08.02-.13.08-.13.18l.05,19.58c0,.17-.06.31-.18.43-.12.12-.26.18-.43.18h-5.92c-.17,0-.31-.06-.43-.18-.12-.12-.18-.26-.18-.43V28.19c0-.17.06-.31.18-.43.12-.12.26-.18.43-.18h6.68c.34,0,.56.17.66.51l6.37,19.74c.03.1.09.14.18.13.08-.02.13-.08.13-.18l-.05-19.58c0-.17.06-.31.18-.43Z"/>
      <path class="st1" d="M332.38,62.72l-.82-4.9c0-.17-.1-.25-.31-.25h-6.48c-.2,0-.31.08-.31.25l-.82,4.9c-.03.37-.25.56-.66.56h-5.97c-.44,0-.61-.22-.51-.66l7.5-34.47c.07-.37.29-.56.66-.56h6.88c.37,0,.59.19.66.56l7.45,34.47.05.2c0,.31-.19.46-.56.46h-6.12c-.41,0-.63-.19-.66-.56ZM325.7,52.01h4.59c.17,0,.24-.08.2-.25l-2.4-13.92c-.03-.1-.08-.15-.15-.15s-.12.05-.15.15l-2.29,13.92c0,.17.07.25.2.25Z"/>
      <path class="st1" d="M357.85,27.76c.12-.12.26-.18.43-.18h5.92c.17,0,.31.06.43.18.12.12.18.26.18.43v34.47c0,.17-.06.31-.18.43-.12.12-.26.18-.43.18h-6.73c-.34,0-.56-.17-.66-.51l-6.32-19.74c-.03-.1-.09-.14-.18-.13-.08.02-.13.08-.13.18l.05,19.58c0,.17-.06.31-.18.43-.12.12-.26.18-.43.18h-5.92c-.17,0-.31-.06-.43-.18-.12-.12-.18-.26-.18-.43V28.19c0-.17.06-.31.18-.43.12-.12.26-.18.43-.18h6.68c.34,0,.56.17.66.51l6.37,19.74c.03.1.09.14.18.13.08-.02.13-.08.13-.18l-.05-19.58c0-.17.06-.31.18-.43Z"/>
      <path class="st1" d="M369.94,63.1c-.12-.12-.18-.26-.18-.43V28.19c0-.17.06-.31.18-.43.12-.12.26-.18.43-.18h9.23c3.09,0,5.58.9,7.44,2.7,1.87,1.8,2.8,4.2,2.8,7.19v15.91c0,2.99-.94,5.39-2.8,7.19-1.87,1.8-4.35,2.7-7.44,2.7h-9.23c-.17,0-.31-.06-.43-.18ZM377.2,57.11l2.29-.05c.92-.03,1.67-.42,2.24-1.17.58-.75.88-1.73.92-2.96v-14.99c0-1.29-.29-2.31-.87-3.06-.58-.75-1.36-1.12-2.35-1.12h-2.24c-.17,0-.25.08-.25.25v22.85c0,.17.08.25.25.25Z"/>
      <path class="st1" d="M423.69,33.57c-.12.12-.26.18-.43.18h-10.66c-.17,0-.26.08-.26.25v8.06c0,.17.08.25.26.25h6.12c.17,0,.31.06.43.18.12.12.18.26.18.43v4.95c0,.17-.06.32-.18.43-.12.12-.26.18-.43.18h-6.12c-.17,0-.26.08-.26.25v8.11c0,.17.08.25.26.25h10.66c.17,0,.31.06.43.18s.18.26.18.43v4.95c0,.17-.06.31-.18.43-.12.12-.26.18-.43.18h-17.49c-.17,0-.31-.06-.43-.18-.12-.12-.18-.26-.18-.43V28.19c0-.17.06-.31.18-.43s.26-.18.43-.18h17.49c.17,0,.31.06.43.18s.18.26.18.43v4.95c0,.17-.06.31-.18.43Z"/>
      <path class="st1" d="M427.03,63.07c-.07-.13-.07-.31,0-.51l6.93-16.98c.03-.1.03-.2,0-.31l-6.93-16.98c-.03-.07-.05-.17-.05-.31,0-.27.17-.41.51-.41h6.12c.34,0,.56.17.66.51l3.42,9.79c.03.1.08.15.15.15s.12-.05.15-.15l3.42-9.79c.1-.34.32-.51.66-.51h6.07c.24,0,.39.07.46.2.07.14.07.31,0,.51l-6.94,16.98c-.03.1-.03.2,0,.31l6.94,16.98c.03.07.05.17.05.31,0,.27-.17.41-.51.41h-6.07c-.34,0-.56-.17-.66-.51l-3.42-9.74c-.03-.1-.09-.15-.15-.15s-.12.05-.15.15l-3.47,9.74c-.1.34-.32.51-.66.51h-6.07c-.24,0-.39-.07-.46-.2Z"/>
      <path class="st1" d="M471.16,33.57c-.12.12-.26.18-.43.18h-10.66c-.17,0-.26.08-.26.25v8.06c0,.17.08.25.26.25h6.12c.17,0,.31.06.43.18.12.12.18.26.18.43v4.95c0,.17-.06.32-.18.43-.12.12-.26.18-.43.18h-6.12c-.17,0-.26.08-.26.25v8.11c0,.17.08.25.26.25h10.66c.17,0,.31.06.43.18s.18.26.18.43v4.95c0,.17-.06.31-.18.43-.12.12-.26.18-.43.18h-17.49c-.17,0-.31-.06-.43-.18-.12-.12-.18-.26-.18-.43V28.19c0-.17.06-.31.18-.43s.26-.18.43-.18h17.49c.17,0,.31.06.43.18s.18.26.18.43v4.95c0,.17-.06.31-.18.43Z"/>
      <path class="st1" d="M477.69,60.96c-1.85-1.82-2.78-4.26-2.78-7.32v-16.52c0-3.03.93-5.44,2.78-7.24,1.85-1.8,4.31-2.7,7.37-2.7s5.57.9,7.42,2.7c1.85,1.8,2.78,4.22,2.78,7.24v.56c0,.17-.06.32-.18.43-.12.12-.26.18-.43.18l-5.97.25c-.41,0-.61-.19-.61-.56v-1.33c0-.99-.27-1.79-.82-2.4-.54-.61-1.27-.92-2.19-.92s-1.6.31-2.14.92c-.54.61-.82,1.41-.82,2.4v17.59c0,.99.27,1.78.82,2.37.54.59,1.26.89,2.14.89s1.65-.3,2.19-.89.82-1.38.82-2.37v-1.38c0-.17.06-.31.18-.43.12-.12.26-.18.43-.18l5.97.25c.17,0,.31.06.43.18.12.12.18.26.18.43v.51c0,3.06-.94,5.5-2.8,7.32-1.87,1.82-4.33,2.73-7.39,2.73s-5.52-.91-7.37-2.73Z"/>
      <path class="st1" d="M502.16,60.81c-1.85-1.92-2.78-4.48-2.78-7.67v-24.94c0-.17.06-.31.18-.43.12-.12.26-.18.43-.18h5.97c.17,0,.31.06.43.18s.18.26.18.43v25.65c0,1.09.27,1.97.82,2.65.54.68,1.26,1.02,2.14,1.02s1.59-.34,2.12-1.02c.53-.68.79-1.56.79-2.65v-25.65c0-.17.06-.31.18-.43.12-.12.26-.18.43-.18h5.97c.17,0,.31.06.43.18s.18.26.18.43v24.94c0,3.2-.93,5.75-2.78,7.67-1.85,1.92-4.29,2.88-7.32,2.88s-5.52-.96-7.37-2.88Z"/>
      <path class="st1" d="M544.64,27.76c.12.12.18.26.18.43v4.95c0,.17-.06.31-.18.43s-.26.18-.43.18h-6.37c-.17,0-.25.08-.25.25v28.66c0,.17-.06.31-.18.43-.12.12-.26.18-.43.18h-5.97c-.17,0-.31-.06-.43-.18-.12-.12-.18-.26-.18-.43v-28.66c0-.17-.08-.25-.25-.25h-6.12c-.17,0-.31-.06-.43-.18s-.18-.26-.18-.43v-4.95c0-.17.06-.31.18-.43s.26-.18.43-.18h20.19c.17,0,.31.06.43.18Z"/>
      <path class="st1" d="M548.92,63.1c-.12-.12-.18-.26-.18-.43V28.19c0-.17.06-.31.18-.43s.26-.18.43-.18h5.97c.17,0,.31.06.43.18.12.12.18.26.18.43v34.47c0,.17-.06.31-.18.43s-.26.18-.43.18h-5.97c-.17,0-.31-.06-.43-.18Z"/>
      <path class="st1" d="M563.23,60.93c-1.87-1.84-2.8-4.28-2.8-7.34v-16.32c0-3.06.94-5.51,2.8-7.34,1.87-1.84,4.37-2.75,7.5-2.75s5.63.92,7.52,2.75,2.83,4.28,2.83,7.34v16.32c0,3.06-.94,5.51-2.83,7.34s-4.39,2.75-7.52,2.75-5.63-.92-7.5-2.75ZM573.02,56.52c.58-.66.87-1.54.87-2.63v-16.93c0-1.09-.29-1.96-.87-2.63s-1.34-.99-2.29-.99-1.71.33-2.27.99c-.56.66-.84,1.54-.84,2.63v16.93c0,1.09.28,1.96.84,2.63.56.66,1.32,1,2.27,1s1.72-.33,2.29-1Z"/>
      <path class="st1" d="M600.28,27.76c.12-.12.26-.18.43-.18h5.92c.17,0,.31.06.43.18s.18.26.18.43v34.47c0,.17-.06.31-.18.43-.12.12-.26.18-.43.18h-6.73c-.34,0-.56-.17-.66-.51l-6.32-19.74c-.03-.1-.09-.14-.18-.13-.09.02-.13.08-.13.18l.05,19.58c0,.17-.06.31-.18.43-.12.12-.26.18-.43.18h-5.92c-.17,0-.31-.06-.43-.18-.12-.12-.18-.26-.18-.43V28.19c0-.17.06-.31.18-.43s.26-.18.43-.18h6.68c.34,0,.56.17.66.51l6.37,19.74c.03.1.09.14.18.13.08-.02.13-.08.13-.18l-.05-19.58c0-.17.06-.31.18-.43Z"/>
    </g>
    <g>
      <path class="st1" d="M173.97,63.1c-.12-.12-.18-.26-.18-.43V28.19c0-.17.06-.31.18-.43.12-.12.26-.18.43-.18h9.23c3.09,0,5.58.9,7.44,2.7s2.81,4.2,2.81,7.19v15.91c0,2.99-.94,5.39-2.81,7.19s-4.35,2.7-7.44,2.7h-9.23c-.17,0-.31-.06-.43-.18ZM181.23,57.11l2.29-.05c.92-.03,1.67-.42,2.24-1.17.58-.75.88-1.73.92-2.96v-14.99c0-1.29-.29-2.31-.87-3.06-.58-.75-1.36-1.12-2.35-1.12h-2.24c-.17,0-.25.08-.25.25v22.85c0,.17.08.25.25.25Z"/>
      <path class="st1" d="M216.91,33.57c-.12.12-.26.18-.43.18h-10.66c-.17,0-.25.08-.25.25v8.06c0,.17.08.25.25.25h6.12c.17,0,.31.06.43.18.12.12.18.26.18.43v4.95c0,.17-.06.32-.18.43-.12.12-.26.18-.43.18h-6.12c-.17,0-.25.08-.25.25v8.11c0,.17.08.25.25.25h10.66c.17,0,.31.06.43.18.12.12.18.26.18.43v4.95c0,.17-.06.31-.18.43-.12.12-.26.18-.43.18h-17.49c-.17,0-.31-.06-.43-.18-.12-.12-.18-.26-.18-.43V28.19c0-.17.06-.31.18-.43.12-.12.26-.18.43-.18h17.49c.17,0,.31.06.43.18.12.12.18.26.18.43v4.95c0,.17-.06.31-.18.43Z"/>
      <path class="st1" d="M225.14,62.51c-1.5-.78-2.65-1.88-3.47-3.29-.82-1.41-1.22-3.03-1.22-4.87v-1.48c0-.17.06-.31.18-.43.12-.12.26-.18.43-.18h5.86c.17,0,.31.06.43.18s.18.26.18.43v1.12c0,1.05.27,1.9.82,2.55.54.65,1.22.97,2.04.97s1.5-.31,2.04-.92c.54-.61.82-1.41.82-2.4s-.34-1.89-1.02-2.63c-.68-.73-2.01-1.81-3.98-3.24-1.7-1.22-3.08-2.31-4.13-3.26-1.05-.95-1.96-2.12-2.7-3.52-.75-1.39-1.12-3.01-1.12-4.84,0-2.89.9-5.2,2.7-6.93,1.8-1.73,4.18-2.6,7.14-2.6s5.4.9,7.22,2.7c1.82,1.8,2.73,4.17,2.73,7.09v1.22c0,.17-.06.31-.18.43-.12.12-.26.18-.43.18h-5.86c-.17,0-.31-.06-.43-.18-.12-.12-.18-.26-.18-.43v-1.38c0-1.05-.26-1.89-.79-2.52-.53-.63-1.22-.94-2.07-.94s-1.48.3-1.99.89c-.51.59-.76,1.42-.76,2.47s.32,1.92.97,2.7c.65.78,1.92,1.87,3.82,3.26,2.11,1.56,3.7,2.83,4.77,3.8,1.07.97,1.9,2.04,2.5,3.21.59,1.17.89,2.58.89,4.21,0,2.99-.92,5.37-2.75,7.14s-4.25,2.65-7.24,2.65c-1.97,0-3.71-.39-5.2-1.17Z"/>
      <path class="st1" d="M244.44,63.1c-.12-.12-.18-.26-.18-.43V28.19c0-.17.06-.31.18-.43.12-.12.26-.18.43-.18h5.97c.17,0,.31.06.43.18s.18.26.18.43v34.47c0,.17-.06.31-.18.43-.12.12-.26.18-.43.18h-5.97c-.17,0-.31-.06-.43-.18Z"/>
      <path class="st1" d="M258.72,61.06c-1.85-1.75-2.78-4.09-2.78-7.01v-17.24c0-2.92.93-5.26,2.78-7.01,1.85-1.75,4.31-2.63,7.37-2.63s5.52.88,7.39,2.65c1.87,1.77,2.8,4.11,2.8,7.04v1.94c0,.17-.06.32-.18.43-.12.12-.26.18-.43.18h-5.97c-.17,0-.31-.06-.43-.18-.12-.12-.18-.26-.18-.43v-2.04c0-1.02-.27-1.84-.82-2.47-.54-.63-1.27-.94-2.19-.94s-1.6.31-2.14.94c-.54.63-.82,1.45-.82,2.47v17.34c0,1.02.27,1.84.82,2.47.54.63,1.26.94,2.14.94s1.65-.31,2.19-.94c.54-.63.82-1.45.82-2.47v-4.08c0-.17-.09-.25-.26-.25h-2.24c-.17,0-.31-.06-.43-.18-.12-.12-.18-.26-.18-.43v-4.54c0-.17.06-.31.18-.43.12-.12.26-.18.43-.18h9.08c.17,0,.31.06.43.18.12.12.18.26.18.43v9.43c0,2.92-.94,5.26-2.8,7.01-1.87,1.75-4.33,2.63-7.39,2.63s-5.52-.88-7.37-2.63Z"/>
      <path class="st1" d="M295.49,27.76c.12-.12.26-.18.43-.18h5.92c.17,0,.31.06.43.18.12.12.18.26.18.43v34.47c0,.17-.06.31-.18.43-.12.12-.26.18-.43.18h-6.73c-.34,0-.56-.17-.66-.51l-6.32-19.74c-.03-.1-.09-.14-.18-.13-.08.02-.13.08-.13.18l.05,19.58c0,.17-.06.31-.18.43-.12.12-.26.18-.43.18h-5.92c-.17,0-.31-.06-.43-.18-.12-.12-.18-.26-.18-.43V28.19c0-.17.06-.31.18-.43.12-.12.26-.18.43-.18h6.68c.34,0,.56.17.66.51l6.37,19.74c.03.1.09.14.18.13.08-.02.13-.08.13-.18l-.05-19.58c0-.17.06-.31.18-.43Z"/>
      <path class="st1" d="M332.38,62.72l-.82-4.9c0-.17-.1-.25-.31-.25h-6.48c-.2,0-.31.08-.31.25l-.82,4.9c-.03.37-.25.56-.66.56h-5.97c-.44,0-.61-.22-.51-.66l7.5-34.47c.07-.37.29-.56.66-.56h6.88c.37,0,.59.19.66.56l7.45,34.47.05.2c0,.31-.19.46-.56.46h-6.12c-.41,0-.63-.19-.66-.56ZM325.7,52.01h4.59c.17,0,.24-.08.2-.25l-2.4-13.92c-.03-.1-.08-.15-.15-.15s-.12.05-.15.15l-2.29,13.92c0,.17.07.25.2.25Z"/>
      <path class="st1" d="M357.85,27.76c.12-.12.26-.18.43-.18h5.92c.17,0,.31.06.43.18.12.12.18.26.18.43v34.47c0,.17-.06.31-.18.43-.12.12-.26.18-.43.18h-6.73c-.34,0-.56-.17-.66-.51l-6.32-19.74c-.03-.1-.09-.14-.18-.13-.08.02-.13.08-.13.18l.05,19.58c0,.17-.06.31-.18.43-.12.12-.26.18-.43.18h-5.92c-.17,0-.31-.06-.43-.18-.12-.12-.18-.26-.18-.43V28.19c0-.17.06-.31.18-.43.12-.12.26-.18.43-.18h6.68c.34,0,.56.17.66.51l6.37,19.74c.03.1.09.14.18.13.08-.02.13-.08.13-.18l-.05-19.58c0-.17.06-.31.18-.43Z"/>
      <path class="st1" d="M369.94,63.1c-.12-.12-.18-.26-.18-.43V28.19c0-.17.06-.31.18-.43.12-.12.26-.18.43-.18h9.23c3.09,0,5.58.9,7.44,2.7,1.87,1.8,2.8,4.2,2.8,7.19v15.91c0,2.99-.94,5.39-2.8,7.19-1.87,1.8-4.35,2.7-7.44,2.7h-9.23c-.17,0-.31-.06-.43-.18ZM377.2,57.11l2.29-.05c.92-.03,1.67-.42,2.24-1.17.58-.75.88-1.73.92-2.96v-14.99c0-1.29-.29-2.31-.87-3.06-.58-.75-1.36-1.12-2.35-1.12h-2.24c-.17,0-.25.08-.25.25v22.85c0,.17.08.25.25.25Z"/>
      <path class="st1" d="M423.69,33.57c-.12.12-.26.18-.43.18h-10.66c-.17,0-.26.08-.26.25v8.06c0,.17.08.25.26.25h6.12c.17,0,.31.06.43.18.12.12.18.26.18.43v4.95c0,.17-.06.32-.18.43-.12.12-.26.18-.43.18h-6.12c-.17,0-.26.08-.26.25v8.11c0,.17.08.25.26.25h10.66c.17,0,.31.06.43.18s.18.26.18.43v4.95c0,.17-.06.31-.18.43-.12.12-.26.18-.43.18h-17.49c-.17,0-.31-.06-.43-.18-.12-.12-.18-.26-.18-.43V28.19c0-.17.06-.31.18-.43s.26-.18.43-.18h17.49c.17,0,.31.06.43.18s.18.26.18.43v4.95c0,.17-.06.31-.18.43Z"/>
      <path class="st1" d="M427.03,63.07c-.07-.13-.07-.31,0-.51l6.93-16.98c.03-.1.03-.2,0-.31l-6.93-16.98c-.03-.07-.05-.17-.05-.31,0-.27.17-.41.51-.41h6.12c.34,0,.56.17.66.51l3.42,9.79c.03.1.08.15.15.15s.12-.05.15-.15l3.42-9.79c.1-.34.32-.51.66-.51h6.07c.24,0,.39.07.46.2.07.14.07.31,0,.51l-6.94,16.98c-.03.1-.03.2,0,.31l6.94,16.98c.03.07.05.17.05.31,0,.27-.17.41-.51.41h-6.07c-.34,0-.56-.17-.66-.51l-3.42-9.74c-.03-.1-.09-.15-.15-.15s-.12.05-.15.15l-3.47,9.74c-.1.34-.32.51-.66.51h-6.07c-.24,0-.39-.07-.46-.2Z"/>
      <path class="st1" d="M471.16,33.57c-.12.12-.26.18-.43.18h-10.66c-.17,0-.26.08-.26.25v8.06c0,.17.08.25.26.25h6.12c.17,0,.31.06.43.18.12.12.18.26.18.43v4.95c0,.17-.06.32-.18.43-.12.12-.26.18-.43.18h-6.12c-.17,0-.26.08-.26.25v8.11c0,.17.08.25.26.25h10.66c.17,0,.31.06.43.18s.18.26.18.43v4.95c0,.17-.06.31-.18.43-.12.12-.26.18-.43.18h-17.49c-.17,0-.31-.06-.43-.18-.12-.12-.18-.26-.18-.43V28.19c0-.17.06-.31.18-.43s.26-.18.43-.18h17.49c.17,0,.31.06.43.18s.18.26.18.43v4.95c0,.17-.06.31-.18.43Z"/>
      <path class="st1" d="M477.69,60.96c-1.85-1.82-2.78-4.26-2.78-7.32v-16.52c0-3.03.93-5.44,2.78-7.24,1.85-1.8,4.31-2.7,7.37-2.7s5.57.9,7.42,2.7c1.85,1.8,2.78,4.22,2.78,7.24v.56c0,.17-.06.32-.18.43-.12.12-.26.18-.43.18l-5.97.25c-.41,0-.61-.19-.61-.56v-1.33c0-.99-.27-1.79-.82-2.4-.54-.61-1.27-.92-2.19-.92s-1.6.31-2.14.92c-.54.61-.82,1.41-.82,2.4v17.59c0,.99.27,1.78.82,2.37.54.59,1.26.89,2.14.89s1.65-.3,2.19-.89.82-1.38.82-2.37v-1.38c0-.17.06-.31.18-.43.12-.12.26-.18.43-.18l5.97.25c.17,0,.31.06.43.18.12.12.18.26.18.43v.51c0,3.06-.94,5.5-2.8,7.32-1.87,1.82-4.33,2.73-7.39,2.73s-5.52-.91-7.37-2.73Z"/>
      <path class="st1" d="M502.16,60.81c-1.85-1.92-2.78-4.48-2.78-7.67v-24.94c0-.17.06-.31.18-.43.12-.12.26-.18.43-.18h5.97c.17,0,.31.06.43.18s.18.26.18.43v25.65c0,1.09.27,1.97.82,2.65.54.68,1.26,1.02,2.14,1.02s1.59-.34,2.12-1.02c.53-.68.79-1.56.79-2.65v-25.65c0-.17.06-.31.18-.43.12-.12.26-.18.43-.18h5.97c.17,0,.31.06.43.18s.18.26.18.43v24.94c0,3.2-.93,5.75-2.78,7.67-1.85,1.92-4.29,2.88-7.32,2.88s-5.52-.96-7.37-2.88Z"/>
      <path class="st1" d="M544.64,27.76c.12.12.18.26.18.43v4.95c0,.17-.06.31-.18.43s-.26.18-.43.18h-6.37c-.17,0-.25.08-.25.25v28.66c0,.17-.06.31-.18.43-.12.12-.26.18-.43.18h-5.97c-.17,0-.31-.06-.43-.18-.12-.12-.18-.26-.18-.43v-28.66c0-.17-.08-.25-.25-.25h-6.12c-.17,0-.31-.06-.43-.18s-.18-.26-.18-.43v-4.95c0-.17.06-.31.18-.43s.26-.18.43-.18h20.19c.17,0,.31.06.43.18Z"/>
      <path class="st1" d="M548.92,63.1c-.12-.12-.18-.26-.18-.43V28.19c0-.17.06-.31.18-.43s.26-.18.43-.18h5.97c.17,0,.31.06.43.18.12.12.18.26.18.43v34.47c0,.17-.06.31-.18.43s-.26.18-.43.18h-5.97c-.17,0-.31-.06-.43-.18Z"/>
      <path class="st1" d="M563.23,60.93c-1.87-1.84-2.8-4.28-2.8-7.34v-16.32c0-3.06.94-5.51,2.8-7.34,1.87-1.84,4.37-2.75,7.5-2.75s5.63.92,7.52,2.75,2.83,4.28,2.83,7.34v16.32c0,3.06-.94,5.51-2.83,7.34s-4.39,2.75-7.52,2.75-5.63-.92-7.5-2.75ZM573.02,56.52c.58-.66.87-1.54.87-2.63v-16.93c0-1.09-.29-1.96-.87-2.63s-1.34-.99-2.29-.99-1.71.33-2.27.99c-.56.66-.84,1.54-.84,2.63v16.93c0,1.09.28,1.96.84,2.63.56.66,1.32,1,2.27,1s1.72-.33,2.29-1Z"/>
      <path class="st1" d="M600.28,27.76c.12-.12.26-.18.43-.18h5.92c.17,0,.31.06.43.18s.18.26.18.43v34.47c0,.17-.06.31-.18.43-.12.12-.26.18-.43.18h-6.73c-.34,0-.56-.17-.66-.51l-6.32-19.74c-.03-.1-.09-.14-.18-.13-.09.02-.13.08-.13.18l.05,19.58c0,.17-.06.31-.18.43-.12.12-.26.18-.43.18h-5.92c-.17,0-.31-.06-.43-.18-.12-.12-.18-.26-.18-.43V28.19c0-.17.06-.31.18-.43s.26-.18.43-.18h6.68c.34,0,.56.17.66.51l6.37,19.74c.03.1.09.14.18.13.08-.02.13-.08.13-.18l-.05-19.58c0-.17.06-.31.18-.43Z"/>
    </g>
  </g>
</svg>