<?xml version="1.0" encoding="UTF-8"?>
<svg id="Layer_1" xmlns="http://www.w3.org/2000/svg" version="1.1" viewBox="0 0 764 139.55">
  <!-- Generator: Adobe Illustrator 29.6.1, SVG Export Plug-In . SVG Version: 2.1.1 Build 9)  -->
  <defs>
    <style>
      .st0 {
        fill: none;
        stroke: #fff;
        stroke-miterlimit: 10;
      }

      .st1 {
        fill: #fff;
      }

      .st2 {
        fill: #00e1ff;
      }
    </style>
  </defs>
  <g>
    <g>
      <path class="st2" d="M88.27,108.64c-1.48-1.46-2.23-3.41-2.23-5.86v-13.24c0-2.42.74-4.36,2.23-5.8,1.48-1.44,3.45-2.17,5.9-2.17s4.46.72,5.94,2.17c1.48,1.44,2.23,3.38,2.23,5.8v.45c0,.14-.05.25-.14.35-.1.1-.21.14-.35.14l-4.78.2c-.33,0-.49-.15-.49-.45v-1.06c0-.79-.22-1.43-.65-1.92-.44-.49-1.02-.74-1.76-.74s-1.28.25-1.72.74-.65,1.13-.65,1.92v14.1c0,.79.22,1.42.65,1.9.44.48,1.01.71,1.72.71s1.32-.24,1.76-.71c.44-.48.65-1.11.65-1.9v-1.1c0-.14.05-.25.14-.35.1-.1.21-.14.35-.14l4.78.21c.14,0,.25.05.35.14.1.1.14.21.14.35v.41c0,2.45-.75,4.41-2.25,5.86-1.5,1.46-3.47,2.19-5.92,2.19s-4.42-.73-5.9-2.19Z"/>
      <path class="st2" d="M116.48,110.09l-3.15-11.28c-.05-.11-.12-.16-.2-.16h-1.39c-.14,0-.2.07-.2.21v11.15c0,.14-.05.25-.14.35-.1.1-.21.14-.35.14h-4.78c-.14,0-.25-.05-.35-.14-.1-.1-.14-.21-.14-.35v-27.62c0-.14.05-.25.14-.35.1-.09.21-.14.35-.14h8.25c1.5,0,2.83.36,4,1.08,1.17.72,2.08,1.74,2.72,3.04.64,1.31.96,2.81.96,4.49s-.31,3.02-.92,4.25-1.46,2.18-2.55,2.86c-.06.03-.1.06-.12.1-.03.04-.03.09,0,.14l3.76,12.05.04.16c0,.27-.15.41-.45.41h-4.9c-.3,0-.49-.14-.57-.41ZM111.54,87.05v6.99c0,.14.07.2.2.2h1.84c.84,0,1.53-.33,2.06-1,.53-.67.8-1.56.8-2.68s-.27-2.05-.8-2.72c-.53-.67-1.22-1-2.06-1h-1.84c-.14,0-.2.07-.2.2Z"/>
      <path class="st2" d="M140.24,86.7c-.1.1-.21.14-.35.14h-8.54c-.14,0-.2.07-.2.2v6.46c0,.14.07.2.2.2h4.9c.14,0,.25.05.35.14.1.1.14.21.14.35v3.96c0,.14-.05.25-.14.35-.1.1-.21.14-.35.14h-4.9c-.14,0-.2.07-.2.21v6.5c0,.14.07.2.2.2h8.54c.14,0,.25.05.35.14.09.1.14.21.14.35v3.96c0,.14-.05.25-.14.35-.1.1-.21.14-.35.14h-14.01c-.14,0-.25-.05-.35-.14-.1-.1-.14-.21-.14-.35v-27.62c0-.14.05-.25.14-.35.1-.09.21-.14.35-.14h14.01c.14,0,.25.05.35.14.09.1.14.21.14.35v3.96c0,.14-.05.25-.14.35Z"/>
      <path class="st2" d="M155.78,110.05l-.65-3.92c0-.14-.08-.21-.25-.21h-5.19c-.16,0-.25.07-.25.21l-.65,3.92c-.03.3-.2.45-.53.45h-4.78c-.35,0-.49-.18-.41-.53l6.01-27.62c.05-.3.23-.45.53-.45h5.52c.3,0,.48.15.53.45l5.96,27.62.04.16c0,.25-.15.37-.45.37h-4.9c-.33,0-.5-.15-.53-.45ZM150.43,101.47h3.68c.14,0,.19-.07.16-.2l-1.92-11.15c-.03-.08-.07-.12-.12-.12s-.1.04-.12.12l-1.84,11.15c0,.14.05.2.16.2Z"/>
      <path class="st2" d="M178.15,82.04c.1.1.14.21.14.35v3.96c0,.14-.05.25-.14.35-.1.1-.21.14-.35.14h-5.11c-.14,0-.2.07-.2.2v22.96c0,.14-.05.25-.14.35-.1.1-.21.14-.35.14h-4.78c-.14,0-.25-.05-.35-.14-.1-.1-.14-.21-.14-.35v-22.96c0-.14-.07-.2-.2-.2h-4.9c-.14,0-.25-.05-.35-.14-.1-.09-.14-.21-.14-.35v-3.96c0-.14.05-.25.14-.35.1-.09.21-.14.35-.14h16.18c.14,0,.25.05.35.14Z"/>
      <path class="st2" d="M181.58,110.36c-.1-.1-.14-.21-.14-.35v-27.62c0-.14.05-.25.14-.35.1-.09.21-.14.35-.14h4.78c.14,0,.25.05.35.14.09.1.14.21.14.35v27.62c0,.14-.05.25-.14.35-.1.1-.21.14-.35.14h-4.78c-.14,0-.25-.05-.35-.14Z"/>
      <path class="st2" d="M193.04,108.62c-1.5-1.47-2.25-3.43-2.25-5.88v-13.07c0-2.45.75-4.41,2.25-5.88,1.5-1.47,3.5-2.21,6.01-2.21s4.51.74,6.03,2.21c1.51,1.47,2.27,3.43,2.27,5.88v13.07c0,2.45-.76,4.41-2.27,5.88-1.51,1.47-3.52,2.21-6.03,2.21s-4.51-.74-6.01-2.21ZM200.89,105.08c.46-.53.69-1.23.69-2.1v-13.56c0-.87-.23-1.57-.69-2.1-.46-.53-1.08-.8-1.84-.8s-1.37.27-1.82.8c-.45.53-.67,1.23-.67,2.1v13.56c0,.87.22,1.57.67,2.1.45.53,1.06.8,1.82.8s1.38-.26,1.84-.8Z"/>
      <path class="st2" d="M222.73,82.04c.1-.09.21-.14.35-.14h4.74c.14,0,.25.05.35.14.1.1.14.21.14.35v27.62c0,.14-.05.25-.14.35-.1.1-.21.14-.35.14h-5.39c-.27,0-.45-.14-.53-.41l-5.07-15.81c-.03-.08-.08-.12-.14-.1-.07.01-.1.06-.1.14l.04,15.69c0,.14-.05.25-.14.35-.1.1-.21.14-.35.14h-4.74c-.14,0-.25-.05-.35-.14-.1-.1-.14-.21-.14-.35v-27.62c0-.14.05-.25.14-.35.1-.09.21-.14.35-.14h5.35c.27,0,.45.14.53.41l5.11,15.81c.03.08.07.12.14.1.07-.01.1-.06.1-.14l-.04-15.69c0-.14.05-.25.14-.35Z"/>
      <path class="st2" d="M247.12,86.7c-.1.1-.21.14-.35.14h-8.54c-.14,0-.2.07-.2.2v6.46c0,.14.07.2.2.2h4.9c.14,0,.25.05.35.14.1.1.14.21.14.35v3.96c0,.14-.05.25-.14.35-.1.1-.21.14-.35.14h-4.9c-.14,0-.2.07-.2.21v6.5c0,.14.07.2.2.2h8.54c.14,0,.25.05.35.14.09.1.14.21.14.35v3.96c0,.14-.05.25-.14.35-.1.1-.21.14-.35.14h-14.01c-.14,0-.25-.05-.35-.14-.1-.1-.14-.21-.14-.35v-27.62c0-.14.05-.25.14-.35.1-.09.21-.14.35-.14h14.01c.14,0,.25.05.35.14.09.1.14.21.14.35v3.96c0,.14-.05.25-.14.35Z"/>
      <path class="st2" d="M250.67,110.36c-.1-.1-.14-.21-.14-.35v-27.62c0-.14.05-.25.14-.35.1-.09.21-.14.35-.14h7.39c2.48,0,4.47.72,5.97,2.17,1.5,1.44,2.25,3.36,2.25,5.76v12.75c0,2.4-.75,4.32-2.25,5.76-1.5,1.44-3.49,2.17-5.97,2.17h-7.39c-.14,0-.25-.05-.35-.14ZM256.49,105.55l1.84-.04c.74-.03,1.33-.34,1.8-.94.46-.6.71-1.39.74-2.37v-12.01c0-1.03-.23-1.85-.69-2.45-.46-.6-1.09-.9-1.88-.9h-1.8c-.14,0-.2.07-.2.2v18.3c0,.14.07.2.2.2Z"/>
      <path class="st2" d="M290.36,110.05l-.65-3.92c0-.14-.08-.21-.25-.21h-5.19c-.16,0-.25.07-.25.21l-.65,3.92c-.03.3-.2.45-.53.45h-4.78c-.35,0-.49-.18-.41-.53l6.01-27.62c.05-.3.23-.45.53-.45h5.52c.3,0,.48.15.53.45l5.96,27.62.04.16c0,.25-.15.37-.45.37h-4.9c-.33,0-.5-.15-.53-.45ZM285.01,101.47h3.68c.14,0,.19-.07.16-.2l-1.92-11.15c-.03-.08-.07-.12-.12-.12s-.1.04-.12.12l-1.84,11.15c0,.14.05.2.16.2Z"/>
      <path class="st2" d="M310.77,82.04c.1-.09.21-.14.35-.14h4.74c.14,0,.25.05.35.14.1.1.14.21.14.35v27.62c0,.14-.05.25-.14.35-.1.1-.21.14-.35.14h-5.39c-.27,0-.45-.14-.53-.41l-5.07-15.81c-.03-.08-.08-.12-.14-.1-.07.01-.1.06-.1.14l.04,15.69c0,.14-.05.25-.14.35-.1.1-.21.14-.35.14h-4.74c-.14,0-.25-.05-.35-.14-.1-.1-.14-.21-.14-.35v-27.62c0-.14.05-.25.14-.35.1-.09.21-.14.35-.14h5.35c.27,0,.45.14.53.41l5.11,15.81c.03.08.07.12.14.1.07-.01.1-.06.1-.14l-.04-15.69c0-.14.05-.25.14-.35Z"/>
      <path class="st2" d="M320.45,110.36c-.1-.1-.14-.21-.14-.35v-27.62c0-.14.05-.25.14-.35.1-.09.21-.14.35-.14h7.39c2.48,0,4.47.72,5.97,2.17,1.5,1.44,2.25,3.36,2.25,5.76v12.75c0,2.4-.75,4.32-2.25,5.76-1.5,1.44-3.49,2.17-5.97,2.17h-7.39c-.14,0-.25-.05-.35-.14ZM326.27,105.55l1.84-.04c.74-.03,1.33-.34,1.8-.94.46-.6.71-1.39.74-2.37v-12.01c0-1.03-.23-1.85-.69-2.45-.46-.6-1.09-.9-1.88-.9h-1.8c-.14,0-.2.07-.2.2v18.3c0,.14.07.2.2.2Z"/>
      <path class="st2" d="M363.51,86.7c-.1.1-.21.14-.35.14h-8.54c-.14,0-.2.07-.2.2v6.46c0,.14.07.2.2.2h4.9c.14,0,.25.05.35.14.1.1.14.21.14.35v3.96c0,.14-.05.25-.14.35-.1.1-.21.14-.35.14h-4.9c-.14,0-.2.07-.2.21v6.5c0,.14.07.2.2.2h8.54c.14,0,.25.05.35.14.09.1.14.21.14.35v3.96c0,.14-.05.25-.14.35-.1.1-.21.14-.35.14h-14.01c-.14,0-.25-.05-.35-.14-.1-.1-.14-.21-.14-.35v-27.62c0-.14.05-.25.14-.35.1-.09.21-.14.35-.14h14.01c.14,0,.25.05.35.14.09.1.14.21.14.35v3.96c0,.14-.05.25-.14.35Z"/>
      <path class="st2" d="M367.07,110.36c-.1-.1-.14-.21-.14-.35v-27.62c0-.14.05-.25.14-.35.1-.09.21-.14.35-.14h4.78c.14,0,.25.05.35.14.09.1.14.21.14.35v22.96c0,.14.07.2.2.2h8.58c.14,0,.25.05.35.14.1.1.14.21.14.35v3.96c0,.14-.05.25-.14.35-.1.1-.21.14-.35.14h-14.05c-.14,0-.25-.05-.35-.14Z"/>
      <path class="st2" d="M399.55,86.7c-.1.1-.21.14-.35.14h-8.54c-.14,0-.2.07-.2.2v6.46c0,.14.07.2.2.2h4.9c.13,0,.25.05.35.14.09.1.14.21.14.35v3.96c0,.14-.05.25-.14.35s-.21.14-.35.14h-4.9c-.14,0-.2.07-.2.21v6.5c0,.14.07.2.2.2h8.54c.14,0,.25.05.35.14.1.1.14.21.14.35v3.96c0,.14-.05.25-.14.35s-.21.14-.35.14h-14.01c-.14,0-.25-.05-.35-.14-.1-.1-.14-.21-.14-.35v-27.62c0-.14.05-.25.14-.35s.21-.14.35-.14h14.01c.14,0,.25.05.35.14.1.1.14.21.14.35v3.96c0,.14-.05.25-.14.35Z"/>
      <path class="st2" d="M407.94,110.05l-5.84-27.62-.04-.16c0-.25.15-.37.45-.37h5.27c.33,0,.5.15.53.45l2.82,17.98c.03.11.07.16.12.16s.1-.05.12-.16l2.74-17.98c.03-.3.21-.45.53-.45h5.11c.35,0,.49.18.41.53l-5.88,27.62c-.05.3-.23.45-.53.45h-5.27c-.3,0-.48-.15-.53-.45Z"/>
      <path class="st2" d="M431.68,110.05l-.65-3.92c0-.14-.08-.21-.24-.21h-5.19c-.16,0-.25.07-.25.21l-.65,3.92c-.03.3-.21.45-.53.45h-4.78c-.35,0-.49-.18-.41-.53l6.01-27.62c.05-.3.23-.45.53-.45h5.52c.3,0,.48.15.53.45l5.96,27.62.04.16c0,.25-.15.37-.45.37h-4.9c-.33,0-.5-.15-.53-.45ZM426.33,101.47h3.68c.14,0,.19-.07.16-.2l-1.92-11.15c-.03-.08-.07-.12-.12-.12s-.1.04-.12.12l-1.84,11.15c0,.14.05.2.16.2Z"/>
      <path class="st2" d="M454.05,82.04c.09.1.14.21.14.35v3.96c0,.14-.05.25-.14.35-.1.1-.21.14-.35.14h-5.11c-.14,0-.2.07-.2.2v22.96c0,.14-.05.25-.14.35s-.21.14-.35.14h-4.78c-.14,0-.25-.05-.35-.14s-.14-.21-.14-.35v-22.96c0-.14-.07-.2-.21-.2h-4.9c-.14,0-.25-.05-.35-.14-.1-.09-.14-.21-.14-.35v-3.96c0-.14.05-.25.14-.35s.21-.14.35-.14h16.18c.14,0,.25.05.35.14Z"/>
      <path class="st2" d="M472.19,86.7c-.1.1-.21.14-.35.14h-8.54c-.14,0-.2.07-.2.2v6.46c0,.14.07.2.2.2h4.9c.14,0,.25.05.35.14s.14.21.14.35v3.96c0,.14-.05.25-.14.35-.1.1-.21.14-.35.14h-4.9c-.14,0-.2.07-.2.21v6.5c0,.14.07.2.2.2h8.54c.14,0,.25.05.35.14.1.1.14.21.14.35v3.96c0,.14-.05.25-.14.35s-.21.14-.35.14h-14.01c-.14,0-.25-.05-.35-.14s-.14-.21-.14-.35v-27.62c0-.14.05-.25.14-.35.1-.09.21-.14.35-.14h14.01c.14,0,.25.05.35.14.1.1.14.21.14.35v3.96c0,.14-.05.25-.14.35Z"/>
      <path class="st2" d="M475.74,110.36c-.1-.1-.14-.21-.14-.35v-27.62c0-.14.05-.25.14-.35.1-.09.21-.14.35-.14h7.39c2.48,0,4.47.72,5.96,2.17,1.5,1.44,2.25,3.36,2.25,5.76v12.75c0,2.4-.75,4.32-2.25,5.76s-3.49,2.17-5.96,2.17h-7.39c-.14,0-.25-.05-.35-.14ZM481.56,105.55l1.84-.04c.74-.03,1.33-.34,1.8-.94.46-.6.71-1.39.74-2.37v-12.01c0-1.03-.23-1.85-.7-2.45-.46-.6-1.09-.9-1.88-.9h-1.8c-.14,0-.21.07-.21.2v18.3c0,.14.07.2.21.2Z"/>
      <path class="st2" d="M518.09,108.45c-1.53,1.36-3.5,2.04-5.92,2.04h-7.72c-.14,0-.25-.05-.35-.14s-.14-.21-.14-.35v-27.62c0-.14.05-.25.14-.35.1-.09.21-.14.35-.14h6.82c2.72,0,4.86.65,6.39,1.96,1.54,1.31,2.31,3.25,2.31,5.84s-.93,4.66-2.78,5.88c-.11.08-.12.16-.04.25,2.15,1.53,3.23,3.79,3.23,6.78,0,2.53-.76,4.48-2.29,5.84ZM509.71,87.05v6.41c0,.14.07.2.21.2h1.47c.93,0,1.65-.29,2.16-.88.52-.58.78-1.41.78-2.47,0-1.12-.25-1.97-.76-2.57-.5-.6-1.23-.9-2.19-.9h-1.47c-.14,0-.21.07-.21.2ZM513.84,104.53c.52-.65.78-1.58.78-2.78s-.26-2.15-.78-2.86c-.52-.71-1.21-1.06-2.08-1.06h-1.84c-.14,0-.21.07-.21.2v7.27c0,.14.07.2.21.2h1.8c.9,0,1.61-.33,2.12-.98Z"/>
      <path class="st2" d="M527.26,110.31c-.1-.1-.14-.21-.14-.35v-10.62l-.04-.25-5.72-16.63c-.03-.05-.04-.12-.04-.2,0-.25.15-.37.45-.37h5.03c.3,0,.49.14.57.41l2.53,9.76c.03.08.07.12.12.12s.1-.04.12-.12l2.53-9.76c.08-.27.27-.41.57-.41h5.03c.16,0,.29.05.37.14.08.1.1.24.04.43l-5.76,16.63-.04.25v10.62c0,.14-.05.25-.14.35s-.21.14-.35.14h-4.78c-.14,0-.25-.05-.35-.14Z"/>
      <path class="st2" d="M550.55,110.36c-.1-.1-.14-.21-.14-.35v-27.62c0-.14.05-.25.14-.35.1-.09.21-.14.35-.14h7.39c2.48,0,4.47.72,5.96,2.17,1.5,1.44,2.25,3.36,2.25,5.76v12.75c0,2.4-.75,4.32-2.25,5.76s-3.49,2.17-5.96,2.17h-7.39c-.14,0-.25-.05-.35-.14ZM556.37,105.55l1.84-.04c.73-.03,1.33-.34,1.8-.94.46-.6.71-1.39.73-2.37v-12.01c0-1.03-.23-1.85-.69-2.45-.46-.6-1.09-.9-1.88-.9h-1.8c-.14,0-.2.07-.2.2v18.3c0,.14.07.2.2.2Z"/>
      <path class="st2" d="M573.96,110.31c-.1-.1-.14-.21-.14-.35v-10.62l-.04-.25-5.72-16.63c-.03-.05-.04-.12-.04-.2,0-.25.15-.37.45-.37h5.03c.3,0,.49.14.57.41l2.53,9.76c.03.08.07.12.12.12s.1-.04.12-.12l2.53-9.76c.08-.27.27-.41.57-.41h5.03c.16,0,.29.05.37.14.08.1.1.24.04.43l-5.76,16.63-.04.25v10.62c0,.14-.05.25-.14.35s-.21.14-.35.14h-4.78c-.14,0-.25-.05-.35-.14Z"/>
      <path class="st2" d="M600.06,82.04c.1-.09.21-.14.35-.14h4.74c.13,0,.25.05.35.14.09.1.14.21.14.35v27.62c0,.14-.05.25-.14.35-.1.1-.21.14-.35.14h-5.39c-.27,0-.45-.14-.53-.41l-5.07-15.81c-.03-.08-.08-.12-.14-.1-.07.01-.1.06-.1.14l.04,15.69c0,.14-.05.25-.14.35s-.21.14-.35.14h-4.74c-.14,0-.25-.05-.35-.14s-.14-.21-.14-.35v-27.62c0-.14.05-.25.14-.35.1-.09.21-.14.35-.14h5.35c.27,0,.45.14.53.41l5.11,15.81c.03.08.07.12.14.1.07-.01.1-.06.1-.14l-.04-15.69c0-.14.05-.25.14-.35Z"/>
      <path class="st2" d="M621.09,110.05l-.65-3.92c0-.14-.08-.21-.25-.21h-5.19c-.16,0-.25.07-.25.21l-.65,3.92c-.03.3-.21.45-.53.45h-4.78c-.35,0-.49-.18-.41-.53l6.01-27.62c.05-.3.23-.45.53-.45h5.52c.3,0,.48.15.53.45l5.96,27.62.04.16c0,.25-.15.37-.45.37h-4.9c-.33,0-.51-.15-.53-.45ZM615.73,101.47h3.68c.14,0,.19-.07.16-.2l-1.92-11.15c-.03-.08-.07-.12-.12-.12s-.1.04-.12.12l-1.84,11.15c0,.14.05.2.16.2Z"/>
      <path class="st2" d="M643.35,81.9h4.74c.14,0,.25.05.35.14.1.1.14.21.14.35v27.62c0,.14-.05.25-.14.35s-.21.14-.35.14h-4.78c-.14,0-.25-.05-.35-.14s-.14-.21-.14-.35v-18.34c0-.11-.03-.16-.08-.16s-.11.04-.16.12l-3.19,5.64c-.14.22-.25.33-.33.33s-.19-.11-.33-.33l-3.19-5.64c-.05-.08-.11-.12-.16-.12s-.08.05-.08.16v18.34c0,.14-.05.25-.14.35-.1.1-.21.14-.35.14h-4.78c-.14,0-.25-.05-.35-.14-.1-.1-.14-.21-.14-.35v-27.62c0-.14.05-.25.14-.35.09-.09.21-.14.35-.14h4.7c.27,0,.48.11.61.33l3.63,6.5c.08.11.16.11.25,0l3.51-6.5c.11-.22.31-.33.61-.33Z"/>
      <path class="st2" d="M652.56,110.36c-.1-.1-.14-.21-.14-.35v-27.62c0-.14.05-.25.14-.35.1-.09.21-.14.35-.14h4.78c.14,0,.25.05.35.14.1.1.14.21.14.35v27.62c0,.14-.05.25-.14.35s-.21.14-.35.14h-4.78c-.14,0-.25-.05-.35-.14Z"/>
      <path class="st2" d="M664,108.64c-1.49-1.46-2.23-3.41-2.23-5.86v-13.24c0-2.42.74-4.36,2.23-5.8,1.48-1.44,3.45-2.17,5.9-2.17s4.46.72,5.95,2.17c1.48,1.44,2.23,3.38,2.23,5.8v.45c0,.14-.05.25-.14.35-.1.1-.21.14-.35.14l-4.78.2c-.33,0-.49-.15-.49-.45v-1.06c0-.79-.22-1.43-.65-1.92-.44-.49-1.02-.74-1.76-.74s-1.28.25-1.71.74c-.44.49-.65,1.13-.65,1.92v14.1c0,.79.22,1.42.65,1.9.44.48,1.01.71,1.71.71s1.32-.24,1.76-.71c.44-.48.65-1.11.65-1.9v-1.1c0-.14.05-.25.14-.35.09-.1.21-.14.35-.14l4.78.21c.13,0,.25.05.35.14.09.1.14.21.14.35v.41c0,2.45-.75,4.41-2.25,5.86-1.5,1.46-3.47,2.19-5.92,2.19s-4.42-.73-5.9-2.19Z"/>
    </g>
    <g>
      <path class="st1" d="M88.27,108.64c-1.48-1.46-2.23-3.41-2.23-5.86v-13.24c0-2.42.74-4.36,2.23-5.8,1.48-1.44,3.45-2.17,5.9-2.17s4.46.72,5.94,2.17c1.48,1.44,2.23,3.38,2.23,5.8v.45c0,.14-.05.25-.14.35-.1.1-.21.14-.35.14l-4.78.2c-.33,0-.49-.15-.49-.45v-1.06c0-.79-.22-1.43-.65-1.92-.44-.49-1.02-.74-1.76-.74s-1.28.25-1.72.74-.65,1.13-.65,1.92v14.1c0,.79.22,1.42.65,1.9.44.48,1.01.71,1.72.71s1.32-.24,1.76-.71c.44-.48.65-1.11.65-1.9v-1.1c0-.14.05-.25.14-.35.1-.1.21-.14.35-.14l4.78.21c.14,0,.25.05.35.14.1.1.14.21.14.35v.41c0,2.45-.75,4.41-2.25,5.86-1.5,1.46-3.47,2.19-5.92,2.19s-4.42-.73-5.9-2.19Z"/>
      <path class="st1" d="M116.48,110.09l-3.15-11.28c-.05-.11-.12-.16-.2-.16h-1.39c-.14,0-.2.07-.2.21v11.15c0,.14-.05.25-.14.35-.1.1-.21.14-.35.14h-4.78c-.14,0-.25-.05-.35-.14-.1-.1-.14-.21-.14-.35v-27.62c0-.14.05-.25.14-.35.1-.09.21-.14.35-.14h8.25c1.5,0,2.83.36,4,1.08,1.17.72,2.08,1.74,2.72,3.04.64,1.31.96,2.81.96,4.49s-.31,3.02-.92,4.25-1.46,2.18-2.55,2.86c-.06.03-.1.06-.12.1-.03.04-.03.09,0,.14l3.76,12.05.04.16c0,.27-.15.41-.45.41h-4.9c-.3,0-.49-.14-.57-.41ZM111.54,87.05v6.99c0,.14.07.2.2.2h1.84c.84,0,1.53-.33,2.06-1,.53-.67.8-1.56.8-2.68s-.27-2.05-.8-2.72c-.53-.67-1.22-1-2.06-1h-1.84c-.14,0-.2.07-.2.2Z"/>
      <path class="st1" d="M140.24,86.7c-.1.1-.21.14-.35.14h-8.54c-.14,0-.2.07-.2.2v6.46c0,.14.07.2.2.2h4.9c.14,0,.25.05.35.14.1.1.14.21.14.35v3.96c0,.14-.05.25-.14.35-.1.1-.21.14-.35.14h-4.9c-.14,0-.2.07-.2.21v6.5c0,.14.07.2.2.2h8.54c.14,0,.25.05.35.14.09.1.14.21.14.35v3.96c0,.14-.05.25-.14.35-.1.1-.21.14-.35.14h-14.01c-.14,0-.25-.05-.35-.14-.1-.1-.14-.21-.14-.35v-27.62c0-.14.05-.25.14-.35.1-.09.21-.14.35-.14h14.01c.14,0,.25.05.35.14.09.1.14.21.14.35v3.96c0,.14-.05.25-.14.35Z"/>
      <path class="st1" d="M155.78,110.05l-.65-3.92c0-.14-.08-.21-.25-.21h-5.19c-.16,0-.25.07-.25.21l-.65,3.92c-.03.3-.2.45-.53.45h-4.78c-.35,0-.49-.18-.41-.53l6.01-27.62c.05-.3.23-.45.53-.45h5.52c.3,0,.48.15.53.45l5.96,27.62.04.16c0,.25-.15.37-.45.37h-4.9c-.33,0-.5-.15-.53-.45ZM150.43,101.47h3.68c.14,0,.19-.07.16-.2l-1.92-11.15c-.03-.08-.07-.12-.12-.12s-.1.04-.12.12l-1.84,11.15c0,.14.05.2.16.2Z"/>
      <path class="st1" d="M178.15,82.04c.1.1.14.21.14.35v3.96c0,.14-.05.25-.14.35-.1.1-.21.14-.35.14h-5.11c-.14,0-.2.07-.2.2v22.96c0,.14-.05.25-.14.35-.1.1-.21.14-.35.14h-4.78c-.14,0-.25-.05-.35-.14-.1-.1-.14-.21-.14-.35v-22.96c0-.14-.07-.2-.2-.2h-4.9c-.14,0-.25-.05-.35-.14-.1-.09-.14-.21-.14-.35v-3.96c0-.14.05-.25.14-.35.1-.09.21-.14.35-.14h16.18c.14,0,.25.05.35.14Z"/>
      <path class="st1" d="M181.58,110.36c-.1-.1-.14-.21-.14-.35v-27.62c0-.14.05-.25.14-.35.1-.09.21-.14.35-.14h4.78c.14,0,.25.05.35.14.09.1.14.21.14.35v27.62c0,.14-.05.25-.14.35-.1.1-.21.14-.35.14h-4.78c-.14,0-.25-.05-.35-.14Z"/>
      <path class="st1" d="M193.04,108.62c-1.5-1.47-2.25-3.43-2.25-5.88v-13.07c0-2.45.75-4.41,2.25-5.88,1.5-1.47,3.5-2.21,6.01-2.21s4.51.74,6.03,2.21c1.51,1.47,2.27,3.43,2.27,5.88v13.07c0,2.45-.76,4.41-2.27,5.88-1.51,1.47-3.52,2.21-6.03,2.21s-4.51-.74-6.01-2.21ZM200.89,105.08c.46-.53.69-1.23.69-2.1v-13.56c0-.87-.23-1.57-.69-2.1-.46-.53-1.08-.8-1.84-.8s-1.37.27-1.82.8c-.45.53-.67,1.23-.67,2.1v13.56c0,.87.22,1.57.67,2.1.45.53,1.06.8,1.82.8s1.38-.26,1.84-.8Z"/>
      <path class="st1" d="M222.73,82.04c.1-.09.21-.14.35-.14h4.74c.14,0,.25.05.35.14.1.1.14.21.14.35v27.62c0,.14-.05.25-.14.35-.1.1-.21.14-.35.14h-5.39c-.27,0-.45-.14-.53-.41l-5.07-15.81c-.03-.08-.08-.12-.14-.1-.07.01-.1.06-.1.14l.04,15.69c0,.14-.05.25-.14.35-.1.1-.21.14-.35.14h-4.74c-.14,0-.25-.05-.35-.14-.1-.1-.14-.21-.14-.35v-27.62c0-.14.05-.25.14-.35.1-.09.21-.14.35-.14h5.35c.27,0,.45.14.53.41l5.11,15.81c.03.08.07.12.14.1.07-.01.1-.06.1-.14l-.04-15.69c0-.14.05-.25.14-.35Z"/>
      <path class="st1" d="M247.12,86.7c-.1.1-.21.14-.35.14h-8.54c-.14,0-.2.07-.2.2v6.46c0,.14.07.2.2.2h4.9c.14,0,.25.05.35.14.1.1.14.21.14.35v3.96c0,.14-.05.25-.14.35-.1.1-.21.14-.35.14h-4.9c-.14,0-.2.07-.2.21v6.5c0,.14.07.2.2.2h8.54c.14,0,.25.05.35.14.09.1.14.21.14.35v3.96c0,.14-.05.25-.14.35-.1.1-.21.14-.35.14h-14.01c-.14,0-.25-.05-.35-.14-.1-.1-.14-.21-.14-.35v-27.62c0-.14.05-.25.14-.35.1-.09.21-.14.35-.14h14.01c.14,0,.25.05.35.14.09.1.14.21.14.35v3.96c0,.14-.05.25-.14.35Z"/>
      <path class="st1" d="M250.67,110.36c-.1-.1-.14-.21-.14-.35v-27.62c0-.14.05-.25.14-.35.1-.09.21-.14.35-.14h7.39c2.48,0,4.47.72,5.97,2.17,1.5,1.44,2.25,3.36,2.25,5.76v12.75c0,2.4-.75,4.32-2.25,5.76-1.5,1.44-3.49,2.17-5.97,2.17h-7.39c-.14,0-.25-.05-.35-.14ZM256.49,105.55l1.84-.04c.74-.03,1.33-.34,1.8-.94.46-.6.71-1.39.74-2.37v-12.01c0-1.03-.23-1.85-.69-2.45-.46-.6-1.09-.9-1.88-.9h-1.8c-.14,0-.2.07-.2.2v18.3c0,.14.07.2.2.2Z"/>
      <path class="st1" d="M290.36,110.05l-.65-3.92c0-.14-.08-.21-.25-.21h-5.19c-.16,0-.25.07-.25.21l-.65,3.92c-.03.3-.2.45-.53.45h-4.78c-.35,0-.49-.18-.41-.53l6.01-27.62c.05-.3.23-.45.53-.45h5.52c.3,0,.48.15.53.45l5.96,27.62.04.16c0,.25-.15.37-.45.37h-4.9c-.33,0-.5-.15-.53-.45ZM285.01,101.47h3.68c.14,0,.19-.07.16-.2l-1.92-11.15c-.03-.08-.07-.12-.12-.12s-.1.04-.12.12l-1.84,11.15c0,.14.05.2.16.2Z"/>
      <path class="st1" d="M310.77,82.04c.1-.09.21-.14.35-.14h4.74c.14,0,.25.05.35.14.1.1.14.21.14.35v27.62c0,.14-.05.25-.14.35-.1.1-.21.14-.35.14h-5.39c-.27,0-.45-.14-.53-.41l-5.07-15.81c-.03-.08-.08-.12-.14-.1-.07.01-.1.06-.1.14l.04,15.69c0,.14-.05.25-.14.35-.1.1-.21.14-.35.14h-4.74c-.14,0-.25-.05-.35-.14-.1-.1-.14-.21-.14-.35v-27.62c0-.14.05-.25.14-.35.1-.09.21-.14.35-.14h5.35c.27,0,.45.14.53.41l5.11,15.81c.03.08.07.12.14.1.07-.01.1-.06.1-.14l-.04-15.69c0-.14.05-.25.14-.35Z"/>
      <path class="st1" d="M320.45,110.36c-.1-.1-.14-.21-.14-.35v-27.62c0-.14.05-.25.14-.35.1-.09.21-.14.35-.14h7.39c2.48,0,4.47.72,5.97,2.17,1.5,1.44,2.25,3.36,2.25,5.76v12.75c0,2.4-.75,4.32-2.25,5.76-1.5,1.44-3.49,2.17-5.97,2.17h-7.39c-.14,0-.25-.05-.35-.14ZM326.27,105.55l1.84-.04c.74-.03,1.33-.34,1.8-.94.46-.6.71-1.39.74-2.37v-12.01c0-1.03-.23-1.85-.69-2.45-.46-.6-1.09-.9-1.88-.9h-1.8c-.14,0-.2.07-.2.2v18.3c0,.14.07.2.2.2Z"/>
      <path class="st1" d="M363.51,86.7c-.1.1-.21.14-.35.14h-8.54c-.14,0-.2.07-.2.2v6.46c0,.14.07.2.2.2h4.9c.14,0,.25.05.35.14.1.1.14.21.14.35v3.96c0,.14-.05.25-.14.35-.1.1-.21.14-.35.14h-4.9c-.14,0-.2.07-.2.21v6.5c0,.14.07.2.2.2h8.54c.14,0,.25.05.35.14.09.1.14.21.14.35v3.96c0,.14-.05.25-.14.35-.1.1-.21.14-.35.14h-14.01c-.14,0-.25-.05-.35-.14-.1-.1-.14-.21-.14-.35v-27.62c0-.14.05-.25.14-.35.1-.09.21-.14.35-.14h14.01c.14,0,.25.05.35.14.09.1.14.21.14.35v3.96c0,.14-.05.25-.14.35Z"/>
      <path class="st1" d="M367.07,110.36c-.1-.1-.14-.21-.14-.35v-27.62c0-.14.05-.25.14-.35.1-.09.21-.14.35-.14h4.78c.14,0,.25.05.35.14.09.1.14.21.14.35v22.96c0,.14.07.2.2.2h8.58c.14,0,.25.05.35.14.1.1.14.21.14.35v3.96c0,.14-.05.25-.14.35-.1.1-.21.14-.35.14h-14.05c-.14,0-.25-.05-.35-.14Z"/>
      <path class="st1" d="M399.55,86.7c-.1.1-.21.14-.35.14h-8.54c-.14,0-.2.07-.2.2v6.46c0,.14.07.2.2.2h4.9c.13,0,.25.05.35.14.09.1.14.21.14.35v3.96c0,.14-.05.25-.14.35s-.21.14-.35.14h-4.9c-.14,0-.2.07-.2.21v6.5c0,.14.07.2.2.2h8.54c.14,0,.25.05.35.14.1.1.14.21.14.35v3.96c0,.14-.05.25-.14.35s-.21.14-.35.14h-14.01c-.14,0-.25-.05-.35-.14-.1-.1-.14-.21-.14-.35v-27.62c0-.14.05-.25.14-.35s.21-.14.35-.14h14.01c.14,0,.25.05.35.14.1.1.14.21.14.35v3.96c0,.14-.05.25-.14.35Z"/>
      <path class="st1" d="M407.94,110.05l-5.84-27.62-.04-.16c0-.25.15-.37.45-.37h5.27c.33,0,.5.15.53.45l2.82,17.98c.03.11.07.16.12.16s.1-.05.12-.16l2.74-17.98c.03-.3.21-.45.53-.45h5.11c.35,0,.49.18.41.53l-5.88,27.62c-.05.3-.23.45-.53.45h-5.27c-.3,0-.48-.15-.53-.45Z"/>
      <path class="st1" d="M431.68,110.05l-.65-3.92c0-.14-.08-.21-.24-.21h-5.19c-.16,0-.25.07-.25.21l-.65,3.92c-.03.3-.21.45-.53.45h-4.78c-.35,0-.49-.18-.41-.53l6.01-27.62c.05-.3.23-.45.53-.45h5.52c.3,0,.48.15.53.45l5.96,27.62.04.16c0,.25-.15.37-.45.37h-4.9c-.33,0-.5-.15-.53-.45ZM426.33,101.47h3.68c.14,0,.19-.07.16-.2l-1.92-11.15c-.03-.08-.07-.12-.12-.12s-.1.04-.12.12l-1.84,11.15c0,.14.05.2.16.2Z"/>
      <path class="st1" d="M454.05,82.04c.09.1.14.21.14.35v3.96c0,.14-.05.25-.14.35-.1.1-.21.14-.35.14h-5.11c-.14,0-.2.07-.2.2v22.96c0,.14-.05.25-.14.35s-.21.14-.35.14h-4.78c-.14,0-.25-.05-.35-.14s-.14-.21-.14-.35v-22.96c0-.14-.07-.2-.21-.2h-4.9c-.14,0-.25-.05-.35-.14-.1-.09-.14-.21-.14-.35v-3.96c0-.14.05-.25.14-.35s.21-.14.35-.14h16.18c.14,0,.25.05.35.14Z"/>
      <path class="st1" d="M472.19,86.7c-.1.1-.21.14-.35.14h-8.54c-.14,0-.2.07-.2.2v6.46c0,.14.07.2.2.2h4.9c.14,0,.25.05.35.14s.14.21.14.35v3.96c0,.14-.05.25-.14.35-.1.1-.21.14-.35.14h-4.9c-.14,0-.2.07-.2.21v6.5c0,.14.07.2.2.2h8.54c.14,0,.25.05.35.14.1.1.14.21.14.35v3.96c0,.14-.05.25-.14.35s-.21.14-.35.14h-14.01c-.14,0-.25-.05-.35-.14s-.14-.21-.14-.35v-27.62c0-.14.05-.25.14-.35.1-.09.21-.14.35-.14h14.01c.14,0,.25.05.35.14.1.1.14.21.14.35v3.96c0,.14-.05.25-.14.35Z"/>
      <path class="st1" d="M475.74,110.36c-.1-.1-.14-.21-.14-.35v-27.62c0-.14.05-.25.14-.35.1-.09.21-.14.35-.14h7.39c2.48,0,4.47.72,5.96,2.17,1.5,1.44,2.25,3.36,2.25,5.76v12.75c0,2.4-.75,4.32-2.25,5.76s-3.49,2.17-5.96,2.17h-7.39c-.14,0-.25-.05-.35-.14ZM481.56,105.55l1.84-.04c.74-.03,1.33-.34,1.8-.94.46-.6.71-1.39.74-2.37v-12.01c0-1.03-.23-1.85-.7-2.45-.46-.6-1.09-.9-1.88-.9h-1.8c-.14,0-.21.07-.21.2v18.3c0,.14.07.2.21.2Z"/>
      <path class="st1" d="M518.09,108.45c-1.53,1.36-3.5,2.04-5.92,2.04h-7.72c-.14,0-.25-.05-.35-.14s-.14-.21-.14-.35v-27.62c0-.14.05-.25.14-.35.1-.09.21-.14.35-.14h6.82c2.72,0,4.86.65,6.39,1.96,1.54,1.31,2.31,3.25,2.31,5.84s-.93,4.66-2.78,5.88c-.11.08-.12.16-.04.25,2.15,1.53,3.23,3.79,3.23,6.78,0,2.53-.76,4.48-2.29,5.84ZM509.71,87.05v6.41c0,.14.07.2.21.2h1.47c.93,0,1.65-.29,2.16-.88.52-.58.78-1.41.78-2.47,0-1.12-.25-1.97-.76-2.57-.5-.6-1.23-.9-2.19-.9h-1.47c-.14,0-.21.07-.21.2ZM513.84,104.53c.52-.65.78-1.58.78-2.78s-.26-2.15-.78-2.86c-.52-.71-1.21-1.06-2.08-1.06h-1.84c-.14,0-.21.07-.21.2v7.27c0,.14.07.2.21.2h1.8c.9,0,1.61-.33,2.12-.98Z"/>
      <path class="st1" d="M527.26,110.31c-.1-.1-.14-.21-.14-.35v-10.62l-.04-.25-5.72-16.63c-.03-.05-.04-.12-.04-.2,0-.25.15-.37.45-.37h5.03c.3,0,.49.14.57.41l2.53,9.76c.03.08.07.12.12.12s.1-.04.12-.12l2.53-9.76c.08-.27.27-.41.57-.41h5.03c.16,0,.29.05.37.14.08.1.1.24.04.43l-5.76,16.63-.04.25v10.62c0,.14-.05.25-.14.35s-.21.14-.35.14h-4.78c-.14,0-.25-.05-.35-.14Z"/>
      <path class="st1" d="M550.55,110.36c-.1-.1-.14-.21-.14-.35v-27.62c0-.14.05-.25.14-.35.1-.09.21-.14.35-.14h7.39c2.48,0,4.47.72,5.96,2.17,1.5,1.44,2.25,3.36,2.25,5.76v12.75c0,2.4-.75,4.32-2.25,5.76s-3.49,2.17-5.96,2.17h-7.39c-.14,0-.25-.05-.35-.14ZM556.37,105.55l1.84-.04c.73-.03,1.33-.34,1.8-.94.46-.6.71-1.39.73-2.37v-12.01c0-1.03-.23-1.85-.69-2.45-.46-.6-1.09-.9-1.88-.9h-1.8c-.14,0-.2.07-.2.2v18.3c0,.14.07.2.2.2Z"/>
      <path class="st1" d="M573.96,110.31c-.1-.1-.14-.21-.14-.35v-10.62l-.04-.25-5.72-16.63c-.03-.05-.04-.12-.04-.2,0-.25.15-.37.45-.37h5.03c.3,0,.49.14.57.41l2.53,9.76c.03.08.07.12.12.12s.1-.04.12-.12l2.53-9.76c.08-.27.27-.41.57-.41h5.03c.16,0,.29.05.37.14.08.1.1.24.04.43l-5.76,16.63-.04.25v10.62c0,.14-.05.25-.14.35s-.21.14-.35.14h-4.78c-.14,0-.25-.05-.35-.14Z"/>
      <path class="st1" d="M600.06,82.04c.1-.09.21-.14.35-.14h4.74c.13,0,.25.05.35.14.09.1.14.21.14.35v27.62c0,.14-.05.25-.14.35-.1.1-.21.14-.35.14h-5.39c-.27,0-.45-.14-.53-.41l-5.07-15.81c-.03-.08-.08-.12-.14-.1-.07.01-.1.06-.1.14l.04,15.69c0,.14-.05.25-.14.35s-.21.14-.35.14h-4.74c-.14,0-.25-.05-.35-.14s-.14-.21-.14-.35v-27.62c0-.14.05-.25.14-.35.1-.09.21-.14.35-.14h5.35c.27,0,.45.14.53.41l5.11,15.81c.03.08.07.12.14.1.07-.01.1-.06.1-.14l-.04-15.69c0-.14.05-.25.14-.35Z"/>
      <path class="st1" d="M621.09,110.05l-.65-3.92c0-.14-.08-.21-.25-.21h-5.19c-.16,0-.25.07-.25.21l-.65,3.92c-.03.3-.21.45-.53.45h-4.78c-.35,0-.49-.18-.41-.53l6.01-27.62c.05-.3.23-.45.53-.45h5.52c.3,0,.48.15.53.45l5.96,27.62.04.16c0,.25-.15.37-.45.37h-4.9c-.33,0-.51-.15-.53-.45ZM615.73,101.47h3.68c.14,0,.19-.07.16-.2l-1.92-11.15c-.03-.08-.07-.12-.12-.12s-.1.04-.12.12l-1.84,11.15c0,.14.05.2.16.2Z"/>
      <path class="st1" d="M643.35,81.9h4.74c.14,0,.25.05.35.14.1.1.14.21.14.35v27.62c0,.14-.05.25-.14.35s-.21.14-.35.14h-4.78c-.14,0-.25-.05-.35-.14s-.14-.21-.14-.35v-18.34c0-.11-.03-.16-.08-.16s-.11.04-.16.12l-3.19,5.64c-.14.22-.25.33-.33.33s-.19-.11-.33-.33l-3.19-5.64c-.05-.08-.11-.12-.16-.12s-.08.05-.08.16v18.34c0,.14-.05.25-.14.35-.1.1-.21.14-.35.14h-4.78c-.14,0-.25-.05-.35-.14-.1-.1-.14-.21-.14-.35v-27.62c0-.14.05-.25.14-.35.09-.09.21-.14.35-.14h4.7c.27,0,.48.11.61.33l3.63,6.5c.08.11.16.11.25,0l3.51-6.5c.11-.22.31-.33.61-.33Z"/>
      <path class="st1" d="M652.56,110.36c-.1-.1-.14-.21-.14-.35v-27.62c0-.14.05-.25.14-.35.1-.09.21-.14.35-.14h4.78c.14,0,.25.05.35.14.1.1.14.21.14.35v27.62c0,.14-.05.25-.14.35s-.21.14-.35.14h-4.78c-.14,0-.25-.05-.35-.14Z"/>
      <path class="st1" d="M664,108.64c-1.49-1.46-2.23-3.41-2.23-5.86v-13.24c0-2.42.74-4.36,2.23-5.8,1.48-1.44,3.45-2.17,5.9-2.17s4.46.72,5.95,2.17c1.48,1.44,2.23,3.38,2.23,5.8v.45c0,.14-.05.25-.14.35-.1.1-.21.14-.35.14l-4.78.2c-.33,0-.49-.15-.49-.45v-1.06c0-.79-.22-1.43-.65-1.92-.44-.49-1.02-.74-1.76-.74s-1.28.25-1.71.74c-.44.49-.65,1.13-.65,1.92v14.1c0,.79.22,1.42.65,1.9.44.48,1.01.71,1.71.71s1.32-.24,1.76-.71c.44-.48.65-1.11.65-1.9v-1.1c0-.14.05-.25.14-.35.09-.1.21-.14.35-.14l4.78.21c.13,0,.25.05.35.14.09.1.14.21.14.35v.41c0,2.45-.75,4.41-2.25,5.86-1.5,1.46-3.47,2.19-5.92,2.19s-4.42-.73-5.9-2.19Z"/>
    </g>
  </g>
  <g>
    <path class="st0" d="M254.44,33.15c-.12.12-.26.18-.43.18h-10.66c-.17,0-.25.08-.25.25v8.06c0,.17.08.25.25.25h6.12c.17,0,.31.06.43.18.12.12.18.26.18.43v4.95c0,.17-.06.31-.18.43-.12.12-.26.18-.43.18h-6.12c-.17,0-.25.09-.25.25v8.11c0,.17.08.25.25.25h10.66c.17,0,.31.06.43.18s.18.26.18.43v4.95c0,.17-.06.31-.18.43s-.26.18-.43.18h-17.49c-.17,0-.31-.06-.43-.18-.12-.12-.18-.26-.18-.43V27.77c0-.17.06-.31.18-.43s.26-.18.43-.18h17.49c.17,0,.31.06.43.18.12.12.18.26.18.43v4.95c0,.17-.06.31-.18.43Z"/>
    <path class="st0" d="M264.92,62.29l-7.29-34.47-.05-.2c0-.31.19-.46.56-.46h6.58c.41,0,.63.19.66.56l3.52,22.44c.03.14.08.2.15.2s.12-.07.15-.2l3.42-22.44c.03-.37.25-.56.66-.56h6.38c.44,0,.61.22.51.66l-7.34,34.47c-.07.38-.29.56-.66.56h-6.58c-.37,0-.59-.19-.66-.56Z"/>
    <path class="st0" d="M302.58,33.15c-.12.12-.26.18-.43.18h-10.66c-.17,0-.25.08-.25.25v8.06c0,.17.08.25.25.25h6.12c.17,0,.31.06.43.18s.18.26.18.43v4.95c0,.17-.06.31-.18.43s-.26.18-.43.18h-6.12c-.17,0-.25.09-.25.25v8.11c0,.17.08.25.25.25h10.66c.17,0,.31.06.43.18.12.12.18.26.18.43v4.95c0,.17-.06.31-.18.43-.12.12-.26.18-.43.18h-17.49c-.17,0-.31-.06-.43-.18s-.18-.26-.18-.43V27.77c0-.17.06-.31.18-.43.12-.12.26-.18.43-.18h17.49c.17,0,.31.06.43.18.12.12.18.26.18.43v4.95c0,.17-.06.31-.18.43Z"/>
    <path class="st0" d="M320.2,62.34l-3.93-14.08c-.07-.13-.15-.2-.25-.2h-1.73c-.17,0-.25.09-.25.25v13.92c0,.17-.06.31-.18.43s-.26.18-.43.18h-5.97c-.17,0-.31-.06-.43-.18s-.18-.26-.18-.43V27.77c0-.17.06-.31.18-.43.12-.12.26-.18.43-.18h10.3c1.87,0,3.54.45,5,1.35,1.46.9,2.59,2.17,3.39,3.8s1.2,3.5,1.2,5.61-.38,3.77-1.15,5.3c-.76,1.53-1.83,2.72-3.19,3.57-.07.03-.12.08-.15.13-.03.05-.03.11,0,.18l4.69,15.04.05.2c0,.34-.19.51-.56.51h-6.12c-.38,0-.61-.17-.71-.51ZM314.03,33.58v8.72c0,.17.08.25.25.25h2.29c1.05,0,1.91-.42,2.58-1.25.66-.83.99-1.95.99-3.34s-.33-2.56-.99-3.39-1.52-1.25-2.58-1.25h-2.29c-.17,0-.25.08-.25.25Z"/>
    <path class="st0" d="M336.28,62.62c-.12-.12-.18-.26-.18-.43v-13.26l-.05-.31-7.14-20.75c-.03-.07-.05-.15-.05-.25,0-.31.19-.46.56-.46h6.27c.37,0,.61.17.71.51l3.16,12.19c.03.1.08.15.15.15s.12-.05.15-.15l3.16-12.19c.1-.34.34-.51.71-.51h6.27c.2,0,.36.06.46.18.1.12.12.3.05.54l-7.19,20.75-.05.31v13.26c0,.17-.06.31-.18.43-.12.12-.26.18-.43.18h-5.97c-.17,0-.31-.06-.43-.18Z"/>
    <path class="st0" d="M383.71,33.15c-.12.12-.26.18-.43.18h-10.66c-.17,0-.25.08-.25.25v8.06c0,.17.08.25.25.25h6.12c.17,0,.31.06.43.18.12.12.18.26.18.43v4.95c0,.17-.06.31-.18.43-.12.12-.26.18-.43.18h-6.12c-.17,0-.25.09-.25.25v8.11c0,.17.08.25.25.25h10.66c.17,0,.31.06.43.18s.18.26.18.43v4.95c0,.17-.06.31-.18.43s-.26.18-.43.18h-17.49c-.17,0-.31-.06-.43-.18-.12-.12-.18-.26-.18-.43V27.77c0-.17.06-.31.18-.43s.26-.18.43-.18h17.49c.17,0,.31.06.43.18.12.12.18.26.18.43v4.95c0,.17-.06.31-.18.43Z"/>
    <path class="st0" d="M394.19,62.29l-7.29-34.47-.05-.2c0-.31.19-.46.56-.46h6.58c.41,0,.63.19.66.56l3.52,22.44c.03.14.08.2.15.2s.12-.07.15-.2l3.42-22.44c.03-.37.25-.56.66-.56h6.38c.44,0,.61.22.51.66l-7.34,34.47c-.07.38-.29.56-.66.56h-6.58c-.37,0-.59-.19-.66-.56Z"/>
    <path class="st0" d="M431.85,33.15c-.12.12-.26.18-.43.18h-10.66c-.17,0-.25.08-.25.25v8.06c0,.17.08.25.25.25h6.12c.17,0,.31.06.43.18s.18.26.18.43v4.95c0,.17-.06.31-.18.43s-.26.18-.43.18h-6.12c-.17,0-.25.09-.25.25v8.11c0,.17.08.25.25.25h10.66c.17,0,.31.06.43.18.12.12.18.26.18.43v4.95c0,.17-.06.31-.18.43-.12.12-.26.18-.43.18h-17.49c-.17,0-.31-.06-.43-.18s-.18-.26-.18-.43V27.77c0-.17.06-.31.18-.43.12-.12.26-.18.43-.18h17.49c.17,0,.31.06.43.18.12.12.18.26.18.43v4.95c0,.17-.06.31-.18.43Z"/>
    <path class="st0" d="M450.87,27.33c.12-.12.26-.18.43-.18h5.92c.17,0,.31.06.43.18.12.12.18.26.18.43v34.47c0,.17-.06.31-.18.43-.12.12-.26.18-.43.18h-6.73c-.34,0-.56-.17-.66-.51l-6.32-19.74c-.03-.1-.09-.14-.18-.13-.08.02-.13.08-.13.18l.05,19.58c0,.17-.06.31-.18.43s-.26.18-.43.18h-5.92c-.17,0-.31-.06-.43-.18s-.18-.26-.18-.43V27.77c0-.17.06-.31.18-.43.12-.12.26-.18.43-.18h6.68c.34,0,.56.17.66.51l6.38,19.74c.03.1.09.14.18.13.08-.02.13-.08.13-.18l-.05-19.58c0-.17.06-.31.18-.43Z"/>
    <path class="st0" d="M482.99,27.33c.12.12.18.26.18.43v4.95c0,.17-.06.31-.18.43-.12.12-.26.18-.43.18h-6.37c-.17,0-.25.08-.25.25v28.66c0,.17-.06.31-.18.43s-.26.18-.43.18h-5.97c-.17,0-.32-.06-.43-.18-.12-.12-.18-.26-.18-.43v-28.66c0-.17-.08-.25-.25-.25h-6.12c-.17,0-.32-.06-.43-.18-.12-.12-.18-.26-.18-.43v-4.95c0-.17.06-.31.18-.43s.26-.18.43-.18h20.19c.17,0,.31.06.43.18Z"/>
    <path class="st0" d="M497.93,62.67c-.12-.12-.18-.26-.18-.43V27.77c0-.17.06-.31.18-.43.12-.12.26-.18.43-.18h5.97c.17,0,.31.06.43.18.12.12.18.26.18.43v34.47c0,.17-.06.31-.18.43s-.26.18-.43.18h-5.97c-.17,0-.31-.06-.43-.18Z"/>
    <path class="st0" d="M513.92,62.08c-1.5-.78-2.65-1.88-3.47-3.29-.82-1.41-1.22-3.03-1.22-4.87v-1.48c0-.17.06-.31.18-.43.12-.12.26-.18.43-.18h5.86c.17,0,.31.06.43.18.12.12.18.26.18.43v1.12c0,1.05.27,1.9.82,2.55.54.65,1.22.97,2.04.97s1.5-.31,2.04-.92c.54-.61.82-1.41.82-2.4s-.34-1.89-1.02-2.63c-.68-.73-2.01-1.81-3.98-3.24-1.7-1.22-3.08-2.31-4.13-3.26s-1.96-2.12-2.7-3.52-1.12-3.01-1.12-4.84c0-2.89.9-5.2,2.7-6.94,1.8-1.73,4.18-2.6,7.14-2.6s5.4.9,7.22,2.7c1.82,1.8,2.73,4.16,2.73,7.09v1.22c0,.17-.06.31-.18.43-.12.12-.26.18-.43.18h-5.86c-.17,0-.32-.06-.43-.18-.12-.12-.18-.26-.18-.43v-1.38c0-1.05-.26-1.89-.79-2.52-.53-.63-1.22-.94-2.07-.94s-1.48.3-1.99.89c-.51.6-.76,1.42-.76,2.47s.32,1.92.97,2.7c.65.78,1.92,1.87,3.83,3.26,2.11,1.56,3.7,2.83,4.77,3.8s1.9,2.04,2.5,3.21c.59,1.17.89,2.58.89,4.21,0,2.99-.92,5.37-2.75,7.14-1.84,1.77-4.25,2.65-7.24,2.65-1.97,0-3.71-.39-5.2-1.17Z"/>
  </g>
</svg>