<?xml version="1.0" encoding="UTF-8"?>
<svg id="Layer_1" xmlns="http://www.w3.org/2000/svg" version="1.1" viewBox="0 0 764 134.18">
  <!-- Generator: Adobe Illustrator 29.6.1, SVG Export Plug-In . SVG Version: 2.1.1 Build 9)  -->
  <defs>
    <style>
      .st0 {
        fill: none;
        stroke: #fff;
        stroke-miterlimit: 10;
      }

      .st1 {
        fill: #00e1ff;
      }
    </style>
  </defs>
  <g>
    <g>
      <path class="st1" d="M203.91,111.88c-2.13-2.03-3.19-4.72-3.19-8.07v-4.08c0-.2.07-.36.21-.5.14-.14.3-.21.5-.21h6.92c.2,0,.36.07.5.21.14.14.21.31.21.5v4.2c0,1.14.3,2.07.89,2.78.59.71,1.38,1.06,2.36,1.06s1.84-.35,2.45-1.06c.61-.71.92-1.63.92-2.78v-30.15c0-.2.07-.36.21-.5s.3-.21.5-.21h6.92c.2,0,.36.07.5.21.14.14.21.31.21.5v30.03c0,3.35-1.07,6.04-3.22,8.07-2.15,2.03-4.98,3.04-8.48,3.04s-6.27-1.01-8.39-3.04Z"/>
      <path class="st1" d="M232.79,111.58c-2.15-2.23-3.22-5.19-3.22-8.9v-28.91c0-.2.07-.36.21-.5.14-.14.3-.21.5-.21h6.92c.2,0,.36.07.5.21.14.14.21.31.21.5v29.73c0,1.26.31,2.29.95,3.07.63.79,1.46,1.18,2.48,1.18s1.84-.39,2.45-1.18c.61-.79.92-1.81.92-3.07v-29.73c0-.2.07-.36.21-.5s.3-.21.5-.21h6.92c.2,0,.36.07.5.21.14.14.21.31.21.5v28.91c0,3.71-1.07,6.67-3.22,8.9-2.15,2.23-4.98,3.34-8.48,3.34s-6.39-1.11-8.54-3.34Z"/>
      <path class="st1" d="M263.2,113.56c-1.73-.91-3.07-2.18-4.02-3.81-.95-1.63-1.42-3.52-1.42-5.65v-1.71c0-.2.07-.36.21-.5.14-.14.3-.21.5-.21h6.8c.2,0,.36.07.5.21.14.14.21.31.21.5v1.3c0,1.22.31,2.21.95,2.96.63.75,1.42,1.12,2.36,1.12s1.73-.35,2.36-1.06c.63-.71.95-1.63.95-2.78s-.39-2.2-1.18-3.04c-.79-.85-2.33-2.1-4.61-3.75-1.97-1.42-3.57-2.68-4.79-3.78-1.22-1.1-2.27-2.46-3.13-4.08-.87-1.62-1.3-3.49-1.3-5.62,0-3.35,1.04-6.03,3.13-8.04,2.09-2.01,4.85-3.01,8.28-3.01s6.26,1.04,8.36,3.13c2.11,2.09,3.16,4.83,3.16,8.22v1.42c0,.2-.07.36-.21.5s-.31.21-.5.21h-6.8c-.2,0-.36-.07-.5-.21-.14-.14-.21-.3-.21-.5v-1.6c0-1.22-.31-2.2-.92-2.93-.61-.73-1.41-1.09-2.39-1.09s-1.71.35-2.31,1.04c-.59.69-.89,1.65-.89,2.87s.37,2.23,1.12,3.13c.75.91,2.23,2.17,4.43,3.78,2.44,1.81,4.29,3.28,5.53,4.4,1.24,1.12,2.21,2.36,2.9,3.72.69,1.36,1.03,2.98,1.03,4.88,0,3.47-1.06,6.23-3.19,8.28-2.13,2.05-4.93,3.07-8.39,3.07-2.29,0-4.3-.45-6.03-1.36Z"/>
      <path class="st1" d="M308.45,73.28c.14.14.21.31.21.5v5.73c0,.2-.07.37-.21.5s-.31.21-.5.21h-7.39c-.2,0-.3.1-.3.29v33.22c0,.2-.07.36-.21.5s-.31.21-.5.21h-6.92c-.2,0-.37-.07-.5-.21-.14-.14-.21-.3-.21-.5v-33.22c0-.2-.1-.29-.3-.29h-7.09c-.2,0-.36-.07-.5-.21-.14-.14-.21-.3-.21-.5v-5.73c0-.2.07-.36.21-.5s.3-.21.5-.21h23.41c.2,0,.36.07.5.21Z"/>
      <path class="st1" d="M341.05,113.86l-4.55-16.32c-.08-.16-.18-.24-.3-.24h-2.01c-.2,0-.3.1-.3.3v16.14c0,.2-.07.36-.21.5s-.31.21-.5.21h-6.92c-.2,0-.36-.07-.5-.21-.14-.14-.21-.3-.21-.5v-39.96c0-.2.07-.36.21-.5.14-.14.31-.21.5-.21h11.94c2.17,0,4.1.52,5.79,1.57,1.69,1.04,3,2.51,3.93,4.4.93,1.89,1.39,4.06,1.39,6.5s-.44,4.38-1.33,6.15-2.12,3.15-3.69,4.14c-.08.04-.14.09-.18.15-.04.06-.04.13,0,.21l5.44,17.44.06.24c0,.39-.22.59-.65.59h-7.09c-.43,0-.71-.2-.83-.59ZM333.9,80.52v10.11c0,.2.1.3.3.3h2.66c1.22,0,2.22-.48,2.99-1.45s1.15-2.26,1.15-3.87-.38-2.96-1.15-3.93-1.76-1.45-2.99-1.45h-2.66c-.2,0-.3.1-.3.29Z"/>
      <path class="st1" d="M375.42,80.02c-.14.14-.31.21-.5.21h-12.35c-.2,0-.3.1-.3.29v9.34c0,.2.1.3.3.3h7.09c.2,0,.36.07.5.21.14.14.21.31.21.5v5.73c0,.2-.07.36-.21.5s-.31.21-.5.21h-7.09c-.2,0-.3.1-.3.3v9.4c0,.2.1.3.3.3h12.35c.2,0,.36.07.5.21.14.14.21.31.21.5v5.73c0,.2-.07.36-.21.5s-.31.21-.5.21h-20.28c-.2,0-.36-.07-.5-.21-.14-.14-.21-.3-.21-.5v-39.96c0-.2.07-.36.21-.5.14-.14.31-.21.5-.21h20.28c.2,0,.36.07.5.21.14.14.21.31.21.5v5.73c0,.2-.07.37-.21.5Z"/>
      <path class="st1" d="M397.91,113.8l-.95-5.67c0-.2-.12-.29-.35-.29h-7.51c-.24,0-.35.1-.35.29l-.95,5.67c-.04.43-.3.65-.77.65h-6.92c-.51,0-.71-.26-.59-.77l8.69-39.96c.08-.43.33-.65.77-.65h7.98c.43,0,.69.22.77.65l8.63,39.96.06.24c0,.35-.22.53-.65.53h-7.09c-.47,0-.73-.22-.77-.65ZM390.17,101.39h5.32c.2,0,.28-.1.24-.3l-2.78-16.14c-.04-.12-.1-.18-.18-.18s-.14.06-.18.18l-2.66,16.14c0,.2.08.3.24.3Z"/>
      <path class="st1" d="M411.83,111.76c-2.15-2.11-3.22-4.94-3.22-8.48v-19.15c0-3.51,1.07-6.3,3.22-8.39,2.15-2.09,5-3.13,8.54-3.13s6.45,1.04,8.6,3.13c2.15,2.09,3.22,4.89,3.22,8.39v.65c0,.2-.07.36-.21.5s-.31.21-.5.21l-6.92.3c-.47,0-.71-.22-.71-.65v-1.54c0-1.14-.32-2.07-.95-2.78-.63-.71-1.48-1.06-2.54-1.06s-1.85.36-2.48,1.06c-.63.71-.95,1.64-.95,2.78v20.39c0,1.14.31,2.06.95,2.75.63.69,1.46,1.03,2.48,1.03s1.91-.34,2.54-1.03c.63-.69.95-1.61.95-2.75v-1.6c0-.2.07-.36.21-.5s.3-.21.5-.21l6.92.3c.2,0,.36.07.5.21.14.14.21.31.21.5v.59c0,3.55-1.08,6.38-3.25,8.48-2.17,2.11-5.02,3.16-8.57,3.16s-6.39-1.05-8.54-3.16Z"/>
      <path class="st1" d="M452.21,73.28c.14-.14.31-.21.5-.21h6.92c.2,0,.36.07.5.21.14.14.21.31.21.5v39.96c0,.2-.07.36-.21.5s-.31.21-.5.21h-6.92c-.2,0-.37-.07-.5-.21-.14-.14-.21-.3-.21-.5v-16.14c0-.2-.1-.3-.3-.3h-5.91c-.2,0-.3.1-.3.3v16.14c0,.2-.07.36-.21.5s-.31.21-.5.21h-6.92c-.2,0-.37-.07-.5-.21-.14-.14-.21-.3-.21-.5v-39.96c0-.2.07-.36.21-.5s.3-.21.5-.21h6.92c.2,0,.36.07.5.21.14.14.21.31.21.5v16.08c0,.2.1.3.3.3h5.91c.2,0,.3-.1.3-.3v-16.08c0-.2.07-.36.21-.5Z"/>
      <path class="st1" d="M481.08,111.73c-2.17-2.13-3.25-4.97-3.25-8.51v-18.92c0-3.55,1.08-6.38,3.25-8.51,2.17-2.13,5.06-3.19,8.69-3.19s6.53,1.06,8.72,3.19c2.19,2.13,3.28,4.96,3.28,8.51v18.92c0,3.55-1.09,6.38-3.28,8.51-2.19,2.13-5.09,3.19-8.72,3.19s-6.52-1.06-8.69-3.19ZM492.43,106.62c.67-.77,1-1.78,1-3.04v-19.62c0-1.26-.33-2.28-1-3.04s-1.56-1.15-2.66-1.15-1.98.38-2.63,1.15c-.65.77-.98,1.78-.98,3.04v19.62c0,1.26.33,2.28.98,3.04.65.77,1.53,1.15,2.63,1.15s1.99-.38,2.66-1.15Z"/>
      <path class="st1" d="M509.96,111.58c-2.15-2.23-3.22-5.19-3.22-8.9v-28.91c0-.2.07-.36.21-.5s.3-.21.5-.21h6.92c.2,0,.36.07.5.21.14.14.21.31.21.5v29.73c0,1.26.31,2.29.95,3.07.63.79,1.46,1.18,2.48,1.18s1.84-.39,2.45-1.18c.61-.79.92-1.81.92-3.07v-29.73c0-.2.07-.36.21-.5.14-.14.3-.21.5-.21h6.92c.2,0,.36.07.5.21.14.14.21.31.21.5v28.91c0,3.71-1.07,6.67-3.22,8.9-2.15,2.23-4.98,3.34-8.48,3.34s-6.39-1.11-8.54-3.34Z"/>
      <path class="st1" d="M559.2,73.28c.14.14.21.31.21.5v5.73c0,.2-.07.37-.21.5s-.31.21-.5.21h-7.39c-.2,0-.3.1-.3.29v33.22c0,.2-.07.36-.21.5-.14.14-.31.21-.5.21h-6.92c-.2,0-.37-.07-.5-.21-.14-.14-.21-.3-.21-.5v-33.22c0-.2-.1-.29-.29-.29h-7.09c-.2,0-.36-.07-.5-.21-.14-.14-.21-.3-.21-.5v-5.73c0-.2.07-.36.21-.5s.3-.21.5-.21h23.41c.2,0,.36.07.5.21Z"/>
    </g>
    <g>
      <path class="st1" d="M203.91,111.88c-2.13-2.03-3.19-4.72-3.19-8.07v-4.08c0-.2.07-.36.21-.5.14-.14.3-.21.5-.21h6.92c.2,0,.36.07.5.21.14.14.21.31.21.5v4.2c0,1.14.3,2.07.89,2.78.59.71,1.38,1.06,2.36,1.06s1.84-.35,2.45-1.06c.61-.71.92-1.63.92-2.78v-30.15c0-.2.07-.36.21-.5s.3-.21.5-.21h6.92c.2,0,.36.07.5.21.14.14.21.31.21.5v30.03c0,3.35-1.07,6.04-3.22,8.07-2.15,2.03-4.98,3.04-8.48,3.04s-6.27-1.01-8.39-3.04Z"/>
      <path class="st1" d="M232.79,111.58c-2.15-2.23-3.22-5.19-3.22-8.9v-28.91c0-.2.07-.36.21-.5.14-.14.3-.21.5-.21h6.92c.2,0,.36.07.5.21.14.14.21.31.21.5v29.73c0,1.26.31,2.29.95,3.07.63.79,1.46,1.18,2.48,1.18s1.84-.39,2.45-1.18c.61-.79.92-1.81.92-3.07v-29.73c0-.2.07-.36.21-.5s.3-.21.5-.21h6.92c.2,0,.36.07.5.21.14.14.21.31.21.5v28.91c0,3.71-1.07,6.67-3.22,8.9-2.15,2.23-4.98,3.34-8.48,3.34s-6.39-1.11-8.54-3.34Z"/>
      <path class="st1" d="M263.2,113.56c-1.73-.91-3.07-2.18-4.02-3.81-.95-1.63-1.42-3.52-1.42-5.65v-1.71c0-.2.07-.36.21-.5.14-.14.3-.21.5-.21h6.8c.2,0,.36.07.5.21.14.14.21.31.21.5v1.3c0,1.22.31,2.21.95,2.96.63.75,1.42,1.12,2.36,1.12s1.73-.35,2.36-1.06c.63-.71.95-1.63.95-2.78s-.39-2.2-1.18-3.04c-.79-.85-2.33-2.1-4.61-3.75-1.97-1.42-3.57-2.68-4.79-3.78-1.22-1.1-2.27-2.46-3.13-4.08-.87-1.62-1.3-3.49-1.3-5.62,0-3.35,1.04-6.03,3.13-8.04,2.09-2.01,4.85-3.01,8.28-3.01s6.26,1.04,8.36,3.13c2.11,2.09,3.16,4.83,3.16,8.22v1.42c0,.2-.07.36-.21.5s-.31.21-.5.21h-6.8c-.2,0-.36-.07-.5-.21-.14-.14-.21-.3-.21-.5v-1.6c0-1.22-.31-2.2-.92-2.93-.61-.73-1.41-1.09-2.39-1.09s-1.71.35-2.31,1.04c-.59.69-.89,1.65-.89,2.87s.37,2.23,1.12,3.13c.75.91,2.23,2.17,4.43,3.78,2.44,1.81,4.29,3.28,5.53,4.4,1.24,1.12,2.21,2.36,2.9,3.72.69,1.36,1.03,2.98,1.03,4.88,0,3.47-1.06,6.23-3.19,8.28-2.13,2.05-4.93,3.07-8.39,3.07-2.29,0-4.3-.45-6.03-1.36Z"/>
      <path class="st1" d="M308.45,73.28c.14.14.21.31.21.5v5.73c0,.2-.07.37-.21.5s-.31.21-.5.21h-7.39c-.2,0-.3.1-.3.29v33.22c0,.2-.07.36-.21.5s-.31.21-.5.21h-6.92c-.2,0-.37-.07-.5-.21-.14-.14-.21-.3-.21-.5v-33.22c0-.2-.1-.29-.3-.29h-7.09c-.2,0-.36-.07-.5-.21-.14-.14-.21-.3-.21-.5v-5.73c0-.2.07-.36.21-.5s.3-.21.5-.21h23.41c.2,0,.36.07.5.21Z"/>
      <path class="st1" d="M341.05,113.86l-4.55-16.32c-.08-.16-.18-.24-.3-.24h-2.01c-.2,0-.3.1-.3.3v16.14c0,.2-.07.36-.21.5s-.31.21-.5.21h-6.92c-.2,0-.36-.07-.5-.21-.14-.14-.21-.3-.21-.5v-39.96c0-.2.07-.36.21-.5.14-.14.31-.21.5-.21h11.94c2.17,0,4.1.52,5.79,1.57,1.69,1.04,3,2.51,3.93,4.4.93,1.89,1.39,4.06,1.39,6.5s-.44,4.38-1.33,6.15-2.12,3.15-3.69,4.14c-.08.04-.14.09-.18.15-.04.06-.04.13,0,.21l5.44,17.44.06.24c0,.39-.22.59-.65.59h-7.09c-.43,0-.71-.2-.83-.59ZM333.9,80.52v10.11c0,.2.1.3.3.3h2.66c1.22,0,2.22-.48,2.99-1.45s1.15-2.26,1.15-3.87-.38-2.96-1.15-3.93-1.76-1.45-2.99-1.45h-2.66c-.2,0-.3.1-.3.29Z"/>
      <path class="st1" d="M375.42,80.02c-.14.14-.31.21-.5.21h-12.35c-.2,0-.3.1-.3.29v9.34c0,.2.1.3.3.3h7.09c.2,0,.36.07.5.21.14.14.21.31.21.5v5.73c0,.2-.07.36-.21.5s-.31.21-.5.21h-7.09c-.2,0-.3.1-.3.3v9.4c0,.2.1.3.3.3h12.35c.2,0,.36.07.5.21.14.14.21.31.21.5v5.73c0,.2-.07.36-.21.5s-.31.21-.5.21h-20.28c-.2,0-.36-.07-.5-.21-.14-.14-.21-.3-.21-.5v-39.96c0-.2.07-.36.21-.5.14-.14.31-.21.5-.21h20.28c.2,0,.36.07.5.21.14.14.21.31.21.5v5.73c0,.2-.07.37-.21.5Z"/>
      <path class="st1" d="M397.91,113.8l-.95-5.67c0-.2-.12-.29-.35-.29h-7.51c-.24,0-.35.1-.35.29l-.95,5.67c-.04.43-.3.65-.77.65h-6.92c-.51,0-.71-.26-.59-.77l8.69-39.96c.08-.43.33-.65.77-.65h7.98c.43,0,.69.22.77.65l8.63,39.96.06.24c0,.35-.22.53-.65.53h-7.09c-.47,0-.73-.22-.77-.65ZM390.17,101.39h5.32c.2,0,.28-.1.24-.3l-2.78-16.14c-.04-.12-.1-.18-.18-.18s-.14.06-.18.18l-2.66,16.14c0,.2.08.3.24.3Z"/>
      <path class="st1" d="M411.83,111.76c-2.15-2.11-3.22-4.94-3.22-8.48v-19.15c0-3.51,1.07-6.3,3.22-8.39,2.15-2.09,5-3.13,8.54-3.13s6.45,1.04,8.6,3.13c2.15,2.09,3.22,4.89,3.22,8.39v.65c0,.2-.07.36-.21.5s-.31.21-.5.21l-6.92.3c-.47,0-.71-.22-.71-.65v-1.54c0-1.14-.32-2.07-.95-2.78-.63-.71-1.48-1.06-2.54-1.06s-1.85.36-2.48,1.06c-.63.71-.95,1.64-.95,2.78v20.39c0,1.14.31,2.06.95,2.75.63.69,1.46,1.03,2.48,1.03s1.91-.34,2.54-1.03c.63-.69.95-1.61.95-2.75v-1.6c0-.2.07-.36.21-.5s.3-.21.5-.21l6.92.3c.2,0,.36.07.5.21.14.14.21.31.21.5v.59c0,3.55-1.08,6.38-3.25,8.48-2.17,2.11-5.02,3.16-8.57,3.16s-6.39-1.05-8.54-3.16Z"/>
      <path class="st1" d="M452.21,73.28c.14-.14.31-.21.5-.21h6.92c.2,0,.36.07.5.21.14.14.21.31.21.5v39.96c0,.2-.07.36-.21.5s-.31.21-.5.21h-6.92c-.2,0-.37-.07-.5-.21-.14-.14-.21-.3-.21-.5v-16.14c0-.2-.1-.3-.3-.3h-5.91c-.2,0-.3.1-.3.3v16.14c0,.2-.07.36-.21.5s-.31.21-.5.21h-6.92c-.2,0-.37-.07-.5-.21-.14-.14-.21-.3-.21-.5v-39.96c0-.2.07-.36.21-.5s.3-.21.5-.21h6.92c.2,0,.36.07.5.21.14.14.21.31.21.5v16.08c0,.2.1.3.3.3h5.91c.2,0,.3-.1.3-.3v-16.08c0-.2.07-.36.21-.5Z"/>
      <path class="st1" d="M481.08,111.73c-2.17-2.13-3.25-4.97-3.25-8.51v-18.92c0-3.55,1.08-6.38,3.25-8.51,2.17-2.13,5.06-3.19,8.69-3.19s6.53,1.06,8.72,3.19c2.19,2.13,3.28,4.96,3.28,8.51v18.92c0,3.55-1.09,6.38-3.28,8.51-2.19,2.13-5.09,3.19-8.72,3.19s-6.52-1.06-8.69-3.19ZM492.43,106.62c.67-.77,1-1.78,1-3.04v-19.62c0-1.26-.33-2.28-1-3.04s-1.56-1.15-2.66-1.15-1.98.38-2.63,1.15c-.65.77-.98,1.78-.98,3.04v19.62c0,1.26.33,2.28.98,3.04.65.77,1.53,1.15,2.63,1.15s1.99-.38,2.66-1.15Z"/>
      <path class="st1" d="M509.96,111.58c-2.15-2.23-3.22-5.19-3.22-8.9v-28.91c0-.2.07-.36.21-.5s.3-.21.5-.21h6.92c.2,0,.36.07.5.21.14.14.21.31.21.5v29.73c0,1.26.31,2.29.95,3.07.63.79,1.46,1.18,2.48,1.18s1.84-.39,2.45-1.18c.61-.79.92-1.81.92-3.07v-29.73c0-.2.07-.36.21-.5.14-.14.3-.21.5-.21h6.92c.2,0,.36.07.5.21.14.14.21.31.21.5v28.91c0,3.71-1.07,6.67-3.22,8.9-2.15,2.23-4.98,3.34-8.48,3.34s-6.39-1.11-8.54-3.34Z"/>
      <path class="st1" d="M559.2,73.28c.14.14.21.31.21.5v5.73c0,.2-.07.37-.21.5s-.31.21-.5.21h-7.39c-.2,0-.3.1-.3.29v33.22c0,.2-.07.36-.21.5-.14.14-.31.21-.5.21h-6.92c-.2,0-.37-.07-.5-.21-.14-.14-.21-.3-.21-.5v-33.22c0-.2-.1-.29-.29-.29h-7.09c-.2,0-.36-.07-.5-.21-.14-.14-.21-.3-.21-.5v-5.73c0-.2.07-.36.21-.5s.3-.21.5-.21h23.41c.2,0,.36.07.5.21Z"/>
    </g>
  </g>
  <g>
    <path class="st0" d="M201.27,51.36l-6.88-34.47-.05-.2c0-.31.19-.46.56-.46h6.22c.41,0,.63.19.66.56l2.91,18.36c.03.14.08.2.15.2s.12-.07.15-.2l2.75-18.36c.03-.37.25-.56.66-.56h5.15c.41,0,.63.19.66.56l3.01,18.36c.03.14.08.2.15.2s.12-.07.15-.2l2.6-18.36c.03-.37.25-.56.66-.56h6.02c.44,0,.63.22.56.66l-6.48,34.47c-.03.37-.26.56-.66.56h-5.51c-.41,0-.63-.19-.66-.56l-3.01-18.87c-.03-.14-.08-.2-.15-.2s-.12.07-.15.2l-2.7,18.87c-.03.37-.25.56-.66.56h-5.46c-.37,0-.6-.19-.66-.56Z"/>
    <path class="st0" d="M241.65,51.36l-.82-4.9c0-.17-.1-.25-.31-.25h-6.48c-.2,0-.31.09-.31.25l-.82,4.9c-.03.37-.25.56-.66.56h-5.97c-.44,0-.61-.22-.51-.66l7.5-34.47c.07-.37.29-.56.66-.56h6.88c.37,0,.59.19.66.56l7.45,34.47.05.2c0,.31-.19.46-.56.46h-6.12c-.41,0-.63-.19-.66-.56ZM234.97,40.65h4.59c.17,0,.24-.08.2-.25l-2.4-13.92c-.03-.1-.08-.15-.15-.15s-.12.05-.15.15l-2.29,13.92c0,.17.07.25.2.25Z"/>
    <path class="st0" d="M267.13,16.4c.12-.12.26-.18.43-.18h5.92c.17,0,.31.06.43.18.12.12.18.26.18.43v34.47c0,.17-.06.31-.18.43s-.26.18-.43.18h-6.73c-.34,0-.56-.17-.66-.51l-6.32-19.74c-.03-.1-.09-.14-.18-.13-.08.02-.13.08-.13.18l.05,19.58c0,.17-.06.31-.18.43s-.26.18-.43.18h-5.92c-.17,0-.31-.06-.43-.18-.12-.12-.18-.26-.18-.43V16.84c0-.17.06-.31.18-.43s.26-.18.43-.18h6.68c.34,0,.56.17.66.51l6.37,19.74c.03.1.09.14.18.13.08-.02.13-.08.13-.18l-.05-19.58c0-.17.06-.31.18-.43Z"/>
    <path class="st0" d="M299.25,16.4c.12.12.18.26.18.43v4.95c0,.17-.06.31-.18.43s-.26.18-.43.18h-6.37c-.17,0-.25.08-.25.25v28.66c0,.17-.06.31-.18.43s-.26.18-.43.18h-5.97c-.17,0-.31-.06-.43-.18-.12-.12-.18-.26-.18-.43v-28.66c0-.17-.08-.25-.25-.25h-6.12c-.17,0-.31-.06-.43-.18-.12-.12-.18-.26-.18-.43v-4.95c0-.17.06-.31.18-.43s.26-.18.43-.18h20.19c.17,0,.31.06.43.18Z"/>
    <path class="st0" d="M334.23,16.4c.12.12.18.26.18.43v4.95c0,.17-.06.31-.18.43s-.26.18-.43.18h-6.37c-.17,0-.25.08-.25.25v28.66c0,.17-.06.31-.18.43s-.26.18-.43.18h-5.97c-.17,0-.31-.06-.43-.18-.12-.12-.18-.26-.18-.43v-28.66c0-.17-.08-.25-.25-.25h-6.12c-.17,0-.31-.06-.43-.18-.12-.12-.18-.26-.18-.43v-4.95c0-.17.06-.31.18-.43s.26-.18.43-.18h20.19c.17,0,.31.06.43.18Z"/>
    <path class="st0" d="M339.67,49.57c-1.87-1.84-2.8-4.28-2.8-7.34v-16.32c0-3.06.93-5.51,2.8-7.34,1.87-1.84,4.37-2.75,7.5-2.75s5.64.92,7.52,2.75,2.83,4.28,2.83,7.34v16.32c0,3.06-.94,5.51-2.83,7.34s-4.39,2.75-7.52,2.75-5.63-.92-7.5-2.75ZM349.46,45.16c.58-.66.87-1.54.87-2.63v-16.93c0-1.09-.29-1.96-.87-2.63-.58-.66-1.34-.99-2.29-.99s-1.71.33-2.27.99-.84,1.54-.84,2.63v16.93c0,1.09.28,1.96.84,2.63s1.32.99,2.27.99,1.72-.33,2.29-.99Z"/>
    <path class="st0" d="M374.88,49.6c-1.85-1.82-2.78-4.26-2.78-7.32v-16.52c0-3.03.93-5.44,2.78-7.24,1.85-1.8,4.31-2.7,7.37-2.7s5.57.9,7.42,2.7c1.85,1.8,2.78,4.22,2.78,7.24v.56c0,.17-.06.31-.18.43-.12.12-.26.18-.43.18l-5.97.25c-.41,0-.61-.19-.61-.56v-1.33c0-.99-.27-1.79-.82-2.4s-1.27-.92-2.19-.92-1.6.31-2.14.92c-.54.61-.82,1.41-.82,2.4v17.59c0,.99.27,1.78.82,2.37.54.6,1.26.89,2.14.89s1.65-.3,2.19-.89c.54-.59.82-1.38.82-2.37v-1.38c0-.17.06-.31.18-.43.12-.12.26-.18.43-.18l5.97.25c.17,0,.31.06.43.18.12.12.18.26.18.43v.51c0,3.06-.93,5.5-2.8,7.32-1.87,1.82-4.33,2.73-7.39,2.73s-5.52-.91-7.37-2.73Z"/>
    <path class="st0" d="M399.02,49.57c-1.87-1.84-2.8-4.28-2.8-7.34v-16.32c0-3.06.93-5.51,2.8-7.34,1.87-1.84,4.37-2.75,7.5-2.75s5.63.92,7.52,2.75,2.83,4.28,2.83,7.34v16.32c0,3.06-.94,5.51-2.83,7.34s-4.39,2.75-7.52,2.75-5.63-.92-7.5-2.75ZM408.81,45.16c.58-.66.87-1.54.87-2.63v-16.93c0-1.09-.29-1.96-.87-2.63-.58-.66-1.34-.99-2.29-.99s-1.71.33-2.27.99c-.56.66-.84,1.54-.84,2.63v16.93c0,1.09.28,1.96.84,2.63.56.66,1.32.99,2.27.99s1.72-.33,2.29-.99Z"/>
    <path class="st0" d="M436.07,16.4c.12-.12.26-.18.43-.18h5.92c.17,0,.31.06.43.18.12.12.18.26.18.43v34.47c0,.17-.06.31-.18.43-.12.12-.26.18-.43.18h-6.73c-.34,0-.56-.17-.66-.51l-6.32-19.74c-.04-.1-.09-.14-.18-.13-.08.02-.13.08-.13.18l.05,19.58c0,.17-.06.31-.18.43-.12.12-.26.18-.43.18h-5.92c-.17,0-.31-.06-.43-.18-.12-.12-.18-.26-.18-.43V16.84c0-.17.06-.31.18-.43.12-.12.26-.18.43-.18h6.68c.34,0,.56.17.66.51l6.37,19.74c.03.1.09.14.18.13s.13-.08.13-.18l-.05-19.58c0-.17.06-.31.18-.43Z"/>
    <path class="st0" d="M462.74,16.4c.12-.12.26-.18.43-.18h5.92c.17,0,.31.06.43.18.12.12.18.26.18.43v34.47c0,.17-.06.31-.18.43-.12.12-.26.18-.43.18h-6.73c-.34,0-.56-.17-.66-.51l-6.32-19.74c-.04-.1-.09-.14-.18-.13-.08.02-.13.08-.13.18l.05,19.58c0,.17-.06.31-.18.43-.12.12-.26.18-.43.18h-5.92c-.17,0-.31-.06-.43-.18-.12-.12-.18-.26-.18-.43V16.84c0-.17.06-.31.18-.43.12-.12.26-.18.43-.18h6.68c.34,0,.56.17.66.51l6.37,19.74c.03.1.09.14.18.13s.13-.08.13-.18l-.05-19.58c0-.17.06-.31.18-.43Z"/>
    <path class="st0" d="M493.18,22.22c-.12.12-.26.18-.43.18h-10.66c-.17,0-.25.08-.25.25v8.06c0,.17.08.25.25.25h6.12c.17,0,.31.06.43.18.12.12.18.26.18.43v4.95c0,.17-.06.31-.18.43-.12.12-.26.18-.43.18h-6.12c-.17,0-.25.09-.25.25v8.11c0,.17.08.25.25.25h10.66c.17,0,.31.06.43.18s.18.26.18.43v4.95c0,.17-.06.31-.18.43-.12.12-.26.18-.43.18h-17.49c-.17,0-.31-.06-.43-.18-.12-.12-.18-.26-.18-.43V16.84c0-.17.06-.31.18-.43.12-.12.26-.18.43-.18h17.49c.17,0,.31.06.43.18.12.12.18.26.18.43v4.95c0,.17-.06.31-.18.43Z"/>
    <path class="st0" d="M499.71,49.6c-1.85-1.82-2.78-4.26-2.78-7.32v-16.52c0-3.03.93-5.44,2.78-7.24,1.85-1.8,4.31-2.7,7.37-2.7s5.57.9,7.42,2.7c1.85,1.8,2.78,4.22,2.78,7.24v.56c0,.17-.06.31-.18.43-.12.12-.26.18-.43.18l-5.97.25c-.41,0-.61-.19-.61-.56v-1.33c0-.99-.27-1.79-.82-2.4-.54-.61-1.28-.92-2.19-.92s-1.6.31-2.14.92c-.54.61-.82,1.41-.82,2.4v17.59c0,.99.27,1.78.82,2.37.54.6,1.26.89,2.14.89s1.65-.3,2.19-.89c.54-.59.82-1.38.82-2.37v-1.38c0-.17.06-.31.18-.43.12-.12.26-.18.43-.18l5.97.25c.17,0,.31.06.43.18.12.12.18.26.18.43v.51c0,3.06-.94,5.5-2.8,7.32-1.87,1.82-4.33,2.73-7.39,2.73s-5.52-.91-7.37-2.73Z"/>
    <path class="st0" d="M541.78,16.4c.12.12.18.26.18.43v4.95c0,.17-.06.31-.18.43-.12.12-.26.18-.43.18h-6.38c-.17,0-.25.08-.25.25v28.66c0,.17-.06.31-.18.43-.12.12-.26.18-.43.18h-5.97c-.17,0-.31-.06-.43-.18-.12-.12-.18-.26-.18-.43v-28.66c0-.17-.08-.25-.25-.25h-6.12c-.17,0-.31-.06-.43-.18-.12-.12-.18-.26-.18-.43v-4.95c0-.17.06-.31.18-.43.12-.12.26-.18.43-.18h20.19c.17,0,.31.06.43.18Z"/>
    <path class="st0" d="M552.18,40.42c-.12-.12-.18-.26-.18-.43v-1.63c0-1.7.35-3.07,1.05-4.11.7-1.04,1.71-2.13,3.03-3.29,1.09-.95,1.89-1.78,2.4-2.47.51-.7.76-1.56.76-2.58,0-1.09-.26-1.96-.79-2.63-.53-.66-1.22-.99-2.07-.99-.99,0-1.77.35-2.35,1.05-.58.7-.87,1.62-.87,2.78v.82c0,.37-.2.56-.61.56l-5.97-.26c-.17,0-.31-.06-.43-.18-.12-.12-.18-.26-.18-.43v-.51c0-2.04.44-3.85,1.33-5.43.88-1.58,2.12-2.8,3.72-3.67,1.6-.87,3.43-1.3,5.51-1.3,3.03,0,5.44.91,7.24,2.73,1.8,1.82,2.7,4.22,2.7,7.22,0,1.5-.21,2.78-.64,3.85-.43,1.07-.94,1.95-1.53,2.63-.59.68-1.37,1.43-2.32,2.24-.99.85-1.71,1.58-2.17,2.19-.46.61-.69,1.36-.69,2.24v1.17c0,.17-.06.31-.18.43-.12.12-.26.18-.43.18h-5.92c-.17,0-.31-.06-.43-.18ZM552.72,50.9c-.75-.75-1.12-1.72-1.12-2.91s.37-2.15,1.12-2.88c.75-.73,1.7-1.1,2.86-1.1s2.16.37,2.91,1.12c.75.75,1.12,1.7,1.12,2.86s-.38,2.12-1.12,2.88c-.75.77-1.72,1.15-2.91,1.15s-2.11-.37-2.86-1.12Z"/>
  </g>
</svg>