<?xml version="1.0" encoding="UTF-8"?>
<svg id="Layer_1" xmlns="http://www.w3.org/2000/svg" version="1.1" viewBox="0 0 764 150">
  <!-- Generator: Adobe Illustrator 29.6.1, SVG Export Plug-In . SVG Version: 2.1.1 Build 9)  -->
  <defs>
    <style>
      .st0 {
        fill: none;
        stroke: #fff;
        stroke-miterlimit: 10;
      }

      .st1 {
        fill: #fff;
      }

      .st2 {
        fill: #00e1ff;
      }
    </style>
  </defs>
  <g>
    <g>
      <path class="st2" d="M22.26,59.08l-6.88-34.47-.05-.2c0-.31.19-.46.56-.46h6.22c.41,0,.63.19.66.56l2.91,18.36c.03.14.08.2.15.2s.12-.07.15-.2l2.75-18.36c.03-.37.25-.56.66-.56h5.15c.41,0,.63.19.66.56l3.01,18.36c.03.14.08.2.15.2s.12-.07.15-.2l2.6-18.36c.03-.37.25-.56.66-.56h6.02c.44,0,.63.22.56.66l-6.48,34.47c-.03.37-.26.56-.66.56h-5.51c-.41,0-.63-.19-.66-.56l-3.01-18.87c-.03-.14-.08-.2-.15-.2s-.12.07-.15.2l-2.7,18.87c-.03.37-.25.56-.66.56h-5.46c-.37,0-.6-.19-.66-.56Z"/>
      <path class="st2" d="M70.68,29.94c-.12.12-.26.18-.43.18h-10.66c-.17,0-.25.08-.25.25v8.06c0,.17.08.25.25.25h6.12c.17,0,.31.06.43.18.12.12.18.26.18.43v4.95c0,.17-.06.31-.18.43-.12.12-.26.18-.43.18h-6.12c-.17,0-.25.09-.25.25v8.11c0,.17.08.25.25.25h10.66c.17,0,.31.06.43.18.12.12.18.26.18.43v4.95c0,.17-.06.31-.18.43s-.26.18-.43.18h-17.49c-.17,0-.31-.06-.43-.18-.12-.12-.18-.26-.18-.43V24.56c0-.17.06-.31.18-.43s.26-.18.43-.18h17.49c.17,0,.31.06.43.18.12.12.18.26.18.43v4.95c0,.17-.06.31-.18.43Z"/>
      <path class="st2" d="M82,24.12c.08.12.09.3.03.54l-3.52,10.3c-.1.34-.32.51-.66.51h-4.49c-.44,0-.61-.22-.51-.66l2.09-10.3c.07-.37.29-.56.66-.56h5.97c.2,0,.35.06.43.18Z"/>
      <path class="st2" d="M98.35,59.13l-3.93-14.07c-.07-.14-.15-.2-.25-.2h-1.73c-.17,0-.25.09-.25.25v13.92c0,.17-.06.31-.18.43-.12.12-.26.18-.43.18h-5.97c-.17,0-.31-.06-.43-.18-.12-.12-.18-.26-.18-.43V24.56c0-.17.06-.31.18-.43s.26-.18.43-.18h10.3c1.87,0,3.54.45,5,1.35,1.46.9,2.59,2.17,3.39,3.8.8,1.63,1.2,3.5,1.2,5.61s-.38,3.77-1.15,5.3c-.76,1.53-1.83,2.72-3.19,3.57-.07.03-.12.08-.15.13-.03.05-.03.11,0,.18l4.69,15.04.05.2c0,.34-.19.51-.56.51h-6.12c-.37,0-.61-.17-.71-.51ZM92.18,30.37v8.72c0,.17.08.25.25.25h2.29c1.05,0,1.91-.42,2.58-1.25.66-.83.99-1.95.99-3.34s-.33-2.56-.99-3.39-1.52-1.25-2.58-1.25h-2.29c-.17,0-.25.08-.25.25Z"/>
      <path class="st2" d="M128,29.94c-.12.12-.26.18-.43.18h-10.66c-.17,0-.25.08-.25.25v8.06c0,.17.08.25.25.25h6.12c.17,0,.31.06.43.18.12.12.18.26.18.43v4.95c0,.17-.06.31-.18.43-.12.12-.26.18-.43.18h-6.12c-.17,0-.25.09-.25.25v8.11c0,.17.08.25.25.25h10.66c.17,0,.31.06.43.18.12.12.18.26.18.43v4.95c0,.17-.06.31-.18.43s-.26.18-.43.18h-17.49c-.17,0-.31-.06-.43-.18-.12-.12-.18-.26-.18-.43V24.56c0-.17.06-.31.18-.43s.26-.18.43-.18h17.49c.17,0,.31.06.43.18.12.12.18.26.18.43v4.95c0,.17-.06.31-.18.43Z"/>
      <path class="st2" d="M157.24,59.08l-.82-4.9c0-.17-.1-.25-.31-.25h-6.48c-.2,0-.31.09-.31.25l-.82,4.9c-.03.37-.25.56-.66.56h-5.97c-.44,0-.61-.22-.51-.66l7.5-34.47c.07-.37.29-.56.66-.56h6.88c.37,0,.59.19.66.56l7.45,34.47.05.2c0,.31-.19.46-.56.46h-6.12c-.41,0-.63-.19-.66-.56ZM150.56,48.37h4.59c.17,0,.24-.08.2-.25l-2.4-13.92c-.03-.1-.08-.15-.15-.15s-.12.05-.15.15l-2.29,13.92c0,.17.07.25.2.25Z"/>
      <path class="st2" d="M193.37,24.12c.12-.12.26-.18.43-.18h5.92c.17,0,.31.06.43.18.12.12.18.26.18.43v34.47c0,.17-.06.31-.18.43s-.26.18-.43.18h-6.73c-.34,0-.56-.17-.66-.51l-6.32-19.74c-.03-.1-.09-.14-.18-.13-.08.02-.13.08-.13.18l.05,19.58c0,.17-.06.31-.18.43s-.26.18-.43.18h-5.92c-.17,0-.31-.06-.43-.18-.12-.12-.18-.26-.18-.43V24.56c0-.17.06-.31.18-.43s.26-.18.43-.18h6.68c.34,0,.56.17.66.51l6.37,19.74c.03.1.09.14.18.13.08-.02.13-.08.13-.18l-.05-19.58c0-.17.06-.31.18-.43Z"/>
      <path class="st2" d="M223.82,29.94c-.12.12-.26.18-.43.18h-10.66c-.17,0-.25.08-.25.25v8.06c0,.17.08.25.25.25h6.12c.17,0,.31.06.43.18.12.12.18.26.18.43v4.95c0,.17-.06.31-.18.43-.12.12-.26.18-.43.18h-6.12c-.17,0-.25.09-.25.25v8.11c0,.17.08.25.25.25h10.66c.17,0,.31.06.43.18.12.12.18.26.18.43v4.95c0,.17-.06.31-.18.43s-.26.18-.43.18h-17.49c-.17,0-.31-.06-.43-.18-.12-.12-.18-.26-.18-.43V24.56c0-.17.06-.31.18-.43s.26-.18.43-.18h17.49c.17,0,.31.06.43.18.12.12.18.26.18.43v4.95c0,.17-.06.31-.18.43Z"/>
      <path class="st2" d="M233.79,59.08l-6.88-34.47-.05-.2c0-.31.19-.46.56-.46h6.22c.41,0,.63.19.66.56l2.91,18.36c.03.14.08.2.15.2s.12-.07.15-.2l2.75-18.36c.03-.37.25-.56.66-.56h5.15c.41,0,.63.19.66.56l3.01,18.36c.03.14.08.2.15.2s.12-.07.15-.2l2.6-18.36c.03-.37.25-.56.66-.56h6.02c.44,0,.63.22.56.66l-6.48,34.47c-.03.37-.26.56-.66.56h-5.51c-.41,0-.63-.19-.66-.56l-3.01-18.87c-.03-.14-.08-.2-.15-.2s-.12.07-.15.2l-2.7,18.87c-.03.37-.25.56-.66.56h-5.46c-.37,0-.6-.19-.66-.56Z"/>
      <path class="st2" d="M260.33,47.48c-.12-.12-.18-.26-.18-.43v-4.95c0-.17.06-.31.18-.43s.26-.18.43-.18h13.21c.17,0,.31.06.43.18.12.12.18.26.18.43v4.95c0,.17-.06.31-.18.43-.12.12-.26.18-.43.18h-13.21c-.17,0-.31-.06-.43-.18Z"/>
      <path class="st2" d="M292.84,59.08l-.82-4.9c0-.17-.1-.25-.31-.25h-6.48c-.2,0-.31.09-.31.25l-.82,4.9c-.03.37-.25.56-.66.56h-5.97c-.44,0-.61-.22-.51-.66l7.5-34.47c.07-.37.29-.56.66-.56h6.88c.37,0,.59.19.66.56l7.45,34.47.05.2c0,.31-.19.46-.56.46h-6.12c-.41,0-.63-.19-.66-.56ZM286.16,48.37h4.59c.17,0,.24-.08.2-.25l-2.4-13.92c-.03-.1-.08-.15-.15-.15s-.12.05-.15.15l-2.29,13.92c0,.17.07.25.2.25Z"/>
      <path class="st2" d="M304.85,57.42c-1.85-1.75-2.78-4.09-2.78-7.01v-17.24c0-2.92.93-5.26,2.78-7.01,1.85-1.75,4.31-2.63,7.37-2.63s5.52.88,7.39,2.65c1.87,1.77,2.8,4.11,2.8,7.04v1.94c0,.17-.06.31-.18.43s-.26.18-.43.18h-5.97c-.17,0-.31-.06-.43-.18-.12-.12-.18-.26-.18-.43v-2.04c0-1.02-.27-1.84-.82-2.47-.54-.63-1.27-.94-2.19-.94s-1.6.31-2.14.94c-.54.63-.82,1.45-.82,2.47v17.34c0,1.02.27,1.84.82,2.47.54.63,1.26.94,2.14.94s1.65-.31,2.19-.94c.54-.63.82-1.45.82-2.47v-4.08c0-.17-.09-.25-.26-.25h-2.24c-.17,0-.31-.06-.43-.18-.12-.12-.18-.26-.18-.43v-4.54c0-.17.06-.31.18-.43s.26-.18.43-.18h9.08c.17,0,.31.06.43.18.12.12.18.26.18.43v9.43c0,2.92-.94,5.26-2.8,7.01-1.87,1.75-4.33,2.63-7.39,2.63s-5.52-.87-7.37-2.63Z"/>
      <path class="st2" d="M345.39,29.94c-.12.12-.26.18-.43.18h-10.66c-.17,0-.25.08-.25.25v8.06c0,.17.08.25.25.25h6.12c.17,0,.31.06.43.18.12.12.18.26.18.43v4.95c0,.17-.06.31-.18.43-.12.12-.26.18-.43.18h-6.12c-.17,0-.25.09-.25.25v8.11c0,.17.08.25.25.25h10.66c.17,0,.31.06.43.18.12.12.18.26.18.43v4.95c0,.17-.06.31-.18.43s-.26.18-.43.18h-17.49c-.17,0-.31-.06-.43-.18-.12-.12-.18-.26-.18-.43V24.56c0-.17.06-.31.18-.43s.26-.18.43-.18h17.49c.17,0,.31.06.43.18.12.12.18.26.18.43v4.95c0,.17-.06.31-.18.43Z"/>
      <path class="st2" d="M378.84,29.94c-.12.12-.26.18-.43.18h-10.66c-.17,0-.25.08-.25.25v8.06c0,.17.08.25.25.25h6.12c.17,0,.31.06.43.18.12.12.18.26.18.43v4.95c0,.17-.06.31-.18.43-.12.12-.26.18-.43.18h-6.12c-.17,0-.25.09-.25.25v8.11c0,.17.08.25.25.25h10.66c.17,0,.31.06.43.18s.18.26.18.43v4.95c0,.17-.06.31-.18.43-.12.12-.26.18-.43.18h-17.49c-.17,0-.31-.06-.43-.18-.12-.12-.18-.26-.18-.43V24.56c0-.17.06-.31.18-.43s.26-.18.43-.18h17.49c.17,0,.31.06.43.18.12.12.18.26.18.43v4.95c0,.17-.06.31-.18.43Z"/>
      <path class="st2" d="M382.18,59.44c-.07-.14-.07-.31,0-.51l6.93-16.98c.03-.1.03-.2,0-.31l-6.93-16.98c-.03-.07-.05-.17-.05-.31,0-.27.17-.41.51-.41h6.12c.34,0,.56.17.66.51l3.42,9.79c.03.1.08.15.15.15s.12-.05.15-.15l3.42-9.79c.1-.34.32-.51.66-.51h6.07c.24,0,.39.07.46.2.07.14.07.31,0,.51l-6.94,16.98c-.03.1-.03.2,0,.31l6.94,16.98c.03.07.05.17.05.31,0,.27-.17.41-.51.41h-6.07c-.34,0-.56-.17-.66-.51l-3.42-9.74c-.03-.1-.09-.15-.15-.15s-.12.05-.15.15l-3.47,9.74c-.1.34-.32.51-.66.51h-6.07c-.24,0-.39-.07-.46-.2Z"/>
      <path class="st2" d="M423.64,25.27c1.46.92,2.59,2.2,3.39,3.85.8,1.65,1.2,3.53,1.2,5.64,0,3.16-.85,5.69-2.55,7.6-1.7,1.9-3.93,2.86-6.68,2.86h-3.83c-.17,0-.25.09-.25.25v13.56c0,.17-.06.31-.18.43-.12.12-.26.18-.43.18h-5.97c-.17,0-.31-.06-.43-.18-.12-.12-.18-.26-.18-.43V24.51c0-.17.06-.31.18-.43.12-.12.26-.18.43-.18h10.3c1.87,0,3.54.46,5,1.38ZM420.04,38.35c.66-.83.99-1.98.99-3.44s-.33-2.67-.99-3.52c-.66-.85-1.54-1.27-2.63-1.27h-2.24c-.17,0-.25.08-.25.25v8.98c0,.17.08.25.25.25h2.24c1.09,0,1.96-.42,2.63-1.25Z"/>
      <path class="st2" d="M450.49,29.94c-.12.12-.26.18-.43.18h-10.66c-.17,0-.26.08-.26.25v8.06c0,.17.08.25.26.25h6.12c.17,0,.31.06.43.18.12.12.18.26.18.43v4.95c0,.17-.06.31-.18.43-.12.12-.26.18-.43.18h-6.12c-.17,0-.26.09-.26.25v8.11c0,.17.08.25.26.25h10.66c.17,0,.31.06.43.18s.18.26.18.43v4.95c0,.17-.06.31-.18.43-.12.12-.26.18-.43.18h-17.49c-.17,0-.31-.06-.43-.18-.12-.12-.18-.26-.18-.43V24.56c0-.17.06-.31.18-.43.12-.12.26-.18.43-.18h17.49c.17,0,.31.06.43.18.12.12.18.26.18.43v4.95c0,.17-.06.31-.18.43Z"/>
      <path class="st2" d="M468.1,59.13l-3.93-14.07c-.07-.14-.15-.2-.25-.2h-1.73c-.17,0-.26.09-.26.25v13.92c0,.17-.06.31-.18.43-.12.12-.26.18-.43.18h-5.97c-.17,0-.31-.06-.43-.18-.12-.12-.18-.26-.18-.43V24.56c0-.17.06-.31.18-.43.12-.12.26-.18.43-.18h10.3c1.87,0,3.54.45,5,1.35,1.46.9,2.59,2.17,3.39,3.8s1.2,3.5,1.2,5.61-.38,3.77-1.15,5.3c-.77,1.53-1.83,2.72-3.19,3.57-.07.03-.12.08-.15.13-.03.05-.03.11,0,.18l4.69,15.04.05.2c0,.34-.19.51-.56.51h-6.12c-.38,0-.61-.17-.71-.51ZM461.93,30.37v8.72c0,.17.08.25.26.25h2.29c1.05,0,1.91-.42,2.58-1.25.66-.83,1-1.95,1-3.34s-.33-2.56-1-3.39c-.66-.83-1.52-1.25-2.58-1.25h-2.29c-.17,0-.26.08-.26.25Z"/>
      <path class="st2" d="M479.4,59.46c-.12-.12-.18-.26-.18-.43V24.56c0-.17.06-.31.18-.43.12-.12.26-.18.43-.18h5.97c.17,0,.31.06.43.18.12.12.18.26.18.43v34.47c0,.17-.06.31-.18.43-.12.12-.26.18-.43.18h-5.97c-.17,0-.31-.06-.43-.18Z"/>
      <path class="st2" d="M509.94,29.94c-.12.12-.26.18-.43.18h-10.66c-.17,0-.26.08-.26.25v8.06c0,.17.08.25.26.25h6.12c.17,0,.31.06.43.18.12.12.18.26.18.43v4.95c0,.17-.06.31-.18.43-.12.12-.26.18-.43.18h-6.12c-.17,0-.26.09-.26.25v8.11c0,.17.08.25.26.25h10.66c.17,0,.31.06.43.18s.18.26.18.43v4.95c0,.17-.06.31-.18.43-.12.12-.26.18-.43.18h-17.49c-.17,0-.31-.06-.43-.18-.12-.12-.18-.26-.18-.43V24.56c0-.17.06-.31.18-.43.12-.12.26-.18.43-.18h17.49c.17,0,.31.06.43.18.12.12.18.26.18.43v4.95c0,.17-.06.31-.18.43Z"/>
      <path class="st2" d="M528.96,24.12c.12-.12.26-.18.43-.18h5.92c.17,0,.31.06.43.18.12.12.18.26.18.43v34.47c0,.17-.06.31-.18.43-.12.12-.26.18-.43.18h-6.73c-.34,0-.56-.17-.66-.51l-6.32-19.74c-.03-.1-.09-.14-.18-.13-.09.02-.13.08-.13.18l.05,19.58c0,.17-.06.31-.18.43-.12.12-.26.18-.43.18h-5.92c-.17,0-.31-.06-.43-.18-.12-.12-.18-.26-.18-.43V24.56c0-.17.06-.31.18-.43.12-.12.26-.18.43-.18h6.68c.34,0,.56.17.66.51l6.37,19.74c.03.1.09.14.18.13.08-.02.13-.08.13-.18l-.05-19.58c0-.17.06-.31.18-.43Z"/>
      <path class="st2" d="M543.14,57.32c-1.85-1.82-2.78-4.26-2.78-7.32v-16.52c0-3.03.93-5.44,2.78-7.24,1.85-1.8,4.31-2.7,7.37-2.7s5.57.9,7.42,2.7c1.85,1.8,2.78,4.22,2.78,7.24v.56c0,.17-.06.31-.18.43-.12.12-.26.18-.43.18l-5.97.25c-.41,0-.61-.19-.61-.56v-1.33c0-.99-.27-1.79-.82-2.4s-1.27-.92-2.19-.92-1.6.31-2.14.92c-.54.61-.82,1.41-.82,2.4v17.59c0,.99.27,1.78.82,2.37.54.6,1.26.89,2.14.89s1.65-.3,2.19-.89c.54-.59.82-1.38.82-2.37v-1.38c0-.17.06-.31.18-.43.12-.12.26-.18.43-.18l5.97.25c.17,0,.31.06.43.18.12.12.18.26.18.43v.51c0,3.06-.94,5.5-2.8,7.32-1.87,1.82-4.33,2.73-7.39,2.73s-5.52-.91-7.37-2.73Z"/>
      <path class="st2" d="M583.53,29.94c-.12.12-.26.18-.43.18h-10.66c-.17,0-.26.08-.26.25v8.06c0,.17.08.25.26.25h6.12c.17,0,.31.06.43.18.12.12.18.26.18.43v4.95c0,.17-.06.31-.18.43-.12.12-.26.18-.43.18h-6.12c-.17,0-.26.09-.26.25v8.11c0,.17.08.25.26.25h10.66c.17,0,.31.06.43.18s.18.26.18.43v4.95c0,.17-.06.31-.18.43-.12.12-.26.18-.43.18h-17.49c-.17,0-.31-.06-.43-.18-.12-.12-.18-.26-.18-.43V24.56c0-.17.06-.31.18-.43.12-.12.26-.18.43-.18h17.49c.17,0,.31.06.43.18.12.12.18.26.18.43v4.95c0,.17-.06.31-.18.43Z"/>
      <path class="st2" d="M586.79,47.48c-.12-.12-.18-.26-.18-.43v-4.95c0-.17.06-.31.18-.43.12-.12.26-.18.43-.18h13.21c.17,0,.31.06.43.18.12.12.18.26.18.43v4.95c0,.17-.06.31-.18.43-.12.12-.26.18-.43.18h-13.21c-.17,0-.31-.06-.43-.18Z"/>
      <path class="st2" d="M605.15,59.46c-.12-.12-.18-.26-.18-.43V24.56c0-.17.06-.31.18-.43.12-.12.26-.18.43-.18h9.23c3.09,0,5.58.9,7.45,2.7,1.87,1.8,2.8,4.2,2.8,7.19v15.91c0,2.99-.94,5.39-2.8,7.19-1.87,1.8-4.35,2.7-7.45,2.7h-9.23c-.17,0-.31-.06-.43-.18ZM612.42,53.47l2.29-.05c.92-.03,1.67-.42,2.24-1.17.58-.75.88-1.73.92-2.96v-14.99c0-1.29-.29-2.31-.87-3.06-.58-.75-1.36-1.12-2.35-1.12h-2.24c-.17,0-.26.08-.26.25v22.85c0,.17.08.25.26.25Z"/>
      <path class="st2" d="M643.06,59.13l-3.93-14.07c-.07-.14-.15-.2-.25-.2h-1.73c-.17,0-.26.09-.26.25v13.92c0,.17-.06.31-.18.43-.12.12-.26.18-.43.18h-5.97c-.17,0-.31-.06-.43-.18-.12-.12-.18-.26-.18-.43V24.56c0-.17.06-.31.18-.43.12-.12.26-.18.43-.18h10.3c1.87,0,3.54.45,5,1.35,1.46.9,2.59,2.17,3.39,3.8s1.2,3.5,1.2,5.61-.38,3.77-1.15,5.3c-.77,1.53-1.83,2.72-3.19,3.57-.07.03-.12.08-.15.13-.03.05-.03.11,0,.18l4.69,15.04.05.2c0,.34-.19.51-.56.51h-6.12c-.38,0-.61-.17-.71-.51ZM636.89,30.37v8.72c0,.17.08.25.26.25h2.29c1.05,0,1.91-.42,2.58-1.25.66-.83,1-1.95,1-3.34s-.33-2.56-1-3.39c-.66-.83-1.52-1.25-2.58-1.25h-2.29c-.17,0-.26.08-.26.25Z"/>
      <path class="st2" d="M654.36,59.46c-.12-.12-.18-.26-.18-.43V24.56c0-.17.06-.31.18-.43.12-.12.26-.18.43-.18h5.97c.17,0,.31.06.43.18.12.12.18.26.18.43v34.47c0,.17-.06.31-.18.43-.12.12-.26.18-.43.18h-5.97c-.17,0-.31-.06-.43-.18Z"/>
      <path class="st2" d="M672.59,59.08l-7.29-34.47-.05-.2c0-.31.19-.46.56-.46h6.58c.41,0,.63.19.66.56l3.52,22.44c.03.14.08.2.15.2s.12-.07.15-.2l3.42-22.44c.03-.37.25-.56.66-.56h6.37c.44,0,.61.22.51.66l-7.34,34.47c-.07.37-.29.56-.66.56h-6.58c-.37,0-.59-.19-.66-.56Z"/>
      <path class="st2" d="M710.25,29.94c-.12.12-.26.18-.43.18h-10.66c-.17,0-.26.08-.26.25v8.06c0,.17.08.25.26.25h6.12c.17,0,.31.06.43.18.12.12.18.26.18.43v4.95c0,.17-.06.31-.18.43-.12.12-.26.18-.43.18h-6.12c-.17,0-.26.09-.26.25v8.11c0,.17.08.25.26.25h10.66c.17,0,.31.06.43.18s.18.26.18.43v4.95c0,.17-.06.31-.18.43-.12.12-.26.18-.43.18h-17.49c-.17,0-.31-.06-.43-.18-.12-.12-.18-.26-.18-.43V24.56c0-.17.06-.31.18-.43.12-.12.26-.18.43-.18h17.49c.17,0,.31.06.43.18.12.12.18.26.18.43v4.95c0,.17-.06.31-.18.43Z"/>
      <path class="st2" d="M729.27,24.12c.12-.12.26-.18.43-.18h5.92c.17,0,.31.06.43.18.12.12.18.26.18.43v34.47c0,.17-.06.31-.18.43-.12.12-.26.18-.43.18h-6.73c-.34,0-.56-.17-.66-.51l-6.32-19.74c-.03-.1-.09-.14-.18-.13-.09.02-.13.08-.13.18l.05,19.58c0,.17-.06.31-.18.43-.12.12-.26.18-.43.18h-5.92c-.17,0-.31-.06-.43-.18-.12-.12-.18-.26-.18-.43V24.56c0-.17.06-.31.18-.43.12-.12.26-.18.43-.18h6.68c.34,0,.56.17.66.51l6.37,19.74c.03.1.09.14.18.13.08-.02.13-.08.13-.18l-.05-19.58c0-.17.06-.31.18-.43Z"/>
      <path class="st2" d="M740.59,64.46c-.12-.12-.16-.28-.13-.48l1.12-11.83c.07-.37.27-.56.61-.56h5.2c.48,0,.66.22.56.66l-2.7,11.83c-.1.37-.32.56-.66.56h-3.52c-.2,0-.37-.06-.48-.18Z"/>
    </g>
    <g>
      <path class="st1" d="M22.26,59.08l-6.88-34.47-.05-.2c0-.31.19-.46.56-.46h6.22c.41,0,.63.19.66.56l2.91,18.36c.03.14.08.2.15.2s.12-.07.15-.2l2.75-18.36c.03-.37.25-.56.66-.56h5.15c.41,0,.63.19.66.56l3.01,18.36c.03.14.08.2.15.2s.12-.07.15-.2l2.6-18.36c.03-.37.25-.56.66-.56h6.02c.44,0,.63.22.56.66l-6.48,34.47c-.03.37-.26.56-.66.56h-5.51c-.41,0-.63-.19-.66-.56l-3.01-18.87c-.03-.14-.08-.2-.15-.2s-.12.07-.15.2l-2.7,18.87c-.03.37-.25.56-.66.56h-5.46c-.37,0-.6-.19-.66-.56Z"/>
      <path class="st1" d="M70.68,29.94c-.12.12-.26.18-.43.18h-10.66c-.17,0-.25.08-.25.25v8.06c0,.17.08.25.25.25h6.12c.17,0,.31.06.43.18.12.12.18.26.18.43v4.95c0,.17-.06.31-.18.43-.12.12-.26.18-.43.18h-6.12c-.17,0-.25.09-.25.25v8.11c0,.17.08.25.25.25h10.66c.17,0,.31.06.43.18.12.12.18.26.18.43v4.95c0,.17-.06.31-.18.43s-.26.18-.43.18h-17.49c-.17,0-.31-.06-.43-.18-.12-.12-.18-.26-.18-.43V24.56c0-.17.06-.31.18-.43s.26-.18.43-.18h17.49c.17,0,.31.06.43.18.12.12.18.26.18.43v4.95c0,.17-.06.31-.18.43Z"/>
      <path class="st1" d="M82,24.12c.08.12.09.3.03.54l-3.52,10.3c-.1.34-.32.51-.66.51h-4.49c-.44,0-.61-.22-.51-.66l2.09-10.3c.07-.37.29-.56.66-.56h5.97c.2,0,.35.06.43.18Z"/>
      <path class="st1" d="M98.35,59.13l-3.93-14.07c-.07-.14-.15-.2-.25-.2h-1.73c-.17,0-.25.09-.25.25v13.92c0,.17-.06.31-.18.43-.12.12-.26.18-.43.18h-5.97c-.17,0-.31-.06-.43-.18-.12-.12-.18-.26-.18-.43V24.56c0-.17.06-.31.18-.43s.26-.18.43-.18h10.3c1.87,0,3.54.45,5,1.35,1.46.9,2.59,2.17,3.39,3.8.8,1.63,1.2,3.5,1.2,5.61s-.38,3.77-1.15,5.3c-.76,1.53-1.83,2.72-3.19,3.57-.07.03-.12.08-.15.13-.03.05-.03.11,0,.18l4.69,15.04.05.2c0,.34-.19.51-.56.51h-6.12c-.37,0-.61-.17-.71-.51ZM92.18,30.37v8.72c0,.17.08.25.25.25h2.29c1.05,0,1.91-.42,2.58-1.25.66-.83.99-1.95.99-3.34s-.33-2.56-.99-3.39-1.52-1.25-2.58-1.25h-2.29c-.17,0-.25.08-.25.25Z"/>
      <path class="st1" d="M128,29.94c-.12.12-.26.18-.43.18h-10.66c-.17,0-.25.08-.25.25v8.06c0,.17.08.25.25.25h6.12c.17,0,.31.06.43.18.12.12.18.26.18.43v4.95c0,.17-.06.31-.18.43-.12.12-.26.18-.43.18h-6.12c-.17,0-.25.09-.25.25v8.11c0,.17.08.25.25.25h10.66c.17,0,.31.06.43.18.12.12.18.26.18.43v4.95c0,.17-.06.31-.18.43s-.26.18-.43.18h-17.49c-.17,0-.31-.06-.43-.18-.12-.12-.18-.26-.18-.43V24.56c0-.17.06-.31.18-.43s.26-.18.43-.18h17.49c.17,0,.31.06.43.18.12.12.18.26.18.43v4.95c0,.17-.06.31-.18.43Z"/>
      <path class="st1" d="M157.24,59.08l-.82-4.9c0-.17-.1-.25-.31-.25h-6.48c-.2,0-.31.09-.31.25l-.82,4.9c-.03.37-.25.56-.66.56h-5.97c-.44,0-.61-.22-.51-.66l7.5-34.47c.07-.37.29-.56.66-.56h6.88c.37,0,.59.19.66.56l7.45,34.47.05.2c0,.31-.19.46-.56.46h-6.12c-.41,0-.63-.19-.66-.56ZM150.56,48.37h4.59c.17,0,.24-.08.2-.25l-2.4-13.92c-.03-.1-.08-.15-.15-.15s-.12.05-.15.15l-2.29,13.92c0,.17.07.25.2.25Z"/>
      <path class="st2" d="M193.37,24.12c.12-.12.26-.18.43-.18h5.92c.17,0,.31.06.43.18.12.12.18.26.18.43v34.47c0,.17-.06.31-.18.43s-.26.18-.43.18h-6.73c-.34,0-.56-.17-.66-.51l-6.32-19.74c-.03-.1-.09-.14-.18-.13-.08.02-.13.08-.13.18l.05,19.58c0,.17-.06.31-.18.43s-.26.18-.43.18h-5.92c-.17,0-.31-.06-.43-.18-.12-.12-.18-.26-.18-.43V24.56c0-.17.06-.31.18-.43s.26-.18.43-.18h6.68c.34,0,.56.17.66.51l6.37,19.74c.03.1.09.14.18.13.08-.02.13-.08.13-.18l-.05-19.58c0-.17.06-.31.18-.43Z"/>
      <path class="st2" d="M223.82,29.94c-.12.12-.26.18-.43.18h-10.66c-.17,0-.25.08-.25.25v8.06c0,.17.08.25.25.25h6.12c.17,0,.31.06.43.18.12.12.18.26.18.43v4.95c0,.17-.06.31-.18.43-.12.12-.26.18-.43.18h-6.12c-.17,0-.25.09-.25.25v8.11c0,.17.08.25.25.25h10.66c.17,0,.31.06.43.18.12.12.18.26.18.43v4.95c0,.17-.06.31-.18.43s-.26.18-.43.18h-17.49c-.17,0-.31-.06-.43-.18-.12-.12-.18-.26-.18-.43V24.56c0-.17.06-.31.18-.43s.26-.18.43-.18h17.49c.17,0,.31.06.43.18.12.12.18.26.18.43v4.95c0,.17-.06.31-.18.43Z"/>
      <path class="st2" d="M233.79,59.08l-6.88-34.47-.05-.2c0-.31.19-.46.56-.46h6.22c.41,0,.63.19.66.56l2.91,18.36c.03.14.08.2.15.2s.12-.07.15-.2l2.75-18.36c.03-.37.25-.56.66-.56h5.15c.41,0,.63.19.66.56l3.01,18.36c.03.14.08.2.15.2s.12-.07.15-.2l2.6-18.36c.03-.37.25-.56.66-.56h6.02c.44,0,.63.22.56.66l-6.48,34.47c-.03.37-.26.56-.66.56h-5.51c-.41,0-.63-.19-.66-.56l-3.01-18.87c-.03-.14-.08-.2-.15-.2s-.12.07-.15.2l-2.7,18.87c-.03.37-.25.56-.66.56h-5.46c-.37,0-.6-.19-.66-.56Z"/>
      <path class="st2" d="M260.33,47.48c-.12-.12-.18-.26-.18-.43v-4.95c0-.17.06-.31.18-.43s.26-.18.43-.18h13.21c.17,0,.31.06.43.18.12.12.18.26.18.43v4.95c0,.17-.06.31-.18.43-.12.12-.26.18-.43.18h-13.21c-.17,0-.31-.06-.43-.18Z"/>
      <path class="st2" d="M292.84,59.08l-.82-4.9c0-.17-.1-.25-.31-.25h-6.48c-.2,0-.31.09-.31.25l-.82,4.9c-.03.37-.25.56-.66.56h-5.97c-.44,0-.61-.22-.51-.66l7.5-34.47c.07-.37.29-.56.66-.56h6.88c.37,0,.59.19.66.56l7.45,34.47.05.2c0,.31-.19.46-.56.46h-6.12c-.41,0-.63-.19-.66-.56ZM286.16,48.37h4.59c.17,0,.24-.08.2-.25l-2.4-13.92c-.03-.1-.08-.15-.15-.15s-.12.05-.15.15l-2.29,13.92c0,.17.07.25.2.25Z"/>
      <path class="st2" d="M304.85,57.42c-1.85-1.75-2.78-4.09-2.78-7.01v-17.24c0-2.92.93-5.26,2.78-7.01,1.85-1.75,4.31-2.63,7.37-2.63s5.52.88,7.39,2.65c1.87,1.77,2.8,4.11,2.8,7.04v1.94c0,.17-.06.31-.18.43s-.26.18-.43.18h-5.97c-.17,0-.31-.06-.43-.18-.12-.12-.18-.26-.18-.43v-2.04c0-1.02-.27-1.84-.82-2.47-.54-.63-1.27-.94-2.19-.94s-1.6.31-2.14.94c-.54.63-.82,1.45-.82,2.47v17.34c0,1.02.27,1.84.82,2.47.54.63,1.26.94,2.14.94s1.65-.31,2.19-.94c.54-.63.82-1.45.82-2.47v-4.08c0-.17-.09-.25-.26-.25h-2.24c-.17,0-.31-.06-.43-.18-.12-.12-.18-.26-.18-.43v-4.54c0-.17.06-.31.18-.43s.26-.18.43-.18h9.08c.17,0,.31.06.43.18.12.12.18.26.18.43v9.43c0,2.92-.94,5.26-2.8,7.01-1.87,1.75-4.33,2.63-7.39,2.63s-5.52-.87-7.37-2.63Z"/>
      <path class="st2" d="M345.39,29.94c-.12.12-.26.18-.43.18h-10.66c-.17,0-.25.08-.25.25v8.06c0,.17.08.25.25.25h6.12c.17,0,.31.06.43.18.12.12.18.26.18.43v4.95c0,.17-.06.31-.18.43-.12.12-.26.18-.43.18h-6.12c-.17,0-.25.09-.25.25v8.11c0,.17.08.25.25.25h10.66c.17,0,.31.06.43.18.12.12.18.26.18.43v4.95c0,.17-.06.31-.18.43s-.26.18-.43.18h-17.49c-.17,0-.31-.06-.43-.18-.12-.12-.18-.26-.18-.43V24.56c0-.17.06-.31.18-.43s.26-.18.43-.18h17.49c.17,0,.31.06.43.18.12.12.18.26.18.43v4.95c0,.17-.06.31-.18.43Z"/>
      <path class="st1" d="M378.84,29.94c-.12.12-.26.18-.43.18h-10.66c-.17,0-.25.08-.25.25v8.06c0,.17.08.25.25.25h6.12c.17,0,.31.06.43.18.12.12.18.26.18.43v4.95c0,.17-.06.31-.18.43-.12.12-.26.18-.43.18h-6.12c-.17,0-.25.09-.25.25v8.11c0,.17.08.25.25.25h10.66c.17,0,.31.06.43.18s.18.26.18.43v4.95c0,.17-.06.31-.18.43-.12.12-.26.18-.43.18h-17.49c-.17,0-.31-.06-.43-.18-.12-.12-.18-.26-.18-.43V24.56c0-.17.06-.31.18-.43s.26-.18.43-.18h17.49c.17,0,.31.06.43.18.12.12.18.26.18.43v4.95c0,.17-.06.31-.18.43Z"/>
      <path class="st1" d="M382.18,59.44c-.07-.14-.07-.31,0-.51l6.93-16.98c.03-.1.03-.2,0-.31l-6.93-16.98c-.03-.07-.05-.17-.05-.31,0-.27.17-.41.51-.41h6.12c.34,0,.56.17.66.51l3.42,9.79c.03.1.08.15.15.15s.12-.05.15-.15l3.42-9.79c.1-.34.32-.51.66-.51h6.07c.24,0,.39.07.46.2.07.14.07.31,0,.51l-6.94,16.98c-.03.1-.03.2,0,.31l6.94,16.98c.03.07.05.17.05.31,0,.27-.17.41-.51.41h-6.07c-.34,0-.56-.17-.66-.51l-3.42-9.74c-.03-.1-.09-.15-.15-.15s-.12.05-.15.15l-3.47,9.74c-.1.34-.32.51-.66.51h-6.07c-.24,0-.39-.07-.46-.2Z"/>
      <path class="st1" d="M423.64,25.27c1.46.92,2.59,2.2,3.39,3.85.8,1.65,1.2,3.53,1.2,5.64,0,3.16-.85,5.69-2.55,7.6-1.7,1.9-3.93,2.86-6.68,2.86h-3.83c-.17,0-.25.09-.25.25v13.56c0,.17-.06.31-.18.43-.12.12-.26.18-.43.18h-5.97c-.17,0-.31-.06-.43-.18-.12-.12-.18-.26-.18-.43V24.51c0-.17.06-.31.18-.43.12-.12.26-.18.43-.18h10.3c1.87,0,3.54.46,5,1.38ZM420.04,38.35c.66-.83.99-1.98.99-3.44s-.33-2.67-.99-3.52c-.66-.85-1.54-1.27-2.63-1.27h-2.24c-.17,0-.25.08-.25.25v8.98c0,.17.08.25.25.25h2.24c1.09,0,1.96-.42,2.63-1.25Z"/>
      <path class="st1" d="M450.49,29.94c-.12.12-.26.18-.43.18h-10.66c-.17,0-.26.08-.26.25v8.06c0,.17.08.25.26.25h6.12c.17,0,.31.06.43.18.12.12.18.26.18.43v4.95c0,.17-.06.31-.18.43-.12.12-.26.18-.43.18h-6.12c-.17,0-.26.09-.26.25v8.11c0,.17.08.25.26.25h10.66c.17,0,.31.06.43.18s.18.26.18.43v4.95c0,.17-.06.31-.18.43-.12.12-.26.18-.43.18h-17.49c-.17,0-.31-.06-.43-.18-.12-.12-.18-.26-.18-.43V24.56c0-.17.06-.31.18-.43.12-.12.26-.18.43-.18h17.49c.17,0,.31.06.43.18.12.12.18.26.18.43v4.95c0,.17-.06.31-.18.43Z"/>
      <path class="st1" d="M468.1,59.13l-3.93-14.07c-.07-.14-.15-.2-.25-.2h-1.73c-.17,0-.26.09-.26.25v13.92c0,.17-.06.31-.18.43-.12.12-.26.18-.43.18h-5.97c-.17,0-.31-.06-.43-.18-.12-.12-.18-.26-.18-.43V24.56c0-.17.06-.31.18-.43.12-.12.26-.18.43-.18h10.3c1.87,0,3.54.45,5,1.35,1.46.9,2.59,2.17,3.39,3.8s1.2,3.5,1.2,5.61-.38,3.77-1.15,5.3c-.77,1.53-1.83,2.72-3.19,3.57-.07.03-.12.08-.15.13-.03.05-.03.11,0,.18l4.69,15.04.05.2c0,.34-.19.51-.56.51h-6.12c-.38,0-.61-.17-.71-.51ZM461.93,30.37v8.72c0,.17.08.25.26.25h2.29c1.05,0,1.91-.42,2.58-1.25.66-.83,1-1.95,1-3.34s-.33-2.56-1-3.39c-.66-.83-1.52-1.25-2.58-1.25h-2.29c-.17,0-.26.08-.26.25Z"/>
      <path class="st1" d="M479.4,59.46c-.12-.12-.18-.26-.18-.43V24.56c0-.17.06-.31.18-.43.12-.12.26-.18.43-.18h5.97c.17,0,.31.06.43.18.12.12.18.26.18.43v34.47c0,.17-.06.31-.18.43-.12.12-.26.18-.43.18h-5.97c-.17,0-.31-.06-.43-.18Z"/>
      <path class="st1" d="M509.94,29.94c-.12.12-.26.18-.43.18h-10.66c-.17,0-.26.08-.26.25v8.06c0,.17.08.25.26.25h6.12c.17,0,.31.06.43.18.12.12.18.26.18.43v4.95c0,.17-.06.31-.18.43-.12.12-.26.18-.43.18h-6.12c-.17,0-.26.09-.26.25v8.11c0,.17.08.25.26.25h10.66c.17,0,.31.06.43.18s.18.26.18.43v4.95c0,.17-.06.31-.18.43-.12.12-.26.18-.43.18h-17.49c-.17,0-.31-.06-.43-.18-.12-.12-.18-.26-.18-.43V24.56c0-.17.06-.31.18-.43.12-.12.26-.18.43-.18h17.49c.17,0,.31.06.43.18.12.12.18.26.18.43v4.95c0,.17-.06.31-.18.43Z"/>
      <path class="st1" d="M528.96,24.12c.12-.12.26-.18.43-.18h5.92c.17,0,.31.06.43.18.12.12.18.26.18.43v34.47c0,.17-.06.31-.18.43-.12.12-.26.18-.43.18h-6.73c-.34,0-.56-.17-.66-.51l-6.32-19.74c-.03-.1-.09-.14-.18-.13-.09.02-.13.08-.13.18l.05,19.58c0,.17-.06.31-.18.43-.12.12-.26.18-.43.18h-5.92c-.17,0-.31-.06-.43-.18-.12-.12-.18-.26-.18-.43V24.56c0-.17.06-.31.18-.43.12-.12.26-.18.43-.18h6.68c.34,0,.56.17.66.51l6.37,19.74c.03.1.09.14.18.13.08-.02.13-.08.13-.18l-.05-19.58c0-.17.06-.31.18-.43Z"/>
      <path class="st1" d="M543.14,57.32c-1.85-1.82-2.78-4.26-2.78-7.32v-16.52c0-3.03.93-5.44,2.78-7.24,1.85-1.8,4.31-2.7,7.37-2.7s5.57.9,7.42,2.7c1.85,1.8,2.78,4.22,2.78,7.24v.56c0,.17-.06.31-.18.43-.12.12-.26.18-.43.18l-5.97.25c-.41,0-.61-.19-.61-.56v-1.33c0-.99-.27-1.79-.82-2.4s-1.27-.92-2.19-.92-1.6.31-2.14.92c-.54.61-.82,1.41-.82,2.4v17.59c0,.99.27,1.78.82,2.37.54.6,1.26.89,2.14.89s1.65-.3,2.19-.89c.54-.59.82-1.38.82-2.37v-1.38c0-.17.06-.31.18-.43.12-.12.26-.18.43-.18l5.97.25c.17,0,.31.06.43.18.12.12.18.26.18.43v.51c0,3.06-.94,5.5-2.8,7.32-1.87,1.82-4.33,2.73-7.39,2.73s-5.52-.91-7.37-2.73Z"/>
      <path class="st1" d="M583.53,29.94c-.12.12-.26.18-.43.18h-10.66c-.17,0-.26.08-.26.25v8.06c0,.17.08.25.26.25h6.12c.17,0,.31.06.43.18.12.12.18.26.18.43v4.95c0,.17-.06.31-.18.43-.12.12-.26.18-.43.18h-6.12c-.17,0-.26.09-.26.25v8.11c0,.17.08.25.26.25h10.66c.17,0,.31.06.43.18s.18.26.18.43v4.95c0,.17-.06.31-.18.43-.12.12-.26.18-.43.18h-17.49c-.17,0-.31-.06-.43-.18-.12-.12-.18-.26-.18-.43V24.56c0-.17.06-.31.18-.43.12-.12.26-.18.43-.18h17.49c.17,0,.31.06.43.18.12.12.18.26.18.43v4.95c0,.17-.06.31-.18.43Z"/>
      <path class="st1" d="M586.79,47.48c-.12-.12-.18-.26-.18-.43v-4.95c0-.17.06-.31.18-.43.12-.12.26-.18.43-.18h13.21c.17,0,.31.06.43.18.12.12.18.26.18.43v4.95c0,.17-.06.31-.18.43-.12.12-.26.18-.43.18h-13.21c-.17,0-.31-.06-.43-.18Z"/>
      <path class="st1" d="M605.15,59.46c-.12-.12-.18-.26-.18-.43V24.56c0-.17.06-.31.18-.43.12-.12.26-.18.43-.18h9.23c3.09,0,5.58.9,7.45,2.7,1.87,1.8,2.8,4.2,2.8,7.19v15.91c0,2.99-.94,5.39-2.8,7.19-1.87,1.8-4.35,2.7-7.45,2.7h-9.23c-.17,0-.31-.06-.43-.18ZM612.42,53.47l2.29-.05c.92-.03,1.67-.42,2.24-1.17.58-.75.88-1.73.92-2.96v-14.99c0-1.29-.29-2.31-.87-3.06-.58-.75-1.36-1.12-2.35-1.12h-2.24c-.17,0-.26.08-.26.25v22.85c0,.17.08.25.26.25Z"/>
      <path class="st1" d="M643.06,59.13l-3.93-14.07c-.07-.14-.15-.2-.25-.2h-1.73c-.17,0-.26.09-.26.25v13.92c0,.17-.06.31-.18.43-.12.12-.26.18-.43.18h-5.97c-.17,0-.31-.06-.43-.18-.12-.12-.18-.26-.18-.43V24.56c0-.17.06-.31.18-.43.12-.12.26-.18.43-.18h10.3c1.87,0,3.54.45,5,1.35,1.46.9,2.59,2.17,3.39,3.8s1.2,3.5,1.2,5.61-.38,3.77-1.15,5.3c-.77,1.53-1.83,2.72-3.19,3.57-.07.03-.12.08-.15.13-.03.05-.03.11,0,.18l4.69,15.04.05.2c0,.34-.19.51-.56.51h-6.12c-.38,0-.61-.17-.71-.51ZM636.89,30.37v8.72c0,.17.08.25.26.25h2.29c1.05,0,1.91-.42,2.58-1.25.66-.83,1-1.95,1-3.34s-.33-2.56-1-3.39c-.66-.83-1.52-1.25-2.58-1.25h-2.29c-.17,0-.26.08-.26.25Z"/>
      <path class="st1" d="M654.36,59.46c-.12-.12-.18-.26-.18-.43V24.56c0-.17.06-.31.18-.43.12-.12.26-.18.43-.18h5.97c.17,0,.31.06.43.18.12.12.18.26.18.43v34.47c0,.17-.06.31-.18.43-.12.12-.26.18-.43.18h-5.97c-.17,0-.31-.06-.43-.18Z"/>
      <path class="st1" d="M672.59,59.08l-7.29-34.47-.05-.2c0-.31.19-.46.56-.46h6.58c.41,0,.63.19.66.56l3.52,22.44c.03.14.08.2.15.2s.12-.07.15-.2l3.42-22.44c.03-.37.25-.56.66-.56h6.37c.44,0,.61.22.51.66l-7.34,34.47c-.07.37-.29.56-.66.56h-6.58c-.37,0-.59-.19-.66-.56Z"/>
      <path class="st1" d="M710.25,29.94c-.12.12-.26.18-.43.18h-10.66c-.17,0-.26.08-.26.25v8.06c0,.17.08.25.26.25h6.12c.17,0,.31.06.43.18.12.12.18.26.18.43v4.95c0,.17-.06.31-.18.43-.12.12-.26.18-.43.18h-6.12c-.17,0-.26.09-.26.25v8.11c0,.17.08.25.26.25h10.66c.17,0,.31.06.43.18s.18.26.18.43v4.95c0,.17-.06.31-.18.43-.12.12-.26.18-.43.18h-17.49c-.17,0-.31-.06-.43-.18-.12-.12-.18-.26-.18-.43V24.56c0-.17.06-.31.18-.43.12-.12.26-.18.43-.18h17.49c.17,0,.31.06.43.18.12.12.18.26.18.43v4.95c0,.17-.06.31-.18.43Z"/>
      <path class="st1" d="M729.27,24.12c.12-.12.26-.18.43-.18h5.92c.17,0,.31.06.43.18.12.12.18.26.18.43v34.47c0,.17-.06.31-.18.43-.12.12-.26.18-.43.18h-6.73c-.34,0-.56-.17-.66-.51l-6.32-19.74c-.03-.1-.09-.14-.18-.13-.09.02-.13.08-.13.18l.05,19.58c0,.17-.06.31-.18.43-.12.12-.26.18-.43.18h-5.92c-.17,0-.31-.06-.43-.18-.12-.12-.18-.26-.18-.43V24.56c0-.17.06-.31.18-.43.12-.12.26-.18.43-.18h6.68c.34,0,.56.17.66.51l6.37,19.74c.03.1.09.14.18.13.08-.02.13-.08.13-.18l-.05-19.58c0-.17.06-.31.18-.43Z"/>
      <path class="st1" d="M740.59,64.46c-.12-.12-.16-.28-.13-.48l1.12-11.83c.07-.37.27-.56.61-.56h5.2c.48,0,.66.22.56.66l-2.7,11.83c-.1.37-.32.56-.66.56h-3.52c-.2,0-.37-.06-.48-.18Z"/>
    </g>
  </g>
  <g>
    <path class="st0" d="M64.21,119.23c-1.85-1.82-2.78-4.26-2.78-7.32v-16.52c0-3.03.93-5.44,2.78-7.24,1.85-1.8,4.31-2.7,7.37-2.7s5.57.9,7.42,2.7c1.85,1.8,2.78,4.22,2.78,7.24v.56c0,.17-.06.32-.18.43s-.26.18-.43.18l-5.97.25c-.41,0-.61-.19-.61-.56v-1.33c0-.99-.27-1.79-.82-2.4-.54-.61-1.27-.92-2.19-.92s-1.6.31-2.14.92c-.54.61-.82,1.41-.82,2.4v17.59c0,.99.27,1.78.82,2.37.54.59,1.26.89,2.14.89s1.65-.3,2.19-.89.82-1.38.82-2.37v-1.38c0-.17.06-.31.18-.43s.26-.18.43-.18l5.97.25c.17,0,.31.06.43.18.12.12.18.26.18.43v.51c0,3.06-.93,5.5-2.8,7.32-1.87,1.82-4.33,2.73-7.39,2.73s-5.52-.91-7.37-2.73Z"/>
    <path class="st0" d="M88.35,119.21c-1.87-1.84-2.8-4.28-2.8-7.34v-16.32c0-3.06.93-5.51,2.8-7.34,1.87-1.84,4.37-2.75,7.5-2.75s5.64.92,7.52,2.75,2.83,4.28,2.83,7.34v16.32c0,3.06-.94,5.51-2.83,7.34s-4.39,2.75-7.52,2.75-5.63-.92-7.5-2.75ZM98.14,114.8c.58-.66.87-1.54.87-2.63v-16.93c0-1.09-.29-1.96-.87-2.63s-1.34-.99-2.29-.99-1.71.33-2.27.99c-.56.66-.84,1.54-.84,2.63v16.93c0,1.09.28,1.96.84,2.63.56.66,1.32,1,2.27,1s1.72-.33,2.29-1Z"/>
    <path class="st0" d="M125.4,86.04c.12-.12.26-.18.43-.18h5.92c.17,0,.31.06.43.18.12.12.18.26.18.43v34.47c0,.17-.06.31-.18.43s-.26.18-.43.18h-6.73c-.34,0-.56-.17-.66-.51l-6.32-19.74c-.03-.1-.09-.14-.18-.13-.08.02-.13.08-.13.18l.05,19.58c0,.17-.06.31-.18.43-.12.12-.26.18-.43.18h-5.92c-.17,0-.31-.06-.43-.18-.12-.12-.18-.26-.18-.43v-34.47c0-.17.06-.31.18-.43s.26-.18.43-.18h6.68c.34,0,.56.17.66.51l6.38,19.74c.03.1.09.14.18.13.08-.02.13-.08.13-.18l-.05-19.58c0-.17.06-.31.18-.43Z"/>
    <path class="st0" d="M143.53,120.99l-7.29-34.47-.05-.2c0-.31.19-.46.56-.46h6.58c.41,0,.63.19.66.56l3.52,22.44c.03.14.08.2.15.2s.12-.07.15-.2l3.42-22.44c.03-.37.25-.56.66-.56h6.38c.44,0,.61.22.51.66l-7.34,34.47c-.07.37-.29.56-.66.56h-6.58c-.37,0-.59-.19-.66-.56Z"/>
    <path class="st0" d="M181.19,91.85c-.12.12-.26.18-.43.18h-10.66c-.17,0-.25.08-.25.25v8.06c0,.17.08.25.25.25h6.12c.17,0,.31.06.43.18.12.12.18.26.18.43v4.95c0,.17-.06.32-.18.43-.12.12-.26.18-.43.18h-6.12c-.17,0-.25.08-.25.25v8.11c0,.17.08.25.25.25h10.66c.17,0,.31.06.43.18.12.12.18.26.18.43v4.95c0,.17-.06.31-.18.43s-.26.18-.43.18h-17.49c-.17,0-.31-.06-.43-.18-.12-.12-.18-.26-.18-.43v-34.47c0-.17.06-.31.18-.43s.26-.18.43-.18h17.49c.17,0,.31.06.43.18.12.12.18.26.18.43v4.95c0,.17-.06.31-.18.43Z"/>
    <path class="st0" d="M200.21,86.04c.12-.12.26-.18.43-.18h5.92c.17,0,.31.06.43.18.12.12.18.26.18.43v34.47c0,.17-.06.31-.18.43s-.26.18-.43.18h-6.73c-.34,0-.56-.17-.66-.51l-6.32-19.74c-.03-.1-.09-.14-.18-.13-.08.02-.13.08-.13.18l.05,19.58c0,.17-.06.31-.18.43-.12.12-.26.18-.43.18h-5.92c-.17,0-.31-.06-.43-.18-.12-.12-.18-.26-.18-.43v-34.47c0-.17.06-.31.18-.43s.26-.18.43-.18h6.68c.34,0,.56.17.66.51l6.38,19.74c.03.1.09.14.18.13.08-.02.13-.08.13-.18l-.05-19.58c0-.17.06-.31.18-.43Z"/>
    <path class="st0" d="M232.33,86.04c.12.12.18.26.18.43v4.95c0,.17-.06.31-.18.43s-.26.18-.43.18h-6.37c-.17,0-.25.08-.25.25v28.66c0,.17-.06.31-.18.43-.12.12-.26.18-.43.18h-5.97c-.17,0-.32-.06-.43-.18-.12-.12-.18-.26-.18-.43v-28.66c0-.17-.08-.25-.25-.25h-6.12c-.17,0-.32-.06-.43-.18-.12-.12-.18-.26-.18-.43v-4.95c0-.17.06-.31.18-.43.12-.12.26-.18.43-.18h20.19c.17,0,.31.06.43.18Z"/>
    <path class="st0" d="M236.62,121.37c-.12-.12-.18-.26-.18-.43v-34.47c0-.17.06-.31.18-.43.12-.12.26-.18.43-.18h5.97c.17,0,.31.06.43.18s.18.26.18.43v34.47c0,.17-.06.31-.18.43-.12.12-.26.18-.43.18h-5.97c-.17,0-.31-.06-.43-.18Z"/>
    <path class="st0" d="M250.92,119.21c-1.87-1.84-2.8-4.28-2.8-7.34v-16.32c0-3.06.93-5.51,2.8-7.34,1.87-1.84,4.37-2.75,7.5-2.75s5.63.92,7.52,2.75,2.83,4.28,2.83,7.34v16.32c0,3.06-.94,5.51-2.83,7.34s-4.39,2.75-7.52,2.75-5.63-.92-7.5-2.75ZM260.71,114.8c.58-.66.87-1.54.87-2.63v-16.93c0-1.09-.29-1.96-.87-2.63-.58-.66-1.34-.99-2.29-.99s-1.71.33-2.27.99c-.56.66-.84,1.54-.84,2.63v16.93c0,1.09.28,1.96.84,2.63.56.66,1.32,1,2.27,1s1.72-.33,2.29-1Z"/>
    <path class="st0" d="M287.97,86.04c.12-.12.26-.18.43-.18h5.92c.17,0,.31.06.43.18s.18.26.18.43v34.47c0,.17-.06.31-.18.43-.12.12-.26.18-.43.18h-6.73c-.34,0-.56-.17-.66-.51l-6.32-19.74c-.04-.1-.09-.14-.18-.13-.08.02-.13.08-.13.18l.05,19.58c0,.17-.06.31-.18.43s-.26.18-.43.18h-5.92c-.17,0-.31-.06-.43-.18-.12-.12-.18-.26-.18-.43v-34.47c0-.17.06-.31.18-.43.12-.12.26-.18.43-.18h6.68c.34,0,.56.17.66.51l6.37,19.74c.03.1.09.14.18.13.08-.02.13-.08.13-.18l-.05-19.58c0-.17.06-.31.18-.43Z"/>
    <path class="st0" d="M299.03,109.39c-.12-.12-.18-.26-.18-.43v-4.95c0-.17.06-.31.18-.43.12-.12.26-.18.43-.18h13.21c.17,0,.31.06.43.18.12.12.18.26.18.43v4.95c0,.17-.06.32-.18.43-.12.12-.26.18-.43.18h-13.21c-.17,0-.31-.06-.43-.18Z"/>
    <path class="st0" d="M334.86,119c-1.91,1.7-4.37,2.55-7.39,2.55h-9.64c-.17,0-.31-.06-.43-.18-.12-.12-.18-.26-.18-.43v-34.47c0-.17.06-.31.18-.43.12-.12.26-.18.43-.18h8.52c3.4,0,6.06.82,7.98,2.45s2.88,4.06,2.88,7.29-1.16,5.81-3.47,7.34c-.14.1-.15.2-.05.31,2.69,1.9,4.03,4.73,4.03,8.46,0,3.16-.95,5.59-2.86,7.29ZM324.4,92.28v8.01c0,.17.08.25.25.25h1.84c1.16,0,2.06-.37,2.7-1.1.65-.73.97-1.76.97-3.08,0-1.39-.31-2.46-.94-3.21-.63-.75-1.54-1.12-2.73-1.12h-1.84c-.17,0-.25.08-.25.25ZM329.55,114.11c.65-.82.97-1.97.97-3.47s-.32-2.68-.97-3.57c-.65-.88-1.51-1.33-2.6-1.33h-2.29c-.17,0-.25.09-.25.26v9.08c0,.17.08.26.25.26h2.24c1.12,0,2.01-.41,2.65-1.22Z"/>
    <path class="st0" d="M355,121.04l-3.93-14.07c-.07-.14-.15-.2-.25-.2h-1.73c-.17,0-.25.08-.25.25v13.92c0,.17-.06.31-.18.43-.12.12-.26.18-.43.18h-5.97c-.17,0-.31-.06-.43-.18-.12-.12-.18-.26-.18-.43v-34.47c0-.17.06-.31.18-.43.12-.12.26-.18.43-.18h10.3c1.87,0,3.54.45,5,1.35,1.46.9,2.59,2.17,3.39,3.8.8,1.63,1.2,3.5,1.2,5.61s-.38,3.77-1.15,5.3c-.76,1.53-1.83,2.72-3.19,3.57-.07.03-.12.08-.15.13-.04.05-.04.11,0,.18l4.69,15.04.05.2c0,.34-.19.51-.56.51h-6.12c-.37,0-.61-.17-.71-.51ZM348.83,92.28v8.72c0,.17.08.25.25.25h2.29c1.05,0,1.91-.42,2.58-1.25s.99-1.95.99-3.34-.33-2.56-.99-3.39-1.52-1.25-2.58-1.25h-2.29c-.17,0-.25.08-.25.25Z"/>
    <path class="st0" d="M384.65,91.85c-.12.12-.26.18-.43.18h-10.66c-.17,0-.25.08-.25.25v8.06c0,.17.08.25.25.25h6.12c.17,0,.31.06.43.18.12.12.18.26.18.43v4.95c0,.17-.06.32-.18.43-.12.12-.26.18-.43.18h-6.12c-.17,0-.25.08-.25.25v8.11c0,.17.08.25.25.25h10.66c.17,0,.31.06.43.18.12.12.18.26.18.43v4.95c0,.17-.06.31-.18.43s-.26.18-.43.18h-17.49c-.17,0-.31-.06-.43-.18-.12-.12-.18-.26-.18-.43v-34.47c0-.17.06-.31.18-.43s.26-.18.43-.18h17.49c.17,0,.31.06.43.18.12.12.18.26.18.43v4.95c0,.17-.06.31-.18.43Z"/>
    <path class="st0" d="M404.05,120.99l-.82-4.9c0-.17-.1-.25-.31-.25h-6.48c-.2,0-.31.08-.31.25l-.82,4.9c-.03.37-.25.56-.66.56h-5.97c-.44,0-.61-.22-.51-.66l7.5-34.47c.07-.37.29-.56.66-.56h6.88c.37,0,.59.19.66.56l7.45,34.47.05.2c0,.31-.19.46-.56.46h-6.12c-.41,0-.63-.19-.66-.56ZM397.37,110.28h4.59c.17,0,.24-.08.2-.25l-2.4-13.92c-.03-.1-.08-.15-.15-.15s-.12.05-.15.15l-2.29,13.92c0,.17.07.25.2.25Z"/>
    <path class="st0" d="M414.94,121.37c-.12-.12-.18-.26-.18-.43v-34.47c0-.17.06-.31.18-.43s.26-.18.43-.18h5.97c.17,0,.31.06.43.18s.18.26.18.43v12.85c0,.14.04.21.13.23.08.02.14-.04.18-.18l6.58-13.05c.17-.31.41-.46.71-.46h6.32c.24,0,.4.06.48.18.08.12.08.3-.03.54l-7.55,14.69c-.03.14-.05.24-.05.31l8.01,19.28c.03.07.05.17.05.31,0,.27-.17.41-.51.41h-6.38c-.37,0-.61-.15-.71-.46l-5.3-13.36c-.04-.1-.09-.14-.15-.13-.07.02-.14.06-.2.13l-1.48,2.65c-.07.14-.1.24-.1.31v10.25c0,.17-.06.31-.18.43-.12.12-.26.18-.43.18h-5.97c-.17,0-.31-.06-.43-.18Z"/>
    <path class="st0" d="M440.44,121.37c-.12-.12-.18-.26-.18-.43v-34.47c0-.17.06-.31.18-.43.12-.12.26-.18.43-.18h5.97c.17,0,.31.06.43.18s.18.26.18.43v34.47c0,.17-.06.31-.18.43-.12.12-.26.18-.43.18h-5.97c-.17,0-.31-.06-.43-.18Z"/>
    <path class="st0" d="M467.21,86.04c.12-.12.26-.18.43-.18h5.92c.17,0,.31.06.43.18s.18.26.18.43v34.47c0,.17-.06.31-.18.43-.12.12-.26.18-.43.18h-6.73c-.34,0-.56-.17-.66-.51l-6.32-19.74c-.04-.1-.09-.14-.18-.13-.08.02-.13.08-.13.18l.05,19.58c0,.17-.06.31-.18.43s-.26.18-.43.18h-5.92c-.17,0-.31-.06-.43-.18-.12-.12-.18-.26-.18-.43v-34.47c0-.17.06-.31.18-.43.12-.12.26-.18.43-.18h6.68c.34,0,.56.17.66.51l6.37,19.74c.03.1.09.14.18.13.08-.02.13-.08.13-.18l-.05-19.58c0-.17.06-.31.18-.43Z"/>
    <path class="st0" d="M481.39,119.33c-1.85-1.75-2.78-4.09-2.78-7.01v-17.24c0-2.92.93-5.26,2.78-7.01,1.85-1.75,4.31-2.63,7.37-2.63s5.52.88,7.39,2.65c1.87,1.77,2.8,4.11,2.8,7.04v1.94c0,.17-.06.32-.18.43-.12.12-.26.18-.43.18h-5.97c-.17,0-.32-.06-.43-.18-.12-.12-.18-.26-.18-.43v-2.04c0-1.02-.27-1.84-.82-2.47-.54-.63-1.28-.94-2.19-.94s-1.6.31-2.14.94c-.54.63-.82,1.45-.82,2.47v17.34c0,1.02.27,1.84.82,2.47.54.63,1.26.94,2.14.94s1.65-.31,2.19-.94c.54-.63.82-1.45.82-2.47v-4.08c0-.17-.08-.25-.25-.25h-2.24c-.17,0-.31-.06-.43-.18-.12-.12-.18-.26-.18-.43v-4.54c0-.17.06-.31.18-.43s.26-.18.43-.18h9.08c.17,0,.31.06.43.18.12.12.18.26.18.43v9.43c0,2.92-.94,5.26-2.8,7.01-1.87,1.75-4.33,2.63-7.39,2.63s-5.52-.88-7.37-2.63Z"/>
    <path class="st0" d="M532.59,91.85c-.12.12-.26.18-.43.18h-10.66c-.17,0-.25.08-.25.25v8.06c0,.17.08.25.25.25h6.12c.17,0,.31.06.43.18.12.12.18.26.18.43v4.95c0,.17-.06.32-.18.43-.12.12-.26.18-.43.18h-6.12c-.17,0-.25.08-.25.25v8.11c0,.17.08.25.25.25h10.66c.17,0,.31.06.43.18.12.12.18.26.18.43v4.95c0,.17-.06.31-.18.43s-.26.18-.43.18h-17.49c-.17,0-.31-.06-.43-.18-.12-.12-.18-.26-.18-.43v-34.47c0-.17.06-.31.18-.43s.26-.18.43-.18h17.49c.17,0,.31.06.43.18.12.12.18.26.18.43v4.95c0,.17-.06.31-.18.43Z"/>
    <path class="st0" d="M543.06,120.99l-7.29-34.47-.05-.2c0-.31.19-.46.56-.46h6.58c.41,0,.63.19.66.56l3.52,22.44c.03.14.08.2.15.2s.12-.07.15-.2l3.42-22.44c.03-.37.25-.56.66-.56h6.37c.44,0,.61.22.51.66l-7.34,34.47c-.07.37-.29.56-.66.56h-6.58c-.38,0-.6-.19-.66-.56Z"/>
    <path class="st0" d="M580.72,91.85c-.12.12-.26.18-.43.18h-10.66c-.17,0-.25.08-.25.25v8.06c0,.17.08.25.25.25h6.12c.17,0,.31.06.43.18.12.12.18.26.18.43v4.95c0,.17-.06.32-.18.43-.12.12-.26.18-.43.18h-6.12c-.17,0-.25.08-.25.25v8.11c0,.17.08.25.25.25h10.66c.17,0,.31.06.43.18.12.12.18.26.18.43v4.95c0,.17-.06.31-.18.43s-.26.18-.43.18h-17.49c-.17,0-.31-.06-.43-.18-.12-.12-.18-.26-.18-.43v-34.47c0-.17.06-.31.18-.43s.26-.18.43-.18h17.49c.17,0,.31.06.43.18.12.12.18.26.18.43v4.95c0,.17-.06.31-.18.43Z"/>
    <path class="st0" d="M599.74,86.04c.12-.12.26-.18.43-.18h5.92c.17,0,.31.06.43.18.12.12.18.26.18.43v34.47c0,.17-.06.31-.18.43s-.26.18-.43.18h-6.73c-.34,0-.56-.17-.66-.51l-6.32-19.74c-.03-.1-.09-.14-.18-.13-.08.02-.13.08-.13.18l.05,19.58c0,.17-.06.31-.18.43-.12.12-.26.18-.43.18h-5.92c-.17,0-.31-.06-.43-.18-.12-.12-.18-.26-.18-.43v-34.47c0-.17.06-.31.18-.43s.26-.18.43-.18h6.68c.34,0,.56.17.66.51l6.38,19.74c.03.1.09.14.18.13.08-.02.13-.08.13-.18l-.05-19.58c0-.17.06-.31.18-.43Z"/>
    <path class="st0" d="M631.87,86.04c.12.12.18.26.18.43v4.95c0,.17-.06.31-.18.43s-.26.18-.43.18h-6.37c-.17,0-.25.08-.25.25v28.66c0,.17-.06.31-.18.43-.12.12-.26.18-.43.18h-5.97c-.17,0-.32-.06-.43-.18-.12-.12-.18-.26-.18-.43v-28.66c0-.17-.08-.25-.25-.25h-6.12c-.17,0-.32-.06-.43-.18-.12-.12-.18-.26-.18-.43v-4.95c0-.17.06-.31.18-.43.12-.12.26-.18.43-.18h20.19c.17,0,.31.06.43.18Z"/>
    <path class="st0" d="M648.9,119.23c-1.85-1.82-2.78-4.26-2.78-7.32v-16.52c0-3.03.93-5.44,2.78-7.24,1.85-1.8,4.31-2.7,7.37-2.7s5.57.9,7.42,2.7c1.85,1.8,2.78,4.22,2.78,7.24v.56c0,.17-.06.32-.18.43s-.26.18-.43.18l-5.97.25c-.41,0-.61-.19-.61-.56v-1.33c0-.99-.27-1.79-.82-2.4-.54-.61-1.27-.92-2.19-.92s-1.6.31-2.14.92c-.54.61-.82,1.41-.82,2.4v17.59c0,.99.27,1.78.82,2.37.54.59,1.26.89,2.14.89s1.65-.3,2.19-.89.82-1.38.82-2.37v-1.38c0-.17.06-.31.18-.43s.26-.18.43-.18l5.97.25c.17,0,.31.06.43.18.12.12.18.26.18.43v.51c0,3.06-.93,5.5-2.8,7.32-1.87,1.82-4.33,2.73-7.39,2.73s-5.52-.91-7.37-2.73Z"/>
    <path class="st0" d="M673.05,119.21c-1.87-1.84-2.8-4.28-2.8-7.34v-16.32c0-3.06.93-5.51,2.8-7.34,1.87-1.84,4.37-2.75,7.5-2.75s5.64.92,7.52,2.75,2.83,4.28,2.83,7.34v16.32c0,3.06-.94,5.51-2.83,7.34s-4.39,2.75-7.52,2.75-5.63-.92-7.5-2.75ZM682.84,114.8c.58-.66.87-1.54.87-2.63v-16.93c0-1.09-.29-1.96-.87-2.63s-1.34-.99-2.29-.99-1.71.33-2.27.99c-.56.66-.84,1.54-.84,2.63v16.93c0,1.09.28,1.96.84,2.63.56.66,1.32,1,2.27,1s1.72-.33,2.29-1Z"/>
    <path class="st0" d="M695.77,120.61c-.76-.76-1.15-1.72-1.15-2.88s.37-2.16,1.12-2.91c.75-.75,1.72-1.12,2.91-1.12s2.16.37,2.91,1.12c.75.75,1.12,1.72,1.12,2.91s-.38,2.12-1.15,2.88c-.77.76-1.73,1.15-2.88,1.15s-2.12-.38-2.88-1.15Z"/>
  </g>
</svg>