<?xml version="1.0" encoding="UTF-8"?>
<svg id="Layer_1" xmlns="http://www.w3.org/2000/svg" version="1.1" viewBox="0 0 912 323.76">
  <!-- Generator: Adobe Illustrator 29.6.1, SVG Export Plug-In . SVG Version: 2.1.1 Build 9)  -->
  <defs>
    <style>
      .st0 {
        fill: #fff;
      }

      .st1 {
        fill: #00e1ff;
      }
    </style>
  </defs>
  <g>
    <path class="st1" d="M39.17,88.9l-1.33-4.54c-.07-.14-.15-.2-.25-.2h-11.63c-.1,0-.19.07-.25.2l-1.33,4.54c-.1.34-.34.51-.71.51h-7.8c-.2,0-.36-.06-.46-.18-.1-.12-.12-.3-.05-.54l10.91-34.47c.1-.34.32-.51.66-.51h9.64c.34,0,.56.17.66.51l10.96,34.47c.03.07.05.15.05.25,0,.31-.19.46-.56.46h-7.8c-.37,0-.61-.17-.71-.51ZM27.96,77.63h7.6c.2,0,.27-.1.2-.31l-3.88-13.11c-.03-.14-.09-.2-.15-.18-.07.02-.12.08-.15.18l-3.82,13.11c-.03.2.03.31.2.31Z"/>
    <path class="st1" d="M82.6,53.9c.12-.12.26-.18.43-.18h7.24c.17,0,.31.06.43.18.12.12.18.26.18.43v34.47c0,.17-.06.31-.18.43s-.26.18-.43.18h-6.94c-.34,0-.58-.14-.71-.41l-11.73-19.48c-.07-.1-.14-.14-.2-.13-.07.02-.1.09-.1.23l.05,19.17c0,.17-.06.31-.18.43-.12.12-.26.18-.43.18h-7.24c-.17,0-.31-.06-.43-.18-.12-.12-.18-.26-.18-.43v-34.47c0-.17.06-.31.18-.43s.26-.18.43-.18h6.99c.34,0,.58.14.71.41l11.68,19.43c.07.1.14.15.2.13.07-.02.1-.09.1-.23l-.05-19.12c0-.17.06-.31.18-.43Z"/>
    <path class="st1" d="M120.94,60.78c-.12.12-.26.18-.43.18h-16.01c-.17,0-.25.09-.25.25v6.27c0,.17.08.25.25.25h10.25c.17,0,.31.06.43.18.12.12.18.26.18.43v5.97c0,.17-.06.31-.18.43s-.26.18-.43.18h-10.25c-.17,0-.25.08-.25.25v6.73c0,.17.08.25.25.25h16.01c.17,0,.31.06.43.18.12.12.18.26.18.43v6.02c0,.17-.06.31-.18.43s-.26.18-.43.18h-24.12c-.17,0-.31-.06-.43-.18-.12-.12-.18-.26-.18-.43v-34.47c0-.17.06-.31.18-.43s.26-.18.43-.18h24.12c.17,0,.31.06.43.18.12.12.18.26.18.43v6.02c0,.17-.06.31-.18.43Z"/>
    <path class="st1" d="M133.51,88.9l-9.48-34.52-.05-.2c0-.31.19-.46.56-.46h7.75c.34,0,.56.17.66.51l4.44,18.56c.03.14.08.2.15.2s.12-.07.15-.2l3.98-18.51c.07-.37.29-.56.66-.56h7.09c.34,0,.56.17.66.51l4.44,18.56c.03.14.08.2.15.2s.12-.07.15-.2l4.13-18.51c.07-.37.29-.56.66-.56h7.55c.48,0,.66.22.56.66l-8.62,34.52c-.1.34-.34.51-.71.51h-7.29c-.37,0-.6-.19-.66-.56l-4.44-19.68c-.03-.14-.09-.2-.15-.2s-.12.07-.15.2l-3.98,19.68c-.07.37-.29.56-.66.56h-6.83c-.37,0-.61-.17-.71-.51Z"/>
    <path class="st1" d="M206.72,60.78c-.12.12-.26.18-.43.18h-16.01c-.17,0-.25.09-.25.25v6.27c0,.17.08.25.25.25h10.25c.17,0,.31.06.43.18.12.12.18.26.18.43v5.97c0,.17-.06.31-.18.43s-.26.18-.43.18h-10.25c-.17,0-.25.08-.25.25v6.73c0,.17.08.25.25.25h16.01c.17,0,.31.06.43.18.12.12.18.26.18.43v6.02c0,.17-.06.31-.18.43s-.26.18-.43.18h-24.12c-.17,0-.31-.06-.43-.18-.12-.12-.18-.26-.18-.43v-34.47c0-.17.06-.31.18-.43s.26-.18.43-.18h24.12c.17,0,.31.06.43.18.12.12.18.26.18.43v6.02c0,.17-.06.31-.18.43Z"/>
    <path class="st1" d="M229.38,88.95l-6.02-13.56c-.07-.14-.17-.2-.31-.2h-3.37c-.17,0-.25.09-.25.25v13.36c0,.17-.06.31-.18.43-.12.12-.26.18-.43.18h-7.24c-.17,0-.31-.06-.43-.18-.12-.12-.18-.26-.18-.43v-34.47c0-.17.06-.31.18-.43s.26-.18.43-.18h15.15c2.24,0,4.21.46,5.92,1.38,1.7.92,3.02,2.22,3.95,3.9.93,1.68,1.4,3.61,1.4,5.79s-.56,4.25-1.68,5.92c-1.12,1.67-2.69,2.87-4.69,3.62-.17.07-.22.19-.15.36l6.73,14.02c.07.14.1.24.1.31,0,.27-.19.41-.56.41h-7.65c-.34,0-.58-.15-.71-.46ZM219.44,61.21v7.24c0,.17.08.25.25.25h5.66c1.26,0,2.28-.35,3.06-1.04.78-.7,1.17-1.62,1.17-2.78s-.39-2.14-1.17-2.86c-.78-.71-1.8-1.07-3.06-1.07h-5.66c-.17,0-.25.09-.25.25Z"/>
    <path class="st1" d="M265.23,88.9l-1.33-4.54c-.07-.14-.15-.2-.25-.2h-11.63c-.1,0-.19.07-.25.2l-1.33,4.54c-.1.34-.34.51-.71.51h-7.8c-.2,0-.36-.06-.46-.18-.1-.12-.12-.3-.05-.54l10.91-34.47c.1-.34.32-.51.66-.51h9.64c.34,0,.56.17.66.51l10.96,34.47c.03.07.05.15.05.25,0,.31-.19.46-.56.46h-7.8c-.37,0-.61-.17-.71-.51ZM254.01,77.63h7.6c.2,0,.27-.1.2-.31l-3.88-13.11c-.03-.14-.09-.2-.15-.18-.07.02-.12.08-.15.18l-3.82,13.11c-.03.2.03.31.2.31Z"/>
    <path class="st1" d="M288.41,89.23c-.12-.12-.18-.26-.18-.43v-34.47c0-.17.06-.31.18-.43s.26-.18.43-.18h13c2.65,0,5,.46,7.04,1.38,2.04.92,3.62,2.23,4.74,3.93,1.12,1.7,1.68,3.66,1.68,5.86v13.36c0,2.21-.56,4.17-1.68,5.86-1.12,1.7-2.7,3.01-4.74,3.93-2.04.92-4.39,1.38-7.04,1.38h-13c-.17,0-.31-.06-.43-.18ZM296.95,82.17h5.25c1.36,0,2.46-.48,3.31-1.45.85-.97,1.29-2.27,1.33-3.9v-10.5c0-1.63-.43-2.93-1.3-3.9-.87-.97-2-1.45-3.39-1.45h-5.2c-.17,0-.25.09-.25.25v20.7c0,.17.08.25.25.25Z"/>
    <path class="st1" d="M338.15,88.95l-6.02-13.56c-.07-.14-.17-.2-.31-.2h-3.37c-.17,0-.25.09-.25.25v13.36c0,.17-.06.31-.18.43-.12.12-.26.18-.43.18h-7.24c-.17,0-.31-.06-.43-.18-.12-.12-.18-.26-.18-.43v-34.47c0-.17.06-.31.18-.43s.26-.18.43-.18h15.15c2.24,0,4.21.46,5.92,1.38,1.7.92,3.02,2.22,3.95,3.9.93,1.68,1.4,3.61,1.4,5.79s-.56,4.25-1.68,5.92c-1.12,1.67-2.69,2.87-4.69,3.62-.17.07-.22.19-.15.36l6.73,14.02c.07.14.1.24.1.31,0,.27-.19.41-.56.41h-7.65c-.34,0-.58-.15-.71-.46ZM328.21,61.21v7.24c0,.17.08.25.25.25h5.66c1.26,0,2.28-.35,3.06-1.04.78-.7,1.17-1.62,1.17-2.78s-.39-2.14-1.17-2.86c-.78-.71-1.8-1.07-3.06-1.07h-5.66c-.17,0-.25.09-.25.25Z"/>
    <path class="st1" d="M351.23,89.23c-.12-.12-.18-.26-.18-.43v-34.47c0-.17.06-.31.18-.43s.26-.18.43-.18h7.24c.17,0,.31.06.43.18.12.12.18.26.18.43v34.47c0,.17-.06.31-.18.43-.12.12-.26.18-.43.18h-7.24c-.17,0-.31-.06-.43-.18Z"/>
    <path class="st1" d="M373.64,88.9l-10.3-34.47-.05-.2c0-.34.19-.51.56-.51h7.8c.37,0,.61.17.71.51l5.86,23.2c.03.1.08.15.15.15s.12-.05.15-.15l5.76-23.2c.1-.34.34-.51.71-.51h7.65c.2,0,.36.07.46.2.1.14.12.31.05.51l-10.45,34.47c-.1.34-.32.51-.66.51h-7.75c-.34,0-.56-.17-.66-.51Z"/>
    <path class="st1" d="M421.91,60.78c-.12.12-.26.18-.43.18h-16.01c-.17,0-.25.09-.25.25v6.27c0,.17.08.25.25.25h10.25c.17,0,.31.06.43.18.12.12.18.26.18.43v5.97c0,.17-.06.31-.18.43s-.26.18-.43.18h-10.25c-.17,0-.25.08-.25.25v6.73c0,.17.08.25.25.25h16.01c.17,0,.31.06.43.18.12.12.18.26.18.43v6.02c0,.17-.06.31-.18.43s-.26.18-.43.18h-24.12c-.17,0-.31-.06-.43-.18-.12-.12-.18-.26-.18-.43v-34.47c0-.17.06-.31.18-.43s.26-.18.43-.18h24.12c.17,0,.31.06.43.18.12.12.18.26.18.43v6.02c0,.17-.06.31-.18.43Z"/>
    <path class="st1" d="M431.75,88.47c-2.09-.9-3.71-2.19-4.84-3.88-1.14-1.68-1.71-3.63-1.71-5.84v-.97c0-.17.06-.31.18-.43.12-.12.26-.18.43-.18h7.09c.17,0,.31.06.43.18.12.12.18.26.18.43v.61c0,1.12.56,2.1,1.68,2.93,1.12.83,2.63,1.25,4.54,1.25,1.5,0,2.6-.32,3.31-.97.71-.65,1.07-1.39,1.07-2.24,0-.68-.21-1.23-.64-1.66-.43-.42-.99-.78-1.71-1.07-.71-.29-1.82-.69-3.31-1.2-.2-.1-.41-.18-.61-.23-.2-.05-.39-.11-.56-.18-2.21-.71-4.13-1.49-5.76-2.32-1.63-.83-3.03-1.99-4.18-3.47s-1.73-3.31-1.73-5.48.55-3.95,1.66-5.53c1.1-1.58,2.64-2.8,4.61-3.65,1.97-.85,4.2-1.27,6.68-1.27,2.62,0,4.97.48,7.06,1.43,2.09.95,3.73,2.29,4.92,4.03,1.19,1.73,1.79,3.72,1.79,5.97v.71c0,.17-.06.31-.18.43-.12.12-.26.18-.43.18h-7.09c-.17,0-.31-.06-.43-.18-.12-.12-.18-.26-.18-.43v-.36c0-1.19-.53-2.24-1.58-3.16-1.05-.92-2.47-1.38-4.23-1.38-1.33,0-2.36.27-3.11.82-.75.54-1.12,1.31-1.12,2.29,0,.75.24,1.37.71,1.86.48.49,1.22.95,2.22,1.38,1,.43,2.54.98,4.62,1.66,2.38.82,4.23,1.53,5.56,2.14,1.33.61,2.58,1.61,3.75,2.98,1.17,1.38,1.76,3.19,1.76,5.43s-.56,4.11-1.68,5.71c-1.12,1.6-2.69,2.83-4.72,3.7-2.02.87-4.38,1.3-7.06,1.3-2.82,0-5.28-.45-7.37-1.35Z"/>
    <path class="st1" d="M489.5,88.9l-1.33-4.54c-.07-.14-.15-.2-.25-.2h-11.63c-.1,0-.19.07-.25.2l-1.33,4.54c-.1.34-.34.51-.71.51h-7.8c-.2,0-.36-.06-.46-.18-.1-.12-.12-.3-.05-.54l10.91-34.47c.1-.34.32-.51.66-.51h9.64c.34,0,.56.17.66.51l10.96,34.47c.03.07.05.15.05.25,0,.31-.19.46-.56.46h-7.8c-.38,0-.61-.17-.71-.51ZM478.29,77.63h7.6c.2,0,.27-.1.2-.31l-3.88-13.11c-.03-.14-.08-.2-.15-.18-.07.02-.12.08-.15.18l-3.82,13.11c-.03.2.03.31.2.31Z"/>
    <path class="st1" d="M532.92,53.9c.12-.12.26-.18.43-.18h7.24c.17,0,.31.06.43.18.12.12.18.26.18.43v34.47c0,.17-.06.31-.18.43-.12.12-.26.18-.43.18h-6.94c-.34,0-.58-.14-.71-.41l-11.73-19.48c-.07-.1-.14-.14-.2-.13-.07.02-.1.09-.1.23l.05,19.17c0,.17-.06.31-.18.43-.12.12-.26.18-.43.18h-7.24c-.17,0-.31-.06-.43-.18-.12-.12-.18-.26-.18-.43v-34.47c0-.17.06-.31.18-.43.12-.12.26-.18.43-.18h6.99c.34,0,.58.14.71.41l11.68,19.43c.07.1.14.15.2.13.07-.02.1-.09.1-.23l-.05-19.12c0-.17.06-.31.18-.43Z"/>
    <path class="st1" d="M571.27,60.78c-.12.12-.26.18-.43.18h-16.01c-.17,0-.25.09-.25.25v6.27c0,.17.08.25.25.25h10.25c.17,0,.31.06.43.18.12.12.18.26.18.43v5.97c0,.17-.06.31-.18.43-.12.12-.26.18-.43.18h-10.25c-.17,0-.25.08-.25.25v6.73c0,.17.08.25.25.25h16.01c.17,0,.31.06.43.18.12.12.18.26.18.43v6.02c0,.17-.06.31-.18.43-.12.12-.26.18-.43.18h-24.12c-.17,0-.31-.06-.43-.18-.12-.12-.18-.26-.18-.43v-34.47c0-.17.06-.31.18-.43.12-.12.26-.18.43-.18h24.12c.17,0,.31.06.43.18.12.12.18.26.18.43v6.02c0,.17-.06.31-.18.43Z"/>
    <path class="st1" d="M583.84,88.9l-9.49-34.52-.05-.2c0-.31.19-.46.56-.46h7.75c.34,0,.56.17.66.51l4.44,18.56c.03.14.08.2.15.2s.12-.07.15-.2l3.98-18.51c.07-.37.29-.56.66-.56h7.09c.34,0,.56.17.66.51l4.44,18.56c.03.14.08.2.15.2s.12-.07.15-.2l4.13-18.51c.07-.37.29-.56.66-.56h7.55c.48,0,.66.22.56.66l-8.62,34.52c-.1.34-.34.51-.71.51h-7.29c-.37,0-.59-.19-.66-.56l-4.44-19.68c-.03-.14-.08-.2-.15-.2s-.12.07-.15.2l-3.98,19.68c-.07.37-.29.56-.66.56h-6.83c-.38,0-.61-.17-.71-.51Z"/>
    <path class="st1" d="M654.47,88.9l-1.33-4.54c-.07-.14-.15-.2-.25-.2h-11.63c-.1,0-.19.07-.25.2l-1.33,4.54c-.1.34-.34.51-.71.51h-7.8c-.2,0-.36-.06-.46-.18-.1-.12-.12-.3-.05-.54l10.91-34.47c.1-.34.32-.51.66-.51h9.64c.34,0,.56.17.66.51l10.96,34.47c.03.07.05.15.05.25,0,.31-.19.46-.56.46h-7.8c-.38,0-.61-.17-.71-.51ZM643.25,77.63h7.6c.2,0,.27-.1.2-.31l-3.88-13.11c-.03-.14-.08-.2-.15-.18-.07.02-.12.08-.15.18l-3.82,13.11c-.03.2.03.31.2.31Z"/>
    <path class="st1" d="M688.61,55.15c1.79.95,3.16,2.29,4.13,4,.97,1.72,1.45,3.7,1.45,5.94s-.5,4.17-1.5,5.86c-1,1.7-2.42,3.01-4.26,3.93-1.83.92-3.96,1.38-6.37,1.38h-6.22c-.17,0-.25.09-.25.25v12.29c0,.17-.06.31-.18.43-.12.12-.26.18-.43.18h-7.24c-.17,0-.32-.06-.43-.18-.12-.12-.18-.26-.18-.43v-34.47c0-.17.06-.31.18-.43.12-.12.26-.18.43-.18h14.74c2.31,0,4.36.48,6.14,1.43ZM684.48,68.35c.87-.78,1.3-1.8,1.3-3.06s-.43-2.34-1.3-3.14c-.87-.8-2-1.2-3.39-1.2h-5.25c-.17,0-.25.09-.25.25v8.06c0,.17.08.25.25.25h5.25c1.39,0,2.52-.39,3.39-1.17Z"/>
    <path class="st1" d="M719.1,55.15c1.79.95,3.16,2.29,4.13,4,.97,1.72,1.45,3.7,1.45,5.94s-.5,4.17-1.5,5.86c-1,1.7-2.42,3.01-4.26,3.93-1.83.92-3.96,1.38-6.37,1.38h-6.22c-.17,0-.25.09-.25.25v12.29c0,.17-.06.31-.18.43-.12.12-.26.18-.43.18h-7.24c-.17,0-.32-.06-.43-.18-.12-.12-.18-.26-.18-.43v-34.47c0-.17.06-.31.18-.43.12-.12.26-.18.43-.18h14.74c2.31,0,4.36.48,6.14,1.43ZM714.97,68.35c.87-.78,1.3-1.8,1.3-3.06s-.43-2.34-1.3-3.14c-.87-.8-2-1.2-3.39-1.2h-5.25c-.17,0-.25.09-.25.25v8.06c0,.17.08.25.25.25h5.25c1.39,0,2.52-.39,3.39-1.17Z"/>
    <path class="st1" d="M746.67,88.95l-6.02-13.56c-.07-.14-.17-.2-.31-.2h-3.37c-.17,0-.25.09-.25.25v13.36c0,.17-.06.31-.18.43-.12.12-.26.18-.43.18h-7.24c-.17,0-.31-.06-.43-.18-.12-.12-.18-.26-.18-.43v-34.47c0-.17.06-.31.18-.43.12-.12.26-.18.43-.18h15.15c2.24,0,4.21.46,5.92,1.38,1.7.92,3.02,2.22,3.95,3.9.93,1.68,1.4,3.61,1.4,5.79s-.56,4.25-1.68,5.92c-1.12,1.67-2.69,2.87-4.69,3.62-.17.07-.22.19-.15.36l6.73,14.02c.07.14.1.24.1.31,0,.27-.19.41-.56.41h-7.65c-.34,0-.58-.15-.71-.46ZM736.72,61.21v7.24c0,.17.08.25.25.25h5.66c1.26,0,2.28-.35,3.06-1.04s1.17-1.62,1.17-2.78-.39-2.14-1.17-2.86-1.8-1.07-3.06-1.07h-5.66c-.17,0-.25.09-.25.25Z"/>
    <path class="st1" d="M765.61,88.32c-2.09-1.1-3.71-2.66-4.87-4.67-1.16-2.01-1.73-4.33-1.73-6.99v-10.2c0-2.58.58-4.87,1.73-6.86,1.16-1.99,2.78-3.54,4.87-4.64,2.09-1.1,4.51-1.66,7.27-1.66s5.18.55,7.29,1.66c2.11,1.1,3.74,2.65,4.9,4.64,1.16,1.99,1.73,4.28,1.73,6.86v10.2c0,2.65-.58,4.98-1.73,6.99-1.16,2.01-2.79,3.56-4.9,4.67-2.11,1.1-4.54,1.66-7.29,1.66s-5.18-.55-7.27-1.66ZM776.83,81.15c1-1.05,1.5-2.46,1.5-4.23v-10.56c0-1.73-.5-3.14-1.5-4.21-1-1.07-2.32-1.61-3.95-1.61s-2.9.54-3.9,1.61c-1,1.07-1.5,2.47-1.5,4.21v10.56c0,1.77.5,3.18,1.5,4.23,1,1.05,2.3,1.58,3.9,1.58s2.95-.53,3.95-1.58Z"/>
    <path class="st1" d="M812.76,88.9l-1.33-4.54c-.07-.14-.15-.2-.25-.2h-11.63c-.1,0-.19.07-.25.2l-1.33,4.54c-.1.34-.34.51-.71.51h-7.8c-.2,0-.36-.06-.46-.18-.1-.12-.12-.3-.05-.54l10.91-34.47c.1-.34.32-.51.66-.51h9.64c.34,0,.56.17.66.51l10.96,34.47c.03.07.05.15.05.25,0,.31-.19.46-.56.46h-7.8c-.38,0-.61-.17-.71-.51ZM801.54,77.63h7.6c.2,0,.27-.1.2-.31l-3.88-13.11c-.03-.14-.08-.2-.15-.18-.07.02-.12.08-.15.18l-3.82,13.11c-.03.2.03.31.2.31Z"/>
    <path class="st1" d="M830.22,88.24c-2.06-1.05-3.65-2.55-4.79-4.49-1.14-1.94-1.71-4.18-1.71-6.73v-11.02c0-2.52.57-4.73,1.71-6.65,1.14-1.92,2.74-3.41,4.79-4.46,2.06-1.05,4.44-1.58,7.17-1.58s5.11.5,7.17,1.5c2.06,1,3.65,2.41,4.79,4.23,1.14,1.82,1.71,3.92,1.71,6.3,0,.17-.06.31-.18.41-.12.1-.26.15-.43.15l-7.24.46c-.41,0-.61-.19-.61-.56,0-1.6-.48-2.87-1.43-3.82-.95-.95-2.21-1.43-3.77-1.43s-2.82.48-3.77,1.45c-.95.97-1.43,2.24-1.43,3.8v11.58c0,1.56.48,2.82,1.43,3.77.95.95,2.21,1.43,3.77,1.43s2.82-.48,3.77-1.43,1.43-2.21,1.43-3.77c0-.37.2-.56.61-.56l7.24.36c.17,0,.31.05.43.15.12.1.18.22.18.36,0,2.41-.57,4.54-1.71,6.37-1.14,1.84-2.74,3.26-4.79,4.26-2.06,1-4.45,1.5-7.17,1.5s-5.11-.53-7.17-1.58Z"/>
    <path class="st1" d="M874.03,53.9c.12-.12.26-.18.43-.18h7.24c.17,0,.31.06.43.18.12.12.18.26.18.43v34.47c0,.17-.06.31-.18.43-.12.12-.26.18-.43.18h-7.24c-.17,0-.32-.06-.43-.18-.12-.12-.18-.26-.18-.43v-13.56c0-.17-.08-.25-.25-.25h-9.54c-.17,0-.25.09-.25.25v13.56c0,.17-.06.31-.18.43-.12.12-.26.18-.43.18h-7.24c-.17,0-.31-.06-.43-.18-.12-.12-.18-.26-.18-.43v-34.47c0-.17.06-.31.18-.43.12-.12.26-.18.43-.18h7.24c.17,0,.31.06.43.18.12.12.18.26.18.43v13.16c0,.17.08.25.25.25h9.54c.17,0,.25-.08.25-.25v-13.16c0-.17.06-.31.18-.43Z"/>
    <path class="st1" d="M886.03,94.1l1.53-12.24c.03-.37.24-.56.61-.56h6.27c.44,0,.61.22.51.66l-3.21,12.29c-.1.34-.34.51-.71.51h-4.44c-.44,0-.63-.22-.56-.66Z"/>
    <path class="st1" d="M113.01,132.35c3.09,1.63,4.64,4.35,4.64,8.16,0,3.4-1.17,5.93-3.52,7.6-2.35,1.67-5.42,2.5-9.23,2.5h-13.56c-.17,0-.31-.06-.43-.18-.12-.12-.18-.26-.18-.43v-34.47c0-.17.06-.31.18-.43s.26-.18.43-.18h13.16c4.15,0,7.28.78,9.41,2.35,2.12,1.56,3.19,4.1,3.19,7.6s-1.36,5.73-4.08,7.19c-.2.1-.2.2,0,.31ZM99.19,122.41v6.43c0,.17.08.25.25.25h5.05c1.39,0,2.46-.3,3.21-.89.75-.59,1.12-1.44,1.12-2.52s-.37-1.99-1.12-2.6c-.75-.61-1.82-.92-3.21-.92h-5.05c-.17,0-.25.09-.25.25ZM108.07,142.37c.75-.63,1.12-1.54,1.12-2.73s-.37-2.05-1.1-2.68c-.73-.63-1.79-.94-3.19-.94h-5.46c-.17,0-.25.09-.25.25v6.78c0,.17.08.25.25.25h5.46c1.36,0,2.41-.31,3.16-.94Z"/>
    <path class="st1" d="M128.49,149.46c-2.06-1.04-3.65-2.51-4.79-4.41-1.14-1.9-1.71-4.1-1.71-6.58v-22.95c0-.17.06-.31.18-.43s.26-.18.43-.18h7.24c.17,0,.31.06.43.18.12.12.18.26.18.43v22.95c0,1.6.47,2.88,1.4,3.85.93.97,2.18,1.45,3.75,1.45s2.76-.48,3.7-1.45c.93-.97,1.4-2.25,1.4-3.85v-22.95c0-.17.06-.31.18-.43s.26-.18.43-.18h7.24c.17,0,.31.06.43.18.12.12.18.26.18.43v22.95c0,2.48-.56,4.67-1.68,6.58-1.12,1.9-2.71,3.37-4.77,4.41-2.06,1.04-4.43,1.56-7.11,1.56s-5.06-.52-7.11-1.56Z"/>
    <path class="st1" d="M180.2,115.09c.12.12.18.26.18.43v6.07c0,.17-.06.31-.18.43-.12.12-.26.18-.43.18h-8.92c-.17,0-.25.09-.25.26v27.54c0,.17-.06.31-.18.43-.12.12-.26.18-.43.18h-7.24c-.17,0-.31-.06-.43-.18-.12-.12-.18-.26-.18-.43v-27.54c0-.17-.08-.26-.25-.26h-8.62c-.17,0-.31-.06-.43-.18-.12-.12-.18-.26-.18-.43v-6.07c0-.17.06-.31.18-.43s.26-.18.43-.18h26.52c.17,0,.31.06.43.18Z"/>
    <path class="st1" d="M194.42,150.43c-.12-.12-.18-.26-.18-.43v-34.47c0-.17.06-.31.18-.43s.26-.18.43-.18h7.24c.17,0,.31.06.43.18.12.12.18.26.18.43v34.47c0,.17-.06.31-.18.43-.12.12-.26.18-.43.18h-7.24c-.17,0-.31-.06-.43-.18Z"/>
    <path class="st1" d="M231.37,114.91h7.19c.17,0,.31.06.43.18.12.12.18.26.18.43v34.47c0,.17-.06.31-.18.43s-.26.18-.43.18h-7.24c-.17,0-.31-.06-.43-.18-.12-.12-.18-.26-.18-.43v-20.5c0-.14-.03-.2-.1-.2s-.14.05-.2.15l-4.39,7.04c-.14.27-.37.41-.71.41h-3.62c-.34,0-.58-.14-.71-.41l-4.44-7.09c-.07-.1-.14-.15-.2-.15s-.1.07-.1.2v20.55c0,.17-.06.31-.18.43-.12.12-.26.18-.43.18h-7.24c-.17,0-.31-.06-.43-.18-.12-.12-.18-.26-.18-.43v-34.47c0-.17.06-.31.18-.43s.26-.18.43-.18h7.19c.31,0,.54.14.71.41l7.09,11.12c.1.2.2.2.31,0l6.99-11.12c.14-.27.37-.41.71-.41Z"/>
    <path class="st1" d="M265.51,116.34c1.79.95,3.16,2.29,4.13,4,.97,1.72,1.45,3.7,1.45,5.94s-.5,4.17-1.5,5.86c-1,1.7-2.42,3.01-4.26,3.93-1.84.92-3.96,1.38-6.37,1.38h-6.22c-.17,0-.25.09-.25.25v12.29c0,.17-.06.31-.18.43s-.26.18-.43.18h-7.24c-.17,0-.31-.06-.43-.18-.12-.12-.18-.26-.18-.43v-34.47c0-.17.06-.31.18-.43s.26-.18.43-.18h14.74c2.31,0,4.36.48,6.14,1.43ZM261.38,129.55c.87-.78,1.3-1.8,1.3-3.06s-.43-2.34-1.3-3.14c-.87-.8-2-1.2-3.39-1.2h-5.25c-.17,0-.25.09-.25.25v8.06c0,.17.08.25.25.25h5.25c1.39,0,2.52-.39,3.39-1.17Z"/>
    <path class="st1" d="M293.79,150.1l-1.33-4.54c-.07-.14-.15-.2-.25-.2h-11.63c-.1,0-.19.07-.25.2l-1.33,4.54c-.1.34-.34.51-.71.51h-7.8c-.2,0-.36-.06-.46-.18-.1-.12-.12-.3-.05-.54l10.91-34.47c.1-.34.32-.51.66-.51h9.64c.34,0,.56.17.66.51l10.96,34.47c.03.07.05.15.05.25,0,.31-.19.46-.56.46h-7.8c-.37,0-.61-.17-.71-.51ZM282.57,138.83h7.6c.2,0,.27-.1.2-.31l-3.88-13.11c-.03-.14-.09-.2-.15-.18-.07.02-.12.08-.15.18l-3.82,13.11c-.03.2.03.31.2.31Z"/>
    <path class="st1" d="M325,150.15l-6.02-13.56c-.07-.14-.17-.2-.31-.2h-3.37c-.17,0-.25.09-.25.25v13.36c0,.17-.06.31-.18.43-.12.12-.26.18-.43.18h-7.24c-.17,0-.31-.06-.43-.18-.12-.12-.18-.26-.18-.43v-34.47c0-.17.06-.31.18-.43s.26-.18.43-.18h15.15c2.24,0,4.21.46,5.92,1.38,1.7.92,3.02,2.22,3.95,3.9.93,1.68,1.4,3.61,1.4,5.79s-.56,4.25-1.68,5.92c-1.12,1.67-2.69,2.87-4.69,3.62-.17.07-.22.19-.15.36l6.73,14.02c.07.14.1.24.1.31,0,.27-.19.41-.56.41h-7.65c-.34,0-.58-.15-.71-.46ZM315.05,122.41v7.24c0,.17.08.25.25.25h5.66c1.26,0,2.28-.35,3.06-1.04.78-.7,1.17-1.62,1.17-2.78s-.39-2.14-1.17-2.86c-.78-.71-1.8-1.07-3.06-1.07h-5.66c-.17,0-.25.09-.25.25Z"/>
    <path class="st1" d="M364.03,115.09c.12.12.18.26.18.43v6.07c0,.17-.06.31-.18.43-.12.12-.26.18-.43.18h-8.92c-.17,0-.25.09-.25.26v27.54c0,.17-.06.31-.18.43-.12.12-.26.18-.43.18h-7.24c-.17,0-.31-.06-.43-.18-.12-.12-.18-.26-.18-.43v-27.54c0-.17-.08-.26-.25-.26h-8.62c-.17,0-.31-.06-.43-.18-.12-.12-.18-.26-.18-.43v-6.07c0-.17.06-.31.18-.43s.26-.18.43-.18h26.52c.17,0,.31.06.43.18Z"/>
    <path class="st1" d="M368.06,150.43c-.12-.12-.18-.26-.18-.43v-34.47c0-.17.06-.31.18-.43s.26-.18.43-.18h7.24c.17,0,.31.06.43.18.12.12.18.26.18.43v34.47c0,.17-.06.31-.18.43-.12.12-.26.18-.43.18h-7.24c-.17,0-.31-.06-.43-.18Z"/>
    <path class="st1" d="M401.82,115.09c.12-.12.26-.18.43-.18h7.24c.17,0,.31.06.43.18.12.12.18.26.18.43v34.47c0,.17-.06.31-.18.43s-.26.18-.43.18h-6.94c-.34,0-.58-.14-.71-.41l-11.73-19.48c-.07-.1-.14-.14-.2-.13-.07.02-.1.09-.1.23l.05,19.17c0,.17-.06.31-.18.43-.12.12-.26.18-.43.18h-7.24c-.17,0-.31-.06-.43-.18-.12-.12-.18-.26-.18-.43v-34.47c0-.17.06-.31.18-.43s.26-.18.43-.18h6.99c.34,0,.58.14.71.41l11.68,19.43c.07.1.14.15.2.13.07-.02.1-.09.1-.23l-.05-19.12c0-.17.06-.31.18-.43Z"/>
    <path class="st1" d="M421.09,149.38c-2.06-1.09-3.65-2.62-4.79-4.59-1.14-1.97-1.71-4.25-1.71-6.83v-10.45c0-2.58.57-4.85,1.71-6.81,1.14-1.95,2.74-3.48,4.79-4.56,2.06-1.09,4.44-1.63,7.17-1.63s5.06.52,7.14,1.56c2.07,1.04,3.68,2.46,4.82,4.26,1.14,1.8,1.71,3.79,1.71,5.97v.26c0,.17-.06.31-.18.43-.12.12-.26.18-.43.18h-7.24c-.17,0-.31-.06-.43-.18-.12-.12-.18-.26-.18-.43,0-1.33-.47-2.46-1.4-3.39s-2.2-1.4-3.8-1.4-2.82.51-3.77,1.53c-.95,1.02-1.43,2.35-1.43,3.98v10.96c0,1.63.53,2.96,1.58,3.98,1.05,1.02,2.38,1.53,3.98,1.53,1.5,0,2.7-.4,3.62-1.2.92-.8,1.38-1.91,1.38-3.34v-1.43c0-.17-.09-.25-.25-.25h-5.1c-.17,0-.31-.06-.43-.18-.12-.12-.18-.26-.18-.43v-5.61c0-.17.06-.31.18-.43.12-.12.26-.18.43-.18h13.05c.17,0,.31.06.43.18s.18.26.18.43v6.94c0,2.55-.57,4.79-1.71,6.73-1.14,1.94-2.74,3.43-4.79,4.49-2.06,1.05-4.45,1.58-7.16,1.58s-5.11-.54-7.17-1.63Z"/>
    <path class="st1" d="M478.84,132.35c3.09,1.63,4.64,4.35,4.64,8.16,0,3.4-1.17,5.93-3.52,7.6-2.35,1.67-5.42,2.5-9.23,2.5h-13.56c-.17,0-.31-.06-.43-.18-.12-.12-.18-.26-.18-.43v-34.47c0-.17.06-.31.18-.43.12-.12.26-.18.43-.18h13.16c4.15,0,7.28.78,9.41,2.35,2.12,1.56,3.19,4.1,3.19,7.6s-1.36,5.73-4.08,7.19c-.2.1-.2.2,0,.31ZM465.03,122.41v6.43c0,.17.08.25.25.25h5.05c1.39,0,2.46-.3,3.21-.89.75-.59,1.12-1.44,1.12-2.52s-.37-1.99-1.12-2.6c-.75-.61-1.82-.92-3.21-.92h-5.05c-.17,0-.25.09-.25.25ZM473.9,142.37c.75-.63,1.12-1.54,1.12-2.73s-.37-2.05-1.1-2.68c-.73-.63-1.79-.94-3.19-.94h-5.46c-.17,0-.25.09-.25.25v6.78c0,.17.08.25.25.25h5.46c1.36,0,2.41-.31,3.16-.94Z"/>
    <path class="st1" d="M506.43,150.15l-6.02-13.56c-.07-.14-.17-.2-.31-.2h-3.37c-.17,0-.25.09-.25.25v13.36c0,.17-.06.31-.18.43-.12.12-.26.18-.43.18h-7.24c-.17,0-.31-.06-.43-.18-.12-.12-.18-.26-.18-.43v-34.47c0-.17.06-.31.18-.43.12-.12.26-.18.43-.18h15.15c2.24,0,4.21.46,5.92,1.38,1.7.92,3.02,2.22,3.95,3.9.93,1.68,1.4,3.61,1.4,5.79s-.56,4.25-1.68,5.92c-1.12,1.67-2.69,2.87-4.69,3.62-.17.07-.22.19-.15.36l6.73,14.02c.07.14.1.24.1.31,0,.27-.19.41-.56.41h-7.65c-.34,0-.58-.15-.71-.46ZM496.49,122.41v7.24c0,.17.08.25.25.25h5.66c1.26,0,2.28-.35,3.06-1.04s1.17-1.62,1.17-2.78-.39-2.14-1.17-2.86-1.8-1.07-3.06-1.07h-5.66c-.17,0-.25.09-.25.25Z"/>
    <path class="st1" d="M542.28,150.1l-1.33-4.54c-.07-.14-.15-.2-.25-.2h-11.63c-.1,0-.19.07-.25.2l-1.33,4.54c-.1.34-.34.51-.71.51h-7.8c-.2,0-.36-.06-.46-.18-.1-.12-.12-.3-.05-.54l10.91-34.47c.1-.34.32-.51.66-.51h9.64c.34,0,.56.17.66.51l10.96,34.47c.03.07.05.15.05.25,0,.31-.19.46-.56.46h-7.8c-.38,0-.61-.17-.71-.51ZM531.06,138.83h7.6c.2,0,.27-.1.2-.31l-3.88-13.11c-.03-.14-.08-.2-.15-.18-.07.02-.12.08-.15.18l-3.82,13.11c-.03.2.03.31.2.31Z"/>
    <path class="st1" d="M575.5,115.09c.12-.12.26-.18.43-.18h7.24c.17,0,.31.06.43.18.12.12.18.26.18.43v34.47c0,.17-.06.31-.18.43-.12.12-.26.18-.43.18h-6.94c-.34,0-.58-.14-.71-.41l-11.73-19.48c-.07-.1-.14-.14-.2-.13-.07.02-.1.09-.1.23l.05,19.17c0,.17-.06.31-.18.43-.12.12-.26.18-.43.18h-7.24c-.17,0-.31-.06-.43-.18-.12-.12-.18-.26-.18-.43v-34.47c0-.17.06-.31.18-.43.12-.12.26-.18.43-.18h6.99c.34,0,.58.14.71.41l11.68,19.43c.07.1.14.15.2.13.07-.02.1-.09.1-.23l-.05-19.12c0-.17.06-.31.18-.43Z"/>
    <path class="st1" d="M588.86,150.43c-.12-.12-.18-.26-.18-.43v-34.47c0-.17.06-.31.18-.43.12-.12.26-.18.43-.18h13c2.65,0,5,.46,7.04,1.38,2.04.92,3.62,2.23,4.74,3.93,1.12,1.7,1.68,3.66,1.68,5.86v13.36c0,2.21-.56,4.17-1.68,5.86-1.12,1.7-2.7,3.01-4.74,3.93-2.04.92-4.39,1.38-7.04,1.38h-13c-.17,0-.31-.06-.43-.18ZM597.41,143.37h5.25c1.36,0,2.46-.48,3.31-1.45.85-.97,1.29-2.27,1.33-3.9v-10.5c0-1.63-.43-2.93-1.3-3.9-.87-.97-2-1.45-3.39-1.45h-5.2c-.17,0-.25.09-.25.25v20.7c0,.17.08.25.25.25Z"/>
    <path class="st1" d="M635.98,149.66c-2.09-.9-3.71-2.19-4.84-3.88-1.14-1.68-1.71-3.63-1.71-5.84v-.97c0-.17.06-.31.18-.43s.26-.18.43-.18h7.09c.17,0,.31.06.43.18s.18.26.18.43v.61c0,1.12.56,2.1,1.68,2.93,1.12.83,2.63,1.25,4.54,1.25,1.5,0,2.6-.32,3.31-.97.71-.65,1.07-1.39,1.07-2.24,0-.68-.21-1.23-.64-1.66-.43-.42-.99-.78-1.71-1.07-.71-.29-1.82-.69-3.32-1.2-.2-.1-.41-.18-.61-.23-.2-.05-.39-.11-.56-.18-2.21-.71-4.13-1.49-5.76-2.32-1.63-.83-3.03-1.99-4.18-3.47-1.16-1.48-1.73-3.31-1.73-5.48s.55-3.95,1.66-5.53c1.1-1.58,2.64-2.8,4.62-3.65,1.97-.85,4.2-1.27,6.68-1.27,2.62,0,4.97.48,7.06,1.43,2.09.95,3.73,2.29,4.92,4.03,1.19,1.73,1.79,3.72,1.79,5.97v.71c0,.17-.06.31-.18.43-.12.12-.26.18-.43.18h-7.09c-.17,0-.31-.06-.43-.18-.12-.12-.18-.26-.18-.43v-.36c0-1.19-.53-2.24-1.58-3.16s-2.46-1.38-4.23-1.38c-1.33,0-2.36.27-3.11.82-.75.54-1.12,1.31-1.12,2.29,0,.75.24,1.37.71,1.86.48.49,1.21.95,2.22,1.38,1,.43,2.54.98,4.62,1.66,2.38.82,4.23,1.53,5.56,2.14,1.33.61,2.58,1.61,3.75,2.98s1.76,3.19,1.76,5.43-.56,4.11-1.68,5.71c-1.12,1.6-2.7,2.83-4.72,3.7-2.02.87-4.38,1.3-7.06,1.3-2.82,0-5.28-.45-7.37-1.35Z"/>
    <path class="st1" d="M686.98,115.09c.12.12.18.26.18.43v6.07c0,.17-.06.31-.18.43-.12.12-.26.18-.43.18h-8.92c-.17,0-.25.09-.25.26v27.54c0,.17-.06.31-.18.43-.12.12-.26.18-.43.18h-7.24c-.17,0-.31-.06-.43-.18-.12-.12-.18-.26-.18-.43v-27.54c0-.17-.09-.26-.25-.26h-8.62c-.17,0-.32-.06-.43-.18-.12-.12-.18-.26-.18-.43v-6.07c0-.17.06-.31.18-.43.12-.12.26-.18.43-.18h26.52c.17,0,.31.06.43.18Z"/>
    <path class="st1" d="M695.85,149.51c-2.09-1.1-3.71-2.66-4.87-4.67-1.16-2.01-1.73-4.33-1.73-6.99v-10.2c0-2.58.58-4.87,1.73-6.86,1.16-1.99,2.78-3.54,4.87-4.64,2.09-1.1,4.51-1.66,7.27-1.66s5.18.55,7.29,1.66c2.11,1.1,3.74,2.65,4.9,4.64,1.16,1.99,1.73,4.28,1.73,6.86v10.2c0,2.65-.58,4.98-1.73,6.99-1.16,2.01-2.79,3.56-4.9,4.67-2.11,1.1-4.54,1.66-7.29,1.66s-5.18-.55-7.27-1.66ZM707.07,142.35c1-1.05,1.5-2.46,1.5-4.23v-10.56c0-1.73-.5-3.14-1.5-4.21-1-1.07-2.32-1.61-3.95-1.61s-2.9.54-3.9,1.61c-1,1.07-1.5,2.47-1.5,4.21v10.56c0,1.77.5,3.18,1.5,4.23,1,1.05,2.3,1.58,3.9,1.58s2.95-.53,3.95-1.58Z"/>
    <path class="st1" d="M739.88,150.15l-6.02-13.56c-.07-.14-.17-.2-.31-.2h-3.37c-.17,0-.25.09-.25.25v13.36c0,.17-.06.31-.18.43-.12.12-.26.18-.43.18h-7.24c-.17,0-.31-.06-.43-.18-.12-.12-.18-.26-.18-.43v-34.47c0-.17.06-.31.18-.43.12-.12.26-.18.43-.18h15.15c2.24,0,4.21.46,5.92,1.38,1.7.92,3.02,2.22,3.95,3.9.93,1.68,1.4,3.61,1.4,5.79s-.56,4.25-1.68,5.92c-1.12,1.67-2.69,2.87-4.69,3.62-.17.07-.22.19-.15.36l6.73,14.02c.07.14.1.24.1.31,0,.27-.19.41-.56.41h-7.65c-.34,0-.58-.15-.71-.46ZM729.94,122.41v7.24c0,.17.08.25.25.25h5.66c1.26,0,2.28-.35,3.06-1.04s1.17-1.62,1.17-2.78-.39-2.14-1.17-2.86-1.8-1.07-3.06-1.07h-5.66c-.17,0-.25.09-.25.25Z"/>
    <path class="st1" d="M752.96,150.43c-.12-.12-.18-.26-.18-.43v-34.47c0-.17.06-.31.18-.43.12-.12.26-.18.43-.18h7.24c.17,0,.31.06.43.18.12.12.18.26.18.43v34.47c0,.17-.06.31-.18.43-.12.12-.26.18-.43.18h-7.24c-.17,0-.31-.06-.43-.18Z"/>
    <path class="st1" d="M791.47,121.97c-.12.12-.26.18-.43.18h-16.01c-.17,0-.25.09-.25.25v6.27c0,.17.08.25.25.25h10.25c.17,0,.31.06.43.18.12.12.18.26.18.43v5.97c0,.17-.06.31-.18.43-.12.12-.26.18-.43.18h-10.25c-.17,0-.25.08-.25.25v6.73c0,.17.08.25.25.25h16.01c.17,0,.31.06.43.18.12.12.18.26.18.43v6.02c0,.17-.06.31-.18.43-.12.12-.26.18-.43.18h-24.12c-.17,0-.31-.06-.43-.18-.12-.12-.18-.26-.18-.43v-34.47c0-.17.06-.31.18-.43.12-.12.26-.18.43-.18h24.12c.17,0,.31.06.43.18.12.12.18.26.18.43v6.02c0,.17-.06.31-.18.43Z"/>
    <path class="st1" d="M801.31,149.66c-2.09-.9-3.71-2.19-4.84-3.88-1.14-1.68-1.71-3.63-1.71-5.84v-.97c0-.17.06-.31.18-.43s.26-.18.43-.18h7.09c.17,0,.31.06.43.18s.18.26.18.43v.61c0,1.12.56,2.1,1.68,2.93,1.12.83,2.63,1.25,4.54,1.25,1.5,0,2.6-.32,3.31-.97.71-.65,1.07-1.39,1.07-2.24,0-.68-.21-1.23-.64-1.66-.43-.42-.99-.78-1.71-1.07-.71-.29-1.82-.69-3.32-1.2-.2-.1-.41-.18-.61-.23-.2-.05-.39-.11-.56-.18-2.21-.71-4.13-1.49-5.76-2.32-1.63-.83-3.03-1.99-4.18-3.47-1.16-1.48-1.73-3.31-1.73-5.48s.55-3.95,1.66-5.53c1.1-1.58,2.64-2.8,4.62-3.65,1.97-.85,4.2-1.27,6.68-1.27,2.62,0,4.97.48,7.06,1.43,2.09.95,3.73,2.29,4.92,4.03,1.19,1.73,1.79,3.72,1.79,5.97v.71c0,.17-.06.31-.18.43-.12.12-.26.18-.43.18h-7.09c-.17,0-.31-.06-.43-.18-.12-.12-.18-.26-.18-.43v-.36c0-1.19-.53-2.24-1.58-3.16s-2.46-1.38-4.23-1.38c-1.33,0-2.36.27-3.11.82-.75.54-1.12,1.31-1.12,2.29,0,.75.24,1.37.71,1.86.48.49,1.21.95,2.22,1.38,1,.43,2.54.98,4.62,1.66,2.38.82,4.23,1.53,5.56,2.14,1.33.61,2.58,1.61,3.75,2.98s1.76,3.19,1.76,5.43-.56,4.11-1.68,5.71c-1.12,1.6-2.7,2.83-4.72,3.7-2.02.87-4.38,1.3-7.06,1.3-2.82,0-5.28-.45-7.37-1.35Z"/>
    <path class="st1" d="M31.17,211.62c-.12-.12-.18-.26-.18-.43v-34.47c0-.17.06-.31.18-.43s.26-.18.43-.18h7.24c.17,0,.31.06.43.18.12.12.18.26.18.43v34.47c0,.17-.06.31-.18.43-.12.12-.26.18-.43.18h-7.24c-.17,0-.31-.06-.43-.18Z"/>
    <path class="st1" d="M64.93,176.28c.12-.12.26-.18.43-.18h7.24c.17,0,.31.06.43.18.12.12.18.26.18.43v34.47c0,.17-.06.31-.18.43s-.26.18-.43.18h-6.94c-.34,0-.58-.14-.71-.41l-11.73-19.48c-.07-.1-.14-.14-.2-.13-.07.02-.1.09-.1.23l.05,19.17c0,.17-.06.31-.18.43-.12.12-.26.18-.43.18h-7.24c-.17,0-.31-.06-.43-.18-.12-.12-.18-.26-.18-.43v-34.47c0-.17.06-.31.18-.43s.26-.18.43-.18h6.99c.34,0,.58.14.71.41l11.68,19.43c.07.1.14.15.2.13.07-.02.1-.09.1-.23l-.05-19.12c0-.17.06-.31.18-.43Z"/>
    <path class="st1" d="M111.05,211.29l-1.33-4.54c-.07-.14-.15-.2-.25-.2h-11.63c-.1,0-.19.07-.25.2l-1.33,4.54c-.1.34-.34.51-.71.51h-7.8c-.2,0-.36-.06-.46-.18-.1-.12-.12-.3-.05-.54l10.91-34.47c.1-.34.32-.51.66-.51h9.64c.34,0,.56.17.66.51l10.96,34.47c.03.07.05.15.05.25,0,.31-.19.46-.56.46h-7.8c-.37,0-.61-.17-.71-.51ZM99.83,200.02h7.6c.2,0,.27-.1.2-.31l-3.88-13.11c-.03-.14-.09-.2-.15-.18-.07.02-.12.08-.15.18l-3.82,13.11c-.03.2.03.31.2.31Z"/>
    <path class="st1" d="M139.63,210.86c-2.09-.9-3.71-2.19-4.84-3.88-1.14-1.68-1.71-3.63-1.71-5.84v-.97c0-.17.06-.31.18-.43.12-.12.26-.18.43-.18h7.09c.17,0,.31.06.43.18.12.12.18.26.18.43v.61c0,1.12.56,2.1,1.68,2.93,1.12.83,2.63,1.25,4.54,1.25,1.5,0,2.6-.32,3.31-.97.71-.65,1.07-1.39,1.07-2.24,0-.68-.21-1.23-.64-1.66-.43-.42-.99-.78-1.71-1.07-.71-.29-1.82-.69-3.31-1.2-.2-.1-.41-.18-.61-.23-.2-.05-.39-.11-.56-.18-2.21-.71-4.13-1.49-5.76-2.32-1.63-.83-3.03-1.99-4.18-3.47s-1.73-3.31-1.73-5.48.55-3.95,1.66-5.53c1.1-1.58,2.64-2.8,4.61-3.65,1.97-.85,4.2-1.27,6.68-1.27,2.62,0,4.97.48,7.06,1.43,2.09.95,3.73,2.29,4.92,4.03,1.19,1.73,1.79,3.72,1.79,5.97v.71c0,.17-.06.31-.18.43s-.26.18-.43.18h-7.09c-.17,0-.31-.06-.43-.18-.12-.12-.18-.26-.18-.43v-.36c0-1.19-.53-2.24-1.58-3.16-1.05-.92-2.47-1.38-4.23-1.38-1.33,0-2.36.27-3.11.82-.75.54-1.12,1.31-1.12,2.29,0,.75.24,1.37.71,1.86.48.49,1.22.95,2.22,1.38,1,.43,2.54.98,4.62,1.66,2.38.82,4.23,1.53,5.56,2.14,1.33.61,2.58,1.61,3.75,2.98s1.76,3.19,1.76,5.43-.56,4.11-1.68,5.71c-1.12,1.6-2.69,2.83-4.72,3.7-2.02.87-4.38,1.3-7.06,1.3-2.82,0-5.28-.45-7.37-1.35Z"/>
    <path class="st1" d="M164.77,211.62c-.12-.12-.18-.26-.18-.43v-34.47c0-.17.06-.31.18-.43s.26-.18.43-.18h7.24c.17,0,.31.06.43.18.12.12.18.26.18.43v34.47c0,.17-.06.31-.18.43-.12.12-.26.18-.43.18h-7.24c-.17,0-.31-.06-.43-.18Z"/>
    <path class="st1" d="M201.72,176.1h7.19c.17,0,.31.06.43.18.12.12.18.26.18.43v34.47c0,.17-.06.31-.18.43s-.26.18-.43.18h-7.24c-.17,0-.31-.06-.43-.18-.12-.12-.18-.26-.18-.43v-20.5c0-.14-.03-.2-.1-.2s-.14.05-.2.15l-4.39,7.04c-.14.27-.37.41-.71.41h-3.62c-.34,0-.58-.14-.71-.41l-4.44-7.09c-.07-.1-.14-.15-.2-.15s-.1.07-.1.2v20.55c0,.17-.06.31-.18.43-.12.12-.26.18-.43.18h-7.24c-.17,0-.31-.06-.43-.18-.12-.12-.18-.26-.18-.43v-34.47c0-.17.06-.31.18-.43s.26-.18.43-.18h7.19c.31,0,.54.14.71.41l7.09,11.12c.1.2.2.2.31,0l6.99-11.12c.14-.27.37-.41.71-.41Z"/>
    <path class="st1" d="M235.86,177.53c1.79.95,3.16,2.29,4.13,4,.97,1.72,1.45,3.7,1.45,5.94s-.5,4.17-1.5,5.86c-1,1.7-2.42,3.01-4.26,3.93-1.84.92-3.96,1.38-6.37,1.38h-6.22c-.17,0-.25.09-.25.25v12.29c0,.17-.06.31-.18.43s-.26.18-.43.18h-7.24c-.17,0-.31-.06-.43-.18-.12-.12-.18-.26-.18-.43v-34.47c0-.17.06-.31.18-.43s.26-.18.43-.18h14.74c2.31,0,4.36.48,6.14,1.43ZM231.73,190.74c.87-.78,1.3-1.8,1.3-3.06s-.43-2.34-1.3-3.14c-.87-.8-2-1.2-3.39-1.2h-5.25c-.17,0-.25.09-.25.25v8.06c0,.17.08.25.25.25h5.25c1.39,0,2.52-.39,3.39-1.17Z"/>
    <path class="st1" d="M245.19,211.62c-.12-.12-.18-.26-.18-.43v-34.47c0-.17.06-.31.18-.43s.26-.18.43-.18h7.24c.17,0,.31.06.43.18.12.12.18.26.18.43v27.59c0,.17.08.25.25.25h16.27c.17,0,.31.06.43.18.12.12.18.26.18.43v6.02c0,.17-.06.31-.18.43-.12.12-.26.18-.43.18h-24.38c-.17,0-.31-.06-.43-.18Z"/>
    <path class="st1" d="M299.4,183.17c-.12.12-.26.18-.43.18h-16.01c-.17,0-.25.09-.25.25v6.27c0,.17.08.25.25.25h10.25c.17,0,.31.06.43.18.12.12.18.26.18.43v5.97c0,.17-.06.31-.18.43s-.26.18-.43.18h-10.25c-.17,0-.25.08-.25.25v6.73c0,.17.08.25.25.25h16.01c.17,0,.31.06.43.18.12.12.18.26.18.43v6.02c0,.17-.06.31-.18.43s-.26.18-.43.18h-24.12c-.17,0-.31-.06-.43-.18-.12-.12-.18-.26-.18-.43v-34.47c0-.17.06-.31.18-.43s.26-.18.43-.18h24.12c.17,0,.31.06.43.18.12.12.18.26.18.43v6.02c0,.17-.06.31-.18.43Z"/>
    <path class="st1" d="M336.44,211.29l-1.33-4.54c-.07-.14-.15-.2-.25-.2h-11.63c-.1,0-.19.07-.25.2l-1.33,4.54c-.1.34-.34.51-.71.51h-7.8c-.2,0-.36-.06-.46-.18-.1-.12-.12-.3-.05-.54l10.91-34.47c.1-.34.32-.51.66-.51h9.64c.34,0,.56.17.66.51l10.96,34.47c.03.07.05.15.05.25,0,.31-.19.46-.56.46h-7.8c-.37,0-.61-.17-.71-.51ZM325.23,200.02h7.6c.2,0,.27-.1.2-.31l-3.88-13.11c-.03-.14-.09-.2-.15-.18-.07.02-.12.08-.15.18l-3.82,13.11c-.03.2.03.31.2.31Z"/>
    <path class="st1" d="M369.67,176.28c.12-.12.26-.18.43-.18h7.24c.17,0,.31.06.43.18.12.12.18.26.18.43v34.47c0,.17-.06.31-.18.43s-.26.18-.43.18h-6.94c-.34,0-.58-.14-.71-.41l-11.73-19.48c-.07-.1-.14-.14-.2-.13-.07.02-.1.09-.1.23l.05,19.17c0,.17-.06.31-.18.43-.12.12-.26.18-.43.18h-7.24c-.17,0-.31-.06-.43-.18-.12-.12-.18-.26-.18-.43v-34.47c0-.17.06-.31.18-.43s.26-.18.43-.18h6.99c.34,0,.58.14.71.41l11.68,19.43c.07.1.14.15.2.13.07-.02.1-.09.1-.23l-.05-19.12c0-.17.06-.31.18-.43Z"/>
    <path class="st1" d="M383.03,211.62c-.12-.12-.18-.26-.18-.43v-34.47c0-.17.06-.31.18-.43s.26-.18.43-.18h13c2.65,0,5,.46,7.04,1.38,2.04.92,3.62,2.23,4.74,3.93,1.12,1.7,1.68,3.66,1.68,5.86v13.36c0,2.21-.56,4.17-1.68,5.86-1.12,1.7-2.7,3.01-4.74,3.93-2.04.92-4.39,1.38-7.04,1.38h-13c-.17,0-.31-.06-.43-.18ZM391.57,204.56h5.25c1.36,0,2.46-.48,3.31-1.45.85-.97,1.29-2.27,1.33-3.9v-10.5c0-1.63-.43-2.93-1.3-3.9-.87-.97-2-1.45-3.39-1.45h-5.2c-.17,0-.25.09-.25.25v20.7c0,.17.08.25.25.25Z"/>
    <path class="st1" d="M449.73,183.17c-.12.12-.26.18-.43.18h-16.01c-.17,0-.25.09-.25.25v6.27c0,.17.08.25.25.25h10.25c.17,0,.31.06.43.18.12.12.18.26.18.43v5.97c0,.17-.06.31-.18.43s-.26.18-.43.18h-10.25c-.17,0-.25.08-.25.25v6.73c0,.17.08.25.25.25h16.01c.17,0,.31.06.43.18.12.12.18.26.18.43v6.02c0,.17-.06.31-.18.43s-.26.18-.43.18h-24.12c-.17,0-.31-.06-.43-.18-.12-.12-.18-.26-.18-.43v-34.47c0-.17.06-.31.18-.43s.26-.18.43-.18h24.12c.17,0,.31.06.43.18.12.12.18.26.18.43v6.02c0,.17-.06.31-.18.43Z"/>
    <path class="st1" d="M479.1,183.17c-.12.12-.26.18-.43.18h-15.96c-.17,0-.25.09-.25.25v6.27c0,.17.08.25.25.25h10.25c.17,0,.31.06.43.18.12.12.18.26.18.43v5.97c0,.17-.06.31-.18.43-.12.12-.26.18-.43.18h-10.25c-.17,0-.25.08-.25.25v13.62c0,.17-.06.31-.18.43-.12.12-.26.18-.43.18h-7.24c-.17,0-.31-.06-.43-.18-.12-.12-.18-.26-.18-.43v-34.47c0-.17.06-.31.18-.43.12-.12.26-.18.43-.18h24.07c.17,0,.31.06.43.18.12.12.18.26.18.43v6.02c0,.17-.06.31-.18.43Z"/>
    <path class="st1" d="M507.5,183.17c-.12.12-.26.18-.43.18h-15.96c-.17,0-.25.09-.25.25v6.27c0,.17.08.25.25.25h10.25c.17,0,.31.06.43.18.12.12.18.26.18.43v5.97c0,.17-.06.31-.18.43-.12.12-.26.18-.43.18h-10.25c-.17,0-.25.08-.25.25v13.62c0,.17-.06.31-.18.43-.12.12-.26.18-.43.18h-7.24c-.17,0-.31-.06-.43-.18-.12-.12-.18-.26-.18-.43v-34.47c0-.17.06-.31.18-.43.12-.12.26-.18.43-.18h24.07c.17,0,.31.06.43.18.12.12.18.26.18.43v6.02c0,.17-.06.31-.18.43Z"/>
    <path class="st1" d="M535.96,183.17c-.12.12-.26.18-.43.18h-16.01c-.17,0-.25.09-.25.25v6.27c0,.17.08.25.25.25h10.25c.17,0,.31.06.43.18.12.12.18.26.18.43v5.97c0,.17-.06.31-.18.43-.12.12-.26.18-.43.18h-10.25c-.17,0-.25.08-.25.25v6.73c0,.17.08.25.25.25h16.01c.17,0,.31.06.43.18.12.12.18.26.18.43v6.02c0,.17-.06.31-.18.43-.12.12-.26.18-.43.18h-24.12c-.17,0-.31-.06-.43-.18-.12-.12-.18-.26-.18-.43v-34.47c0-.17.06-.31.18-.43.12-.12.26-.18.43-.18h24.12c.17,0,.31.06.43.18.12.12.18.26.18.43v6.02c0,.17-.06.31-.18.43Z"/>
    <path class="st1" d="M546.16,210.63c-2.06-1.05-3.65-2.55-4.79-4.49-1.14-1.94-1.71-4.18-1.71-6.73v-11.02c0-2.52.57-4.73,1.71-6.65,1.14-1.92,2.74-3.41,4.79-4.46,2.06-1.05,4.44-1.58,7.17-1.58s5.11.5,7.17,1.5c2.06,1,3.65,2.41,4.79,4.23,1.14,1.82,1.71,3.92,1.71,6.3,0,.17-.06.31-.18.41-.12.1-.26.15-.43.15l-7.24.46c-.41,0-.61-.19-.61-.56,0-1.6-.48-2.87-1.43-3.82-.95-.95-2.21-1.43-3.77-1.43s-2.82.48-3.77,1.45c-.95.97-1.43,2.24-1.43,3.8v11.58c0,1.56.48,2.82,1.43,3.77.95.95,2.21,1.43,3.77,1.43s2.82-.48,3.77-1.43,1.43-2.21,1.43-3.77c0-.37.2-.56.61-.56l7.24.36c.17,0,.31.05.43.15.12.1.18.22.18.36,0,2.41-.57,4.54-1.71,6.37-1.14,1.84-2.74,3.26-4.79,4.26-2.06,1-4.45,1.5-7.17,1.5s-5.11-.53-7.17-1.58Z"/>
    <path class="st1" d="M597.1,176.28c.12.12.18.26.18.43v6.07c0,.17-.06.31-.18.43-.12.12-.26.18-.43.18h-8.92c-.17,0-.25.09-.25.26v27.54c0,.17-.06.31-.18.43-.12.12-.26.18-.43.18h-7.24c-.17,0-.31-.06-.43-.18-.12-.12-.18-.26-.18-.43v-27.54c0-.17-.09-.26-.25-.26h-8.62c-.17,0-.32-.06-.43-.18-.12-.12-.18-.26-.18-.43v-6.07c0-.17.06-.31.18-.43.12-.12.26-.18.43-.18h26.52c.17,0,.31.06.43.18Z"/>
    <path class="st1" d="M601.13,211.62c-.12-.12-.18-.26-.18-.43v-34.47c0-.17.06-.31.18-.43.12-.12.26-.18.43-.18h7.24c.17,0,.31.06.43.18.12.12.18.26.18.43v34.47c0,.17-.06.31-.18.43-.12.12-.26.18-.43.18h-7.24c-.17,0-.31-.06-.43-.18Z"/>
    <path class="st1" d="M623.54,211.29l-10.3-34.47-.05-.2c0-.34.19-.51.56-.51h7.8c.37,0,.61.17.71.51l5.86,23.2c.03.1.08.15.15.15s.12-.05.15-.15l5.76-23.2c.1-.34.34-.51.71-.51h7.65c.2,0,.36.07.46.2.1.14.12.31.05.51l-10.45,34.47c-.1.34-.32.51-.66.51h-7.75c-.34,0-.56-.17-.66-.51Z"/>
    <path class="st1" d="M671.81,183.17c-.12.12-.26.18-.43.18h-16.01c-.17,0-.25.09-.25.25v6.27c0,.17.08.25.25.25h10.25c.17,0,.31.06.43.18.12.12.18.26.18.43v5.97c0,.17-.06.31-.18.43-.12.12-.26.18-.43.18h-10.25c-.17,0-.25.08-.25.25v6.73c0,.17.08.25.25.25h16.01c.17,0,.31.06.43.18.12.12.18.26.18.43v6.02c0,.17-.06.31-.18.43-.12.12-.26.18-.43.18h-24.12c-.17,0-.31-.06-.43-.18-.12-.12-.18-.26-.18-.43v-34.47c0-.17.06-.31.18-.43.12-.12.26-.18.43-.18h24.12c.17,0,.31.06.43.18.12.12.18.26.18.43v6.02c0,.17-.06.31-.18.43Z"/>
    <path class="st1" d="M709.88,176.1h7.19c.17,0,.31.06.43.18.12.12.18.26.18.43v34.47c0,.17-.06.31-.18.43-.12.12-.26.18-.43.18h-7.24c-.17,0-.32-.06-.43-.18-.12-.12-.18-.26-.18-.43v-20.5c0-.14-.03-.2-.1-.2s-.14.05-.2.15l-4.39,7.04c-.14.27-.37.41-.71.41h-3.62c-.34,0-.58-.14-.71-.41l-4.44-7.09c-.07-.1-.14-.15-.2-.15s-.1.07-.1.2v20.55c0,.17-.06.31-.18.43-.12.12-.26.18-.43.18h-7.24c-.17,0-.31-.06-.43-.18-.12-.12-.18-.26-.18-.43v-34.47c0-.17.06-.31.18-.43.12-.12.26-.18.43-.18h7.19c.31,0,.54.14.71.41l7.09,11.12c.1.2.2.2.31,0l6.99-11.12c.14-.27.37-.41.71-.41Z"/>
    <path class="st1" d="M745.27,211.29l-1.33-4.54c-.07-.14-.15-.2-.25-.2h-11.63c-.1,0-.19.07-.25.2l-1.33,4.54c-.1.34-.34.51-.71.51h-7.8c-.2,0-.36-.06-.46-.18-.1-.12-.12-.3-.05-.54l10.91-34.47c.1-.34.32-.51.66-.51h9.64c.34,0,.56.17.66.51l10.96,34.47c.03.07.05.15.05.25,0,.31-.19.46-.56.46h-7.8c-.38,0-.61-.17-.71-.51ZM734.05,200.02h7.6c.2,0,.27-.1.2-.31l-3.88-13.11c-.03-.14-.08-.2-.15-.18-.07.02-.12.08-.15.18l-3.82,13.11c-.03.2.03.31.2.31Z"/>
    <path class="st1" d="M778.49,176.28c.12-.12.26-.18.43-.18h7.24c.17,0,.31.06.43.18.12.12.18.26.18.43v34.47c0,.17-.06.31-.18.43-.12.12-.26.18-.43.18h-6.94c-.34,0-.58-.14-.71-.41l-11.73-19.48c-.07-.1-.14-.14-.2-.13-.07.02-.1.09-.1.23l.05,19.17c0,.17-.06.31-.18.43-.12.12-.26.18-.43.18h-7.24c-.17,0-.31-.06-.43-.18-.12-.12-.18-.26-.18-.43v-34.47c0-.17.06-.31.18-.43.12-.12.26-.18.43-.18h6.99c.34,0,.58.14.71.41l11.68,19.43c.07.1.14.15.2.13.07-.02.1-.09.1-.23l-.05-19.12c0-.17.06-.31.18-.43Z"/>
    <path class="st1" d="M812.09,176.28c.12-.12.26-.18.43-.18h7.24c.17,0,.31.06.43.18.12.12.18.26.18.43v34.47c0,.17-.06.31-.18.43-.12.12-.26.18-.43.18h-6.94c-.34,0-.58-.14-.71-.41l-11.73-19.48c-.07-.1-.14-.14-.2-.13-.07.02-.1.09-.1.23l.05,19.17c0,.17-.06.31-.18.43-.12.12-.26.18-.43.18h-7.24c-.17,0-.31-.06-.43-.18-.12-.12-.18-.26-.18-.43v-34.47c0-.17.06-.31.18-.43.12-.12.26-.18.43-.18h6.99c.34,0,.58.14.71.41l11.68,19.43c.07.1.14.15.2.13.07-.02.1-.09.1-.23l-.05-19.12c0-.17.06-.31.18-.43Z"/>
    <path class="st1" d="M850.44,183.17c-.12.12-.26.18-.43.18h-16.01c-.17,0-.25.09-.25.25v6.27c0,.17.08.25.25.25h10.25c.17,0,.31.06.43.18.12.12.18.26.18.43v5.97c0,.17-.06.31-.18.43-.12.12-.26.18-.43.18h-10.25c-.17,0-.25.08-.25.25v6.73c0,.17.08.25.25.25h16.01c.17,0,.31.06.43.18.12.12.18.26.18.43v6.02c0,.17-.06.31-.18.43-.12.12-.26.18-.43.18h-24.12c-.17,0-.31-.06-.43-.18-.12-.12-.18-.26-.18-.43v-34.47c0-.17.06-.31.18-.43.12-.12.26-.18.43-.18h24.12c.17,0,.31.06.43.18.12.12.18.26.18.43v6.02c0,.17-.06.31-.18.43Z"/>
    <path class="st1" d="M873.11,211.34l-6.02-13.56c-.07-.14-.17-.2-.31-.2h-3.37c-.17,0-.25.09-.25.25v13.36c0,.17-.06.31-.18.43-.12.12-.26.18-.43.18h-7.24c-.17,0-.31-.06-.43-.18-.12-.12-.18-.26-.18-.43v-34.47c0-.17.06-.31.18-.43.12-.12.26-.18.43-.18h15.15c2.24,0,4.21.46,5.92,1.38,1.7.92,3.02,2.22,3.95,3.9.93,1.68,1.4,3.61,1.4,5.79s-.56,4.25-1.68,5.92c-1.12,1.67-2.69,2.87-4.69,3.62-.17.07-.22.19-.15.36l6.73,14.02c.07.14.1.24.1.31,0,.27-.19.41-.56.41h-7.65c-.34,0-.58-.15-.71-.46ZM863.16,183.6v7.24c0,.17.08.25.25.25h5.66c1.26,0,2.28-.35,3.06-1.04s1.17-1.62,1.17-2.78-.39-2.14-1.17-2.86-1.8-1.07-3.06-1.07h-5.66c-.17,0-.25.09-.25.25Z"/>
    <path class="st1" d="M249.52,272.54l-6.02-13.56c-.07-.14-.17-.2-.31-.2h-3.37c-.17,0-.25.08-.25.25v13.36c0,.17-.06.32-.18.43-.12.12-.26.18-.43.18h-7.24c-.17,0-.31-.06-.43-.18-.12-.12-.18-.26-.18-.43v-34.47c0-.17.06-.31.18-.43s.26-.18.43-.18h15.15c2.24,0,4.21.46,5.92,1.38,1.7.92,3.02,2.22,3.95,3.9.93,1.68,1.4,3.61,1.4,5.79s-.56,4.25-1.68,5.92c-1.12,1.67-2.69,2.87-4.69,3.62-.17.07-.22.19-.15.36l6.73,14.02c.07.14.1.24.1.31,0,.27-.19.41-.56.41h-7.65c-.34,0-.58-.15-.71-.46ZM239.58,244.79v7.24c0,.17.08.25.25.25h5.66c1.26,0,2.28-.35,3.06-1.04.78-.7,1.17-1.62,1.17-2.78s-.39-2.14-1.17-2.86c-.78-.71-1.8-1.07-3.06-1.07h-5.66c-.17,0-.25.09-.25.25Z"/>
    <path class="st1" d="M287.59,244.36c-.12.12-.26.18-.43.18h-16.01c-.17,0-.25.09-.25.25v6.27c0,.17.08.25.25.25h10.25c.17,0,.31.06.43.18.12.12.18.26.18.43v5.97c0,.17-.06.32-.18.43-.12.12-.26.18-.43.18h-10.25c-.17,0-.25.08-.25.25v6.73c0,.17.08.25.25.25h16.01c.17,0,.31.06.43.18.12.12.18.26.18.43v6.02c0,.17-.06.32-.18.43-.12.12-.26.18-.43.18h-24.12c-.17,0-.31-.06-.43-.18-.12-.12-.18-.26-.18-.43v-34.47c0-.17.06-.31.18-.43s.26-.18.43-.18h24.12c.17,0,.31.06.43.18.12.12.18.26.18.43v6.02c0,.17-.06.31-.18.43Z"/>
    <path class="st1" d="M315.46,237.3h7.19c.17,0,.31.06.43.18.12.12.18.26.18.43v34.47c0,.17-.06.32-.18.43-.12.12-.26.18-.43.18h-7.24c-.17,0-.31-.06-.43-.18-.12-.12-.18-.26-.18-.43v-20.5c0-.13-.03-.2-.1-.2s-.14.05-.2.15l-4.39,7.04c-.14.27-.37.41-.71.41h-3.62c-.34,0-.58-.14-.71-.41l-4.44-7.09c-.07-.1-.14-.15-.2-.15s-.1.07-.1.2v20.55c0,.17-.06.32-.18.43-.12.12-.26.18-.43.18h-7.24c-.17,0-.31-.06-.43-.18-.12-.12-.18-.26-.18-.43v-34.47c0-.17.06-.31.18-.43s.26-.18.43-.18h7.19c.31,0,.54.14.71.41l7.09,11.12c.1.2.2.2.31,0l6.99-11.12c.14-.27.37-.41.71-.41Z"/>
    <path class="st1" d="M350.85,272.49l-1.33-4.54c-.07-.13-.15-.2-.25-.2h-11.63c-.1,0-.19.07-.25.2l-1.33,4.54c-.1.34-.34.51-.71.51h-7.8c-.2,0-.36-.06-.46-.18-.1-.12-.12-.3-.05-.54l10.91-34.47c.1-.34.32-.51.66-.51h9.64c.34,0,.56.17.66.51l10.96,34.47c.03.07.05.15.05.25,0,.31-.19.46-.56.46h-7.8c-.37,0-.61-.17-.71-.51ZM339.63,261.21h7.6c.2,0,.27-.1.2-.31l-3.88-13.11c-.03-.14-.09-.2-.15-.18-.07.02-.12.08-.15.18l-3.82,13.11c-.03.2.03.31.2.31Z"/>
    <path class="st1" d="M363.83,272.82c-.12-.12-.18-.26-.18-.43v-34.47c0-.17.06-.31.18-.43s.26-.18.43-.18h7.24c.17,0,.31.06.43.18.12.12.18.26.18.43v34.47c0,.17-.06.32-.18.43-.12.12-.26.18-.43.18h-7.24c-.17,0-.31-.06-.43-.18Z"/>
    <path class="st1" d="M397.59,237.48c.12-.12.26-.18.43-.18h7.24c.17,0,.31.06.43.18.12.12.18.26.18.43v34.47c0,.17-.06.32-.18.43-.12.12-.26.18-.43.18h-6.94c-.34,0-.58-.14-.71-.41l-11.73-19.48c-.07-.1-.14-.14-.2-.13-.07.02-.1.09-.1.23l.05,19.17c0,.17-.06.32-.18.43-.12.12-.26.18-.43.18h-7.24c-.17,0-.31-.06-.43-.18-.12-.12-.18-.26-.18-.43v-34.47c0-.17.06-.31.18-.43s.26-.18.43-.18h6.99c.34,0,.58.14.71.41l11.68,19.43c.07.1.14.14.2.13.07-.02.1-.09.1-.23l-.05-19.12c0-.17.06-.31.18-.43Z"/>
    <path class="st1" d="M416.5,272.05c-2.09-.9-3.71-2.19-4.84-3.88-1.14-1.68-1.71-3.63-1.71-5.84v-.97c0-.17.06-.31.18-.43.12-.12.26-.18.43-.18h7.09c.17,0,.31.06.43.18.12.12.18.26.18.43v.61c0,1.12.56,2.1,1.68,2.93,1.12.83,2.63,1.25,4.54,1.25,1.5,0,2.6-.32,3.31-.97s1.07-1.39,1.07-2.24c0-.68-.21-1.23-.64-1.66-.43-.42-.99-.78-1.71-1.07-.71-.29-1.82-.69-3.31-1.2-.2-.1-.41-.18-.61-.23-.2-.05-.39-.11-.56-.18-2.21-.71-4.13-1.49-5.76-2.32-1.63-.83-3.03-1.99-4.18-3.47-1.16-1.48-1.73-3.3-1.73-5.48s.55-3.95,1.66-5.53c1.1-1.58,2.64-2.8,4.61-3.65,1.97-.85,4.2-1.27,6.68-1.27,2.62,0,4.97.48,7.06,1.43,2.09.95,3.73,2.29,4.92,4.03,1.19,1.73,1.79,3.72,1.79,5.97v.71c0,.17-.06.31-.18.43-.12.12-.26.18-.43.18h-7.09c-.17,0-.31-.06-.43-.18-.12-.12-.18-.26-.18-.43v-.36c0-1.19-.53-2.24-1.58-3.16-1.05-.92-2.47-1.38-4.23-1.38-1.33,0-2.36.27-3.11.82-.75.54-1.12,1.31-1.12,2.29,0,.75.24,1.37.71,1.86.48.49,1.22.95,2.22,1.38,1,.43,2.54.98,4.62,1.66,2.38.82,4.23,1.53,5.56,2.14,1.33.61,2.58,1.61,3.75,2.98,1.17,1.38,1.76,3.19,1.76,5.43s-.56,4.11-1.68,5.71c-1.12,1.6-2.69,2.83-4.72,3.7-2.02.87-4.38,1.3-7.06,1.3-2.82,0-5.28-.45-7.37-1.35Z"/>
    <path class="st1" d="M457.61,271.82c-2.06-1.05-3.65-2.55-4.79-4.49-1.14-1.94-1.71-4.18-1.71-6.73v-11.02c0-2.51.57-4.73,1.71-6.65,1.14-1.92,2.74-3.41,4.79-4.46,2.06-1.05,4.44-1.58,7.17-1.58s5.11.5,7.17,1.5c2.06,1,3.65,2.41,4.79,4.23,1.14,1.82,1.71,3.92,1.71,6.3,0,.17-.06.31-.18.41-.12.1-.26.15-.43.15l-7.24.46c-.41,0-.61-.19-.61-.56,0-1.6-.48-2.87-1.43-3.82-.95-.95-2.21-1.43-3.77-1.43s-2.82.48-3.77,1.45c-.95.97-1.43,2.24-1.43,3.8v11.58c0,1.56.48,2.82,1.43,3.77.95.95,2.21,1.43,3.77,1.43s2.82-.48,3.77-1.43c.95-.95,1.43-2.21,1.43-3.77,0-.37.2-.56.61-.56l7.24.36c.17,0,.31.05.43.15.12.1.18.22.18.36,0,2.41-.57,4.54-1.71,6.37-1.14,1.84-2.74,3.26-4.79,4.26-2.06,1-4.45,1.5-7.17,1.5s-5.11-.53-7.17-1.58Z"/>
    <path class="st1" d="M507.89,244.36c-.12.12-.26.18-.43.18h-16.01c-.17,0-.25.09-.25.25v6.27c0,.17.08.25.25.25h10.25c.17,0,.31.06.43.18.12.12.18.26.18.43v5.97c0,.17-.06.32-.18.43-.12.12-.26.18-.43.18h-10.25c-.17,0-.25.08-.25.25v6.73c0,.17.08.25.25.25h16.01c.17,0,.31.06.43.18.12.12.18.26.18.43v6.02c0,.17-.06.32-.18.43s-.26.18-.43.18h-24.12c-.17,0-.31-.06-.43-.18-.12-.12-.18-.26-.18-.43v-34.47c0-.17.06-.31.18-.43.12-.12.26-.18.43-.18h24.12c.17,0,.31.06.43.18.12.12.18.26.18.43v6.02c0,.17-.06.31-.18.43Z"/>
    <path class="st1" d="M532.57,237.48c.12-.12.26-.18.43-.18h7.24c.17,0,.31.06.43.18.12.12.18.26.18.43v34.47c0,.17-.06.32-.18.43-.12.12-.26.18-.43.18h-6.94c-.34,0-.58-.14-.71-.41l-11.73-19.48c-.07-.1-.14-.14-.2-.13-.07.02-.1.09-.1.23l.05,19.17c0,.17-.06.32-.18.43-.12.12-.26.18-.43.18h-7.24c-.17,0-.31-.06-.43-.18-.12-.12-.18-.26-.18-.43v-34.47c0-.17.06-.31.18-.43.12-.12.26-.18.43-.18h6.99c.34,0,.58.14.71.41l11.68,19.43c.07.1.14.14.2.13.07-.02.1-.09.1-.23l-.05-19.12c0-.17.06-.31.18-.43Z"/>
    <path class="st1" d="M572.14,237.48c.12.12.18.26.18.43v6.07c0,.17-.06.31-.18.43-.12.12-.26.18-.43.18h-8.92c-.17,0-.25.09-.25.26v27.54c0,.17-.06.32-.18.43-.12.12-.26.18-.43.18h-7.24c-.17,0-.31-.06-.43-.18-.12-.12-.18-.26-.18-.43v-27.54c0-.17-.09-.26-.25-.26h-8.62c-.17,0-.32-.06-.43-.18-.12-.12-.18-.26-.18-.43v-6.07c0-.17.06-.31.18-.43.12-.12.26-.18.43-.18h26.52c.17,0,.31.06.43.18Z"/>
    <path class="st1" d="M594.4,272.54l-6.02-13.56c-.07-.14-.17-.2-.31-.2h-3.37c-.17,0-.25.08-.25.25v13.36c0,.17-.06.32-.18.43-.12.12-.26.18-.43.18h-7.24c-.17,0-.31-.06-.43-.18-.12-.12-.18-.26-.18-.43v-34.47c0-.17.06-.31.18-.43.12-.12.26-.18.43-.18h15.15c2.24,0,4.21.46,5.92,1.38,1.7.92,3.02,2.22,3.95,3.9.93,1.68,1.4,3.61,1.4,5.79s-.56,4.25-1.68,5.92c-1.12,1.67-2.69,2.87-4.69,3.62-.17.07-.22.19-.15.36l6.73,14.02c.07.14.1.24.1.31,0,.27-.19.41-.56.41h-7.65c-.34,0-.58-.15-.71-.46ZM584.46,244.79v7.24c0,.17.08.25.25.25h5.66c1.26,0,2.28-.35,3.06-1.04s1.17-1.62,1.17-2.78-.39-2.14-1.17-2.86c-.78-.71-1.8-1.07-3.06-1.07h-5.66c-.17,0-.25.09-.25.25Z"/>
    <path class="st1" d="M630.25,272.49l-1.33-4.54c-.07-.13-.15-.2-.25-.2h-11.63c-.1,0-.19.07-.25.2l-1.33,4.54c-.1.34-.34.51-.71.51h-7.8c-.2,0-.36-.06-.46-.18-.1-.12-.12-.3-.05-.54l10.91-34.47c.1-.34.32-.51.66-.51h9.64c.34,0,.56.17.66.51l10.96,34.47c.03.07.05.15.05.25,0,.31-.19.46-.56.46h-7.8c-.38,0-.61-.17-.71-.51ZM619.03,261.21h7.6c.2,0,.27-.1.2-.31l-3.88-13.11c-.03-.14-.08-.2-.15-.18-.07.02-.12.08-.15.18l-3.82,13.11c-.03.2.03.31.2.31Z"/>
    <path class="st1" d="M643.22,272.82c-.12-.12-.18-.26-.18-.43v-34.47c0-.17.06-.31.18-.43.12-.12.26-.18.43-.18h7.24c.17,0,.31.06.43.18.12.12.18.26.18.43v27.59c0,.17.08.25.25.25h16.27c.17,0,.31.06.43.18.12.12.18.26.18.43v6.02c0,.17-.06.32-.18.43s-.26.18-.43.18h-24.38c-.17,0-.31-.06-.43-.18Z"/>
    <path class="st1" d="M673.11,272.05c-.83-.83-1.25-1.89-1.25-3.19s.42-2.4,1.25-3.21c.83-.82,1.9-1.22,3.19-1.22s2.35.41,3.16,1.22,1.22,1.89,1.22,3.21-.42,2.35-1.25,3.19-1.88,1.25-3.14,1.25-2.35-.42-3.19-1.25Z"/>
  </g>
  <g>
    <path class="st0" d="M39.17,88.9l-1.33-4.54c-.07-.14-.15-.2-.25-.2h-11.63c-.1,0-.19.07-.25.2l-1.33,4.54c-.1.34-.34.51-.71.51h-7.8c-.2,0-.36-.06-.46-.18-.1-.12-.12-.3-.05-.54l10.91-34.47c.1-.34.32-.51.66-.51h9.64c.34,0,.56.17.66.51l10.96,34.47c.03.07.05.15.05.25,0,.31-.19.46-.56.46h-7.8c-.37,0-.61-.17-.71-.51ZM27.96,77.63h7.6c.2,0,.27-.1.2-.31l-3.88-13.11c-.03-.14-.09-.2-.15-.18-.07.02-.12.08-.15.18l-3.82,13.11c-.03.2.03.31.2.31Z"/>
    <path class="st0" d="M489.5,88.9l-1.33-4.54c-.07-.14-.15-.2-.25-.2h-11.63c-.1,0-.19.07-.25.2l-1.33,4.54c-.1.34-.34.51-.71.51h-7.8c-.2,0-.36-.06-.46-.18-.1-.12-.12-.3-.05-.54l10.91-34.47c.1-.34.32-.51.66-.51h9.64c.34,0,.56.17.66.51l10.96,34.47c.03.07.05.15.05.25,0,.31-.19.46-.56.46h-7.8c-.38,0-.61-.17-.71-.51ZM478.29,77.63h7.6c.2,0,.27-.1.2-.31l-3.88-13.11c-.03-.14-.08-.2-.15-.18-.07.02-.12.08-.15.18l-3.82,13.11c-.03.2.03.31.2.31Z"/>
    <path class="st0" d="M532.92,53.9c.12-.12.26-.18.43-.18h7.24c.17,0,.31.06.43.18.12.12.18.26.18.43v34.47c0,.17-.06.31-.18.43-.12.12-.26.18-.43.18h-6.94c-.34,0-.58-.14-.71-.41l-11.73-19.48c-.07-.1-.14-.14-.2-.13-.07.02-.1.09-.1.23l.05,19.17c0,.17-.06.31-.18.43-.12.12-.26.18-.43.18h-7.24c-.17,0-.31-.06-.43-.18-.12-.12-.18-.26-.18-.43v-34.47c0-.17.06-.31.18-.43.12-.12.26-.18.43-.18h6.99c.34,0,.58.14.71.41l11.68,19.43c.07.1.14.15.2.13.07-.02.1-.09.1-.23l-.05-19.12c0-.17.06-.31.18-.43Z"/>
    <path class="st0" d="M571.27,60.78c-.12.12-.26.18-.43.18h-16.01c-.17,0-.25.09-.25.25v6.27c0,.17.08.25.25.25h10.25c.17,0,.31.06.43.18.12.12.18.26.18.43v5.97c0,.17-.06.31-.18.43-.12.12-.26.18-.43.18h-10.25c-.17,0-.25.08-.25.25v6.73c0,.17.08.25.25.25h16.01c.17,0,.31.06.43.18.12.12.18.26.18.43v6.02c0,.17-.06.31-.18.43-.12.12-.26.18-.43.18h-24.12c-.17,0-.31-.06-.43-.18-.12-.12-.18-.26-.18-.43v-34.47c0-.17.06-.31.18-.43.12-.12.26-.18.43-.18h24.12c.17,0,.31.06.43.18.12.12.18.26.18.43v6.02c0,.17-.06.31-.18.43Z"/>
    <path class="st0" d="M583.84,88.9l-9.49-34.52-.05-.2c0-.31.19-.46.56-.46h7.75c.34,0,.56.17.66.51l4.44,18.56c.03.14.08.2.15.2s.12-.07.15-.2l3.98-18.51c.07-.37.29-.56.66-.56h7.09c.34,0,.56.17.66.51l4.44,18.56c.03.14.08.2.15.2s.12-.07.15-.2l4.13-18.51c.07-.37.29-.56.66-.56h7.55c.48,0,.66.22.56.66l-8.62,34.52c-.1.34-.34.51-.71.51h-7.29c-.37,0-.59-.19-.66-.56l-4.44-19.68c-.03-.14-.08-.2-.15-.2s-.12.07-.15.2l-3.98,19.68c-.07.37-.29.56-.66.56h-6.83c-.38,0-.61-.17-.71-.51Z"/>
    <path class="st0" d="M654.47,88.9l-1.33-4.54c-.07-.14-.15-.2-.25-.2h-11.63c-.1,0-.19.07-.25.2l-1.33,4.54c-.1.34-.34.51-.71.51h-7.8c-.2,0-.36-.06-.46-.18-.1-.12-.12-.3-.05-.54l10.91-34.47c.1-.34.32-.51.66-.51h9.64c.34,0,.56.17.66.51l10.96,34.47c.03.07.05.15.05.25,0,.31-.19.46-.56.46h-7.8c-.38,0-.61-.17-.71-.51ZM643.25,77.63h7.6c.2,0,.27-.1.2-.31l-3.88-13.11c-.03-.14-.08-.2-.15-.18-.07.02-.12.08-.15.18l-3.82,13.11c-.03.2.03.31.2.31Z"/>
    <path class="st0" d="M688.61,55.15c1.79.95,3.16,2.29,4.13,4,.97,1.72,1.45,3.7,1.45,5.94s-.5,4.17-1.5,5.86c-1,1.7-2.42,3.01-4.26,3.93-1.83.92-3.96,1.38-6.37,1.38h-6.22c-.17,0-.25.09-.25.25v12.29c0,.17-.06.31-.18.43-.12.12-.26.18-.43.18h-7.24c-.17,0-.32-.06-.43-.18-.12-.12-.18-.26-.18-.43v-34.47c0-.17.06-.31.18-.43.12-.12.26-.18.43-.18h14.74c2.31,0,4.36.48,6.14,1.43ZM684.48,68.35c.87-.78,1.3-1.8,1.3-3.06s-.43-2.34-1.3-3.14c-.87-.8-2-1.2-3.39-1.2h-5.25c-.17,0-.25.09-.25.25v8.06c0,.17.08.25.25.25h5.25c1.39,0,2.52-.39,3.39-1.17Z"/>
    <path class="st0" d="M719.1,55.15c1.79.95,3.16,2.29,4.13,4,.97,1.72,1.45,3.7,1.45,5.94s-.5,4.17-1.5,5.86c-1,1.7-2.42,3.01-4.26,3.93-1.83.92-3.96,1.38-6.37,1.38h-6.22c-.17,0-.25.09-.25.25v12.29c0,.17-.06.31-.18.43-.12.12-.26.18-.43.18h-7.24c-.17,0-.32-.06-.43-.18-.12-.12-.18-.26-.18-.43v-34.47c0-.17.06-.31.18-.43.12-.12.26-.18.43-.18h14.74c2.31,0,4.36.48,6.14,1.43ZM714.97,68.35c.87-.78,1.3-1.8,1.3-3.06s-.43-2.34-1.3-3.14c-.87-.8-2-1.2-3.39-1.2h-5.25c-.17,0-.25.09-.25.25v8.06c0,.17.08.25.25.25h5.25c1.39,0,2.52-.39,3.39-1.17Z"/>
    <path class="st0" d="M746.67,88.95l-6.02-13.56c-.07-.14-.17-.2-.31-.2h-3.37c-.17,0-.25.09-.25.25v13.36c0,.17-.06.31-.18.43-.12.12-.26.18-.43.18h-7.24c-.17,0-.31-.06-.43-.18-.12-.12-.18-.26-.18-.43v-34.47c0-.17.06-.31.18-.43.12-.12.26-.18.43-.18h15.15c2.24,0,4.21.46,5.92,1.38,1.7.92,3.02,2.22,3.95,3.9.93,1.68,1.4,3.61,1.4,5.79s-.56,4.25-1.68,5.92c-1.12,1.67-2.69,2.87-4.69,3.62-.17.07-.22.19-.15.36l6.73,14.02c.07.14.1.24.1.31,0,.27-.19.41-.56.41h-7.65c-.34,0-.58-.15-.71-.46ZM736.72,61.21v7.24c0,.17.08.25.25.25h5.66c1.26,0,2.28-.35,3.06-1.04s1.17-1.62,1.17-2.78-.39-2.14-1.17-2.86-1.8-1.07-3.06-1.07h-5.66c-.17,0-.25.09-.25.25Z"/>
    <path class="st0" d="M765.61,88.32c-2.09-1.1-3.71-2.66-4.87-4.67-1.16-2.01-1.73-4.33-1.73-6.99v-10.2c0-2.58.58-4.87,1.73-6.86,1.16-1.99,2.78-3.54,4.87-4.64,2.09-1.1,4.51-1.66,7.27-1.66s5.18.55,7.29,1.66c2.11,1.1,3.74,2.65,4.9,4.64,1.16,1.99,1.73,4.28,1.73,6.86v10.2c0,2.65-.58,4.98-1.73,6.99-1.16,2.01-2.79,3.56-4.9,4.67-2.11,1.1-4.54,1.66-7.29,1.66s-5.18-.55-7.27-1.66ZM776.83,81.15c1-1.05,1.5-2.46,1.5-4.23v-10.56c0-1.73-.5-3.14-1.5-4.21-1-1.07-2.32-1.61-3.95-1.61s-2.9.54-3.9,1.61c-1,1.07-1.5,2.47-1.5,4.21v10.56c0,1.77.5,3.18,1.5,4.23,1,1.05,2.3,1.58,3.9,1.58s2.95-.53,3.95-1.58Z"/>
    <path class="st0" d="M812.76,88.9l-1.33-4.54c-.07-.14-.15-.2-.25-.2h-11.63c-.1,0-.19.07-.25.2l-1.33,4.54c-.1.34-.34.51-.71.51h-7.8c-.2,0-.36-.06-.46-.18-.1-.12-.12-.3-.05-.54l10.91-34.47c.1-.34.32-.51.66-.51h9.64c.34,0,.56.17.66.51l10.96,34.47c.03.07.05.15.05.25,0,.31-.19.46-.56.46h-7.8c-.38,0-.61-.17-.71-.51ZM801.54,77.63h7.6c.2,0,.27-.1.2-.31l-3.88-13.11c-.03-.14-.08-.2-.15-.18-.07.02-.12.08-.15.18l-3.82,13.11c-.03.2.03.31.2.31Z"/>
    <path class="st0" d="M830.22,88.24c-2.06-1.05-3.65-2.55-4.79-4.49-1.14-1.94-1.71-4.18-1.71-6.73v-11.02c0-2.52.57-4.73,1.71-6.65,1.14-1.92,2.74-3.41,4.79-4.46,2.06-1.05,4.44-1.58,7.17-1.58s5.11.5,7.17,1.5c2.06,1,3.65,2.41,4.79,4.23,1.14,1.82,1.71,3.92,1.71,6.3,0,.17-.06.31-.18.41-.12.1-.26.15-.43.15l-7.24.46c-.41,0-.61-.19-.61-.56,0-1.6-.48-2.87-1.43-3.82-.95-.95-2.21-1.43-3.77-1.43s-2.82.48-3.77,1.45c-.95.97-1.43,2.24-1.43,3.8v11.58c0,1.56.48,2.82,1.43,3.77.95.95,2.21,1.43,3.77,1.43s2.82-.48,3.77-1.43,1.43-2.21,1.43-3.77c0-.37.2-.56.61-.56l7.24.36c.17,0,.31.05.43.15.12.1.18.22.18.36,0,2.41-.57,4.54-1.71,6.37-1.14,1.84-2.74,3.26-4.79,4.26-2.06,1-4.45,1.5-7.17,1.5s-5.11-.53-7.17-1.58Z"/>
    <path class="st0" d="M874.03,53.9c.12-.12.26-.18.43-.18h7.24c.17,0,.31.06.43.18.12.12.18.26.18.43v34.47c0,.17-.06.31-.18.43-.12.12-.26.18-.43.18h-7.24c-.17,0-.32-.06-.43-.18-.12-.12-.18-.26-.18-.43v-13.56c0-.17-.08-.25-.25-.25h-9.54c-.17,0-.25.09-.25.25v13.56c0,.17-.06.31-.18.43-.12.12-.26.18-.43.18h-7.24c-.17,0-.31-.06-.43-.18-.12-.12-.18-.26-.18-.43v-34.47c0-.17.06-.31.18-.43.12-.12.26-.18.43-.18h7.24c.17,0,.31.06.43.18.12.12.18.26.18.43v13.16c0,.17.08.25.25.25h9.54c.17,0,.25-.08.25-.25v-13.16c0-.17.06-.31.18-.43Z"/>
    <path class="st0" d="M886.03,94.1l1.53-12.24c.03-.37.24-.56.61-.56h6.27c.44,0,.61.22.51.66l-3.21,12.29c-.1.34-.34.51-.71.51h-4.44c-.44,0-.63-.22-.56-.66Z"/>
    <path class="st0" d="M113.01,132.35c3.09,1.63,4.64,4.35,4.64,8.16,0,3.4-1.17,5.93-3.52,7.6-2.35,1.67-5.42,2.5-9.23,2.5h-13.56c-.17,0-.31-.06-.43-.18-.12-.12-.18-.26-.18-.43v-34.47c0-.17.06-.31.18-.43s.26-.18.43-.18h13.16c4.15,0,7.28.78,9.41,2.35,2.12,1.56,3.19,4.1,3.19,7.6s-1.36,5.73-4.08,7.19c-.2.1-.2.2,0,.31ZM99.19,122.41v6.43c0,.17.08.25.25.25h5.05c1.39,0,2.46-.3,3.21-.89.75-.59,1.12-1.44,1.12-2.52s-.37-1.99-1.12-2.6c-.75-.61-1.82-.92-3.21-.92h-5.05c-.17,0-.25.09-.25.25ZM108.07,142.37c.75-.63,1.12-1.54,1.12-2.73s-.37-2.05-1.1-2.68c-.73-.63-1.79-.94-3.19-.94h-5.46c-.17,0-.25.09-.25.25v6.78c0,.17.08.25.25.25h5.46c1.36,0,2.41-.31,3.16-.94Z"/>
    <path class="st0" d="M128.49,149.46c-2.06-1.04-3.65-2.51-4.79-4.41-1.14-1.9-1.71-4.1-1.71-6.58v-22.95c0-.17.06-.31.18-.43s.26-.18.43-.18h7.24c.17,0,.31.06.43.18.12.12.18.26.18.43v22.95c0,1.6.47,2.88,1.4,3.85.93.97,2.18,1.45,3.75,1.45s2.76-.48,3.7-1.45c.93-.97,1.4-2.25,1.4-3.85v-22.95c0-.17.06-.31.18-.43s.26-.18.43-.18h7.24c.17,0,.31.06.43.18.12.12.18.26.18.43v22.95c0,2.48-.56,4.67-1.68,6.58-1.12,1.9-2.71,3.37-4.77,4.41-2.06,1.04-4.43,1.56-7.11,1.56s-5.06-.52-7.11-1.56Z"/>
    <path class="st0" d="M180.2,115.09c.12.12.18.26.18.43v6.07c0,.17-.06.31-.18.43-.12.12-.26.18-.43.18h-8.92c-.17,0-.25.09-.25.26v27.54c0,.17-.06.31-.18.43-.12.12-.26.18-.43.18h-7.24c-.17,0-.31-.06-.43-.18-.12-.12-.18-.26-.18-.43v-27.54c0-.17-.08-.26-.25-.26h-8.62c-.17,0-.31-.06-.43-.18-.12-.12-.18-.26-.18-.43v-6.07c0-.17.06-.31.18-.43s.26-.18.43-.18h26.52c.17,0,.31.06.43.18Z"/>
    <path class="st0" d="M194.42,150.43c-.12-.12-.18-.26-.18-.43v-34.47c0-.17.06-.31.18-.43s.26-.18.43-.18h7.24c.17,0,.31.06.43.18.12.12.18.26.18.43v34.47c0,.17-.06.31-.18.43-.12.12-.26.18-.43.18h-7.24c-.17,0-.31-.06-.43-.18Z"/>
    <path class="st0" d="M231.37,114.91h7.19c.17,0,.31.06.43.18.12.12.18.26.18.43v34.47c0,.17-.06.31-.18.43s-.26.18-.43.18h-7.24c-.17,0-.31-.06-.43-.18-.12-.12-.18-.26-.18-.43v-20.5c0-.14-.03-.2-.1-.2s-.14.05-.2.15l-4.39,7.04c-.14.27-.37.41-.71.41h-3.62c-.34,0-.58-.14-.71-.41l-4.44-7.09c-.07-.1-.14-.15-.2-.15s-.1.07-.1.2v20.55c0,.17-.06.31-.18.43-.12.12-.26.18-.43.18h-7.24c-.17,0-.31-.06-.43-.18-.12-.12-.18-.26-.18-.43v-34.47c0-.17.06-.31.18-.43s.26-.18.43-.18h7.19c.31,0,.54.14.71.41l7.09,11.12c.1.2.2.2.31,0l6.99-11.12c.14-.27.37-.41.71-.41Z"/>
    <path class="st0" d="M265.51,116.34c1.79.95,3.16,2.29,4.13,4,.97,1.72,1.45,3.7,1.45,5.94s-.5,4.17-1.5,5.86c-1,1.7-2.42,3.01-4.26,3.93-1.84.92-3.96,1.38-6.37,1.38h-6.22c-.17,0-.25.09-.25.25v12.29c0,.17-.06.31-.18.43s-.26.18-.43.18h-7.24c-.17,0-.31-.06-.43-.18-.12-.12-.18-.26-.18-.43v-34.47c0-.17.06-.31.18-.43s.26-.18.43-.18h14.74c2.31,0,4.36.48,6.14,1.43ZM261.38,129.55c.87-.78,1.3-1.8,1.3-3.06s-.43-2.34-1.3-3.14c-.87-.8-2-1.2-3.39-1.2h-5.25c-.17,0-.25.09-.25.25v8.06c0,.17.08.25.25.25h5.25c1.39,0,2.52-.39,3.39-1.17Z"/>
    <path class="st0" d="M293.79,150.1l-1.33-4.54c-.07-.14-.15-.2-.25-.2h-11.63c-.1,0-.19.07-.25.2l-1.33,4.54c-.1.34-.34.51-.71.51h-7.8c-.2,0-.36-.06-.46-.18-.1-.12-.12-.3-.05-.54l10.91-34.47c.1-.34.32-.51.66-.51h9.64c.34,0,.56.17.66.51l10.96,34.47c.03.07.05.15.05.25,0,.31-.19.46-.56.46h-7.8c-.37,0-.61-.17-.71-.51ZM282.57,138.83h7.6c.2,0,.27-.1.2-.31l-3.88-13.11c-.03-.14-.09-.2-.15-.18-.07.02-.12.08-.15.18l-3.82,13.11c-.03.2.03.31.2.31Z"/>
    <path class="st0" d="M325,150.15l-6.02-13.56c-.07-.14-.17-.2-.31-.2h-3.37c-.17,0-.25.09-.25.25v13.36c0,.17-.06.31-.18.43-.12.12-.26.18-.43.18h-7.24c-.17,0-.31-.06-.43-.18-.12-.12-.18-.26-.18-.43v-34.47c0-.17.06-.31.18-.43s.26-.18.43-.18h15.15c2.24,0,4.21.46,5.92,1.38,1.7.92,3.02,2.22,3.95,3.9.93,1.68,1.4,3.61,1.4,5.79s-.56,4.25-1.68,5.92c-1.12,1.67-2.69,2.87-4.69,3.62-.17.07-.22.19-.15.36l6.73,14.02c.07.14.1.24.1.31,0,.27-.19.41-.56.41h-7.65c-.34,0-.58-.15-.71-.46ZM315.05,122.41v7.24c0,.17.08.25.25.25h5.66c1.26,0,2.28-.35,3.06-1.04.78-.7,1.17-1.62,1.17-2.78s-.39-2.14-1.17-2.86c-.78-.71-1.8-1.07-3.06-1.07h-5.66c-.17,0-.25.09-.25.25Z"/>
    <path class="st0" d="M364.03,115.09c.12.12.18.26.18.43v6.07c0,.17-.06.31-.18.43-.12.12-.26.18-.43.18h-8.92c-.17,0-.25.09-.25.26v27.54c0,.17-.06.31-.18.43-.12.12-.26.18-.43.18h-7.24c-.17,0-.31-.06-.43-.18-.12-.12-.18-.26-.18-.43v-27.54c0-.17-.08-.26-.25-.26h-8.62c-.17,0-.31-.06-.43-.18-.12-.12-.18-.26-.18-.43v-6.07c0-.17.06-.31.18-.43s.26-.18.43-.18h26.52c.17,0,.31.06.43.18Z"/>
    <path class="st0" d="M368.06,150.43c-.12-.12-.18-.26-.18-.43v-34.47c0-.17.06-.31.18-.43s.26-.18.43-.18h7.24c.17,0,.31.06.43.18.12.12.18.26.18.43v34.47c0,.17-.06.31-.18.43-.12.12-.26.18-.43.18h-7.24c-.17,0-.31-.06-.43-.18Z"/>
    <path class="st0" d="M401.82,115.09c.12-.12.26-.18.43-.18h7.24c.17,0,.31.06.43.18.12.12.18.26.18.43v34.47c0,.17-.06.31-.18.43s-.26.18-.43.18h-6.94c-.34,0-.58-.14-.71-.41l-11.73-19.48c-.07-.1-.14-.14-.2-.13-.07.02-.1.09-.1.23l.05,19.17c0,.17-.06.31-.18.43-.12.12-.26.18-.43.18h-7.24c-.17,0-.31-.06-.43-.18-.12-.12-.18-.26-.18-.43v-34.47c0-.17.06-.31.18-.43s.26-.18.43-.18h6.99c.34,0,.58.14.71.41l11.68,19.43c.07.1.14.15.2.13.07-.02.1-.09.1-.23l-.05-19.12c0-.17.06-.31.18-.43Z"/>
    <path class="st0" d="M421.09,149.38c-2.06-1.09-3.65-2.62-4.79-4.59-1.14-1.97-1.71-4.25-1.71-6.83v-10.45c0-2.58.57-4.85,1.71-6.81,1.14-1.95,2.74-3.48,4.79-4.56,2.06-1.09,4.44-1.63,7.17-1.63s5.06.52,7.14,1.56c2.07,1.04,3.68,2.46,4.82,4.26,1.14,1.8,1.71,3.79,1.71,5.97v.26c0,.17-.06.31-.18.43-.12.12-.26.18-.43.18h-7.24c-.17,0-.31-.06-.43-.18-.12-.12-.18-.26-.18-.43,0-1.33-.47-2.46-1.4-3.39s-2.2-1.4-3.8-1.4-2.82.51-3.77,1.53c-.95,1.02-1.43,2.35-1.43,3.98v10.96c0,1.63.53,2.96,1.58,3.98,1.05,1.02,2.38,1.53,3.98,1.53,1.5,0,2.7-.4,3.62-1.2.92-.8,1.38-1.91,1.38-3.34v-1.43c0-.17-.09-.25-.25-.25h-5.1c-.17,0-.31-.06-.43-.18-.12-.12-.18-.26-.18-.43v-5.61c0-.17.06-.31.18-.43.12-.12.26-.18.43-.18h13.05c.17,0,.31.06.43.18s.18.26.18.43v6.94c0,2.55-.57,4.79-1.71,6.73-1.14,1.94-2.74,3.43-4.79,4.49-2.06,1.05-4.45,1.58-7.16,1.58s-5.11-.54-7.17-1.63Z"/>
    <path class="st0" d="M31.17,211.62c-.12-.12-.18-.26-.18-.43v-34.47c0-.17.06-.31.18-.43s.26-.18.43-.18h7.24c.17,0,.31.06.43.18.12.12.18.26.18.43v34.47c0,.17-.06.31-.18.43-.12.12-.26.18-.43.18h-7.24c-.17,0-.31-.06-.43-.18Z"/>
    <path class="st0" d="M64.93,176.28c.12-.12.26-.18.43-.18h7.24c.17,0,.31.06.43.18.12.12.18.26.18.43v34.47c0,.17-.06.31-.18.43s-.26.18-.43.18h-6.94c-.34,0-.58-.14-.71-.41l-11.73-19.48c-.07-.1-.14-.14-.2-.13-.07.02-.1.09-.1.23l.05,19.17c0,.17-.06.31-.18.43-.12.12-.26.18-.43.18h-7.24c-.17,0-.31-.06-.43-.18-.12-.12-.18-.26-.18-.43v-34.47c0-.17.06-.31.18-.43s.26-.18.43-.18h6.99c.34,0,.58.14.71.41l11.68,19.43c.07.1.14.15.2.13.07-.02.1-.09.1-.23l-.05-19.12c0-.17.06-.31.18-.43Z"/>
    <path class="st0" d="M111.05,211.29l-1.33-4.54c-.07-.14-.15-.2-.25-.2h-11.63c-.1,0-.19.07-.25.2l-1.33,4.54c-.1.34-.34.51-.71.51h-7.8c-.2,0-.36-.06-.46-.18-.1-.12-.12-.3-.05-.54l10.91-34.47c.1-.34.32-.51.66-.51h9.64c.34,0,.56.17.66.51l10.96,34.47c.03.07.05.15.05.25,0,.31-.19.46-.56.46h-7.8c-.37,0-.61-.17-.71-.51ZM99.83,200.02h7.6c.2,0,.27-.1.2-.31l-3.88-13.11c-.03-.14-.09-.2-.15-.18-.07.02-.12.08-.15.18l-3.82,13.11c-.03.2.03.31.2.31Z"/>
    <path class="st0" d="M139.63,210.86c-2.09-.9-3.71-2.19-4.84-3.88-1.14-1.68-1.71-3.63-1.71-5.84v-.97c0-.17.06-.31.18-.43.12-.12.26-.18.43-.18h7.09c.17,0,.31.06.43.18.12.12.18.26.18.43v.61c0,1.12.56,2.1,1.68,2.93,1.12.83,2.63,1.25,4.54,1.25,1.5,0,2.6-.32,3.31-.97.71-.65,1.07-1.39,1.07-2.24,0-.68-.21-1.23-.64-1.66-.43-.42-.99-.78-1.71-1.07-.71-.29-1.82-.69-3.31-1.2-.2-.1-.41-.18-.61-.23-.2-.05-.39-.11-.56-.18-2.21-.71-4.13-1.49-5.76-2.32-1.63-.83-3.03-1.99-4.18-3.47s-1.73-3.31-1.73-5.48.55-3.95,1.66-5.53c1.1-1.58,2.64-2.8,4.61-3.65,1.97-.85,4.2-1.27,6.68-1.27,2.62,0,4.97.48,7.06,1.43,2.09.95,3.73,2.29,4.92,4.03,1.19,1.73,1.79,3.72,1.79,5.97v.71c0,.17-.06.31-.18.43s-.26.18-.43.18h-7.09c-.17,0-.31-.06-.43-.18-.12-.12-.18-.26-.18-.43v-.36c0-1.19-.53-2.24-1.58-3.16-1.05-.92-2.47-1.38-4.23-1.38-1.33,0-2.36.27-3.11.82-.75.54-1.12,1.31-1.12,2.29,0,.75.24,1.37.71,1.86.48.49,1.22.95,2.22,1.38,1,.43,2.54.98,4.62,1.66,2.38.82,4.23,1.53,5.56,2.14,1.33.61,2.58,1.61,3.75,2.98s1.76,3.19,1.76,5.43-.56,4.11-1.68,5.71c-1.12,1.6-2.69,2.83-4.72,3.7-2.02.87-4.38,1.3-7.06,1.3-2.82,0-5.28-.45-7.37-1.35Z"/>
    <path class="st0" d="M164.77,211.62c-.12-.12-.18-.26-.18-.43v-34.47c0-.17.06-.31.18-.43s.26-.18.43-.18h7.24c.17,0,.31.06.43.18.12.12.18.26.18.43v34.47c0,.17-.06.31-.18.43-.12.12-.26.18-.43.18h-7.24c-.17,0-.31-.06-.43-.18Z"/>
    <path class="st0" d="M201.72,176.1h7.19c.17,0,.31.06.43.18.12.12.18.26.18.43v34.47c0,.17-.06.31-.18.43s-.26.18-.43.18h-7.24c-.17,0-.31-.06-.43-.18-.12-.12-.18-.26-.18-.43v-20.5c0-.14-.03-.2-.1-.2s-.14.05-.2.15l-4.39,7.04c-.14.27-.37.41-.71.41h-3.62c-.34,0-.58-.14-.71-.41l-4.44-7.09c-.07-.1-.14-.15-.2-.15s-.1.07-.1.2v20.55c0,.17-.06.31-.18.43-.12.12-.26.18-.43.18h-7.24c-.17,0-.31-.06-.43-.18-.12-.12-.18-.26-.18-.43v-34.47c0-.17.06-.31.18-.43s.26-.18.43-.18h7.19c.31,0,.54.14.71.41l7.09,11.12c.1.2.2.2.31,0l6.99-11.12c.14-.27.37-.41.71-.41Z"/>
    <path class="st0" d="M235.86,177.53c1.79.95,3.16,2.29,4.13,4,.97,1.72,1.45,3.7,1.45,5.94s-.5,4.17-1.5,5.86c-1,1.7-2.42,3.01-4.26,3.93-1.84.92-3.96,1.38-6.37,1.38h-6.22c-.17,0-.25.09-.25.25v12.29c0,.17-.06.31-.18.43s-.26.18-.43.18h-7.24c-.17,0-.31-.06-.43-.18-.12-.12-.18-.26-.18-.43v-34.47c0-.17.06-.31.18-.43s.26-.18.43-.18h14.74c2.31,0,4.36.48,6.14,1.43ZM231.73,190.74c.87-.78,1.3-1.8,1.3-3.06s-.43-2.34-1.3-3.14c-.87-.8-2-1.2-3.39-1.2h-5.25c-.17,0-.25.09-.25.25v8.06c0,.17.08.25.25.25h5.25c1.39,0,2.52-.39,3.39-1.17Z"/>
    <path class="st0" d="M245.19,211.62c-.12-.12-.18-.26-.18-.43v-34.47c0-.17.06-.31.18-.43s.26-.18.43-.18h7.24c.17,0,.31.06.43.18.12.12.18.26.18.43v27.59c0,.17.08.25.25.25h16.27c.17,0,.31.06.43.18.12.12.18.26.18.43v6.02c0,.17-.06.31-.18.43-.12.12-.26.18-.43.18h-24.38c-.17,0-.31-.06-.43-.18Z"/>
    <path class="st0" d="M299.4,183.17c-.12.12-.26.18-.43.18h-16.01c-.17,0-.25.09-.25.25v6.27c0,.17.08.25.25.25h10.25c.17,0,.31.06.43.18.12.12.18.26.18.43v5.97c0,.17-.06.31-.18.43s-.26.18-.43.18h-10.25c-.17,0-.25.08-.25.25v6.73c0,.17.08.25.25.25h16.01c.17,0,.31.06.43.18.12.12.18.26.18.43v6.02c0,.17-.06.31-.18.43s-.26.18-.43.18h-24.12c-.17,0-.31-.06-.43-.18-.12-.12-.18-.26-.18-.43v-34.47c0-.17.06-.31.18-.43s.26-.18.43-.18h24.12c.17,0,.31.06.43.18.12.12.18.26.18.43v6.02c0,.17-.06.31-.18.43Z"/>
    <path class="st0" d="M336.44,211.29l-1.33-4.54c-.07-.14-.15-.2-.25-.2h-11.63c-.1,0-.19.07-.25.2l-1.33,4.54c-.1.34-.34.51-.71.51h-7.8c-.2,0-.36-.06-.46-.18-.1-.12-.12-.3-.05-.54l10.91-34.47c.1-.34.32-.51.66-.51h9.64c.34,0,.56.17.66.51l10.96,34.47c.03.07.05.15.05.25,0,.31-.19.46-.56.46h-7.8c-.37,0-.61-.17-.71-.51ZM325.23,200.02h7.6c.2,0,.27-.1.2-.31l-3.88-13.11c-.03-.14-.09-.2-.15-.18-.07.02-.12.08-.15.18l-3.82,13.11c-.03.2.03.31.2.31Z"/>
    <path class="st0" d="M369.67,176.28c.12-.12.26-.18.43-.18h7.24c.17,0,.31.06.43.18.12.12.18.26.18.43v34.47c0,.17-.06.31-.18.43s-.26.18-.43.18h-6.94c-.34,0-.58-.14-.71-.41l-11.73-19.48c-.07-.1-.14-.14-.2-.13-.07.02-.1.09-.1.23l.05,19.17c0,.17-.06.31-.18.43-.12.12-.26.18-.43.18h-7.24c-.17,0-.31-.06-.43-.18-.12-.12-.18-.26-.18-.43v-34.47c0-.17.06-.31.18-.43s.26-.18.43-.18h6.99c.34,0,.58.14.71.41l11.68,19.43c.07.1.14.15.2.13.07-.02.1-.09.1-.23l-.05-19.12c0-.17.06-.31.18-.43Z"/>
    <path class="st0" d="M383.03,211.62c-.12-.12-.18-.26-.18-.43v-34.47c0-.17.06-.31.18-.43s.26-.18.43-.18h13c2.65,0,5,.46,7.04,1.38,2.04.92,3.62,2.23,4.74,3.93,1.12,1.7,1.68,3.66,1.68,5.86v13.36c0,2.21-.56,4.17-1.68,5.86-1.12,1.7-2.7,3.01-4.74,3.93-2.04.92-4.39,1.38-7.04,1.38h-13c-.17,0-.31-.06-.43-.18ZM391.57,204.56h5.25c1.36,0,2.46-.48,3.31-1.45.85-.97,1.29-2.27,1.33-3.9v-10.5c0-1.63-.43-2.93-1.3-3.9-.87-.97-2-1.45-3.39-1.45h-5.2c-.17,0-.25.09-.25.25v20.7c0,.17.08.25.25.25Z"/>
    <path class="st0" d="M709.88,176.1h7.19c.17,0,.31.06.43.18.12.12.18.26.18.43v34.47c0,.17-.06.31-.18.43-.12.12-.26.18-.43.18h-7.24c-.17,0-.32-.06-.43-.18-.12-.12-.18-.26-.18-.43v-20.5c0-.14-.03-.2-.1-.2s-.14.05-.2.15l-4.39,7.04c-.14.27-.37.41-.71.41h-3.62c-.34,0-.58-.14-.71-.41l-4.44-7.09c-.07-.1-.14-.15-.2-.15s-.1.07-.1.2v20.55c0,.17-.06.31-.18.43-.12.12-.26.18-.43.18h-7.24c-.17,0-.31-.06-.43-.18-.12-.12-.18-.26-.18-.43v-34.47c0-.17.06-.31.18-.43.12-.12.26-.18.43-.18h7.19c.31,0,.54.14.71.41l7.09,11.12c.1.2.2.2.31,0l6.99-11.12c.14-.27.37-.41.71-.41Z"/>
    <path class="st0" d="M745.27,211.29l-1.33-4.54c-.07-.14-.15-.2-.25-.2h-11.63c-.1,0-.19.07-.25.2l-1.33,4.54c-.1.34-.34.51-.71.51h-7.8c-.2,0-.36-.06-.46-.18-.1-.12-.12-.3-.05-.54l10.91-34.47c.1-.34.32-.51.66-.51h9.64c.34,0,.56.17.66.51l10.96,34.47c.03.07.05.15.05.25,0,.31-.19.46-.56.46h-7.8c-.38,0-.61-.17-.71-.51ZM734.05,200.02h7.6c.2,0,.27-.1.2-.31l-3.88-13.11c-.03-.14-.08-.2-.15-.18-.07.02-.12.08-.15.18l-3.82,13.11c-.03.2.03.31.2.31Z"/>
    <path class="st0" d="M778.49,176.28c.12-.12.26-.18.43-.18h7.24c.17,0,.31.06.43.18.12.12.18.26.18.43v34.47c0,.17-.06.31-.18.43-.12.12-.26.18-.43.18h-6.94c-.34,0-.58-.14-.71-.41l-11.73-19.48c-.07-.1-.14-.14-.2-.13-.07.02-.1.09-.1.23l.05,19.17c0,.17-.06.31-.18.43-.12.12-.26.18-.43.18h-7.24c-.17,0-.31-.06-.43-.18-.12-.12-.18-.26-.18-.43v-34.47c0-.17.06-.31.18-.43.12-.12.26-.18.43-.18h6.99c.34,0,.58.14.71.41l11.68,19.43c.07.1.14.15.2.13.07-.02.1-.09.1-.23l-.05-19.12c0-.17.06-.31.18-.43Z"/>
    <path class="st0" d="M812.09,176.28c.12-.12.26-.18.43-.18h7.24c.17,0,.31.06.43.18.12.12.18.26.18.43v34.47c0,.17-.06.31-.18.43-.12.12-.26.18-.43.18h-6.94c-.34,0-.58-.14-.71-.41l-11.73-19.48c-.07-.1-.14-.14-.2-.13-.07.02-.1.09-.1.23l.05,19.17c0,.17-.06.31-.18.43-.12.12-.26.18-.43.18h-7.24c-.17,0-.31-.06-.43-.18-.12-.12-.18-.26-.18-.43v-34.47c0-.17.06-.31.18-.43.12-.12.26-.18.43-.18h6.99c.34,0,.58.14.71.41l11.68,19.43c.07.1.14.15.2.13.07-.02.1-.09.1-.23l-.05-19.12c0-.17.06-.31.18-.43Z"/>
    <path class="st0" d="M850.44,183.17c-.12.12-.26.18-.43.18h-16.01c-.17,0-.25.09-.25.25v6.27c0,.17.08.25.25.25h10.25c.17,0,.31.06.43.18.12.12.18.26.18.43v5.97c0,.17-.06.31-.18.43-.12.12-.26.18-.43.18h-10.25c-.17,0-.25.08-.25.25v6.73c0,.17.08.25.25.25h16.01c.17,0,.31.06.43.18.12.12.18.26.18.43v6.02c0,.17-.06.31-.18.43-.12.12-.26.18-.43.18h-24.12c-.17,0-.31-.06-.43-.18-.12-.12-.18-.26-.18-.43v-34.47c0-.17.06-.31.18-.43.12-.12.26-.18.43-.18h24.12c.17,0,.31.06.43.18.12.12.18.26.18.43v6.02c0,.17-.06.31-.18.43Z"/>
    <path class="st0" d="M873.11,211.34l-6.02-13.56c-.07-.14-.17-.2-.31-.2h-3.37c-.17,0-.25.09-.25.25v13.36c0,.17-.06.31-.18.43-.12.12-.26.18-.43.18h-7.24c-.17,0-.31-.06-.43-.18-.12-.12-.18-.26-.18-.43v-34.47c0-.17.06-.31.18-.43.12-.12.26-.18.43-.18h15.15c2.24,0,4.21.46,5.92,1.38,1.7.92,3.02,2.22,3.95,3.9.93,1.68,1.4,3.61,1.4,5.79s-.56,4.25-1.68,5.92c-1.12,1.67-2.69,2.87-4.69,3.62-.17.07-.22.19-.15.36l6.73,14.02c.07.14.1.24.1.31,0,.27-.19.41-.56.41h-7.65c-.34,0-.58-.15-.71-.46ZM863.16,183.6v7.24c0,.17.08.25.25.25h5.66c1.26,0,2.28-.35,3.06-1.04s1.17-1.62,1.17-2.78-.39-2.14-1.17-2.86-1.8-1.07-3.06-1.07h-5.66c-.17,0-.25.09-.25.25Z"/>
    <path class="st0" d="M249.52,272.54l-6.02-13.56c-.07-.14-.17-.2-.31-.2h-3.37c-.17,0-.25.08-.25.25v13.36c0,.17-.06.32-.18.43-.12.12-.26.18-.43.18h-7.24c-.17,0-.31-.06-.43-.18-.12-.12-.18-.26-.18-.43v-34.47c0-.17.06-.31.18-.43s.26-.18.43-.18h15.15c2.24,0,4.21.46,5.92,1.38,1.7.92,3.02,2.22,3.95,3.9.93,1.68,1.4,3.61,1.4,5.79s-.56,4.25-1.68,5.92c-1.12,1.67-2.69,2.87-4.69,3.62-.17.07-.22.19-.15.36l6.73,14.02c.07.14.1.24.1.31,0,.27-.19.41-.56.41h-7.65c-.34,0-.58-.15-.71-.46ZM239.58,244.79v7.24c0,.17.08.25.25.25h5.66c1.26,0,2.28-.35,3.06-1.04.78-.7,1.17-1.62,1.17-2.78s-.39-2.14-1.17-2.86c-.78-.71-1.8-1.07-3.06-1.07h-5.66c-.17,0-.25.09-.25.25Z"/>
    <path class="st0" d="M287.59,244.36c-.12.12-.26.18-.43.18h-16.01c-.17,0-.25.09-.25.25v6.27c0,.17.08.25.25.25h10.25c.17,0,.31.06.43.18.12.12.18.26.18.43v5.97c0,.17-.06.32-.18.43-.12.12-.26.18-.43.18h-10.25c-.17,0-.25.08-.25.25v6.73c0,.17.08.25.25.25h16.01c.17,0,.31.06.43.18.12.12.18.26.18.43v6.02c0,.17-.06.32-.18.43-.12.12-.26.18-.43.18h-24.12c-.17,0-.31-.06-.43-.18-.12-.12-.18-.26-.18-.43v-34.47c0-.17.06-.31.18-.43s.26-.18.43-.18h24.12c.17,0,.31.06.43.18.12.12.18.26.18.43v6.02c0,.17-.06.31-.18.43Z"/>
    <path class="st0" d="M315.46,237.3h7.19c.17,0,.31.06.43.18.12.12.18.26.18.43v34.47c0,.17-.06.32-.18.43-.12.12-.26.18-.43.18h-7.24c-.17,0-.31-.06-.43-.18-.12-.12-.18-.26-.18-.43v-20.5c0-.13-.03-.2-.1-.2s-.14.05-.2.15l-4.39,7.04c-.14.27-.37.41-.71.41h-3.62c-.34,0-.58-.14-.71-.41l-4.44-7.09c-.07-.1-.14-.15-.2-.15s-.1.07-.1.2v20.55c0,.17-.06.32-.18.43-.12.12-.26.18-.43.18h-7.24c-.17,0-.31-.06-.43-.18-.12-.12-.18-.26-.18-.43v-34.47c0-.17.06-.31.18-.43s.26-.18.43-.18h7.19c.31,0,.54.14.71.41l7.09,11.12c.1.2.2.2.31,0l6.99-11.12c.14-.27.37-.41.71-.41Z"/>
    <path class="st0" d="M350.85,272.49l-1.33-4.54c-.07-.13-.15-.2-.25-.2h-11.63c-.1,0-.19.07-.25.2l-1.33,4.54c-.1.34-.34.51-.71.51h-7.8c-.2,0-.36-.06-.46-.18-.1-.12-.12-.3-.05-.54l10.91-34.47c.1-.34.32-.51.66-.51h9.64c.34,0,.56.17.66.51l10.96,34.47c.03.07.05.15.05.25,0,.31-.19.46-.56.46h-7.8c-.37,0-.61-.17-.71-.51ZM339.63,261.21h7.6c.2,0,.27-.1.2-.31l-3.88-13.11c-.03-.14-.09-.2-.15-.18-.07.02-.12.08-.15.18l-3.82,13.11c-.03.2.03.31.2.31Z"/>
    <path class="st0" d="M363.83,272.82c-.12-.12-.18-.26-.18-.43v-34.47c0-.17.06-.31.18-.43s.26-.18.43-.18h7.24c.17,0,.31.06.43.18.12.12.18.26.18.43v34.47c0,.17-.06.32-.18.43-.12.12-.26.18-.43.18h-7.24c-.17,0-.31-.06-.43-.18Z"/>
    <path class="st0" d="M397.59,237.48c.12-.12.26-.18.43-.18h7.24c.17,0,.31.06.43.18.12.12.18.26.18.43v34.47c0,.17-.06.32-.18.43-.12.12-.26.18-.43.18h-6.94c-.34,0-.58-.14-.71-.41l-11.73-19.48c-.07-.1-.14-.14-.2-.13-.07.02-.1.09-.1.23l.05,19.17c0,.17-.06.32-.18.43-.12.12-.26.18-.43.18h-7.24c-.17,0-.31-.06-.43-.18-.12-.12-.18-.26-.18-.43v-34.47c0-.17.06-.31.18-.43s.26-.18.43-.18h6.99c.34,0,.58.14.71.41l11.68,19.43c.07.1.14.14.2.13.07-.02.1-.09.1-.23l-.05-19.12c0-.17.06-.31.18-.43Z"/>
    <path class="st0" d="M416.5,272.05c-2.09-.9-3.71-2.19-4.84-3.88-1.14-1.68-1.71-3.63-1.71-5.84v-.97c0-.17.06-.31.18-.43.12-.12.26-.18.43-.18h7.09c.17,0,.31.06.43.18.12.12.18.26.18.43v.61c0,1.12.56,2.1,1.68,2.93,1.12.83,2.63,1.25,4.54,1.25,1.5,0,2.6-.32,3.31-.97s1.07-1.39,1.07-2.24c0-.68-.21-1.23-.64-1.66-.43-.42-.99-.78-1.71-1.07-.71-.29-1.82-.69-3.31-1.2-.2-.1-.41-.18-.61-.23-.2-.05-.39-.11-.56-.18-2.21-.71-4.13-1.49-5.76-2.32-1.63-.83-3.03-1.99-4.18-3.47-1.16-1.48-1.73-3.3-1.73-5.48s.55-3.95,1.66-5.53c1.1-1.58,2.64-2.8,4.61-3.65,1.97-.85,4.2-1.27,6.68-1.27,2.62,0,4.97.48,7.06,1.43,2.09.95,3.73,2.29,4.92,4.03,1.19,1.73,1.79,3.72,1.79,5.97v.71c0,.17-.06.31-.18.43-.12.12-.26.18-.43.18h-7.09c-.17,0-.31-.06-.43-.18-.12-.12-.18-.26-.18-.43v-.36c0-1.19-.53-2.24-1.58-3.16-1.05-.92-2.47-1.38-4.23-1.38-1.33,0-2.36.27-3.11.82-.75.54-1.12,1.31-1.12,2.29,0,.75.24,1.37.71,1.86.48.49,1.22.95,2.22,1.38,1,.43,2.54.98,4.62,1.66,2.38.82,4.23,1.53,5.56,2.14,1.33.61,2.58,1.61,3.75,2.98,1.17,1.38,1.76,3.19,1.76,5.43s-.56,4.11-1.68,5.71c-1.12,1.6-2.69,2.83-4.72,3.7-2.02.87-4.38,1.3-7.06,1.3-2.82,0-5.28-.45-7.37-1.35Z"/>
    <path class="st0" d="M457.61,271.82c-2.06-1.05-3.65-2.55-4.79-4.49-1.14-1.94-1.71-4.18-1.71-6.73v-11.02c0-2.51.57-4.73,1.71-6.65,1.14-1.92,2.74-3.41,4.79-4.46,2.06-1.05,4.44-1.58,7.17-1.58s5.11.5,7.17,1.5c2.06,1,3.65,2.41,4.79,4.23,1.14,1.82,1.71,3.92,1.71,6.3,0,.17-.06.31-.18.41-.12.1-.26.15-.43.15l-7.24.46c-.41,0-.61-.19-.61-.56,0-1.6-.48-2.87-1.43-3.82-.95-.95-2.21-1.43-3.77-1.43s-2.82.48-3.77,1.45c-.95.97-1.43,2.24-1.43,3.8v11.58c0,1.56.48,2.82,1.43,3.77.95.95,2.21,1.43,3.77,1.43s2.82-.48,3.77-1.43c.95-.95,1.43-2.21,1.43-3.77,0-.37.2-.56.61-.56l7.24.36c.17,0,.31.05.43.15.12.1.18.22.18.36,0,2.41-.57,4.54-1.71,6.37-1.14,1.84-2.74,3.26-4.79,4.26-2.06,1-4.45,1.5-7.17,1.5s-5.11-.53-7.17-1.58Z"/>
    <path class="st0" d="M507.89,244.36c-.12.12-.26.18-.43.18h-16.01c-.17,0-.25.09-.25.25v6.27c0,.17.08.25.25.25h10.25c.17,0,.31.06.43.18.12.12.18.26.18.43v5.97c0,.17-.06.32-.18.43-.12.12-.26.18-.43.18h-10.25c-.17,0-.25.08-.25.25v6.73c0,.17.08.25.25.25h16.01c.17,0,.31.06.43.18.12.12.18.26.18.43v6.02c0,.17-.06.32-.18.43s-.26.18-.43.18h-24.12c-.17,0-.31-.06-.43-.18-.12-.12-.18-.26-.18-.43v-34.47c0-.17.06-.31.18-.43.12-.12.26-.18.43-.18h24.12c.17,0,.31.06.43.18.12.12.18.26.18.43v6.02c0,.17-.06.31-.18.43Z"/>
    <path class="st0" d="M532.57,237.48c.12-.12.26-.18.43-.18h7.24c.17,0,.31.06.43.18.12.12.18.26.18.43v34.47c0,.17-.06.32-.18.43-.12.12-.26.18-.43.18h-6.94c-.34,0-.58-.14-.71-.41l-11.73-19.48c-.07-.1-.14-.14-.2-.13-.07.02-.1.09-.1.23l.05,19.17c0,.17-.06.32-.18.43-.12.12-.26.18-.43.18h-7.24c-.17,0-.31-.06-.43-.18-.12-.12-.18-.26-.18-.43v-34.47c0-.17.06-.31.18-.43.12-.12.26-.18.43-.18h6.99c.34,0,.58.14.71.41l11.68,19.43c.07.1.14.14.2.13.07-.02.1-.09.1-.23l-.05-19.12c0-.17.06-.31.18-.43Z"/>
    <path class="st0" d="M572.14,237.48c.12.12.18.26.18.43v6.07c0,.17-.06.31-.18.43-.12.12-.26.18-.43.18h-8.92c-.17,0-.25.09-.25.26v27.54c0,.17-.06.32-.18.43-.12.12-.26.18-.43.18h-7.24c-.17,0-.31-.06-.43-.18-.12-.12-.18-.26-.18-.43v-27.54c0-.17-.09-.26-.25-.26h-8.62c-.17,0-.32-.06-.43-.18-.12-.12-.18-.26-.18-.43v-6.07c0-.17.06-.31.18-.43.12-.12.26-.18.43-.18h26.52c.17,0,.31.06.43.18Z"/>
    <path class="st0" d="M594.4,272.54l-6.02-13.56c-.07-.14-.17-.2-.31-.2h-3.37c-.17,0-.25.08-.25.25v13.36c0,.17-.06.32-.18.43-.12.12-.26.18-.43.18h-7.24c-.17,0-.31-.06-.43-.18-.12-.12-.18-.26-.18-.43v-34.47c0-.17.06-.31.18-.43.12-.12.26-.18.43-.18h15.15c2.24,0,4.21.46,5.92,1.38,1.7.92,3.02,2.22,3.95,3.9.93,1.68,1.4,3.61,1.4,5.79s-.56,4.25-1.68,5.92c-1.12,1.67-2.69,2.87-4.69,3.62-.17.07-.22.19-.15.36l6.73,14.02c.07.14.1.24.1.31,0,.27-.19.41-.56.41h-7.65c-.34,0-.58-.15-.71-.46ZM584.46,244.79v7.24c0,.17.08.25.25.25h5.66c1.26,0,2.28-.35,3.06-1.04s1.17-1.62,1.17-2.78-.39-2.14-1.17-2.86c-.78-.71-1.8-1.07-3.06-1.07h-5.66c-.17,0-.25.09-.25.25Z"/>
    <path class="st0" d="M630.25,272.49l-1.33-4.54c-.07-.13-.15-.2-.25-.2h-11.63c-.1,0-.19.07-.25.2l-1.33,4.54c-.1.34-.34.51-.71.51h-7.8c-.2,0-.36-.06-.46-.18-.1-.12-.12-.3-.05-.54l10.91-34.47c.1-.34.32-.51.66-.51h9.64c.34,0,.56.17.66.51l10.96,34.47c.03.07.05.15.05.25,0,.31-.19.46-.56.46h-7.8c-.38,0-.61-.17-.71-.51ZM619.03,261.21h7.6c.2,0,.27-.1.2-.31l-3.88-13.11c-.03-.14-.08-.2-.15-.18-.07.02-.12.08-.15.18l-3.82,13.11c-.03.2.03.31.2.31Z"/>
    <path class="st0" d="M643.22,272.82c-.12-.12-.18-.26-.18-.43v-34.47c0-.17.06-.31.18-.43.12-.12.26-.18.43-.18h7.24c.17,0,.31.06.43.18.12.12.18.26.18.43v27.59c0,.17.08.25.25.25h16.27c.17,0,.31.06.43.18.12.12.18.26.18.43v6.02c0,.17-.06.32-.18.43s-.26.18-.43.18h-24.38c-.17,0-.31-.06-.43-.18Z"/>
    <path class="st0" d="M673.11,272.05c-.83-.83-1.25-1.89-1.25-3.19s.42-2.4,1.25-3.21c.83-.82,1.9-1.22,3.19-1.22s2.35.41,3.16,1.22,1.22,1.89,1.22,3.21-.42,2.35-1.25,3.19-1.88,1.25-3.14,1.25-2.35-.42-3.19-1.25Z"/>
  </g>
</svg>