<?xml version="1.0" encoding="UTF-8"?>
<svg id="Layer_1" xmlns="http://www.w3.org/2000/svg" version="1.1" viewBox="0 0 912 157.76">
  <!-- Generator: Adobe Illustrator 29.6.1, SVG Export Plug-In . SVG Version: 2.1.1 Build 9)  -->
  <defs>
    <style>
      .st0 {
        fill: none;
        stroke: #fff;
        stroke-miterlimit: 10;
        stroke-width: 1.5px;
      }

      .st1 {
        fill: #00e1ff;
      }
    </style>
  </defs>
  <g>
    <path class="st0" d="M93.62,42.48c3.09,1.63,4.64,4.35,4.64,8.16,0,3.4-1.17,5.93-3.52,7.6-2.35,1.67-5.42,2.5-9.23,2.5h-13.57c-.17,0-.31-.06-.43-.18-.12-.12-.18-.26-.18-.43V25.65c0-.17.06-.31.18-.43s.26-.18.43-.18h13.16c4.15,0,7.28.78,9.41,2.35,2.12,1.56,3.19,4.1,3.19,7.6s-1.36,5.73-4.08,7.19c-.2.1-.2.2,0,.31ZM79.8,32.53v6.43c0,.17.08.25.26.25h5.05c1.39,0,2.46-.3,3.21-.89.75-.59,1.12-1.44,1.12-2.52s-.37-1.99-1.12-2.6c-.75-.61-1.82-.92-3.21-.92h-5.05c-.17,0-.26.09-.26.25ZM88.68,52.5c.75-.63,1.12-1.54,1.12-2.73s-.37-2.05-1.1-2.68c-.73-.63-1.79-.94-3.19-.94h-5.46c-.17,0-.26.08-.26.25v6.78c0,.17.08.25.26.25h5.46c1.36,0,2.41-.31,3.16-.94Z"/>
    <path class="st0" d="M115.22,59.59c-2.06-1.04-3.66-2.51-4.79-4.41-1.14-1.9-1.71-4.1-1.71-6.58v-22.95c0-.17.06-.31.18-.43s.26-.18.43-.18h7.24c.17,0,.31.06.43.18.12.12.18.26.18.43v22.95c0,1.6.47,2.88,1.4,3.85.93.97,2.18,1.45,3.75,1.45s2.76-.48,3.7-1.45c.94-.97,1.4-2.25,1.4-3.85v-22.95c0-.17.06-.31.18-.43s.26-.18.43-.18h7.24c.17,0,.31.06.43.18.12.12.18.26.18.43v22.95c0,2.48-.56,4.68-1.68,6.58-1.12,1.9-2.71,3.38-4.77,4.41-2.06,1.04-4.43,1.56-7.11,1.56s-5.06-.52-7.11-1.56Z"/>
    <path class="st0" d="M146.99,60.55c-.12-.12-.18-.26-.18-.43V25.65c0-.17.06-.31.18-.43s.26-.18.43-.18h7.24c.17,0,.31.06.43.18.12.12.18.26.18.43v34.48c0,.17-.06.31-.18.43s-.26.18-.43.18h-7.24c-.17,0-.31-.06-.43-.18Z"/>
    <path class="st0" d="M166.63,60.55c-.12-.12-.18-.26-.18-.43V25.65c0-.17.06-.31.18-.43s.26-.18.43-.18h7.24c.17,0,.31.06.43.18.12.12.18.26.18.43v27.59c0,.17.08.25.26.25h16.27c.17,0,.31.06.43.18.12.12.18.26.18.43v6.02c0,.17-.06.31-.18.43s-.26.18-.43.18h-24.38c-.17,0-.31-.06-.43-.18Z"/>
    <path class="st0" d="M201.97,60.55c-.12-.12-.18-.26-.18-.43V25.65c0-.17.06-.31.18-.43s.26-.18.43-.18h13.01c2.65,0,5,.46,7.04,1.38,2.04.92,3.62,2.23,4.74,3.93,1.12,1.7,1.68,3.66,1.68,5.87v13.36c0,2.21-.56,4.17-1.68,5.86-1.12,1.7-2.7,3.01-4.74,3.93s-4.39,1.38-7.04,1.38h-13.01c-.17,0-.31-.06-.43-.18ZM210.51,53.49h5.25c1.36,0,2.46-.48,3.31-1.45.85-.97,1.29-2.27,1.33-3.9v-10.51c0-1.63-.43-2.93-1.3-3.9-.87-.97-2-1.45-3.39-1.45h-5.2c-.17,0-.26.09-.26.25v20.71c0,.17.08.25.26.25Z"/>
    <path class="st0" d="M239.61,60.55c-.12-.12-.18-.26-.18-.43V25.65c0-.17.06-.31.18-.43s.26-.18.43-.18h7.24c.17,0,.31.06.43.18.12.12.18.26.18.43v34.48c0,.17-.06.31-.18.43s-.26.18-.43.18h-7.24c-.17,0-.31-.06-.43-.18Z"/>
    <path class="st0" d="M279.49,25.21c.12-.12.26-.18.43-.18h7.24c.17,0,.31.06.43.18.12.12.18.26.18.43v34.48c0,.17-.06.31-.18.43s-.26.18-.43.18h-6.94c-.34,0-.58-.14-.71-.41l-11.73-19.48c-.07-.1-.14-.14-.2-.13-.07.02-.1.09-.1.23l.05,19.18c0,.17-.06.31-.18.43s-.26.18-.43.18h-7.24c-.17,0-.31-.06-.43-.18-.12-.12-.18-.26-.18-.43V25.65c0-.17.06-.31.18-.43s.26-.18.43-.18h6.99c.34,0,.58.14.71.41l11.68,19.43c.07.1.14.15.2.13.07-.02.1-.09.1-.23l-.05-19.12c0-.17.06-.31.18-.43Z"/>
    <path class="st0" d="M304.89,59.51c-2.06-1.09-3.66-2.62-4.79-4.59-1.14-1.97-1.71-4.25-1.71-6.83v-10.46c0-2.58.57-4.85,1.71-6.81,1.14-1.95,2.74-3.48,4.79-4.56,2.06-1.09,4.44-1.63,7.17-1.63s5.07.52,7.14,1.56c2.07,1.04,3.68,2.46,4.82,4.26,1.14,1.8,1.71,3.79,1.71,5.97v.26c0,.17-.06.31-.18.43s-.26.18-.43.18h-7.24c-.17,0-.31-.06-.43-.18-.12-.12-.18-.26-.18-.43,0-1.33-.47-2.46-1.4-3.39-.94-.94-2.2-1.4-3.8-1.4s-2.82.51-3.77,1.53c-.95,1.02-1.43,2.35-1.43,3.98v10.96c0,1.63.53,2.96,1.58,3.98,1.05,1.02,2.38,1.53,3.98,1.53,1.5,0,2.7-.4,3.62-1.2.92-.8,1.38-1.91,1.38-3.34v-1.43c0-.17-.08-.25-.25-.25h-5.1c-.17,0-.31-.06-.43-.18-.12-.12-.18-.26-.18-.43v-5.61c0-.17.06-.31.18-.43s.26-.18.43-.18h13.06c.17,0,.31.06.43.18.12.12.18.26.18.43v6.94c0,2.55-.57,4.79-1.71,6.73-1.14,1.94-2.74,3.43-4.79,4.49-2.06,1.05-4.45,1.58-7.17,1.58s-5.11-.54-7.17-1.63Z"/>
    <path class="st0" d="M375.19,60.22l-1.33-4.54c-.07-.14-.15-.2-.25-.2h-11.63c-.1,0-.19.07-.25.2l-1.33,4.54c-.1.34-.34.51-.71.51h-7.8c-.2,0-.36-.06-.46-.18-.1-.12-.12-.3-.05-.54l10.91-34.48c.1-.34.32-.51.66-.51h9.64c.34,0,.56.17.66.51l10.97,34.48c.03.07.05.15.05.25,0,.31-.19.46-.56.46h-7.8c-.37,0-.61-.17-.71-.51ZM363.97,48.95h7.6c.2,0,.27-.1.2-.31l-3.88-13.11c-.03-.14-.08-.2-.15-.18-.07.02-.12.08-.15.18l-3.83,13.11c-.03.2.03.31.2.31Z"/>
    <path class="st0" d="M432.72,42.48c3.09,1.63,4.64,4.35,4.64,8.16,0,3.4-1.17,5.93-3.52,7.6-2.35,1.67-5.42,2.5-9.23,2.5h-13.57c-.17,0-.31-.06-.43-.18-.12-.12-.18-.26-.18-.43V25.65c0-.17.06-.31.18-.43s.26-.18.43-.18h13.16c4.15,0,7.28.78,9.41,2.35,2.12,1.56,3.19,4.1,3.19,7.6s-1.36,5.73-4.08,7.19c-.2.1-.2.2,0,.31ZM418.9,32.53v6.43c0,.17.08.25.26.25h5.05c1.39,0,2.46-.3,3.21-.89.75-.59,1.12-1.44,1.12-2.52s-.37-1.99-1.12-2.6c-.75-.61-1.82-.92-3.21-.92h-5.05c-.17,0-.26.09-.26.25ZM427.77,52.5c.75-.63,1.12-1.54,1.12-2.73s-.37-2.05-1.1-2.68c-.73-.63-1.79-.94-3.19-.94h-5.46c-.17,0-.26.08-.26.25v6.78c0,.17.08.25.26.25h5.46c1.36,0,2.41-.31,3.16-.94Z"/>
    <path class="st0" d="M454.06,59.64c-2.09-1.1-3.72-2.66-4.87-4.67-1.16-2.01-1.73-4.33-1.73-6.99v-10.2c0-2.58.58-4.87,1.73-6.86,1.16-1.99,2.78-3.54,4.87-4.64,2.09-1.1,4.51-1.66,7.27-1.66s5.18.55,7.29,1.66c2.11,1.11,3.74,2.65,4.9,4.64,1.16,1.99,1.73,4.28,1.73,6.86v10.2c0,2.65-.58,4.98-1.73,6.99-1.16,2.01-2.79,3.56-4.9,4.67s-4.54,1.66-7.29,1.66-5.18-.55-7.27-1.66ZM465.28,52.47c1-1.05,1.5-2.46,1.5-4.23v-10.56c0-1.73-.5-3.14-1.5-4.21-1-1.07-2.32-1.61-3.95-1.61s-2.9.54-3.9,1.61c-1,1.07-1.5,2.47-1.5,4.21v10.56c0,1.77.5,3.18,1.5,4.23,1,1.05,2.3,1.58,3.9,1.58s2.95-.53,3.95-1.58Z"/>
    <path class="st0" d="M506.23,25.21c.12-.12.26-.18.43-.18h7.24c.17,0,.31.06.43.18.12.12.18.26.18.43v34.48c0,.17-.06.31-.18.43-.12.12-.26.18-.43.18h-6.94c-.34,0-.58-.14-.71-.41l-11.73-19.48c-.07-.1-.14-.14-.2-.13-.07.02-.1.09-.1.23l.05,19.18c0,.17-.06.31-.18.43-.12.12-.26.18-.43.18h-7.24c-.17,0-.32-.06-.43-.18-.12-.12-.18-.26-.18-.43V25.65c0-.17.06-.31.18-.43.12-.12.26-.18.43-.18h6.99c.34,0,.58.14.71.41l11.68,19.43c.07.1.14.15.2.13.07-.02.1-.09.1-.23l-.05-19.12c0-.17.06-.31.18-.43Z"/>
    <path class="st0" d="M525.72,60.55c-.12-.12-.18-.26-.18-.43V25.65c0-.17.06-.31.18-.43.12-.12.26-.18.43-.18h13c2.65,0,5,.46,7.04,1.38,2.04.92,3.62,2.23,4.74,3.93,1.12,1.7,1.68,3.66,1.68,5.87v13.36c0,2.21-.56,4.17-1.68,5.86-1.12,1.7-2.7,3.01-4.74,3.93s-4.39,1.38-7.04,1.38h-13c-.17,0-.32-.06-.43-.18ZM534.26,53.49h5.25c1.36,0,2.46-.48,3.32-1.45.85-.97,1.29-2.27,1.33-3.9v-10.51c0-1.63-.43-2.93-1.3-3.9-.87-.97-2-1.45-3.39-1.45h-5.2c-.17,0-.25.09-.25.25v20.71c0,.17.08.25.25.25Z"/>
    <path class="st0" d="M601.78,42.48c3.09,1.63,4.64,4.35,4.64,8.16,0,3.4-1.17,5.93-3.52,7.6-2.35,1.67-5.42,2.5-9.23,2.5h-13.57c-.17,0-.32-.06-.43-.18-.12-.12-.18-.26-.18-.43V25.65c0-.17.06-.31.18-.43.12-.12.26-.18.43-.18h13.16c4.15,0,7.29.78,9.41,2.35,2.12,1.56,3.19,4.1,3.19,7.6s-1.36,5.73-4.08,7.19c-.2.1-.2.2,0,.31ZM587.96,32.53v6.43c0,.17.08.25.25.25h5.05c1.39,0,2.46-.3,3.21-.89.75-.59,1.12-1.44,1.12-2.52s-.37-1.99-1.12-2.6c-.75-.61-1.82-.92-3.21-.92h-5.05c-.17,0-.25.09-.25.25ZM596.83,52.5c.75-.63,1.12-1.54,1.12-2.73s-.37-2.05-1.1-2.68c-.73-.63-1.79-.94-3.19-.94h-5.46c-.17,0-.25.08-.25.25v6.78c0,.17.08.25.25.25h5.46c1.36,0,2.41-.31,3.16-.94Z"/>
    <path class="st0" d="M642.25,32.1c-.12.12-.26.18-.43.18h-16.01c-.17,0-.25.09-.25.25v6.27c0,.17.08.26.25.26h10.25c.17,0,.31.06.43.18.12.12.18.26.18.43v5.97c0,.17-.06.31-.18.43-.12.12-.26.18-.43.18h-10.25c-.17,0-.25.08-.25.25v6.73c0,.17.08.25.25.25h16.01c.17,0,.31.06.43.18.12.12.18.26.18.43v6.02c0,.17-.06.31-.18.43-.12.12-.26.18-.43.18h-24.12c-.17,0-.32-.06-.43-.18-.12-.12-.18-.26-.18-.43V25.65c0-.17.06-.31.18-.43.12-.12.26-.18.43-.18h24.12c.17,0,.31.06.43.18.12.12.18.26.18.43v6.02c0,.17-.06.31-.18.43Z"/>
    <path class="st0" d="M678.87,25.21c.12.12.18.26.18.43v6.07c0,.17-.06.31-.18.43-.12.12-.26.18-.43.18h-8.92c-.17,0-.25.09-.25.26v27.54c0,.17-.06.31-.18.43-.12.12-.26.18-.43.18h-7.24c-.17,0-.32-.06-.43-.18-.12-.12-.18-.26-.18-.43v-27.54c0-.17-.08-.26-.25-.26h-8.62c-.17,0-.31-.06-.43-.18-.12-.12-.18-.26-.18-.43v-6.07c0-.17.06-.31.18-.43.12-.12.26-.18.43-.18h26.52c.17,0,.31.06.43.18Z"/>
    <path class="st0" d="M697,60.22l-9.49-34.53-.05-.2c0-.31.19-.46.56-.46h7.75c.34,0,.56.17.66.51l4.44,18.56c.03.14.08.2.15.2s.12-.07.15-.2l3.98-18.51c.07-.37.29-.56.66-.56h7.09c.34,0,.56.17.66.51l4.44,18.56c.03.14.08.2.15.2s.12-.07.15-.2l4.13-18.51c.07-.37.29-.56.66-.56h7.55c.48,0,.66.22.56.66l-8.62,34.53c-.1.34-.34.51-.71.51h-7.29c-.37,0-.59-.19-.66-.56l-4.44-19.69c-.03-.14-.09-.2-.15-.2s-.12.07-.15.2l-3.98,19.69c-.07.37-.29.56-.66.56h-6.83c-.38,0-.61-.17-.71-.51Z"/>
    <path class="st0" d="M765.98,32.1c-.12.12-.26.18-.43.18h-16.01c-.17,0-.25.09-.25.25v6.27c0,.17.08.26.25.26h10.25c.17,0,.31.06.43.18.12.12.18.26.18.43v5.97c0,.17-.06.31-.18.43-.12.12-.26.18-.43.18h-10.25c-.17,0-.25.08-.25.25v6.73c0,.17.08.25.25.25h16.01c.17,0,.31.06.43.18.12.12.18.26.18.43v6.02c0,.17-.06.31-.18.43-.12.12-.26.18-.43.18h-24.12c-.17,0-.32-.06-.43-.18-.12-.12-.18-.26-.18-.43V25.65c0-.17.06-.31.18-.43.12-.12.26-.18.43-.18h24.12c.17,0,.31.06.43.18.12.12.18.26.18.43v6.02c0,.17-.06.31-.18.43Z"/>
    <path class="st0" d="M801.52,32.1c-.12.12-.26.18-.43.18h-16.01c-.17,0-.25.09-.25.25v6.27c0,.17.08.26.25.26h10.25c.17,0,.31.06.43.18.12.12.18.26.18.43v5.97c0,.17-.06.31-.18.43-.12.12-.26.18-.43.18h-10.25c-.17,0-.25.08-.25.25v6.73c0,.17.08.25.25.25h16.01c.17,0,.31.06.43.18.12.12.18.26.18.43v6.02c0,.17-.06.31-.18.43-.12.12-.26.18-.43.18h-24.12c-.17,0-.32-.06-.43-.18-.12-.12-.18-.26-.18-.43V25.65c0-.17.06-.31.18-.43.12-.12.26-.18.43-.18h24.12c.17,0,.31.06.43.18.12.12.18.26.18.43v6.02c0,.17-.06.31-.18.43Z"/>
    <path class="st0" d="M832.33,25.21c.12-.12.26-.18.43-.18h7.24c.17,0,.31.06.43.18.12.12.18.26.18.43v34.48c0,.17-.06.31-.18.43-.12.12-.26.18-.43.18h-6.94c-.34,0-.58-.14-.71-.41l-11.73-19.48c-.07-.1-.14-.14-.2-.13-.07.02-.1.09-.1.23l.05,19.18c0,.17-.06.31-.18.43-.12.12-.26.18-.43.18h-7.24c-.17,0-.32-.06-.43-.18-.12-.12-.18-.26-.18-.43V25.65c0-.17.06-.31.18-.43.12-.12.26-.18.43-.18h6.99c.34,0,.58.14.71.41l11.68,19.43c.07.1.14.15.2.13.07-.02.1-.09.1-.23l-.05-19.12c0-.17.06-.31.18-.43Z"/>
  </g>
  <g>
    <path class="st1" d="M34.8,108.85c4.11,2.17,6.16,5.78,6.16,10.83,0,4.52-1.56,7.88-4.67,10.09-3.12,2.21-7.2,3.32-12.26,3.32H6.02c-.23,0-.42-.08-.58-.24-.16-.16-.24-.35-.24-.58v-45.78c0-.23.08-.42.24-.58.16-.16.35-.24.58-.24h17.47c5.51,0,9.67,1.04,12.49,3.11,2.82,2.08,4.23,5.44,4.23,10.09s-1.81,7.61-5.42,9.55c-.27.13-.27.27,0,.41ZM16.45,95.65v8.53c0,.23.11.34.34.34h6.7c1.85,0,3.27-.39,4.27-1.19.99-.79,1.49-1.91,1.49-3.35s-.5-2.64-1.49-3.45c-.99-.81-2.42-1.22-4.27-1.22h-6.7c-.23,0-.34.11-.34.34ZM28.24,122.16c.99-.83,1.49-2.04,1.49-3.62s-.49-2.72-1.46-3.55c-.97-.84-2.38-1.25-4.23-1.25h-7.25c-.23,0-.34.11-.34.34v9.01c0,.23.11.34.34.34h7.25c1.81,0,3.21-.42,4.2-1.25Z"/>
    <path class="st1" d="M71.44,132.49l-7.99-18.01c-.09-.18-.23-.27-.41-.27h-4.47c-.23,0-.34.11-.34.34v17.74c0,.23-.08.42-.24.58-.16.16-.35.24-.58.24h-9.62c-.23,0-.42-.08-.58-.24-.16-.16-.24-.35-.24-.58v-45.78c0-.23.08-.42.24-.58.16-.16.35-.24.58-.24h20.11c2.98,0,5.6.61,7.86,1.83,2.26,1.22,4.01,2.95,5.25,5.18,1.24,2.23,1.86,4.8,1.86,7.69s-.75,5.64-2.23,7.86c-1.49,2.21-3.57,3.82-6.23,4.81-.23.09-.29.25-.2.47l8.94,18.62c.09.18.14.32.14.41,0,.36-.25.54-.75.54h-10.16c-.45,0-.77-.2-.95-.61ZM58.23,95.65v9.62c0,.23.11.34.34.34h7.52c1.67,0,3.02-.46,4.06-1.39,1.04-.92,1.56-2.16,1.56-3.69s-.52-2.84-1.56-3.79c-1.04-.95-2.39-1.42-4.06-1.42h-7.52c-.23,0-.34.11-.34.34Z"/>
    <path class="st1" d="M119.04,132.42l-1.76-6.03c-.09-.18-.2-.27-.34-.27h-15.44c-.14,0-.25.09-.34.27l-1.76,6.03c-.14.45-.45.68-.95.68h-10.36c-.27,0-.47-.08-.61-.24-.14-.16-.16-.39-.07-.71l14.49-45.78c.14-.45.43-.68.88-.68h12.8c.45,0,.75.23.88.68l14.56,45.78c.04.09.07.2.07.34,0,.41-.25.61-.75.61h-10.36c-.5,0-.81-.22-.95-.68ZM104.14,117.45h10.09c.27,0,.36-.13.27-.41l-5.15-17.4c-.05-.18-.11-.26-.2-.24-.09.02-.16.1-.2.24l-5.08,17.4c-.05.27.04.41.27.41Z"/>
    <path class="st1" d="M163.16,85.93c.16-.16.35-.24.58-.24h9.62c.23,0,.42.08.58.24.16.16.24.35.24.58v45.78c0,.23-.08.42-.24.58-.16.16-.35.24-.58.24h-9.21c-.45,0-.77-.18-.95-.54l-15.57-25.87c-.09-.14-.18-.19-.27-.17-.09.02-.14.12-.14.3l.07,25.46c0,.23-.08.42-.24.58-.16.16-.35.24-.58.24h-9.62c-.23,0-.42-.08-.58-.24-.16-.16-.24-.35-.24-.58v-45.78c0-.23.08-.42.24-.58.16-.16.35-.24.58-.24h9.28c.45,0,.77.18.95.54l15.51,25.8c.09.14.18.19.27.17.09-.02.14-.12.14-.3l-.07-25.39c0-.23.08-.42.24-.58Z"/>
    <path class="st1" d="M180.9,132.86c-.16-.16-.24-.35-.24-.58v-45.78c0-.23.08-.42.24-.58.16-.16.35-.24.58-.24h17.27c3.52,0,6.64.61,9.35,1.83s4.81,2.96,6.3,5.21c1.49,2.26,2.23,4.85,2.23,7.79v17.74c0,2.94-.74,5.53-2.23,7.79-1.49,2.26-3.59,4-6.3,5.21s-5.82,1.83-9.35,1.83h-17.27c-.23,0-.42-.08-.58-.24ZM192.24,123.48h6.97c1.81,0,3.27-.64,4.4-1.93,1.13-1.29,1.71-3.01,1.76-5.18v-13.95c0-2.17-.58-3.89-1.73-5.18-1.15-1.29-2.65-1.93-4.5-1.93h-6.91c-.23,0-.34.11-.34.34v27.49c0,.23.11.34.34.34Z"/>
    <path class="st1" d="M229.93,131.84c-2.78-1.2-4.92-2.91-6.43-5.15-1.51-2.23-2.27-4.82-2.27-7.75v-1.29c0-.22.08-.42.24-.58.16-.16.35-.24.58-.24h9.41c.23,0,.42.08.58.24.16.16.24.35.24.58v.81c0,1.49.75,2.79,2.23,3.89,1.49,1.11,3.5,1.66,6.03,1.66,1.99,0,3.45-.43,4.4-1.29.95-.86,1.42-1.85,1.42-2.98,0-.9-.28-1.64-.85-2.2-.56-.56-1.32-1.04-2.27-1.42-.95-.38-2.42-.91-4.4-1.59-.27-.13-.54-.24-.81-.3-.27-.07-.52-.15-.74-.24-2.94-.95-5.49-1.97-7.65-3.08-2.17-1.11-4.02-2.64-5.55-4.6-1.54-1.96-2.3-4.39-2.3-7.28s.73-5.25,2.2-7.35c1.47-2.1,3.51-3.71,6.13-4.84,2.62-1.13,5.58-1.69,8.87-1.69,3.48,0,6.6.63,9.38,1.9s4.95,3.05,6.53,5.35c1.58,2.3,2.37,4.94,2.37,7.92v.95c0,.23-.08.42-.24.58-.16.16-.35.24-.58.24h-9.41c-.23,0-.42-.08-.58-.24-.16-.16-.24-.35-.24-.58v-.47c0-1.58-.7-2.98-2.1-4.2-1.4-1.22-3.27-1.83-5.62-1.83-1.76,0-3.14.36-4.13,1.08-.99.72-1.49,1.74-1.49,3.05,0,.99.32,1.82.95,2.47.63.65,1.61,1.26,2.95,1.83,1.33.56,3.37,1.3,6.13,2.2,3.16,1.08,5.62,2.03,7.38,2.84,1.76.81,3.42,2.13,4.98,3.96,1.56,1.83,2.34,4.23,2.34,7.21s-.74,5.46-2.23,7.58c-1.49,2.12-3.58,3.76-6.26,4.91-2.69,1.15-5.81,1.73-9.38,1.73-3.75,0-7.01-.6-9.79-1.79Z"/>
    <path class="st1" d="M319.35,132.62c0,.32-.25.47-.75.47h-10.7c-.45,0-.79-.13-1.02-.41l-2.3-2.5c-.09-.09-.25-.11-.47-.07-4.24,2.35-8.71,3.52-13.41,3.52-4.33,0-7.98-1.02-10.94-3.05-2.96-2.03-4.44-5.1-4.44-9.21,0-2.98.78-5.48,2.34-7.52,1.56-2.03,3.67-3.84,6.33-5.42.27-.18.29-.34.07-.47-2.08-2.48-3.45-4.47-4.13-5.96-.68-1.49-1.02-3.09-1.02-4.81,0-2.21.61-4.23,1.83-6.06,1.22-1.83,2.93-3.28,5.15-4.37,2.21-1.08,4.76-1.62,7.65-1.62s5.56.55,7.89,1.66c2.32,1.11,4.14,2.64,5.45,4.6,1.31,1.96,1.96,4.23,1.96,6.81,0,2.8-.75,5.21-2.23,7.25-1.49,2.03-3.52,3.86-6.09,5.49-.23.13-.25.29-.07.47.95,1.08,2.46,2.75,4.54,5.01.14.18.29.18.47,0,1.9-1.9,3.32-3.68,4.27-5.35.14-.22.31-.37.51-.44.2-.07.42-.03.64.1l7.11,4.06c.5.32.61.68.34,1.08-1.85,3.07-3.91,5.76-6.16,8.06-.14.13-.11.29.07.47.95,1.13,2.69,3.07,5.21,5.82.36.41.68.77.95,1.08s.5.56.68.74c.18.27.27.45.27.54ZM297,122.67c.23-.14.25-.29.07-.47l-2.98-3.18c-.18-.18-1.08-1.15-2.71-2.91-.09-.14-.25-.16-.47-.07-1.22.72-2.17,1.42-2.84,2.1s-1.08,1.42-1.22,2.23c-.05.18-.07.43-.07.75,0,.95.4,1.73,1.19,2.34.79.61,1.82.92,3.08.92.54,0,1.11-.07,1.69-.2,1.49-.32,2.91-.81,4.27-1.49ZM291.14,96.16c-.65.57-.98,1.28-.98,2.13,0,.5.19,1.06.58,1.69.38.63,1.21,1.72,2.47,3.25.09.18.25.23.47.14,1.26-.77,2.23-1.53,2.91-2.3.68-.77,1.02-1.62,1.02-2.57s-.35-1.77-1.05-2.34c-.7-.56-1.61-.85-2.74-.85s-2.02.28-2.68.85Z"/>
    <path class="st1" d="M373.83,85.93c.16.16.24.35.24.58v8.06c0,.23-.08.42-.24.58-.16.16-.35.24-.58.24h-11.85c-.23,0-.34.11-.34.34v36.57c0,.23-.08.42-.24.58-.16.16-.35.24-.58.24h-9.62c-.23,0-.42-.08-.58-.24-.16-.16-.24-.35-.24-.58v-36.57c0-.23-.11-.34-.34-.34h-11.44c-.23,0-.42-.08-.58-.24-.16-.16-.24-.35-.24-.58v-8.06c0-.23.08-.42.24-.58.16-.16.35-.24.58-.24h35.21c.23,0,.42.08.58.24Z"/>
    <path class="st1" d="M403.76,85.93c.16-.16.35-.24.58-.24h9.62c.23,0,.42.08.58.24.16.16.24.35.24.58v45.78c0,.23-.08.42-.24.58-.16.16-.35.24-.58.24h-9.62c-.23,0-.42-.08-.58-.24-.16-.16-.24-.35-.24-.58v-18.01c0-.23-.11-.34-.34-.34h-12.66c-.23,0-.34.11-.34.34v18.01c0,.23-.08.42-.24.58-.16.16-.35.24-.58.24h-9.62c-.23,0-.42-.08-.58-.24-.16-.16-.24-.35-.24-.58v-45.78c0-.23.08-.42.24-.58.16-.16.35-.24.58-.24h9.62c.23,0,.42.08.58.24.16.16.24.35.24.58v17.47c0,.23.11.34.34.34h12.66c.23,0,.34-.11.34-.34v-17.47c0-.23.08-.42.24-.58Z"/>
    <path class="st1" d="M454.27,95.07c-.16.16-.35.24-.58.24h-21.26c-.23,0-.34.11-.34.34v8.33c0,.23.11.34.34.34h13.61c.23,0,.42.08.58.24.16.16.24.35.24.58v7.92c0,.23-.08.42-.24.58-.16.16-.35.24-.58.24h-13.61c-.23,0-.34.11-.34.34v8.94c0,.23.11.34.34.34h21.26c.23,0,.42.08.58.24.16.16.24.35.24.58v7.99c0,.23-.08.42-.24.58-.16.16-.35.24-.58.24h-32.03c-.23,0-.42-.08-.58-.24-.16-.16-.24-.35-.24-.58v-45.78c0-.23.08-.42.24-.58.16-.16.35-.24.58-.24h32.03c.23,0,.42.08.58.24.16.16.24.35.24.58v7.99c0,.23-.08.42-.24.57Z"/>
    <path class="st1" d="M460.16,132.86c-.16-.16-.24-.35-.24-.58v-45.78c0-.23.08-.42.24-.58.16-.16.35-.24.58-.24h9.62c.22,0,.42.08.57.24s.24.35.24.58v45.78c0,.23-.08.42-.24.58s-.35.24-.57.24h-9.62c-.23,0-.42-.08-.58-.24Z"/>
    <path class="st1" d="M502.32,132.49l-7.99-18.01c-.09-.18-.23-.27-.41-.27h-4.47c-.23,0-.34.11-.34.34v17.74c0,.23-.08.42-.24.58-.16.16-.35.24-.58.24h-9.62c-.23,0-.42-.08-.58-.24s-.24-.35-.24-.58v-45.78c0-.23.08-.42.24-.58s.35-.24.58-.24h20.11c2.98,0,5.6.61,7.85,1.83,2.26,1.22,4.01,2.95,5.25,5.18,1.24,2.23,1.86,4.8,1.86,7.69s-.75,5.64-2.23,7.86c-1.49,2.21-3.57,3.82-6.23,4.81-.23.09-.29.25-.2.47l8.94,18.62c.09.18.13.32.13.41,0,.36-.25.54-.74.54h-10.16c-.45,0-.77-.2-.95-.61ZM489.11,95.65v9.62c0,.23.11.34.34.34h7.52c1.67,0,3.02-.46,4.06-1.39,1.04-.92,1.56-2.16,1.56-3.69s-.52-2.84-1.56-3.79c-1.04-.95-2.39-1.42-4.06-1.42h-7.52c-.23,0-.34.11-.34.34Z"/>
    <path class="st1" d="M540.88,131.54c-2.73-1.4-4.85-3.39-6.37-5.96-1.51-2.57-2.27-5.55-2.27-8.94v-14.63c0-3.34.76-6.29,2.27-8.84,1.51-2.55,3.63-4.53,6.37-5.92,2.73-1.4,5.9-2.1,9.51-2.1s6.78.67,9.51,2,4.85,3.21,6.37,5.62c1.51,2.42,2.27,5.2,2.27,8.36,0,.23-.08.41-.24.54-.16.13-.35.2-.58.2l-9.62.61c-.54,0-.81-.25-.81-.75,0-2.12-.63-3.81-1.9-5.08-1.26-1.26-2.93-1.9-5.01-1.9s-3.75.64-5.01,1.93-1.9,2.97-1.9,5.04v15.37c0,2.08.63,3.75,1.9,5.01,1.26,1.26,2.93,1.9,5.01,1.9s3.75-.63,5.01-1.9c1.26-1.26,1.9-2.93,1.9-5.01,0-.5.27-.75.81-.75l9.62.47c.23,0,.42.07.58.2.16.14.24.29.24.47,0,3.21-.76,6.03-2.27,8.46-1.51,2.44-3.63,4.32-6.37,5.65s-5.9,2-9.51,2-6.78-.7-9.51-2.1Z"/>
    <path class="st1" d="M582.26,131.64c-2.78-1.47-4.93-3.53-6.47-6.2-1.54-2.66-2.3-5.76-2.3-9.28v-13.54c0-3.43.77-6.47,2.3-9.11,1.53-2.64,3.69-4.7,6.47-6.16s5.99-2.2,9.65-2.2,6.88.73,9.68,2.2c2.8,1.47,4.97,3.52,6.5,6.16,1.53,2.64,2.3,5.68,2.3,9.11v13.54c0,3.52-.77,6.61-2.3,9.28-1.54,2.66-3.7,4.73-6.5,6.2-2.8,1.47-6.03,2.2-9.68,2.2s-6.87-.73-9.65-2.2ZM597.16,122.13c1.33-1.4,2-3.27,2-5.62v-14.02c0-2.3-.67-4.17-2-5.59-1.33-1.42-3.08-2.13-5.25-2.13s-3.85.71-5.18,2.13c-1.33,1.42-2,3.28-2,5.59v14.02c0,2.35.67,4.22,2,5.62,1.33,1.4,3.06,2.1,5.18,2.1s3.92-.7,5.25-2.1Z"/>
    <path class="st1" d="M643.4,85.93c.16-.16.35-.24.58-.24h9.62c.23,0,.42.08.58.24.16.16.24.35.24.58v45.78c0,.23-.08.42-.24.58-.16.16-.35.24-.58.24h-9.21c-.45,0-.77-.18-.95-.54l-15.58-25.87c-.09-.14-.18-.19-.27-.17-.09.02-.14.12-.14.3l.07,25.46c0,.23-.08.42-.24.58-.16.16-.35.24-.58.24h-9.62c-.23,0-.42-.08-.58-.24s-.24-.35-.24-.58v-45.78c0-.23.08-.42.24-.58s.35-.24.58-.24h9.28c.45,0,.77.18.95.54l15.51,25.8c.09.14.18.19.27.17.09-.02.14-.12.14-.3l-.07-25.39c0-.23.08-.42.24-.58Z"/>
    <path class="st1" d="M668.53,131.84c-2.78-1.2-4.92-2.91-6.43-5.15s-2.27-4.82-2.27-7.75v-1.29c0-.22.08-.42.24-.58s.35-.24.58-.24h9.41c.23,0,.42.08.58.24.16.16.24.35.24.58v.81c0,1.49.75,2.79,2.23,3.89,1.49,1.11,3.5,1.66,6.03,1.66,1.99,0,3.45-.43,4.4-1.29.95-.86,1.42-1.85,1.42-2.98,0-.9-.28-1.64-.85-2.2-.57-.56-1.32-1.04-2.27-1.42-.95-.38-2.42-.91-4.4-1.59-.27-.13-.54-.24-.81-.3-.27-.07-.52-.15-.75-.24-2.93-.95-5.48-1.97-7.65-3.08s-4.02-2.64-5.55-4.6c-1.54-1.96-2.3-4.39-2.3-7.28s.73-5.25,2.2-7.35c1.47-2.1,3.51-3.71,6.13-4.84s5.58-1.69,8.87-1.69c3.48,0,6.6.63,9.38,1.9s4.95,3.05,6.53,5.35,2.37,4.94,2.37,7.92v.95c0,.23-.08.42-.24.58s-.35.24-.58.24h-9.41c-.23,0-.42-.08-.58-.24-.16-.16-.24-.35-.24-.58v-.47c0-1.58-.7-2.98-2.1-4.2-1.4-1.22-3.27-1.83-5.62-1.83-1.76,0-3.14.36-4.13,1.08-.99.72-1.49,1.74-1.49,3.05,0,.99.32,1.82.95,2.47.63.65,1.61,1.26,2.95,1.83,1.33.56,3.38,1.3,6.13,2.2,3.16,1.08,5.62,2.03,7.38,2.84s3.42,2.13,4.98,3.96,2.34,4.23,2.34,7.21-.75,5.46-2.23,7.58c-1.49,2.12-3.58,3.76-6.26,4.91-2.69,1.15-5.81,1.73-9.38,1.73-3.75,0-7.01-.6-9.79-1.79Z"/>
    <path class="st1" d="M710.04,131.57c-2.73-1.38-4.85-3.33-6.37-5.86-1.51-2.53-2.27-5.44-2.27-8.74v-30.47c0-.23.08-.42.24-.58s.35-.24.58-.24h9.62c.23,0,.42.08.58.24.16.16.24.35.24.58v30.47c0,2.12.62,3.83,1.86,5.11,1.24,1.29,2.9,1.93,4.98,1.93s3.67-.64,4.91-1.93c1.24-1.29,1.86-2.99,1.86-5.11v-30.47c0-.23.08-.42.24-.58.16-.16.35-.24.58-.24h9.62c.23,0,.42.08.58.24s.24.35.24.58v30.47c0,3.3-.75,6.21-2.23,8.74-1.49,2.53-3.6,4.48-6.33,5.86-2.73,1.38-5.88,2.07-9.45,2.07s-6.72-.69-9.45-2.07Z"/>
    <path class="st1" d="M775.21,85.69h9.55c.22,0,.42.08.58.24.16.16.24.35.24.58v45.78c0,.23-.08.42-.24.58-.16.16-.35.24-.58.24h-9.62c-.23,0-.42-.08-.58-.24-.16-.16-.24-.35-.24-.58v-27.22c0-.18-.05-.27-.14-.27s-.18.07-.27.2l-5.82,9.34c-.18.36-.5.54-.95.54h-4.81c-.45,0-.77-.18-.95-.54l-5.89-9.41c-.09-.13-.18-.2-.27-.2s-.13.09-.13.27v27.29c0,.23-.08.42-.24.58-.16.16-.35.24-.58.24h-9.62c-.23,0-.42-.08-.58-.24s-.24-.35-.24-.58v-45.78c0-.23.08-.42.24-.58s.35-.24.58-.24h9.55c.41,0,.72.18.95.54l9.41,14.76c.13.27.27.27.41,0l9.28-14.76c.18-.36.5-.54.95-.54Z"/>
    <path class="st1" d="M825.63,95.07c-.16.16-.35.24-.58.24h-21.26c-.23,0-.34.11-.34.34v8.33c0,.23.11.34.34.34h13.61c.23,0,.42.08.58.24.16.16.24.35.24.58v7.92c0,.23-.08.42-.24.58s-.35.24-.58.24h-13.61c-.23,0-.34.11-.34.34v8.94c0,.23.11.34.34.34h21.26c.23,0,.42.08.58.24.16.16.24.35.24.58v7.99c0,.23-.08.42-.24.58s-.35.24-.58.24h-32.03c-.23,0-.42-.08-.58-.24s-.24-.35-.24-.58v-45.78c0-.23.08-.42.24-.58s.35-.24.58-.24h32.03c.23,0,.42.08.58.24s.24.35.24.58v7.99c0,.23-.08.42-.24.57Z"/>
    <path class="st1" d="M855.73,132.49l-7.99-18.01c-.09-.18-.23-.27-.41-.27h-4.47c-.23,0-.34.11-.34.34v17.74c0,.23-.08.42-.24.58-.16.16-.35.24-.58.24h-9.62c-.23,0-.42-.08-.58-.24s-.24-.35-.24-.58v-45.78c0-.23.08-.42.24-.58s.35-.24.58-.24h20.11c2.98,0,5.6.61,7.85,1.83,2.26,1.22,4.01,2.95,5.25,5.18,1.24,2.23,1.86,4.8,1.86,7.69s-.75,5.64-2.23,7.86c-1.49,2.21-3.57,3.82-6.23,4.81-.23.09-.29.25-.2.47l8.94,18.62c.09.18.13.32.13.41,0,.36-.25.54-.74.54h-10.16c-.45,0-.77-.2-.95-.61ZM842.53,95.65v9.62c0,.23.11.34.34.34h7.52c1.67,0,3.02-.46,4.06-1.39,1.04-.92,1.56-2.16,1.56-3.69s-.52-2.84-1.56-3.79c-1.04-.95-2.39-1.42-4.06-1.42h-7.52c-.23,0-.34.11-.34.34Z"/>
    <path class="st1" d="M880.28,131.84c-2.78-1.2-4.92-2.91-6.43-5.15s-2.27-4.82-2.27-7.75v-1.29c0-.22.08-.42.24-.58s.35-.24.58-.24h9.41c.23,0,.42.08.58.24.16.16.24.35.24.58v.81c0,1.49.75,2.79,2.23,3.89,1.49,1.11,3.5,1.66,6.03,1.66,1.99,0,3.45-.43,4.4-1.29.95-.86,1.42-1.85,1.42-2.98,0-.9-.28-1.64-.85-2.2-.57-.56-1.32-1.04-2.27-1.42-.95-.38-2.42-.91-4.4-1.59-.27-.13-.54-.24-.81-.3-.27-.07-.52-.15-.75-.24-2.93-.95-5.48-1.97-7.65-3.08s-4.02-2.64-5.55-4.6c-1.54-1.96-2.3-4.39-2.3-7.28s.73-5.25,2.2-7.35c1.47-2.1,3.51-3.71,6.13-4.84s5.58-1.69,8.87-1.69c3.48,0,6.6.63,9.38,1.9s4.95,3.05,6.53,5.35,2.37,4.94,2.37,7.92v.95c0,.23-.08.42-.24.58s-.35.24-.58.24h-9.41c-.23,0-.42-.08-.58-.24-.16-.16-.24-.35-.24-.58v-.47c0-1.58-.7-2.98-2.1-4.2-1.4-1.22-3.27-1.83-5.62-1.83-1.76,0-3.14.36-4.13,1.08-.99.72-1.49,1.74-1.49,3.05,0,.99.32,1.82.95,2.47.63.65,1.61,1.26,2.95,1.83,1.33.56,3.38,1.3,6.13,2.2,3.16,1.08,5.62,2.03,7.38,2.84s3.42,2.13,4.98,3.96,2.34,4.23,2.34,7.21-.75,5.46-2.23,7.58c-1.49,2.12-3.58,3.76-6.26,4.91-2.69,1.15-5.81,1.73-9.38,1.73-3.75,0-7.01-.6-9.79-1.79Z"/>
  </g>
</svg>