<?xml version="1.0" encoding="UTF-8"?>
<svg id="Layer_1" xmlns="http://www.w3.org/2000/svg" version="1.1" viewBox="0 0 764 150">
  <!-- Generator: Adobe Illustrator 29.6.1, SVG Export Plug-In . SVG Version: 2.1.1 Build 9)  -->
  <defs>
    <style>
      .st0 {
        fill: none;
      }

      .st1 {
        fill: #fff;
      }

      .st2 {
        fill: #00e1ff;
      }
    </style>
  </defs>
  <path class="st2" d="M214.18,27.59c1.46.92,2.59,2.2,3.39,3.85s1.2,3.53,1.2,5.64c0,3.16-.85,5.69-2.55,7.6-1.7,1.9-3.93,2.86-6.68,2.86h-3.82c-.17,0-.26.09-.26.25v13.56c0,.17-.06.31-.18.43s-.26.18-.43.18h-5.97c-.17,0-.31-.06-.43-.18s-.18-.26-.18-.43V26.82c0-.17.06-.31.18-.43s.26-.18.43-.18h10.3c1.87,0,3.54.46,5,1.38h0ZM210.58,40.67c.66-.83,1-1.98,1-3.44s-.33-2.67-1-3.52c-.66-.85-1.54-1.27-2.63-1.27h-2.24c-.17,0-.26.08-.26.25v8.98c0,.17.08.25.26.25h2.24c1.09,0,1.96-.42,2.63-1.25Z"/>
  <path class="st2" d="M224.66,59.48c-1.85-1.92-2.78-4.48-2.78-7.67v-24.94c0-.17.06-.31.18-.43s.26-.18.43-.18h5.97c.17,0,.31.06.43.18s.18.26.18.43v25.65c0,1.09.27,1.97.82,2.65.54.68,1.26,1.02,2.14,1.02s1.59-.34,2.12-1.02.79-1.56.79-2.65v-25.65c0-.17.06-.31.18-.43s.26-.18.43-.18h5.97c.17,0,.31.06.43.18s.18.26.18.43v24.94c0,3.2-.93,5.75-2.78,7.67s-4.29,2.88-7.32,2.88-5.52-.96-7.37-2.88h0Z"/>
  <path class="st2" d="M250.44,61.19c-1.5-.78-2.65-1.88-3.47-3.29s-1.22-3.03-1.22-4.87v-1.48c0-.17.06-.31.18-.43s.26-.18.43-.18h5.86c.17,0,.31.06.43.18s.18.26.18.43v1.12c0,1.05.27,1.9.82,2.55.54.65,1.22.97,2.04.97s1.5-.31,2.04-.92c.54-.61.82-1.41.82-2.4s-.34-1.89-1.02-2.63c-.68-.73-2.01-1.81-3.98-3.24-1.7-1.22-3.08-2.31-4.13-3.26-1.05-.95-1.96-2.12-2.7-3.52-.75-1.39-1.12-3.01-1.12-4.84,0-2.89.9-5.2,2.7-6.94s4.18-2.6,7.14-2.6,5.4.9,7.22,2.7c1.82,1.8,2.73,4.16,2.73,7.09v1.22c0,.17-.06.31-.18.43s-.26.18-.43.18h-5.86c-.17,0-.32-.06-.43-.18-.12-.12-.18-.26-.18-.43v-1.38c0-1.05-.26-1.89-.79-2.52s-1.22-.94-2.07-.94-1.48.3-1.99.89c-.51.6-.76,1.42-.76,2.47s.32,1.92.97,2.7c.65.78,1.92,1.87,3.83,3.26,2.11,1.56,3.7,2.83,4.77,3.8s1.9,2.04,2.5,3.21c.59,1.17.89,2.58.89,4.21,0,2.99-.92,5.37-2.75,7.14-1.84,1.77-4.25,2.65-7.24,2.65-1.97,0-3.71-.39-5.2-1.17l-.03.02Z"/>
  <path class="st2" d="M282.08,26.44c.12-.12.26-.18.43-.18h5.97c.17,0,.31.06.43.18s.18.26.18.43v34.47c0,.17-.06.31-.18.43s-.26.18-.43.18h-5.97c-.17,0-.31-.06-.43-.18s-.18-.26-.18-.43v-13.92c0-.17-.09-.25-.25-.25h-5.1c-.17,0-.25.09-.25.25v13.92c0,.17-.06.31-.18.43s-.26.18-.43.18h-5.97c-.17,0-.31-.06-.43-.18s-.18-.26-.18-.43V26.87c0-.17.06-.31.18-.43s.26-.18.43-.18h5.97c.17,0,.31.06.43.18s.18.26.18.43v13.87c0,.17.08.25.25.25h5.1c.17,0,.25-.08.25-.25v-13.87c0-.17.06-.31.18-.43Z"/>
  <path class="st2" d="M293.75,61.78c-.12-.12-.18-.26-.18-.43V26.87c0-.17.06-.31.18-.43s.26-.18.43-.18h5.97c.17,0,.31.06.43.18s.18.26.18.43v34.47c0,.17-.06.31-.18.43s-.26.18-.43.18h-5.97c-.17,0-.31-.06-.43-.18h0Z"/>
  <path class="st2" d="M320.07,26.44c.12-.12.26-.18.43-.18h5.92c.17,0,.31.06.43.18s.18.26.18.43v34.47c0,.17-.06.31-.18.43s-.26.18-.43.18h-6.73c-.34,0-.56-.17-.66-.51l-6.32-19.74c-.03-.1-.09-.14-.18-.13-.08.02-.13.08-.13.18l.05,19.58c0,.17-.06.31-.18.43s-.26.18-.43.18h-5.92c-.17,0-.31-.06-.43-.18s-.18-.26-.18-.43V26.87c0-.17.06-.31.18-.43s.26-.18.43-.18h6.68c.34,0,.56.17.66.51l6.38,19.74c.03.1.09.14.18.13.08-.02.13-.08.13-.18l-.05-19.58c0-.17.06-.31.18-.43h0Z"/>
  <path class="st2" d="M333.78,59.74c-1.85-1.75-2.78-4.09-2.78-7.01v-17.24c0-2.92.93-5.26,2.78-7.01s4.31-2.63,7.37-2.63,5.52.88,7.39,2.65c1.87,1.77,2.8,4.11,2.8,7.04v1.94c0,.17-.06.31-.18.43s-.26.18-.43.18h-5.97c-.17,0-.31-.06-.43-.18s-.18-.26-.18-.43v-2.04c0-1.02-.27-1.84-.82-2.47-.54-.63-1.27-.94-2.19-.94s-1.6.31-2.14.94c-.54.63-.82,1.45-.82,2.47v17.34c0,1.02.27,1.84.82,2.47.54.63,1.26.94,2.14.94s1.65-.31,2.19-.94c.54-.63.82-1.45.82-2.47v-4.08c0-.17-.09-.25-.26-.25h-2.24c-.17,0-.31-.06-.43-.18s-.18-.26-.18-.43v-4.54c0-.17.06-.31.18-.43s.26-.18.43-.18h9.08c.17,0,.31.06.43.18s.18.26.18.43v9.43c0,2.92-.93,5.26-2.8,7.01s-4.33,2.63-7.39,2.63-5.52-.87-7.37-2.63Z"/>
  <path class="st2" d="M365.71,61.78c-.12-.12-.18-.26-.18-.43V26.87c0-.17.06-.31.18-.43s.26-.18.43-.18h5.97c.17,0,.31.06.43.18s.18.26.18.43v28.66c0,.17.08.25.25.25h10.71c.17,0,.31.06.43.18s.18.26.18.43v4.95c0,.17-.06.31-.18.43s-.26.18-.43.18h-17.54c-.17,0-.31-.06-.43-.18h0Z"/>
  <path class="st2" d="M387.43,61.78c-.12-.12-.18-.26-.18-.43V26.87c0-.17.06-.31.18-.43s.26-.18.43-.18h5.97c.17,0,.31.06.43.18s.18.26.18.43v34.47c0,.17-.06.31-.18.43s-.26.18-.43.18h-5.97c-.17,0-.31-.06-.43-.18h0Z"/>
  <path class="st2" d="M416.06,26.26h5.92c.17,0,.31.06.43.18s.18.26.18.43v34.47c0,.17-.06.31-.18.43s-.26.18-.43.18h-5.97c-.17,0-.31-.06-.43-.18s-.18-.26-.18-.43v-22.9c0-.14-.03-.2-.1-.2s-.14.05-.2.15l-3.98,7.04c-.17.27-.31.41-.41.41s-.24-.14-.41-.41l-3.98-7.04c-.07-.1-.14-.15-.2-.15s-.1.07-.1.2v22.9c0,.17-.06.31-.18.43s-.26.18-.43.18h-5.97c-.17,0-.31-.06-.43-.18s-.18-.26-.18-.43V26.87c0-.17.06-.31.18-.43s.26-.18.43-.18h5.86c.34,0,.59.14.76.41l4.54,8.11c.1.14.2.14.31,0l4.39-8.11c.14-.27.39-.41.76-.41Z"/>
  <path class="st2" d="M427.1,61.78c-.12-.12-.18-.26-.18-.43V26.87c0-.17.06-.31.18-.43s.26-.18.43-.18h5.97c.17,0,.31.06.43.18s.18.26.18.43v34.47c0,.17-.06.31-.18.43s-.26.18-.43.18h-5.97c-.17,0-.31-.06-.43-.18h0Z"/>
  <path class="st2" d="M458.87,26.44c.12.12.18.26.18.43v4.95c0,.17-.06.31-.18.43s-.26.18-.43.18h-6.38c-.17,0-.25.08-.25.25v28.66c0,.17-.06.31-.18.43s-.26.18-.43.18h-5.97c-.17,0-.31-.06-.43-.18s-.18-.26-.18-.43v-28.66c0-.17-.08-.25-.25-.25h-6.12c-.17,0-.31-.06-.43-.18s-.18-.26-.18-.43v-4.95c0-.17.06-.31.18-.43s.26-.18.43-.18h20.19c.17,0,.31.06.43.18h0Z"/>
  <path class="st2" d="M466.5,61.19c-1.5-.78-2.65-1.88-3.47-3.29s-1.22-3.03-1.22-4.87v-1.48c0-.17.06-.31.18-.43s.26-.18.43-.18h5.87c.17,0,.31.06.43.18s.18.26.18.43v1.12c0,1.05.27,1.9.82,2.55.54.65,1.22.97,2.04.97s1.5-.31,2.04-.92c.54-.61.82-1.41.82-2.4s-.34-1.89-1.02-2.63c-.68-.73-2.01-1.81-3.98-3.24-1.7-1.22-3.08-2.31-4.13-3.26-1.05-.95-1.96-2.12-2.7-3.52-.75-1.39-1.12-3.01-1.12-4.84,0-2.89.9-5.2,2.7-6.94,1.8-1.73,4.18-2.6,7.14-2.6s5.4.9,7.22,2.7c1.82,1.8,2.73,4.16,2.73,7.09v1.22c0,.17-.06.31-.18.43s-.26.18-.43.18h-5.86c-.17,0-.31-.06-.43-.18s-.18-.26-.18-.43v-1.38c0-1.05-.26-1.89-.79-2.52s-1.22-.94-2.07-.94-1.48.3-1.99.89c-.51.6-.76,1.42-.76,2.47s.32,1.92.97,2.7c.65.78,1.92,1.87,3.82,3.26,2.11,1.56,3.7,2.83,4.77,3.8,1.07.97,1.9,2.04,2.5,3.21.59,1.17.89,2.58.89,4.21,0,2.99-.92,5.37-2.75,7.14-1.84,1.77-4.25,2.65-7.24,2.65-1.97,0-3.71-.39-5.2-1.17l-.03.02Z"/>
  <path class="st1" d="M509.69,61.4l-.82-4.9c0-.17-.1-.25-.31-.25h-6.48c-.2,0-.31.09-.31.25l-.82,4.9c-.03.37-.25.56-.66.56h-5.97c-.44,0-.61-.22-.51-.66l7.5-34.47c.07-.37.29-.56.66-.56h6.88c.37,0,.59.19.66.56l7.45,34.47.05.2c0,.31-.19.46-.56.46h-6.12c-.41,0-.63-.19-.66-.56h.02ZM503.01,50.69h4.59c.17,0,.24-.08.2-.25l-2.4-13.92c-.03-.1-.08-.15-.15-.15s-.12.05-.15.15l-2.29,13.92c0,.17.07.25.2.25h0Z"/>
  <path class="st1" d="M534.7,26.44c.12-.12.26-.18.43-.18h5.92c.17,0,.31.06.43.18s.18.26.18.43v34.47c0,.17-.06.31-.18.43s-.26.18-.43.18h-6.73c-.34,0-.56-.17-.66-.51l-6.32-19.74c-.04-.1-.09-.14-.18-.13-.08.02-.13.08-.13.18l.05,19.58c0,.17-.06.31-.18.43s-.26.18-.43.18h-5.92c-.17,0-.31-.06-.43-.18s-.18-.26-.18-.43V26.87c0-.17.06-.31.18-.43s.26-.18.43-.18h6.68c.34,0,.56.17.66.51l6.37,19.74c.03.1.09.14.18.13s.13-.08.13-.18l-.05-19.58c0-.17.06-.31.18-.43h0Z"/>
  <path class="st1" d="M546.33,61.78c-.12-.12-.18-.26-.18-.43V26.87c0-.17.06-.31.18-.43s.26-.18.43-.18h9.23c3.09,0,5.58.9,7.45,2.7,1.87,1.8,2.8,4.2,2.8,7.19v15.91c0,2.99-.94,5.39-2.8,7.19-1.87,1.8-4.35,2.7-7.45,2.7h-9.23c-.17,0-.31-.06-.43-.18h0ZM553.59,55.79l2.29-.05c.92-.03,1.67-.42,2.24-1.17.58-.75.88-1.73.92-2.96v-14.99c0-1.29-.29-2.31-.87-3.06s-1.36-1.12-2.35-1.12h-2.24c-.17,0-.25.08-.25.25v22.85c0,.17.08.25.25.25h.01Z"/>
  <path class="st1" d="M131.75,115.19c-1.5-.78-2.65-1.88-3.47-3.29-.82-1.41-1.22-3.03-1.22-4.87v-1.48c0-.17.06-.31.18-.43s.26-.18.43-.18h5.86c.17,0,.31.06.43.18s.18.26.18.43v1.12c0,1.05.27,1.9.82,2.55.54.65,1.22.97,2.04.97s1.5-.31,2.04-.92.82-1.41.82-2.4-.34-1.89-1.02-2.63c-.68-.73-2.01-1.81-3.98-3.24-1.7-1.22-3.08-2.31-4.13-3.26-1.05-.95-1.96-2.12-2.7-3.52-.75-1.39-1.12-3.01-1.12-4.84,0-2.89.9-5.2,2.7-6.94s4.18-2.6,7.14-2.6,5.4.9,7.22,2.7c1.82,1.8,2.73,4.16,2.73,7.09v1.22c0,.17-.06.31-.18.43s-.26.18-.43.18h-5.86c-.17,0-.32-.06-.43-.18-.12-.12-.18-.26-.18-.43v-1.38c0-1.05-.26-1.89-.79-2.52s-1.22-.94-2.07-.94-1.48.3-1.99.89c-.51.6-.76,1.42-.76,2.47s.32,1.92.97,2.7,1.92,1.87,3.83,3.26c2.11,1.56,3.7,2.83,4.77,3.8s1.9,2.04,2.5,3.21c.59,1.17.89,2.58.89,4.21,0,2.99-.92,5.37-2.75,7.14-1.84,1.77-4.25,2.65-7.24,2.65-1.97,0-3.71-.39-5.2-1.17l-.03.02Z"/>
  <path class="st1" d="M168.79,86.25c-.12.12-.26.18-.43.18h-10.66c-.17,0-.25.08-.25.25v8.06c0,.17.08.25.25.25h6.12c.17,0,.31.06.43.18s.18.26.18.43v4.95c0,.17-.06.31-.18.43s-.26.18-.43.18h-6.12c-.17,0-.25.09-.25.25v8.11c0,.17.08.25.25.25h10.66c.17,0,.31.06.43.18s.18.26.18.43v4.95c0,.17-.06.31-.18.43s-.26.18-.43.18h-17.49c-.17,0-.31-.06-.43-.18s-.18-.26-.18-.43v-34.47c0-.17.06-.31.18-.43s.26-.18.43-.18h17.49c.17,0,.31.06.43.18s.18.26.18.43v4.95c0,.17-.06.31-.18.43h0Z"/>
  <path class="st1" d="M192.81,80.44c.12.12.18.26.18.43v4.95c0,.17-.06.31-.18.43s-.26.18-.43.18h-6.38c-.17,0-.25.08-.25.25v28.66c0,.17-.06.31-.18.43s-.26.18-.43.18h-5.97c-.17,0-.31-.06-.43-.18s-.18-.26-.18-.43v-28.66c0-.17-.08-.25-.25-.25h-6.12c-.17,0-.31-.06-.43-.18s-.18-.26-.18-.43v-4.95c0-.17.06-.31.18-.43s.26-.18.43-.18h20.19c.17,0,.31.06.43.18h0Z"/>
  <path class="st1" d="M216.68,80.44c.12.12.18.26.18.43v4.95c0,.17-.06.31-.18.43s-.26.18-.43.18h-6.37c-.17,0-.25.08-.25.25v28.66c0,.17-.06.31-.18.43s-.26.18-.43.18h-5.97c-.17,0-.32-.06-.43-.18-.12-.12-.18-.26-.18-.43v-28.66c0-.17-.08-.25-.25-.25h-6.12c-.17,0-.32-.06-.43-.18-.12-.12-.18-.26-.18-.43v-4.95c0-.17.06-.31.18-.43s.26-.18.43-.18h20.19c.17,0,.31.06.43.18h-.01Z"/>
  <path class="st1" d="M220.5,115.78c-.12-.12-.18-.26-.18-.43v-34.47c0-.17.06-.31.18-.43s.26-.18.43-.18h5.97c.17,0,.31.06.43.18s.18.26.18.43v34.47c0,.17-.06.31-.18.43s-.26.18-.43.18h-5.97c-.17,0-.31-.06-.43-.18Z"/>
  <path class="st1" d="M246.81,80.44c.12-.12.26-.18.43-.18h5.92c.17,0,.31.06.43.18s.18.26.18.43v34.47c0,.17-.06.31-.18.43s-.26.18-.43.18h-6.73c-.34,0-.56-.17-.66-.51l-6.32-19.74c-.04-.1-.09-.14-.18-.13-.08.02-.13.08-.13.18l.05,19.58c0,.17-.06.31-.18.43s-.26.18-.43.18h-5.92c-.17,0-.31-.06-.43-.18s-.18-.26-.18-.43v-34.47c0-.17.06-.31.18-.43s.26-.18.43-.18h6.68c.34,0,.56.17.66.51l6.37,19.74c.03.1.09.14.18.13s.13-.08.13-.18l-.05-19.58c0-.17.06-.31.18-.43h0Z"/>
  <path class="st1" d="M260.53,113.74c-1.85-1.75-2.78-4.09-2.78-7.01v-17.24c0-2.92.93-5.26,2.78-7.01s4.31-2.63,7.37-2.63,5.52.88,7.39,2.65c1.87,1.77,2.8,4.11,2.8,7.04v1.94c0,.17-.06.31-.18.43s-.26.18-.43.18h-5.97c-.17,0-.32-.06-.43-.18-.12-.12-.18-.26-.18-.43v-2.04c0-1.02-.27-1.84-.82-2.47-.54-.63-1.28-.94-2.19-.94s-1.6.31-2.14.94c-.54.63-.82,1.45-.82,2.47v17.34c0,1.02.27,1.84.82,2.47.54.63,1.26.94,2.14.94s1.65-.31,2.19-.94c.54-.63.82-1.45.82-2.47v-4.08c0-.17-.08-.25-.25-.25h-2.24c-.17,0-.31-.06-.43-.18s-.18-.26-.18-.43v-4.54c0-.17.06-.31.18-.43s.26-.18.43-.18h9.08c.17,0,.31.06.43.18s.18.26.18.43v9.43c0,2.92-.94,5.26-2.8,7.01-1.87,1.75-4.33,2.63-7.39,2.63s-5.52-.87-7.37-2.63h-.01Z"/>
  <path class="st2" d="M307.04,80.44c.12-.12.26-.18.43-.18h5.92c.17,0,.31.06.43.18s.18.26.18.43v34.47c0,.17-.06.31-.18.43s-.26.18-.43.18h-6.73c-.34,0-.56-.17-.66-.51l-6.32-19.74c-.03-.1-.09-.14-.18-.13-.08.02-.13.08-.13.18l.05,19.58c0,.17-.06.31-.18.43s-.26.18-.43.18h-5.92c-.17,0-.31-.06-.43-.18s-.18-.26-.18-.43v-34.47c0-.17.06-.31.18-.43s.26-.18.43-.18h6.68c.34,0,.56.17.66.51l6.38,19.74c.03.1.09.14.18.13.08-.02.13-.08.13-.18l-.05-19.58c0-.17.06-.31.18-.43h0Z"/>
  <path class="st2" d="M337.02,86.25c-.12.12-.26.18-.43.18h-10.66c-.17,0-.25.08-.25.25v8.06c0,.17.08.25.25.25h6.12c.17,0,.31.06.43.18s.18.26.18.43v4.95c0,.17-.06.31-.18.43s-.26.18-.43.18h-6.12c-.17,0-.25.09-.25.25v8.11c0,.17.08.25.25.25h10.66c.17,0,.31.06.43.18s.18.26.18.43v4.95c0,.17-.06.31-.18.43s-.26.18-.43.18h-17.49c-.17,0-.31-.06-.43-.18s-.18-.26-.18-.43v-34.47c0-.17.06-.31.18-.43s.26-.18.43-.18h17.49c.17,0,.31.06.43.18s.18.26.18.43v4.95c0,.17-.06.31-.18.43h0Z"/>
  <path class="st2" d="M346.53,115.4l-6.88-34.47-.05-.2c0-.31.19-.46.56-.46h6.22c.41,0,.63.19.66.56l2.91,18.36c.03.14.08.2.15.2s.12-.07.15-.2l2.75-18.36c.03-.37.25-.56.66-.56h5.15c.41,0,.63.19.66.56l3.01,18.36c.03.14.08.2.15.2s.12-.07.15-.2l2.6-18.36c.03-.37.25-.56.66-.56h6.02c.44,0,.63.22.56.66l-6.48,34.47c-.03.37-.25.56-.66.56h-5.51c-.41,0-.63-.19-.66-.56l-3.01-18.87c-.03-.14-.08-.2-.15-.2s-.12.07-.15.2l-2.7,18.87c-.03.37-.25.56-.66.56h-5.46c-.38,0-.6-.19-.66-.56h.01Z"/>
  <path class="st2" d="M403.8,113.41c-1.9,1.7-4.37,2.55-7.39,2.55h-9.64c-.17,0-.31-.06-.43-.18s-.18-.26-.18-.43v-34.47c0-.17.06-.31.18-.43s.26-.18.43-.18h8.52c3.4,0,6.06.82,7.98,2.45s2.88,4.06,2.88,7.29-1.16,5.81-3.47,7.34c-.14.1-.15.2-.05.31,2.69,1.9,4.03,4.73,4.03,8.47,0,3.16-.95,5.59-2.86,7.29h0ZM393.35,86.69v8.01c0,.17.08.25.25.25h1.84c1.16,0,2.06-.37,2.7-1.1.65-.73.97-1.76.97-3.08,0-1.39-.31-2.46-.94-3.21s-1.54-1.12-2.73-1.12h-1.84c-.17,0-.25.08-.25.25ZM398.5,108.51c.65-.82.97-1.97.97-3.47s-.32-2.69-.97-3.57-1.51-1.33-2.6-1.33h-2.29c-.17,0-.25.09-.25.26v9.08c0,.17.08.26.25.26h2.24c1.12,0,2.01-.41,2.65-1.22h0Z"/>
  <path class="st2" d="M428.51,86.25c-.12.12-.26.18-.43.18h-10.66c-.17,0-.25.08-.25.25v8.06c0,.17.08.25.25.25h6.12c.17,0,.31.06.43.18s.18.26.18.43v4.95c0,.17-.06.31-.18.43s-.26.18-.43.18h-6.12c-.17,0-.25.09-.25.25v8.11c0,.17.08.25.25.25h10.66c.17,0,.31.06.43.18s.18.26.18.43v4.95c0,.17-.06.31-.18.43s-.26.18-.43.18h-17.49c-.17,0-.31-.06-.43-.18s-.18-.26-.18-.43v-34.47c0-.17.06-.31.18-.43s.26-.18.43-.18h17.49c.17,0,.31.06.43.18s.18.26.18.43v4.95c0,.17-.06.31-.18.43h0Z"/>
  <path class="st2" d="M447.07,80.44c.12-.12.26-.18.43-.18h5.92c.17,0,.31.06.43.18s.18.26.18.43v34.47c0,.17-.06.31-.18.43s-.26.18-.43.18h-6.73c-.34,0-.56-.17-.66-.51l-6.32-19.74c-.03-.1-.09-.14-.18-.13-.08.02-.13.08-.13.18l.05,19.58c0,.17-.06.31-.18.43s-.26.18-.43.18h-5.92c-.17,0-.31-.06-.43-.18s-.18-.26-.18-.43v-34.47c0-.17.06-.31.18-.43s.26-.18.43-.18h6.68c.34,0,.56.17.66.51l6.38,19.74c.03.1.09.14.18.13.08-.02.13-.08.13-.18l-.05-19.58c0-.17.06-.31.18-.43h0Z"/>
  <path class="st2" d="M460.78,113.64c-1.85-1.82-2.78-4.26-2.78-7.32v-16.52c0-3.03.93-5.44,2.78-7.24,1.85-1.8,4.31-2.7,7.37-2.7s5.57.9,7.42,2.7c1.85,1.8,2.78,4.22,2.78,7.24v.56c0,.17-.06.31-.18.43s-.26.18-.43.18l-5.97.25c-.41,0-.61-.19-.61-.56v-1.33c0-.99-.27-1.79-.82-2.4s-1.27-.92-2.19-.92-1.6.31-2.14.92-.82,1.41-.82,2.4v17.59c0,.99.27,1.78.82,2.37.54.6,1.26.89,2.14.89s1.65-.3,2.19-.89.82-1.38.82-2.37v-1.38c0-.17.06-.31.18-.43s.26-.18.43-.18l5.97.25c.17,0,.31.06.43.18s.18.26.18.43v.51c0,3.06-.93,5.5-2.8,7.32s-4.33,2.73-7.39,2.73-5.52-.91-7.37-2.73v.02Z"/>
  <path class="st2" d="M495.15,80.44c.12-.12.26-.18.43-.18h5.97c.17,0,.31.06.43.18s.18.26.18.43v34.47c0,.17-.06.31-.18.43s-.26.18-.43.18h-5.97c-.17,0-.31-.06-.43-.18s-.18-.26-.18-.43v-13.92c0-.17-.08-.25-.25-.25h-5.1c-.17,0-.25.09-.25.25v13.92c0,.17-.06.31-.18.43s-.26.18-.43.18h-5.97c-.17,0-.31-.06-.43-.18s-.18-.26-.18-.43v-34.47c0-.17.06-.31.18-.43s.26-.18.43-.18h5.97c.17,0,.31.06.43.18s.18.26.18.43v13.87c0,.17.08.25.25.25h5.1c.17,0,.25-.08.25-.25v-13.87c0-.17.06-.31.18-.43Z"/>
  <path class="st2" d="M523.74,80.26h5.92c.17,0,.31.06.43.18s.18.26.18.43v34.47c0,.17-.06.31-.18.43s-.26.18-.43.18h-5.97c-.17,0-.31-.06-.43-.18s-.18-.26-.18-.43v-22.9c0-.14-.03-.2-.1-.2s-.14.05-.2.15l-3.98,7.04c-.17.27-.31.41-.41.41s-.24-.14-.41-.41l-3.98-7.04c-.07-.1-.14-.15-.2-.15s-.1.07-.1.2v22.9c0,.17-.06.31-.18.43s-.26.18-.43.18h-5.97c-.17,0-.31-.06-.43-.18s-.18-.26-.18-.43v-34.47c0-.17.06-.31.18-.43s.26-.18.43-.18h5.86c.34,0,.59.14.76.41l4.54,8.11c.1.14.2.14.31,0l4.39-8.11c.14-.27.39-.41.76-.41h0Z"/>
  <path class="st2" d="M548.93,115.4l-.82-4.9c0-.17-.1-.25-.31-.25h-6.48c-.2,0-.31.09-.31.25l-.82,4.9c-.03.37-.25.56-.66.56h-5.97c-.44,0-.61-.22-.51-.66l7.5-34.47c.07-.37.29-.56.66-.56h6.88c.37,0,.59.19.66.56l7.45,34.47.05.2c0,.31-.19.46-.56.46h-6.12c-.41,0-.63-.19-.66-.56h.02ZM542.25,104.69h4.59c.17,0,.24-.08.2-.25l-2.4-13.92c-.03-.1-.08-.15-.15-.15s-.12.05-.15.15l-2.29,13.92c0,.17.07.25.2.25Z"/>
  <path class="st2" d="M572.54,115.45l-3.93-14.07c-.07-.14-.15-.2-.25-.2h-1.73c-.17,0-.25.09-.25.25v13.92c0,.17-.06.31-.18.43s-.26.18-.43.18h-5.97c-.17,0-.31-.06-.43-.18s-.18-.26-.18-.43v-34.47c0-.17.06-.31.18-.43s.26-.18.43-.18h10.3c1.87,0,3.54.45,5,1.35s2.59,2.17,3.39,3.8,1.2,3.5,1.2,5.61-.38,3.77-1.15,5.3c-.76,1.53-1.83,2.72-3.19,3.57-.07.03-.12.08-.15.13-.03.05-.03.11,0,.18l4.69,15.04.05.2c0,.34-.19.51-.56.51h-6.12c-.38,0-.61-.17-.71-.51h-.01ZM566.37,86.69v8.72c0,.17.08.25.25.25h2.29c1.05,0,1.91-.42,2.58-1.25.66-.83.99-1.95.99-3.34s-.33-2.56-.99-3.39-1.52-1.25-2.58-1.25h-2.29c-.17,0-.25.08-.25.25h0Z"/>
  <path class="st2" d="M583.37,115.78c-.12-.12-.18-.26-.18-.43v-34.47c0-.17.06-.31.18-.43s.26-.18.43-.18h5.97c.17,0,.31.06.43.18s.18.26.18.43v12.85c0,.14.04.21.13.23.08.02.14-.04.18-.18l6.58-13.05c.17-.31.41-.46.71-.46h6.32c.24,0,.4.06.48.18.08.12.08.3-.03.54l-7.55,14.69c-.03.14-.05.24-.05.31l8.01,19.28c.03.07.05.17.05.31,0,.27-.17.41-.51.41h-6.37c-.38,0-.61-.15-.71-.46l-5.3-13.36c-.03-.1-.08-.14-.15-.13-.07.02-.14.06-.2.13l-1.48,2.65c-.07.14-.1.24-.1.31v10.25c0,.17-.06.31-.18.43s-.26.18-.43.18h-5.97c-.17,0-.31-.06-.43-.18v-.03Z"/>
  <path class="st2" d="M611.09,115.19c-1.5-.78-2.65-1.88-3.47-3.29-.82-1.41-1.22-3.03-1.22-4.87v-1.48c0-.17.06-.31.18-.43s.26-.18.43-.18h5.87c.17,0,.31.06.43.18s.18.26.18.43v1.12c0,1.05.27,1.9.82,2.55.54.65,1.22.97,2.04.97s1.5-.31,2.04-.92.82-1.41.82-2.4-.34-1.89-1.02-2.63c-.68-.73-2.01-1.81-3.98-3.24-1.7-1.22-3.08-2.31-4.13-3.26-1.05-.95-1.96-2.12-2.7-3.52-.75-1.39-1.12-3.01-1.12-4.84,0-2.89.9-5.2,2.7-6.94,1.8-1.73,4.18-2.6,7.14-2.6s5.4.9,7.22,2.7c1.82,1.8,2.73,4.16,2.73,7.09v1.22c0,.17-.06.31-.18.43s-.26.18-.43.18h-5.86c-.17,0-.31-.06-.43-.18s-.18-.26-.18-.43v-1.38c0-1.05-.26-1.89-.79-2.52-.53-.63-1.22-.94-2.07-.94s-1.48.3-1.99.89c-.51.6-.76,1.42-.76,2.47s.32,1.92.97,2.7c.65.78,1.92,1.87,3.82,3.26,2.11,1.56,3.7,2.83,4.77,3.8s1.9,2.04,2.5,3.21c.59,1.17.89,2.58.89,4.21,0,2.99-.92,5.37-2.75,7.14-1.84,1.77-4.25,2.65-7.24,2.65-1.97,0-3.71-.39-5.2-1.17l-.03.02Z"/>
  <path class="st0" d="M630.19,115.01c-.76-.77-1.15-1.73-1.15-2.88s.37-2.16,1.12-2.91,1.72-1.12,2.91-1.12,2.16.37,2.91,1.12,1.12,1.72,1.12,2.91-.38,2.12-1.15,2.88c-.76.76-1.73,1.15-2.88,1.15s-2.12-.38-2.88-1.15h0Z"/>
</svg>