<?xml version="1.0" encoding="UTF-8"?>
<svg id="Layer_1" xmlns="http://www.w3.org/2000/svg" version="1.1" viewBox="0 0 764 251.29">
  <!-- Generator: Adobe Illustrator 29.6.1, SVG Export Plug-In . SVG Version: 2.1.1 Build 9)  -->
  <defs>
    <style>
      .st0 {
        fill: none;
        stroke: #fff;
        stroke-miterlimit: 10;
      }

      .st1 {
        fill: #fff;
      }

      .st2 {
        fill: #00e1ff;
      }
    </style>
  </defs>
  <g>
    <g>
      <path class="st2" d="M47.67,224.84l-.82-4.9c0-.17-.1-.25-.31-.25h-6.48c-.2,0-.31.09-.31.25l-.82,4.9c-.03.38-.25.56-.66.56h-5.97c-.44,0-.61-.22-.51-.66l7.5-34.47c.07-.37.29-.56.66-.56h6.88c.37,0,.59.19.66.56l7.45,34.47.05.2c0,.31-.19.46-.56.46h-6.12c-.41,0-.63-.19-.66-.56ZM40.99,214.13h4.59c.17,0,.24-.08.2-.25l-2.4-13.92c-.03-.1-.08-.15-.15-.15s-.12.05-.15.15l-2.29,13.92c0,.17.07.25.2.25Z"/>
      <path class="st2" d="M73.14,189.89c.12-.12.26-.18.43-.18h5.92c.17,0,.31.06.43.18.12.12.18.26.18.43v34.47c0,.17-.06.31-.18.43-.12.12-.26.18-.43.18h-6.73c-.34,0-.56-.17-.66-.51l-6.32-19.73c-.03-.1-.09-.14-.18-.13-.08.02-.13.08-.13.18l.05,19.58c0,.17-.06.31-.18.43s-.26.18-.43.18h-5.92c-.17,0-.31-.06-.43-.18s-.18-.26-.18-.43v-34.47c0-.17.06-.31.18-.43s.26-.18.43-.18h6.68c.34,0,.56.17.66.51l6.38,19.73c.03.1.09.14.18.13.08-.02.13-.08.13-.18l-.05-19.58c0-.17.06-.31.18-.43Z"/>
      <path class="st2" d="M105.27,189.89c.12.12.18.26.18.43v4.95c0,.17-.06.31-.18.43-.12.12-.26.18-.43.18h-6.37c-.17,0-.25.08-.25.25v28.66c0,.17-.06.31-.18.43s-.26.18-.43.18h-5.97c-.17,0-.32-.06-.43-.18-.12-.12-.18-.26-.18-.43v-28.66c0-.17-.08-.25-.25-.25h-6.12c-.17,0-.32-.06-.43-.18-.12-.12-.18-.26-.18-.43v-4.95c0-.17.06-.31.18-.43.12-.12.26-.18.43-.18h20.19c.17,0,.31.06.43.18Z"/>
      <path class="st2" d="M109.55,225.23c-.12-.12-.18-.26-.18-.43v-34.47c0-.17.06-.31.18-.43.12-.12.26-.18.43-.18h5.97c.17,0,.31.06.43.18s.18.26.18.43v34.47c0,.17-.06.31-.18.43s-.26.18-.43.18h-5.97c-.17,0-.31-.06-.43-.18Z"/>
      <path class="st2" d="M123.83,223.08c-1.85-1.82-2.78-4.26-2.78-7.32v-16.52c0-3.03.93-5.44,2.78-7.24,1.85-1.8,4.31-2.7,7.37-2.7s5.57.9,7.42,2.7c1.85,1.8,2.78,4.21,2.78,7.24v.56c0,.17-.06.32-.18.43-.12.12-.26.18-.43.18l-5.97.25c-.41,0-.61-.19-.61-.56v-1.33c0-.99-.27-1.79-.82-2.4-.54-.61-1.28-.92-2.19-.92s-1.6.31-2.14.92c-.54.61-.82,1.41-.82,2.4v17.59c0,.99.27,1.78.82,2.37.54.6,1.26.89,2.14.89s1.65-.3,2.19-.89c.54-.59.82-1.38.82-2.37v-1.38c0-.17.06-.31.18-.43.12-.12.26-.18.43-.18l5.97.25c.17,0,.31.06.43.18.12.12.18.26.18.43v.51c0,3.06-.94,5.5-2.8,7.32-1.87,1.82-4.33,2.73-7.39,2.73s-5.52-.91-7.37-2.73Z"/>
      <path class="st2" d="M145.86,225.23c-.12-.12-.18-.26-.18-.43v-34.47c0-.17.06-.31.18-.43.12-.12.26-.18.43-.18h5.97c.17,0,.31.06.43.18s.18.26.18.43v34.47c0,.17-.06.31-.18.43s-.26.18-.43.18h-5.97c-.17,0-.31-.06-.43-.18Z"/>
      <path class="st2" d="M173.73,191.03c1.46.92,2.59,2.2,3.39,3.85s1.2,3.53,1.2,5.63c0,3.16-.85,5.69-2.55,7.6-1.7,1.9-3.93,2.86-6.68,2.86h-3.82c-.17,0-.26.09-.26.26v13.56c0,.17-.06.31-.18.43-.12.12-.26.18-.43.18h-5.97c-.17,0-.31-.06-.43-.18s-.18-.26-.18-.43v-34.52c0-.17.06-.31.18-.43s.26-.18.43-.18h10.3c1.87,0,3.54.46,5,1.38ZM170.13,204.11c.66-.83,1-1.98,1-3.44s-.33-2.67-1-3.52c-.66-.85-1.54-1.28-2.63-1.28h-2.24c-.17,0-.26.08-.26.25v8.98c0,.17.08.25.26.25h2.24c1.09,0,1.96-.42,2.63-1.25Z"/>
      <path class="st2" d="M194.64,224.84l-.82-4.9c0-.17-.1-.25-.31-.25h-6.48c-.2,0-.31.09-.31.25l-.82,4.9c-.03.38-.25.56-.66.56h-5.97c-.44,0-.61-.22-.51-.66l7.5-34.47c.07-.37.29-.56.66-.56h6.88c.37,0,.59.19.66.56l7.45,34.47.05.2c0,.31-.19.46-.56.46h-6.12c-.41,0-.63-.19-.66-.56ZM187.96,214.13h4.59c.17,0,.24-.08.2-.25l-2.4-13.92c-.03-.1-.08-.15-.15-.15s-.12.05-.15.15l-2.29,13.92c0,.17.07.25.2.25Z"/>
      <path class="st2" d="M222.56,189.89c.12.12.18.26.18.43v4.95c0,.17-.06.31-.18.43s-.26.18-.43.18h-6.38c-.17,0-.25.08-.25.25v28.66c0,.17-.06.31-.18.43-.12.12-.26.18-.43.18h-5.97c-.17,0-.31-.06-.43-.18s-.18-.26-.18-.43v-28.66c0-.17-.08-.25-.25-.25h-6.12c-.17,0-.31-.06-.43-.18-.12-.12-.18-.26-.18-.43v-4.95c0-.17.06-.31.18-.43s.26-.18.43-.18h20.19c.17,0,.31.06.43.18Z"/>
      <path class="st2" d="M226.84,225.23c-.12-.12-.18-.26-.18-.43v-34.47c0-.17.06-.31.18-.43s.26-.18.43-.18h5.97c.17,0,.31.06.43.18s.18.26.18.43v34.47c0,.17-.06.31-.18.43s-.26.18-.43.18h-5.97c-.17,0-.31-.06-.43-.18Z"/>
      <path class="st2" d="M241.14,223.06c-1.87-1.84-2.8-4.28-2.8-7.34v-16.32c0-3.06.93-5.51,2.8-7.34,1.87-1.84,4.37-2.75,7.5-2.75s5.64.92,7.52,2.75,2.83,4.28,2.83,7.34v16.32c0,3.06-.94,5.51-2.83,7.34s-4.39,2.75-7.52,2.75-5.63-.92-7.5-2.75ZM250.93,218.65c.58-.66.87-1.54.87-2.63v-16.93c0-1.09-.29-1.96-.87-2.63-.58-.66-1.34-.99-2.29-.99s-1.71.33-2.27.99c-.56.66-.84,1.54-.84,2.63v16.93c0,1.09.28,1.96.84,2.63.56.66,1.32.99,2.27.99s1.72-.33,2.29-.99Z"/>
      <path class="st2" d="M278.19,189.89c.12-.12.26-.18.43-.18h5.92c.17,0,.31.06.43.18.12.12.18.26.18.43v34.47c0,.17-.06.31-.18.43-.12.12-.26.18-.43.18h-6.73c-.34,0-.56-.17-.66-.51l-6.32-19.73c-.03-.1-.09-.14-.18-.13-.08.02-.13.08-.13.18l.05,19.58c0,.17-.06.31-.18.43s-.26.18-.43.18h-5.92c-.17,0-.31-.06-.43-.18s-.18-.26-.18-.43v-34.47c0-.17.06-.31.18-.43s.26-.18.43-.18h6.68c.34,0,.56.17.66.51l6.38,19.73c.03.1.09.14.18.13.08-.02.13-.08.13-.18l-.05-19.58c0-.17.06-.31.18-.43Z"/>
      <path class="st2" d="M315.08,224.84l-.82-4.9c0-.17-.1-.25-.31-.25h-6.48c-.2,0-.31.09-.31.25l-.82,4.9c-.03.38-.25.56-.66.56h-5.97c-.44,0-.61-.22-.51-.66l7.5-34.47c.07-.37.29-.56.66-.56h6.88c.37,0,.59.19.66.56l7.45,34.47.05.2c0,.31-.19.46-.56.46h-6.12c-.41,0-.63-.19-.66-.56ZM308.4,214.13h4.59c.17,0,.24-.08.2-.25l-2.4-13.92c-.03-.1-.08-.15-.15-.15s-.12.05-.15.15l-2.29,13.92c0,.17.07.25.2.25Z"/>
      <path class="st2" d="M340.56,189.89c.12-.12.26-.18.43-.18h5.92c.17,0,.31.06.43.18s.18.26.18.43v34.47c0,.17-.06.31-.18.43s-.26.18-.43.18h-6.73c-.34,0-.56-.17-.66-.51l-6.32-19.73c-.04-.1-.09-.14-.18-.13-.08.02-.13.08-.13.18l.05,19.58c0,.17-.06.31-.18.43-.12.12-.26.18-.43.18h-5.92c-.17,0-.31-.06-.43-.18-.12-.12-.18-.26-.18-.43v-34.47c0-.17.06-.31.18-.43.12-.12.26-.18.43-.18h6.68c.34,0,.56.17.66.51l6.37,19.73c.03.1.09.14.18.13s.13-.08.13-.18l-.05-19.58c0-.17.06-.31.18-.43Z"/>
      <path class="st2" d="M352.64,225.23c-.12-.12-.18-.26-.18-.43v-34.47c0-.17.06-.31.18-.43.12-.12.26-.18.43-.18h9.23c3.09,0,5.58.9,7.45,2.7,1.87,1.8,2.8,4.2,2.8,7.19v15.91c0,2.99-.94,5.39-2.8,7.19-1.87,1.8-4.35,2.7-7.45,2.7h-9.23c-.17,0-.31-.06-.43-.18ZM359.91,219.23l2.29-.05c.92-.03,1.67-.42,2.24-1.17.58-.75.88-1.73.92-2.96v-14.99c0-1.29-.29-2.31-.87-3.06-.58-.75-1.36-1.12-2.35-1.12h-2.24c-.17,0-.25.08-.25.25v22.85c0,.17.08.25.25.25Z"/>
      <path class="st2" d="M390.12,223.19c-1.85-1.75-2.78-4.09-2.78-7.01v-17.24c0-2.92.93-5.26,2.78-7.01s4.31-2.63,7.37-2.63,5.52.88,7.39,2.65c1.87,1.77,2.8,4.11,2.8,7.04v1.94c0,.17-.06.31-.18.43-.12.12-.26.18-.43.18h-5.97c-.17,0-.31-.06-.43-.18-.12-.12-.18-.26-.18-.43v-2.04c0-1.02-.27-1.84-.82-2.47-.54-.63-1.27-.94-2.19-.94s-1.6.31-2.14.94c-.54.63-.82,1.45-.82,2.47v17.34c0,1.02.27,1.84.82,2.47.54.63,1.26.94,2.14.94s1.65-.31,2.19-.94.82-1.45.82-2.47v-4.08c0-.17-.08-.26-.25-.26h-2.24c-.17,0-.31-.06-.43-.18s-.18-.26-.18-.43v-4.54c0-.17.06-.31.18-.43.12-.12.26-.18.43-.18h9.08c.17,0,.31.06.43.18.12.12.18.26.18.43v9.43c0,2.92-.94,5.26-2.8,7.01-1.87,1.75-4.33,2.63-7.39,2.63s-5.52-.88-7.37-2.63Z"/>
      <path class="st2" d="M414.75,222.93c-1.85-1.92-2.78-4.48-2.78-7.67v-24.94c0-.17.06-.31.18-.43.12-.12.26-.18.43-.18h5.97c.17,0,.31.06.43.18s.18.26.18.43v25.65c0,1.09.27,1.97.82,2.65s1.26,1.02,2.14,1.02,1.59-.34,2.12-1.02c.53-.68.79-1.56.79-2.65v-25.65c0-.17.06-.31.18-.43.12-.12.26-.18.43-.18h5.97c.17,0,.31.06.43.18s.18.26.18.43v24.94c0,3.2-.93,5.75-2.78,7.67-1.85,1.92-4.29,2.88-7.32,2.88s-5.52-.96-7.37-2.88Z"/>
      <path class="st2" d="M437.19,225.23c-.12-.12-.18-.26-.18-.43v-34.47c0-.17.06-.31.18-.43s.26-.18.43-.18h5.97c.17,0,.31.06.43.18.12.12.18.26.18.43v34.47c0,.17-.06.31-.18.43-.12.12-.26.18-.43.18h-5.97c-.17,0-.31-.06-.43-.18Z"/>
      <path class="st2" d="M449.38,225.23c-.12-.12-.18-.26-.18-.43v-34.47c0-.17.06-.31.18-.43s.26-.18.43-.18h9.23c3.09,0,5.58.9,7.45,2.7,1.87,1.8,2.8,4.2,2.8,7.19v15.91c0,2.99-.94,5.39-2.8,7.19-1.87,1.8-4.35,2.7-7.45,2.7h-9.23c-.17,0-.31-.06-.43-.18ZM456.64,219.23l2.29-.05c.92-.03,1.67-.42,2.24-1.17.58-.75.88-1.73.92-2.96v-14.99c0-1.29-.29-2.31-.87-3.06-.58-.75-1.36-1.12-2.35-1.12h-2.24c-.17,0-.26.08-.26.25v22.85c0,.17.08.25.26.25Z"/>
      <path class="st2" d="M492.32,195.7c-.12.12-.26.18-.43.18h-10.66c-.17,0-.26.08-.26.25v8.06c0,.17.08.25.26.25h6.12c.17,0,.31.06.43.18.12.12.18.26.18.43v4.95c0,.17-.06.32-.18.43-.12.12-.26.18-.43.18h-6.12c-.17,0-.26.08-.26.25v8.11c0,.17.08.25.26.25h10.66c.17,0,.31.06.43.18s.18.26.18.43v4.95c0,.17-.06.31-.18.43s-.26.18-.43.18h-17.49c-.17,0-.31-.06-.43-.18s-.18-.26-.18-.43v-34.47c0-.17.06-.31.18-.43s.26-.18.43-.18h17.49c.17,0,.31.06.43.18s.18.26.18.43v4.95c0,.17-.06.31-.18.43Z"/>
      <path class="st2" d="M496.75,225.23c-.12-.12-.18-.26-.18-.43v-34.47c0-.17.06-.31.18-.43s.26-.18.43-.18h9.23c3.09,0,5.58.9,7.45,2.7,1.87,1.8,2.8,4.2,2.8,7.19v15.91c0,2.99-.94,5.39-2.8,7.19-1.87,1.8-4.35,2.7-7.45,2.7h-9.23c-.17,0-.31-.06-.43-.18ZM504.02,219.23l2.29-.05c.92-.03,1.67-.42,2.24-1.17.58-.75.88-1.73.92-2.96v-14.99c0-1.29-.29-2.31-.87-3.06-.58-.75-1.36-1.12-2.35-1.12h-2.24c-.17,0-.26.08-.26.25v22.85c0,.17.08.25.26.25Z"/>
      <path class="st2" d="M549.61,222.86c-1.9,1.7-4.37,2.55-7.39,2.55h-9.64c-.17,0-.31-.06-.43-.18s-.18-.26-.18-.43v-34.47c0-.17.06-.31.18-.43s.26-.18.43-.18h8.52c3.4,0,6.06.82,7.98,2.45,1.92,1.63,2.88,4.06,2.88,7.29s-1.16,5.81-3.47,7.34c-.14.1-.15.21-.05.31,2.69,1.9,4.03,4.73,4.03,8.46,0,3.16-.95,5.59-2.86,7.29ZM539.15,196.13v8.01c0,.17.08.25.26.25h1.83c1.16,0,2.06-.37,2.7-1.1.65-.73.97-1.76.97-3.09,0-1.39-.31-2.46-.94-3.21-.63-.75-1.54-1.12-2.73-1.12h-1.83c-.17,0-.26.08-.26.25ZM544.3,217.96c.64-.82.97-1.97.97-3.47s-.32-2.69-.97-3.57c-.65-.88-1.51-1.33-2.6-1.33h-2.29c-.17,0-.26.09-.26.26v9.08c0,.17.08.26.26.26h2.24c1.12,0,2.01-.41,2.65-1.22Z"/>
      <path class="st2" d="M561.05,225.18c-.12-.12-.18-.26-.18-.43v-13.26l-.05-.31-7.14-20.76c-.03-.07-.05-.15-.05-.25,0-.31.19-.46.56-.46h6.27c.37,0,.61.17.71.51l3.16,12.19c.03.1.08.15.15.15s.12-.05.15-.15l3.16-12.19c.1-.34.34-.51.71-.51h6.27c.2,0,.36.06.46.18s.12.3.05.54l-7.19,20.76-.05.31v13.26c0,.17-.06.31-.18.43s-.26.18-.43.18h-5.97c-.17,0-.31-.06-.43-.18Z"/>
      <path class="st2" d="M590.12,225.23c-.12-.12-.18-.26-.18-.43v-34.47c0-.17.06-.31.18-.43s.26-.18.43-.18h5.97c.17,0,.31.06.43.18.12.12.18.26.18.43v34.47c0,.17-.06.31-.18.43-.12.12-.26.18-.43.18h-5.97c-.17,0-.31-.06-.43-.18Z"/>
      <path class="st2" d="M616.89,189.89c.12-.12.26-.18.43-.18h5.92c.17,0,.31.06.43.18s.18.26.18.43v34.47c0,.17-.06.31-.18.43s-.26.18-.43.18h-6.73c-.34,0-.56-.17-.66-.51l-6.32-19.73c-.03-.1-.09-.14-.18-.13-.09.02-.13.08-.13.18l.05,19.58c0,.17-.06.31-.18.43s-.26.18-.43.18h-5.92c-.17,0-.31-.06-.43-.18s-.18-.26-.18-.43v-34.47c0-.17.06-.31.18-.43s.26-.18.43-.18h6.68c.34,0,.56.17.66.51l6.37,19.73c.03.1.09.14.18.13.08-.02.13-.08.13-.18l-.05-19.58c0-.17.06-.31.18-.43Z"/>
      <path class="st2" d="M649.02,189.89c.12.12.18.26.18.43v4.95c0,.17-.06.31-.18.43-.12.12-.26.18-.43.18h-6.37c-.17,0-.25.08-.25.25v28.66c0,.17-.06.31-.18.43s-.26.18-.43.18h-5.97c-.17,0-.31-.06-.43-.18s-.18-.26-.18-.43v-28.66c0-.17-.08-.25-.25-.25h-6.12c-.17,0-.31-.06-.43-.18-.12-.12-.18-.26-.18-.43v-4.95c0-.17.06-.31.18-.43s.26-.18.43-.18h20.19c.17,0,.31.06.43.18Z"/>
      <path class="st2" d="M671.66,195.7c-.12.12-.26.18-.43.18h-10.66c-.17,0-.26.08-.26.25v8.06c0,.17.08.25.26.25h6.12c.17,0,.31.06.43.18.12.12.18.26.18.43v4.95c0,.17-.06.32-.18.43-.12.12-.26.18-.43.18h-6.12c-.17,0-.26.08-.26.25v8.11c0,.17.08.25.26.25h10.66c.17,0,.31.06.43.18s.18.26.18.43v4.95c0,.17-.06.31-.18.43s-.26.18-.43.18h-17.49c-.17,0-.31-.06-.43-.18s-.18-.26-.18-.43v-34.47c0-.17.06-.31.18-.43s.26-.18.43-.18h17.49c.17,0,.31.06.43.18s.18.26.18.43v4.95c0,.17-.06.31-.18.43Z"/>
      <path class="st2" d="M690.68,189.89c.12-.12.26-.18.43-.18h5.92c.17,0,.31.06.43.18s.18.26.18.43v34.47c0,.17-.06.31-.18.43s-.26.18-.43.18h-6.73c-.34,0-.56-.17-.66-.51l-6.32-19.73c-.03-.1-.09-.14-.18-.13-.09.02-.13.08-.13.18l.05,19.58c0,.17-.06.31-.18.43s-.26.18-.43.18h-5.92c-.17,0-.31-.06-.43-.18s-.18-.26-.18-.43v-34.47c0-.17.06-.31.18-.43s.26-.18.43-.18h6.68c.34,0,.56.17.66.51l6.37,19.73c.03.1.09.14.18.13.08-.02.13-.08.13-.18l-.05-19.58c0-.17.06-.31.18-.43Z"/>
      <path class="st2" d="M722.81,189.89c.12.12.18.26.18.43v4.95c0,.17-.06.31-.18.43-.12.12-.26.18-.43.18h-6.37c-.17,0-.25.08-.25.25v28.66c0,.17-.06.31-.18.43s-.26.18-.43.18h-5.97c-.17,0-.31-.06-.43-.18s-.18-.26-.18-.43v-28.66c0-.17-.08-.25-.25-.25h-6.12c-.17,0-.31-.06-.43-.18-.12-.12-.18-.26-.18-.43v-4.95c0-.17.06-.31.18-.43s.26-.18.43-.18h20.19c.17,0,.31.06.43.18Z"/>
      <path class="st2" d="M725.31,224.46c-.76-.76-1.15-1.72-1.15-2.88s.37-2.16,1.12-2.91c.75-.75,1.72-1.12,2.91-1.12s2.16.37,2.91,1.12c.75.75,1.12,1.72,1.12,2.91s-.38,2.12-1.15,2.88c-.76.77-1.73,1.15-2.88,1.15s-2.12-.38-2.88-1.15Z"/>
    </g>
    <g>
      <path class="st2" d="M47.67,224.84l-.82-4.9c0-.17-.1-.25-.31-.25h-6.48c-.2,0-.31.09-.31.25l-.82,4.9c-.03.38-.25.56-.66.56h-5.97c-.44,0-.61-.22-.51-.66l7.5-34.47c.07-.37.29-.56.66-.56h6.88c.37,0,.59.19.66.56l7.45,34.47.05.2c0,.31-.19.46-.56.46h-6.12c-.41,0-.63-.19-.66-.56ZM40.99,214.13h4.59c.17,0,.24-.08.2-.25l-2.4-13.92c-.03-.1-.08-.15-.15-.15s-.12.05-.15.15l-2.29,13.92c0,.17.07.25.2.25Z"/>
      <path class="st2" d="M73.14,189.89c.12-.12.26-.18.43-.18h5.92c.17,0,.31.06.43.18.12.12.18.26.18.43v34.47c0,.17-.06.31-.18.43-.12.12-.26.18-.43.18h-6.73c-.34,0-.56-.17-.66-.51l-6.32-19.73c-.03-.1-.09-.14-.18-.13-.08.02-.13.08-.13.18l.05,19.58c0,.17-.06.31-.18.43s-.26.18-.43.18h-5.92c-.17,0-.31-.06-.43-.18s-.18-.26-.18-.43v-34.47c0-.17.06-.31.18-.43s.26-.18.43-.18h6.68c.34,0,.56.17.66.51l6.38,19.73c.03.1.09.14.18.13.08-.02.13-.08.13-.18l-.05-19.58c0-.17.06-.31.18-.43Z"/>
      <path class="st2" d="M105.27,189.89c.12.12.18.26.18.43v4.95c0,.17-.06.31-.18.43-.12.12-.26.18-.43.18h-6.37c-.17,0-.25.08-.25.25v28.66c0,.17-.06.31-.18.43s-.26.18-.43.18h-5.97c-.17,0-.32-.06-.43-.18-.12-.12-.18-.26-.18-.43v-28.66c0-.17-.08-.25-.25-.25h-6.12c-.17,0-.32-.06-.43-.18-.12-.12-.18-.26-.18-.43v-4.95c0-.17.06-.31.18-.43.12-.12.26-.18.43-.18h20.19c.17,0,.31.06.43.18Z"/>
      <path class="st2" d="M109.55,225.23c-.12-.12-.18-.26-.18-.43v-34.47c0-.17.06-.31.18-.43.12-.12.26-.18.43-.18h5.97c.17,0,.31.06.43.18s.18.26.18.43v34.47c0,.17-.06.31-.18.43s-.26.18-.43.18h-5.97c-.17,0-.31-.06-.43-.18Z"/>
      <path class="st2" d="M123.83,223.08c-1.85-1.82-2.78-4.26-2.78-7.32v-16.52c0-3.03.93-5.44,2.78-7.24,1.85-1.8,4.31-2.7,7.37-2.7s5.57.9,7.42,2.7c1.85,1.8,2.78,4.21,2.78,7.24v.56c0,.17-.06.32-.18.43-.12.12-.26.18-.43.18l-5.97.25c-.41,0-.61-.19-.61-.56v-1.33c0-.99-.27-1.79-.82-2.4-.54-.61-1.28-.92-2.19-.92s-1.6.31-2.14.92c-.54.61-.82,1.41-.82,2.4v17.59c0,.99.27,1.78.82,2.37.54.6,1.26.89,2.14.89s1.65-.3,2.19-.89c.54-.59.82-1.38.82-2.37v-1.38c0-.17.06-.31.18-.43.12-.12.26-.18.43-.18l5.97.25c.17,0,.31.06.43.18.12.12.18.26.18.43v.51c0,3.06-.94,5.5-2.8,7.32-1.87,1.82-4.33,2.73-7.39,2.73s-5.52-.91-7.37-2.73Z"/>
      <path class="st2" d="M145.86,225.23c-.12-.12-.18-.26-.18-.43v-34.47c0-.17.06-.31.18-.43.12-.12.26-.18.43-.18h5.97c.17,0,.31.06.43.18s.18.26.18.43v34.47c0,.17-.06.31-.18.43s-.26.18-.43.18h-5.97c-.17,0-.31-.06-.43-.18Z"/>
      <path class="st2" d="M173.73,191.03c1.46.92,2.59,2.2,3.39,3.85s1.2,3.53,1.2,5.63c0,3.16-.85,5.69-2.55,7.6-1.7,1.9-3.93,2.86-6.68,2.86h-3.82c-.17,0-.26.09-.26.26v13.56c0,.17-.06.31-.18.43-.12.12-.26.18-.43.18h-5.97c-.17,0-.31-.06-.43-.18s-.18-.26-.18-.43v-34.52c0-.17.06-.31.18-.43s.26-.18.43-.18h10.3c1.87,0,3.54.46,5,1.38ZM170.13,204.11c.66-.83,1-1.98,1-3.44s-.33-2.67-1-3.52c-.66-.85-1.54-1.28-2.63-1.28h-2.24c-.17,0-.26.08-.26.25v8.98c0,.17.08.25.26.25h2.24c1.09,0,1.96-.42,2.63-1.25Z"/>
      <path class="st2" d="M194.64,224.84l-.82-4.9c0-.17-.1-.25-.31-.25h-6.48c-.2,0-.31.09-.31.25l-.82,4.9c-.03.38-.25.56-.66.56h-5.97c-.44,0-.61-.22-.51-.66l7.5-34.47c.07-.37.29-.56.66-.56h6.88c.37,0,.59.19.66.56l7.45,34.47.05.2c0,.31-.19.46-.56.46h-6.12c-.41,0-.63-.19-.66-.56ZM187.96,214.13h4.59c.17,0,.24-.08.2-.25l-2.4-13.92c-.03-.1-.08-.15-.15-.15s-.12.05-.15.15l-2.29,13.92c0,.17.07.25.2.25Z"/>
      <path class="st2" d="M222.56,189.89c.12.12.18.26.18.43v4.95c0,.17-.06.31-.18.43s-.26.18-.43.18h-6.38c-.17,0-.25.08-.25.25v28.66c0,.17-.06.31-.18.43-.12.12-.26.18-.43.18h-5.97c-.17,0-.31-.06-.43-.18s-.18-.26-.18-.43v-28.66c0-.17-.08-.25-.25-.25h-6.12c-.17,0-.31-.06-.43-.18-.12-.12-.18-.26-.18-.43v-4.95c0-.17.06-.31.18-.43s.26-.18.43-.18h20.19c.17,0,.31.06.43.18Z"/>
      <path class="st2" d="M226.84,225.23c-.12-.12-.18-.26-.18-.43v-34.47c0-.17.06-.31.18-.43s.26-.18.43-.18h5.97c.17,0,.31.06.43.18s.18.26.18.43v34.47c0,.17-.06.31-.18.43s-.26.18-.43.18h-5.97c-.17,0-.31-.06-.43-.18Z"/>
      <path class="st2" d="M241.14,223.06c-1.87-1.84-2.8-4.28-2.8-7.34v-16.32c0-3.06.93-5.51,2.8-7.34,1.87-1.84,4.37-2.75,7.5-2.75s5.64.92,7.52,2.75,2.83,4.28,2.83,7.34v16.32c0,3.06-.94,5.51-2.83,7.34s-4.39,2.75-7.52,2.75-5.63-.92-7.5-2.75ZM250.93,218.65c.58-.66.87-1.54.87-2.63v-16.93c0-1.09-.29-1.96-.87-2.63-.58-.66-1.34-.99-2.29-.99s-1.71.33-2.27.99c-.56.66-.84,1.54-.84,2.63v16.93c0,1.09.28,1.96.84,2.63.56.66,1.32.99,2.27.99s1.72-.33,2.29-.99Z"/>
      <path class="st2" d="M278.19,189.89c.12-.12.26-.18.43-.18h5.92c.17,0,.31.06.43.18.12.12.18.26.18.43v34.47c0,.17-.06.31-.18.43-.12.12-.26.18-.43.18h-6.73c-.34,0-.56-.17-.66-.51l-6.32-19.73c-.03-.1-.09-.14-.18-.13-.08.02-.13.08-.13.18l.05,19.58c0,.17-.06.31-.18.43s-.26.18-.43.18h-5.92c-.17,0-.31-.06-.43-.18s-.18-.26-.18-.43v-34.47c0-.17.06-.31.18-.43s.26-.18.43-.18h6.68c.34,0,.56.17.66.51l6.38,19.73c.03.1.09.14.18.13.08-.02.13-.08.13-.18l-.05-19.58c0-.17.06-.31.18-.43Z"/>
      <path class="st2" d="M315.08,224.84l-.82-4.9c0-.17-.1-.25-.31-.25h-6.48c-.2,0-.31.09-.31.25l-.82,4.9c-.03.38-.25.56-.66.56h-5.97c-.44,0-.61-.22-.51-.66l7.5-34.47c.07-.37.29-.56.66-.56h6.88c.37,0,.59.19.66.56l7.45,34.47.05.2c0,.31-.19.46-.56.46h-6.12c-.41,0-.63-.19-.66-.56ZM308.4,214.13h4.59c.17,0,.24-.08.2-.25l-2.4-13.92c-.03-.1-.08-.15-.15-.15s-.12.05-.15.15l-2.29,13.92c0,.17.07.25.2.25Z"/>
      <path class="st2" d="M340.56,189.89c.12-.12.26-.18.43-.18h5.92c.17,0,.31.06.43.18s.18.26.18.43v34.47c0,.17-.06.31-.18.43s-.26.18-.43.18h-6.73c-.34,0-.56-.17-.66-.51l-6.32-19.73c-.04-.1-.09-.14-.18-.13-.08.02-.13.08-.13.18l.05,19.58c0,.17-.06.31-.18.43-.12.12-.26.18-.43.18h-5.92c-.17,0-.31-.06-.43-.18-.12-.12-.18-.26-.18-.43v-34.47c0-.17.06-.31.18-.43.12-.12.26-.18.43-.18h6.68c.34,0,.56.17.66.51l6.37,19.73c.03.1.09.14.18.13s.13-.08.13-.18l-.05-19.58c0-.17.06-.31.18-.43Z"/>
      <path class="st2" d="M352.64,225.23c-.12-.12-.18-.26-.18-.43v-34.47c0-.17.06-.31.18-.43.12-.12.26-.18.43-.18h9.23c3.09,0,5.58.9,7.45,2.7,1.87,1.8,2.8,4.2,2.8,7.19v15.91c0,2.99-.94,5.39-2.8,7.19-1.87,1.8-4.35,2.7-7.45,2.7h-9.23c-.17,0-.31-.06-.43-.18ZM359.91,219.23l2.29-.05c.92-.03,1.67-.42,2.24-1.17.58-.75.88-1.73.92-2.96v-14.99c0-1.29-.29-2.31-.87-3.06-.58-.75-1.36-1.12-2.35-1.12h-2.24c-.17,0-.25.08-.25.25v22.85c0,.17.08.25.25.25Z"/>
      <path class="st2" d="M390.12,223.19c-1.85-1.75-2.78-4.09-2.78-7.01v-17.24c0-2.92.93-5.26,2.78-7.01s4.31-2.63,7.37-2.63,5.52.88,7.39,2.65c1.87,1.77,2.8,4.11,2.8,7.04v1.94c0,.17-.06.31-.18.43-.12.12-.26.18-.43.18h-5.97c-.17,0-.31-.06-.43-.18-.12-.12-.18-.26-.18-.43v-2.04c0-1.02-.27-1.84-.82-2.47-.54-.63-1.27-.94-2.19-.94s-1.6.31-2.14.94c-.54.63-.82,1.45-.82,2.47v17.34c0,1.02.27,1.84.82,2.47.54.63,1.26.94,2.14.94s1.65-.31,2.19-.94.82-1.45.82-2.47v-4.08c0-.17-.08-.26-.25-.26h-2.24c-.17,0-.31-.06-.43-.18s-.18-.26-.18-.43v-4.54c0-.17.06-.31.18-.43.12-.12.26-.18.43-.18h9.08c.17,0,.31.06.43.18.12.12.18.26.18.43v9.43c0,2.92-.94,5.26-2.8,7.01-1.87,1.75-4.33,2.63-7.39,2.63s-5.52-.88-7.37-2.63Z"/>
      <path class="st2" d="M414.75,222.93c-1.85-1.92-2.78-4.48-2.78-7.67v-24.94c0-.17.06-.31.18-.43.12-.12.26-.18.43-.18h5.97c.17,0,.31.06.43.18s.18.26.18.43v25.65c0,1.09.27,1.97.82,2.65s1.26,1.02,2.14,1.02,1.59-.34,2.12-1.02c.53-.68.79-1.56.79-2.65v-25.65c0-.17.06-.31.18-.43.12-.12.26-.18.43-.18h5.97c.17,0,.31.06.43.18s.18.26.18.43v24.94c0,3.2-.93,5.75-2.78,7.67-1.85,1.92-4.29,2.88-7.32,2.88s-5.52-.96-7.37-2.88Z"/>
      <path class="st2" d="M437.19,225.23c-.12-.12-.18-.26-.18-.43v-34.47c0-.17.06-.31.18-.43s.26-.18.43-.18h5.97c.17,0,.31.06.43.18.12.12.18.26.18.43v34.47c0,.17-.06.31-.18.43-.12.12-.26.18-.43.18h-5.97c-.17,0-.31-.06-.43-.18Z"/>
      <path class="st2" d="M449.38,225.23c-.12-.12-.18-.26-.18-.43v-34.47c0-.17.06-.31.18-.43s.26-.18.43-.18h9.23c3.09,0,5.58.9,7.45,2.7,1.87,1.8,2.8,4.2,2.8,7.19v15.91c0,2.99-.94,5.39-2.8,7.19-1.87,1.8-4.35,2.7-7.45,2.7h-9.23c-.17,0-.31-.06-.43-.18ZM456.64,219.23l2.29-.05c.92-.03,1.67-.42,2.24-1.17.58-.75.88-1.73.92-2.96v-14.99c0-1.29-.29-2.31-.87-3.06-.58-.75-1.36-1.12-2.35-1.12h-2.24c-.17,0-.26.08-.26.25v22.85c0,.17.08.25.26.25Z"/>
      <path class="st2" d="M492.32,195.7c-.12.12-.26.18-.43.18h-10.66c-.17,0-.26.08-.26.25v8.06c0,.17.08.25.26.25h6.12c.17,0,.31.06.43.18.12.12.18.26.18.43v4.95c0,.17-.06.32-.18.43-.12.12-.26.18-.43.18h-6.12c-.17,0-.26.08-.26.25v8.11c0,.17.08.25.26.25h10.66c.17,0,.31.06.43.18s.18.26.18.43v4.95c0,.17-.06.31-.18.43s-.26.18-.43.18h-17.49c-.17,0-.31-.06-.43-.18s-.18-.26-.18-.43v-34.47c0-.17.06-.31.18-.43s.26-.18.43-.18h17.49c.17,0,.31.06.43.18s.18.26.18.43v4.95c0,.17-.06.31-.18.43Z"/>
      <path class="st2" d="M496.75,225.23c-.12-.12-.18-.26-.18-.43v-34.47c0-.17.06-.31.18-.43s.26-.18.43-.18h9.23c3.09,0,5.58.9,7.45,2.7,1.87,1.8,2.8,4.2,2.8,7.19v15.91c0,2.99-.94,5.39-2.8,7.19-1.87,1.8-4.35,2.7-7.45,2.7h-9.23c-.17,0-.31-.06-.43-.18ZM504.02,219.23l2.29-.05c.92-.03,1.67-.42,2.24-1.17.58-.75.88-1.73.92-2.96v-14.99c0-1.29-.29-2.31-.87-3.06-.58-.75-1.36-1.12-2.35-1.12h-2.24c-.17,0-.26.08-.26.25v22.85c0,.17.08.25.26.25Z"/>
      <path class="st1" d="M549.61,222.86c-1.9,1.7-4.37,2.55-7.39,2.55h-9.64c-.17,0-.31-.06-.43-.18s-.18-.26-.18-.43v-34.47c0-.17.06-.31.18-.43s.26-.18.43-.18h8.52c3.4,0,6.06.82,7.98,2.45,1.92,1.63,2.88,4.06,2.88,7.29s-1.16,5.81-3.47,7.34c-.14.1-.15.21-.05.31,2.69,1.9,4.03,4.73,4.03,8.46,0,3.16-.95,5.59-2.86,7.29ZM539.15,196.13v8.01c0,.17.08.25.26.25h1.83c1.16,0,2.06-.37,2.7-1.1.65-.73.97-1.76.97-3.09,0-1.39-.31-2.46-.94-3.21-.63-.75-1.54-1.12-2.73-1.12h-1.83c-.17,0-.26.08-.26.25ZM544.3,217.96c.64-.82.97-1.97.97-3.47s-.32-2.69-.97-3.57c-.65-.88-1.51-1.33-2.6-1.33h-2.29c-.17,0-.26.09-.26.26v9.08c0,.17.08.26.26.26h2.24c1.12,0,2.01-.41,2.65-1.22Z"/>
      <path class="st1" d="M561.05,225.18c-.12-.12-.18-.26-.18-.43v-13.26l-.05-.31-7.14-20.76c-.03-.07-.05-.15-.05-.25,0-.31.19-.46.56-.46h6.27c.37,0,.61.17.71.51l3.16,12.19c.03.1.08.15.15.15s.12-.05.15-.15l3.16-12.19c.1-.34.34-.51.71-.51h6.27c.2,0,.36.06.46.18s.12.3.05.54l-7.19,20.76-.05.31v13.26c0,.17-.06.31-.18.43s-.26.18-.43.18h-5.97c-.17,0-.31-.06-.43-.18Z"/>
      <path class="st1" d="M590.12,225.23c-.12-.12-.18-.26-.18-.43v-34.47c0-.17.06-.31.18-.43s.26-.18.43-.18h5.97c.17,0,.31.06.43.18.12.12.18.26.18.43v34.47c0,.17-.06.31-.18.43-.12.12-.26.18-.43.18h-5.97c-.17,0-.31-.06-.43-.18Z"/>
      <path class="st1" d="M616.89,189.89c.12-.12.26-.18.43-.18h5.92c.17,0,.31.06.43.18s.18.26.18.43v34.47c0,.17-.06.31-.18.43s-.26.18-.43.18h-6.73c-.34,0-.56-.17-.66-.51l-6.32-19.73c-.03-.1-.09-.14-.18-.13-.09.02-.13.08-.13.18l.05,19.58c0,.17-.06.31-.18.43s-.26.18-.43.18h-5.92c-.17,0-.31-.06-.43-.18s-.18-.26-.18-.43v-34.47c0-.17.06-.31.18-.43s.26-.18.43-.18h6.68c.34,0,.56.17.66.51l6.37,19.73c.03.1.09.14.18.13.08-.02.13-.08.13-.18l-.05-19.58c0-.17.06-.31.18-.43Z"/>
      <path class="st1" d="M649.02,189.89c.12.12.18.26.18.43v4.95c0,.17-.06.31-.18.43-.12.12-.26.18-.43.18h-6.37c-.17,0-.25.08-.25.25v28.66c0,.17-.06.31-.18.43s-.26.18-.43.18h-5.97c-.17,0-.31-.06-.43-.18s-.18-.26-.18-.43v-28.66c0-.17-.08-.25-.25-.25h-6.12c-.17,0-.31-.06-.43-.18-.12-.12-.18-.26-.18-.43v-4.95c0-.17.06-.31.18-.43s.26-.18.43-.18h20.19c.17,0,.31.06.43.18Z"/>
      <path class="st1" d="M671.66,195.7c-.12.12-.26.18-.43.18h-10.66c-.17,0-.26.08-.26.25v8.06c0,.17.08.25.26.25h6.12c.17,0,.31.06.43.18.12.12.18.26.18.43v4.95c0,.17-.06.32-.18.43-.12.12-.26.18-.43.18h-6.12c-.17,0-.26.08-.26.25v8.11c0,.17.08.25.26.25h10.66c.17,0,.31.06.43.18s.18.26.18.43v4.95c0,.17-.06.31-.18.43s-.26.18-.43.18h-17.49c-.17,0-.31-.06-.43-.18s-.18-.26-.18-.43v-34.47c0-.17.06-.31.18-.43s.26-.18.43-.18h17.49c.17,0,.31.06.43.18s.18.26.18.43v4.95c0,.17-.06.31-.18.43Z"/>
      <path class="st1" d="M690.68,189.89c.12-.12.26-.18.43-.18h5.92c.17,0,.31.06.43.18s.18.26.18.43v34.47c0,.17-.06.31-.18.43s-.26.18-.43.18h-6.73c-.34,0-.56-.17-.66-.51l-6.32-19.73c-.03-.1-.09-.14-.18-.13-.09.02-.13.08-.13.18l.05,19.58c0,.17-.06.31-.18.43s-.26.18-.43.18h-5.92c-.17,0-.31-.06-.43-.18s-.18-.26-.18-.43v-34.47c0-.17.06-.31.18-.43s.26-.18.43-.18h6.68c.34,0,.56.17.66.51l6.37,19.73c.03.1.09.14.18.13.08-.02.13-.08.13-.18l-.05-19.58c0-.17.06-.31.18-.43Z"/>
      <path class="st1" d="M722.81,189.89c.12.12.18.26.18.43v4.95c0,.17-.06.31-.18.43-.12.12-.26.18-.43.18h-6.37c-.17,0-.25.08-.25.25v28.66c0,.17-.06.31-.18.43s-.26.18-.43.18h-5.97c-.17,0-.31-.06-.43-.18s-.18-.26-.18-.43v-28.66c0-.17-.08-.25-.25-.25h-6.12c-.17,0-.31-.06-.43-.18-.12-.12-.18-.26-.18-.43v-4.95c0-.17.06-.31.18-.43s.26-.18.43-.18h20.19c.17,0,.31.06.43.18Z"/>
      <path class="st1" d="M725.31,224.46c-.76-.76-1.15-1.72-1.15-2.88s.37-2.16,1.12-2.91c.75-.75,1.72-1.12,2.91-1.12s2.16.37,2.91,1.12c.75.75,1.12,1.72,1.12,2.91s-.38,2.12-1.15,2.88c-.76.77-1.73,1.15-2.88,1.15s-2.12-.38-2.88-1.15Z"/>
    </g>
  </g>
  <g>
    <g>
      <path class="st2" d="M193.25,23.39c-.12.12-.26.18-.43.18h-10.66c-.17,0-.25.08-.25.25v8.06c0,.17.08.25.25.25h6.12c.17,0,.31.06.43.18.12.12.18.26.18.43v4.95c0,.17-.06.31-.18.43-.12.12-.26.18-.43.18h-6.12c-.17,0-.25.09-.25.25v8.11c0,.17.08.25.25.25h10.66c.17,0,.31.06.43.18.12.12.18.26.18.43v4.95c0,.17-.06.31-.18.43-.12.12-.26.18-.43.18h-17.49c-.17,0-.31-.06-.43-.18-.12-.12-.18-.26-.18-.43V18.01c0-.17.06-.31.18-.43.12-.12.26-.18.43-.18h17.49c.17,0,.31.06.43.18.12.12.18.26.18.43v4.95c0,.17-.06.31-.18.43Z"/>
      <path class="st2" d="M203.73,52.54l-7.29-34.47-.05-.2c0-.31.19-.46.56-.46h6.58c.41,0,.63.19.66.56l3.52,22.44c.03.14.08.2.15.2s.12-.07.15-.2l3.42-22.44c.03-.37.25-.56.66-.56h6.37c.44,0,.61.22.51.66l-7.34,34.47c-.07.38-.29.56-.66.56h-6.58c-.37,0-.6-.19-.66-.56Z"/>
      <path class="st2" d="M241.39,23.39c-.12.12-.26.18-.43.18h-10.66c-.17,0-.25.08-.25.25v8.06c0,.17.08.25.25.25h6.12c.17,0,.31.06.43.18.12.12.18.26.18.43v4.95c0,.17-.06.31-.18.43-.12.12-.26.18-.43.18h-6.12c-.17,0-.25.09-.25.25v8.11c0,.17.08.25.25.25h10.66c.17,0,.31.06.43.18.12.12.18.26.18.43v4.95c0,.17-.06.31-.18.43-.12.12-.26.18-.43.18h-17.49c-.17,0-.31-.06-.43-.18-.12-.12-.18-.26-.18-.43V18.01c0-.17.06-.31.18-.43.12-.12.26-.18.43-.18h17.49c.17,0,.31.06.43.18.12.12.18.26.18.43v4.95c0,.17-.06.31-.18.43Z"/>
      <path class="st2" d="M259,52.59l-3.93-14.08c-.07-.13-.15-.2-.25-.2h-1.73c-.17,0-.25.09-.25.25v13.92c0,.17-.06.31-.18.43s-.26.18-.43.18h-5.97c-.17,0-.31-.06-.43-.18-.12-.12-.18-.26-.18-.43V18.01c0-.17.06-.31.18-.43.12-.12.26-.18.43-.18h10.3c1.87,0,3.54.45,5,1.35,1.46.9,2.59,2.17,3.39,3.8.8,1.63,1.2,3.5,1.2,5.61s-.38,3.77-1.15,5.3-1.83,2.72-3.19,3.57c-.07.03-.12.08-.15.13-.03.05-.03.11,0,.18l4.69,15.04.05.2c0,.34-.19.51-.56.51h-6.12c-.37,0-.61-.17-.71-.51ZM252.83,23.83v8.72c0,.17.08.25.25.25h2.29c1.05,0,1.91-.42,2.58-1.25.66-.83.99-1.95.99-3.34s-.33-2.56-.99-3.39-1.52-1.25-2.58-1.25h-2.29c-.17,0-.25.08-.25.25Z"/>
      <path class="st2" d="M275.09,52.87c-.12-.12-.18-.26-.18-.43v-13.26l-.05-.31-7.14-20.75c-.03-.07-.05-.15-.05-.25,0-.31.19-.46.56-.46h6.27c.37,0,.61.17.71.51l3.16,12.19c.03.1.08.15.15.15s.12-.05.15-.15l3.16-12.19c.1-.34.34-.51.71-.51h6.27c.2,0,.36.06.46.18.1.12.12.3.05.54l-7.19,20.75-.05.31v13.26c0,.17-.06.31-.18.43-.12.12-.26.18-.43.18h-5.97c-.17,0-.31-.06-.43-.18Z"/>
      <path class="st2" d="M322.52,23.39c-.12.12-.26.18-.43.18h-10.66c-.17,0-.25.08-.25.25v8.06c0,.17.08.25.25.25h6.12c.17,0,.31.06.43.18.12.12.18.26.18.43v4.95c0,.17-.06.31-.18.43-.12.12-.26.18-.43.18h-6.12c-.17,0-.25.09-.25.25v8.11c0,.17.08.25.25.25h10.66c.17,0,.31.06.43.18.12.12.18.26.18.43v4.95c0,.17-.06.31-.18.43-.12.12-.26.18-.43.18h-17.49c-.17,0-.31-.06-.43-.18-.12-.12-.18-.26-.18-.43V18.01c0-.17.06-.31.18-.43.12-.12.26-.18.43-.18h17.49c.17,0,.31.06.43.18.12.12.18.26.18.43v4.95c0,.17-.06.31-.18.43Z"/>
      <path class="st2" d="M325.86,52.9c-.07-.14-.07-.31,0-.51l6.94-16.98c.03-.1.03-.2,0-.31l-6.94-16.98c-.03-.07-.05-.17-.05-.31,0-.27.17-.41.51-.41h6.12c.34,0,.56.17.66.51l3.42,9.79c.03.1.08.15.15.15s.12-.05.15-.15l3.42-9.79c.1-.34.32-.51.66-.51h6.07c.24,0,.39.07.46.2.07.14.07.31,0,.51l-6.94,16.98c-.03.1-.03.2,0,.31l6.94,16.98c.03.07.05.17.05.31,0,.27-.17.41-.51.41h-6.07c-.34,0-.56-.17-.66-.51l-3.42-9.74c-.03-.1-.08-.15-.15-.15s-.12.05-.15.15l-3.47,9.74c-.1.34-.32.51-.66.51h-6.07c-.24,0-.39-.07-.46-.2Z"/>
      <path class="st2" d="M369.99,23.39c-.12.12-.26.18-.43.18h-10.66c-.17,0-.25.08-.25.25v8.06c0,.17.08.25.25.25h6.12c.17,0,.31.06.43.18.12.12.18.26.18.43v4.95c0,.17-.06.31-.18.43-.12.12-.26.18-.43.18h-6.12c-.17,0-.25.09-.25.25v8.11c0,.17.08.25.25.25h10.66c.17,0,.31.06.43.18.12.12.18.26.18.43v4.95c0,.17-.06.31-.18.43-.12.12-.26.18-.43.18h-17.49c-.17,0-.31-.06-.43-.18-.12-.12-.18-.26-.18-.43V18.01c0-.17.06-.31.18-.43.12-.12.26-.18.43-.18h17.49c.17,0,.31.06.43.18.12.12.18.26.18.43v4.95c0,.17-.06.31-.18.43Z"/>
      <path class="st2" d="M376.52,50.78c-1.85-1.82-2.78-4.26-2.78-7.32v-16.52c0-3.03.93-5.44,2.78-7.24,1.85-1.8,4.31-2.7,7.37-2.7s5.57.9,7.42,2.7c1.85,1.8,2.78,4.22,2.78,7.24v.56c0,.17-.06.31-.18.43-.12.12-.26.18-.43.18l-5.97.25c-.41,0-.61-.19-.61-.56v-1.33c0-.99-.27-1.79-.82-2.4-.54-.61-1.27-.92-2.19-.92s-1.6.31-2.14.92c-.54.61-.82,1.41-.82,2.4v17.59c0,.99.27,1.78.82,2.37.54.6,1.26.89,2.14.89s1.65-.3,2.19-.89c.54-.59.82-1.38.82-2.37v-1.38c0-.17.06-.31.18-.43s.26-.18.43-.18l5.97.25c.17,0,.31.06.43.18.12.12.18.26.18.43v.51c0,3.06-.94,5.5-2.8,7.32-1.87,1.82-4.33,2.73-7.39,2.73s-5.52-.91-7.37-2.73Z"/>
      <path class="st2" d="M400.99,50.63c-1.85-1.92-2.78-4.48-2.78-7.67v-24.94c0-.17.06-.31.18-.43s.26-.18.43-.18h5.97c.17,0,.31.06.43.18.12.12.18.26.18.43v25.65c0,1.09.27,1.97.82,2.65s1.26,1.02,2.14,1.02,1.59-.34,2.12-1.02c.53-.68.79-1.56.79-2.65v-25.65c0-.17.06-.31.18-.43s.26-.18.43-.18h5.97c.17,0,.31.06.43.18.12.12.18.26.18.43v24.94c0,3.2-.93,5.75-2.78,7.67-1.85,1.92-4.29,2.88-7.32,2.88s-5.52-.96-7.37-2.88Z"/>
      <path class="st2" d="M443.47,17.58c.12.12.18.26.18.43v4.95c0,.17-.06.31-.18.43-.12.12-.26.18-.43.18h-6.37c-.17,0-.25.08-.25.25v28.66c0,.17-.06.31-.18.43s-.26.18-.43.18h-5.97c-.17,0-.31-.06-.43-.18s-.18-.26-.18-.43v-28.66c0-.17-.08-.25-.25-.25h-6.12c-.17,0-.31-.06-.43-.18-.12-.12-.18-.26-.18-.43v-4.95c0-.17.06-.31.18-.43.12-.12.26-.18.43-.18h20.19c.17,0,.31.06.43.18Z"/>
      <path class="st2" d="M447.76,52.92c-.12-.12-.18-.26-.18-.43V18.01c0-.17.06-.31.18-.43.12-.12.26-.18.43-.18h5.97c.17,0,.31.06.43.18.12.12.18.26.18.43v34.47c0,.17-.06.31-.18.43-.12.12-.26.18-.43.18h-5.97c-.17,0-.31-.06-.43-.18Z"/>
      <path class="st2" d="M462.06,50.75c-1.87-1.84-2.8-4.28-2.8-7.34v-16.32c0-3.06.94-5.51,2.8-7.34,1.87-1.84,4.37-2.75,7.5-2.75s5.63.92,7.52,2.75,2.83,4.28,2.83,7.34v16.32c0,3.06-.94,5.51-2.83,7.34s-4.39,2.75-7.52,2.75-5.63-.92-7.5-2.75ZM471.85,46.34c.58-.66.87-1.54.87-2.63v-16.93c0-1.09-.29-1.96-.87-2.63s-1.34-1-2.29-1-1.71.33-2.27,1c-.56.66-.84,1.54-.84,2.63v16.93c0,1.09.28,1.96.84,2.63.56.66,1.32.99,2.27.99s1.72-.33,2.29-.99Z"/>
      <path class="st2" d="M499.11,17.58c.12-.12.26-.18.43-.18h5.92c.17,0,.31.06.43.18.12.12.18.26.18.43v34.47c0,.17-.06.31-.18.43s-.26.18-.43.18h-6.73c-.34,0-.56-.17-.66-.51l-6.32-19.74c-.03-.1-.09-.14-.18-.13-.09.02-.13.08-.13.18l.05,19.58c0,.17-.06.31-.18.43s-.26.18-.43.18h-5.92c-.17,0-.31-.06-.43-.18s-.18-.26-.18-.43V18.01c0-.17.06-.31.18-.43.12-.12.26-.18.43-.18h6.68c.34,0,.56.17.66.51l6.37,19.74c.03.1.09.14.18.13.08-.02.13-.08.13-.18l-.05-19.58c0-.17.06-.31.18-.43Z"/>
      <path class="st2" d="M521.85,52.92c-.12-.12-.18-.26-.18-.43V18.01c0-.17.06-.31.18-.43.12-.12.26-.18.43-.18h5.97c.17,0,.31.06.43.18.12.12.18.26.18.43v34.47c0,.17-.06.31-.18.43-.12.12-.26.18-.43.18h-5.97c-.17,0-.31-.06-.43-.18Z"/>
      <path class="st2" d="M537.84,52.33c-1.5-.78-2.65-1.88-3.47-3.29-.82-1.41-1.22-3.03-1.22-4.87v-1.48c0-.17.06-.31.18-.43.12-.12.26-.18.43-.18h5.86c.17,0,.31.06.43.18.12.12.18.26.18.43v1.12c0,1.05.27,1.9.82,2.55.54.65,1.22.97,2.04.97s1.5-.31,2.04-.92c.54-.61.82-1.41.82-2.4s-.34-1.89-1.02-2.63c-.68-.73-2.01-1.81-3.98-3.24-1.7-1.22-3.08-2.31-4.13-3.26s-1.96-2.12-2.7-3.52c-.75-1.39-1.12-3.01-1.12-4.84,0-2.89.9-5.2,2.7-6.94,1.8-1.73,4.18-2.6,7.14-2.6s5.4.9,7.22,2.7c1.82,1.8,2.73,4.16,2.73,7.09v1.22c0,.17-.06.31-.18.43s-.26.18-.43.18h-5.86c-.17,0-.31-.06-.43-.18s-.18-.26-.18-.43v-1.38c0-1.05-.26-1.89-.79-2.52-.53-.63-1.22-.94-2.07-.94s-1.48.3-1.99.89c-.51.6-.77,1.42-.77,2.47s.32,1.92.97,2.7c.65.78,1.92,1.87,3.83,3.26,2.11,1.56,3.7,2.83,4.77,3.8,1.07.97,1.9,2.04,2.5,3.21.59,1.17.89,2.58.89,4.21,0,2.99-.92,5.37-2.75,7.14-1.84,1.77-4.25,2.65-7.24,2.65-1.97,0-3.71-.39-5.2-1.17Z"/>
      <path class="st2" d="M581.95,52.54l-.82-4.9c0-.17-.1-.25-.31-.25h-6.48c-.2,0-.31.09-.31.25l-.82,4.9c-.03.38-.25.56-.66.56h-5.97c-.44,0-.61-.22-.51-.66l7.5-34.47c.07-.37.29-.56.66-.56h6.88c.37,0,.59.19.66.56l7.45,34.47.05.2c0,.31-.19.46-.56.46h-6.12c-.41,0-.63-.19-.66-.56ZM575.27,41.83h4.59c.17,0,.24-.08.2-.25l-2.4-13.92c-.03-.1-.09-.15-.15-.15s-.12.05-.15.15l-2.29,13.92c0,.17.07.25.2.25Z"/>
      <path class="st2" d="M236.44,78.78c.12.12.18.26.18.43v4.95c0,.17-.06.31-.18.43-.12.12-.26.18-.43.18h-6.37c-.17,0-.25.08-.25.25v28.66c0,.17-.06.31-.18.43-.12.12-.26.18-.43.18h-5.97c-.17,0-.31-.06-.43-.18-.12-.12-.18-.26-.18-.43v-28.66c0-.17-.08-.25-.25-.25h-6.12c-.17,0-.31-.06-.43-.18-.12-.12-.18-.26-.18-.43v-4.95c0-.17.06-.31.18-.43.12-.12.26-.18.43-.18h20.19c.17,0,.31.06.43.18Z"/>
      <path class="st2" d="M253.52,78.78c.12-.12.26-.18.43-.18h5.97c.17,0,.31.06.43.18.12.12.18.26.18.43v34.47c0,.17-.06.31-.18.43-.12.12-.26.18-.43.18h-5.97c-.17,0-.31-.06-.43-.18-.12-.12-.18-.26-.18-.43v-13.92c0-.17-.09-.25-.25-.25h-5.1c-.17,0-.25.08-.25.25v13.92c0,.17-.06.31-.18.43-.12.12-.26.18-.43.18h-5.97c-.17,0-.31-.06-.43-.18-.12-.12-.18-.26-.18-.43v-34.47c0-.17.06-.31.18-.43.12-.12.26-.18.43-.18h5.97c.17,0,.31.06.43.18s.18.26.18.43v13.87c0,.17.08.25.25.25h5.1c.17,0,.25-.08.25-.25v-13.87c0-.17.06-.31.18-.43Z"/>
      <path class="st2" d="M267.77,111.95c-1.87-1.84-2.8-4.28-2.8-7.34v-16.32c0-3.06.93-5.51,2.8-7.34,1.87-1.84,4.37-2.75,7.5-2.75s5.64.92,7.52,2.75,2.83,4.28,2.83,7.34v16.32c0,3.06-.94,5.51-2.83,7.34s-4.39,2.75-7.52,2.75-5.63-.92-7.5-2.75ZM277.56,107.54c.58-.66.87-1.54.87-2.63v-16.93c0-1.09-.29-1.96-.87-2.63-.58-.66-1.34-.99-2.29-.99s-1.71.33-2.27.99-.84,1.54-.84,2.63v16.93c0,1.09.28,1.96.84,2.63s1.32,1,2.27,1,1.72-.33,2.29-1Z"/>
      <path class="st2" d="M292.68,111.82c-1.85-1.92-2.78-4.48-2.78-7.67v-24.94c0-.17.06-.31.18-.43s.26-.18.43-.18h5.97c.17,0,.31.06.43.18.12.12.18.26.18.43v25.65c0,1.09.27,1.97.82,2.65.54.68,1.26,1.02,2.14,1.02s1.59-.34,2.12-1.02c.53-.68.79-1.56.79-2.65v-25.65c0-.17.06-.31.18-.43s.26-.18.43-.18h5.97c.17,0,.31.06.43.18.12.12.18.26.18.43v24.94c0,3.2-.93,5.75-2.78,7.67-1.85,1.92-4.29,2.88-7.32,2.88s-5.52-.96-7.37-2.88Z"/>
      <path class="st2" d="M317.06,112.08c-1.85-1.75-2.78-4.09-2.78-7.01v-17.24c0-2.92.93-5.26,2.78-7.01,1.85-1.75,4.31-2.63,7.37-2.63s5.52.88,7.39,2.65c1.87,1.77,2.8,4.11,2.8,7.04v1.94c0,.17-.06.32-.18.43-.12.12-.26.18-.43.18h-5.97c-.17,0-.31-.06-.43-.18-.12-.12-.18-.26-.18-.43v-2.04c0-1.02-.27-1.84-.82-2.47-.54-.63-1.27-.94-2.19-.94s-1.6.31-2.14.94c-.54.63-.82,1.45-.82,2.47v17.34c0,1.02.27,1.84.82,2.47.54.63,1.26.94,2.14.94s1.65-.31,2.19-.94c.54-.63.82-1.45.82-2.47v-4.08c0-.17-.09-.25-.26-.25h-2.24c-.17,0-.31-.06-.43-.18-.12-.12-.18-.26-.18-.43v-4.54c0-.17.06-.31.18-.43.12-.12.26-.18.43-.18h9.08c.17,0,.31.06.43.18.12.12.18.26.18.43v9.43c0,2.92-.94,5.26-2.8,7.01-1.87,1.75-4.33,2.63-7.39,2.63s-5.52-.88-7.37-2.63Z"/>
      <path class="st2" d="M352.04,78.78c.12-.12.26-.18.43-.18h5.97c.17,0,.31.06.43.18.12.12.18.26.18.43v34.47c0,.17-.06.31-.18.43-.12.12-.26.18-.43.18h-5.97c-.17,0-.31-.06-.43-.18-.12-.12-.18-.26-.18-.43v-13.92c0-.17-.09-.25-.25-.25h-5.1c-.17,0-.25.08-.25.25v13.92c0,.17-.06.31-.18.43-.12.12-.26.18-.43.18h-5.97c-.17,0-.31-.06-.43-.18-.12-.12-.18-.26-.18-.43v-34.47c0-.17.06-.31.18-.43.12-.12.26-.18.43-.18h5.97c.17,0,.31.06.43.18s.18.26.18.43v13.87c0,.17.08.25.25.25h5.1c.17,0,.25-.08.25-.25v-13.87c0-.17.06-.31.18-.43Z"/>
      <path class="st2" d="M384.22,78.78c.12.12.18.26.18.43v4.95c0,.17-.06.31-.18.43s-.26.18-.43.18h-6.37c-.17,0-.25.08-.25.25v28.66c0,.17-.06.31-.18.43-.12.12-.26.18-.43.18h-5.97c-.17,0-.31-.06-.43-.18-.12-.12-.18-.26-.18-.43v-28.66c0-.17-.08-.25-.25-.25h-6.12c-.17,0-.31-.06-.43-.18-.12-.12-.18-.26-.18-.43v-4.95c0-.17.06-.31.18-.43.12-.12.26-.18.43-.18h20.19c.17,0,.31.06.43.18Z"/>
      <path class="st2" d="M406.81,84.59c-.12.12-.26.18-.43.18h-10.61c-.17,0-.26.08-.26.25v8.06c0,.17.08.25.26.25h6.07c.17,0,.31.06.43.18.12.12.18.26.18.43v4.95c0,.17-.06.32-.18.43-.12.12-.26.18-.43.18h-6.07c-.17,0-.26.08-.26.25v13.92c0,.17-.06.31-.18.43s-.26.18-.43.18h-5.97c-.17,0-.31-.06-.43-.18-.12-.12-.18-.26-.18-.43v-34.47c0-.17.06-.31.18-.43s.26-.18.43-.18h17.44c.17,0,.31.06.43.18.12.12.18.26.18.43v4.95c0,.17-.06.31-.18.43Z"/>
      <path class="st2" d="M412.88,111.82c-1.85-1.92-2.78-4.48-2.78-7.67v-24.94c0-.17.06-.31.18-.43.12-.12.26-.18.43-.18h5.97c.17,0,.31.06.43.18s.18.26.18.43v25.65c0,1.09.27,1.97.82,2.65.54.68,1.26,1.02,2.14,1.02s1.59-.34,2.12-1.02c.53-.68.79-1.56.79-2.65v-25.65c0-.17.06-.31.18-.43.12-.12.26-.18.43-.18h5.97c.17,0,.31.06.43.18s.18.26.18.43v24.94c0,3.2-.93,5.75-2.78,7.67-1.85,1.92-4.29,2.88-7.32,2.88s-5.52-.96-7.37-2.88Z"/>
      <path class="st2" d="M435.31,114.11c-.12-.12-.18-.26-.18-.43v-34.47c0-.17.06-.31.18-.43s.26-.18.43-.18h5.97c.17,0,.31.06.43.18.12.12.18.26.18.43v28.66c0,.17.08.25.26.25h10.71c.17,0,.31.06.43.18s.18.26.18.43v4.95c0,.17-.06.31-.18.43-.12.12-.26.18-.43.18h-17.54c-.17,0-.31-.06-.43-.18Z"/>
      <path class="st2" d="M482.3,113.73l-.82-4.9c0-.17-.1-.25-.31-.25h-6.48c-.2,0-.31.08-.31.25l-.82,4.9c-.03.37-.25.56-.66.56h-5.97c-.44,0-.61-.22-.51-.66l7.5-34.47c.07-.37.29-.56.66-.56h6.88c.37,0,.59.19.66.56l7.45,34.47.05.2c0,.31-.19.46-.56.46h-6.12c-.41,0-.63-.19-.66-.56ZM475.62,103.02h4.59c.17,0,.24-.08.2-.25l-2.4-13.92c-.03-.1-.09-.15-.15-.15s-.12.05-.15.15l-2.29,13.92c0,.17.07.25.2.25Z"/>
      <path class="st2" d="M494.31,111.97c-1.85-1.82-2.78-4.26-2.78-7.32v-16.52c0-3.03.93-5.44,2.78-7.24,1.85-1.8,4.31-2.7,7.37-2.7s5.57.9,7.42,2.7c1.85,1.8,2.78,4.22,2.78,7.24v.56c0,.17-.06.32-.18.43-.12.12-.26.18-.43.18l-5.97.25c-.41,0-.61-.19-.61-.56v-1.33c0-.99-.27-1.79-.82-2.4-.54-.61-1.27-.92-2.19-.92s-1.6.31-2.14.92c-.54.61-.82,1.41-.82,2.4v17.59c0,.99.27,1.78.82,2.37.54.59,1.26.89,2.14.89s1.65-.3,2.19-.89.82-1.38.82-2.37v-1.38c0-.17.06-.31.18-.43.12-.12.26-.18.43-.18l5.97.25c.17,0,.31.06.43.18.12.12.18.26.18.43v.51c0,3.06-.94,5.5-2.8,7.32-1.87,1.82-4.33,2.73-7.39,2.73s-5.52-.91-7.37-2.73Z"/>
      <path class="st2" d="M536.38,78.78c.12.12.18.26.18.43v4.95c0,.17-.06.31-.18.43s-.26.18-.43.18h-6.37c-.17,0-.25.08-.25.25v28.66c0,.17-.06.31-.18.43-.12.12-.26.18-.43.18h-5.97c-.17,0-.31-.06-.43-.18-.12-.12-.18-.26-.18-.43v-28.66c0-.17-.08-.25-.25-.25h-6.12c-.17,0-.31-.06-.43-.18s-.18-.26-.18-.43v-4.95c0-.17.06-.31.18-.43s.26-.18.43-.18h20.19c.17,0,.31.06.43.18Z"/>
    </g>
    <g>
      <path class="st1" d="M193.25,23.39c-.12.12-.26.18-.43.18h-10.66c-.17,0-.25.08-.25.25v8.06c0,.17.08.25.25.25h6.12c.17,0,.31.06.43.18.12.12.18.26.18.43v4.95c0,.17-.06.31-.18.43-.12.12-.26.18-.43.18h-6.12c-.17,0-.25.09-.25.25v8.11c0,.17.08.25.25.25h10.66c.17,0,.31.06.43.18.12.12.18.26.18.43v4.95c0,.17-.06.31-.18.43-.12.12-.26.18-.43.18h-17.49c-.17,0-.31-.06-.43-.18-.12-.12-.18-.26-.18-.43V18.01c0-.17.06-.31.18-.43.12-.12.26-.18.43-.18h17.49c.17,0,.31.06.43.18.12.12.18.26.18.43v4.95c0,.17-.06.31-.18.43Z"/>
      <path class="st1" d="M203.73,52.54l-7.29-34.47-.05-.2c0-.31.19-.46.56-.46h6.58c.41,0,.63.19.66.56l3.52,22.44c.03.14.08.2.15.2s.12-.07.15-.2l3.42-22.44c.03-.37.25-.56.66-.56h6.37c.44,0,.61.22.51.66l-7.34,34.47c-.07.38-.29.56-.66.56h-6.58c-.37,0-.6-.19-.66-.56Z"/>
      <path class="st1" d="M241.39,23.39c-.12.12-.26.18-.43.18h-10.66c-.17,0-.25.08-.25.25v8.06c0,.17.08.25.25.25h6.12c.17,0,.31.06.43.18.12.12.18.26.18.43v4.95c0,.17-.06.31-.18.43-.12.12-.26.18-.43.18h-6.12c-.17,0-.25.09-.25.25v8.11c0,.17.08.25.25.25h10.66c.17,0,.31.06.43.18.12.12.18.26.18.43v4.95c0,.17-.06.31-.18.43-.12.12-.26.18-.43.18h-17.49c-.17,0-.31-.06-.43-.18-.12-.12-.18-.26-.18-.43V18.01c0-.17.06-.31.18-.43.12-.12.26-.18.43-.18h17.49c.17,0,.31.06.43.18.12.12.18.26.18.43v4.95c0,.17-.06.31-.18.43Z"/>
      <path class="st1" d="M259,52.59l-3.93-14.08c-.07-.13-.15-.2-.25-.2h-1.73c-.17,0-.25.09-.25.25v13.92c0,.17-.06.31-.18.43s-.26.18-.43.18h-5.97c-.17,0-.31-.06-.43-.18-.12-.12-.18-.26-.18-.43V18.01c0-.17.06-.31.18-.43.12-.12.26-.18.43-.18h10.3c1.87,0,3.54.45,5,1.35,1.46.9,2.59,2.17,3.39,3.8.8,1.63,1.2,3.5,1.2,5.61s-.38,3.77-1.15,5.3-1.83,2.72-3.19,3.57c-.07.03-.12.08-.15.13-.03.05-.03.11,0,.18l4.69,15.04.05.2c0,.34-.19.51-.56.51h-6.12c-.37,0-.61-.17-.71-.51ZM252.83,23.83v8.72c0,.17.08.25.25.25h2.29c1.05,0,1.91-.42,2.58-1.25.66-.83.99-1.95.99-3.34s-.33-2.56-.99-3.39-1.52-1.25-2.58-1.25h-2.29c-.17,0-.25.08-.25.25Z"/>
      <path class="st1" d="M275.09,52.87c-.12-.12-.18-.26-.18-.43v-13.26l-.05-.31-7.14-20.75c-.03-.07-.05-.15-.05-.25,0-.31.19-.46.56-.46h6.27c.37,0,.61.17.71.51l3.16,12.19c.03.1.08.15.15.15s.12-.05.15-.15l3.16-12.19c.1-.34.34-.51.71-.51h6.27c.2,0,.36.06.46.18.1.12.12.3.05.54l-7.19,20.75-.05.31v13.26c0,.17-.06.31-.18.43-.12.12-.26.18-.43.18h-5.97c-.17,0-.31-.06-.43-.18Z"/>
      <path class="st1" d="M322.52,23.39c-.12.12-.26.18-.43.18h-10.66c-.17,0-.25.08-.25.25v8.06c0,.17.08.25.25.25h6.12c.17,0,.31.06.43.18.12.12.18.26.18.43v4.95c0,.17-.06.31-.18.43-.12.12-.26.18-.43.18h-6.12c-.17,0-.25.09-.25.25v8.11c0,.17.08.25.25.25h10.66c.17,0,.31.06.43.18.12.12.18.26.18.43v4.95c0,.17-.06.31-.18.43-.12.12-.26.18-.43.18h-17.49c-.17,0-.31-.06-.43-.18-.12-.12-.18-.26-.18-.43V18.01c0-.17.06-.31.18-.43.12-.12.26-.18.43-.18h17.49c.17,0,.31.06.43.18.12.12.18.26.18.43v4.95c0,.17-.06.31-.18.43Z"/>
      <path class="st1" d="M325.86,52.9c-.07-.14-.07-.31,0-.51l6.94-16.98c.03-.1.03-.2,0-.31l-6.94-16.98c-.03-.07-.05-.17-.05-.31,0-.27.17-.41.51-.41h6.12c.34,0,.56.17.66.51l3.42,9.79c.03.1.08.15.15.15s.12-.05.15-.15l3.42-9.79c.1-.34.32-.51.66-.51h6.07c.24,0,.39.07.46.2.07.14.07.31,0,.51l-6.94,16.98c-.03.1-.03.2,0,.31l6.94,16.98c.03.07.05.17.05.31,0,.27-.17.41-.51.41h-6.07c-.34,0-.56-.17-.66-.51l-3.42-9.74c-.03-.1-.08-.15-.15-.15s-.12.05-.15.15l-3.47,9.74c-.1.34-.32.51-.66.51h-6.07c-.24,0-.39-.07-.46-.2Z"/>
      <path class="st1" d="M369.99,23.39c-.12.12-.26.18-.43.18h-10.66c-.17,0-.25.08-.25.25v8.06c0,.17.08.25.25.25h6.12c.17,0,.31.06.43.18.12.12.18.26.18.43v4.95c0,.17-.06.31-.18.43-.12.12-.26.18-.43.18h-6.12c-.17,0-.25.09-.25.25v8.11c0,.17.08.25.25.25h10.66c.17,0,.31.06.43.18.12.12.18.26.18.43v4.95c0,.17-.06.31-.18.43-.12.12-.26.18-.43.18h-17.49c-.17,0-.31-.06-.43-.18-.12-.12-.18-.26-.18-.43V18.01c0-.17.06-.31.18-.43.12-.12.26-.18.43-.18h17.49c.17,0,.31.06.43.18.12.12.18.26.18.43v4.95c0,.17-.06.31-.18.43Z"/>
      <path class="st1" d="M376.52,50.78c-1.85-1.82-2.78-4.26-2.78-7.32v-16.52c0-3.03.93-5.44,2.78-7.24,1.85-1.8,4.31-2.7,7.37-2.7s5.57.9,7.42,2.7c1.85,1.8,2.78,4.22,2.78,7.24v.56c0,.17-.06.31-.18.43-.12.12-.26.18-.43.18l-5.97.25c-.41,0-.61-.19-.61-.56v-1.33c0-.99-.27-1.79-.82-2.4-.54-.61-1.27-.92-2.19-.92s-1.6.31-2.14.92c-.54.61-.82,1.41-.82,2.4v17.59c0,.99.27,1.78.82,2.37.54.6,1.26.89,2.14.89s1.65-.3,2.19-.89c.54-.59.82-1.38.82-2.37v-1.38c0-.17.06-.31.18-.43s.26-.18.43-.18l5.97.25c.17,0,.31.06.43.18.12.12.18.26.18.43v.51c0,3.06-.94,5.5-2.8,7.32-1.87,1.82-4.33,2.73-7.39,2.73s-5.52-.91-7.37-2.73Z"/>
      <path class="st1" d="M400.99,50.63c-1.85-1.92-2.78-4.48-2.78-7.67v-24.94c0-.17.06-.31.18-.43s.26-.18.43-.18h5.97c.17,0,.31.06.43.18.12.12.18.26.18.43v25.65c0,1.09.27,1.97.82,2.65s1.26,1.02,2.14,1.02,1.59-.34,2.12-1.02c.53-.68.79-1.56.79-2.65v-25.65c0-.17.06-.31.18-.43s.26-.18.43-.18h5.97c.17,0,.31.06.43.18.12.12.18.26.18.43v24.94c0,3.2-.93,5.75-2.78,7.67-1.85,1.92-4.29,2.88-7.32,2.88s-5.52-.96-7.37-2.88Z"/>
      <path class="st1" d="M443.47,17.58c.12.12.18.26.18.43v4.95c0,.17-.06.31-.18.43-.12.12-.26.18-.43.18h-6.37c-.17,0-.25.08-.25.25v28.66c0,.17-.06.31-.18.43s-.26.18-.43.18h-5.97c-.17,0-.31-.06-.43-.18s-.18-.26-.18-.43v-28.66c0-.17-.08-.25-.25-.25h-6.12c-.17,0-.31-.06-.43-.18-.12-.12-.18-.26-.18-.43v-4.95c0-.17.06-.31.18-.43.12-.12.26-.18.43-.18h20.19c.17,0,.31.06.43.18Z"/>
      <path class="st1" d="M447.76,52.92c-.12-.12-.18-.26-.18-.43V18.01c0-.17.06-.31.18-.43.12-.12.26-.18.43-.18h5.97c.17,0,.31.06.43.18.12.12.18.26.18.43v34.47c0,.17-.06.31-.18.43-.12.12-.26.18-.43.18h-5.97c-.17,0-.31-.06-.43-.18Z"/>
      <path class="st1" d="M462.06,50.75c-1.87-1.84-2.8-4.28-2.8-7.34v-16.32c0-3.06.94-5.51,2.8-7.34,1.87-1.84,4.37-2.75,7.5-2.75s5.63.92,7.52,2.75,2.83,4.28,2.83,7.34v16.32c0,3.06-.94,5.51-2.83,7.34s-4.39,2.75-7.52,2.75-5.63-.92-7.5-2.75ZM471.85,46.34c.58-.66.87-1.54.87-2.63v-16.93c0-1.09-.29-1.96-.87-2.63s-1.34-1-2.29-1-1.71.33-2.27,1c-.56.66-.84,1.54-.84,2.63v16.93c0,1.09.28,1.96.84,2.63.56.66,1.32.99,2.27.99s1.72-.33,2.29-.99Z"/>
      <path class="st1" d="M499.11,17.58c.12-.12.26-.18.43-.18h5.92c.17,0,.31.06.43.18.12.12.18.26.18.43v34.47c0,.17-.06.31-.18.43s-.26.18-.43.18h-6.73c-.34,0-.56-.17-.66-.51l-6.32-19.74c-.03-.1-.09-.14-.18-.13-.09.02-.13.08-.13.18l.05,19.58c0,.17-.06.31-.18.43s-.26.18-.43.18h-5.92c-.17,0-.31-.06-.43-.18s-.18-.26-.18-.43V18.01c0-.17.06-.31.18-.43.12-.12.26-.18.43-.18h6.68c.34,0,.56.17.66.51l6.37,19.74c.03.1.09.14.18.13.08-.02.13-.08.13-.18l-.05-19.58c0-.17.06-.31.18-.43Z"/>
      <path class="st1" d="M521.85,52.92c-.12-.12-.18-.26-.18-.43V18.01c0-.17.06-.31.18-.43.12-.12.26-.18.43-.18h5.97c.17,0,.31.06.43.18.12.12.18.26.18.43v34.47c0,.17-.06.31-.18.43-.12.12-.26.18-.43.18h-5.97c-.17,0-.31-.06-.43-.18Z"/>
      <path class="st1" d="M537.84,52.33c-1.5-.78-2.65-1.88-3.47-3.29-.82-1.41-1.22-3.03-1.22-4.87v-1.48c0-.17.06-.31.18-.43.12-.12.26-.18.43-.18h5.86c.17,0,.31.06.43.18.12.12.18.26.18.43v1.12c0,1.05.27,1.9.82,2.55.54.65,1.22.97,2.04.97s1.5-.31,2.04-.92c.54-.61.82-1.41.82-2.4s-.34-1.89-1.02-2.63c-.68-.73-2.01-1.81-3.98-3.24-1.7-1.22-3.08-2.31-4.13-3.26s-1.96-2.12-2.7-3.52c-.75-1.39-1.12-3.01-1.12-4.84,0-2.89.9-5.2,2.7-6.94,1.8-1.73,4.18-2.6,7.14-2.6s5.4.9,7.22,2.7c1.82,1.8,2.73,4.16,2.73,7.09v1.22c0,.17-.06.31-.18.43s-.26.18-.43.18h-5.86c-.17,0-.31-.06-.43-.18s-.18-.26-.18-.43v-1.38c0-1.05-.26-1.89-.79-2.52-.53-.63-1.22-.94-2.07-.94s-1.48.3-1.99.89c-.51.6-.77,1.42-.77,2.47s.32,1.92.97,2.7c.65.78,1.92,1.87,3.83,3.26,2.11,1.56,3.7,2.83,4.77,3.8,1.07.97,1.9,2.04,2.5,3.21.59,1.17.89,2.58.89,4.21,0,2.99-.92,5.37-2.75,7.14-1.84,1.77-4.25,2.65-7.24,2.65-1.97,0-3.71-.39-5.2-1.17Z"/>
      <path class="st1" d="M581.95,52.54l-.82-4.9c0-.17-.1-.25-.31-.25h-6.48c-.2,0-.31.09-.31.25l-.82,4.9c-.03.38-.25.56-.66.56h-5.97c-.44,0-.61-.22-.51-.66l7.5-34.47c.07-.37.29-.56.66-.56h6.88c.37,0,.59.19.66.56l7.45,34.47.05.2c0,.31-.19.46-.56.46h-6.12c-.41,0-.63-.19-.66-.56ZM575.27,41.83h4.59c.17,0,.24-.08.2-.25l-2.4-13.92c-.03-.1-.09-.15-.15-.15s-.12.05-.15.15l-2.29,13.92c0,.17.07.25.2.25Z"/>
    </g>
  </g>
  <g>
    <path class="st0" d="M292.27,170.77c-1.42-.73-2.52-1.76-3.29-3.1-.78-1.33-1.17-2.87-1.18-4.6v-1.4c0-.16.05-.3.16-.41.11-.11.25-.17.41-.17l5.55-.02c.16,0,.3.06.41.17.11.11.17.25.17.41v1.06c0,1,.27,1.8.79,2.41.52.61,1.16.91,1.93.91.77,0,1.41-.3,1.93-.88.51-.58.77-1.34.76-2.27,0-.96-.33-1.79-.98-2.48-.65-.69-1.91-1.7-3.78-3.05-1.61-1.15-2.92-2.17-3.92-3.07-1-.9-1.86-2-2.57-3.32s-1.07-2.84-1.08-4.58c-.01-2.73.83-4.92,2.53-6.57,1.7-1.65,3.94-2.48,6.74-2.49,2.83-.01,5.11.83,6.84,2.53,1.73,1.7,2.6,3.93,2.61,6.69v1.16c0,.16-.05.3-.16.41-.11.11-.25.17-.41.17l-5.55.02c-.16,0-.3-.06-.41-.17-.11-.11-.17-.25-.17-.41v-1.3c-.01-1-.26-1.79-.76-2.38-.5-.59-1.15-.89-1.96-.88-.77,0-1.4.29-1.88.85s-.72,1.35-.71,2.34c0,.96.31,1.82.93,2.55.61.74,1.82,1.76,3.63,3.07,2,1.47,3.51,2.66,4.53,3.57,1.02.91,1.81,1.92,2.38,3.03.57,1.11.85,2.43.86,3.98.01,2.83-.85,5.08-2.58,6.76s-4.01,2.53-6.84,2.54c-1.87,0-3.51-.36-4.92-1.09Z"/>
    <path class="st0" d="M322.49,137.76c.11-.11.25-.17.41-.17l5.64-.02c.16,0,.3.06.41.17.11.11.17.25.17.41l.14,32.61c0,.16-.05.3-.17.41-.11.11-.25.17-.41.17l-5.64.02c-.16,0-.3-.05-.41-.17-.11-.11-.17-.25-.17-.41l-.06-13.17c0-.16-.08-.24-.24-.24l-4.82.02c-.16,0-.24.08-.24.24l.06,13.17c0,.16-.05.3-.17.41-.11.11-.25.17-.41.17l-5.64.02c-.16,0-.3-.05-.41-.17-.11-.11-.17-.25-.17-.41l-.14-32.61c0-.16.05-.3.17-.41.11-.11.25-.17.41-.17l5.64-.02c.16,0,.3.06.41.17.11.11.17.25.17.41l.06,13.12c0,.16.08.24.24.24l4.82-.02c.16,0,.24-.08.24-.24l-.06-13.12c0-.16.05-.3.17-.41Z"/>
    <path class="st0" d="M347.5,170.72l-.79-4.63c0-.16-.1-.24-.29-.24l-6.13.03c-.19,0-.29.08-.29.24l-.75,4.63c-.03.35-.24.53-.62.53l-5.64.02c-.42,0-.58-.21-.49-.62l6.95-32.64c.06-.35.27-.53.62-.53l6.51-.03c.35,0,.56.17.63.53l7.18,32.58.05.19c0,.29-.17.44-.53.44l-5.79.02c-.39,0-.6-.17-.63-.53ZM341.14,160.62l4.34-.02c.16,0,.22-.08.19-.24l-2.33-13.16c-.03-.1-.08-.14-.14-.14s-.11.05-.14.15l-2.11,13.18c0,.16.07.24.19.24Z"/>
    <path class="st0" d="M372.49,138.63c1.39.86,2.46,2.07,3.22,3.63.76,1.56,1.15,3.33,1.16,5.32.01,2.99-.78,5.39-2.38,7.2-1.6,1.81-3.7,2.72-6.31,2.73l-3.62.02c-.16,0-.24.08-.24.24l.06,12.83c0,.16-.05.3-.17.41-.11.11-.25.17-.41.17l-5.64.03c-.16,0-.3-.05-.41-.17-.11-.11-.17-.25-.17-.41l-.14-32.66c0-.16.05-.3.17-.41.11-.11.25-.17.41-.17l9.74-.04c1.77,0,3.35.42,4.73,1.28ZM369.14,151.02c.62-.79.93-1.88.92-3.26,0-1.42-.32-2.52-.95-3.33-.63-.8-1.46-1.2-2.49-1.19h-2.12c-.16.01-.24.09-.24.25l.04,8.49c0,.16.08.24.24.24h2.12c1.03-.01,1.86-.41,2.48-1.2Z"/>
    <path class="st0" d="M397.9,142.93c-.11.11-.25.17-.41.17l-10.08.04c-.16,0-.24.08-.24.24l.03,7.62c0,.16.08.24.24.24l5.79-.03c.16,0,.3.06.41.17.11.11.17.25.17.41l.02,4.68c0,.16-.05.3-.17.41-.11.11-.25.17-.41.17l-5.79.03c-.16,0-.24.08-.24.24l.03,7.67c0,.16.08.24.24.24l10.08-.04c.16,0,.3.05.41.17.11.11.17.25.17.41l.02,4.68c0,.16-.05.3-.17.41-.11.11-.25.17-.41.17l-16.54.07c-.16,0-.3-.05-.41-.17-.11-.11-.17-.25-.17-.41l-.14-32.61c0-.16.05-.3.17-.41.11-.11.25-.17.41-.17l16.54-.07c.16,0,.3.05.41.17.11.11.17.25.17.41l.02,4.68c0,.16-.06.3-.17.41Z"/>
    <path class="st0" d="M402.22,170.84c-.11-.11-.17-.25-.17-.41l-.14-32.61c0-.16.05-.3.17-.41.11-.11.25-.17.41-.17l8.73-.04c2.93-.01,5.28.83,7.05,2.53,1.78,1.7,2.67,3.96,2.68,6.79l.07,15.05c.01,2.83-.86,5.1-2.62,6.81-1.76,1.71-4.1,2.57-7.03,2.59l-8.73.04c-.16,0-.3-.05-.41-.17ZM409.07,165.14l2.17-.06c.87-.04,1.57-.41,2.12-1.12.54-.71.83-1.64.86-2.8l-.06-14.18c0-1.22-.28-2.19-.83-2.89-.55-.7-1.29-1.05-2.22-1.05h-2.12c-.16,0-.24.09-.24.25l.09,21.61c0,.16.08.24.24.24Z"/>
    <path class="st0" d="M452.21,168.38c-1.79,1.62-4.12,2.43-6.98,2.44l-9.12.04c-.16,0-.3-.05-.41-.17s-.17-.25-.17-.41l-.14-32.61c0-.16.05-.3.17-.41.11-.11.25-.17.41-.17l8.06-.04c3.21-.01,5.74.75,7.56,2.28,1.82,1.54,2.74,3.83,2.75,6.89.01,3.18-1.07,5.5-3.25,6.96-.13.1-.14.19-.05.29,2.55,1.79,3.83,4.45,3.84,7.99.01,2.99-.88,5.29-2.67,6.91ZM442.21,143.15l.03,7.57c0,.16.08.24.24.24h1.74c1.09-.01,1.94-.36,2.55-1.06.61-.69.91-1.67.9-2.92,0-1.32-.31-2.33-.91-3.04-.6-.7-1.46-1.05-2.58-1.05h-1.74c-.16,0-.24.09-.24.25ZM447.17,163.77c.61-.78.91-1.87.9-3.28,0-1.42-.32-2.54-.93-3.37-.62-.83-1.44-1.25-2.47-1.24h-2.17c-.16,0-.24.09-.24.25l.04,8.59c0,.16.08.24.24.24h2.12c1.06-.01,1.89-.4,2.5-1.18Z"/>
    <path class="st0" d="M463.04,170.53c-.11-.11-.17-.25-.17-.41l-.05-12.54-.05-.29-6.84-19.6c-.03-.06-.05-.15-.05-.24,0-.29.17-.44.53-.44l5.93-.03c.35,0,.58.16.68.48l3.04,11.52c.03.1.08.14.14.14.06,0,.11-.05.14-.14l2.94-11.54c.09-.32.32-.48.67-.49l5.93-.03c.19,0,.34.05.44.17.1.11.11.28.05.51l-6.71,19.66-.05.29.05,12.54c0,.16-.06.3-.17.41-.11.11-.25.17-.41.17l-5.64.02c-.16,0-.3-.06-.41-.17Z"/>
  </g>
</svg>