<?xml version="1.0" encoding="UTF-8"?>
<svg id="Layer_1" xmlns="http://www.w3.org/2000/svg" version="1.1" viewBox="0 0 764 251.53">
  <!-- Generator: Adobe Illustrator 29.6.1, SVG Export Plug-In . SVG Version: 2.1.1 Build 9)  -->
  <defs>
    <style>
      .st0 {
        fill: none;
        stroke: #fff;
        stroke-miterlimit: 10;
      }

      .st1 {
        fill: #fff;
      }

      .st2 {
        fill: #00e1ff;
      }
    </style>
  </defs>
  <g>
    <g>
      <path class="st2" d="M62.49,227.13c-.1-.1-.14-.21-.14-.35v-27.62c0-.14.05-.25.14-.35.1-.09.21-.14.35-.14h4.78c.14,0,.25.05.35.14.09.1.14.21.14.35v27.62c0,.14-.05.25-.14.35-.1.1-.21.14-.35.14h-4.78c-.14,0-.25-.05-.35-.14Z"/>
      <path class="st2" d="M83.94,198.82c.1-.09.21-.14.35-.14h4.74c.14,0,.25.05.35.14.1.1.14.21.14.35v27.62c0,.14-.05.25-.14.35-.1.1-.21.14-.35.14h-5.39c-.27,0-.45-.14-.53-.41l-5.07-15.81c-.03-.08-.08-.12-.14-.1-.07.01-.1.06-.1.14l.04,15.69c0,.14-.05.25-.14.35-.1.1-.21.14-.35.14h-4.74c-.14,0-.25-.05-.35-.14-.1-.1-.14-.21-.14-.35v-27.62c0-.14.05-.25.14-.35.1-.09.21-.14.35-.14h5.35c.27,0,.45.14.53.41l5.11,15.81c.03.08.07.12.14.1.07-.01.1-.06.1-.14l-.04-15.69c0-.14.05-.25.14-.35Z"/>
      <path class="st2" d="M118.22,198.82c.1.1.14.21.14.35v3.96c0,.14-.05.25-.14.35-.1.1-.21.14-.35.14h-5.11c-.14,0-.2.07-.2.2v22.96c0,.14-.05.25-.14.35-.1.1-.21.14-.35.14h-4.78c-.14,0-.25-.05-.35-.14-.1-.1-.14-.21-.14-.35v-22.96c0-.14-.07-.2-.2-.2h-4.9c-.14,0-.25-.05-.35-.14-.1-.09-.14-.21-.14-.35v-3.96c0-.14.05-.25.14-.35.1-.09.21-.14.35-.14h16.18c.14,0,.25.05.35.14Z"/>
      <path class="st2" d="M131.9,198.82c.1-.09.21-.14.35-.14h4.78c.14,0,.25.05.35.14.1.1.14.21.14.35v27.62c0,.14-.05.25-.14.35-.1.1-.21.14-.35.14h-4.78c-.14,0-.25-.05-.35-.14-.1-.1-.14-.21-.14-.35v-11.15c0-.14-.07-.21-.2-.21h-4.09c-.14,0-.2.07-.2.21v11.15c0,.14-.05.25-.14.35-.1.1-.21.14-.35.14h-4.78c-.14,0-.25-.05-.35-.14-.1-.1-.14-.21-.14-.35v-27.62c0-.14.05-.25.14-.35.1-.09.21-.14.35-.14h4.78c.14,0,.25.05.35.14.09.1.14.21.14.35v11.11c0,.14.07.2.2.2h4.09c.14,0,.2-.07.2-.2v-11.11c0-.14.05-.25.14-.35Z"/>
      <path class="st2" d="M156.21,203.48c-.1.1-.21.14-.35.14h-8.54c-.14,0-.2.07-.2.2v6.46c0,.14.07.2.2.2h4.9c.14,0,.25.05.35.14.1.1.14.21.14.35v3.96c0,.14-.05.25-.14.35-.1.1-.21.14-.35.14h-4.9c-.14,0-.2.07-.2.21v6.5c0,.14.07.2.2.2h8.54c.14,0,.25.05.35.14.09.1.14.21.14.35v3.96c0,.14-.05.25-.14.35-.1.1-.21.14-.35.14h-14.01c-.14,0-.25-.05-.35-.14-.1-.1-.14-.21-.14-.35v-27.62c0-.14.05-.25.14-.35.1-.09.21-.14.35-.14h14.01c.14,0,.25.05.35.14.09.1.14.21.14.35v3.96c0,.14-.05.25-.14.35Z"/>
      <path class="st2" d="M182.97,203.48c-.1.1-.21.14-.35.14h-8.5c-.14,0-.2.07-.2.2v6.46c0,.14.07.2.2.2h4.86c.14,0,.25.05.35.14.1.1.14.21.14.35v3.96c0,.14-.05.25-.14.35-.1.1-.21.14-.35.14h-4.86c-.14,0-.2.07-.2.21v11.15c0,.14-.05.25-.14.35-.1.1-.21.14-.35.14h-4.78c-.14,0-.25-.05-.35-.14-.1-.1-.14-.21-.14-.35v-27.62c0-.14.05-.25.14-.35.1-.09.21-.14.35-.14h13.97c.14,0,.25.05.35.14.1.1.14.21.14.35v3.96c0,.14-.05.25-.14.35Z"/>
      <path class="st2" d="M187.57,225.4c-1.5-1.47-2.25-3.43-2.25-5.88v-13.07c0-2.45.75-4.41,2.25-5.88,1.5-1.47,3.5-2.21,6.01-2.21s4.51.74,6.03,2.21c1.51,1.47,2.27,3.43,2.27,5.88v13.07c0,2.45-.76,4.41-2.27,5.88-1.51,1.47-3.52,2.21-6.03,2.21s-4.51-.74-6.01-2.21ZM195.41,221.86c.46-.53.69-1.23.69-2.1v-13.56c0-.87-.23-1.57-.69-2.1-.46-.53-1.08-.8-1.84-.8s-1.37.27-1.82.8c-.45.53-.67,1.23-.67,2.1v13.56c0,.87.22,1.57.67,2.1.45.53,1.06.8,1.82.8s1.38-.26,1.84-.8Z"/>
      <path class="st2" d="M207.26,225.4c-1.5-1.47-2.25-3.43-2.25-5.88v-13.07c0-2.45.75-4.41,2.25-5.88,1.5-1.47,3.5-2.21,6.01-2.21s4.51.74,6.03,2.21c1.51,1.47,2.27,3.43,2.27,5.88v13.07c0,2.45-.76,4.41-2.27,5.88-1.51,1.47-3.52,2.21-6.03,2.21s-4.51-.74-6.01-2.21ZM215.11,221.86c.46-.53.69-1.23.69-2.1v-13.56c0-.87-.23-1.57-.69-2.1-.46-.53-1.08-.8-1.84-.8s-1.37.27-1.82.8c-.45.53-.67,1.23-.67,2.1v13.56c0,.87.22,1.57.67,2.1.45.53,1.06.8,1.82.8s1.38-.26,1.84-.8Z"/>
      <path class="st2" d="M241.31,198.82c.1.1.14.21.14.35v3.96c0,.14-.05.25-.14.35-.1.1-.21.14-.35.14h-5.11c-.14,0-.2.07-.2.2v22.96c0,.14-.05.25-.14.35-.1.1-.21.14-.35.14h-4.78c-.14,0-.25-.05-.35-.14-.1-.1-.14-.21-.14-.35v-22.96c0-.14-.07-.2-.2-.2h-4.9c-.14,0-.25-.05-.35-.14-.1-.09-.14-.21-.14-.35v-3.96c0-.14.05-.25.14-.35.1-.09.21-.14.35-.14h16.18c.14,0,.25.05.35.14Z"/>
      <path class="st2" d="M255,198.82c.1-.09.21-.14.35-.14h4.78c.14,0,.25.05.35.14.1.1.14.21.14.35v27.62c0,.14-.05.25-.14.35-.1.1-.21.14-.35.14h-4.78c-.14,0-.25-.05-.35-.14-.1-.1-.14-.21-.14-.35v-11.15c0-.14-.07-.21-.2-.21h-4.09c-.14,0-.2.07-.2.21v11.15c0,.14-.05.25-.14.35-.1.1-.21.14-.35.14h-4.78c-.14,0-.25-.05-.35-.14-.1-.1-.14-.21-.14-.35v-27.62c0-.14.05-.25.14-.35.1-.09.21-.14.35-.14h4.78c.14,0,.25.05.35.14.09.1.14.21.14.35v11.11c0,.14.07.2.2.2h4.09c.14,0,.2-.07.2-.2v-11.11c0-.14.05-.25.14-.35Z"/>
      <path class="st2" d="M264.72,227.13c-.1-.1-.14-.21-.14-.35v-27.62c0-.14.05-.25.14-.35.1-.09.21-.14.35-.14h4.78c.14,0,.25.05.35.14.09.1.14.21.14.35v27.62c0,.14-.05.25-.14.35-.1.1-.21.14-.35.14h-4.78c-.14,0-.25-.05-.35-.14Z"/>
      <path class="st2" d="M274.49,227.13c-.1-.1-.14-.21-.14-.35v-27.62c0-.14.05-.25.14-.35.1-.09.21-.14.35-.14h4.78c.14,0,.25.05.35.14.09.1.14.21.14.35v22.96c0,.14.07.2.2.2h8.58c.14,0,.25.05.35.14.1.1.14.21.14.35v3.96c0,.14-.05.25-.14.35-.1.1-.21.14-.35.14h-14.05c-.14,0-.25-.05-.35-.14Z"/>
      <path class="st2" d="M292.26,227.13c-.1-.1-.14-.21-.14-.35v-27.62c0-.14.05-.25.14-.35.1-.09.21-.14.35-.14h4.78c.14,0,.25.05.35.14.09.1.14.21.14.35v22.96c0,.14.07.2.2.2h8.58c.14,0,.25.05.35.14.1.1.14.21.14.35v3.96c0,.14-.05.25-.14.35-.1.1-.21.14-.35.14h-14.05c-.14,0-.25-.05-.35-.14Z"/>
      <path class="st2" d="M313,226.66c-1.2-.63-2.12-1.5-2.78-2.63-.65-1.13-.98-2.43-.98-3.9v-1.19c0-.14.05-.25.14-.35.1-.1.21-.14.35-.14h4.7c.14,0,.25.05.35.14.1.1.14.21.14.35v.9c0,.84.22,1.53.65,2.04.44.52.98.78,1.63.78s1.2-.25,1.63-.74c.44-.49.65-1.13.65-1.92s-.27-1.52-.82-2.1c-.55-.59-1.61-1.45-3.19-2.59-1.36-.98-2.47-1.85-3.31-2.62-.84-.76-1.57-1.7-2.17-2.82-.6-1.12-.9-2.41-.9-3.88,0-2.31.72-4.17,2.17-5.56,1.44-1.39,3.35-2.08,5.72-2.08s4.32.72,5.78,2.17c1.46,1.44,2.19,3.34,2.19,5.68v.98c0,.14-.05.25-.14.35-.1.1-.21.14-.35.14h-4.7c-.14,0-.25-.05-.35-.14-.1-.09-.14-.21-.14-.35v-1.1c0-.84-.21-1.52-.63-2.02-.42-.5-.97-.76-1.65-.76s-1.19.24-1.59.71c-.41.48-.61,1.14-.61,1.98s.26,1.54.78,2.17c.52.63,1.54,1.5,3.06,2.61,1.69,1.25,2.96,2.27,3.82,3.04s1.53,1.63,2,2.57c.48.94.71,2.06.71,3.37,0,2.4-.74,4.3-2.21,5.72-1.47,1.42-3.4,2.12-5.8,2.12-1.58,0-2.97-.31-4.17-.94Z"/>
      <path class="st2" d="M338.69,225.4c-1.5-1.47-2.25-3.43-2.25-5.88v-13.07c0-2.45.75-4.41,2.25-5.88,1.5-1.47,3.5-2.21,6.01-2.21s4.51.74,6.03,2.21c1.51,1.47,2.27,3.43,2.27,5.88v13.07c0,2.45-.76,4.41-2.27,5.88-1.51,1.47-3.52,2.21-6.03,2.21s-4.51-.74-6.01-2.21ZM346.54,221.86c.46-.53.69-1.23.69-2.1v-13.56c0-.87-.23-1.57-.69-2.1-.46-.53-1.08-.8-1.84-.8s-1.37.27-1.82.8c-.45.53-.67,1.23-.67,2.1v13.56c0,.87.22,1.57.67,2.1.45.53,1.06.8,1.82.8s1.38-.26,1.84-.8Z"/>
      <path class="st2" d="M371.36,203.48c-.1.1-.21.14-.35.14h-8.5c-.14,0-.2.07-.2.2v6.46c0,.14.07.2.2.2h4.86c.14,0,.25.05.35.14.1.1.14.21.14.35v3.96c0,.14-.05.25-.14.35-.1.1-.21.14-.35.14h-4.86c-.14,0-.2.07-.2.21v11.15c0,.14-.05.25-.14.35-.1.1-.21.14-.35.14h-4.78c-.14,0-.25-.05-.35-.14-.1-.1-.14-.21-.14-.35v-27.62c0-.14.05-.25.14-.35.1-.09.21-.14.35-.14h13.97c.14,0,.25.05.35.14.1.1.14.21.14.35v3.96c0,.14-.05.25-.14.35Z"/>
      <path class="st2" d="M382.8,227.13c-.1-.1-.14-.21-.14-.35v-27.62c0-.14.05-.25.14-.35.1-.09.21-.14.35-.14h7.39c2.48,0,4.47.72,5.97,2.17,1.5,1.44,2.25,3.36,2.25,5.76v12.75c0,2.4-.75,4.32-2.25,5.76-1.5,1.44-3.49,2.17-5.97,2.17h-7.39c-.14,0-.25-.05-.35-.14ZM388.62,222.33l1.84-.04c.74-.03,1.33-.34,1.8-.94.46-.6.71-1.39.74-2.37v-12.01c0-1.03-.23-1.85-.7-2.45-.46-.6-1.09-.9-1.88-.9h-1.8c-.14,0-.2.07-.2.2v18.3c0,.14.07.2.2.2Z"/>
      <path class="st2" d="M413.13,226.83l-.65-3.92c0-.14-.08-.21-.25-.21h-5.19c-.16,0-.25.07-.25.21l-.65,3.92c-.03.3-.2.45-.53.45h-4.78c-.35,0-.49-.18-.41-.53l6.01-27.62c.05-.3.23-.45.53-.45h5.52c.3,0,.48.15.53.45l5.96,27.62.04.16c0,.25-.15.37-.45.37h-4.9c-.33,0-.5-.15-.53-.45ZM407.78,218.25h3.68c.14,0,.19-.07.16-.2l-1.92-11.15c-.03-.08-.07-.12-.12-.12s-.1.04-.12.12l-1.84,11.15c0,.14.05.2.16.2Z"/>
      <path class="st2" d="M421.85,227.13c-.1-.1-.14-.21-.14-.35v-27.62c0-.14.05-.25.14-.35s.21-.14.35-.14h4.78c.14,0,.25.05.35.14.09.1.14.21.14.35v22.96c0,.14.07.2.21.2h8.58c.14,0,.25.05.35.14.09.1.14.21.14.35v3.96c0,.14-.05.25-.14.35-.1.1-.21.14-.35.14h-14.05c-.14,0-.25-.05-.35-.14Z"/>
      <path class="st2" d="M453.17,198.68h4.74c.14,0,.25.05.35.14.09.1.14.21.14.35v27.62c0,.14-.05.25-.14.35-.1.1-.21.14-.35.14h-4.78c-.14,0-.25-.05-.35-.14-.1-.1-.14-.21-.14-.35v-18.34c0-.11-.03-.16-.08-.16s-.11.04-.16.12l-3.19,5.64c-.14.22-.25.33-.33.33s-.19-.11-.33-.33l-3.19-5.64c-.05-.08-.11-.12-.16-.12s-.08.05-.08.16v18.34c0,.14-.05.25-.14.35-.1.1-.21.14-.35.14h-4.78c-.14,0-.25-.05-.35-.14-.1-.1-.14-.21-.14-.35v-27.62c0-.14.05-.25.14-.35s.21-.14.35-.14h4.7c.27,0,.48.11.61.33l3.64,6.5c.08.11.16.11.25,0l3.51-6.5c.11-.22.31-.33.61-.33Z"/>
      <path class="st2" d="M473.72,226.83l-.65-3.92c0-.14-.08-.21-.25-.21h-5.19c-.16,0-.25.07-.25.21l-.65,3.92c-.03.3-.2.45-.53.45h-4.78c-.35,0-.49-.18-.41-.53l6.01-27.62c.05-.3.23-.45.53-.45h5.51c.3,0,.48.15.53.45l5.96,27.62.04.16c0,.25-.15.37-.45.37h-4.9c-.33,0-.5-.15-.53-.45ZM468.37,218.25h3.68c.14,0,.19-.07.16-.2l-1.92-11.15c-.03-.08-.07-.12-.12-.12s-.1.04-.12.12l-1.84,11.15c0,.14.05.2.16.2Z"/>
      <path class="st2" d="M481.83,231.14c-.1-.1-.13-.23-.1-.39l.9-9.48c.05-.3.22-.45.49-.45h4.17c.38,0,.53.18.45.53l-2.17,9.48c-.08.3-.26.45-.53.45h-2.82c-.16,0-.29-.05-.39-.14Z"/>
      <path class="st2" d="M500.81,225.5c-1.47-1.4-2.21-3.26-2.21-5.58v-2.82c0-.14.05-.25.14-.35.1-.09.21-.14.35-.14h4.78c.14,0,.25.05.35.14.1.1.14.21.14.35v2.9c0,.79.2,1.43.61,1.92.41.49.95.74,1.63.74s1.27-.25,1.7-.74c.42-.49.63-1.13.63-1.92v-20.84c0-.14.05-.25.14-.35s.21-.14.35-.14h4.78c.14,0,.25.05.35.14.09.1.14.21.14.35v20.75c0,2.32-.74,4.17-2.23,5.58-1.48,1.4-3.44,2.1-5.86,2.1s-4.33-.7-5.8-2.1Z"/>
      <path class="st2" d="M529.57,226.83l-.65-3.92c0-.14-.08-.21-.25-.21h-5.19c-.16,0-.25.07-.25.21l-.65,3.92c-.03.3-.2.45-.53.45h-4.78c-.35,0-.49-.18-.41-.53l6.01-27.62c.05-.3.23-.45.53-.45h5.51c.3,0,.48.15.53.45l5.96,27.62.04.16c0,.25-.15.37-.45.37h-4.9c-.33,0-.5-.15-.53-.45ZM524.22,218.25h3.68c.14,0,.19-.07.16-.2l-1.92-11.15c-.03-.08-.07-.12-.12-.12s-.1.04-.12.12l-1.84,11.15c0,.14.05.2.16.2Z"/>
      <path class="st2" d="M551.83,198.68h4.74c.14,0,.25.05.35.14.09.1.14.21.14.35v27.62c0,.14-.05.25-.14.35-.1.1-.21.14-.35.14h-4.78c-.14,0-.25-.05-.35-.14-.1-.1-.14-.21-.14-.35v-18.34c0-.11-.03-.16-.08-.16s-.11.04-.16.12l-3.19,5.64c-.14.22-.25.33-.33.33s-.19-.11-.33-.33l-3.19-5.64c-.05-.08-.11-.12-.16-.12s-.08.05-.08.16v18.34c0,.14-.05.25-.14.35-.1.1-.21.14-.35.14h-4.78c-.14,0-.25-.05-.35-.14-.1-.1-.14-.21-.14-.35v-27.62c0-.14.05-.25.14-.35s.21-.14.35-.14h4.7c.27,0,.48.11.61.33l3.64,6.5c.08.11.16.11.25,0l3.51-6.5c.11-.22.31-.33.61-.33Z"/>
      <path class="st2" d="M564.09,226.66c-1.2-.63-2.12-1.5-2.78-2.63-.65-1.13-.98-2.43-.98-3.9v-1.19c0-.14.05-.25.14-.35.09-.1.21-.14.35-.14h4.7c.14,0,.25.05.35.14.09.1.14.21.14.35v.9c0,.84.22,1.53.65,2.04.44.52.98.78,1.63.78s1.2-.25,1.63-.74c.43-.49.65-1.13.65-1.92s-.27-1.52-.82-2.1-1.61-1.45-3.19-2.59c-1.36-.98-2.47-1.85-3.31-2.62-.84-.76-1.57-1.7-2.17-2.82-.6-1.12-.9-2.41-.9-3.88,0-2.31.72-4.17,2.17-5.56,1.44-1.39,3.35-2.08,5.72-2.08s4.32.72,5.78,2.17c1.46,1.44,2.19,3.34,2.19,5.68v.98c0,.14-.05.25-.14.35s-.21.14-.35.14h-4.7c-.14,0-.25-.05-.35-.14-.1-.09-.14-.21-.14-.35v-1.1c0-.84-.21-1.52-.63-2.02s-.97-.76-1.65-.76-1.18.24-1.59.71c-.41.48-.61,1.14-.61,1.98s.26,1.54.78,2.17c.52.63,1.54,1.5,3.06,2.61,1.69,1.25,2.96,2.27,3.82,3.04.86.78,1.53,1.63,2,2.57.48.94.71,2.06.71,3.37,0,2.4-.74,4.3-2.21,5.72-1.47,1.42-3.41,2.12-5.8,2.12-1.58,0-2.97-.31-4.17-.94Z"/>
      <path class="st2" d="M589.81,198.82c.1-.09.21-.14.35-.14h4.78c.14,0,.25.05.35.14.1.1.14.21.14.35v27.62c0,.14-.05.25-.14.35s-.21.14-.35.14h-4.78c-.14,0-.25-.05-.35-.14s-.14-.21-.14-.35v-11.15c0-.14-.07-.21-.2-.21h-4.09c-.14,0-.2.07-.2.21v11.15c0,.14-.05.25-.14.35s-.21.14-.35.14h-4.78c-.14,0-.25-.05-.35-.14s-.14-.21-.14-.35v-27.62c0-.14.05-.25.14-.35.1-.09.21-.14.35-.14h4.78c.14,0,.25.05.35.14.1.1.14.21.14.35v11.11c0,.14.07.2.2.2h4.09c.14,0,.2-.07.2-.2v-11.11c0-.14.05-.25.14-.35Z"/>
      <path class="st2" d="M614.12,203.48c-.1.1-.21.14-.35.14h-8.54c-.14,0-.2.07-.2.2v6.46c0,.14.07.2.2.2h4.9c.14,0,.25.05.35.14.09.1.14.21.14.35v3.96c0,.14-.05.25-.14.35s-.21.14-.35.14h-4.9c-.14,0-.2.07-.2.21v6.5c0,.14.07.2.2.2h8.54c.14,0,.25.05.35.14.1.1.14.21.14.35v3.96c0,.14-.05.25-.14.35s-.21.14-.35.14h-14.01c-.14,0-.25-.05-.35-.14s-.14-.21-.14-.35v-27.62c0-.14.05-.25.14-.35.1-.09.21-.14.35-.14h14.01c.14,0,.25.05.35.14.1.1.14.21.14.35v3.96c0,.14-.05.25-.14.35Z"/>
      <path class="st2" d="M617.67,227.13c-.1-.1-.14-.21-.14-.35v-27.62c0-.14.05-.25.14-.35.1-.09.21-.14.35-.14h7.39c2.48,0,4.47.72,5.96,2.17,1.5,1.44,2.25,3.36,2.25,5.76v12.75c0,2.4-.75,4.32-2.25,5.76s-3.49,2.17-5.96,2.17h-7.39c-.14,0-.25-.05-.35-.14ZM623.49,222.33l1.84-.04c.74-.03,1.33-.34,1.8-.94.46-.6.71-1.39.74-2.37v-12.01c0-1.03-.23-1.85-.69-2.45-.46-.6-1.09-.9-1.88-.9h-1.8c-.14,0-.2.07-.2.2v18.3c0,.14.07.2.2.2Z"/>
      <path class="st2" d="M649.93,199.74c1.17.74,2.08,1.76,2.72,3.08.64,1.32.96,2.83.96,4.51,0,2.53-.68,4.56-2.04,6.09-1.36,1.53-3.15,2.29-5.35,2.29h-3.06c-.14,0-.2.07-.2.21v10.87c0,.14-.05.25-.14.35s-.21.14-.35.14h-4.78c-.14,0-.25-.05-.35-.14s-.14-.21-.14-.35v-27.66c0-.14.05-.25.14-.35.1-.09.21-.14.35-.14h8.25c1.5,0,2.83.37,4,1.1ZM647.05,210.22c.53-.67.8-1.59.8-2.76s-.27-2.14-.8-2.82c-.53-.68-1.23-1.02-2.1-1.02h-1.8c-.14,0-.2.07-.2.2v7.19c0,.14.07.2.2.2h1.8c.87,0,1.57-.33,2.1-1Z"/>
      <path class="st2" d="M658.69,225.29c-1.48-1.54-2.23-3.59-2.23-6.15v-19.98c0-.14.05-.25.14-.35s.21-.14.35-.14h4.78c.14,0,.25.05.35.14.09.1.14.21.14.35v20.55c0,.87.22,1.58.65,2.12.43.54,1.01.82,1.72.82s1.27-.27,1.7-.82c.42-.54.63-1.25.63-2.12v-20.55c0-.14.05-.25.14-.35s.21-.14.35-.14h4.78c.14,0,.25.05.35.14.09.1.14.21.14.35v19.98c0,2.56-.74,4.61-2.23,6.15-1.48,1.54-3.44,2.31-5.86,2.31s-4.42-.77-5.9-2.31Z"/>
      <path class="st2" d="M687.23,226.87l-3.15-11.28c-.06-.11-.12-.16-.21-.16h-1.39c-.14,0-.2.07-.2.21v11.15c0,.14-.05.25-.14.35s-.21.14-.35.14h-4.78c-.14,0-.25-.05-.35-.14s-.14-.21-.14-.35v-27.62c0-.14.05-.25.14-.35.1-.09.21-.14.35-.14h8.25c1.5,0,2.83.36,4,1.08,1.17.72,2.08,1.74,2.72,3.04.64,1.31.96,2.81.96,4.49s-.31,3.02-.92,4.25c-.61,1.23-1.46,2.18-2.55,2.86-.05.03-.1.06-.12.1s-.03.09,0,.14l3.76,12.05.04.16c0,.27-.15.41-.45.41h-4.9c-.3,0-.49-.14-.57-.41ZM682.29,203.82v6.99c0,.14.07.2.2.2h1.84c.84,0,1.53-.33,2.06-1,.53-.67.8-1.56.8-2.68s-.27-2.05-.8-2.72c-.53-.67-1.22-1-2.06-1h-1.84c-.14,0-.2.07-.2.2Z"/>
      <path class="st2" d="M696.61,226.52c-.61-.61-.92-1.38-.92-2.31s.3-1.73.9-2.33c.6-.6,1.38-.9,2.33-.9s1.73.3,2.33.9c.6.6.9,1.38.9,2.33s-.31,1.7-.92,2.31c-.61.61-1.38.92-2.31.92s-1.7-.31-2.31-.92Z"/>
    </g>
    <g>
      <path class="st1" d="M62.49,227.13c-.1-.1-.14-.21-.14-.35v-27.62c0-.14.05-.25.14-.35.1-.09.21-.14.35-.14h4.78c.14,0,.25.05.35.14.09.1.14.21.14.35v27.62c0,.14-.05.25-.14.35-.1.1-.21.14-.35.14h-4.78c-.14,0-.25-.05-.35-.14Z"/>
      <path class="st1" d="M83.94,198.82c.1-.09.21-.14.35-.14h4.74c.14,0,.25.05.35.14.1.1.14.21.14.35v27.62c0,.14-.05.25-.14.35-.1.1-.21.14-.35.14h-5.39c-.27,0-.45-.14-.53-.41l-5.07-15.81c-.03-.08-.08-.12-.14-.1-.07.01-.1.06-.1.14l.04,15.69c0,.14-.05.25-.14.35-.1.1-.21.14-.35.14h-4.74c-.14,0-.25-.05-.35-.14-.1-.1-.14-.21-.14-.35v-27.62c0-.14.05-.25.14-.35.1-.09.21-.14.35-.14h5.35c.27,0,.45.14.53.41l5.11,15.81c.03.08.07.12.14.1.07-.01.1-.06.1-.14l-.04-15.69c0-.14.05-.25.14-.35Z"/>
      <path class="st1" d="M118.22,198.82c.1.1.14.21.14.35v3.96c0,.14-.05.25-.14.35-.1.1-.21.14-.35.14h-5.11c-.14,0-.2.07-.2.2v22.96c0,.14-.05.25-.14.35-.1.1-.21.14-.35.14h-4.78c-.14,0-.25-.05-.35-.14-.1-.1-.14-.21-.14-.35v-22.96c0-.14-.07-.2-.2-.2h-4.9c-.14,0-.25-.05-.35-.14-.1-.09-.14-.21-.14-.35v-3.96c0-.14.05-.25.14-.35.1-.09.21-.14.35-.14h16.18c.14,0,.25.05.35.14Z"/>
      <path class="st1" d="M131.9,198.82c.1-.09.21-.14.35-.14h4.78c.14,0,.25.05.35.14.1.1.14.21.14.35v27.62c0,.14-.05.25-.14.35-.1.1-.21.14-.35.14h-4.78c-.14,0-.25-.05-.35-.14-.1-.1-.14-.21-.14-.35v-11.15c0-.14-.07-.21-.2-.21h-4.09c-.14,0-.2.07-.2.21v11.15c0,.14-.05.25-.14.35-.1.1-.21.14-.35.14h-4.78c-.14,0-.25-.05-.35-.14-.1-.1-.14-.21-.14-.35v-27.62c0-.14.05-.25.14-.35.1-.09.21-.14.35-.14h4.78c.14,0,.25.05.35.14.09.1.14.21.14.35v11.11c0,.14.07.2.2.2h4.09c.14,0,.2-.07.2-.2v-11.11c0-.14.05-.25.14-.35Z"/>
      <path class="st1" d="M156.21,203.48c-.1.1-.21.14-.35.14h-8.54c-.14,0-.2.07-.2.2v6.46c0,.14.07.2.2.2h4.9c.14,0,.25.05.35.14.1.1.14.21.14.35v3.96c0,.14-.05.25-.14.35-.1.1-.21.14-.35.14h-4.9c-.14,0-.2.07-.2.21v6.5c0,.14.07.2.2.2h8.54c.14,0,.25.05.35.14.09.1.14.21.14.35v3.96c0,.14-.05.25-.14.35-.1.1-.21.14-.35.14h-14.01c-.14,0-.25-.05-.35-.14-.1-.1-.14-.21-.14-.35v-27.62c0-.14.05-.25.14-.35.1-.09.21-.14.35-.14h14.01c.14,0,.25.05.35.14.09.1.14.21.14.35v3.96c0,.14-.05.25-.14.35Z"/>
      <path class="st1" d="M182.97,203.48c-.1.1-.21.14-.35.14h-8.5c-.14,0-.2.07-.2.2v6.46c0,.14.07.2.2.2h4.86c.14,0,.25.05.35.14.1.1.14.21.14.35v3.96c0,.14-.05.25-.14.35-.1.1-.21.14-.35.14h-4.86c-.14,0-.2.07-.2.21v11.15c0,.14-.05.25-.14.35-.1.1-.21.14-.35.14h-4.78c-.14,0-.25-.05-.35-.14-.1-.1-.14-.21-.14-.35v-27.62c0-.14.05-.25.14-.35.1-.09.21-.14.35-.14h13.97c.14,0,.25.05.35.14.1.1.14.21.14.35v3.96c0,.14-.05.25-.14.35Z"/>
      <path class="st1" d="M187.57,225.4c-1.5-1.47-2.25-3.43-2.25-5.88v-13.07c0-2.45.75-4.41,2.25-5.88,1.5-1.47,3.5-2.21,6.01-2.21s4.51.74,6.03,2.21c1.51,1.47,2.27,3.43,2.27,5.88v13.07c0,2.45-.76,4.41-2.27,5.88-1.51,1.47-3.52,2.21-6.03,2.21s-4.51-.74-6.01-2.21ZM195.41,221.86c.46-.53.69-1.23.69-2.1v-13.56c0-.87-.23-1.57-.69-2.1-.46-.53-1.08-.8-1.84-.8s-1.37.27-1.82.8c-.45.53-.67,1.23-.67,2.1v13.56c0,.87.22,1.57.67,2.1.45.53,1.06.8,1.82.8s1.38-.26,1.84-.8Z"/>
      <path class="st1" d="M207.26,225.4c-1.5-1.47-2.25-3.43-2.25-5.88v-13.07c0-2.45.75-4.41,2.25-5.88,1.5-1.47,3.5-2.21,6.01-2.21s4.51.74,6.03,2.21c1.51,1.47,2.27,3.43,2.27,5.88v13.07c0,2.45-.76,4.41-2.27,5.88-1.51,1.47-3.52,2.21-6.03,2.21s-4.51-.74-6.01-2.21ZM215.11,221.86c.46-.53.69-1.23.69-2.1v-13.56c0-.87-.23-1.57-.69-2.1-.46-.53-1.08-.8-1.84-.8s-1.37.27-1.82.8c-.45.53-.67,1.23-.67,2.1v13.56c0,.87.22,1.57.67,2.1.45.53,1.06.8,1.82.8s1.38-.26,1.84-.8Z"/>
      <path class="st1" d="M241.31,198.82c.1.1.14.21.14.35v3.96c0,.14-.05.25-.14.35-.1.1-.21.14-.35.14h-5.11c-.14,0-.2.07-.2.2v22.96c0,.14-.05.25-.14.35-.1.1-.21.14-.35.14h-4.78c-.14,0-.25-.05-.35-.14-.1-.1-.14-.21-.14-.35v-22.96c0-.14-.07-.2-.2-.2h-4.9c-.14,0-.25-.05-.35-.14-.1-.09-.14-.21-.14-.35v-3.96c0-.14.05-.25.14-.35.1-.09.21-.14.35-.14h16.18c.14,0,.25.05.35.14Z"/>
      <path class="st1" d="M255,198.82c.1-.09.21-.14.35-.14h4.78c.14,0,.25.05.35.14.1.1.14.21.14.35v27.62c0,.14-.05.25-.14.35-.1.1-.21.14-.35.14h-4.78c-.14,0-.25-.05-.35-.14-.1-.1-.14-.21-.14-.35v-11.15c0-.14-.07-.21-.2-.21h-4.09c-.14,0-.2.07-.2.21v11.15c0,.14-.05.25-.14.35-.1.1-.21.14-.35.14h-4.78c-.14,0-.25-.05-.35-.14-.1-.1-.14-.21-.14-.35v-27.62c0-.14.05-.25.14-.35.1-.09.21-.14.35-.14h4.78c.14,0,.25.05.35.14.09.1.14.21.14.35v11.11c0,.14.07.2.2.2h4.09c.14,0,.2-.07.2-.2v-11.11c0-.14.05-.25.14-.35Z"/>
      <path class="st1" d="M264.72,227.13c-.1-.1-.14-.21-.14-.35v-27.62c0-.14.05-.25.14-.35.1-.09.21-.14.35-.14h4.78c.14,0,.25.05.35.14.09.1.14.21.14.35v27.62c0,.14-.05.25-.14.35-.1.1-.21.14-.35.14h-4.78c-.14,0-.25-.05-.35-.14Z"/>
      <path class="st1" d="M274.49,227.13c-.1-.1-.14-.21-.14-.35v-27.62c0-.14.05-.25.14-.35.1-.09.21-.14.35-.14h4.78c.14,0,.25.05.35.14.09.1.14.21.14.35v22.96c0,.14.07.2.2.2h8.58c.14,0,.25.05.35.14.1.1.14.21.14.35v3.96c0,.14-.05.25-.14.35-.1.1-.21.14-.35.14h-14.05c-.14,0-.25-.05-.35-.14Z"/>
      <path class="st1" d="M292.26,227.13c-.1-.1-.14-.21-.14-.35v-27.62c0-.14.05-.25.14-.35.1-.09.21-.14.35-.14h4.78c.14,0,.25.05.35.14.09.1.14.21.14.35v22.96c0,.14.07.2.2.2h8.58c.14,0,.25.05.35.14.1.1.14.21.14.35v3.96c0,.14-.05.25-.14.35-.1.1-.21.14-.35.14h-14.05c-.14,0-.25-.05-.35-.14Z"/>
      <path class="st1" d="M313,226.66c-1.2-.63-2.12-1.5-2.78-2.63-.65-1.13-.98-2.43-.98-3.9v-1.19c0-.14.05-.25.14-.35.1-.1.21-.14.35-.14h4.7c.14,0,.25.05.35.14.1.1.14.21.14.35v.9c0,.84.22,1.53.65,2.04.44.52.98.78,1.63.78s1.2-.25,1.63-.74c.44-.49.65-1.13.65-1.92s-.27-1.52-.82-2.1c-.55-.59-1.61-1.45-3.19-2.59-1.36-.98-2.47-1.85-3.31-2.62-.84-.76-1.57-1.7-2.17-2.82-.6-1.12-.9-2.41-.9-3.88,0-2.31.72-4.17,2.17-5.56,1.44-1.39,3.35-2.08,5.72-2.08s4.32.72,5.78,2.17c1.46,1.44,2.19,3.34,2.19,5.68v.98c0,.14-.05.25-.14.35-.1.1-.21.14-.35.14h-4.7c-.14,0-.25-.05-.35-.14-.1-.09-.14-.21-.14-.35v-1.1c0-.84-.21-1.52-.63-2.02-.42-.5-.97-.76-1.65-.76s-1.19.24-1.59.71c-.41.48-.61,1.14-.61,1.98s.26,1.54.78,2.17c.52.63,1.54,1.5,3.06,2.61,1.69,1.25,2.96,2.27,3.82,3.04s1.53,1.63,2,2.57c.48.94.71,2.06.71,3.37,0,2.4-.74,4.3-2.21,5.72-1.47,1.42-3.4,2.12-5.8,2.12-1.58,0-2.97-.31-4.17-.94Z"/>
      <path class="st1" d="M338.69,225.4c-1.5-1.47-2.25-3.43-2.25-5.88v-13.07c0-2.45.75-4.41,2.25-5.88,1.5-1.47,3.5-2.21,6.01-2.21s4.51.74,6.03,2.21c1.51,1.47,2.27,3.43,2.27,5.88v13.07c0,2.45-.76,4.41-2.27,5.88-1.51,1.47-3.52,2.21-6.03,2.21s-4.51-.74-6.01-2.21ZM346.54,221.86c.46-.53.69-1.23.69-2.1v-13.56c0-.87-.23-1.57-.69-2.1-.46-.53-1.08-.8-1.84-.8s-1.37.27-1.82.8c-.45.53-.67,1.23-.67,2.1v13.56c0,.87.22,1.57.67,2.1.45.53,1.06.8,1.82.8s1.38-.26,1.84-.8Z"/>
      <path class="st1" d="M371.36,203.48c-.1.1-.21.14-.35.14h-8.5c-.14,0-.2.07-.2.2v6.46c0,.14.07.2.2.2h4.86c.14,0,.25.05.35.14.1.1.14.21.14.35v3.96c0,.14-.05.25-.14.35-.1.1-.21.14-.35.14h-4.86c-.14,0-.2.07-.2.21v11.15c0,.14-.05.25-.14.35-.1.1-.21.14-.35.14h-4.78c-.14,0-.25-.05-.35-.14-.1-.1-.14-.21-.14-.35v-27.62c0-.14.05-.25.14-.35.1-.09.21-.14.35-.14h13.97c.14,0,.25.05.35.14.1.1.14.21.14.35v3.96c0,.14-.05.25-.14.35Z"/>
      <path class="st1" d="M382.8,227.13c-.1-.1-.14-.21-.14-.35v-27.62c0-.14.05-.25.14-.35.1-.09.21-.14.35-.14h7.39c2.48,0,4.47.72,5.97,2.17,1.5,1.44,2.25,3.36,2.25,5.76v12.75c0,2.4-.75,4.32-2.25,5.76-1.5,1.44-3.49,2.17-5.97,2.17h-7.39c-.14,0-.25-.05-.35-.14ZM388.62,222.33l1.84-.04c.74-.03,1.33-.34,1.8-.94.46-.6.71-1.39.74-2.37v-12.01c0-1.03-.23-1.85-.7-2.45-.46-.6-1.09-.9-1.88-.9h-1.8c-.14,0-.2.07-.2.2v18.3c0,.14.07.2.2.2Z"/>
      <path class="st1" d="M413.13,226.83l-.65-3.92c0-.14-.08-.21-.25-.21h-5.19c-.16,0-.25.07-.25.21l-.65,3.92c-.03.3-.2.45-.53.45h-4.78c-.35,0-.49-.18-.41-.53l6.01-27.62c.05-.3.23-.45.53-.45h5.52c.3,0,.48.15.53.45l5.96,27.62.04.16c0,.25-.15.37-.45.37h-4.9c-.33,0-.5-.15-.53-.45ZM407.78,218.25h3.68c.14,0,.19-.07.16-.2l-1.92-11.15c-.03-.08-.07-.12-.12-.12s-.1.04-.12.12l-1.84,11.15c0,.14.05.2.16.2Z"/>
      <path class="st1" d="M421.85,227.13c-.1-.1-.14-.21-.14-.35v-27.62c0-.14.05-.25.14-.35s.21-.14.35-.14h4.78c.14,0,.25.05.35.14.09.1.14.21.14.35v22.96c0,.14.07.2.21.2h8.58c.14,0,.25.05.35.14.09.1.14.21.14.35v3.96c0,.14-.05.25-.14.35-.1.1-.21.14-.35.14h-14.05c-.14,0-.25-.05-.35-.14Z"/>
      <path class="st1" d="M453.17,198.68h4.74c.14,0,.25.05.35.14.09.1.14.21.14.35v27.62c0,.14-.05.25-.14.35-.1.1-.21.14-.35.14h-4.78c-.14,0-.25-.05-.35-.14-.1-.1-.14-.21-.14-.35v-18.34c0-.11-.03-.16-.08-.16s-.11.04-.16.12l-3.19,5.64c-.14.22-.25.33-.33.33s-.19-.11-.33-.33l-3.19-5.64c-.05-.08-.11-.12-.16-.12s-.08.05-.08.16v18.34c0,.14-.05.25-.14.35-.1.1-.21.14-.35.14h-4.78c-.14,0-.25-.05-.35-.14-.1-.1-.14-.21-.14-.35v-27.62c0-.14.05-.25.14-.35s.21-.14.35-.14h4.7c.27,0,.48.11.61.33l3.64,6.5c.08.11.16.11.25,0l3.51-6.5c.11-.22.31-.33.61-.33Z"/>
      <path class="st1" d="M473.72,226.83l-.65-3.92c0-.14-.08-.21-.25-.21h-5.19c-.16,0-.25.07-.25.21l-.65,3.92c-.03.3-.2.45-.53.45h-4.78c-.35,0-.49-.18-.41-.53l6.01-27.62c.05-.3.23-.45.53-.45h5.51c.3,0,.48.15.53.45l5.96,27.62.04.16c0,.25-.15.37-.45.37h-4.9c-.33,0-.5-.15-.53-.45ZM468.37,218.25h3.68c.14,0,.19-.07.16-.2l-1.92-11.15c-.03-.08-.07-.12-.12-.12s-.1.04-.12.12l-1.84,11.15c0,.14.05.2.16.2Z"/>
      <path class="st1" d="M481.83,231.14c-.1-.1-.13-.23-.1-.39l.9-9.48c.05-.3.22-.45.49-.45h4.17c.38,0,.53.18.45.53l-2.17,9.48c-.08.3-.26.45-.53.45h-2.82c-.16,0-.29-.05-.39-.14Z"/>
      <path class="st1" d="M500.81,225.5c-1.47-1.4-2.21-3.26-2.21-5.58v-2.82c0-.14.05-.25.14-.35.1-.09.21-.14.35-.14h4.78c.14,0,.25.05.35.14.1.1.14.21.14.35v2.9c0,.79.2,1.43.61,1.92.41.49.95.74,1.63.74s1.27-.25,1.7-.74c.42-.49.63-1.13.63-1.92v-20.84c0-.14.05-.25.14-.35s.21-.14.35-.14h4.78c.14,0,.25.05.35.14.09.1.14.21.14.35v20.75c0,2.32-.74,4.17-2.23,5.58-1.48,1.4-3.44,2.1-5.86,2.1s-4.33-.7-5.8-2.1Z"/>
      <path class="st1" d="M529.57,226.83l-.65-3.92c0-.14-.08-.21-.25-.21h-5.19c-.16,0-.25.07-.25.21l-.65,3.92c-.03.3-.2.45-.53.45h-4.78c-.35,0-.49-.18-.41-.53l6.01-27.62c.05-.3.23-.45.53-.45h5.51c.3,0,.48.15.53.45l5.96,27.62.04.16c0,.25-.15.37-.45.37h-4.9c-.33,0-.5-.15-.53-.45ZM524.22,218.25h3.68c.14,0,.19-.07.16-.2l-1.92-11.15c-.03-.08-.07-.12-.12-.12s-.1.04-.12.12l-1.84,11.15c0,.14.05.2.16.2Z"/>
      <path class="st1" d="M551.83,198.68h4.74c.14,0,.25.05.35.14.09.1.14.21.14.35v27.62c0,.14-.05.25-.14.35-.1.1-.21.14-.35.14h-4.78c-.14,0-.25-.05-.35-.14-.1-.1-.14-.21-.14-.35v-18.34c0-.11-.03-.16-.08-.16s-.11.04-.16.12l-3.19,5.64c-.14.22-.25.33-.33.33s-.19-.11-.33-.33l-3.19-5.64c-.05-.08-.11-.12-.16-.12s-.08.05-.08.16v18.34c0,.14-.05.25-.14.35-.1.1-.21.14-.35.14h-4.78c-.14,0-.25-.05-.35-.14-.1-.1-.14-.21-.14-.35v-27.62c0-.14.05-.25.14-.35s.21-.14.35-.14h4.7c.27,0,.48.11.61.33l3.64,6.5c.08.11.16.11.25,0l3.51-6.5c.11-.22.31-.33.61-.33Z"/>
      <path class="st1" d="M564.09,226.66c-1.2-.63-2.12-1.5-2.78-2.63-.65-1.13-.98-2.43-.98-3.9v-1.19c0-.14.05-.25.14-.35.09-.1.21-.14.35-.14h4.7c.14,0,.25.05.35.14.09.1.14.21.14.35v.9c0,.84.22,1.53.65,2.04.44.52.98.78,1.63.78s1.2-.25,1.63-.74c.43-.49.65-1.13.65-1.92s-.27-1.52-.82-2.1-1.61-1.45-3.19-2.59c-1.36-.98-2.47-1.85-3.31-2.62-.84-.76-1.57-1.7-2.17-2.82-.6-1.12-.9-2.41-.9-3.88,0-2.31.72-4.17,2.17-5.56,1.44-1.39,3.35-2.08,5.72-2.08s4.32.72,5.78,2.17c1.46,1.44,2.19,3.34,2.19,5.68v.98c0,.14-.05.25-.14.35s-.21.14-.35.14h-4.7c-.14,0-.25-.05-.35-.14-.1-.09-.14-.21-.14-.35v-1.1c0-.84-.21-1.52-.63-2.02s-.97-.76-1.65-.76-1.18.24-1.59.71c-.41.48-.61,1.14-.61,1.98s.26,1.54.78,2.17c.52.63,1.54,1.5,3.06,2.61,1.69,1.25,2.96,2.27,3.82,3.04.86.78,1.53,1.63,2,2.57.48.94.71,2.06.71,3.37,0,2.4-.74,4.3-2.21,5.72-1.47,1.42-3.41,2.12-5.8,2.12-1.58,0-2.97-.31-4.17-.94Z"/>
      <path class="st1" d="M589.81,198.82c.1-.09.21-.14.35-.14h4.78c.14,0,.25.05.35.14.1.1.14.21.14.35v27.62c0,.14-.05.25-.14.35s-.21.14-.35.14h-4.78c-.14,0-.25-.05-.35-.14s-.14-.21-.14-.35v-11.15c0-.14-.07-.21-.2-.21h-4.09c-.14,0-.2.07-.2.21v11.15c0,.14-.05.25-.14.35s-.21.14-.35.14h-4.78c-.14,0-.25-.05-.35-.14s-.14-.21-.14-.35v-27.62c0-.14.05-.25.14-.35.1-.09.21-.14.35-.14h4.78c.14,0,.25.05.35.14.1.1.14.21.14.35v11.11c0,.14.07.2.2.2h4.09c.14,0,.2-.07.2-.2v-11.11c0-.14.05-.25.14-.35Z"/>
      <path class="st1" d="M614.12,203.48c-.1.1-.21.14-.35.14h-8.54c-.14,0-.2.07-.2.2v6.46c0,.14.07.2.2.2h4.9c.14,0,.25.05.35.14.09.1.14.21.14.35v3.96c0,.14-.05.25-.14.35s-.21.14-.35.14h-4.9c-.14,0-.2.07-.2.21v6.5c0,.14.07.2.2.2h8.54c.14,0,.25.05.35.14.1.1.14.21.14.35v3.96c0,.14-.05.25-.14.35s-.21.14-.35.14h-14.01c-.14,0-.25-.05-.35-.14s-.14-.21-.14-.35v-27.62c0-.14.05-.25.14-.35.1-.09.21-.14.35-.14h14.01c.14,0,.25.05.35.14.1.1.14.21.14.35v3.96c0,.14-.05.25-.14.35Z"/>
      <path class="st1" d="M617.67,227.13c-.1-.1-.14-.21-.14-.35v-27.62c0-.14.05-.25.14-.35.1-.09.21-.14.35-.14h7.39c2.48,0,4.47.72,5.96,2.17,1.5,1.44,2.25,3.36,2.25,5.76v12.75c0,2.4-.75,4.32-2.25,5.76s-3.49,2.17-5.96,2.17h-7.39c-.14,0-.25-.05-.35-.14ZM623.49,222.33l1.84-.04c.74-.03,1.33-.34,1.8-.94.46-.6.71-1.39.74-2.37v-12.01c0-1.03-.23-1.85-.69-2.45-.46-.6-1.09-.9-1.88-.9h-1.8c-.14,0-.2.07-.2.2v18.3c0,.14.07.2.2.2Z"/>
      <path class="st1" d="M649.93,199.74c1.17.74,2.08,1.76,2.72,3.08.64,1.32.96,2.83.96,4.51,0,2.53-.68,4.56-2.04,6.09-1.36,1.53-3.15,2.29-5.35,2.29h-3.06c-.14,0-.2.07-.2.21v10.87c0,.14-.05.25-.14.35s-.21.14-.35.14h-4.78c-.14,0-.25-.05-.35-.14s-.14-.21-.14-.35v-27.66c0-.14.05-.25.14-.35.1-.09.21-.14.35-.14h8.25c1.5,0,2.83.37,4,1.1ZM647.05,210.22c.53-.67.8-1.59.8-2.76s-.27-2.14-.8-2.82c-.53-.68-1.23-1.02-2.1-1.02h-1.8c-.14,0-.2.07-.2.2v7.19c0,.14.07.2.2.2h1.8c.87,0,1.57-.33,2.1-1Z"/>
      <path class="st1" d="M658.69,225.29c-1.48-1.54-2.23-3.59-2.23-6.15v-19.98c0-.14.05-.25.14-.35s.21-.14.35-.14h4.78c.14,0,.25.05.35.14.09.1.14.21.14.35v20.55c0,.87.22,1.58.65,2.12.43.54,1.01.82,1.72.82s1.27-.27,1.7-.82c.42-.54.63-1.25.63-2.12v-20.55c0-.14.05-.25.14-.35s.21-.14.35-.14h4.78c.14,0,.25.05.35.14.09.1.14.21.14.35v19.98c0,2.56-.74,4.61-2.23,6.15-1.48,1.54-3.44,2.31-5.86,2.31s-4.42-.77-5.9-2.31Z"/>
      <path class="st1" d="M687.23,226.87l-3.15-11.28c-.06-.11-.12-.16-.21-.16h-1.39c-.14,0-.2.07-.2.21v11.15c0,.14-.05.25-.14.35s-.21.14-.35.14h-4.78c-.14,0-.25-.05-.35-.14s-.14-.21-.14-.35v-27.62c0-.14.05-.25.14-.35.1-.09.21-.14.35-.14h8.25c1.5,0,2.83.36,4,1.08,1.17.72,2.08,1.74,2.72,3.04.64,1.31.96,2.81.96,4.49s-.31,3.02-.92,4.25c-.61,1.23-1.46,2.18-2.55,2.86-.05.03-.1.06-.12.1s-.03.09,0,.14l3.76,12.05.04.16c0,.27-.15.41-.45.41h-4.9c-.3,0-.49-.14-.57-.41ZM682.29,203.82v6.99c0,.14.07.2.2.2h1.84c.84,0,1.53-.33,2.06-1,.53-.67.8-1.56.8-2.68s-.27-2.05-.8-2.72c-.53-.67-1.22-1-2.06-1h-1.84c-.14,0-.2.07-.2.2Z"/>
      <path class="st1" d="M696.61,226.52c-.61-.61-.92-1.38-.92-2.31s.3-1.73.9-2.33c.6-.6,1.38-.9,2.33-.9s1.73.3,2.33.9c.6.6.9,1.38.9,2.33s-.31,1.7-.92,2.31c-.61.61-1.38.92-2.31.92s-1.7-.31-2.31-.92Z"/>
    </g>
  </g>
  <g>
    <g>
      <path class="st2" d="M36.74,78.61c.12.12.18.26.18.43v4.95c0,.17-.06.31-.18.43-.12.12-.26.18-.43.18h-6.37c-.17,0-.25.08-.25.25v28.66c0,.17-.06.31-.18.43-.12.12-.26.18-.43.18h-5.97c-.17,0-.31-.06-.43-.18-.12-.12-.18-.26-.18-.43v-28.66c0-.17-.08-.25-.25-.25h-6.12c-.17,0-.31-.06-.43-.18-.12-.12-.18-.26-.18-.43v-4.95c0-.17.06-.31.18-.43.12-.12.26-.18.43-.18h20.19c.17,0,.31.06.43.18Z"/>
      <path class="st2" d="M42.17,111.78c-1.87-1.84-2.8-4.28-2.8-7.34v-16.32c0-3.06.93-5.51,2.8-7.34,1.87-1.84,4.37-2.75,7.5-2.75s5.64.92,7.52,2.75,2.83,4.28,2.83,7.34v16.32c0,3.06-.94,5.51-2.83,7.34s-4.39,2.75-7.52,2.75-5.63-.92-7.5-2.75ZM51.96,107.37c.58-.66.87-1.54.87-2.63v-16.93c0-1.09-.29-1.96-.87-2.63-.58-.66-1.34-1-2.29-1s-1.71.33-2.27,1-.84,1.54-.84,2.63v16.93c0,1.09.28,1.96.84,2.63s1.32.99,2.27.99,1.72-.33,2.29-.99Z"/>
      <path class="st2" d="M70.12,113.57l-6.88-34.47-.05-.2c0-.31.19-.46.56-.46h6.22c.41,0,.63.19.66.56l2.91,18.36c.03.14.08.2.15.2s.12-.07.15-.2l2.75-18.36c.03-.37.25-.56.66-.56h5.15c.41,0,.63.19.66.56l3.01,18.36c.03.14.08.2.15.2s.12-.07.15-.2l2.6-18.36c.03-.37.25-.56.66-.56h6.02c.44,0,.63.22.56.66l-6.48,34.47c-.03.38-.26.56-.66.56h-5.51c-.41,0-.63-.19-.66-.56l-3.01-18.87c-.03-.13-.08-.2-.15-.2s-.12.07-.15.2l-2.7,18.87c-.03.38-.25.56-.66.56h-5.46c-.37,0-.6-.19-.66-.56Z"/>
      <path class="st2" d="M110.51,113.57l-.82-4.9c0-.17-.1-.25-.31-.25h-6.48c-.2,0-.31.09-.31.25l-.82,4.9c-.03.38-.25.56-.66.56h-5.97c-.44,0-.61-.22-.51-.66l7.5-34.47c.07-.37.29-.56.66-.56h6.88c.37,0,.59.19.66.56l7.45,34.47.05.2c0,.31-.19.46-.56.46h-6.12c-.41,0-.63-.19-.66-.56ZM103.83,102.86h4.59c.17,0,.24-.08.2-.25l-2.4-13.92c-.03-.1-.08-.15-.15-.15s-.12.05-.15.15l-2.29,13.92c0,.17.07.25.2.25Z"/>
      <path class="st2" d="M134.58,113.62l-3.93-14.08c-.07-.13-.15-.2-.25-.2h-1.73c-.17,0-.25.09-.25.25v13.92c0,.17-.06.31-.18.43s-.26.18-.43.18h-5.97c-.17,0-.31-.06-.43-.18-.12-.12-.18-.26-.18-.43v-34.47c0-.17.06-.31.18-.43.12-.12.26-.18.43-.18h10.3c1.87,0,3.54.45,5,1.35,1.46.9,2.59,2.17,3.39,3.8.8,1.63,1.2,3.5,1.2,5.61s-.38,3.77-1.15,5.3-1.83,2.72-3.19,3.57c-.07.03-.12.08-.15.13-.03.05-.03.11,0,.18l4.69,15.04.05.2c0,.34-.19.51-.56.51h-6.12c-.37,0-.61-.17-.71-.51ZM128.41,84.86v8.72c0,.17.08.25.25.25h2.29c1.05,0,1.91-.42,2.58-1.25.66-.83.99-1.95.99-3.34s-.33-2.56-.99-3.39-1.52-1.25-2.58-1.25h-2.29c-.17,0-.25.08-.25.25Z"/>
      <path class="st2" d="M145.87,113.95c-.12-.12-.18-.26-.18-.43v-34.47c0-.17.06-.31.18-.43.12-.12.26-.18.43-.18h9.23c3.09,0,5.58.9,7.44,2.7,1.87,1.8,2.81,4.2,2.81,7.19v15.91c0,2.99-.94,5.39-2.81,7.19-1.87,1.8-4.35,2.7-7.44,2.7h-9.23c-.17,0-.31-.06-.43-.18ZM153.14,107.96l2.29-.05c.92-.03,1.67-.42,2.24-1.17.58-.75.88-1.73.92-2.96v-14.99c0-1.29-.29-2.31-.87-3.06-.58-.75-1.36-1.12-2.35-1.12h-2.24c-.17,0-.25.08-.25.25v22.85c0,.17.08.25.25.25Z"/>
      <path class="st2" d="M198.73,111.58c-1.9,1.7-4.37,2.55-7.39,2.55h-9.64c-.17,0-.31-.06-.43-.18-.12-.12-.18-.26-.18-.43v-34.47c0-.17.06-.31.18-.43.12-.12.26-.18.43-.18h8.52c3.4,0,6.06.82,7.98,2.45,1.92,1.63,2.88,4.06,2.88,7.29s-1.16,5.81-3.47,7.34c-.14.1-.15.2-.05.31,2.69,1.9,4.03,4.73,4.03,8.47,0,3.16-.95,5.59-2.86,7.29ZM188.27,84.86v8.01c0,.17.08.25.25.25h1.84c1.16,0,2.06-.37,2.7-1.1.65-.73.97-1.76.97-3.08,0-1.39-.31-2.46-.94-3.21-.63-.75-1.54-1.12-2.73-1.12h-1.84c-.17,0-.25.08-.25.25ZM193.42,106.68c.65-.82.97-1.97.97-3.47s-.32-2.69-.97-3.57c-.65-.88-1.51-1.33-2.6-1.33h-2.29c-.17,0-.25.08-.25.25v9.08c0,.17.08.25.25.25h2.24c1.12,0,2.01-.41,2.65-1.22Z"/>
      <path class="st2" d="M208.13,111.66c-1.85-1.92-2.78-4.48-2.78-7.67v-24.94c0-.17.06-.31.18-.43.12-.12.26-.18.43-.18h5.97c.17,0,.31.06.43.18.12.12.18.26.18.43v25.65c0,1.09.27,1.97.82,2.65.54.68,1.26,1.02,2.14,1.02s1.59-.34,2.12-1.02c.53-.68.79-1.56.79-2.65v-25.65c0-.17.06-.31.18-.43.12-.12.26-.18.43-.18h5.97c.17,0,.31.06.43.18.12.12.18.26.18.43v24.94c0,3.2-.93,5.75-2.78,7.67-1.85,1.92-4.29,2.88-7.32,2.88s-5.52-.96-7.37-2.88Z"/>
      <path class="st2" d="M230.57,113.95c-.12-.12-.18-.26-.18-.43v-34.47c0-.17.06-.31.18-.43.12-.12.26-.18.43-.18h5.97c.17,0,.31.06.43.18.12.12.18.26.18.43v34.47c0,.17-.06.31-.18.43s-.26.18-.43.18h-5.97c-.17,0-.31-.06-.43-.18Z"/>
      <path class="st2" d="M242.76,113.95c-.12-.12-.18-.26-.18-.43v-34.47c0-.17.06-.31.18-.43.12-.12.26-.18.43-.18h5.97c.17,0,.31.06.43.18.12.12.18.26.18.43v28.66c0,.17.08.25.25.25h10.71c.17,0,.31.06.43.18.12.12.18.26.18.43v4.95c0,.17-.06.31-.18.43-.12.12-.26.18-.43.18h-17.54c-.17,0-.31-.06-.43-.18Z"/>
      <path class="st2" d="M264.94,113.95c-.12-.12-.18-.26-.18-.43v-34.47c0-.17.06-.31.18-.43.12-.12.26-.18.43-.18h9.23c3.09,0,5.58.9,7.44,2.7,1.87,1.8,2.81,4.2,2.81,7.19v15.91c0,2.99-.94,5.39-2.81,7.19-1.87,1.8-4.35,2.7-7.44,2.7h-9.23c-.17,0-.31-.06-.43-.18ZM272.21,107.96l2.29-.05c.92-.03,1.67-.42,2.24-1.17.58-.75.88-1.73.92-2.96v-14.99c0-1.29-.29-2.31-.87-3.06-.58-.75-1.36-1.12-2.35-1.12h-2.24c-.17,0-.25.08-.25.25v22.85c0,.17.08.25.25.25Z"/>
      <path class="st2" d="M289.67,113.95c-.12-.12-.18-.26-.18-.43v-34.47c0-.17.06-.31.18-.43.12-.12.26-.18.43-.18h5.97c.17,0,.31.06.43.18.12.12.18.26.18.43v34.47c0,.17-.06.31-.18.43s-.26.18-.43.18h-5.97c-.17,0-.31-.06-.43-.18Z"/>
      <path class="st2" d="M316.45,78.61c.12-.12.26-.18.43-.18h5.92c.17,0,.31.06.43.18.12.12.18.26.18.43v34.47c0,.17-.06.31-.18.43-.12.12-.26.18-.43.18h-6.73c-.34,0-.56-.17-.66-.51l-6.32-19.74c-.03-.1-.09-.14-.18-.13-.08.02-.13.08-.13.18l.05,19.58c0,.17-.06.31-.18.43-.12.12-.26.18-.43.18h-5.92c-.17,0-.31-.06-.43-.18-.12-.12-.18-.26-.18-.43v-34.47c0-.17.06-.31.18-.43.12-.12.26-.18.43-.18h6.68c.34,0,.56.17.66.51l6.37,19.74c.03.1.09.14.18.13.08-.02.13-.08.13-.18l-.05-19.58c0-.17.06-.31.18-.43Z"/>
      <path class="st2" d="M330.62,111.91c-1.85-1.75-2.78-4.09-2.78-7.01v-17.24c0-2.92.93-5.26,2.78-7.01,1.85-1.75,4.31-2.63,7.37-2.63s5.52.88,7.39,2.65c1.87,1.77,2.8,4.11,2.8,7.04v1.94c0,.17-.06.31-.18.43-.12.12-.26.18-.43.18h-5.97c-.17,0-.31-.06-.43-.18-.12-.12-.18-.26-.18-.43v-2.04c0-1.02-.27-1.84-.82-2.47-.54-.63-1.27-.94-2.19-.94s-1.6.32-2.14.94c-.54.63-.82,1.45-.82,2.47v17.34c0,1.02.27,1.84.82,2.47.54.63,1.26.94,2.14.94s1.65-.31,2.19-.94c.54-.63.82-1.45.82-2.47v-4.08c0-.17-.09-.25-.25-.25h-2.24c-.17,0-.31-.06-.43-.18-.12-.12-.18-.26-.18-.43v-4.54c0-.17.06-.31.18-.43.12-.12.26-.18.43-.18h9.08c.17,0,.31.06.43.18.12.12.18.26.18.43v9.43c0,2.92-.94,5.26-2.8,7.01-1.87,1.75-4.33,2.63-7.39,2.63s-5.52-.87-7.37-2.63Z"/>
      <path class="st2" d="M377.61,113.57l-.82-4.9c0-.17-.1-.25-.31-.25h-6.48c-.2,0-.31.09-.31.25l-.82,4.9c-.03.38-.25.56-.66.56h-5.97c-.44,0-.61-.22-.51-.66l7.5-34.47c.07-.37.29-.56.66-.56h6.88c.37,0,.59.19.66.56l7.45,34.47.05.2c0,.31-.19.46-.56.46h-6.12c-.41,0-.63-.19-.66-.56ZM370.93,102.86h4.59c.17,0,.24-.08.2-.25l-2.4-13.92c-.03-.1-.08-.15-.15-.15s-.12.05-.15.15l-2.29,13.92c0,.17.07.25.2.25Z"/>
      <path class="st2" d="M405.38,113.9c-.12-.12-.18-.26-.18-.43v-13.26l-.05-.31-7.14-20.75c-.03-.07-.05-.15-.05-.25,0-.31.19-.46.56-.46h6.27c.37,0,.61.17.71.51l3.16,12.19c.03.1.08.15.15.15s.12-.05.15-.15l3.16-12.19c.1-.34.34-.51.71-.51h6.27c.2,0,.36.06.46.18.1.12.12.3.05.54l-7.19,20.75-.05.31v13.26c0,.17-.06.31-.18.43s-.26.18-.43.18h-5.97c-.17,0-.31-.06-.43-.18Z"/>
      <path class="st2" d="M424.73,111.78c-1.87-1.84-2.8-4.28-2.8-7.34v-16.32c0-3.06.94-5.51,2.8-7.34,1.87-1.84,4.37-2.75,7.5-2.75s5.63.92,7.52,2.75,2.83,4.28,2.83,7.34v16.32c0,3.06-.94,5.51-2.83,7.34s-4.39,2.75-7.52,2.75-5.63-.92-7.5-2.75ZM434.52,107.37c.58-.66.87-1.54.87-2.63v-16.93c0-1.09-.29-1.96-.87-2.63s-1.34-1-2.29-1-1.71.33-2.27,1c-.56.66-.84,1.54-.84,2.63v16.93c0,1.09.28,1.96.84,2.63.56.66,1.32.99,2.27.99s1.72-.33,2.29-.99Z"/>
      <path class="st2" d="M449.29,111.91c-1.85-1.75-2.78-4.09-2.78-7.01v-17.24c0-2.92.93-5.26,2.78-7.01,1.85-1.75,4.31-2.63,7.37-2.63s5.52.88,7.39,2.65c1.87,1.77,2.8,4.11,2.8,7.04v1.94c0,.17-.06.31-.18.43-.12.12-.26.18-.43.18h-5.97c-.17,0-.31-.06-.43-.18-.12-.12-.18-.26-.18-.43v-2.04c0-1.02-.27-1.84-.82-2.47-.54-.63-1.27-.94-2.19-.94s-1.6.32-2.14.94c-.54.63-.82,1.45-.82,2.47v17.34c0,1.02.27,1.84.82,2.47.54.63,1.26.94,2.14.94s1.65-.31,2.19-.94c.54-.63.82-1.45.82-2.47v-4.08c0-.17-.08-.25-.25-.25h-2.24c-.17,0-.31-.06-.43-.18s-.18-.26-.18-.43v-4.54c0-.17.06-.31.18-.43s.26-.18.43-.18h9.08c.17,0,.31.06.43.18.12.12.18.26.18.43v9.43c0,2.92-.94,5.26-2.8,7.01-1.87,1.75-4.33,2.63-7.39,2.63s-5.52-.87-7.37-2.63Z"/>
      <path class="st2" d="M485.11,113.57l-.82-4.9c0-.17-.1-.25-.31-.25h-6.48c-.2,0-.31.09-.31.25l-.82,4.9c-.03.38-.25.56-.66.56h-5.97c-.44,0-.61-.22-.51-.66l7.5-34.47c.07-.37.29-.56.66-.56h6.88c.37,0,.59.19.66.56l7.45,34.47.05.2c0,.31-.19.46-.56.46h-6.12c-.41,0-.63-.19-.66-.56ZM478.43,102.86h4.59c.17,0,.24-.08.2-.25l-2.4-13.92c-.03-.1-.09-.15-.15-.15s-.12.05-.15.15l-2.29,13.92c0,.17.07.25.2.25Z"/>
      <path class="st2" d="M495.23,118.95c-.12-.12-.16-.28-.13-.48l1.12-11.83c.07-.37.27-.56.61-.56h5.2c.48,0,.66.22.56.66l-2.7,11.83c-.1.37-.32.56-.66.56h-3.52c-.2,0-.37-.06-.48-.18Z"/>
      <path class="st2" d="M532.03,113.57l-.82-4.9c0-.17-.1-.25-.31-.25h-6.48c-.2,0-.31.09-.31.25l-.82,4.9c-.03.38-.25.56-.66.56h-5.97c-.44,0-.61-.22-.51-.66l7.5-34.47c.07-.37.29-.56.66-.56h6.88c.37,0,.59.19.66.56l7.45,34.47.05.2c0,.31-.19.46-.56.46h-6.12c-.41,0-.63-.19-.66-.56ZM525.34,102.86h4.59c.17,0,.24-.08.2-.25l-2.4-13.92c-.03-.1-.09-.15-.15-.15s-.12.05-.15.15l-2.29,13.92c0,.17.07.25.2.25Z"/>
      <path class="st2" d="M546.28,113.9c-.12-.12-.18-.26-.18-.43v-13.26l-.05-.31-7.14-20.75c-.03-.07-.05-.15-.05-.25,0-.31.19-.46.56-.46h6.27c.37,0,.61.17.71.51l3.16,12.19c.03.1.08.15.15.15s.12-.05.15-.15l3.16-12.19c.1-.34.34-.51.71-.51h6.27c.2,0,.36.06.46.18.1.12.12.3.05.54l-7.19,20.75-.05.31v13.26c0,.17-.06.31-.18.43s-.26.18-.43.18h-5.97c-.17,0-.31-.06-.43-.18Z"/>
      <path class="st2" d="M567.13,111.66c-1.85-1.92-2.78-4.48-2.78-7.67v-24.94c0-.17.06-.31.18-.43s.26-.18.43-.18h5.97c.17,0,.31.06.43.18.12.12.18.26.18.43v25.65c0,1.09.27,1.97.82,2.65s1.26,1.02,2.14,1.02,1.59-.34,2.12-1.02c.53-.68.79-1.56.79-2.65v-25.65c0-.17.06-.31.18-.43s.26-.18.43-.18h5.97c.17,0,.31.06.43.18.12.12.18.26.18.43v24.94c0,3.2-.93,5.75-2.78,7.67-1.85,1.92-4.29,2.88-7.32,2.88s-5.52-.96-7.37-2.88Z"/>
      <path class="st2" d="M602.75,113.62l-3.93-14.08c-.07-.13-.15-.2-.25-.2h-1.73c-.17,0-.26.09-.26.25v13.92c0,.17-.06.31-.18.43-.12.12-.26.18-.43.18h-5.97c-.17,0-.31-.06-.43-.18s-.18-.26-.18-.43v-34.47c0-.17.06-.31.18-.43.12-.12.26-.18.43-.18h10.3c1.87,0,3.54.45,5,1.35,1.46.9,2.59,2.17,3.39,3.8s1.2,3.5,1.2,5.61-.38,3.77-1.15,5.3c-.77,1.53-1.83,2.72-3.19,3.57-.07.03-.12.08-.15.13-.03.05-.03.11,0,.18l4.69,15.04.05.2c0,.34-.19.51-.56.51h-6.12c-.38,0-.61-.17-.71-.51ZM596.58,84.86v8.72c0,.17.08.25.26.25h2.29c1.05,0,1.91-.42,2.58-1.25.66-.83,1-1.95,1-3.34s-.33-2.56-1-3.39c-.66-.83-1.52-1.25-2.58-1.25h-2.29c-.17,0-.26.08-.26.25Z"/>
      <path class="st2" d="M619.89,113.57l-7.29-34.47-.05-.2c0-.31.19-.46.56-.46h6.58c.41,0,.63.19.66.56l3.52,22.44c.03.14.08.2.15.2s.12-.07.15-.2l3.42-22.44c.03-.37.25-.56.66-.56h6.37c.44,0,.61.22.51.66l-7.34,34.47c-.07.38-.29.56-.66.56h-6.58c-.37,0-.59-.19-.66-.56Z"/>
      <path class="st2" d="M657.55,84.42c-.12.12-.26.18-.43.18h-10.66c-.17,0-.26.08-.26.25v8.06c0,.17.08.25.26.25h6.12c.17,0,.31.06.43.18.12.12.18.26.18.43v4.95c0,.17-.06.31-.18.43-.12.12-.26.18-.43.18h-6.12c-.17,0-.26.09-.26.25v8.11c0,.17.08.25.26.25h10.66c.17,0,.31.06.43.18s.18.26.18.43v4.95c0,.17-.06.31-.18.43s-.26.18-.43.18h-17.49c-.17,0-.31-.06-.43-.18s-.18-.26-.18-.43v-34.47c0-.17.06-.31.18-.43.12-.12.26-.18.43-.18h17.49c.17,0,.31.06.43.18.12.12.18.26.18.43v4.95c0,.17-.06.31-.18.43Z"/>
      <path class="st2" d="M661.98,113.95c-.12-.12-.18-.26-.18-.43v-34.47c0-.17.06-.31.18-.43.12-.12.26-.18.43-.18h9.23c3.09,0,5.58.9,7.45,2.7,1.87,1.8,2.8,4.2,2.8,7.19v15.91c0,2.99-.94,5.39-2.8,7.19-1.87,1.8-4.35,2.7-7.45,2.7h-9.23c-.17,0-.31-.06-.43-.18ZM669.25,107.96l2.29-.05c.92-.03,1.67-.42,2.24-1.17.58-.75.88-1.73.92-2.96v-14.99c0-1.29-.29-2.31-.87-3.06-.58-.75-1.36-1.12-2.35-1.12h-2.24c-.17,0-.26.08-.26.25v22.85c0,.17.08.25.26.25Z"/>
      <path class="st2" d="M699.85,113.57l-.82-4.9c0-.17-.1-.25-.31-.25h-6.48c-.2,0-.31.09-.31.25l-.82,4.9c-.03.38-.25.56-.66.56h-5.97c-.44,0-.61-.22-.51-.66l7.5-34.47c.07-.37.29-.56.66-.56h6.88c.37,0,.59.19.66.56l7.45,34.47.05.2c0,.31-.19.46-.56.46h-6.12c-.41,0-.63-.19-.66-.56ZM693.17,102.86h4.59c.17,0,.24-.08.2-.25l-2.4-13.92c-.03-.1-.09-.15-.15-.15s-.12.05-.15.15l-2.29,13.92c0,.17.07.25.2.25Z"/>
      <path class="st2" d="M748.04,113.77c0,.24-.17.36-.51.36h-6.48c-.31,0-.56-.12-.77-.36l-1.22-1.58c-.1-.1-.22-.12-.36-.05-2.48,1.63-5.29,2.45-8.41,2.45s-5.53-.77-7.29-2.29c-1.77-1.53-2.65-3.77-2.65-6.73,0-2.21.48-4.08,1.45-5.61s2.3-2.94,4-4.23c.14-.1.15-.22.05-.36-1.56-2.11-2.58-3.68-3.03-4.72-.46-1.04-.69-2.18-.69-3.44,0-2.79.86-5.01,2.58-6.68,1.72-1.67,3.99-2.5,6.81-2.5,1.87,0,3.55.39,5.05,1.17,1.5.78,2.67,1.88,3.52,3.29.85,1.41,1.27,3.03,1.27,4.87,0,2.11-.53,3.92-1.58,5.43-1.05,1.51-2.5,2.92-4.33,4.21-.17.1-.19.22-.05.36l1.38,1.78,1.58,2.09.82,1.02c.13.14.25.14.36,0,.75-.99,1.53-2.24,2.35-3.77.17-.37.44-.46.82-.25l4.44,2.5c.34.2.42.49.25.87-1.22,2.28-2.48,4.27-3.77,5.97-.1.1-.1.22,0,.36l4.28,5.46c.1.14.15.27.15.41ZM734.73,107.14c.13-.14.15-.25.05-.36l-1.43-1.84-3.16-3.93c-.1-.14-.22-.15-.36-.05-1.5,1.33-2.24,2.67-2.24,4.03,0,.99.3,1.81.89,2.47.59.66,1.45.99,2.58.99,1.02,0,2.24-.44,3.67-1.33ZM729.96,85.34c-.43.53-.64,1.23-.64,2.12,0,.61.1,1.18.31,1.71s.71,1.37,1.53,2.52c.1.1.22.12.36.05,1.77-1.36,2.65-2.8,2.65-4.33,0-.85-.23-1.54-.69-2.07-.46-.53-1.04-.79-1.76-.79s-1.33.26-1.76.79Z"/>
    </g>
    <g>
      <path class="st2" d="M36.74,78.61c.12.12.18.26.18.43v4.95c0,.17-.06.31-.18.43-.12.12-.26.18-.43.18h-6.37c-.17,0-.25.08-.25.25v28.66c0,.17-.06.31-.18.43-.12.12-.26.18-.43.18h-5.97c-.17,0-.31-.06-.43-.18-.12-.12-.18-.26-.18-.43v-28.66c0-.17-.08-.25-.25-.25h-6.12c-.17,0-.31-.06-.43-.18-.12-.12-.18-.26-.18-.43v-4.95c0-.17.06-.31.18-.43.12-.12.26-.18.43-.18h20.19c.17,0,.31.06.43.18Z"/>
      <path class="st2" d="M42.17,111.78c-1.87-1.84-2.8-4.28-2.8-7.34v-16.32c0-3.06.93-5.51,2.8-7.34,1.87-1.84,4.37-2.75,7.5-2.75s5.64.92,7.52,2.75,2.83,4.28,2.83,7.34v16.32c0,3.06-.94,5.51-2.83,7.34s-4.39,2.75-7.52,2.75-5.63-.92-7.5-2.75ZM51.96,107.37c.58-.66.87-1.54.87-2.63v-16.93c0-1.09-.29-1.96-.87-2.63-.58-.66-1.34-1-2.29-1s-1.71.33-2.27,1-.84,1.54-.84,2.63v16.93c0,1.09.28,1.96.84,2.63s1.32.99,2.27.99,1.72-.33,2.29-.99Z"/>
      <path class="st2" d="M70.12,113.57l-6.88-34.47-.05-.2c0-.31.19-.46.56-.46h6.22c.41,0,.63.19.66.56l2.91,18.36c.03.14.08.2.15.2s.12-.07.15-.2l2.75-18.36c.03-.37.25-.56.66-.56h5.15c.41,0,.63.19.66.56l3.01,18.36c.03.14.08.2.15.2s.12-.07.15-.2l2.6-18.36c.03-.37.25-.56.66-.56h6.02c.44,0,.63.22.56.66l-6.48,34.47c-.03.38-.26.56-.66.56h-5.51c-.41,0-.63-.19-.66-.56l-3.01-18.87c-.03-.13-.08-.2-.15-.2s-.12.07-.15.2l-2.7,18.87c-.03.38-.25.56-.66.56h-5.46c-.37,0-.6-.19-.66-.56Z"/>
      <path class="st2" d="M110.51,113.57l-.82-4.9c0-.17-.1-.25-.31-.25h-6.48c-.2,0-.31.09-.31.25l-.82,4.9c-.03.38-.25.56-.66.56h-5.97c-.44,0-.61-.22-.51-.66l7.5-34.47c.07-.37.29-.56.66-.56h6.88c.37,0,.59.19.66.56l7.45,34.47.05.2c0,.31-.19.46-.56.46h-6.12c-.41,0-.63-.19-.66-.56ZM103.83,102.86h4.59c.17,0,.24-.08.2-.25l-2.4-13.92c-.03-.1-.08-.15-.15-.15s-.12.05-.15.15l-2.29,13.92c0,.17.07.25.2.25Z"/>
      <path class="st2" d="M134.58,113.62l-3.93-14.08c-.07-.13-.15-.2-.25-.2h-1.73c-.17,0-.25.09-.25.25v13.92c0,.17-.06.31-.18.43s-.26.18-.43.18h-5.97c-.17,0-.31-.06-.43-.18-.12-.12-.18-.26-.18-.43v-34.47c0-.17.06-.31.18-.43.12-.12.26-.18.43-.18h10.3c1.87,0,3.54.45,5,1.35,1.46.9,2.59,2.17,3.39,3.8.8,1.63,1.2,3.5,1.2,5.61s-.38,3.77-1.15,5.3-1.83,2.72-3.19,3.57c-.07.03-.12.08-.15.13-.03.05-.03.11,0,.18l4.69,15.04.05.2c0,.34-.19.51-.56.51h-6.12c-.37,0-.61-.17-.71-.51ZM128.41,84.86v8.72c0,.17.08.25.25.25h2.29c1.05,0,1.91-.42,2.58-1.25.66-.83.99-1.95.99-3.34s-.33-2.56-.99-3.39-1.52-1.25-2.58-1.25h-2.29c-.17,0-.25.08-.25.25Z"/>
      <path class="st2" d="M145.87,113.95c-.12-.12-.18-.26-.18-.43v-34.47c0-.17.06-.31.18-.43.12-.12.26-.18.43-.18h9.23c3.09,0,5.58.9,7.44,2.7,1.87,1.8,2.81,4.2,2.81,7.19v15.91c0,2.99-.94,5.39-2.81,7.19-1.87,1.8-4.35,2.7-7.44,2.7h-9.23c-.17,0-.31-.06-.43-.18ZM153.14,107.96l2.29-.05c.92-.03,1.67-.42,2.24-1.17.58-.75.88-1.73.92-2.96v-14.99c0-1.29-.29-2.31-.87-3.06-.58-.75-1.36-1.12-2.35-1.12h-2.24c-.17,0-.25.08-.25.25v22.85c0,.17.08.25.25.25Z"/>
      <path class="st2" d="M198.73,111.58c-1.9,1.7-4.37,2.55-7.39,2.55h-9.64c-.17,0-.31-.06-.43-.18-.12-.12-.18-.26-.18-.43v-34.47c0-.17.06-.31.18-.43.12-.12.26-.18.43-.18h8.52c3.4,0,6.06.82,7.98,2.45,1.92,1.63,2.88,4.06,2.88,7.29s-1.16,5.81-3.47,7.34c-.14.1-.15.2-.05.31,2.69,1.9,4.03,4.73,4.03,8.47,0,3.16-.95,5.59-2.86,7.29ZM188.27,84.86v8.01c0,.17.08.25.25.25h1.84c1.16,0,2.06-.37,2.7-1.1.65-.73.97-1.76.97-3.08,0-1.39-.31-2.46-.94-3.21-.63-.75-1.54-1.12-2.73-1.12h-1.84c-.17,0-.25.08-.25.25ZM193.42,106.68c.65-.82.97-1.97.97-3.47s-.32-2.69-.97-3.57c-.65-.88-1.51-1.33-2.6-1.33h-2.29c-.17,0-.25.08-.25.25v9.08c0,.17.08.25.25.25h2.24c1.12,0,2.01-.41,2.65-1.22Z"/>
      <path class="st2" d="M208.13,111.66c-1.85-1.92-2.78-4.48-2.78-7.67v-24.94c0-.17.06-.31.18-.43.12-.12.26-.18.43-.18h5.97c.17,0,.31.06.43.18.12.12.18.26.18.43v25.65c0,1.09.27,1.97.82,2.65.54.68,1.26,1.02,2.14,1.02s1.59-.34,2.12-1.02c.53-.68.79-1.56.79-2.65v-25.65c0-.17.06-.31.18-.43.12-.12.26-.18.43-.18h5.97c.17,0,.31.06.43.18.12.12.18.26.18.43v24.94c0,3.2-.93,5.75-2.78,7.67-1.85,1.92-4.29,2.88-7.32,2.88s-5.52-.96-7.37-2.88Z"/>
      <path class="st2" d="M230.57,113.95c-.12-.12-.18-.26-.18-.43v-34.47c0-.17.06-.31.18-.43.12-.12.26-.18.43-.18h5.97c.17,0,.31.06.43.18.12.12.18.26.18.43v34.47c0,.17-.06.31-.18.43s-.26.18-.43.18h-5.97c-.17,0-.31-.06-.43-.18Z"/>
      <path class="st2" d="M242.76,113.95c-.12-.12-.18-.26-.18-.43v-34.47c0-.17.06-.31.18-.43.12-.12.26-.18.43-.18h5.97c.17,0,.31.06.43.18.12.12.18.26.18.43v28.66c0,.17.08.25.25.25h10.71c.17,0,.31.06.43.18.12.12.18.26.18.43v4.95c0,.17-.06.31-.18.43-.12.12-.26.18-.43.18h-17.54c-.17,0-.31-.06-.43-.18Z"/>
      <path class="st2" d="M264.94,113.95c-.12-.12-.18-.26-.18-.43v-34.47c0-.17.06-.31.18-.43.12-.12.26-.18.43-.18h9.23c3.09,0,5.58.9,7.44,2.7,1.87,1.8,2.81,4.2,2.81,7.19v15.91c0,2.99-.94,5.39-2.81,7.19-1.87,1.8-4.35,2.7-7.44,2.7h-9.23c-.17,0-.31-.06-.43-.18ZM272.21,107.96l2.29-.05c.92-.03,1.67-.42,2.24-1.17.58-.75.88-1.73.92-2.96v-14.99c0-1.29-.29-2.31-.87-3.06-.58-.75-1.36-1.12-2.35-1.12h-2.24c-.17,0-.25.08-.25.25v22.85c0,.17.08.25.25.25Z"/>
      <path class="st2" d="M289.67,113.95c-.12-.12-.18-.26-.18-.43v-34.47c0-.17.06-.31.18-.43.12-.12.26-.18.43-.18h5.97c.17,0,.31.06.43.18.12.12.18.26.18.43v34.47c0,.17-.06.31-.18.43s-.26.18-.43.18h-5.97c-.17,0-.31-.06-.43-.18Z"/>
      <path class="st2" d="M316.45,78.61c.12-.12.26-.18.43-.18h5.92c.17,0,.31.06.43.18.12.12.18.26.18.43v34.47c0,.17-.06.31-.18.43-.12.12-.26.18-.43.18h-6.73c-.34,0-.56-.17-.66-.51l-6.32-19.74c-.03-.1-.09-.14-.18-.13-.08.02-.13.08-.13.18l.05,19.58c0,.17-.06.31-.18.43-.12.12-.26.18-.43.18h-5.92c-.17,0-.31-.06-.43-.18-.12-.12-.18-.26-.18-.43v-34.47c0-.17.06-.31.18-.43.12-.12.26-.18.43-.18h6.68c.34,0,.56.17.66.51l6.37,19.74c.03.1.09.14.18.13.08-.02.13-.08.13-.18l-.05-19.58c0-.17.06-.31.18-.43Z"/>
      <path class="st2" d="M330.62,111.91c-1.85-1.75-2.78-4.09-2.78-7.01v-17.24c0-2.92.93-5.26,2.78-7.01,1.85-1.75,4.31-2.63,7.37-2.63s5.52.88,7.39,2.65c1.87,1.77,2.8,4.11,2.8,7.04v1.94c0,.17-.06.31-.18.43-.12.12-.26.18-.43.18h-5.97c-.17,0-.31-.06-.43-.18-.12-.12-.18-.26-.18-.43v-2.04c0-1.02-.27-1.84-.82-2.47-.54-.63-1.27-.94-2.19-.94s-1.6.32-2.14.94c-.54.63-.82,1.45-.82,2.47v17.34c0,1.02.27,1.84.82,2.47.54.63,1.26.94,2.14.94s1.65-.31,2.19-.94c.54-.63.82-1.45.82-2.47v-4.08c0-.17-.09-.25-.25-.25h-2.24c-.17,0-.31-.06-.43-.18-.12-.12-.18-.26-.18-.43v-4.54c0-.17.06-.31.18-.43.12-.12.26-.18.43-.18h9.08c.17,0,.31.06.43.18.12.12.18.26.18.43v9.43c0,2.92-.94,5.26-2.8,7.01-1.87,1.75-4.33,2.63-7.39,2.63s-5.52-.87-7.37-2.63Z"/>
      <path class="st2" d="M377.61,113.57l-.82-4.9c0-.17-.1-.25-.31-.25h-6.48c-.2,0-.31.09-.31.25l-.82,4.9c-.03.38-.25.56-.66.56h-5.97c-.44,0-.61-.22-.51-.66l7.5-34.47c.07-.37.29-.56.66-.56h6.88c.37,0,.59.19.66.56l7.45,34.47.05.2c0,.31-.19.46-.56.46h-6.12c-.41,0-.63-.19-.66-.56ZM370.93,102.86h4.59c.17,0,.24-.08.2-.25l-2.4-13.92c-.03-.1-.08-.15-.15-.15s-.12.05-.15.15l-2.29,13.92c0,.17.07.25.2.25Z"/>
      <path class="st2" d="M405.38,113.9c-.12-.12-.18-.26-.18-.43v-13.26l-.05-.31-7.14-20.75c-.03-.07-.05-.15-.05-.25,0-.31.19-.46.56-.46h6.27c.37,0,.61.17.71.51l3.16,12.19c.03.1.08.15.15.15s.12-.05.15-.15l3.16-12.19c.1-.34.34-.51.71-.51h6.27c.2,0,.36.06.46.18.1.12.12.3.05.54l-7.19,20.75-.05.31v13.26c0,.17-.06.31-.18.43s-.26.18-.43.18h-5.97c-.17,0-.31-.06-.43-.18Z"/>
      <path class="st2" d="M424.73,111.78c-1.87-1.84-2.8-4.28-2.8-7.34v-16.32c0-3.06.94-5.51,2.8-7.34,1.87-1.84,4.37-2.75,7.5-2.75s5.63.92,7.52,2.75,2.83,4.28,2.83,7.34v16.32c0,3.06-.94,5.51-2.83,7.34s-4.39,2.75-7.52,2.75-5.63-.92-7.5-2.75ZM434.52,107.37c.58-.66.87-1.54.87-2.63v-16.93c0-1.09-.29-1.96-.87-2.63s-1.34-1-2.29-1-1.71.33-2.27,1c-.56.66-.84,1.54-.84,2.63v16.93c0,1.09.28,1.96.84,2.63.56.66,1.32.99,2.27.99s1.72-.33,2.29-.99Z"/>
      <path class="st2" d="M449.29,111.91c-1.85-1.75-2.78-4.09-2.78-7.01v-17.24c0-2.92.93-5.26,2.78-7.01,1.85-1.75,4.31-2.63,7.37-2.63s5.52.88,7.39,2.65c1.87,1.77,2.8,4.11,2.8,7.04v1.94c0,.17-.06.31-.18.43-.12.12-.26.18-.43.18h-5.97c-.17,0-.31-.06-.43-.18-.12-.12-.18-.26-.18-.43v-2.04c0-1.02-.27-1.84-.82-2.47-.54-.63-1.27-.94-2.19-.94s-1.6.32-2.14.94c-.54.63-.82,1.45-.82,2.47v17.34c0,1.02.27,1.84.82,2.47.54.63,1.26.94,2.14.94s1.65-.31,2.19-.94c.54-.63.82-1.45.82-2.47v-4.08c0-.17-.08-.25-.25-.25h-2.24c-.17,0-.31-.06-.43-.18s-.18-.26-.18-.43v-4.54c0-.17.06-.31.18-.43s.26-.18.43-.18h9.08c.17,0,.31.06.43.18.12.12.18.26.18.43v9.43c0,2.92-.94,5.26-2.8,7.01-1.87,1.75-4.33,2.63-7.39,2.63s-5.52-.87-7.37-2.63Z"/>
      <path class="st2" d="M485.11,113.57l-.82-4.9c0-.17-.1-.25-.31-.25h-6.48c-.2,0-.31.09-.31.25l-.82,4.9c-.03.38-.25.56-.66.56h-5.97c-.44,0-.61-.22-.51-.66l7.5-34.47c.07-.37.29-.56.66-.56h6.88c.37,0,.59.19.66.56l7.45,34.47.05.2c0,.31-.19.46-.56.46h-6.12c-.41,0-.63-.19-.66-.56ZM478.43,102.86h4.59c.17,0,.24-.08.2-.25l-2.4-13.92c-.03-.1-.09-.15-.15-.15s-.12.05-.15.15l-2.29,13.92c0,.17.07.25.2.25Z"/>
      <path class="st2" d="M495.23,118.95c-.12-.12-.16-.28-.13-.48l1.12-11.83c.07-.37.27-.56.61-.56h5.2c.48,0,.66.22.56.66l-2.7,11.83c-.1.37-.32.56-.66.56h-3.52c-.2,0-.37-.06-.48-.18Z"/>
      <path class="st2" d="M532.03,113.57l-.82-4.9c0-.17-.1-.25-.31-.25h-6.48c-.2,0-.31.09-.31.25l-.82,4.9c-.03.38-.25.56-.66.56h-5.97c-.44,0-.61-.22-.51-.66l7.5-34.47c.07-.37.29-.56.66-.56h6.88c.37,0,.59.19.66.56l7.45,34.47.05.2c0,.31-.19.46-.56.46h-6.12c-.41,0-.63-.19-.66-.56ZM525.34,102.86h4.59c.17,0,.24-.08.2-.25l-2.4-13.92c-.03-.1-.09-.15-.15-.15s-.12.05-.15.15l-2.29,13.92c0,.17.07.25.2.25Z"/>
      <path class="st2" d="M546.28,113.9c-.12-.12-.18-.26-.18-.43v-13.26l-.05-.31-7.14-20.75c-.03-.07-.05-.15-.05-.25,0-.31.19-.46.56-.46h6.27c.37,0,.61.17.71.51l3.16,12.19c.03.1.08.15.15.15s.12-.05.15-.15l3.16-12.19c.1-.34.34-.51.71-.51h6.27c.2,0,.36.06.46.18.1.12.12.3.05.54l-7.19,20.75-.05.31v13.26c0,.17-.06.31-.18.43s-.26.18-.43.18h-5.97c-.17,0-.31-.06-.43-.18Z"/>
      <path class="st2" d="M567.13,111.66c-1.85-1.92-2.78-4.48-2.78-7.67v-24.94c0-.17.06-.31.18-.43s.26-.18.43-.18h5.97c.17,0,.31.06.43.18.12.12.18.26.18.43v25.65c0,1.09.27,1.97.82,2.65s1.26,1.02,2.14,1.02,1.59-.34,2.12-1.02c.53-.68.79-1.56.79-2.65v-25.65c0-.17.06-.31.18-.43s.26-.18.43-.18h5.97c.17,0,.31.06.43.18.12.12.18.26.18.43v24.94c0,3.2-.93,5.75-2.78,7.67-1.85,1.92-4.29,2.88-7.32,2.88s-5.52-.96-7.37-2.88Z"/>
      <path class="st2" d="M602.75,113.62l-3.93-14.08c-.07-.13-.15-.2-.25-.2h-1.73c-.17,0-.26.09-.26.25v13.92c0,.17-.06.31-.18.43-.12.12-.26.18-.43.18h-5.97c-.17,0-.31-.06-.43-.18s-.18-.26-.18-.43v-34.47c0-.17.06-.31.18-.43.12-.12.26-.18.43-.18h10.3c1.87,0,3.54.45,5,1.35,1.46.9,2.59,2.17,3.39,3.8s1.2,3.5,1.2,5.61-.38,3.77-1.15,5.3c-.77,1.53-1.83,2.72-3.19,3.57-.07.03-.12.08-.15.13-.03.05-.03.11,0,.18l4.69,15.04.05.2c0,.34-.19.51-.56.51h-6.12c-.38,0-.61-.17-.71-.51ZM596.58,84.86v8.72c0,.17.08.25.26.25h2.29c1.05,0,1.91-.42,2.58-1.25.66-.83,1-1.95,1-3.34s-.33-2.56-1-3.39c-.66-.83-1.52-1.25-2.58-1.25h-2.29c-.17,0-.26.08-.26.25Z"/>
      <path class="st2" d="M619.89,113.57l-7.29-34.47-.05-.2c0-.31.19-.46.56-.46h6.58c.41,0,.63.19.66.56l3.52,22.44c.03.14.08.2.15.2s.12-.07.15-.2l3.42-22.44c.03-.37.25-.56.66-.56h6.37c.44,0,.61.22.51.66l-7.34,34.47c-.07.38-.29.56-.66.56h-6.58c-.37,0-.59-.19-.66-.56Z"/>
      <path class="st2" d="M657.55,84.42c-.12.12-.26.18-.43.18h-10.66c-.17,0-.26.08-.26.25v8.06c0,.17.08.25.26.25h6.12c.17,0,.31.06.43.18.12.12.18.26.18.43v4.95c0,.17-.06.31-.18.43-.12.12-.26.18-.43.18h-6.12c-.17,0-.26.09-.26.25v8.11c0,.17.08.25.26.25h10.66c.17,0,.31.06.43.18s.18.26.18.43v4.95c0,.17-.06.31-.18.43s-.26.18-.43.18h-17.49c-.17,0-.31-.06-.43-.18s-.18-.26-.18-.43v-34.47c0-.17.06-.31.18-.43.12-.12.26-.18.43-.18h17.49c.17,0,.31.06.43.18.12.12.18.26.18.43v4.95c0,.17-.06.31-.18.43Z"/>
      <path class="st2" d="M661.98,113.95c-.12-.12-.18-.26-.18-.43v-34.47c0-.17.06-.31.18-.43.12-.12.26-.18.43-.18h9.23c3.09,0,5.58.9,7.45,2.7,1.87,1.8,2.8,4.2,2.8,7.19v15.91c0,2.99-.94,5.39-2.8,7.19-1.87,1.8-4.35,2.7-7.45,2.7h-9.23c-.17,0-.31-.06-.43-.18ZM669.25,107.96l2.29-.05c.92-.03,1.67-.42,2.24-1.17.58-.75.88-1.73.92-2.96v-14.99c0-1.29-.29-2.31-.87-3.06-.58-.75-1.36-1.12-2.35-1.12h-2.24c-.17,0-.26.08-.26.25v22.85c0,.17.08.25.26.25Z"/>
      <path class="st2" d="M699.85,113.57l-.82-4.9c0-.17-.1-.25-.31-.25h-6.48c-.2,0-.31.09-.31.25l-.82,4.9c-.03.38-.25.56-.66.56h-5.97c-.44,0-.61-.22-.51-.66l7.5-34.47c.07-.37.29-.56.66-.56h6.88c.37,0,.59.19.66.56l7.45,34.47.05.2c0,.31-.19.46-.56.46h-6.12c-.41,0-.63-.19-.66-.56ZM693.17,102.86h4.59c.17,0,.24-.08.2-.25l-2.4-13.92c-.03-.1-.09-.15-.15-.15s-.12.05-.15.15l-2.29,13.92c0,.17.07.25.2.25Z"/>
      <path class="st2" d="M748.04,113.77c0,.24-.17.36-.51.36h-6.48c-.31,0-.56-.12-.77-.36l-1.22-1.58c-.1-.1-.22-.12-.36-.05-2.48,1.63-5.29,2.45-8.41,2.45s-5.53-.77-7.29-2.29c-1.77-1.53-2.65-3.77-2.65-6.73,0-2.21.48-4.08,1.45-5.61s2.3-2.94,4-4.23c.14-.1.15-.22.05-.36-1.56-2.11-2.58-3.68-3.03-4.72-.46-1.04-.69-2.18-.69-3.44,0-2.79.86-5.01,2.58-6.68,1.72-1.67,3.99-2.5,6.81-2.5,1.87,0,3.55.39,5.05,1.17,1.5.78,2.67,1.88,3.52,3.29.85,1.41,1.27,3.03,1.27,4.87,0,2.11-.53,3.92-1.58,5.43-1.05,1.51-2.5,2.92-4.33,4.21-.17.1-.19.22-.05.36l1.38,1.78,1.58,2.09.82,1.02c.13.14.25.14.36,0,.75-.99,1.53-2.24,2.35-3.77.17-.37.44-.46.82-.25l4.44,2.5c.34.2.42.49.25.87-1.22,2.28-2.48,4.27-3.77,5.97-.1.1-.1.22,0,.36l4.28,5.46c.1.14.15.27.15.41ZM734.73,107.14c.13-.14.15-.25.05-.36l-1.43-1.84-3.16-3.93c-.1-.14-.22-.15-.36-.05-1.5,1.33-2.24,2.67-2.24,4.03,0,.99.3,1.81.89,2.47.59.66,1.45.99,2.58.99,1.02,0,2.24-.44,3.67-1.33ZM729.96,85.34c-.43.53-.64,1.23-.64,2.12,0,.61.1,1.18.31,1.71s.71,1.37,1.53,2.52c.1.1.22.12.36.05,1.77-1.36,2.65-2.8,2.65-4.33,0-.85-.23-1.54-.69-2.07-.46-.53-1.04-.79-1.76-.79s-1.33.26-1.76.79Z"/>
    </g>
  </g>
  <g>
    <path class="st0" d="M94.17,52.01l-.82-4.9c0-.17-.1-.25-.31-.25h-6.48c-.2,0-.31.08-.31.25l-.82,4.9c-.03.37-.25.56-.66.56h-5.97c-.44,0-.61-.22-.51-.66l7.5-34.47c.07-.37.29-.56.66-.56h6.88c.37,0,.59.19.66.56l7.45,34.47.05.2c0,.31-.19.46-.56.46h-6.12c-.41,0-.63-.19-.66-.56ZM87.49,41.3h4.59c.17,0,.24-.08.2-.25l-2.4-13.92c-.03-.1-.08-.15-.15-.15s-.12.05-.15.15l-2.29,13.92c0,.17.07.25.2.25Z"/>
    <path class="st0" d="M131.39,18.2c1.46.92,2.59,2.2,3.39,3.85.8,1.65,1.2,3.53,1.2,5.64,0,3.16-.85,5.69-2.55,7.6-1.7,1.9-3.93,2.86-6.68,2.86h-3.82c-.17,0-.26.09-.26.25v13.57c0,.17-.06.31-.18.43-.12.12-.26.18-.43.18h-5.97c-.17,0-.31-.06-.43-.18-.12-.12-.18-.26-.18-.43V17.43c0-.17.06-.31.18-.43.12-.12.26-.18.43-.18h10.3c1.87,0,3.54.46,5,1.38ZM127.8,31.28c.66-.83.99-1.98.99-3.44s-.33-2.67-.99-3.52c-.66-.85-1.54-1.27-2.63-1.27h-2.24c-.17,0-.26.08-.26.25v8.97c0,.17.08.25.26.25h2.24c1.09,0,1.96-.42,2.63-1.25Z"/>
    <path class="st0" d="M142,50.22c-1.87-1.84-2.8-4.28-2.8-7.34v-16.32c0-3.06.93-5.51,2.8-7.34,1.87-1.84,4.37-2.75,7.5-2.75s5.64.92,7.52,2.75,2.83,4.28,2.83,7.34v16.32c0,3.06-.94,5.51-2.83,7.34s-4.39,2.75-7.52,2.75-5.63-.92-7.5-2.75ZM151.79,45.81c.58-.66.87-1.54.87-2.63v-16.93c0-1.09-.29-1.96-.87-2.63-.58-.66-1.34-.99-2.29-.99s-1.71.33-2.27.99-.84,1.54-.84,2.63v16.93c0,1.09.28,1.96.84,2.63s1.32,1,2.27,1,1.72-.33,2.29-1Z"/>
    <path class="st0" d="M177.64,52.06l-3.93-14.07c-.07-.14-.15-.2-.25-.2h-1.73c-.17,0-.25.08-.25.25v13.92c0,.17-.06.31-.18.43-.12.12-.26.18-.43.18h-5.97c-.17,0-.31-.06-.43-.18-.12-.12-.18-.26-.18-.43V17.48c0-.17.06-.31.18-.43.12-.12.26-.18.43-.18h10.3c1.87,0,3.54.45,5,1.35,1.46.9,2.59,2.17,3.39,3.8.8,1.63,1.2,3.5,1.2,5.61s-.38,3.77-1.15,5.3c-.76,1.53-1.83,2.72-3.19,3.57-.07.03-.12.08-.15.13-.03.05-.03.11,0,.18l4.69,15.04.05.2c0,.34-.19.51-.56.51h-6.12c-.37,0-.61-.17-.71-.51ZM171.47,23.3v8.72c0,.17.08.25.25.25h2.29c1.05,0,1.91-.42,2.58-1.25s.99-1.95.99-3.34-.33-2.56-.99-3.39-1.52-1.25-2.58-1.25h-2.29c-.17,0-.25.08-.25.25Z"/>
    <path class="st0" d="M208.98,17.05c.12.12.18.26.18.43v4.95c0,.17-.06.31-.18.43-.12.12-.26.18-.43.18h-6.37c-.17,0-.25.08-.25.25v28.66c0,.17-.06.31-.18.43-.12.12-.26.18-.43.18h-5.97c-.17,0-.31-.06-.43-.18-.12-.12-.18-.26-.18-.43v-28.66c0-.17-.08-.25-.25-.25h-6.12c-.17,0-.31-.06-.43-.18-.12-.12-.18-.26-.18-.43v-4.95c0-.17.06-.31.18-.43.12-.12.26-.18.43-.18h20.19c.17,0,.31.06.43.18Z"/>
    <path class="st0" d="M213.26,52.39c-.12-.12-.18-.26-.18-.43V17.48c0-.17.06-.31.18-.43.12-.12.26-.18.43-.18h5.97c.17,0,.31.06.43.18s.18.26.18.43v34.47c0,.17-.06.31-.18.43-.12.12-.26.18-.43.18h-5.97c-.17,0-.31-.06-.43-.18Z"/>
    <path class="st0" d="M227.57,50.22c-1.87-1.84-2.8-4.28-2.8-7.34v-16.32c0-3.06.93-5.51,2.8-7.34,1.87-1.84,4.37-2.75,7.5-2.75s5.64.92,7.52,2.75,2.83,4.28,2.83,7.34v16.32c0,3.06-.94,5.51-2.83,7.34s-4.39,2.75-7.52,2.75-5.63-.92-7.5-2.75ZM237.36,45.81c.58-.66.87-1.54.87-2.63v-16.93c0-1.09-.29-1.96-.87-2.63-.58-.66-1.34-.99-2.29-.99s-1.71.33-2.27.99-.84,1.54-.84,2.63v16.93c0,1.09.28,1.96.84,2.63s1.32,1,2.27,1,1.72-.33,2.29-1Z"/>
    <path class="st0" d="M264.61,17.05c.12-.12.26-.18.43-.18h5.92c.17,0,.31.06.43.18.12.12.18.26.18.43v34.47c0,.17-.06.31-.18.43-.12.12-.26.18-.43.18h-6.73c-.34,0-.56-.17-.66-.51l-6.32-19.74c-.03-.1-.09-.14-.18-.13-.08.02-.13.08-.13.18l.05,19.58c0,.17-.06.31-.18.43-.12.12-.26.18-.43.18h-5.92c-.17,0-.31-.06-.43-.18-.12-.12-.18-.26-.18-.43V17.48c0-.17.06-.31.18-.43.12-.12.26-.18.43-.18h6.68c.34,0,.56.17.66.51l6.37,19.74c.03.1.09.14.18.13.08-.02.13-.08.13-.18l-.05-19.58c0-.17.06-.31.18-.43Z"/>
    <path class="st0" d="M289.47,50.22c-1.87-1.84-2.8-4.28-2.8-7.34v-16.32c0-3.06.93-5.51,2.8-7.34,1.87-1.84,4.37-2.75,7.5-2.75s5.64.92,7.52,2.75,2.83,4.28,2.83,7.34v16.32c0,3.06-.94,5.51-2.83,7.34s-4.39,2.75-7.52,2.75-5.63-.92-7.5-2.75ZM299.26,45.81c.58-.66.87-1.54.87-2.63v-16.93c0-1.09-.29-1.96-.87-2.63-.58-.66-1.34-.99-2.29-.99s-1.71.33-2.27.99-.84,1.54-.84,2.63v16.93c0,1.09.28,1.96.84,2.63s1.32,1,2.27,1,1.72-.33,2.29-1Z"/>
    <path class="st0" d="M330.24,22.86c-.12.12-.26.18-.43.18h-10.61c-.17,0-.25.08-.25.25v8.06c0,.17.08.25.25.25h6.07c.17,0,.31.06.43.18.12.12.18.26.18.43v4.95c0,.17-.06.32-.18.43-.12.12-.26.18-.43.18h-6.07c-.17,0-.25.08-.25.25v13.92c0,.17-.06.31-.18.43-.12.12-.26.18-.43.18h-5.97c-.17,0-.31-.06-.43-.18-.12-.12-.18-.26-.18-.43V17.48c0-.17.06-.31.18-.43.12-.12.26-.18.43-.18h17.44c.17,0,.31.06.43.18.12.12.18.26.18.43v4.95c0,.17-.06.31-.18.43Z"/>
    <path class="st0" d="M346.64,50.22c-1.87-1.84-2.8-4.28-2.8-7.34v-16.32c0-3.06.93-5.51,2.8-7.34,1.87-1.84,4.37-2.75,7.5-2.75s5.64.92,7.52,2.75,2.83,4.28,2.83,7.34v16.32c0,3.06-.94,5.51-2.83,7.34s-4.39,2.75-7.52,2.75-5.63-.92-7.5-2.75ZM356.43,45.81c.58-.66.87-1.54.87-2.63v-16.93c0-1.09-.29-1.96-.87-2.63-.58-.66-1.34-.99-2.29-.99s-1.71.33-2.27.99-.84,1.54-.84,2.63v16.93c0,1.09.28,1.96.84,2.63s1.32,1,2.27,1,1.72-.33,2.29-1Z"/>
    <path class="st0" d="M371.55,50.1c-1.85-1.92-2.78-4.48-2.78-7.67v-24.94c0-.17.06-.31.18-.43s.26-.18.43-.18h5.97c.17,0,.31.06.43.18.12.12.18.26.18.43v25.65c0,1.09.27,1.97.82,2.65.54.68,1.26,1.02,2.14,1.02s1.59-.34,2.12-1.02c.53-.68.79-1.56.79-2.65v-25.65c0-.17.06-.31.18-.43s.26-.18.43-.18h5.97c.17,0,.31.06.43.18.12.12.18.26.18.43v24.94c0,3.2-.93,5.75-2.78,7.67-1.85,1.92-4.29,2.88-7.32,2.88s-5.52-.96-7.37-2.88Z"/>
    <path class="st0" d="M407.17,52.06l-3.93-14.07c-.07-.14-.15-.2-.25-.2h-1.73c-.17,0-.25.08-.25.25v13.92c0,.17-.06.31-.18.43-.12.12-.26.18-.43.18h-5.97c-.17,0-.31-.06-.43-.18-.12-.12-.18-.26-.18-.43V17.48c0-.17.06-.31.18-.43s.26-.18.43-.18h10.3c1.87,0,3.54.45,5,1.35,1.46.9,2.59,2.17,3.39,3.8s1.2,3.5,1.2,5.61-.38,3.77-1.15,5.3c-.76,1.53-1.83,2.72-3.19,3.57-.07.03-.12.08-.15.13-.03.05-.03.11,0,.18l4.69,15.04.05.2c0,.34-.19.51-.56.51h-6.12c-.38,0-.61-.17-.71-.51ZM401,23.3v8.72c0,.17.08.25.25.25h2.29c1.05,0,1.91-.42,2.58-1.25s.99-1.95.99-3.34-.33-2.56-.99-3.39-1.52-1.25-2.58-1.25h-2.29c-.17,0-.25.08-.25.25Z"/>
    <path class="st0" d="M444.8,18.2c1.46.92,2.59,2.2,3.39,3.85.8,1.65,1.2,3.53,1.2,5.64,0,3.16-.85,5.69-2.55,7.6-1.7,1.9-3.93,2.86-6.68,2.86h-3.82c-.17,0-.26.09-.26.25v13.57c0,.17-.06.31-.18.43s-.26.18-.43.18h-5.97c-.17,0-.31-.06-.43-.18-.12-.12-.18-.26-.18-.43V17.43c0-.17.06-.31.18-.43s.26-.18.43-.18h10.3c1.87,0,3.54.46,5,1.38ZM441.2,31.28c.66-.83,1-1.98,1-3.44s-.33-2.67-1-3.52c-.66-.85-1.54-1.27-2.63-1.27h-2.24c-.17,0-.26.08-.26.25v8.97c0,.17.08.25.26.25h2.24c1.09,0,1.96-.42,2.63-1.25Z"/>
    <path class="st0" d="M466.47,52.06l-3.93-14.07c-.07-.14-.15-.2-.25-.2h-1.73c-.17,0-.25.08-.25.25v13.92c0,.17-.06.31-.18.43-.12.12-.26.18-.43.18h-5.97c-.17,0-.31-.06-.43-.18-.12-.12-.18-.26-.18-.43V17.48c0-.17.06-.31.18-.43.12-.12.26-.18.43-.18h10.3c1.87,0,3.54.45,5,1.35,1.46.9,2.59,2.17,3.39,3.8.8,1.63,1.2,3.5,1.2,5.61s-.38,3.77-1.15,5.3c-.76,1.53-1.83,2.72-3.19,3.57-.07.03-.12.08-.15.13-.04.05-.04.11,0,.18l4.69,15.04.05.2c0,.34-.19.51-.56.51h-6.12c-.37,0-.61-.17-.71-.51ZM460.3,23.3v8.72c0,.17.08.25.25.25h2.29c1.05,0,1.91-.42,2.58-1.25s.99-1.95.99-3.34-.33-2.56-.99-3.39-1.52-1.25-2.58-1.25h-2.29c-.17,0-.25.08-.25.25Z"/>
    <path class="st0" d="M479.88,50.22c-1.87-1.84-2.8-4.28-2.8-7.34v-16.32c0-3.06.93-5.51,2.8-7.34,1.87-1.84,4.37-2.75,7.5-2.75s5.63.92,7.52,2.75,2.83,4.28,2.83,7.34v16.32c0,3.06-.94,5.51-2.83,7.34s-4.39,2.75-7.52,2.75-5.63-.92-7.5-2.75ZM489.67,45.81c.58-.66.87-1.54.87-2.63v-16.93c0-1.09-.29-1.96-.87-2.63-.58-.66-1.34-.99-2.29-.99s-1.71.33-2.27.99c-.56.66-.84,1.54-.84,2.63v16.93c0,1.09.28,1.96.84,2.63.56.66,1.32,1,2.27,1s1.72-.33,2.29-1Z"/>
    <path class="st0" d="M520.65,22.86c-.12.12-.26.18-.43.18h-10.61c-.17,0-.25.08-.25.25v8.06c0,.17.08.25.25.25h6.07c.17,0,.31.06.43.18.12.12.18.26.18.43v4.95c0,.17-.06.32-.18.43-.12.12-.26.18-.43.18h-6.07c-.17,0-.25.08-.25.25v13.92c0,.17-.06.31-.18.43-.12.12-.26.18-.43.18h-5.97c-.17,0-.31-.06-.43-.18-.12-.12-.18-.26-.18-.43V17.48c0-.17.06-.31.18-.43.12-.12.26-.18.43-.18h17.44c.17,0,.31.06.43.18s.18.26.18.43v4.95c0,.17-.06.31-.18.43Z"/>
    <path class="st0" d="M524.27,52.39c-.12-.12-.18-.26-.18-.43V17.48c0-.17.06-.31.18-.43.12-.12.26-.18.43-.18h5.97c.17,0,.31.06.43.18s.18.26.18.43v34.47c0,.17-.06.31-.18.43-.12.12-.26.18-.43.18h-5.97c-.17,0-.31-.06-.43-.18Z"/>
    <path class="st0" d="M556.5,17.05c.12.12.18.26.18.43v4.95c0,.17-.06.31-.18.43-.12.12-.26.18-.43.18h-6.38c-.17,0-.25.08-.25.25v28.66c0,.17-.06.31-.18.43s-.26.18-.43.18h-5.97c-.17,0-.31-.06-.43-.18-.12-.12-.18-.26-.18-.43v-28.66c0-.17-.08-.25-.25-.25h-6.12c-.17,0-.31-.06-.43-.18s-.18-.26-.18-.43v-4.95c0-.17.06-.31.18-.43s.26-.18.43-.18h20.19c.17,0,.31.06.43.18Z"/>
    <path class="st0" d="M564.58,51.8c-1.5-.78-2.65-1.88-3.47-3.29-.82-1.41-1.22-3.03-1.22-4.87v-1.48c0-.17.06-.31.18-.43.12-.12.26-.18.43-.18h5.87c.17,0,.31.06.43.18s.18.26.18.43v1.12c0,1.05.27,1.9.82,2.55.54.65,1.22.97,2.04.97s1.5-.31,2.04-.92c.54-.61.82-1.41.82-2.4s-.34-1.89-1.02-2.63c-.68-.73-2.01-1.81-3.98-3.24-1.7-1.22-3.08-2.31-4.13-3.26-1.05-.95-1.96-2.12-2.7-3.52-.75-1.39-1.12-3.01-1.12-4.84,0-2.89.9-5.2,2.7-6.93,1.8-1.73,4.18-2.6,7.14-2.6s5.4.9,7.22,2.7c1.82,1.8,2.73,4.17,2.73,7.09v1.22c0,.17-.06.31-.18.43s-.26.18-.43.18h-5.86c-.17,0-.31-.06-.43-.18s-.18-.26-.18-.43v-1.38c0-1.05-.26-1.89-.79-2.52-.53-.63-1.22-.94-2.07-.94s-1.48.3-1.99.89-.76,1.42-.76,2.47.32,1.92.97,2.7c.65.78,1.92,1.87,3.82,3.26,2.11,1.56,3.7,2.83,4.77,3.8,1.07.97,1.9,2.04,2.5,3.21s.89,2.58.89,4.21c0,2.99-.92,5.37-2.75,7.14s-4.25,2.65-7.24,2.65c-1.97,0-3.71-.39-5.2-1.17Z"/>
    <path class="st0" d="M596.63,50.35c-1.85-1.75-2.78-4.09-2.78-7.01v-17.24c0-2.92.93-5.26,2.78-7.01,1.85-1.75,4.31-2.63,7.37-2.63s5.52.88,7.39,2.65,2.8,4.11,2.8,7.04v1.94c0,.17-.06.32-.18.43s-.26.18-.43.18h-5.97c-.17,0-.31-.06-.43-.18-.12-.12-.18-.26-.18-.43v-2.04c0-1.02-.27-1.84-.82-2.47-.54-.63-1.27-.94-2.19-.94s-1.6.31-2.14.94c-.54.63-.82,1.45-.82,2.47v17.34c0,1.02.27,1.84.82,2.47.54.63,1.26.94,2.14.94s1.65-.31,2.19-.94c.54-.63.82-1.45.82-2.47v-4.08c0-.17-.09-.25-.25-.25h-2.24c-.17,0-.31-.06-.43-.18s-.18-.26-.18-.43v-4.54c0-.17.06-.31.18-.43.12-.12.26-.18.43-.18h9.08c.17,0,.31.06.43.18.12.12.18.26.18.43v9.43c0,2.92-.93,5.26-2.8,7.01s-4.33,2.63-7.39,2.63-5.52-.88-7.37-2.63Z"/>
    <path class="st0" d="M620.93,50.22c-1.87-1.84-2.8-4.28-2.8-7.34v-16.32c0-3.06.93-5.51,2.8-7.34,1.87-1.84,4.37-2.75,7.5-2.75s5.64.92,7.52,2.75,2.83,4.28,2.83,7.34v16.32c0,3.06-.94,5.51-2.83,7.34s-4.39,2.75-7.52,2.75-5.63-.92-7.5-2.75ZM630.72,45.81c.58-.66.87-1.54.87-2.63v-16.93c0-1.09-.29-1.96-.87-2.63s-1.34-.99-2.29-.99-1.71.33-2.27.99c-.56.66-.84,1.54-.84,2.63v16.93c0,1.09.28,1.96.84,2.63.56.66,1.32,1,2.27,1s1.72-.33,2.29-1Z"/>
    <path class="st0" d="M661.75,22.86c-.12.12-.26.18-.43.18h-10.66c-.17,0-.25.08-.25.25v8.06c0,.17.08.25.25.25h6.12c.17,0,.31.06.43.18.12.12.18.26.18.43v4.95c0,.17-.06.32-.18.43-.12.12-.26.18-.43.18h-6.12c-.17,0-.25.08-.25.25v8.11c0,.17.08.25.25.25h10.66c.17,0,.31.06.43.18.12.12.18.26.18.43v4.95c0,.17-.06.31-.18.43s-.26.18-.43.18h-17.49c-.17,0-.31-.06-.43-.18-.12-.12-.18-.26-.18-.43V17.48c0-.17.06-.31.18-.43s.26-.18.43-.18h17.49c.17,0,.31.06.43.18.12.12.18.26.18.43v4.95c0,.17-.06.31-.18.43Z"/>
    <path class="st0" d="M669.99,51.8c-1.5-.78-2.65-1.88-3.47-3.29-.82-1.41-1.22-3.03-1.22-4.87v-1.48c0-.17.06-.31.18-.43s.26-.18.43-.18h5.86c.17,0,.31.06.43.18s.18.26.18.43v1.12c0,1.05.27,1.9.82,2.55.54.65,1.22.97,2.04.97s1.5-.31,2.04-.92c.54-.61.82-1.41.82-2.4s-.34-1.89-1.02-2.63c-.68-.73-2.01-1.81-3.98-3.24-1.7-1.22-3.08-2.31-4.13-3.26-1.05-.95-1.96-2.12-2.7-3.52-.75-1.39-1.12-3.01-1.12-4.84,0-2.89.9-5.2,2.7-6.93,1.8-1.73,4.18-2.6,7.14-2.6s5.4.9,7.22,2.7c1.82,1.8,2.73,4.17,2.73,7.09v1.22c0,.17-.06.31-.18.43-.12.12-.26.18-.43.18h-5.86c-.17,0-.32-.06-.43-.18-.12-.12-.18-.26-.18-.43v-1.38c0-1.05-.26-1.89-.79-2.52-.53-.63-1.22-.94-2.07-.94s-1.48.3-1.99.89c-.51.59-.76,1.42-.76,2.47s.32,1.92.97,2.7c.65.78,1.92,1.87,3.83,3.26,2.11,1.56,3.7,2.83,4.77,3.8s1.9,2.04,2.5,3.21c.59,1.17.89,2.58.89,4.21,0,2.99-.92,5.37-2.75,7.14s-4.25,2.65-7.24,2.65c-1.97,0-3.71-.39-5.2-1.17Z"/>
  </g>
  <g>
    <g>
      <path class="st2" d="M164,137.33c.12-.12.26-.18.43-.18h5.92c.17,0,.31.06.43.18.12.12.18.26.18.43v34.47c0,.17-.06.32-.18.43-.12.12-.26.18-.43.18h-6.73c-.34,0-.56-.17-.66-.51l-6.32-19.74c-.03-.1-.09-.14-.18-.13-.08.02-.13.08-.13.18l.05,19.58c0,.17-.06.32-.18.43-.12.12-.26.18-.43.18h-5.92c-.17,0-.31-.06-.43-.18-.12-.12-.18-.26-.18-.43v-34.47c0-.17.06-.31.18-.43.12-.12.26-.18.43-.18h6.68c.34,0,.56.17.66.51l6.37,19.74c.03.1.09.14.18.13.08-.02.13-.08.13-.18l-.05-19.58c0-.17.06-.31.18-.43Z"/>
      <path class="st2" d="M190.24,172.29l-.82-4.9c0-.17-.1-.25-.31-.25h-6.48c-.2,0-.31.08-.31.25l-.82,4.9c-.03.37-.25.56-.66.56h-5.97c-.44,0-.61-.22-.51-.66l7.5-34.47c.07-.37.29-.56.66-.56h6.88c.37,0,.59.19.66.56l7.45,34.47.05.2c0,.31-.19.46-.56.46h-6.12c-.41,0-.63-.19-.66-.56ZM183.56,161.58h4.59c.17,0,.24-.08.2-.25l-2.4-13.92c-.03-.1-.08-.15-.15-.15s-.12.05-.15.15l-2.29,13.92c0,.17.07.25.2.25Z"/>
      <path class="st2" d="M218.16,137.33c.12.12.18.26.18.43v4.95c0,.17-.06.31-.18.43-.12.12-.26.18-.43.18h-6.37c-.17,0-.25.09-.25.25v28.66c0,.17-.06.32-.18.43-.12.12-.26.18-.43.18h-5.97c-.17,0-.31-.06-.43-.18-.12-.12-.18-.26-.18-.43v-28.66c0-.17-.08-.25-.25-.25h-6.12c-.17,0-.31-.06-.43-.18-.12-.12-.18-.26-.18-.43v-4.95c0-.17.06-.31.18-.43.12-.12.26-.18.43-.18h20.19c.17,0,.31.06.43.18Z"/>
      <path class="st2" d="M224.89,170.38c-1.85-1.92-2.78-4.48-2.78-7.67v-24.94c0-.17.06-.31.18-.43s.26-.18.43-.18h5.97c.17,0,.31.06.43.18.12.12.18.26.18.43v25.65c0,1.09.27,1.97.82,2.65.54.68,1.26,1.02,2.14,1.02s1.59-.34,2.12-1.02c.53-.68.79-1.56.79-2.65v-25.65c0-.17.06-.31.18-.43s.26-.18.43-.18h5.97c.17,0,.31.06.43.18.12.12.18.26.18.43v24.94c0,3.2-.93,5.75-2.78,7.67-1.85,1.92-4.29,2.88-7.32,2.88s-5.52-.96-7.37-2.88Z"/>
      <path class="st2" d="M260.51,172.34l-3.93-14.08c-.07-.13-.15-.2-.25-.2h-1.73c-.17,0-.25.08-.25.25v13.92c0,.17-.06.32-.18.43-.12.12-.26.18-.43.18h-5.97c-.17,0-.31-.06-.43-.18-.12-.12-.18-.26-.18-.43v-34.47c0-.17.06-.31.18-.43.12-.12.26-.18.43-.18h10.3c1.87,0,3.54.45,5,1.35,1.46.9,2.59,2.17,3.39,3.8.8,1.63,1.2,3.5,1.2,5.61s-.38,3.77-1.15,5.3-1.83,2.72-3.19,3.57c-.07.03-.12.08-.15.13-.03.05-.03.11,0,.18l4.69,15.04.05.2c0,.34-.19.51-.56.51h-6.12c-.37,0-.61-.17-.71-.51ZM254.34,143.58v8.72c0,.17.08.25.25.25h2.29c1.05,0,1.91-.42,2.58-1.25s.99-1.95.99-3.34-.33-2.56-.99-3.39-1.52-1.25-2.58-1.25h-2.29c-.17,0-.25.09-.25.25Z"/>
      <path class="st2" d="M273.92,170.5c-1.87-1.84-2.8-4.28-2.8-7.34v-16.32c0-3.06.93-5.51,2.8-7.34,1.87-1.84,4.37-2.75,7.5-2.75s5.64.92,7.52,2.75,2.83,4.28,2.83,7.34v16.32c0,3.06-.94,5.51-2.83,7.34s-4.39,2.75-7.52,2.75-5.63-.92-7.5-2.75ZM283.71,166.09c.58-.66.87-1.54.87-2.63v-16.93c0-1.09-.29-1.96-.87-2.63-.58-.66-1.34-.99-2.29-.99s-1.71.33-2.27.99-.84,1.54-.84,2.63v16.93c0,1.09.28,1.96.84,2.63s1.32.99,2.27.99,1.72-.33,2.29-.99Z"/>
      <path class="st2" d="M312.06,138.48c1.46.92,2.59,2.2,3.39,3.85.8,1.65,1.2,3.53,1.2,5.63,0,3.16-.85,5.7-2.55,7.6-1.7,1.9-3.93,2.86-6.68,2.86h-3.82c-.17,0-.26.08-.26.25v13.56c0,.17-.06.32-.18.43-.12.12-.26.18-.43.18h-5.97c-.17,0-.31-.06-.43-.18-.12-.12-.18-.26-.18-.43v-34.52c0-.17.06-.31.18-.43.12-.12.26-.18.43-.18h10.3c1.87,0,3.54.46,5,1.38ZM308.47,151.56c.66-.83.99-1.98.99-3.44s-.33-2.67-.99-3.52c-.66-.85-1.54-1.28-2.63-1.28h-2.24c-.17,0-.26.09-.26.25v8.98c0,.17.08.25.26.25h2.24c1.09,0,1.96-.42,2.63-1.25Z"/>
      <path class="st2" d="M332.97,172.29l-.82-4.9c0-.17-.1-.25-.31-.25h-6.48c-.2,0-.31.08-.31.25l-.82,4.9c-.03.37-.25.56-.66.56h-5.97c-.44,0-.61-.22-.51-.66l7.5-34.47c.07-.37.29-.56.66-.56h6.88c.37,0,.59.19.66.56l7.45,34.47.05.2c0,.31-.19.46-.56.46h-6.12c-.41,0-.63-.19-.66-.56ZM326.29,161.58h4.59c.17,0,.24-.08.2-.25l-2.4-13.92c-.03-.1-.08-.15-.15-.15s-.12.05-.15.15l-2.29,13.92c0,.17.07.25.2.25Z"/>
      <path class="st2" d="M360.89,137.33c.12.12.18.26.18.43v4.95c0,.17-.06.31-.18.43-.12.12-.26.18-.43.18h-6.37c-.17,0-.25.09-.25.25v28.66c0,.17-.06.32-.18.43-.12.12-.26.18-.43.18h-5.97c-.17,0-.31-.06-.43-.18-.12-.12-.18-.26-.18-.43v-28.66c0-.17-.08-.25-.25-.25h-6.12c-.17,0-.31-.06-.43-.18-.12-.12-.18-.26-.18-.43v-4.95c0-.17.06-.31.18-.43.12-.12.26-.18.43-.18h20.19c.17,0,.31.06.43.18Z"/>
      <path class="st2" d="M377.97,137.33c.12-.12.26-.18.43-.18h5.97c.17,0,.31.06.43.18.12.12.18.26.18.43v34.47c0,.17-.06.32-.18.43s-.26.18-.43.18h-5.97c-.17,0-.31-.06-.43-.18-.12-.12-.18-.26-.18-.43v-13.92c0-.17-.09-.25-.25-.25h-5.1c-.17,0-.25.08-.25.25v13.92c0,.17-.06.32-.18.43-.12.12-.26.18-.43.18h-5.97c-.17,0-.31-.06-.43-.18-.12-.12-.18-.26-.18-.43v-34.47c0-.17.06-.31.18-.43.12-.12.26-.18.43-.18h5.97c.17,0,.31.06.43.18s.18.26.18.43v13.87c0,.17.08.25.25.25h5.1c.17,0,.25-.08.25-.25v-13.87c0-.17.06-.31.18-.43Z"/>
      <path class="st2" d="M396.33,172.62c-.12-.12-.18-.26-.18-.43v-13.26l-.05-.31-7.14-20.75c-.03-.07-.05-.15-.05-.25,0-.31.19-.46.56-.46h6.27c.37,0,.61.17.71.51l3.16,12.19c.03.1.08.15.15.15s.12-.05.15-.15l3.16-12.19c.1-.34.34-.51.71-.51h6.27c.2,0,.36.06.46.18.1.12.12.3.05.54l-7.19,20.75-.05.31v13.26c0,.17-.06.31-.18.43s-.26.18-.43.18h-5.97c-.17,0-.32-.06-.43-.18Z"/>
      <path class="st2" d="M425.4,172.67c-.12-.12-.18-.26-.18-.43v-34.47c0-.17.06-.31.18-.43s.26-.18.43-.18h5.97c.17,0,.31.06.43.18s.18.26.18.43v34.47c0,.17-.06.32-.18.43-.12.12-.26.18-.43.18h-5.97c-.17,0-.31-.06-.43-.18Z"/>
      <path class="st2" d="M452.17,137.33c.12-.12.26-.18.43-.18h5.92c.17,0,.31.06.43.18.12.12.18.26.18.43v34.47c0,.17-.06.32-.18.43s-.26.18-.43.18h-6.73c-.34,0-.56-.17-.66-.51l-6.32-19.74c-.03-.1-.09-.14-.18-.13-.08.02-.13.08-.13.18l.05,19.58c0,.17-.06.32-.18.43-.12.12-.26.18-.43.18h-5.92c-.17,0-.31-.06-.43-.18-.12-.12-.18-.26-.18-.43v-34.47c0-.17.06-.31.18-.43s.26-.18.43-.18h6.68c.34,0,.56.17.66.51l6.38,19.74c.03.1.09.14.18.13.08-.02.13-.08.13-.18l-.05-19.58c0-.17.06-.31.18-.43Z"/>
      <path class="st2" d="M468.05,172.09c-1.5-.78-2.65-1.88-3.47-3.29-.82-1.41-1.22-3.03-1.22-4.87v-1.48c0-.17.06-.31.18-.43s.26-.18.43-.18h5.86c.17,0,.31.06.43.18s.18.26.18.43v1.12c0,1.05.27,1.9.82,2.55.54.65,1.22.97,2.04.97s1.5-.31,2.04-.92c.54-.61.82-1.41.82-2.4s-.34-1.89-1.02-2.63c-.68-.73-2.01-1.81-3.98-3.24-1.7-1.22-3.08-2.31-4.13-3.26-1.05-.95-1.96-2.12-2.7-3.52-.75-1.39-1.12-3.01-1.12-4.84,0-2.89.9-5.2,2.7-6.94,1.8-1.73,4.18-2.6,7.14-2.6s5.4.9,7.22,2.7c1.82,1.8,2.73,4.17,2.73,7.09v1.22c0,.17-.06.32-.18.43s-.26.18-.43.18h-5.86c-.17,0-.32-.06-.43-.18-.12-.12-.18-.26-.18-.43v-1.38c0-1.05-.26-1.9-.79-2.52-.53-.63-1.22-.94-2.07-.94s-1.48.3-1.99.89c-.51.6-.76,1.42-.76,2.47s.32,1.92.97,2.7c.65.78,1.92,1.87,3.83,3.26,2.11,1.56,3.7,2.83,4.77,3.8s1.9,2.04,2.5,3.21c.59,1.17.89,2.58.89,4.21,0,2.99-.92,5.37-2.75,7.14-1.84,1.77-4.25,2.65-7.24,2.65-1.97,0-3.71-.39-5.2-1.17Z"/>
      <path class="st2" d="M507.09,137.33c.12.12.18.26.18.43v4.95c0,.17-.06.31-.18.43s-.26.18-.43.18h-6.37c-.17,0-.25.09-.25.25v28.66c0,.17-.06.32-.18.43-.12.12-.26.18-.43.18h-5.97c-.17,0-.32-.06-.43-.18-.12-.12-.18-.26-.18-.43v-28.66c0-.17-.08-.25-.25-.25h-6.12c-.17,0-.32-.06-.43-.18-.12-.12-.18-.26-.18-.43v-4.95c0-.17.06-.31.18-.43.12-.12.26-.18.43-.18h20.19c.17,0,.31.06.43.18Z"/>
      <path class="st2" d="M511.37,172.67c-.12-.12-.18-.26-.18-.43v-34.47c0-.17.06-.31.18-.43s.26-.18.43-.18h5.97c.17,0,.31.06.43.18s.18.26.18.43v34.47c0,.17-.06.32-.18.43-.12.12-.26.18-.43.18h-5.97c-.17,0-.31-.06-.43-.18Z"/>
      <path class="st2" d="M543.6,137.33c.12.12.18.26.18.43v4.95c0,.17-.06.31-.18.43s-.26.18-.43.18h-6.37c-.17,0-.25.09-.25.25v28.66c0,.17-.06.32-.18.43-.12.12-.26.18-.43.18h-5.97c-.17,0-.32-.06-.43-.18-.12-.12-.18-.26-.18-.43v-28.66c0-.17-.08-.25-.25-.25h-6.12c-.17,0-.32-.06-.43-.18-.12-.12-.18-.26-.18-.43v-4.95c0-.17.06-.31.18-.43.12-.12.26-.18.43-.18h20.19c.17,0,.31.06.43.18Z"/>
      <path class="st2" d="M550.33,170.38c-1.85-1.92-2.78-4.48-2.78-7.67v-24.94c0-.17.06-.31.18-.43s.26-.18.43-.18h5.97c.17,0,.31.06.43.18s.18.26.18.43v25.65c0,1.09.27,1.97.82,2.65.54.68,1.26,1.02,2.14,1.02s1.59-.34,2.12-1.02c.53-.68.79-1.56.79-2.65v-25.65c0-.17.06-.31.18-.43s.26-.18.43-.18h5.97c.17,0,.31.06.43.18s.18.26.18.43v24.94c0,3.2-.93,5.75-2.78,7.67-1.85,1.92-4.29,2.88-7.32,2.88s-5.52-.96-7.37-2.88Z"/>
      <path class="st2" d="M592.81,137.33c.12.12.18.26.18.43v4.95c0,.17-.06.31-.18.43-.12.12-.26.18-.43.18h-6.38c-.17,0-.25.09-.25.25v28.66c0,.17-.06.32-.18.43s-.26.18-.43.18h-5.97c-.17,0-.31-.06-.43-.18-.12-.12-.18-.26-.18-.43v-28.66c0-.17-.08-.25-.25-.25h-6.12c-.17,0-.31-.06-.43-.18s-.18-.26-.18-.43v-4.95c0-.17.06-.31.18-.43s.26-.18.43-.18h20.19c.17,0,.31.06.43.18Z"/>
      <path class="st2" d="M615.45,143.15c-.12.12-.26.18-.43.18h-10.66c-.17,0-.25.09-.25.25v8.06c0,.17.08.25.25.25h6.12c.17,0,.31.06.43.18s.18.26.18.43v4.95c0,.17-.06.31-.18.43s-.26.18-.43.18h-6.12c-.17,0-.25.08-.25.25v8.11c0,.17.08.26.25.26h10.66c.17,0,.31.06.43.18.12.12.18.26.18.43v4.95c0,.17-.06.32-.18.43s-.26.18-.43.18h-17.49c-.17,0-.31-.06-.43-.18-.12-.12-.18-.26-.18-.43v-34.47c0-.17.06-.31.18-.43s.26-.18.43-.18h17.49c.17,0,.31.06.43.18.12.12.18.26.18.43v4.95c0,.17-.06.31-.18.43Z"/>
    </g>
    <g>
      <path class="st2" d="M164,137.33c.12-.12.26-.18.43-.18h5.92c.17,0,.31.06.43.18.12.12.18.26.18.43v34.47c0,.17-.06.32-.18.43-.12.12-.26.18-.43.18h-6.73c-.34,0-.56-.17-.66-.51l-6.32-19.74c-.03-.1-.09-.14-.18-.13-.08.02-.13.08-.13.18l.05,19.58c0,.17-.06.32-.18.43-.12.12-.26.18-.43.18h-5.92c-.17,0-.31-.06-.43-.18-.12-.12-.18-.26-.18-.43v-34.47c0-.17.06-.31.18-.43.12-.12.26-.18.43-.18h6.68c.34,0,.56.17.66.51l6.37,19.74c.03.1.09.14.18.13.08-.02.13-.08.13-.18l-.05-19.58c0-.17.06-.31.18-.43Z"/>
      <path class="st2" d="M190.24,172.29l-.82-4.9c0-.17-.1-.25-.31-.25h-6.48c-.2,0-.31.08-.31.25l-.82,4.9c-.03.37-.25.56-.66.56h-5.97c-.44,0-.61-.22-.51-.66l7.5-34.47c.07-.37.29-.56.66-.56h6.88c.37,0,.59.19.66.56l7.45,34.47.05.2c0,.31-.19.46-.56.46h-6.12c-.41,0-.63-.19-.66-.56ZM183.56,161.58h4.59c.17,0,.24-.08.2-.25l-2.4-13.92c-.03-.1-.08-.15-.15-.15s-.12.05-.15.15l-2.29,13.92c0,.17.07.25.2.25Z"/>
      <path class="st2" d="M218.16,137.33c.12.12.18.26.18.43v4.95c0,.17-.06.31-.18.43-.12.12-.26.18-.43.18h-6.37c-.17,0-.25.09-.25.25v28.66c0,.17-.06.32-.18.43-.12.12-.26.18-.43.18h-5.97c-.17,0-.31-.06-.43-.18-.12-.12-.18-.26-.18-.43v-28.66c0-.17-.08-.25-.25-.25h-6.12c-.17,0-.31-.06-.43-.18-.12-.12-.18-.26-.18-.43v-4.95c0-.17.06-.31.18-.43.12-.12.26-.18.43-.18h20.19c.17,0,.31.06.43.18Z"/>
      <path class="st2" d="M224.89,170.38c-1.85-1.92-2.78-4.48-2.78-7.67v-24.94c0-.17.06-.31.18-.43s.26-.18.43-.18h5.97c.17,0,.31.06.43.18.12.12.18.26.18.43v25.65c0,1.09.27,1.97.82,2.65.54.68,1.26,1.02,2.14,1.02s1.59-.34,2.12-1.02c.53-.68.79-1.56.79-2.65v-25.65c0-.17.06-.31.18-.43s.26-.18.43-.18h5.97c.17,0,.31.06.43.18.12.12.18.26.18.43v24.94c0,3.2-.93,5.75-2.78,7.67-1.85,1.92-4.29,2.88-7.32,2.88s-5.52-.96-7.37-2.88Z"/>
      <path class="st2" d="M260.51,172.34l-3.93-14.08c-.07-.13-.15-.2-.25-.2h-1.73c-.17,0-.25.08-.25.25v13.92c0,.17-.06.32-.18.43-.12.12-.26.18-.43.18h-5.97c-.17,0-.31-.06-.43-.18-.12-.12-.18-.26-.18-.43v-34.47c0-.17.06-.31.18-.43.12-.12.26-.18.43-.18h10.3c1.87,0,3.54.45,5,1.35,1.46.9,2.59,2.17,3.39,3.8.8,1.63,1.2,3.5,1.2,5.61s-.38,3.77-1.15,5.3-1.83,2.72-3.19,3.57c-.07.03-.12.08-.15.13-.03.05-.03.11,0,.18l4.69,15.04.05.2c0,.34-.19.51-.56.51h-6.12c-.37,0-.61-.17-.71-.51ZM254.34,143.58v8.72c0,.17.08.25.25.25h2.29c1.05,0,1.91-.42,2.58-1.25s.99-1.95.99-3.34-.33-2.56-.99-3.39-1.52-1.25-2.58-1.25h-2.29c-.17,0-.25.09-.25.25Z"/>
      <path class="st2" d="M273.92,170.5c-1.87-1.84-2.8-4.28-2.8-7.34v-16.32c0-3.06.93-5.51,2.8-7.34,1.87-1.84,4.37-2.75,7.5-2.75s5.64.92,7.52,2.75,2.83,4.28,2.83,7.34v16.32c0,3.06-.94,5.51-2.83,7.34s-4.39,2.75-7.52,2.75-5.63-.92-7.5-2.75ZM283.71,166.09c.58-.66.87-1.54.87-2.63v-16.93c0-1.09-.29-1.96-.87-2.63-.58-.66-1.34-.99-2.29-.99s-1.71.33-2.27.99-.84,1.54-.84,2.63v16.93c0,1.09.28,1.96.84,2.63s1.32.99,2.27.99,1.72-.33,2.29-.99Z"/>
      <path class="st2" d="M312.06,138.48c1.46.92,2.59,2.2,3.39,3.85.8,1.65,1.2,3.53,1.2,5.63,0,3.16-.85,5.7-2.55,7.6-1.7,1.9-3.93,2.86-6.68,2.86h-3.82c-.17,0-.26.08-.26.25v13.56c0,.17-.06.32-.18.43-.12.12-.26.18-.43.18h-5.97c-.17,0-.31-.06-.43-.18-.12-.12-.18-.26-.18-.43v-34.52c0-.17.06-.31.18-.43.12-.12.26-.18.43-.18h10.3c1.87,0,3.54.46,5,1.38ZM308.47,151.56c.66-.83.99-1.98.99-3.44s-.33-2.67-.99-3.52c-.66-.85-1.54-1.28-2.63-1.28h-2.24c-.17,0-.26.09-.26.25v8.98c0,.17.08.25.26.25h2.24c1.09,0,1.96-.42,2.63-1.25Z"/>
      <path class="st2" d="M332.97,172.29l-.82-4.9c0-.17-.1-.25-.31-.25h-6.48c-.2,0-.31.08-.31.25l-.82,4.9c-.03.37-.25.56-.66.56h-5.97c-.44,0-.61-.22-.51-.66l7.5-34.47c.07-.37.29-.56.66-.56h6.88c.37,0,.59.19.66.56l7.45,34.47.05.2c0,.31-.19.46-.56.46h-6.12c-.41,0-.63-.19-.66-.56ZM326.29,161.58h4.59c.17,0,.24-.08.2-.25l-2.4-13.92c-.03-.1-.08-.15-.15-.15s-.12.05-.15.15l-2.29,13.92c0,.17.07.25.2.25Z"/>
      <path class="st2" d="M360.89,137.33c.12.12.18.26.18.43v4.95c0,.17-.06.31-.18.43-.12.12-.26.18-.43.18h-6.37c-.17,0-.25.09-.25.25v28.66c0,.17-.06.32-.18.43-.12.12-.26.18-.43.18h-5.97c-.17,0-.31-.06-.43-.18-.12-.12-.18-.26-.18-.43v-28.66c0-.17-.08-.25-.25-.25h-6.12c-.17,0-.31-.06-.43-.18-.12-.12-.18-.26-.18-.43v-4.95c0-.17.06-.31.18-.43.12-.12.26-.18.43-.18h20.19c.17,0,.31.06.43.18Z"/>
      <path class="st2" d="M377.97,137.33c.12-.12.26-.18.43-.18h5.97c.17,0,.31.06.43.18.12.12.18.26.18.43v34.47c0,.17-.06.32-.18.43s-.26.18-.43.18h-5.97c-.17,0-.31-.06-.43-.18-.12-.12-.18-.26-.18-.43v-13.92c0-.17-.09-.25-.25-.25h-5.1c-.17,0-.25.08-.25.25v13.92c0,.17-.06.32-.18.43-.12.12-.26.18-.43.18h-5.97c-.17,0-.31-.06-.43-.18-.12-.12-.18-.26-.18-.43v-34.47c0-.17.06-.31.18-.43.12-.12.26-.18.43-.18h5.97c.17,0,.31.06.43.18s.18.26.18.43v13.87c0,.17.08.25.25.25h5.1c.17,0,.25-.08.25-.25v-13.87c0-.17.06-.31.18-.43Z"/>
      <path class="st2" d="M396.33,172.62c-.12-.12-.18-.26-.18-.43v-13.26l-.05-.31-7.14-20.75c-.03-.07-.05-.15-.05-.25,0-.31.19-.46.56-.46h6.27c.37,0,.61.17.71.51l3.16,12.19c.03.1.08.15.15.15s.12-.05.15-.15l3.16-12.19c.1-.34.34-.51.71-.51h6.27c.2,0,.36.06.46.18.1.12.12.3.05.54l-7.19,20.75-.05.31v13.26c0,.17-.06.31-.18.43s-.26.18-.43.18h-5.97c-.17,0-.32-.06-.43-.18Z"/>
      <path class="st2" d="M425.4,172.67c-.12-.12-.18-.26-.18-.43v-34.47c0-.17.06-.31.18-.43s.26-.18.43-.18h5.97c.17,0,.31.06.43.18s.18.26.18.43v34.47c0,.17-.06.32-.18.43-.12.12-.26.18-.43.18h-5.97c-.17,0-.31-.06-.43-.18Z"/>
      <path class="st2" d="M452.17,137.33c.12-.12.26-.18.43-.18h5.92c.17,0,.31.06.43.18.12.12.18.26.18.43v34.47c0,.17-.06.32-.18.43s-.26.18-.43.18h-6.73c-.34,0-.56-.17-.66-.51l-6.32-19.74c-.03-.1-.09-.14-.18-.13-.08.02-.13.08-.13.18l.05,19.58c0,.17-.06.32-.18.43-.12.12-.26.18-.43.18h-5.92c-.17,0-.31-.06-.43-.18-.12-.12-.18-.26-.18-.43v-34.47c0-.17.06-.31.18-.43s.26-.18.43-.18h6.68c.34,0,.56.17.66.51l6.38,19.74c.03.1.09.14.18.13.08-.02.13-.08.13-.18l-.05-19.58c0-.17.06-.31.18-.43Z"/>
      <path class="st2" d="M468.05,172.09c-1.5-.78-2.65-1.88-3.47-3.29-.82-1.41-1.22-3.03-1.22-4.87v-1.48c0-.17.06-.31.18-.43s.26-.18.43-.18h5.86c.17,0,.31.06.43.18s.18.26.18.43v1.12c0,1.05.27,1.9.82,2.55.54.65,1.22.97,2.04.97s1.5-.31,2.04-.92c.54-.61.82-1.41.82-2.4s-.34-1.89-1.02-2.63c-.68-.73-2.01-1.81-3.98-3.24-1.7-1.22-3.08-2.31-4.13-3.26-1.05-.95-1.96-2.12-2.7-3.52-.75-1.39-1.12-3.01-1.12-4.84,0-2.89.9-5.2,2.7-6.94,1.8-1.73,4.18-2.6,7.14-2.6s5.4.9,7.22,2.7c1.82,1.8,2.73,4.17,2.73,7.09v1.22c0,.17-.06.32-.18.43s-.26.18-.43.18h-5.86c-.17,0-.32-.06-.43-.18-.12-.12-.18-.26-.18-.43v-1.38c0-1.05-.26-1.9-.79-2.52-.53-.63-1.22-.94-2.07-.94s-1.48.3-1.99.89c-.51.6-.76,1.42-.76,2.47s.32,1.92.97,2.7c.65.78,1.92,1.87,3.83,3.26,2.11,1.56,3.7,2.83,4.77,3.8s1.9,2.04,2.5,3.21c.59,1.17.89,2.58.89,4.21,0,2.99-.92,5.37-2.75,7.14-1.84,1.77-4.25,2.65-7.24,2.65-1.97,0-3.71-.39-5.2-1.17Z"/>
      <path class="st2" d="M507.09,137.33c.12.12.18.26.18.43v4.95c0,.17-.06.31-.18.43s-.26.18-.43.18h-6.37c-.17,0-.25.09-.25.25v28.66c0,.17-.06.32-.18.43-.12.12-.26.18-.43.18h-5.97c-.17,0-.32-.06-.43-.18-.12-.12-.18-.26-.18-.43v-28.66c0-.17-.08-.25-.25-.25h-6.12c-.17,0-.32-.06-.43-.18-.12-.12-.18-.26-.18-.43v-4.95c0-.17.06-.31.18-.43.12-.12.26-.18.43-.18h20.19c.17,0,.31.06.43.18Z"/>
      <path class="st2" d="M511.37,172.67c-.12-.12-.18-.26-.18-.43v-34.47c0-.17.06-.31.18-.43s.26-.18.43-.18h5.97c.17,0,.31.06.43.18s.18.26.18.43v34.47c0,.17-.06.32-.18.43-.12.12-.26.18-.43.18h-5.97c-.17,0-.31-.06-.43-.18Z"/>
      <path class="st2" d="M543.6,137.33c.12.12.18.26.18.43v4.95c0,.17-.06.31-.18.43s-.26.18-.43.18h-6.37c-.17,0-.25.09-.25.25v28.66c0,.17-.06.32-.18.43-.12.12-.26.18-.43.18h-5.97c-.17,0-.32-.06-.43-.18-.12-.12-.18-.26-.18-.43v-28.66c0-.17-.08-.25-.25-.25h-6.12c-.17,0-.32-.06-.43-.18-.12-.12-.18-.26-.18-.43v-4.95c0-.17.06-.31.18-.43.12-.12.26-.18.43-.18h20.19c.17,0,.31.06.43.18Z"/>
      <path class="st2" d="M550.33,170.38c-1.85-1.92-2.78-4.48-2.78-7.67v-24.94c0-.17.06-.31.18-.43s.26-.18.43-.18h5.97c.17,0,.31.06.43.18s.18.26.18.43v25.65c0,1.09.27,1.97.82,2.65.54.68,1.26,1.02,2.14,1.02s1.59-.34,2.12-1.02c.53-.68.79-1.56.79-2.65v-25.65c0-.17.06-.31.18-.43s.26-.18.43-.18h5.97c.17,0,.31.06.43.18s.18.26.18.43v24.94c0,3.2-.93,5.75-2.78,7.67-1.85,1.92-4.29,2.88-7.32,2.88s-5.52-.96-7.37-2.88Z"/>
      <path class="st2" d="M592.81,137.33c.12.12.18.26.18.43v4.95c0,.17-.06.31-.18.43-.12.12-.26.18-.43.18h-6.38c-.17,0-.25.09-.25.25v28.66c0,.17-.06.32-.18.43s-.26.18-.43.18h-5.97c-.17,0-.31-.06-.43-.18-.12-.12-.18-.26-.18-.43v-28.66c0-.17-.08-.25-.25-.25h-6.12c-.17,0-.31-.06-.43-.18s-.18-.26-.18-.43v-4.95c0-.17.06-.31.18-.43s.26-.18.43-.18h20.19c.17,0,.31.06.43.18Z"/>
      <path class="st2" d="M615.45,143.15c-.12.12-.26.18-.43.18h-10.66c-.17,0-.25.09-.25.25v8.06c0,.17.08.25.25.25h6.12c.17,0,.31.06.43.18s.18.26.18.43v4.95c0,.17-.06.31-.18.43s-.26.18-.43.18h-6.12c-.17,0-.25.08-.25.25v8.11c0,.17.08.26.25.26h10.66c.17,0,.31.06.43.18.12.12.18.26.18.43v4.95c0,.17-.06.32-.18.43s-.26.18-.43.18h-17.49c-.17,0-.31-.06-.43-.18-.12-.12-.18-.26-.18-.43v-34.47c0-.17.06-.31.18-.43s.26-.18.43-.18h17.49c.17,0,.31.06.43.18.12.12.18.26.18.43v4.95c0,.17-.06.31-.18.43Z"/>
    </g>
  </g>
</svg>