<?xml version="1.0" encoding="UTF-8"?>
<svg id="Layer_1" xmlns="http://www.w3.org/2000/svg" version="1.1" viewBox="0 0 764 189.24">
  <!-- Generator: Adobe Illustrator 29.6.1, SVG Export Plug-In . SVG Version: 2.1.1 Build 9)  -->
  <defs>
    <style>
      .st0 {
        fill: none;
        stroke: #fff;
        stroke-miterlimit: 10;
      }

      .st1 {
        fill: #fff;
      }

      .st2 {
        fill: #00e1ff;
      }
    </style>
  </defs>
  <g>
    <g>
      <path class="st2" d="M124.39,135.22c1.17.74,2.08,1.76,2.72,3.08.64,1.32.96,2.83.96,4.51,0,2.53-.68,4.56-2.04,6.09-1.36,1.53-3.15,2.29-5.35,2.29h-3.06c-.14,0-.2.07-.2.21v10.87c0,.14-.05.25-.14.35-.1.1-.21.14-.35.14h-4.78c-.14,0-.25-.05-.35-.14-.1-.1-.14-.21-.14-.35v-27.66c0-.14.05-.25.14-.35.1-.09.21-.14.35-.14h8.25c1.5,0,2.83.37,4,1.1ZM121.51,145.7c.53-.67.8-1.59.8-2.76s-.27-2.14-.8-2.82-1.23-1.02-2.1-1.02h-1.8c-.14,0-.2.07-.2.2v7.19c0,.14.07.2.2.2h1.8c.87,0,1.57-.33,2.1-1Z"/>
      <path class="st2" d="M145.9,138.96c-.1.1-.21.14-.35.14h-8.54c-.14,0-.2.07-.2.2v6.46c0,.14.07.2.2.2h4.9c.14,0,.25.05.35.14.1.1.14.21.14.35v3.96c0,.14-.05.25-.14.35-.1.1-.21.14-.35.14h-4.9c-.14,0-.2.07-.2.21v6.5c0,.14.07.2.2.2h8.54c.14,0,.25.05.35.14.09.1.14.21.14.35v3.96c0,.14-.05.25-.14.35-.1.1-.21.14-.35.14h-14.01c-.14,0-.25-.05-.35-.14-.1-.1-.14-.21-.14-.35v-27.62c0-.14.05-.25.14-.35.1-.09.21-.14.35-.14h14.01c.14,0,.25.05.35.14.09.1.14.21.14.35v3.96c0,.14-.05.25-.14.35Z"/>
      <path class="st2" d="M151.15,160.88c-1.5-1.47-2.25-3.43-2.25-5.88v-13.07c0-2.45.75-4.41,2.25-5.88,1.5-1.47,3.5-2.21,6.01-2.21s4.51.74,6.03,2.21c1.51,1.47,2.27,3.43,2.27,5.88v13.07c0,2.45-.76,4.41-2.27,5.88-1.51,1.47-3.52,2.21-6.03,2.21s-4.51-.74-6.01-2.21ZM158.99,157.35c.46-.53.69-1.23.69-2.1v-13.56c0-.87-.23-1.57-.69-2.1-.46-.53-1.08-.8-1.84-.8s-1.37.27-1.82.8c-.45.53-.67,1.23-.67,2.1v13.56c0,.87.22,1.57.67,2.1.45.53,1.06.8,1.82.8s1.38-.26,1.84-.8Z"/>
      <path class="st2" d="M181.71,135.22c1.17.74,2.08,1.76,2.72,3.08.64,1.32.96,2.83.96,4.51,0,2.53-.68,4.56-2.04,6.09-1.36,1.53-3.15,2.29-5.35,2.29h-3.06c-.14,0-.2.07-.2.21v10.87c0,.14-.05.25-.14.35-.1.1-.21.14-.35.14h-4.78c-.14,0-.25-.05-.35-.14-.1-.1-.14-.21-.14-.35v-27.66c0-.14.05-.25.14-.35.1-.09.21-.14.35-.14h8.25c1.5,0,2.83.37,4,1.1ZM178.83,145.7c.53-.67.8-1.59.8-2.76s-.27-2.14-.8-2.82-1.23-1.02-2.1-1.02h-1.8c-.14,0-.2.07-.2.2v7.19c0,.14.07.2.2.2h1.8c.87,0,1.57-.33,2.1-1Z"/>
      <path class="st2" d="M188.51,162.62c-.1-.1-.14-.21-.14-.35v-27.62c0-.14.05-.25.14-.35.1-.09.21-.14.35-.14h4.78c.14,0,.25.05.35.14.09.1.14.21.14.35v22.96c0,.14.07.2.2.2h8.58c.14,0,.25.05.35.14.1.1.14.21.14.35v3.96c0,.14-.05.25-.14.35-.1.1-.21.14-.35.14h-14.05c-.14,0-.25-.05-.35-.14Z"/>
      <path class="st2" d="M220.99,138.96c-.1.1-.21.14-.35.14h-8.54c-.14,0-.2.07-.2.2v6.46c0,.14.07.2.2.2h4.9c.14,0,.25.05.35.14.1.1.14.21.14.35v3.96c0,.14-.05.25-.14.35-.1.1-.21.14-.35.14h-4.9c-.14,0-.2.07-.2.21v6.5c0,.14.07.2.2.2h8.54c.14,0,.25.05.35.14.09.1.14.21.14.35v3.96c0,.14-.05.25-.14.35-.1.1-.21.14-.35.14h-14.01c-.14,0-.25-.05-.35-.14-.1-.1-.14-.21-.14-.35v-27.62c0-.14.05-.25.14-.35.1-.09.21-.14.35-.14h14.01c.14,0,.25.05.35.14.09.1.14.21.14.35v3.96c0,.14-.05.25-.14.35Z"/>
      <path class="st2" d="M223.93,166.62c-.1-.1-.13-.23-.1-.39l.9-9.48c.05-.3.22-.45.49-.45h4.17c.38,0,.53.18.45.53l-2.17,9.48c-.08.3-.26.45-.53.45h-2.82c-.16,0-.29-.05-.39-.14Z"/>
      <path class="st2" d="M243.75,160.9c-1.48-1.46-2.23-3.41-2.23-5.86v-13.24c0-2.42.74-4.36,2.23-5.8,1.48-1.44,3.45-2.17,5.9-2.17s4.46.72,5.94,2.17c1.48,1.44,2.23,3.38,2.23,5.8v.45c0,.14-.05.25-.14.35-.1.1-.21.14-.35.14l-4.78.2c-.33,0-.49-.15-.49-.45v-1.06c0-.79-.22-1.43-.65-1.92-.44-.49-1.02-.74-1.76-.74s-1.28.25-1.72.74-.65,1.13-.65,1.92v14.1c0,.79.22,1.42.65,1.9.44.48,1.01.71,1.72.71s1.32-.24,1.76-.71c.44-.48.65-1.11.65-1.9v-1.1c0-.14.05-.25.14-.35.1-.1.21-.14.35-.14l4.78.21c.14,0,.25.05.35.14.1.1.14.21.14.35v.41c0,2.45-.75,4.41-2.25,5.86-1.5,1.46-3.47,2.19-5.92,2.19s-4.42-.73-5.9-2.19Z"/>
      <path class="st2" d="M263.09,160.88c-1.5-1.47-2.25-3.43-2.25-5.88v-13.07c0-2.45.75-4.41,2.25-5.88,1.5-1.47,3.5-2.21,6.01-2.21s4.51.74,6.03,2.21c1.51,1.47,2.27,3.43,2.27,5.88v13.07c0,2.45-.76,4.41-2.27,5.88-1.51,1.47-3.52,2.21-6.03,2.21s-4.51-.74-6.01-2.21ZM270.94,157.35c.46-.53.69-1.23.69-2.1v-13.56c0-.87-.23-1.57-.69-2.1-.46-.53-1.08-.8-1.84-.8s-1.37.27-1.82.8c-.45.53-.67,1.23-.67,2.1v13.56c0,.87.22,1.57.67,2.1.45.53,1.06.8,1.82.8s1.38-.26,1.84-.8Z"/>
      <path class="st2" d="M294.63,134.16h4.74c.14,0,.25.05.35.14.1.1.14.21.14.35v27.62c0,.14-.05.25-.14.35-.1.1-.21.14-.35.14h-4.78c-.14,0-.25-.05-.35-.14-.1-.1-.14-.21-.14-.35v-18.34c0-.11-.03-.16-.08-.16s-.11.04-.16.12l-3.19,5.64c-.14.22-.25.33-.33.33s-.19-.11-.33-.33l-3.19-5.64c-.05-.08-.11-.12-.16-.12s-.08.05-.08.16v18.34c0,.14-.05.25-.14.35-.1.1-.21.14-.35.14h-4.78c-.14,0-.25-.05-.35-.14-.1-.1-.14-.21-.14-.35v-27.62c0-.14.05-.25.14-.35.1-.09.21-.14.35-.14h4.7c.27,0,.48.11.61.33l3.64,6.5c.08.11.16.11.25,0l3.51-6.5c.11-.22.31-.33.61-.33Z"/>
      <path class="st2" d="M317.39,134.16h4.74c.14,0,.25.05.35.14.1.1.14.21.14.35v27.62c0,.14-.05.25-.14.35-.1.1-.21.14-.35.14h-4.78c-.14,0-.25-.05-.35-.14-.1-.1-.14-.21-.14-.35v-18.34c0-.11-.03-.16-.08-.16s-.11.04-.16.12l-3.19,5.64c-.14.22-.25.33-.33.33s-.19-.11-.33-.33l-3.19-5.64c-.05-.08-.11-.12-.16-.12s-.08.05-.08.16v18.34c0,.14-.05.25-.14.35-.1.1-.21.14-.35.14h-4.78c-.14,0-.25-.05-.35-.14-.1-.1-.14-.21-.14-.35v-27.62c0-.14.05-.25.14-.35.1-.09.21-.14.35-.14h4.7c.27,0,.48.11.61.33l3.64,6.5c.08.11.16.11.25,0l3.51-6.5c.11-.22.31-.33.61-.33Z"/>
      <path class="st2" d="M328.56,160.78c-1.48-1.54-2.23-3.59-2.23-6.15v-19.98c0-.14.05-.25.14-.35.1-.09.21-.14.35-.14h4.78c.14,0,.25.05.35.14.09.1.14.21.14.35v20.55c0,.87.22,1.58.65,2.12.44.54,1.01.82,1.72.82s1.27-.27,1.7-.82c.42-.54.63-1.25.63-2.12v-20.55c0-.14.05-.25.14-.35s.21-.14.35-.14h4.78c.14,0,.25.05.35.14.1.1.14.21.14.35v19.98c0,2.56-.74,4.61-2.23,6.15-1.48,1.54-3.44,2.31-5.86,2.31s-4.42-.77-5.9-2.31Z"/>
      <path class="st2" d="M357.98,134.31c.1-.09.21-.14.35-.14h4.74c.14,0,.25.05.35.14.1.1.14.21.14.35v27.62c0,.14-.05.25-.14.35-.1.1-.21.14-.35.14h-5.39c-.27,0-.45-.14-.53-.41l-5.07-15.81c-.03-.08-.08-.12-.14-.1-.07.01-.1.06-.1.14l.04,15.69c0,.14-.05.25-.14.35-.1.1-.21.14-.35.14h-4.74c-.14,0-.25-.05-.35-.14-.1-.1-.14-.21-.14-.35v-27.62c0-.14.05-.25.14-.35.1-.09.21-.14.35-.14h5.35c.27,0,.45.14.53.41l5.11,15.81c.03.08.07.12.14.1.07-.01.1-.06.1-.14l-.04-15.69c0-.14.05-.25.14-.35Z"/>
      <path class="st2" d="M367.66,162.62c-.1-.1-.14-.21-.14-.35v-27.62c0-.14.05-.25.14-.35.1-.09.21-.14.35-.14h4.78c.14,0,.25.05.35.14.09.1.14.21.14.35v27.62c0,.14-.05.25-.14.35-.1.1-.21.14-.35.14h-4.78c-.14,0-.25-.05-.35-.14Z"/>
      <path class="st2" d="M393.48,134.31c.09.1.14.21.14.35v3.96c0,.14-.05.25-.14.35s-.21.14-.35.14h-5.11c-.14,0-.2.07-.2.2v22.96c0,.14-.05.25-.14.35-.1.1-.21.14-.35.14h-4.78c-.14,0-.25-.05-.35-.14-.1-.1-.14-.21-.14-.35v-22.96c0-.14-.07-.2-.2-.2h-4.9c-.14,0-.25-.05-.35-.14-.1-.09-.14-.21-.14-.35v-3.96c0-.14.05-.25.14-.35.1-.09.21-.14.35-.14h16.18c.14,0,.25.05.35.14Z"/>
      <path class="st2" d="M396.91,162.62c-.1-.1-.14-.21-.14-.35v-27.62c0-.14.05-.25.14-.35.1-.09.21-.14.35-.14h4.78c.14,0,.25.05.35.14.09.1.14.21.14.35v27.62c0,.14-.05.25-.14.35-.1.1-.21.14-.35.14h-4.78c-.14,0-.25-.05-.35-.14Z"/>
      <path class="st2" d="M421.38,138.96c-.1.1-.21.14-.35.14h-8.54c-.14,0-.2.07-.2.2v6.46c0,.14.07.2.2.2h4.9c.14,0,.25.05.35.14s.14.21.14.35v3.96c0,.14-.05.25-.14.35-.1.1-.21.14-.35.14h-4.9c-.14,0-.2.07-.2.21v6.5c0,.14.07.2.2.2h8.54c.14,0,.25.05.35.14.09.1.14.21.14.35v3.96c0,.14-.05.25-.14.35-.1.1-.21.14-.35.14h-14.01c-.14,0-.25-.05-.35-.14s-.14-.21-.14-.35v-27.62c0-.14.05-.25.14-.35.1-.09.21-.14.35-.14h14.01c.14,0,.25.05.35.14.09.1.14.21.14.35v3.96c0,.14-.05.25-.14.35Z"/>
      <path class="st2" d="M427.98,162.15c-1.2-.63-2.12-1.5-2.78-2.63-.65-1.13-.98-2.43-.98-3.9v-1.19c0-.14.05-.25.14-.35.09-.1.21-.14.35-.14h4.7c.14,0,.25.05.35.14s.14.21.14.35v.9c0,.84.22,1.53.65,2.04.44.52.98.78,1.63.78s1.2-.25,1.63-.74c.44-.49.65-1.13.65-1.92s-.27-1.52-.82-2.1c-.55-.59-1.61-1.45-3.19-2.59-1.36-.98-2.46-1.85-3.31-2.62-.84-.76-1.57-1.7-2.17-2.82-.6-1.12-.9-2.41-.9-3.88,0-2.31.72-4.17,2.17-5.56,1.44-1.39,3.35-2.08,5.72-2.08s4.32.72,5.78,2.17c1.46,1.44,2.19,3.34,2.19,5.68v.98c0,.14-.05.25-.14.35s-.21.14-.35.14h-4.7c-.14,0-.25-.05-.35-.14-.1-.09-.14-.21-.14-.35v-1.1c0-.84-.21-1.52-.63-2.02-.42-.5-.97-.76-1.66-.76s-1.18.24-1.59.71c-.41.48-.61,1.14-.61,1.98s.26,1.54.78,2.17c.52.63,1.54,1.5,3.06,2.61,1.69,1.25,2.96,2.27,3.82,3.04.86.78,1.53,1.63,2,2.57.48.94.71,2.06.71,3.37,0,2.4-.74,4.3-2.21,5.72-1.47,1.42-3.4,2.12-5.8,2.12-1.58,0-2.97-.31-4.17-.94Z"/>
      <path class="st2" d="M442.71,166.62c-.1-.1-.13-.23-.1-.39l.9-9.48c.05-.3.22-.45.49-.45h4.17c.38,0,.53.18.45.53l-2.17,9.48c-.08.3-.26.45-.53.45h-2.82c-.16,0-.29-.05-.39-.14Z"/>
      <path class="st2" d="M472.19,162.31l-.65-3.92c0-.14-.08-.21-.25-.21h-5.19c-.16,0-.25.07-.25.21l-.65,3.92c-.03.3-.2.45-.53.45h-4.78c-.35,0-.49-.18-.41-.53l6.01-27.62c.05-.3.23-.45.53-.45h5.51c.3,0,.48.15.53.45l5.96,27.62.04.16c0,.25-.15.37-.45.37h-4.9c-.33,0-.5-.15-.53-.45ZM466.83,153.73h3.68c.14,0,.19-.07.16-.2l-1.92-11.15c-.03-.08-.07-.12-.12-.12s-.1.04-.12.12l-1.84,11.15c0,.14.05.2.16.2Z"/>
      <path class="st2" d="M492.59,134.31c.1-.09.21-.14.35-.14h4.74c.14,0,.25.05.35.14.09.1.14.21.14.35v27.62c0,.14-.05.25-.14.35-.1.1-.21.14-.35.14h-5.39c-.27,0-.45-.14-.53-.41l-5.07-15.81c-.03-.08-.08-.12-.14-.1-.07.01-.1.06-.1.14l.04,15.69c0,.14-.05.25-.14.35s-.21.14-.35.14h-4.74c-.14,0-.25-.05-.35-.14s-.14-.21-.14-.35v-27.62c0-.14.05-.25.14-.35.1-.09.21-.14.35-.14h5.35c.27,0,.45.14.53.41l5.11,15.81c.03.08.07.12.14.1.07-.01.1-.06.1-.14l-.04-15.69c0-.14.05-.25.14-.35Z"/>
      <path class="st2" d="M502.28,162.62c-.1-.1-.14-.21-.14-.35v-27.62c0-.14.05-.25.14-.35.1-.09.21-.14.35-.14h7.39c2.48,0,4.47.72,5.96,2.17,1.5,1.44,2.25,3.36,2.25,5.76v12.75c0,2.4-.75,4.32-2.25,5.76s-3.49,2.17-5.96,2.17h-7.39c-.14,0-.25-.05-.35-.14ZM508.1,157.82l1.84-.04c.74-.03,1.33-.34,1.8-.94.46-.6.71-1.39.74-2.37v-12.01c0-1.03-.23-1.85-.69-2.45-.46-.6-1.09-.9-1.88-.9h-1.8c-.14,0-.2.07-.2.2v18.3c0,.14.07.2.2.2Z"/>
      <path class="st2" d="M542.31,134.31c.1-.09.21-.14.35-.14h4.74c.14,0,.25.05.35.14.09.1.14.21.14.35v27.62c0,.14-.05.25-.14.35-.1.1-.21.14-.35.14h-5.39c-.27,0-.45-.14-.53-.41l-5.07-15.81c-.03-.08-.08-.12-.14-.1-.07.01-.1.06-.1.14l.04,15.69c0,.14-.05.25-.14.35s-.21.14-.35.14h-4.74c-.14,0-.25-.05-.35-.14s-.14-.21-.14-.35v-27.62c0-.14.05-.25.14-.35.1-.09.21-.14.35-.14h5.35c.27,0,.45.14.53.41l5.11,15.81c.03.08.07.12.14.1.07-.01.1-.06.1-.14l-.04-15.69c0-.14.05-.25.14-.35Z"/>
      <path class="st2" d="M563.33,162.31l-.65-3.92c0-.14-.08-.21-.25-.21h-5.19c-.16,0-.25.07-.25.21l-.65,3.92c-.03.3-.2.45-.53.45h-4.78c-.35,0-.49-.18-.41-.53l6.01-27.62c.05-.3.23-.45.53-.45h5.51c.3,0,.48.15.53.45l5.96,27.62.04.16c0,.25-.15.37-.45.37h-4.9c-.33,0-.5-.15-.53-.45ZM557.98,153.73h3.68c.14,0,.19-.07.16-.2l-1.92-11.15c-.03-.08-.07-.12-.12-.12s-.1.04-.12.12l-1.84,11.15c0,.14.05.2.16.2Z"/>
      <path class="st2" d="M585.7,134.31c.09.1.14.21.14.35v3.96c0,.14-.05.25-.14.35s-.21.14-.35.14h-5.11c-.14,0-.2.07-.2.2v22.96c0,.14-.05.25-.14.35s-.21.14-.35.14h-4.78c-.14,0-.25-.05-.35-.14-.1-.1-.14-.21-.14-.35v-22.96c0-.14-.07-.2-.21-.2h-4.9c-.14,0-.25-.05-.35-.14-.1-.09-.14-.21-.14-.35v-3.96c0-.14.05-.25.14-.35.1-.09.21-.14.35-.14h16.18c.14,0,.25.05.35.14Z"/>
      <path class="st2" d="M591.1,160.78c-1.48-1.54-2.23-3.59-2.23-6.15v-19.98c0-.14.05-.25.14-.35s.21-.14.35-.14h4.78c.14,0,.25.05.35.14.09.1.14.21.14.35v20.55c0,.87.22,1.58.65,2.12.43.54,1.01.82,1.72.82s1.27-.27,1.7-.82c.42-.54.63-1.25.63-2.12v-20.55c0-.14.05-.25.14-.35s.21-.14.35-.14h4.78c.14,0,.25.05.35.14.09.1.14.21.14.35v19.98c0,2.56-.74,4.61-2.23,6.15-1.48,1.54-3.44,2.31-5.86,2.31s-4.42-.77-5.9-2.31Z"/>
      <path class="st2" d="M619.63,162.35l-3.15-11.28c-.06-.11-.12-.16-.21-.16h-1.39c-.14,0-.2.07-.2.21v11.15c0,.14-.05.25-.14.35s-.21.14-.35.14h-4.78c-.14,0-.25-.05-.35-.14s-.14-.21-.14-.35v-27.62c0-.14.05-.25.14-.35.1-.09.21-.14.35-.14h8.25c1.5,0,2.83.36,4,1.08,1.17.72,2.08,1.74,2.72,3.04.64,1.31.96,2.81.96,4.49s-.31,3.02-.92,4.25c-.61,1.23-1.46,2.18-2.55,2.86-.05.03-.1.06-.12.1s-.03.09,0,.14l3.76,12.05.04.16c0,.27-.15.41-.45.41h-4.9c-.3,0-.49-.14-.57-.41ZM614.69,139.31v6.99c0,.14.07.2.2.2h1.84c.84,0,1.53-.33,2.06-1,.53-.67.8-1.56.8-2.68s-.27-2.05-.8-2.72c-.53-.67-1.22-1-2.06-1h-1.84c-.14,0-.2.07-.2.2Z"/>
      <path class="st2" d="M643.39,138.96c-.1.1-.21.14-.35.14h-8.54c-.14,0-.2.07-.2.2v6.46c0,.14.07.2.2.2h4.9c.14,0,.25.05.35.14.09.1.14.21.14.35v3.96c0,.14-.05.25-.14.35s-.21.14-.35.14h-4.9c-.14,0-.2.07-.2.21v6.5c0,.14.07.2.2.2h8.54c.14,0,.25.05.35.14.1.1.14.21.14.35v3.96c0,.14-.05.25-.14.35s-.21.14-.35.14h-14.01c-.14,0-.25-.05-.35-.14s-.14-.21-.14-.35v-27.62c0-.14.05-.25.14-.35.1-.09.21-.14.35-.14h14.01c.14,0,.25.05.35.14.1.1.14.21.14.35v3.96c0,.14-.05.25-.14.35Z"/>
      <path class="st2" d="M647.27,162.01c-.61-.61-.92-1.38-.92-2.31s.3-1.73.9-2.33c.6-.6,1.38-.9,2.33-.9s1.73.3,2.33.9c.6.6.9,1.38.9,2.33s-.31,1.7-.92,2.31c-.61.61-1.38.92-2.31.92s-1.7-.31-2.31-.92Z"/>
    </g>
    <g>
      <path class="st1" d="M124.39,135.22c1.17.74,2.08,1.76,2.72,3.08.64,1.32.96,2.83.96,4.51,0,2.53-.68,4.56-2.04,6.09-1.36,1.53-3.15,2.29-5.35,2.29h-3.06c-.14,0-.2.07-.2.21v10.87c0,.14-.05.25-.14.35-.1.1-.21.14-.35.14h-4.78c-.14,0-.25-.05-.35-.14-.1-.1-.14-.21-.14-.35v-27.66c0-.14.05-.25.14-.35.1-.09.21-.14.35-.14h8.25c1.5,0,2.83.37,4,1.1ZM121.51,145.7c.53-.67.8-1.59.8-2.76s-.27-2.14-.8-2.82-1.23-1.02-2.1-1.02h-1.8c-.14,0-.2.07-.2.2v7.19c0,.14.07.2.2.2h1.8c.87,0,1.57-.33,2.1-1Z"/>
      <path class="st1" d="M145.9,138.96c-.1.1-.21.14-.35.14h-8.54c-.14,0-.2.07-.2.2v6.46c0,.14.07.2.2.2h4.9c.14,0,.25.05.35.14.1.1.14.21.14.35v3.96c0,.14-.05.25-.14.35-.1.1-.21.14-.35.14h-4.9c-.14,0-.2.07-.2.21v6.5c0,.14.07.2.2.2h8.54c.14,0,.25.05.35.14.09.1.14.21.14.35v3.96c0,.14-.05.25-.14.35-.1.1-.21.14-.35.14h-14.01c-.14,0-.25-.05-.35-.14-.1-.1-.14-.21-.14-.35v-27.62c0-.14.05-.25.14-.35.1-.09.21-.14.35-.14h14.01c.14,0,.25.05.35.14.09.1.14.21.14.35v3.96c0,.14-.05.25-.14.35Z"/>
      <path class="st1" d="M151.15,160.88c-1.5-1.47-2.25-3.43-2.25-5.88v-13.07c0-2.45.75-4.41,2.25-5.88,1.5-1.47,3.5-2.21,6.01-2.21s4.51.74,6.03,2.21c1.51,1.47,2.27,3.43,2.27,5.88v13.07c0,2.45-.76,4.41-2.27,5.88-1.51,1.47-3.52,2.21-6.03,2.21s-4.51-.74-6.01-2.21ZM158.99,157.35c.46-.53.69-1.23.69-2.1v-13.56c0-.87-.23-1.57-.69-2.1-.46-.53-1.08-.8-1.84-.8s-1.37.27-1.82.8c-.45.53-.67,1.23-.67,2.1v13.56c0,.87.22,1.57.67,2.1.45.53,1.06.8,1.82.8s1.38-.26,1.84-.8Z"/>
      <path class="st1" d="M181.71,135.22c1.17.74,2.08,1.76,2.72,3.08.64,1.32.96,2.83.96,4.51,0,2.53-.68,4.56-2.04,6.09-1.36,1.53-3.15,2.29-5.35,2.29h-3.06c-.14,0-.2.07-.2.21v10.87c0,.14-.05.25-.14.35-.1.1-.21.14-.35.14h-4.78c-.14,0-.25-.05-.35-.14-.1-.1-.14-.21-.14-.35v-27.66c0-.14.05-.25.14-.35.1-.09.21-.14.35-.14h8.25c1.5,0,2.83.37,4,1.1ZM178.83,145.7c.53-.67.8-1.59.8-2.76s-.27-2.14-.8-2.82-1.23-1.02-2.1-1.02h-1.8c-.14,0-.2.07-.2.2v7.19c0,.14.07.2.2.2h1.8c.87,0,1.57-.33,2.1-1Z"/>
      <path class="st1" d="M188.51,162.62c-.1-.1-.14-.21-.14-.35v-27.62c0-.14.05-.25.14-.35.1-.09.21-.14.35-.14h4.78c.14,0,.25.05.35.14.09.1.14.21.14.35v22.96c0,.14.07.2.2.2h8.58c.14,0,.25.05.35.14.1.1.14.21.14.35v3.96c0,.14-.05.25-.14.35-.1.1-.21.14-.35.14h-14.05c-.14,0-.25-.05-.35-.14Z"/>
      <path class="st1" d="M220.99,138.96c-.1.1-.21.14-.35.14h-8.54c-.14,0-.2.07-.2.2v6.46c0,.14.07.2.2.2h4.9c.14,0,.25.05.35.14.1.1.14.21.14.35v3.96c0,.14-.05.25-.14.35-.1.1-.21.14-.35.14h-4.9c-.14,0-.2.07-.2.21v6.5c0,.14.07.2.2.2h8.54c.14,0,.25.05.35.14.09.1.14.21.14.35v3.96c0,.14-.05.25-.14.35-.1.1-.21.14-.35.14h-14.01c-.14,0-.25-.05-.35-.14-.1-.1-.14-.21-.14-.35v-27.62c0-.14.05-.25.14-.35.1-.09.21-.14.35-.14h14.01c.14,0,.25.05.35.14.09.1.14.21.14.35v3.96c0,.14-.05.25-.14.35Z"/>
      <path class="st1" d="M223.93,166.62c-.1-.1-.13-.23-.1-.39l.9-9.48c.05-.3.22-.45.49-.45h4.17c.38,0,.53.18.45.53l-2.17,9.48c-.08.3-.26.45-.53.45h-2.82c-.16,0-.29-.05-.39-.14Z"/>
      <path class="st1" d="M243.75,160.9c-1.48-1.46-2.23-3.41-2.23-5.86v-13.24c0-2.42.74-4.36,2.23-5.8,1.48-1.44,3.45-2.17,5.9-2.17s4.46.72,5.94,2.17c1.48,1.44,2.23,3.38,2.23,5.8v.45c0,.14-.05.25-.14.35-.1.1-.21.14-.35.14l-4.78.2c-.33,0-.49-.15-.49-.45v-1.06c0-.79-.22-1.43-.65-1.92-.44-.49-1.02-.74-1.76-.74s-1.28.25-1.72.74-.65,1.13-.65,1.92v14.1c0,.79.22,1.42.65,1.9.44.48,1.01.71,1.72.71s1.32-.24,1.76-.71c.44-.48.65-1.11.65-1.9v-1.1c0-.14.05-.25.14-.35.1-.1.21-.14.35-.14l4.78.21c.14,0,.25.05.35.14.1.1.14.21.14.35v.41c0,2.45-.75,4.41-2.25,5.86-1.5,1.46-3.47,2.19-5.92,2.19s-4.42-.73-5.9-2.19Z"/>
      <path class="st1" d="M263.09,160.88c-1.5-1.47-2.25-3.43-2.25-5.88v-13.07c0-2.45.75-4.41,2.25-5.88,1.5-1.47,3.5-2.21,6.01-2.21s4.51.74,6.03,2.21c1.51,1.47,2.27,3.43,2.27,5.88v13.07c0,2.45-.76,4.41-2.27,5.88-1.51,1.47-3.52,2.21-6.03,2.21s-4.51-.74-6.01-2.21ZM270.94,157.35c.46-.53.69-1.23.69-2.1v-13.56c0-.87-.23-1.57-.69-2.1-.46-.53-1.08-.8-1.84-.8s-1.37.27-1.82.8c-.45.53-.67,1.23-.67,2.1v13.56c0,.87.22,1.57.67,2.1.45.53,1.06.8,1.82.8s1.38-.26,1.84-.8Z"/>
      <path class="st1" d="M294.63,134.16h4.74c.14,0,.25.05.35.14.1.1.14.21.14.35v27.62c0,.14-.05.25-.14.35-.1.1-.21.14-.35.14h-4.78c-.14,0-.25-.05-.35-.14-.1-.1-.14-.21-.14-.35v-18.34c0-.11-.03-.16-.08-.16s-.11.04-.16.12l-3.19,5.64c-.14.22-.25.33-.33.33s-.19-.11-.33-.33l-3.19-5.64c-.05-.08-.11-.12-.16-.12s-.08.05-.08.16v18.34c0,.14-.05.25-.14.35-.1.1-.21.14-.35.14h-4.78c-.14,0-.25-.05-.35-.14-.1-.1-.14-.21-.14-.35v-27.62c0-.14.05-.25.14-.35.1-.09.21-.14.35-.14h4.7c.27,0,.48.11.61.33l3.64,6.5c.08.11.16.11.25,0l3.51-6.5c.11-.22.31-.33.61-.33Z"/>
      <path class="st1" d="M317.39,134.16h4.74c.14,0,.25.05.35.14.1.1.14.21.14.35v27.62c0,.14-.05.25-.14.35-.1.1-.21.14-.35.14h-4.78c-.14,0-.25-.05-.35-.14-.1-.1-.14-.21-.14-.35v-18.34c0-.11-.03-.16-.08-.16s-.11.04-.16.12l-3.19,5.64c-.14.22-.25.33-.33.33s-.19-.11-.33-.33l-3.19-5.64c-.05-.08-.11-.12-.16-.12s-.08.05-.08.16v18.34c0,.14-.05.25-.14.35-.1.1-.21.14-.35.14h-4.78c-.14,0-.25-.05-.35-.14-.1-.1-.14-.21-.14-.35v-27.62c0-.14.05-.25.14-.35.1-.09.21-.14.35-.14h4.7c.27,0,.48.11.61.33l3.64,6.5c.08.11.16.11.25,0l3.51-6.5c.11-.22.31-.33.61-.33Z"/>
      <path class="st1" d="M328.56,160.78c-1.48-1.54-2.23-3.59-2.23-6.15v-19.98c0-.14.05-.25.14-.35.1-.09.21-.14.35-.14h4.78c.14,0,.25.05.35.14.09.1.14.21.14.35v20.55c0,.87.22,1.58.65,2.12.44.54,1.01.82,1.72.82s1.27-.27,1.7-.82c.42-.54.63-1.25.63-2.12v-20.55c0-.14.05-.25.14-.35s.21-.14.35-.14h4.78c.14,0,.25.05.35.14.1.1.14.21.14.35v19.98c0,2.56-.74,4.61-2.23,6.15-1.48,1.54-3.44,2.31-5.86,2.31s-4.42-.77-5.9-2.31Z"/>
      <path class="st1" d="M357.98,134.31c.1-.09.21-.14.35-.14h4.74c.14,0,.25.05.35.14.1.1.14.21.14.35v27.62c0,.14-.05.25-.14.35-.1.1-.21.14-.35.14h-5.39c-.27,0-.45-.14-.53-.41l-5.07-15.81c-.03-.08-.08-.12-.14-.1-.07.01-.1.06-.1.14l.04,15.69c0,.14-.05.25-.14.35-.1.1-.21.14-.35.14h-4.74c-.14,0-.25-.05-.35-.14-.1-.1-.14-.21-.14-.35v-27.62c0-.14.05-.25.14-.35.1-.09.21-.14.35-.14h5.35c.27,0,.45.14.53.41l5.11,15.81c.03.08.07.12.14.1.07-.01.1-.06.1-.14l-.04-15.69c0-.14.05-.25.14-.35Z"/>
      <path class="st1" d="M367.66,162.62c-.1-.1-.14-.21-.14-.35v-27.62c0-.14.05-.25.14-.35.1-.09.21-.14.35-.14h4.78c.14,0,.25.05.35.14.09.1.14.21.14.35v27.62c0,.14-.05.25-.14.35-.1.1-.21.14-.35.14h-4.78c-.14,0-.25-.05-.35-.14Z"/>
      <path class="st1" d="M393.48,134.31c.09.1.14.21.14.35v3.96c0,.14-.05.25-.14.35s-.21.14-.35.14h-5.11c-.14,0-.2.07-.2.2v22.96c0,.14-.05.25-.14.35-.1.1-.21.14-.35.14h-4.78c-.14,0-.25-.05-.35-.14-.1-.1-.14-.21-.14-.35v-22.96c0-.14-.07-.2-.2-.2h-4.9c-.14,0-.25-.05-.35-.14-.1-.09-.14-.21-.14-.35v-3.96c0-.14.05-.25.14-.35.1-.09.21-.14.35-.14h16.18c.14,0,.25.05.35.14Z"/>
      <path class="st1" d="M396.91,162.62c-.1-.1-.14-.21-.14-.35v-27.62c0-.14.05-.25.14-.35.1-.09.21-.14.35-.14h4.78c.14,0,.25.05.35.14.09.1.14.21.14.35v27.62c0,.14-.05.25-.14.35-.1.1-.21.14-.35.14h-4.78c-.14,0-.25-.05-.35-.14Z"/>
      <path class="st1" d="M421.38,138.96c-.1.1-.21.14-.35.14h-8.54c-.14,0-.2.07-.2.2v6.46c0,.14.07.2.2.2h4.9c.14,0,.25.05.35.14s.14.21.14.35v3.96c0,.14-.05.25-.14.35-.1.1-.21.14-.35.14h-4.9c-.14,0-.2.07-.2.21v6.5c0,.14.07.2.2.2h8.54c.14,0,.25.05.35.14.09.1.14.21.14.35v3.96c0,.14-.05.25-.14.35-.1.1-.21.14-.35.14h-14.01c-.14,0-.25-.05-.35-.14s-.14-.21-.14-.35v-27.62c0-.14.05-.25.14-.35.1-.09.21-.14.35-.14h14.01c.14,0,.25.05.35.14.09.1.14.21.14.35v3.96c0,.14-.05.25-.14.35Z"/>
      <path class="st1" d="M427.98,162.15c-1.2-.63-2.12-1.5-2.78-2.63-.65-1.13-.98-2.43-.98-3.9v-1.19c0-.14.05-.25.14-.35.09-.1.21-.14.35-.14h4.7c.14,0,.25.05.35.14s.14.21.14.35v.9c0,.84.22,1.53.65,2.04.44.52.98.78,1.63.78s1.2-.25,1.63-.74c.44-.49.65-1.13.65-1.92s-.27-1.52-.82-2.1c-.55-.59-1.61-1.45-3.19-2.59-1.36-.98-2.46-1.85-3.31-2.62-.84-.76-1.57-1.7-2.17-2.82-.6-1.12-.9-2.41-.9-3.88,0-2.31.72-4.17,2.17-5.56,1.44-1.39,3.35-2.08,5.72-2.08s4.32.72,5.78,2.17c1.46,1.44,2.19,3.34,2.19,5.68v.98c0,.14-.05.25-.14.35s-.21.14-.35.14h-4.7c-.14,0-.25-.05-.35-.14-.1-.09-.14-.21-.14-.35v-1.1c0-.84-.21-1.52-.63-2.02-.42-.5-.97-.76-1.66-.76s-1.18.24-1.59.71c-.41.48-.61,1.14-.61,1.98s.26,1.54.78,2.17c.52.63,1.54,1.5,3.06,2.61,1.69,1.25,2.96,2.27,3.82,3.04.86.78,1.53,1.63,2,2.57.48.94.71,2.06.71,3.37,0,2.4-.74,4.3-2.21,5.72-1.47,1.42-3.4,2.12-5.8,2.12-1.58,0-2.97-.31-4.17-.94Z"/>
      <path class="st1" d="M442.71,166.62c-.1-.1-.13-.23-.1-.39l.9-9.48c.05-.3.22-.45.49-.45h4.17c.38,0,.53.18.45.53l-2.17,9.48c-.08.3-.26.45-.53.45h-2.82c-.16,0-.29-.05-.39-.14Z"/>
      <path class="st1" d="M472.19,162.31l-.65-3.92c0-.14-.08-.21-.25-.21h-5.19c-.16,0-.25.07-.25.21l-.65,3.92c-.03.3-.2.45-.53.45h-4.78c-.35,0-.49-.18-.41-.53l6.01-27.62c.05-.3.23-.45.53-.45h5.51c.3,0,.48.15.53.45l5.96,27.62.04.16c0,.25-.15.37-.45.37h-4.9c-.33,0-.5-.15-.53-.45ZM466.83,153.73h3.68c.14,0,.19-.07.16-.2l-1.92-11.15c-.03-.08-.07-.12-.12-.12s-.1.04-.12.12l-1.84,11.15c0,.14.05.2.16.2Z"/>
      <path class="st1" d="M492.59,134.31c.1-.09.21-.14.35-.14h4.74c.14,0,.25.05.35.14.09.1.14.21.14.35v27.62c0,.14-.05.25-.14.35-.1.1-.21.14-.35.14h-5.39c-.27,0-.45-.14-.53-.41l-5.07-15.81c-.03-.08-.08-.12-.14-.1-.07.01-.1.06-.1.14l.04,15.69c0,.14-.05.25-.14.35s-.21.14-.35.14h-4.74c-.14,0-.25-.05-.35-.14s-.14-.21-.14-.35v-27.62c0-.14.05-.25.14-.35.1-.09.21-.14.35-.14h5.35c.27,0,.45.14.53.41l5.11,15.81c.03.08.07.12.14.1.07-.01.1-.06.1-.14l-.04-15.69c0-.14.05-.25.14-.35Z"/>
      <path class="st1" d="M502.28,162.62c-.1-.1-.14-.21-.14-.35v-27.62c0-.14.05-.25.14-.35.1-.09.21-.14.35-.14h7.39c2.48,0,4.47.72,5.96,2.17,1.5,1.44,2.25,3.36,2.25,5.76v12.75c0,2.4-.75,4.32-2.25,5.76s-3.49,2.17-5.96,2.17h-7.39c-.14,0-.25-.05-.35-.14ZM508.1,157.82l1.84-.04c.74-.03,1.33-.34,1.8-.94.46-.6.71-1.39.74-2.37v-12.01c0-1.03-.23-1.85-.69-2.45-.46-.6-1.09-.9-1.88-.9h-1.8c-.14,0-.2.07-.2.2v18.3c0,.14.07.2.2.2Z"/>
      <path class="st1" d="M542.31,134.31c.1-.09.21-.14.35-.14h4.74c.14,0,.25.05.35.14.09.1.14.21.14.35v27.62c0,.14-.05.25-.14.35-.1.1-.21.14-.35.14h-5.39c-.27,0-.45-.14-.53-.41l-5.07-15.81c-.03-.08-.08-.12-.14-.1-.07.01-.1.06-.1.14l.04,15.69c0,.14-.05.25-.14.35s-.21.14-.35.14h-4.74c-.14,0-.25-.05-.35-.14s-.14-.21-.14-.35v-27.62c0-.14.05-.25.14-.35.1-.09.21-.14.35-.14h5.35c.27,0,.45.14.53.41l5.11,15.81c.03.08.07.12.14.1.07-.01.1-.06.1-.14l-.04-15.69c0-.14.05-.25.14-.35Z"/>
      <path class="st1" d="M563.33,162.31l-.65-3.92c0-.14-.08-.21-.25-.21h-5.19c-.16,0-.25.07-.25.21l-.65,3.92c-.03.3-.2.45-.53.45h-4.78c-.35,0-.49-.18-.41-.53l6.01-27.62c.05-.3.23-.45.53-.45h5.51c.3,0,.48.15.53.45l5.96,27.62.04.16c0,.25-.15.37-.45.37h-4.9c-.33,0-.5-.15-.53-.45ZM557.98,153.73h3.68c.14,0,.19-.07.16-.2l-1.92-11.15c-.03-.08-.07-.12-.12-.12s-.1.04-.12.12l-1.84,11.15c0,.14.05.2.16.2Z"/>
      <path class="st1" d="M585.7,134.31c.09.1.14.21.14.35v3.96c0,.14-.05.25-.14.35s-.21.14-.35.14h-5.11c-.14,0-.2.07-.2.2v22.96c0,.14-.05.25-.14.35s-.21.14-.35.14h-4.78c-.14,0-.25-.05-.35-.14-.1-.1-.14-.21-.14-.35v-22.96c0-.14-.07-.2-.21-.2h-4.9c-.14,0-.25-.05-.35-.14-.1-.09-.14-.21-.14-.35v-3.96c0-.14.05-.25.14-.35.1-.09.21-.14.35-.14h16.18c.14,0,.25.05.35.14Z"/>
      <path class="st1" d="M591.1,160.78c-1.48-1.54-2.23-3.59-2.23-6.15v-19.98c0-.14.05-.25.14-.35s.21-.14.35-.14h4.78c.14,0,.25.05.35.14.09.1.14.21.14.35v20.55c0,.87.22,1.58.65,2.12.43.54,1.01.82,1.72.82s1.27-.27,1.7-.82c.42-.54.63-1.25.63-2.12v-20.55c0-.14.05-.25.14-.35s.21-.14.35-.14h4.78c.14,0,.25.05.35.14.09.1.14.21.14.35v19.98c0,2.56-.74,4.61-2.23,6.15-1.48,1.54-3.44,2.31-5.86,2.31s-4.42-.77-5.9-2.31Z"/>
      <path class="st1" d="M619.63,162.35l-3.15-11.28c-.06-.11-.12-.16-.21-.16h-1.39c-.14,0-.2.07-.2.21v11.15c0,.14-.05.25-.14.35s-.21.14-.35.14h-4.78c-.14,0-.25-.05-.35-.14s-.14-.21-.14-.35v-27.62c0-.14.05-.25.14-.35.1-.09.21-.14.35-.14h8.25c1.5,0,2.83.36,4,1.08,1.17.72,2.08,1.74,2.72,3.04.64,1.31.96,2.81.96,4.49s-.31,3.02-.92,4.25c-.61,1.23-1.46,2.18-2.55,2.86-.05.03-.1.06-.12.1s-.03.09,0,.14l3.76,12.05.04.16c0,.27-.15.41-.45.41h-4.9c-.3,0-.49-.14-.57-.41ZM614.69,139.31v6.99c0,.14.07.2.2.2h1.84c.84,0,1.53-.33,2.06-1,.53-.67.8-1.56.8-2.68s-.27-2.05-.8-2.72c-.53-.67-1.22-1-2.06-1h-1.84c-.14,0-.2.07-.2.2Z"/>
      <path class="st1" d="M643.39,138.96c-.1.1-.21.14-.35.14h-8.54c-.14,0-.2.07-.2.2v6.46c0,.14.07.2.2.2h4.9c.14,0,.25.05.35.14.09.1.14.21.14.35v3.96c0,.14-.05.25-.14.35s-.21.14-.35.14h-4.9c-.14,0-.2.07-.2.21v6.5c0,.14.07.2.2.2h8.54c.14,0,.25.05.35.14.1.1.14.21.14.35v3.96c0,.14-.05.25-.14.35s-.21.14-.35.14h-14.01c-.14,0-.25-.05-.35-.14s-.14-.21-.14-.35v-27.62c0-.14.05-.25.14-.35.1-.09.21-.14.35-.14h14.01c.14,0,.25.05.35.14.1.1.14.21.14.35v3.96c0,.14-.05.25-.14.35Z"/>
      <path class="st1" d="M647.27,162.01c-.61-.61-.92-1.38-.92-2.31s.3-1.73.9-2.33c.6-.6,1.38-.9,2.33-.9s1.73.3,2.33.9c.6.6.9,1.38.9,2.33s-.31,1.7-.92,2.31c-.61.61-1.38.92-2.31.92s-1.7-.31-2.31-.92Z"/>
    </g>
  </g>
  <g>
    <g>
      <path class="st2" d="M93.58,87.68c-.12.12-.26.18-.43.18h-10.66c-.17,0-.25.08-.25.25v8.06c0,.17.08.25.25.25h6.12c.17,0,.31.06.43.18.12.12.18.26.18.43v4.95c0,.17-.06.31-.18.43-.12.12-.26.18-.43.18h-6.12c-.17,0-.25.09-.25.25v8.11c0,.17.08.25.25.25h10.66c.17,0,.31.06.43.18.12.12.18.26.18.43v4.95c0,.17-.06.31-.18.43s-.26.18-.43.18h-17.49c-.17,0-.31-.06-.43-.18-.12-.12-.18-.26-.18-.43v-34.47c0-.17.06-.31.18-.43s.26-.18.43-.18h17.49c.17,0,.31.06.43.18.12.12.18.26.18.43v4.95c0,.17-.06.31-.18.43Z"/>
      <path class="st2" d="M104.06,116.82l-7.29-34.47-.05-.2c0-.31.19-.46.56-.46h6.58c.41,0,.63.19.66.56l3.52,22.44c.03.14.08.2.15.2s.12-.07.15-.2l3.42-22.44c.03-.37.25-.56.66-.56h6.37c.44,0,.61.22.51.66l-7.34,34.47c-.07.37-.29.56-.66.56h-6.58c-.37,0-.6-.19-.66-.56Z"/>
      <path class="st2" d="M141.72,87.68c-.12.12-.26.18-.43.18h-10.66c-.17,0-.25.08-.25.25v8.06c0,.17.08.25.25.25h6.12c.17,0,.31.06.43.18.12.12.18.26.18.43v4.95c0,.17-.06.31-.18.43-.12.12-.26.18-.43.18h-6.12c-.17,0-.25.09-.25.25v8.11c0,.17.08.25.25.25h10.66c.17,0,.31.06.43.18.12.12.18.26.18.43v4.95c0,.17-.06.31-.18.43s-.26.18-.43.18h-17.49c-.17,0-.31-.06-.43-.18-.12-.12-.18-.26-.18-.43v-34.47c0-.17.06-.31.18-.43s.26-.18.43-.18h17.49c.17,0,.31.06.43.18.12.12.18.26.18.43v4.95c0,.17-.06.31-.18.43Z"/>
      <path class="st2" d="M159.34,116.87l-3.93-14.07c-.07-.14-.15-.2-.25-.2h-1.73c-.17,0-.25.09-.25.25v13.92c0,.17-.06.31-.18.43-.12.12-.26.18-.43.18h-5.97c-.17,0-.31-.06-.43-.18-.12-.12-.18-.26-.18-.43v-34.47c0-.17.06-.31.18-.43s.26-.18.43-.18h10.3c1.87,0,3.54.45,5,1.35,1.46.9,2.59,2.17,3.39,3.8.8,1.63,1.2,3.5,1.2,5.61s-.38,3.77-1.15,5.3c-.76,1.53-1.83,2.72-3.19,3.57-.07.03-.12.08-.15.13-.03.05-.03.11,0,.18l4.69,15.04.05.2c0,.34-.19.51-.56.51h-6.12c-.37,0-.61-.17-.71-.51ZM153.17,88.11v8.72c0,.17.08.25.25.25h2.29c1.05,0,1.91-.42,2.58-1.25.66-.83.99-1.95.99-3.34s-.33-2.56-.99-3.39-1.52-1.25-2.58-1.25h-2.29c-.17,0-.25.08-.25.25Z"/>
      <path class="st2" d="M175.42,117.15c-.12-.12-.18-.26-.18-.43v-13.26l-.05-.31-7.14-20.75c-.03-.07-.05-.15-.05-.25,0-.31.19-.46.56-.46h6.27c.37,0,.61.17.71.51l3.16,12.19c.03.1.08.15.15.15s.12-.05.15-.15l3.16-12.19c.1-.34.34-.51.71-.51h6.27c.2,0,.36.06.46.18.1.12.12.3.05.54l-7.19,20.75-.05.31v13.26c0,.17-.06.31-.18.43s-.26.18-.43.18h-5.97c-.17,0-.31-.06-.43-.18Z"/>
      <path class="st2" d="M213.87,81.86c.12.12.18.26.18.43v4.95c0,.17-.06.31-.18.43s-.26.18-.43.18h-6.37c-.17,0-.25.08-.25.25v28.66c0,.17-.06.31-.18.43s-.26.18-.43.18h-5.97c-.17,0-.31-.06-.43-.18-.12-.12-.18-.26-.18-.43v-28.66c0-.17-.08-.25-.25-.25h-6.12c-.17,0-.31-.06-.43-.18-.12-.12-.18-.26-.18-.43v-4.95c0-.17.06-.31.18-.43s.26-.18.43-.18h20.19c.17,0,.31.06.43.18Z"/>
      <path class="st2" d="M230.96,81.86c.12-.12.26-.18.43-.18h5.97c.17,0,.31.06.43.18.12.12.18.26.18.43v34.47c0,.17-.06.31-.18.43s-.26.18-.43.18h-5.97c-.17,0-.31-.06-.43-.18-.12-.12-.18-.26-.18-.43v-13.92c0-.17-.09-.25-.25-.25h-5.1c-.17,0-.25.09-.25.25v13.92c0,.17-.06.31-.18.43-.12.12-.26.18-.43.18h-5.97c-.17,0-.31-.06-.43-.18-.12-.12-.18-.26-.18-.43v-34.47c0-.17.06-.31.18-.43s.26-.18.43-.18h5.97c.17,0,.31.06.43.18.12.12.18.26.18.43v13.87c0,.17.08.25.25.25h5.1c.17,0,.25-.08.25-.25v-13.87c0-.17.06-.31.18-.43Z"/>
      <path class="st2" d="M243.09,117.2c-.12-.12-.18-.26-.18-.43v-34.47c0-.17.06-.31.18-.43s.26-.18.43-.18h5.97c.17,0,.31.06.43.18.12.12.18.26.18.43v34.47c0,.17-.06.31-.18.43-.12.12-.26.18-.43.18h-5.97c-.17,0-.31-.06-.43-.18Z"/>
      <path class="st2" d="M269.87,81.86c.12-.12.26-.18.43-.18h5.92c.17,0,.31.06.43.18.12.12.18.26.18.43v34.47c0,.17-.06.31-.18.43s-.26.18-.43.18h-6.73c-.34,0-.56-.17-.66-.51l-6.32-19.74c-.03-.1-.09-.14-.18-.13-.08.02-.13.08-.13.18l.05,19.58c0,.17-.06.31-.18.43s-.26.18-.43.18h-5.92c-.17,0-.31-.06-.43-.18-.12-.12-.18-.26-.18-.43v-34.47c0-.17.06-.31.18-.43s.26-.18.43-.18h6.68c.34,0,.56.17.66.51l6.37,19.74c.03.1.09.14.18.13.08-.02.13-.08.13-.18l-.05-19.58c0-.17.06-.31.18-.43Z"/>
      <path class="st2" d="M284.04,115.16c-1.85-1.75-2.78-4.09-2.78-7.01v-17.24c0-2.92.93-5.26,2.78-7.01,1.85-1.75,4.31-2.63,7.37-2.63s5.52.88,7.39,2.65c1.87,1.77,2.8,4.11,2.8,7.04v1.94c0,.17-.06.31-.18.43s-.26.18-.43.18h-5.97c-.17,0-.31-.06-.43-.18-.12-.12-.18-.26-.18-.43v-2.04c0-1.02-.27-1.84-.82-2.47-.54-.63-1.27-.94-2.19-.94s-1.6.31-2.14.94c-.54.63-.82,1.45-.82,2.47v17.34c0,1.02.27,1.84.82,2.47.54.63,1.26.94,2.14.94s1.65-.31,2.19-.94c.54-.63.82-1.45.82-2.47v-4.08c0-.17-.09-.25-.25-.25h-2.24c-.17,0-.31-.06-.43-.18-.12-.12-.18-.26-.18-.43v-4.54c0-.17.06-.31.18-.43s.26-.18.43-.18h9.08c.17,0,.31.06.43.18.12.12.18.26.18.43v9.43c0,2.92-.94,5.26-2.8,7.01-1.87,1.75-4.33,2.63-7.39,2.63s-5.52-.87-7.37-2.63Z"/>
      <path class="st2" d="M316.88,117.2c-.12-.12-.18-.26-.18-.43v-34.47c0-.17.06-.31.18-.43s.26-.18.43-.18h5.97c.17,0,.31.06.43.18.12.12.18.26.18.43v34.47c0,.17-.06.31-.18.43-.12.12-.26.18-.43.18h-5.97c-.17,0-.31-.06-.43-.18Z"/>
      <path class="st2" d="M332.87,116.62c-1.5-.78-2.65-1.88-3.47-3.29-.82-1.41-1.22-3.03-1.22-4.87v-1.48c0-.17.06-.31.18-.43s.26-.18.43-.18h5.86c.17,0,.31.06.43.18.12.12.18.26.18.43v1.12c0,1.05.27,1.9.82,2.55.54.65,1.22.97,2.04.97s1.5-.31,2.04-.92c.54-.61.82-1.41.82-2.4s-.34-1.89-1.02-2.63c-.68-.73-2.01-1.81-3.98-3.24-1.7-1.22-3.08-2.31-4.13-3.26-1.05-.95-1.96-2.12-2.7-3.52-.75-1.39-1.12-3.01-1.12-4.84,0-2.89.9-5.2,2.7-6.94,1.8-1.73,4.18-2.6,7.14-2.6s5.4.9,7.22,2.7c1.82,1.8,2.73,4.16,2.73,7.09v1.22c0,.17-.06.31-.18.43-.12.12-.26.18-.43.18h-5.86c-.17,0-.31-.06-.43-.18-.12-.12-.18-.26-.18-.43v-1.38c0-1.05-.26-1.89-.79-2.52-.53-.63-1.22-.94-2.07-.94s-1.48.3-1.99.89c-.51.6-.76,1.42-.76,2.47s.32,1.92.97,2.7c.65.78,1.92,1.87,3.82,3.26,2.11,1.56,3.7,2.83,4.77,3.8,1.07.97,1.9,2.04,2.5,3.21.59,1.17.89,2.58.89,4.21,0,2.99-.92,5.37-2.75,7.14-1.84,1.77-4.25,2.65-7.24,2.65-1.97,0-3.71-.39-5.2-1.17Z"/>
      <path class="st2" d="M362.83,117.2c-.12-.12-.18-.26-.18-.43v-34.47c0-.17.06-.31.18-.43s.26-.18.43-.18h5.97c.17,0,.31.06.43.18.12.12.18.26.18.43v34.47c0,.17-.06.31-.18.43-.12.12-.26.18-.43.18h-5.97c-.17,0-.31-.06-.43-.18Z"/>
      <path class="st2" d="M389.6,81.86c.12-.12.26-.18.43-.18h5.91c.17,0,.31.06.43.18.12.12.18.26.18.43v34.47c0,.17-.06.31-.18.43-.12.12-.26.18-.43.18h-6.73c-.34,0-.56-.17-.66-.51l-6.32-19.74c-.04-.1-.09-.14-.18-.13-.09.02-.13.08-.13.18l.05,19.58c0,.17-.06.31-.18.43-.12.12-.26.18-.43.18h-5.92c-.17,0-.31-.06-.43-.18-.12-.12-.18-.26-.18-.43v-34.47c0-.17.06-.31.18-.43s.26-.18.43-.18h6.68c.34,0,.56.17.66.51l6.38,19.74c.03.1.09.14.18.13s.13-.08.13-.18l-.05-19.58c0-.17.06-.31.18-.43Z"/>
      <path class="st2" d="M421.72,81.86c.12.12.18.26.18.43v4.95c0,.17-.06.31-.18.43-.12.12-.26.18-.43.18h-6.37c-.17,0-.25.08-.25.25v28.66c0,.17-.06.31-.18.43-.12.12-.26.18-.43.18h-5.97c-.17,0-.31-.06-.43-.18-.12-.12-.18-.26-.18-.43v-28.66c0-.17-.08-.25-.25-.25h-6.12c-.17,0-.31-.06-.43-.18-.12-.12-.18-.26-.18-.43v-4.95c0-.17.06-.31.18-.43.12-.12.26-.18.43-.18h20.19c.17,0,.31.06.43.18Z"/>
      <path class="st2" d="M444.37,87.68c-.12.12-.26.18-.43.18h-10.66c-.17,0-.26.08-.26.25v8.06c0,.17.08.25.26.25h6.12c.17,0,.31.06.43.18.12.12.18.26.18.43v4.95c0,.17-.06.31-.18.43-.12.12-.26.18-.43.18h-6.12c-.17,0-.26.09-.26.25v8.11c0,.17.08.25.26.25h10.66c.17,0,.31.06.43.18s.18.26.18.43v4.95c0,.17-.06.31-.18.43-.12.12-.26.18-.43.18h-17.49c-.17,0-.31-.06-.43-.18-.12-.12-.18-.26-.18-.43v-34.47c0-.17.06-.31.18-.43.12-.12.26-.18.43-.18h17.49c.17,0,.31.06.43.18.12.12.18.26.18.43v4.95c0,.17-.06.31-.18.43Z"/>
      <path class="st2" d="M461.98,116.87l-3.93-14.07c-.07-.14-.15-.2-.25-.2h-1.73c-.17,0-.26.09-.26.25v13.92c0,.17-.06.31-.18.43-.12.12-.26.18-.43.18h-5.97c-.17,0-.31-.06-.43-.18-.12-.12-.18-.26-.18-.43v-34.47c0-.17.06-.31.18-.43.12-.12.26-.18.43-.18h10.3c1.87,0,3.54.45,5,1.35,1.46.9,2.59,2.17,3.39,3.8s1.2,3.5,1.2,5.61-.38,3.77-1.15,5.3c-.77,1.53-1.83,2.72-3.19,3.57-.07.03-.12.08-.15.13-.03.05-.03.11,0,.18l4.69,15.04.05.2c0,.34-.19.51-.56.51h-6.12c-.38,0-.61-.17-.71-.51ZM455.81,88.11v8.72c0,.17.08.25.26.25h2.29c1.05,0,1.91-.42,2.58-1.25.66-.83,1-1.95,1-3.34s-.33-2.56-1-3.39c-.66-.83-1.52-1.25-2.58-1.25h-2.29c-.17,0-.26.08-.26.25Z"/>
      <path class="st2" d="M475.37,115.06c-1.85-1.82-2.78-4.26-2.78-7.32v-16.52c0-3.03.93-5.44,2.78-7.24,1.85-1.8,4.31-2.7,7.37-2.7s5.57.9,7.42,2.7c1.85,1.8,2.78,4.22,2.78,7.24v.56c0,.17-.06.31-.18.43-.12.12-.26.18-.43.18l-5.97.25c-.41,0-.61-.19-.61-.56v-1.33c0-.99-.27-1.79-.82-2.4s-1.27-.92-2.19-.92-1.6.31-2.14.92c-.54.61-.82,1.41-.82,2.4v17.59c0,.99.27,1.78.82,2.37.54.6,1.26.89,2.14.89s1.65-.3,2.19-.89c.54-.59.82-1.38.82-2.37v-1.38c0-.17.06-.31.18-.43.12-.12.26-.18.43-.18l5.97.25c.17,0,.31.06.43.18.12.12.18.26.18.43v.51c0,3.06-.94,5.5-2.8,7.32-1.87,1.82-4.33,2.73-7.39,2.73s-5.52-.91-7.37-2.73Z"/>
      <path class="st2" d="M499.51,115.03c-1.87-1.84-2.8-4.28-2.8-7.34v-16.32c0-3.06.94-5.51,2.8-7.34,1.87-1.84,4.37-2.75,7.5-2.75s5.63.92,7.52,2.75,2.83,4.28,2.83,7.34v16.32c0,3.06-.94,5.51-2.83,7.34s-4.39,2.75-7.52,2.75-5.63-.92-7.5-2.75ZM509.31,110.62c.58-.66.87-1.54.87-2.63v-16.93c0-1.09-.29-1.96-.87-2.63s-1.34-.99-2.29-.99-1.71.33-2.27.99c-.56.66-.84,1.54-.84,2.63v16.93c0,1.09.28,1.96.84,2.63.56.66,1.32.99,2.27.99s1.72-.33,2.29-.99Z"/>
      <path class="st2" d="M536.56,81.86c.12-.12.26-.18.43-.18h5.92c.17,0,.31.06.43.18.12.12.18.26.18.43v34.47c0,.17-.06.31-.18.43-.12.12-.26.18-.43.18h-6.73c-.34,0-.56-.17-.66-.51l-6.32-19.74c-.03-.1-.09-.14-.18-.13-.09.02-.13.08-.13.18l.05,19.58c0,.17-.06.31-.18.43-.12.12-.26.18-.43.18h-5.92c-.17,0-.31-.06-.43-.18-.12-.12-.18-.26-.18-.43v-34.47c0-.17.06-.31.18-.43.12-.12.26-.18.43-.18h6.68c.34,0,.56.17.66.51l6.37,19.74c.03.1.09.14.18.13.08-.02.13-.08.13-.18l-.05-19.58c0-.17.06-.31.18-.43Z"/>
      <path class="st2" d="M563.23,81.86c.12-.12.26-.18.43-.18h5.92c.17,0,.31.06.43.18.12.12.18.26.18.43v34.47c0,.17-.06.31-.18.43-.12.12-.26.18-.43.18h-6.73c-.34,0-.56-.17-.66-.51l-6.32-19.74c-.03-.1-.09-.14-.18-.13-.09.02-.13.08-.13.18l.05,19.58c0,.17-.06.31-.18.43-.12.12-.26.18-.43.18h-5.92c-.17,0-.31-.06-.43-.18-.12-.12-.18-.26-.18-.43v-34.47c0-.17.06-.31.18-.43.12-.12.26-.18.43-.18h6.68c.34,0,.56.17.66.51l6.37,19.74c.03.1.09.14.18.13.08-.02.13-.08.13-.18l-.05-19.58c0-.17.06-.31.18-.43Z"/>
      <path class="st2" d="M593.68,87.68c-.12.12-.26.18-.43.18h-10.66c-.17,0-.26.08-.26.25v8.06c0,.17.08.25.26.25h6.12c.17,0,.31.06.43.18.12.12.18.26.18.43v4.95c0,.17-.06.31-.18.43-.12.12-.26.18-.43.18h-6.12c-.17,0-.26.09-.26.25v8.11c0,.17.08.25.26.25h10.66c.17,0,.31.06.43.18s.18.26.18.43v4.95c0,.17-.06.31-.18.43-.12.12-.26.18-.43.18h-17.49c-.17,0-.31-.06-.43-.18-.12-.12-.18-.26-.18-.43v-34.47c0-.17.06-.31.18-.43.12-.12.26-.18.43-.18h17.49c.17,0,.31.06.43.18.12.12.18.26.18.43v4.95c0,.17-.06.31-.18.43Z"/>
      <path class="st2" d="M600.2,115.06c-1.85-1.82-2.78-4.26-2.78-7.32v-16.52c0-3.03.93-5.44,2.78-7.24,1.85-1.8,4.31-2.7,7.37-2.7s5.57.9,7.42,2.7c1.85,1.8,2.78,4.22,2.78,7.24v.56c0,.17-.06.31-.18.43-.12.12-.26.18-.43.18l-5.97.25c-.41,0-.61-.19-.61-.56v-1.33c0-.99-.27-1.79-.82-2.4s-1.27-.92-2.19-.92-1.6.31-2.14.92c-.54.61-.82,1.41-.82,2.4v17.59c0,.99.27,1.78.82,2.37.54.6,1.26.89,2.14.89s1.65-.3,2.19-.89c.54-.59.82-1.38.82-2.37v-1.38c0-.17.06-.31.18-.43.12-.12.26-.18.43-.18l5.97.25c.17,0,.31.06.43.18.12.12.18.26.18.43v.51c0,3.06-.94,5.5-2.8,7.32-1.87,1.82-4.33,2.73-7.39,2.73s-5.52-.91-7.37-2.73Z"/>
      <path class="st2" d="M642.27,81.86c.12.12.18.26.18.43v4.95c0,.17-.06.31-.18.43-.12.12-.26.18-.43.18h-6.37c-.17,0-.25.08-.25.25v28.66c0,.17-.06.31-.18.43-.12.12-.26.18-.43.18h-5.97c-.17,0-.31-.06-.43-.18-.12-.12-.18-.26-.18-.43v-28.66c0-.17-.08-.25-.25-.25h-6.12c-.17,0-.31-.06-.43-.18-.12-.12-.18-.26-.18-.43v-4.95c0-.17.06-.31.18-.43.12-.12.26-.18.43-.18h20.19c.17,0,.31.06.43.18Z"/>
      <path class="st2" d="M664.91,87.68c-.12.12-.26.18-.43.18h-10.66c-.17,0-.26.08-.26.25v8.06c0,.17.08.25.26.25h6.12c.17,0,.31.06.43.18.12.12.18.26.18.43v4.95c0,.17-.06.31-.18.43-.12.12-.26.18-.43.18h-6.12c-.17,0-.26.09-.26.25v8.11c0,.17.08.25.26.25h10.66c.17,0,.31.06.43.18s.18.26.18.43v4.95c0,.17-.06.31-.18.43-.12.12-.26.18-.43.18h-17.49c-.17,0-.31-.06-.43-.18-.12-.12-.18-.26-.18-.43v-34.47c0-.17.06-.31.18-.43.12-.12.26-.18.43-.18h17.49c.17,0,.31.06.43.18.12.12.18.26.18.43v4.95c0,.17-.06.31-.18.43Z"/>
      <path class="st2" d="M669.35,117.2c-.12-.12-.18-.26-.18-.43v-34.47c0-.17.06-.31.18-.43.12-.12.26-.18.43-.18h9.23c3.09,0,5.58.9,7.45,2.7,1.87,1.8,2.8,4.2,2.8,7.19v15.91c0,2.99-.94,5.39-2.8,7.19-1.87,1.8-4.35,2.7-7.45,2.7h-9.23c-.17,0-.31-.06-.43-.18ZM676.62,111.21l2.29-.05c.92-.03,1.67-.42,2.24-1.17.58-.75.88-1.73.92-2.96v-14.99c0-1.29-.29-2.31-.87-3.06-.58-.75-1.36-1.12-2.35-1.12h-2.24c-.17,0-.26.08-.26.25v22.85c0,.17.08.25.26.25Z"/>
    </g>
    <g>
      <path class="st2" d="M93.58,87.68c-.12.12-.26.18-.43.18h-10.66c-.17,0-.25.08-.25.25v8.06c0,.17.08.25.25.25h6.12c.17,0,.31.06.43.18.12.12.18.26.18.43v4.95c0,.17-.06.31-.18.43-.12.12-.26.18-.43.18h-6.12c-.17,0-.25.09-.25.25v8.11c0,.17.08.25.25.25h10.66c.17,0,.31.06.43.18.12.12.18.26.18.43v4.95c0,.17-.06.31-.18.43s-.26.18-.43.18h-17.49c-.17,0-.31-.06-.43-.18-.12-.12-.18-.26-.18-.43v-34.47c0-.17.06-.31.18-.43s.26-.18.43-.18h17.49c.17,0,.31.06.43.18.12.12.18.26.18.43v4.95c0,.17-.06.31-.18.43Z"/>
      <path class="st2" d="M104.06,116.82l-7.29-34.47-.05-.2c0-.31.19-.46.56-.46h6.58c.41,0,.63.19.66.56l3.52,22.44c.03.14.08.2.15.2s.12-.07.15-.2l3.42-22.44c.03-.37.25-.56.66-.56h6.37c.44,0,.61.22.51.66l-7.34,34.47c-.07.37-.29.56-.66.56h-6.58c-.37,0-.6-.19-.66-.56Z"/>
      <path class="st2" d="M141.72,87.68c-.12.12-.26.18-.43.18h-10.66c-.17,0-.25.08-.25.25v8.06c0,.17.08.25.25.25h6.12c.17,0,.31.06.43.18.12.12.18.26.18.43v4.95c0,.17-.06.31-.18.43-.12.12-.26.18-.43.18h-6.12c-.17,0-.25.09-.25.25v8.11c0,.17.08.25.25.25h10.66c.17,0,.31.06.43.18.12.12.18.26.18.43v4.95c0,.17-.06.31-.18.43s-.26.18-.43.18h-17.49c-.17,0-.31-.06-.43-.18-.12-.12-.18-.26-.18-.43v-34.47c0-.17.06-.31.18-.43s.26-.18.43-.18h17.49c.17,0,.31.06.43.18.12.12.18.26.18.43v4.95c0,.17-.06.31-.18.43Z"/>
      <path class="st2" d="M159.34,116.87l-3.93-14.07c-.07-.14-.15-.2-.25-.2h-1.73c-.17,0-.25.09-.25.25v13.92c0,.17-.06.31-.18.43-.12.12-.26.18-.43.18h-5.97c-.17,0-.31-.06-.43-.18-.12-.12-.18-.26-.18-.43v-34.47c0-.17.06-.31.18-.43s.26-.18.43-.18h10.3c1.87,0,3.54.45,5,1.35,1.46.9,2.59,2.17,3.39,3.8.8,1.63,1.2,3.5,1.2,5.61s-.38,3.77-1.15,5.3c-.76,1.53-1.83,2.72-3.19,3.57-.07.03-.12.08-.15.13-.03.05-.03.11,0,.18l4.69,15.04.05.2c0,.34-.19.51-.56.51h-6.12c-.37,0-.61-.17-.71-.51ZM153.17,88.11v8.72c0,.17.08.25.25.25h2.29c1.05,0,1.91-.42,2.58-1.25.66-.83.99-1.95.99-3.34s-.33-2.56-.99-3.39-1.52-1.25-2.58-1.25h-2.29c-.17,0-.25.08-.25.25Z"/>
      <path class="st2" d="M175.42,117.15c-.12-.12-.18-.26-.18-.43v-13.26l-.05-.31-7.14-20.75c-.03-.07-.05-.15-.05-.25,0-.31.19-.46.56-.46h6.27c.37,0,.61.17.71.51l3.16,12.19c.03.1.08.15.15.15s.12-.05.15-.15l3.16-12.19c.1-.34.34-.51.71-.51h6.27c.2,0,.36.06.46.18.1.12.12.3.05.54l-7.19,20.75-.05.31v13.26c0,.17-.06.31-.18.43s-.26.18-.43.18h-5.97c-.17,0-.31-.06-.43-.18Z"/>
      <path class="st2" d="M213.87,81.86c.12.12.18.26.18.43v4.95c0,.17-.06.31-.18.43s-.26.18-.43.18h-6.37c-.17,0-.25.08-.25.25v28.66c0,.17-.06.31-.18.43s-.26.18-.43.18h-5.97c-.17,0-.31-.06-.43-.18-.12-.12-.18-.26-.18-.43v-28.66c0-.17-.08-.25-.25-.25h-6.12c-.17,0-.31-.06-.43-.18-.12-.12-.18-.26-.18-.43v-4.95c0-.17.06-.31.18-.43s.26-.18.43-.18h20.19c.17,0,.31.06.43.18Z"/>
      <path class="st2" d="M230.96,81.86c.12-.12.26-.18.43-.18h5.97c.17,0,.31.06.43.18.12.12.18.26.18.43v34.47c0,.17-.06.31-.18.43s-.26.18-.43.18h-5.97c-.17,0-.31-.06-.43-.18-.12-.12-.18-.26-.18-.43v-13.92c0-.17-.09-.25-.25-.25h-5.1c-.17,0-.25.09-.25.25v13.92c0,.17-.06.31-.18.43-.12.12-.26.18-.43.18h-5.97c-.17,0-.31-.06-.43-.18-.12-.12-.18-.26-.18-.43v-34.47c0-.17.06-.31.18-.43s.26-.18.43-.18h5.97c.17,0,.31.06.43.18.12.12.18.26.18.43v13.87c0,.17.08.25.25.25h5.1c.17,0,.25-.08.25-.25v-13.87c0-.17.06-.31.18-.43Z"/>
      <path class="st2" d="M243.09,117.2c-.12-.12-.18-.26-.18-.43v-34.47c0-.17.06-.31.18-.43s.26-.18.43-.18h5.97c.17,0,.31.06.43.18.12.12.18.26.18.43v34.47c0,.17-.06.31-.18.43-.12.12-.26.18-.43.18h-5.97c-.17,0-.31-.06-.43-.18Z"/>
      <path class="st2" d="M269.87,81.86c.12-.12.26-.18.43-.18h5.92c.17,0,.31.06.43.18.12.12.18.26.18.43v34.47c0,.17-.06.31-.18.43s-.26.18-.43.18h-6.73c-.34,0-.56-.17-.66-.51l-6.32-19.74c-.03-.1-.09-.14-.18-.13-.08.02-.13.08-.13.18l.05,19.58c0,.17-.06.31-.18.43s-.26.18-.43.18h-5.92c-.17,0-.31-.06-.43-.18-.12-.12-.18-.26-.18-.43v-34.47c0-.17.06-.31.18-.43s.26-.18.43-.18h6.68c.34,0,.56.17.66.51l6.37,19.74c.03.1.09.14.18.13.08-.02.13-.08.13-.18l-.05-19.58c0-.17.06-.31.18-.43Z"/>
      <path class="st2" d="M284.04,115.16c-1.85-1.75-2.78-4.09-2.78-7.01v-17.24c0-2.92.93-5.26,2.78-7.01,1.85-1.75,4.31-2.63,7.37-2.63s5.52.88,7.39,2.65c1.87,1.77,2.8,4.11,2.8,7.04v1.94c0,.17-.06.31-.18.43s-.26.18-.43.18h-5.97c-.17,0-.31-.06-.43-.18-.12-.12-.18-.26-.18-.43v-2.04c0-1.02-.27-1.84-.82-2.47-.54-.63-1.27-.94-2.19-.94s-1.6.31-2.14.94c-.54.63-.82,1.45-.82,2.47v17.34c0,1.02.27,1.84.82,2.47.54.63,1.26.94,2.14.94s1.65-.31,2.19-.94c.54-.63.82-1.45.82-2.47v-4.08c0-.17-.09-.25-.25-.25h-2.24c-.17,0-.31-.06-.43-.18-.12-.12-.18-.26-.18-.43v-4.54c0-.17.06-.31.18-.43s.26-.18.43-.18h9.08c.17,0,.31.06.43.18.12.12.18.26.18.43v9.43c0,2.92-.94,5.26-2.8,7.01-1.87,1.75-4.33,2.63-7.39,2.63s-5.52-.87-7.37-2.63Z"/>
      <path class="st2" d="M316.88,117.2c-.12-.12-.18-.26-.18-.43v-34.47c0-.17.06-.31.18-.43s.26-.18.43-.18h5.97c.17,0,.31.06.43.18.12.12.18.26.18.43v34.47c0,.17-.06.31-.18.43-.12.12-.26.18-.43.18h-5.97c-.17,0-.31-.06-.43-.18Z"/>
      <path class="st2" d="M332.87,116.62c-1.5-.78-2.65-1.88-3.47-3.29-.82-1.41-1.22-3.03-1.22-4.87v-1.48c0-.17.06-.31.18-.43s.26-.18.43-.18h5.86c.17,0,.31.06.43.18.12.12.18.26.18.43v1.12c0,1.05.27,1.9.82,2.55.54.65,1.22.97,2.04.97s1.5-.31,2.04-.92c.54-.61.82-1.41.82-2.4s-.34-1.89-1.02-2.63c-.68-.73-2.01-1.81-3.98-3.24-1.7-1.22-3.08-2.31-4.13-3.26-1.05-.95-1.96-2.12-2.7-3.52-.75-1.39-1.12-3.01-1.12-4.84,0-2.89.9-5.2,2.7-6.94,1.8-1.73,4.18-2.6,7.14-2.6s5.4.9,7.22,2.7c1.82,1.8,2.73,4.16,2.73,7.09v1.22c0,.17-.06.31-.18.43-.12.12-.26.18-.43.18h-5.86c-.17,0-.31-.06-.43-.18-.12-.12-.18-.26-.18-.43v-1.38c0-1.05-.26-1.89-.79-2.52-.53-.63-1.22-.94-2.07-.94s-1.48.3-1.99.89c-.51.6-.76,1.42-.76,2.47s.32,1.92.97,2.7c.65.78,1.92,1.87,3.82,3.26,2.11,1.56,3.7,2.83,4.77,3.8,1.07.97,1.9,2.04,2.5,3.21.59,1.17.89,2.58.89,4.21,0,2.99-.92,5.37-2.75,7.14-1.84,1.77-4.25,2.65-7.24,2.65-1.97,0-3.71-.39-5.2-1.17Z"/>
      <path class="st2" d="M362.83,117.2c-.12-.12-.18-.26-.18-.43v-34.47c0-.17.06-.31.18-.43s.26-.18.43-.18h5.97c.17,0,.31.06.43.18.12.12.18.26.18.43v34.47c0,.17-.06.31-.18.43-.12.12-.26.18-.43.18h-5.97c-.17,0-.31-.06-.43-.18Z"/>
      <path class="st2" d="M389.6,81.86c.12-.12.26-.18.43-.18h5.91c.17,0,.31.06.43.18.12.12.18.26.18.43v34.47c0,.17-.06.31-.18.43-.12.12-.26.18-.43.18h-6.73c-.34,0-.56-.17-.66-.51l-6.32-19.74c-.04-.1-.09-.14-.18-.13-.09.02-.13.08-.13.18l.05,19.58c0,.17-.06.31-.18.43-.12.12-.26.18-.43.18h-5.92c-.17,0-.31-.06-.43-.18-.12-.12-.18-.26-.18-.43v-34.47c0-.17.06-.31.18-.43s.26-.18.43-.18h6.68c.34,0,.56.17.66.51l6.38,19.74c.03.1.09.14.18.13s.13-.08.13-.18l-.05-19.58c0-.17.06-.31.18-.43Z"/>
      <path class="st2" d="M421.72,81.86c.12.12.18.26.18.43v4.95c0,.17-.06.31-.18.43-.12.12-.26.18-.43.18h-6.37c-.17,0-.25.08-.25.25v28.66c0,.17-.06.31-.18.43-.12.12-.26.18-.43.18h-5.97c-.17,0-.31-.06-.43-.18-.12-.12-.18-.26-.18-.43v-28.66c0-.17-.08-.25-.25-.25h-6.12c-.17,0-.31-.06-.43-.18-.12-.12-.18-.26-.18-.43v-4.95c0-.17.06-.31.18-.43.12-.12.26-.18.43-.18h20.19c.17,0,.31.06.43.18Z"/>
      <path class="st2" d="M444.37,87.68c-.12.12-.26.18-.43.18h-10.66c-.17,0-.26.08-.26.25v8.06c0,.17.08.25.26.25h6.12c.17,0,.31.06.43.18.12.12.18.26.18.43v4.95c0,.17-.06.31-.18.43-.12.12-.26.18-.43.18h-6.12c-.17,0-.26.09-.26.25v8.11c0,.17.08.25.26.25h10.66c.17,0,.31.06.43.18s.18.26.18.43v4.95c0,.17-.06.31-.18.43-.12.12-.26.18-.43.18h-17.49c-.17,0-.31-.06-.43-.18-.12-.12-.18-.26-.18-.43v-34.47c0-.17.06-.31.18-.43.12-.12.26-.18.43-.18h17.49c.17,0,.31.06.43.18.12.12.18.26.18.43v4.95c0,.17-.06.31-.18.43Z"/>
      <path class="st2" d="M461.98,116.87l-3.93-14.07c-.07-.14-.15-.2-.25-.2h-1.73c-.17,0-.26.09-.26.25v13.92c0,.17-.06.31-.18.43-.12.12-.26.18-.43.18h-5.97c-.17,0-.31-.06-.43-.18-.12-.12-.18-.26-.18-.43v-34.47c0-.17.06-.31.18-.43.12-.12.26-.18.43-.18h10.3c1.87,0,3.54.45,5,1.35,1.46.9,2.59,2.17,3.39,3.8s1.2,3.5,1.2,5.61-.38,3.77-1.15,5.3c-.77,1.53-1.83,2.72-3.19,3.57-.07.03-.12.08-.15.13-.03.05-.03.11,0,.18l4.69,15.04.05.2c0,.34-.19.51-.56.51h-6.12c-.38,0-.61-.17-.71-.51ZM455.81,88.11v8.72c0,.17.08.25.26.25h2.29c1.05,0,1.91-.42,2.58-1.25.66-.83,1-1.95,1-3.34s-.33-2.56-1-3.39c-.66-.83-1.52-1.25-2.58-1.25h-2.29c-.17,0-.26.08-.26.25Z"/>
      <path class="st2" d="M475.37,115.06c-1.85-1.82-2.78-4.26-2.78-7.32v-16.52c0-3.03.93-5.44,2.78-7.24,1.85-1.8,4.31-2.7,7.37-2.7s5.57.9,7.42,2.7c1.85,1.8,2.78,4.22,2.78,7.24v.56c0,.17-.06.31-.18.43-.12.12-.26.18-.43.18l-5.97.25c-.41,0-.61-.19-.61-.56v-1.33c0-.99-.27-1.79-.82-2.4s-1.27-.92-2.19-.92-1.6.31-2.14.92c-.54.61-.82,1.41-.82,2.4v17.59c0,.99.27,1.78.82,2.37.54.6,1.26.89,2.14.89s1.65-.3,2.19-.89c.54-.59.82-1.38.82-2.37v-1.38c0-.17.06-.31.18-.43.12-.12.26-.18.43-.18l5.97.25c.17,0,.31.06.43.18.12.12.18.26.18.43v.51c0,3.06-.94,5.5-2.8,7.32-1.87,1.82-4.33,2.73-7.39,2.73s-5.52-.91-7.37-2.73Z"/>
      <path class="st2" d="M499.51,115.03c-1.87-1.84-2.8-4.28-2.8-7.34v-16.32c0-3.06.94-5.51,2.8-7.34,1.87-1.84,4.37-2.75,7.5-2.75s5.63.92,7.52,2.75,2.83,4.28,2.83,7.34v16.32c0,3.06-.94,5.51-2.83,7.34s-4.39,2.75-7.52,2.75-5.63-.92-7.5-2.75ZM509.31,110.62c.58-.66.87-1.54.87-2.63v-16.93c0-1.09-.29-1.96-.87-2.63s-1.34-.99-2.29-.99-1.71.33-2.27.99c-.56.66-.84,1.54-.84,2.63v16.93c0,1.09.28,1.96.84,2.63.56.66,1.32.99,2.27.99s1.72-.33,2.29-.99Z"/>
      <path class="st2" d="M536.56,81.86c.12-.12.26-.18.43-.18h5.92c.17,0,.31.06.43.18.12.12.18.26.18.43v34.47c0,.17-.06.31-.18.43-.12.12-.26.18-.43.18h-6.73c-.34,0-.56-.17-.66-.51l-6.32-19.74c-.03-.1-.09-.14-.18-.13-.09.02-.13.08-.13.18l.05,19.58c0,.17-.06.31-.18.43-.12.12-.26.18-.43.18h-5.92c-.17,0-.31-.06-.43-.18-.12-.12-.18-.26-.18-.43v-34.47c0-.17.06-.31.18-.43.12-.12.26-.18.43-.18h6.68c.34,0,.56.17.66.51l6.37,19.74c.03.1.09.14.18.13.08-.02.13-.08.13-.18l-.05-19.58c0-.17.06-.31.18-.43Z"/>
      <path class="st2" d="M563.23,81.86c.12-.12.26-.18.43-.18h5.92c.17,0,.31.06.43.18.12.12.18.26.18.43v34.47c0,.17-.06.31-.18.43-.12.12-.26.18-.43.18h-6.73c-.34,0-.56-.17-.66-.51l-6.32-19.74c-.03-.1-.09-.14-.18-.13-.09.02-.13.08-.13.18l.05,19.58c0,.17-.06.31-.18.43-.12.12-.26.18-.43.18h-5.92c-.17,0-.31-.06-.43-.18-.12-.12-.18-.26-.18-.43v-34.47c0-.17.06-.31.18-.43.12-.12.26-.18.43-.18h6.68c.34,0,.56.17.66.51l6.37,19.74c.03.1.09.14.18.13.08-.02.13-.08.13-.18l-.05-19.58c0-.17.06-.31.18-.43Z"/>
      <path class="st2" d="M593.68,87.68c-.12.12-.26.18-.43.18h-10.66c-.17,0-.26.08-.26.25v8.06c0,.17.08.25.26.25h6.12c.17,0,.31.06.43.18.12.12.18.26.18.43v4.95c0,.17-.06.31-.18.43-.12.12-.26.18-.43.18h-6.12c-.17,0-.26.09-.26.25v8.11c0,.17.08.25.26.25h10.66c.17,0,.31.06.43.18s.18.26.18.43v4.95c0,.17-.06.31-.18.43-.12.12-.26.18-.43.18h-17.49c-.17,0-.31-.06-.43-.18-.12-.12-.18-.26-.18-.43v-34.47c0-.17.06-.31.18-.43.12-.12.26-.18.43-.18h17.49c.17,0,.31.06.43.18.12.12.18.26.18.43v4.95c0,.17-.06.31-.18.43Z"/>
      <path class="st2" d="M600.2,115.06c-1.85-1.82-2.78-4.26-2.78-7.32v-16.52c0-3.03.93-5.44,2.78-7.24,1.85-1.8,4.31-2.7,7.37-2.7s5.57.9,7.42,2.7c1.85,1.8,2.78,4.22,2.78,7.24v.56c0,.17-.06.31-.18.43-.12.12-.26.18-.43.18l-5.97.25c-.41,0-.61-.19-.61-.56v-1.33c0-.99-.27-1.79-.82-2.4s-1.27-.92-2.19-.92-1.6.31-2.14.92c-.54.61-.82,1.41-.82,2.4v17.59c0,.99.27,1.78.82,2.37.54.6,1.26.89,2.14.89s1.65-.3,2.19-.89c.54-.59.82-1.38.82-2.37v-1.38c0-.17.06-.31.18-.43.12-.12.26-.18.43-.18l5.97.25c.17,0,.31.06.43.18.12.12.18.26.18.43v.51c0,3.06-.94,5.5-2.8,7.32-1.87,1.82-4.33,2.73-7.39,2.73s-5.52-.91-7.37-2.73Z"/>
      <path class="st2" d="M642.27,81.86c.12.12.18.26.18.43v4.95c0,.17-.06.31-.18.43-.12.12-.26.18-.43.18h-6.37c-.17,0-.25.08-.25.25v28.66c0,.17-.06.31-.18.43-.12.12-.26.18-.43.18h-5.97c-.17,0-.31-.06-.43-.18-.12-.12-.18-.26-.18-.43v-28.66c0-.17-.08-.25-.25-.25h-6.12c-.17,0-.31-.06-.43-.18-.12-.12-.18-.26-.18-.43v-4.95c0-.17.06-.31.18-.43.12-.12.26-.18.43-.18h20.19c.17,0,.31.06.43.18Z"/>
      <path class="st2" d="M664.91,87.68c-.12.12-.26.18-.43.18h-10.66c-.17,0-.26.08-.26.25v8.06c0,.17.08.25.26.25h6.12c.17,0,.31.06.43.18.12.12.18.26.18.43v4.95c0,.17-.06.31-.18.43-.12.12-.26.18-.43.18h-6.12c-.17,0-.26.09-.26.25v8.11c0,.17.08.25.26.25h10.66c.17,0,.31.06.43.18s.18.26.18.43v4.95c0,.17-.06.31-.18.43-.12.12-.26.18-.43.18h-17.49c-.17,0-.31-.06-.43-.18-.12-.12-.18-.26-.18-.43v-34.47c0-.17.06-.31.18-.43.12-.12.26-.18.43-.18h17.49c.17,0,.31.06.43.18.12.12.18.26.18.43v4.95c0,.17-.06.31-.18.43Z"/>
      <path class="st2" d="M669.35,117.2c-.12-.12-.18-.26-.18-.43v-34.47c0-.17.06-.31.18-.43.12-.12.26-.18.43-.18h9.23c3.09,0,5.58.9,7.45,2.7,1.87,1.8,2.8,4.2,2.8,7.19v15.91c0,2.99-.94,5.39-2.8,7.19-1.87,1.8-4.35,2.7-7.45,2.7h-9.23c-.17,0-.31-.06-.43-.18ZM676.62,111.21l2.29-.05c.92-.03,1.67-.42,2.24-1.17.58-.75.88-1.73.92-2.96v-14.99c0-1.29-.29-2.31-.87-3.06-.58-.75-1.36-1.12-2.35-1.12h-2.24c-.17,0-.26.08-.26.25v22.85c0,.17.08.25.26.25Z"/>
    </g>
  </g>
  <g>
    <path class="st0" d="M274.15,63.73l-6.88-34.47-.05-.2c0-.31.19-.46.56-.46h6.22c.41,0,.63.19.66.56l2.91,18.36c.03.14.08.2.15.2s.12-.07.15-.2l2.75-18.36c.03-.37.25-.56.66-.56h5.15c.41,0,.63.19.66.56l3.01,18.36c.03.14.08.2.15.2s.12-.07.15-.2l2.6-18.36c.03-.37.25-.56.66-.56h6.02c.44,0,.63.22.56.66l-6.48,34.47c-.03.37-.25.56-.66.56h-5.51c-.41,0-.63-.19-.66-.56l-3.01-18.87c-.03-.14-.08-.2-.15-.2s-.12.07-.15.2l-2.7,18.87c-.03.37-.25.56-.66.56h-5.46c-.38,0-.6-.19-.66-.56Z"/>
    <path class="st0" d="M322.57,34.59c-.12.12-.26.18-.43.18h-10.66c-.17,0-.25.08-.25.25v8.06c0,.17.08.25.25.25h6.12c.17,0,.31.06.43.18.12.12.18.26.18.43v4.95c0,.17-.06.31-.18.43-.12.12-.26.18-.43.18h-6.12c-.17,0-.25.09-.25.25v8.11c0,.17.08.25.25.25h10.66c.17,0,.31.06.43.18s.18.26.18.43v4.95c0,.17-.06.31-.18.43-.12.12-.26.18-.43.18h-17.49c-.17,0-.31-.06-.43-.18-.12-.12-.18-.26-.18-.43V29.21c0-.17.06-.31.18-.43.12-.12.26-.18.43-.18h17.49c.17,0,.31.06.43.18.12.12.18.26.18.43v4.95c0,.17-.06.31-.18.43Z"/>
    <path class="st0" d="M355.13,61.74c-1.9,1.7-4.37,2.55-7.39,2.55h-9.64c-.17,0-.31-.06-.43-.18-.12-.12-.18-.26-.18-.43V29.21c0-.17.06-.31.18-.43.12-.12.26-.18.43-.18h8.52c3.4,0,6.06.82,7.98,2.45,1.92,1.63,2.88,4.06,2.88,7.29s-1.16,5.81-3.47,7.34c-.14.1-.15.2-.05.31,2.69,1.9,4.03,4.73,4.03,8.47,0,3.16-.95,5.59-2.86,7.29ZM344.67,35.02v8.01c0,.17.08.25.25.25h1.84c1.16,0,2.06-.37,2.7-1.1.65-.73.97-1.76.97-3.08,0-1.39-.31-2.46-.94-3.21-.63-.75-1.54-1.12-2.73-1.12h-1.84c-.17,0-.25.08-.25.25ZM349.82,56.85c.65-.82.97-1.97.97-3.47s-.32-2.69-.97-3.57c-.65-.88-1.51-1.33-2.6-1.33h-2.29c-.17,0-.25.09-.25.26v9.08c0,.17.08.26.25.26h2.24c1.12,0,2.01-.41,2.65-1.22Z"/>
    <path class="st0" d="M380.29,34.59c-.12.12-.26.18-.43.18h-10.66c-.17,0-.25.08-.25.25v8.06c0,.17.08.25.25.25h6.12c.17,0,.31.06.43.18.12.12.18.26.18.43v4.95c0,.17-.06.31-.18.43-.12.12-.26.18-.43.18h-6.12c-.17,0-.25.09-.25.25v8.11c0,.17.08.25.25.25h10.66c.17,0,.31.06.43.18.12.12.18.26.18.43v4.95c0,.17-.06.31-.18.43-.12.12-.26.18-.43.18h-17.49c-.17,0-.31-.06-.43-.18-.12-.12-.18-.26-.18-.43V29.21c0-.17.06-.31.18-.43.12-.12.26-.18.43-.18h17.49c.17,0,.31.06.43.18.12.12.18.26.18.43v4.95c0,.17-.06.31-.18.43Z"/>
    <path class="st0" d="M384.73,64.11c-.12-.12-.18-.26-.18-.43V29.21c0-.17.06-.31.18-.43.12-.12.26-.18.43-.18h5.97c.17,0,.31.06.43.18.12.12.18.26.18.43v28.66c0,.17.08.25.25.25h10.71c.17,0,.31.06.43.18s.18.26.18.43v4.95c0,.17-.06.31-.18.43-.12.12-.26.18-.43.18h-17.54c-.17,0-.31-.06-.43-.18Z"/>
    <path class="st0" d="M406.91,64.11c-.12-.12-.18-.26-.18-.43V29.21c0-.17.06-.31.18-.43.12-.12.26-.18.43-.18h5.97c.17,0,.31.06.43.18.12.12.18.26.18.43v34.47c0,.17-.06.31-.18.43-.12.12-.26.18-.43.18h-5.97c-.17,0-.31-.06-.43-.18Z"/>
    <path class="st0" d="M437.46,34.59c-.12.12-.26.18-.43.18h-10.66c-.17,0-.25.08-.25.25v8.06c0,.17.08.25.25.25h6.12c.17,0,.31.06.43.18.12.12.18.26.18.43v4.95c0,.17-.06.31-.18.43-.12.12-.26.18-.43.18h-6.12c-.17,0-.25.09-.25.25v8.11c0,.17.08.25.25.25h10.66c.17,0,.31.06.43.18.12.12.18.26.18.43v4.95c0,.17-.06.31-.18.43-.12.12-.26.18-.43.18h-17.49c-.17,0-.31-.06-.43-.18-.12-.12-.18-.26-.18-.43V29.21c0-.17.06-.31.18-.43.12-.12.26-.18.43-.18h17.49c.17,0,.31.06.43.18.12.12.18.26.18.43v4.95c0,.17-.06.31-.18.43Z"/>
    <path class="st0" d="M447.94,63.73l-7.29-34.47-.05-.2c0-.31.19-.46.56-.46h6.58c.41,0,.63.19.66.56l3.52,22.44c.03.14.08.2.15.2s.12-.07.15-.2l3.42-22.44c.03-.37.25-.56.66-.56h6.37c.44,0,.61.22.51.66l-7.34,34.47c-.07.37-.29.56-.66.56h-6.58c-.38,0-.6-.19-.66-.56Z"/>
    <path class="st0" d="M485.59,34.59c-.12.12-.26.18-.43.18h-10.66c-.17,0-.25.08-.25.25v8.06c0,.17.08.25.25.25h6.12c.17,0,.31.06.43.18.12.12.18.26.18.43v4.95c0,.17-.06.31-.18.43-.12.12-.26.18-.43.18h-6.12c-.17,0-.25.09-.25.25v8.11c0,.17.08.25.25.25h10.66c.17,0,.31.06.43.18.12.12.18.26.18.43v4.95c0,.17-.06.31-.18.43-.12.12-.26.18-.43.18h-17.49c-.17,0-.31-.06-.43-.18-.12-.12-.18-.26-.18-.43V29.21c0-.17.06-.31.18-.43.12-.12.26-.18.43-.18h17.49c.17,0,.31.06.43.18.12.12.18.26.18.43v4.95c0,.17-.06.31-.18.43Z"/>
  </g>
</svg>