<?xml version="1.0" encoding="UTF-8"?>
<svg id="Layer_1" xmlns="http://www.w3.org/2000/svg" version="1.1" viewBox="0 0 764 189.24">
  <!-- Generator: Adobe Illustrator 29.6.1, SVG Export Plug-In . SVG Version: 2.1.1 Build 9)  -->
  <defs>
    <style>
      .st0 {
        fill: #fff;
      }

      .st1 {
        fill: #00e1ff;
      }
    </style>
  </defs>
  <g>
    <g>
      <path class="st1" d="M79.73,42.43c-1.5-1.47-2.25-3.43-2.25-5.88v-13.07c0-2.45.75-4.41,2.25-5.88,1.5-1.47,3.5-2.21,6.01-2.21s4.51.74,6.03,2.21c1.51,1.47,2.27,3.43,2.27,5.88v13.07c0,2.45-.76,4.41-2.27,5.88-1.51,1.47-3.52,2.21-6.03,2.21s-4.51-.74-6.01-2.21ZM87.58,38.9c.46-.53.69-1.23.69-2.1v-13.56c0-.87-.23-1.57-.69-2.1-.46-.53-1.08-.8-1.84-.8s-1.37.27-1.82.8c-.45.53-.67,1.23-.67,2.1v13.56c0,.87.22,1.57.67,2.1.45.53,1.06.8,1.82.8s1.38-.26,1.84-.8Z"/>
      <path class="st1" d="M99.69,42.33c-1.48-1.54-2.23-3.59-2.23-6.15v-19.98c0-.14.05-.25.14-.35.1-.09.21-.14.35-.14h4.78c.14,0,.25.05.35.14.09.1.14.21.14.35v20.55c0,.87.22,1.58.65,2.12.44.54,1.01.82,1.72.82s1.27-.27,1.7-.82c.42-.54.63-1.25.63-2.12v-20.55c0-.14.05-.25.14-.35s.21-.14.35-.14h4.78c.14,0,.25.05.35.14.1.1.14.21.14.35v19.98c0,2.56-.74,4.61-2.23,6.15-1.48,1.54-3.44,2.31-5.86,2.31s-4.42-.77-5.9-2.31Z"/>
      <path class="st1" d="M128.23,43.9l-3.15-11.28c-.05-.11-.12-.16-.2-.16h-1.39c-.14,0-.2.07-.2.21v11.15c0,.14-.05.25-.14.35-.1.1-.21.14-.35.14h-4.78c-.14,0-.25-.05-.35-.14-.1-.1-.14-.21-.14-.35v-27.62c0-.14.05-.25.14-.35.1-.09.21-.14.35-.14h8.25c1.5,0,2.83.36,4,1.08,1.17.72,2.08,1.74,2.72,3.04.64,1.31.96,2.81.96,4.49s-.31,3.02-.92,4.25-1.46,2.18-2.55,2.86c-.06.03-.1.06-.12.1-.03.04-.03.09,0,.14l3.76,12.05.04.16c0,.27-.15.41-.45.41h-4.9c-.3,0-.49-.14-.57-.41ZM123.29,20.86v6.99c0,.14.07.2.2.2h1.84c.84,0,1.53-.33,2.06-1,.53-.67.8-1.56.8-2.68s-.27-2.05-.8-2.72c-.53-.67-1.22-1-2.06-1h-1.84c-.14,0-.2.07-.2.2Z"/>
      <path class="st1" d="M147.49,42.45c-1.48-1.46-2.23-3.41-2.23-5.86v-13.24c0-2.42.74-4.36,2.23-5.8,1.48-1.44,3.45-2.17,5.9-2.17s4.46.72,5.94,2.17c1.48,1.44,2.23,3.38,2.23,5.8v.45c0,.14-.05.25-.14.35-.1.1-.21.14-.35.14l-4.78.2c-.33,0-.49-.15-.49-.45v-1.06c0-.79-.22-1.43-.65-1.92-.44-.49-1.02-.74-1.76-.74s-1.28.25-1.72.74-.65,1.13-.65,1.92v14.1c0,.79.22,1.42.65,1.9.44.48,1.01.71,1.72.71s1.32-.24,1.76-.71c.44-.48.65-1.11.65-1.9v-1.1c0-.14.05-.25.14-.35.1-.1.21-.14.35-.14l4.78.21c.14,0,.25.05.35.14.1.1.14.21.14.35v.41c0,2.45-.75,4.41-2.25,5.86-1.5,1.46-3.47,2.19-5.92,2.19s-4.42-.73-5.9-2.19Z"/>
      <path class="st1" d="M168.19,43.7c-1.2-.63-2.12-1.5-2.78-2.63-.65-1.13-.98-2.43-.98-3.9v-1.19c0-.14.05-.25.14-.35.1-.1.21-.14.35-.14h4.7c.14,0,.25.05.35.14.1.1.14.21.14.35v.9c0,.84.22,1.53.65,2.04.44.52.98.78,1.63.78s1.2-.25,1.63-.74c.44-.49.65-1.13.65-1.92s-.27-1.52-.82-2.1c-.55-.59-1.61-1.45-3.19-2.59-1.36-.98-2.47-1.85-3.31-2.62-.84-.76-1.57-1.7-2.17-2.82-.6-1.12-.9-2.41-.9-3.88,0-2.31.72-4.17,2.17-5.56,1.44-1.39,3.35-2.08,5.72-2.08s4.32.72,5.78,2.17c1.46,1.44,2.19,3.34,2.19,5.68v.98c0,.14-.05.25-.14.35-.1.1-.21.14-.35.14h-4.7c-.14,0-.25-.05-.35-.14-.1-.09-.14-.21-.14-.35v-1.1c0-.84-.21-1.52-.63-2.02-.42-.5-.97-.76-1.65-.76s-1.19.24-1.59.71c-.41.48-.61,1.14-.61,1.98s.26,1.54.78,2.17c.52.63,1.54,1.5,3.06,2.61,1.69,1.25,2.96,2.27,3.82,3.04s1.53,1.63,2,2.57c.48.94.71,2.06.71,3.37,0,2.4-.74,4.3-2.21,5.72-1.47,1.42-3.4,2.12-5.8,2.12-1.58,0-2.97-.31-4.17-.94Z"/>
      <path class="st1" d="M194.21,43.9l-3.15-11.28c-.05-.11-.12-.16-.2-.16h-1.39c-.14,0-.2.07-.2.21v11.15c0,.14-.05.25-.14.35-.1.1-.21.14-.35.14h-4.78c-.14,0-.25-.05-.35-.14-.1-.1-.14-.21-.14-.35v-27.62c0-.14.05-.25.14-.35.1-.09.21-.14.35-.14h8.25c1.5,0,2.83.36,4,1.08,1.17.72,2.08,1.74,2.72,3.04.64,1.31.96,2.81.96,4.49s-.31,3.02-.92,4.25-1.46,2.18-2.55,2.86c-.06.03-.1.06-.12.1-.03.04-.03.09,0,.14l3.76,12.05.04.16c0,.27-.15.41-.45.41h-4.9c-.3,0-.49-.14-.57-.41ZM189.27,20.86v6.99c0,.14.07.2.2.2h1.84c.84,0,1.53-.33,2.06-1,.53-.67.8-1.56.8-2.68s-.27-2.05-.8-2.72c-.53-.67-1.22-1-2.06-1h-1.84c-.14,0-.2.07-.2.2Z"/>
      <path class="st1" d="M226.47,20.51c-.1.1-.21.14-.35.14h-8.5c-.14,0-.2.07-.2.2v6.46c0,.14.07.2.2.2h4.86c.14,0,.25.05.35.14.1.1.14.21.14.35v3.96c0,.14-.05.25-.14.35-.1.1-.21.14-.35.14h-4.86c-.14,0-.2.07-.2.21v11.15c0,.14-.05.25-.14.35-.1.1-.21.14-.35.14h-4.78c-.14,0-.25-.05-.35-.14-.1-.1-.14-.21-.14-.35v-27.62c0-.14.05-.25.14-.35.1-.09.21-.14.35-.14h13.97c.14,0,.25.05.35.14.1.1.14.21.14.35v3.96c0,.14-.05.25-.14.35Z"/>
      <path class="st1" d="M231.06,42.43c-1.5-1.47-2.25-3.43-2.25-5.88v-13.07c0-2.45.75-4.41,2.25-5.88,1.5-1.47,3.5-2.21,6.01-2.21s4.51.74,6.03,2.21c1.51,1.47,2.27,3.43,2.27,5.88v13.07c0,2.45-.76,4.41-2.27,5.88-1.51,1.47-3.52,2.21-6.03,2.21s-4.51-.74-6.01-2.21ZM238.91,38.9c.46-.53.69-1.23.69-2.1v-13.56c0-.87-.23-1.57-.69-2.1-.46-.53-1.08-.8-1.84-.8s-1.37.27-1.82.8c-.45.53-.67,1.23-.67,2.1v13.56c0,.87.22,1.57.67,2.1.45.53,1.06.8,1.82.8s1.38-.26,1.84-.8Z"/>
      <path class="st1" d="M250.73,42.45c-1.48-1.46-2.23-3.41-2.23-5.86v-13.24c0-2.42.74-4.36,2.23-5.8,1.48-1.44,3.45-2.17,5.9-2.17s4.46.72,5.94,2.17c1.48,1.44,2.23,3.38,2.23,5.8v.45c0,.14-.05.25-.14.35-.1.1-.21.14-.35.14l-4.78.2c-.33,0-.49-.15-.49-.45v-1.06c0-.79-.22-1.43-.65-1.92-.44-.49-1.02-.74-1.76-.74s-1.28.25-1.72.74-.65,1.13-.65,1.92v14.1c0,.79.22,1.42.65,1.9.44.48,1.01.71,1.72.71s1.32-.24,1.76-.71c.44-.48.65-1.11.65-1.9v-1.1c0-.14.05-.25.14-.35.1-.1.21-.14.35-.14l4.78.21c.14,0,.25.05.35.14.1.1.14.21.14.35v.41c0,2.45-.75,4.41-2.25,5.86-1.5,1.46-3.47,2.19-5.92,2.19s-4.42-.73-5.9-2.19Z"/>
      <path class="st1" d="M270.34,42.33c-1.48-1.54-2.23-3.59-2.23-6.15v-19.98c0-.14.05-.25.14-.35.1-.09.21-.14.35-.14h4.78c.14,0,.25.05.35.14.09.1.14.21.14.35v20.55c0,.87.22,1.58.65,2.12.44.54,1.01.82,1.72.82s1.27-.27,1.7-.82c.42-.54.63-1.25.63-2.12v-20.55c0-.14.05-.25.14-.35s.21-.14.35-.14h4.78c.14,0,.25.05.35.14.1.1.14.21.14.35v19.98c0,2.56-.74,4.61-2.23,6.15-1.48,1.54-3.44,2.31-5.86,2.31s-4.42-.77-5.9-2.31Z"/>
      <path class="st1" d="M291.36,43.7c-1.2-.63-2.12-1.5-2.78-2.63-.65-1.13-.98-2.43-.98-3.9v-1.19c0-.14.05-.25.14-.35.1-.1.21-.14.35-.14h4.7c.14,0,.25.05.35.14.1.1.14.21.14.35v.9c0,.84.22,1.53.65,2.04.44.52.98.78,1.63.78s1.2-.25,1.63-.74c.44-.49.65-1.13.65-1.92s-.27-1.52-.82-2.1c-.55-.59-1.61-1.45-3.19-2.59-1.36-.98-2.47-1.85-3.31-2.62-.84-.76-1.57-1.7-2.17-2.82-.6-1.12-.9-2.41-.9-3.88,0-2.31.72-4.17,2.17-5.56,1.44-1.39,3.35-2.08,5.72-2.08s4.32.72,5.78,2.17c1.46,1.44,2.19,3.34,2.19,5.68v.98c0,.14-.05.25-.14.35-.1.1-.21.14-.35.14h-4.7c-.14,0-.25-.05-.35-.14-.1-.09-.14-.21-.14-.35v-1.1c0-.84-.21-1.52-.63-2.02-.42-.5-.97-.76-1.65-.76s-1.19.24-1.59.71c-.41.48-.61,1.14-.61,1.98s.26,1.54.78,2.17c.52.63,1.54,1.5,3.06,2.61,1.69,1.25,2.96,2.27,3.82,3.04s1.53,1.63,2,2.57c.48.94.71,2.06.71,3.37,0,2.4-.74,4.3-2.21,5.72-1.47,1.42-3.4,2.12-5.8,2.12-1.58,0-2.97-.31-4.17-.94Z"/>
      <path class="st1" d="M315.36,44.17c-.1-.1-.14-.21-.14-.35v-27.62c0-.14.05-.25.14-.35.1-.09.21-.14.35-.14h4.78c.14,0,.25.05.35.14.09.1.14.21.14.35v27.62c0,.14-.05.25-.14.35-.1.1-.21.14-.35.14h-4.78c-.14,0-.25-.05-.35-.14Z"/>
      <path class="st1" d="M328.17,43.7c-1.2-.63-2.12-1.5-2.78-2.63-.65-1.13-.98-2.43-.98-3.9v-1.19c0-.14.05-.25.14-.35.1-.1.21-.14.35-.14h4.7c.14,0,.25.05.35.14.1.1.14.21.14.35v.9c0,.84.22,1.53.65,2.04.44.52.98.78,1.63.78s1.2-.25,1.63-.74c.44-.49.65-1.13.65-1.92s-.27-1.52-.82-2.1c-.55-.59-1.61-1.45-3.19-2.59-1.36-.98-2.47-1.85-3.31-2.62-.84-.76-1.57-1.7-2.17-2.82-.6-1.12-.9-2.41-.9-3.88,0-2.31.72-4.17,2.17-5.56,1.44-1.39,3.35-2.08,5.72-2.08s4.32.72,5.78,2.17c1.46,1.44,2.19,3.34,2.19,5.68v.98c0,.14-.05.25-.14.35-.1.1-.21.14-.35.14h-4.7c-.14,0-.25-.05-.35-.14-.1-.09-.14-.21-.14-.35v-1.1c0-.84-.21-1.52-.63-2.02-.42-.5-.97-.76-1.65-.76s-1.19.24-1.59.71c-.41.48-.61,1.14-.61,1.98s.26,1.54.78,2.17c.52.63,1.54,1.5,3.06,2.61,1.69,1.25,2.96,2.27,3.82,3.04s1.53,1.63,2,2.57c.48.94.71,2.06.71,3.37,0,2.4-.74,4.3-2.21,5.72-1.47,1.42-3.4,2.12-5.8,2.12-1.58,0-2.97-.31-4.17-.94Z"/>
      <path class="st1" d="M355.2,15.85c.1-.09.21-.14.35-.14h4.74c.14,0,.25.05.35.14.1.1.14.21.14.35v27.62c0,.14-.05.25-.14.35-.1.1-.21.14-.35.14h-5.39c-.27,0-.45-.14-.53-.41l-5.07-15.81c-.03-.08-.08-.12-.14-.1-.07.01-.1.06-.1.14l.04,15.69c0,.14-.05.25-.14.35-.1.1-.21.14-.35.14h-4.74c-.14,0-.25-.05-.35-.14-.1-.1-.14-.21-.14-.35v-27.62c0-.14.05-.25.14-.35.1-.09.21-.14.35-.14h5.35c.27,0,.45.14.53.41l5.11,15.81c.03.08.07.12.14.1.07-.01.1-.06.1-.14l-.04-15.69c0-.14.05-.25.14-.35Z"/>
      <path class="st1" d="M370.4,15.85c.07.1.07.24.02.43l-2.82,8.25c-.08.27-.26.41-.53.41h-3.6c-.35,0-.49-.18-.41-.53l1.68-8.25c.05-.3.23-.45.53-.45h4.78c.16,0,.28.05.35.14Z"/>
      <path class="st1" d="M388.99,15.85c.1.1.14.21.14.35v3.96c0,.14-.05.25-.14.35-.1.1-.21.14-.35.14h-5.11c-.14,0-.2.07-.2.2v22.96c0,.14-.05.25-.14.35s-.21.14-.35.14h-4.78c-.14,0-.25-.05-.35-.14-.1-.1-.14-.21-.14-.35v-22.96c0-.14-.07-.2-.2-.2h-4.9c-.14,0-.25-.05-.35-.14-.1-.09-.14-.21-.14-.35v-3.96c0-.14.05-.25.14-.35.1-.09.21-.14.35-.14h16.18c.14,0,.25.05.35.14Z"/>
      <path class="st1" d="M401.79,42.53c-1.47-1.4-2.21-3.26-2.21-5.58v-2.82c0-.14.05-.25.14-.35.1-.09.21-.14.35-.14h4.78c.14,0,.25.05.35.14.1.1.14.21.14.35v2.9c0,.79.2,1.43.61,1.92.41.49.95.74,1.63.74s1.27-.25,1.7-.74c.42-.49.63-1.13.63-1.92v-20.84c0-.14.05-.25.14-.35s.21-.14.35-.14h4.78c.14,0,.25.05.35.14.09.1.14.21.14.35v20.75c0,2.32-.74,4.17-2.23,5.58-1.48,1.4-3.44,2.1-5.86,2.1s-4.33-.7-5.8-2.1Z"/>
      <path class="st1" d="M421.75,42.33c-1.48-1.54-2.23-3.59-2.23-6.15v-19.98c0-.14.05-.25.14-.35.1-.09.21-.14.35-.14h4.78c.14,0,.25.05.35.14.09.1.14.21.14.35v20.55c0,.87.22,1.58.65,2.12s1.01.82,1.72.82,1.27-.27,1.7-.82c.42-.54.63-1.25.63-2.12v-20.55c0-.14.05-.25.14-.35s.21-.14.35-.14h4.78c.14,0,.25.05.35.14.09.1.14.21.14.35v19.98c0,2.56-.74,4.61-2.23,6.15-1.49,1.54-3.44,2.31-5.86,2.31s-4.42-.77-5.9-2.31Z"/>
      <path class="st1" d="M442.77,43.7c-1.2-.63-2.12-1.5-2.78-2.63-.65-1.13-.98-2.43-.98-3.9v-1.19c0-.14.05-.25.14-.35.09-.1.21-.14.35-.14h4.7c.14,0,.25.05.35.14.09.1.14.21.14.35v.9c0,.84.22,1.53.65,2.04.44.52.98.78,1.63.78s1.2-.25,1.63-.74c.43-.49.65-1.13.65-1.92s-.27-1.52-.82-2.1-1.61-1.45-3.19-2.59c-1.36-.98-2.47-1.85-3.31-2.62-.84-.76-1.57-1.7-2.17-2.82-.6-1.12-.9-2.41-.9-3.88,0-2.31.72-4.17,2.17-5.56,1.44-1.39,3.35-2.08,5.72-2.08s4.32.72,5.78,2.17c1.46,1.44,2.19,3.34,2.19,5.68v.98c0,.14-.05.25-.14.35s-.21.14-.35.14h-4.7c-.14,0-.25-.05-.35-.14-.1-.09-.14-.21-.14-.35v-1.1c0-.84-.21-1.52-.63-2.02s-.97-.76-1.65-.76-1.18.24-1.59.71c-.41.48-.61,1.14-.61,1.98s.26,1.54.78,2.17c.52.63,1.54,1.5,3.06,2.61,1.69,1.25,2.96,2.27,3.82,3.04.86.78,1.53,1.63,2,2.57.48.94.71,2.06.71,3.37,0,2.4-.74,4.3-2.21,5.72-1.47,1.42-3.41,2.12-5.8,2.12-1.58,0-2.97-.31-4.17-.94Z"/>
      <path class="st1" d="M474.04,15.85c.09.1.14.21.14.35v3.96c0,.14-.05.25-.14.35s-.21.14-.35.14h-5.11c-.14,0-.2.07-.2.2v22.96c0,.14-.05.25-.14.35s-.21.14-.35.14h-4.78c-.14,0-.25-.05-.35-.14-.1-.1-.14-.21-.14-.35v-22.96c0-.14-.07-.2-.21-.2h-4.9c-.14,0-.25-.05-.35-.14-.1-.09-.14-.21-.14-.35v-3.96c0-.14.05-.25.14-.35.1-.09.21-.14.35-.14h16.18c.14,0,.25.05.35.14Z"/>
      <path class="st1" d="M487.69,42.53c-1.49-1.4-2.23-3.27-2.23-5.62v-13.81c0-2.34.74-4.21,2.23-5.62,1.48-1.4,3.45-2.1,5.9-2.1s4.43.71,5.92,2.12c1.5,1.42,2.25,3.3,2.25,5.64v1.55c0,.14-.05.25-.14.35s-.21.14-.35.14h-4.78c-.14,0-.25-.05-.35-.14-.1-.09-.14-.21-.14-.35v-1.63c0-.82-.22-1.48-.65-1.98-.44-.5-1.02-.76-1.76-.76s-1.28.25-1.72.76c-.44.5-.65,1.16-.65,1.98v13.89c0,.82.22,1.48.65,1.98.44.5,1.01.75,1.72.75s1.32-.25,1.76-.75c.44-.5.65-1.17.65-1.98v-3.27c0-.14-.07-.21-.2-.21h-1.8c-.14,0-.25-.05-.35-.14-.1-.09-.14-.21-.14-.35v-3.64c0-.14.05-.25.14-.35s.21-.14.35-.14h7.27c.14,0,.25.05.35.14.09.1.14.21.14.35v7.56c0,2.34-.75,4.21-2.25,5.62-1.5,1.4-3.47,2.1-5.92,2.1s-4.42-.7-5.9-2.1Z"/>
      <path class="st1" d="M505.46,44.17c-.1-.1-.14-.21-.14-.35v-27.62c0-.14.05-.25.14-.35.1-.09.21-.14.35-.14h4.78c.14,0,.25.05.35.14.1.1.14.21.14.35v27.62c0,.14-.05.25-.14.35s-.21.14-.35.14h-4.78c-.14,0-.25-.05-.35-.14Z"/>
      <path class="st1" d="M520.07,43.86l-5.84-27.62-.04-.16c0-.25.15-.37.45-.37h5.27c.33,0,.5.15.53.45l2.82,17.98c.03.11.07.16.12.16s.09-.05.12-.16l2.74-17.98c.03-.3.2-.45.53-.45h5.11c.35,0,.49.18.41.53l-5.88,27.62c-.05.3-.23.45-.53.45h-5.27c-.3,0-.48-.15-.53-.45Z"/>
      <path class="st1" d="M535.53,44.17c-.1-.1-.14-.21-.14-.35v-27.62c0-.14.05-.25.14-.35.1-.09.21-.14.35-.14h4.78c.14,0,.25.05.35.14.1.1.14.21.14.35v27.62c0,.14-.05.25-.14.35s-.21.14-.35.14h-4.78c-.14,0-.25-.05-.35-.14Z"/>
      <path class="st1" d="M556.98,15.85c.1-.09.21-.14.35-.14h4.74c.14,0,.25.05.35.14.09.1.14.21.14.35v27.62c0,.14-.05.25-.14.35-.1.1-.21.14-.35.14h-5.39c-.27,0-.45-.14-.53-.41l-5.07-15.81c-.03-.08-.08-.12-.14-.1-.07.01-.1.06-.1.14l.04,15.69c0,.14-.05.25-.14.35s-.21.14-.35.14h-4.74c-.14,0-.25-.05-.35-.14s-.14-.21-.14-.35v-27.62c0-.14.05-.25.14-.35.1-.09.21-.14.35-.14h5.35c.27,0,.45.14.53.41l5.11,15.81c.03.08.07.12.14.1.07-.01.1-.06.1-.14l-.04-15.69c0-.14.05-.25.14-.35Z"/>
      <path class="st1" d="M568.34,42.53c-1.49-1.4-2.23-3.27-2.23-5.62v-13.81c0-2.34.74-4.21,2.23-5.62,1.48-1.4,3.45-2.1,5.9-2.1s4.43.71,5.92,2.12c1.5,1.42,2.25,3.3,2.25,5.64v1.55c0,.14-.05.25-.14.35s-.21.14-.35.14h-4.78c-.14,0-.25-.05-.35-.14-.1-.09-.14-.21-.14-.35v-1.63c0-.82-.22-1.48-.65-1.98-.44-.5-1.02-.76-1.76-.76s-1.28.25-1.72.76c-.44.5-.65,1.16-.65,1.98v13.89c0,.82.22,1.48.65,1.98.44.5,1.01.75,1.72.75s1.32-.25,1.76-.75c.44-.5.65-1.17.65-1.98v-3.27c0-.14-.07-.21-.2-.21h-1.8c-.14,0-.25-.05-.35-.14-.1-.09-.14-.21-.14-.35v-3.64c0-.14.05-.25.14-.35s.21-.14.35-.14h7.27c.14,0,.25.05.35.14.09.1.14.21.14.35v7.56c0,2.34-.75,4.21-2.25,5.62-1.5,1.4-3.47,2.1-5.92,2.1s-4.42-.7-5.9-2.1Z"/>
      <path class="st1" d="M608.64,42.27c-1.53,1.36-3.5,2.04-5.92,2.04h-7.72c-.14,0-.25-.05-.35-.14s-.14-.21-.14-.35v-27.62c0-.14.05-.25.14-.35.1-.09.21-.14.35-.14h6.82c2.72,0,4.86.65,6.39,1.96,1.54,1.31,2.31,3.25,2.31,5.84s-.93,4.66-2.78,5.88c-.11.08-.12.16-.04.25,2.15,1.53,3.23,3.79,3.23,6.78,0,2.53-.76,4.48-2.29,5.84ZM600.27,20.86v6.41c0,.14.07.2.2.2h1.47c.93,0,1.65-.29,2.17-.88.52-.58.78-1.41.78-2.47,0-1.12-.25-1.97-.76-2.57-.5-.6-1.23-.9-2.19-.9h-1.47c-.14,0-.2.07-.2.2ZM604.39,38.34c.52-.65.78-1.58.78-2.78s-.26-2.15-.78-2.86c-.52-.71-1.21-1.06-2.08-1.06h-1.84c-.14,0-.2.07-.2.2v7.27c0,.14.07.2.2.2h1.8c.9,0,1.61-.33,2.12-.98Z"/>
      <path class="st1" d="M624.74,43.86l-.65-3.92c0-.14-.08-.21-.25-.21h-5.19c-.16,0-.25.07-.25.21l-.65,3.92c-.03.3-.2.45-.53.45h-4.78c-.35,0-.49-.18-.41-.53l6.01-27.62c.05-.3.23-.45.53-.45h5.51c.3,0,.48.15.53.45l5.96,27.62.04.16c0,.25-.15.37-.45.37h-4.9c-.33,0-.5-.15-.53-.45ZM619.39,35.28h3.68c.14,0,.19-.07.16-.2l-1.92-11.15c-.03-.08-.07-.12-.12-.12s-.1.04-.12.12l-1.84,11.15c0,.14.05.2.16.2Z"/>
      <path class="st1" d="M634.36,42.45c-1.49-1.46-2.23-3.41-2.23-5.86v-13.24c0-2.42.74-4.36,2.23-5.8,1.48-1.44,3.45-2.17,5.9-2.17s4.46.72,5.94,2.17c1.48,1.44,2.23,3.38,2.23,5.8v.45c0,.14-.05.25-.14.35-.1.1-.21.14-.35.14l-4.78.2c-.33,0-.49-.15-.49-.45v-1.06c0-.79-.22-1.43-.65-1.92-.44-.49-1.02-.74-1.76-.74s-1.28.25-1.72.74c-.44.49-.65,1.13-.65,1.92v14.1c0,.79.22,1.42.65,1.9.44.48,1.01.71,1.72.71s1.32-.24,1.76-.71c.44-.48.65-1.11.65-1.9v-1.1c0-.14.05-.25.14-.35.09-.1.21-.14.35-.14l4.78.21c.14,0,.25.05.35.14.09.1.14.21.14.35v.41c0,2.45-.75,4.41-2.25,5.86-1.5,1.46-3.47,2.19-5.92,2.19s-4.42-.73-5.9-2.19Z"/>
      <path class="st1" d="M652.01,44.17c-.1-.1-.14-.21-.14-.35v-27.62c0-.14.05-.25.14-.35.1-.09.21-.14.35-.14h4.78c.14,0,.25.05.35.14.1.1.14.21.14.35v10.29c0,.11.03.17.1.18s.12-.03.14-.14l5.27-10.46c.14-.25.33-.37.57-.37h5.07c.19,0,.32.05.39.14.07.1.06.24-.02.43l-6.05,11.77c-.03.11-.04.19-.04.25l6.41,15.44c.03.06.04.14.04.25,0,.22-.14.33-.41.33h-5.11c-.3,0-.49-.12-.57-.37l-4.25-10.7c-.03-.08-.07-.12-.12-.1s-.11.05-.16.1l-1.19,2.12c-.05.11-.08.19-.08.25v8.21c0,.14-.05.25-.14.35s-.21.14-.35.14h-4.78c-.14,0-.25-.05-.35-.14Z"/>
      <path class="st1" d="M672.07,48.17c-.1-.1-.13-.23-.1-.39l.9-9.48c.05-.3.22-.45.49-.45h4.17c.38,0,.53.18.45.53l-2.17,9.48c-.08.3-.26.45-.53.45h-2.82c-.16,0-.29-.05-.39-.14Z"/>
    </g>
    <g>
      <path class="st0" d="M79.73,42.43c-1.5-1.47-2.25-3.43-2.25-5.88v-13.07c0-2.45.75-4.41,2.25-5.88,1.5-1.47,3.5-2.21,6.01-2.21s4.51.74,6.03,2.21c1.51,1.47,2.27,3.43,2.27,5.88v13.07c0,2.45-.76,4.41-2.27,5.88-1.51,1.47-3.52,2.21-6.03,2.21s-4.51-.74-6.01-2.21ZM87.58,38.9c.46-.53.69-1.23.69-2.1v-13.56c0-.87-.23-1.57-.69-2.1-.46-.53-1.08-.8-1.84-.8s-1.37.27-1.82.8c-.45.53-.67,1.23-.67,2.1v13.56c0,.87.22,1.57.67,2.1.45.53,1.06.8,1.82.8s1.38-.26,1.84-.8Z"/>
      <path class="st0" d="M99.69,42.33c-1.48-1.54-2.23-3.59-2.23-6.15v-19.98c0-.14.05-.25.14-.35.1-.09.21-.14.35-.14h4.78c.14,0,.25.05.35.14.09.1.14.21.14.35v20.55c0,.87.22,1.58.65,2.12.44.54,1.01.82,1.72.82s1.27-.27,1.7-.82c.42-.54.63-1.25.63-2.12v-20.55c0-.14.05-.25.14-.35s.21-.14.35-.14h4.78c.14,0,.25.05.35.14.1.1.14.21.14.35v19.98c0,2.56-.74,4.61-2.23,6.15-1.48,1.54-3.44,2.31-5.86,2.31s-4.42-.77-5.9-2.31Z"/>
      <path class="st0" d="M128.23,43.9l-3.15-11.28c-.05-.11-.12-.16-.2-.16h-1.39c-.14,0-.2.07-.2.21v11.15c0,.14-.05.25-.14.35-.1.1-.21.14-.35.14h-4.78c-.14,0-.25-.05-.35-.14-.1-.1-.14-.21-.14-.35v-27.62c0-.14.05-.25.14-.35.1-.09.21-.14.35-.14h8.25c1.5,0,2.83.36,4,1.08,1.17.72,2.08,1.74,2.72,3.04.64,1.31.96,2.81.96,4.49s-.31,3.02-.92,4.25-1.46,2.18-2.55,2.86c-.06.03-.1.06-.12.1-.03.04-.03.09,0,.14l3.76,12.05.04.16c0,.27-.15.41-.45.41h-4.9c-.3,0-.49-.14-.57-.41ZM123.29,20.86v6.99c0,.14.07.2.2.2h1.84c.84,0,1.53-.33,2.06-1,.53-.67.8-1.56.8-2.68s-.27-2.05-.8-2.72c-.53-.67-1.22-1-2.06-1h-1.84c-.14,0-.2.07-.2.2Z"/>
      <path class="st0" d="M147.49,42.45c-1.48-1.46-2.23-3.41-2.23-5.86v-13.24c0-2.42.74-4.36,2.23-5.8,1.48-1.44,3.45-2.17,5.9-2.17s4.46.72,5.94,2.17c1.48,1.44,2.23,3.38,2.23,5.8v.45c0,.14-.05.25-.14.35-.1.1-.21.14-.35.14l-4.78.2c-.33,0-.49-.15-.49-.45v-1.06c0-.79-.22-1.43-.65-1.92-.44-.49-1.02-.74-1.76-.74s-1.28.25-1.72.74-.65,1.13-.65,1.92v14.1c0,.79.22,1.42.65,1.9.44.48,1.01.71,1.72.71s1.32-.24,1.76-.71c.44-.48.65-1.11.65-1.9v-1.1c0-.14.05-.25.14-.35.1-.1.21-.14.35-.14l4.78.21c.14,0,.25.05.35.14.1.1.14.21.14.35v.41c0,2.45-.75,4.41-2.25,5.86-1.5,1.46-3.47,2.19-5.92,2.19s-4.42-.73-5.9-2.19Z"/>
      <path class="st0" d="M168.19,43.7c-1.2-.63-2.12-1.5-2.78-2.63-.65-1.13-.98-2.43-.98-3.9v-1.19c0-.14.05-.25.14-.35.1-.1.21-.14.35-.14h4.7c.14,0,.25.05.35.14.1.1.14.21.14.35v.9c0,.84.22,1.53.65,2.04.44.52.98.78,1.63.78s1.2-.25,1.63-.74c.44-.49.65-1.13.65-1.92s-.27-1.52-.82-2.1c-.55-.59-1.61-1.45-3.19-2.59-1.36-.98-2.47-1.85-3.31-2.62-.84-.76-1.57-1.7-2.17-2.82-.6-1.12-.9-2.41-.9-3.88,0-2.31.72-4.17,2.17-5.56,1.44-1.39,3.35-2.08,5.72-2.08s4.32.72,5.78,2.17c1.46,1.44,2.19,3.34,2.19,5.68v.98c0,.14-.05.25-.14.35-.1.1-.21.14-.35.14h-4.7c-.14,0-.25-.05-.35-.14-.1-.09-.14-.21-.14-.35v-1.1c0-.84-.21-1.52-.63-2.02-.42-.5-.97-.76-1.65-.76s-1.19.24-1.59.71c-.41.48-.61,1.14-.61,1.98s.26,1.54.78,2.17c.52.63,1.54,1.5,3.06,2.61,1.69,1.25,2.96,2.27,3.82,3.04s1.53,1.63,2,2.57c.48.94.71,2.06.71,3.37,0,2.4-.74,4.3-2.21,5.72-1.47,1.42-3.4,2.12-5.8,2.12-1.58,0-2.97-.31-4.17-.94Z"/>
      <path class="st0" d="M194.21,43.9l-3.15-11.28c-.05-.11-.12-.16-.2-.16h-1.39c-.14,0-.2.07-.2.21v11.15c0,.14-.05.25-.14.35-.1.1-.21.14-.35.14h-4.78c-.14,0-.25-.05-.35-.14-.1-.1-.14-.21-.14-.35v-27.62c0-.14.05-.25.14-.35.1-.09.21-.14.35-.14h8.25c1.5,0,2.83.36,4,1.08,1.17.72,2.08,1.74,2.72,3.04.64,1.31.96,2.81.96,4.49s-.31,3.02-.92,4.25-1.46,2.18-2.55,2.86c-.06.03-.1.06-.12.1-.03.04-.03.09,0,.14l3.76,12.05.04.16c0,.27-.15.41-.45.41h-4.9c-.3,0-.49-.14-.57-.41ZM189.27,20.86v6.99c0,.14.07.2.2.2h1.84c.84,0,1.53-.33,2.06-1,.53-.67.8-1.56.8-2.68s-.27-2.05-.8-2.72c-.53-.67-1.22-1-2.06-1h-1.84c-.14,0-.2.07-.2.2Z"/>
      <path class="st0" d="M226.47,20.51c-.1.1-.21.14-.35.14h-8.5c-.14,0-.2.07-.2.2v6.46c0,.14.07.2.2.2h4.86c.14,0,.25.05.35.14.1.1.14.21.14.35v3.96c0,.14-.05.25-.14.35-.1.1-.21.14-.35.14h-4.86c-.14,0-.2.07-.2.21v11.15c0,.14-.05.25-.14.35-.1.1-.21.14-.35.14h-4.78c-.14,0-.25-.05-.35-.14-.1-.1-.14-.21-.14-.35v-27.62c0-.14.05-.25.14-.35.1-.09.21-.14.35-.14h13.97c.14,0,.25.05.35.14.1.1.14.21.14.35v3.96c0,.14-.05.25-.14.35Z"/>
      <path class="st0" d="M231.06,42.43c-1.5-1.47-2.25-3.43-2.25-5.88v-13.07c0-2.45.75-4.41,2.25-5.88,1.5-1.47,3.5-2.21,6.01-2.21s4.51.74,6.03,2.21c1.51,1.47,2.27,3.43,2.27,5.88v13.07c0,2.45-.76,4.41-2.27,5.88-1.51,1.47-3.52,2.21-6.03,2.21s-4.51-.74-6.01-2.21ZM238.91,38.9c.46-.53.69-1.23.69-2.1v-13.56c0-.87-.23-1.57-.69-2.1-.46-.53-1.08-.8-1.84-.8s-1.37.27-1.82.8c-.45.53-.67,1.23-.67,2.1v13.56c0,.87.22,1.57.67,2.1.45.53,1.06.8,1.82.8s1.38-.26,1.84-.8Z"/>
      <path class="st0" d="M250.73,42.45c-1.48-1.46-2.23-3.41-2.23-5.86v-13.24c0-2.42.74-4.36,2.23-5.8,1.48-1.44,3.45-2.17,5.9-2.17s4.46.72,5.94,2.17c1.48,1.44,2.23,3.38,2.23,5.8v.45c0,.14-.05.25-.14.35-.1.1-.21.14-.35.14l-4.78.2c-.33,0-.49-.15-.49-.45v-1.06c0-.79-.22-1.43-.65-1.92-.44-.49-1.02-.74-1.76-.74s-1.28.25-1.72.74-.65,1.13-.65,1.92v14.1c0,.79.22,1.42.65,1.9.44.48,1.01.71,1.72.71s1.32-.24,1.76-.71c.44-.48.65-1.11.65-1.9v-1.1c0-.14.05-.25.14-.35.1-.1.21-.14.35-.14l4.78.21c.14,0,.25.05.35.14.1.1.14.21.14.35v.41c0,2.45-.75,4.41-2.25,5.86-1.5,1.46-3.47,2.19-5.92,2.19s-4.42-.73-5.9-2.19Z"/>
      <path class="st0" d="M270.34,42.33c-1.48-1.54-2.23-3.59-2.23-6.15v-19.98c0-.14.05-.25.14-.35.1-.09.21-.14.35-.14h4.78c.14,0,.25.05.35.14.09.1.14.21.14.35v20.55c0,.87.22,1.58.65,2.12.44.54,1.01.82,1.72.82s1.27-.27,1.7-.82c.42-.54.63-1.25.63-2.12v-20.55c0-.14.05-.25.14-.35s.21-.14.35-.14h4.78c.14,0,.25.05.35.14.1.1.14.21.14.35v19.98c0,2.56-.74,4.61-2.23,6.15-1.48,1.54-3.44,2.31-5.86,2.31s-4.42-.77-5.9-2.31Z"/>
      <path class="st0" d="M291.36,43.7c-1.2-.63-2.12-1.5-2.78-2.63-.65-1.13-.98-2.43-.98-3.9v-1.19c0-.14.05-.25.14-.35.1-.1.21-.14.35-.14h4.7c.14,0,.25.05.35.14.1.1.14.21.14.35v.9c0,.84.22,1.53.65,2.04.44.52.98.78,1.63.78s1.2-.25,1.63-.74c.44-.49.65-1.13.65-1.92s-.27-1.52-.82-2.1c-.55-.59-1.61-1.45-3.19-2.59-1.36-.98-2.47-1.85-3.31-2.62-.84-.76-1.57-1.7-2.17-2.82-.6-1.12-.9-2.41-.9-3.88,0-2.31.72-4.17,2.17-5.56,1.44-1.39,3.35-2.08,5.72-2.08s4.32.72,5.78,2.17c1.46,1.44,2.19,3.34,2.19,5.68v.98c0,.14-.05.25-.14.35-.1.1-.21.14-.35.14h-4.7c-.14,0-.25-.05-.35-.14-.1-.09-.14-.21-.14-.35v-1.1c0-.84-.21-1.52-.63-2.02-.42-.5-.97-.76-1.65-.76s-1.19.24-1.59.71c-.41.48-.61,1.14-.61,1.98s.26,1.54.78,2.17c.52.63,1.54,1.5,3.06,2.61,1.69,1.25,2.96,2.27,3.82,3.04s1.53,1.63,2,2.57c.48.94.71,2.06.71,3.37,0,2.4-.74,4.3-2.21,5.72-1.47,1.42-3.4,2.12-5.8,2.12-1.58,0-2.97-.31-4.17-.94Z"/>
      <path class="st0" d="M315.36,44.17c-.1-.1-.14-.21-.14-.35v-27.62c0-.14.05-.25.14-.35.1-.09.21-.14.35-.14h4.78c.14,0,.25.05.35.14.09.1.14.21.14.35v27.62c0,.14-.05.25-.14.35-.1.1-.21.14-.35.14h-4.78c-.14,0-.25-.05-.35-.14Z"/>
      <path class="st0" d="M328.17,43.7c-1.2-.63-2.12-1.5-2.78-2.63-.65-1.13-.98-2.43-.98-3.9v-1.19c0-.14.05-.25.14-.35.1-.1.21-.14.35-.14h4.7c.14,0,.25.05.35.14.1.1.14.21.14.35v.9c0,.84.22,1.53.65,2.04.44.52.98.78,1.63.78s1.2-.25,1.63-.74c.44-.49.65-1.13.65-1.92s-.27-1.52-.82-2.1c-.55-.59-1.61-1.45-3.19-2.59-1.36-.98-2.47-1.85-3.31-2.62-.84-.76-1.57-1.7-2.17-2.82-.6-1.12-.9-2.41-.9-3.88,0-2.31.72-4.17,2.17-5.56,1.44-1.39,3.35-2.08,5.72-2.08s4.32.72,5.78,2.17c1.46,1.44,2.19,3.34,2.19,5.68v.98c0,.14-.05.25-.14.35-.1.1-.21.14-.35.14h-4.7c-.14,0-.25-.05-.35-.14-.1-.09-.14-.21-.14-.35v-1.1c0-.84-.21-1.52-.63-2.02-.42-.5-.97-.76-1.65-.76s-1.19.24-1.59.71c-.41.48-.61,1.14-.61,1.98s.26,1.54.78,2.17c.52.63,1.54,1.5,3.06,2.61,1.69,1.25,2.96,2.27,3.82,3.04s1.53,1.63,2,2.57c.48.94.71,2.06.71,3.37,0,2.4-.74,4.3-2.21,5.72-1.47,1.42-3.4,2.12-5.8,2.12-1.58,0-2.97-.31-4.17-.94Z"/>
      <path class="st0" d="M355.2,15.85c.1-.09.21-.14.35-.14h4.74c.14,0,.25.05.35.14.1.1.14.21.14.35v27.62c0,.14-.05.25-.14.35-.1.1-.21.14-.35.14h-5.39c-.27,0-.45-.14-.53-.41l-5.07-15.81c-.03-.08-.08-.12-.14-.1-.07.01-.1.06-.1.14l.04,15.69c0,.14-.05.25-.14.35-.1.1-.21.14-.35.14h-4.74c-.14,0-.25-.05-.35-.14-.1-.1-.14-.21-.14-.35v-27.62c0-.14.05-.25.14-.35.1-.09.21-.14.35-.14h5.35c.27,0,.45.14.53.41l5.11,15.81c.03.08.07.12.14.1.07-.01.1-.06.1-.14l-.04-15.69c0-.14.05-.25.14-.35Z"/>
      <path class="st0" d="M370.4,15.85c.07.1.07.24.02.43l-2.82,8.25c-.08.27-.26.41-.53.41h-3.6c-.35,0-.49-.18-.41-.53l1.68-8.25c.05-.3.23-.45.53-.45h4.78c.16,0,.28.05.35.14Z"/>
      <path class="st0" d="M388.99,15.85c.1.1.14.21.14.35v3.96c0,.14-.05.25-.14.35-.1.1-.21.14-.35.14h-5.11c-.14,0-.2.07-.2.2v22.96c0,.14-.05.25-.14.35s-.21.14-.35.14h-4.78c-.14,0-.25-.05-.35-.14-.1-.1-.14-.21-.14-.35v-22.96c0-.14-.07-.2-.2-.2h-4.9c-.14,0-.25-.05-.35-.14-.1-.09-.14-.21-.14-.35v-3.96c0-.14.05-.25.14-.35.1-.09.21-.14.35-.14h16.18c.14,0,.25.05.35.14Z"/>
      <path class="st0" d="M401.79,42.53c-1.47-1.4-2.21-3.26-2.21-5.58v-2.82c0-.14.05-.25.14-.35.1-.09.21-.14.35-.14h4.78c.14,0,.25.05.35.14.1.1.14.21.14.35v2.9c0,.79.2,1.43.61,1.92.41.49.95.74,1.63.74s1.27-.25,1.7-.74c.42-.49.63-1.13.63-1.92v-20.84c0-.14.05-.25.14-.35s.21-.14.35-.14h4.78c.14,0,.25.05.35.14.09.1.14.21.14.35v20.75c0,2.32-.74,4.17-2.23,5.58-1.48,1.4-3.44,2.1-5.86,2.1s-4.33-.7-5.8-2.1Z"/>
      <path class="st0" d="M421.75,42.33c-1.48-1.54-2.23-3.59-2.23-6.15v-19.98c0-.14.05-.25.14-.35.1-.09.21-.14.35-.14h4.78c.14,0,.25.05.35.14.09.1.14.21.14.35v20.55c0,.87.22,1.58.65,2.12s1.01.82,1.72.82,1.27-.27,1.7-.82c.42-.54.63-1.25.63-2.12v-20.55c0-.14.05-.25.14-.35s.21-.14.35-.14h4.78c.14,0,.25.05.35.14.09.1.14.21.14.35v19.98c0,2.56-.74,4.61-2.23,6.15-1.49,1.54-3.44,2.31-5.86,2.31s-4.42-.77-5.9-2.31Z"/>
      <path class="st0" d="M442.77,43.7c-1.2-.63-2.12-1.5-2.78-2.63-.65-1.13-.98-2.43-.98-3.9v-1.19c0-.14.05-.25.14-.35.09-.1.21-.14.35-.14h4.7c.14,0,.25.05.35.14.09.1.14.21.14.35v.9c0,.84.22,1.53.65,2.04.44.52.98.78,1.63.78s1.2-.25,1.63-.74c.43-.49.65-1.13.65-1.92s-.27-1.52-.82-2.1-1.61-1.45-3.19-2.59c-1.36-.98-2.47-1.85-3.31-2.62-.84-.76-1.57-1.7-2.17-2.82-.6-1.12-.9-2.41-.9-3.88,0-2.31.72-4.17,2.17-5.56,1.44-1.39,3.35-2.08,5.72-2.08s4.32.72,5.78,2.17c1.46,1.44,2.19,3.34,2.19,5.68v.98c0,.14-.05.25-.14.35s-.21.14-.35.14h-4.7c-.14,0-.25-.05-.35-.14-.1-.09-.14-.21-.14-.35v-1.1c0-.84-.21-1.52-.63-2.02s-.97-.76-1.65-.76-1.18.24-1.59.71c-.41.48-.61,1.14-.61,1.98s.26,1.54.78,2.17c.52.63,1.54,1.5,3.06,2.61,1.69,1.25,2.96,2.27,3.82,3.04.86.78,1.53,1.63,2,2.57.48.94.71,2.06.71,3.37,0,2.4-.74,4.3-2.21,5.72-1.47,1.42-3.41,2.12-5.8,2.12-1.58,0-2.97-.31-4.17-.94Z"/>
      <path class="st0" d="M474.04,15.85c.09.1.14.21.14.35v3.96c0,.14-.05.25-.14.35s-.21.14-.35.14h-5.11c-.14,0-.2.07-.2.2v22.96c0,.14-.05.25-.14.35s-.21.14-.35.14h-4.78c-.14,0-.25-.05-.35-.14-.1-.1-.14-.21-.14-.35v-22.96c0-.14-.07-.2-.21-.2h-4.9c-.14,0-.25-.05-.35-.14-.1-.09-.14-.21-.14-.35v-3.96c0-.14.05-.25.14-.35.1-.09.21-.14.35-.14h16.18c.14,0,.25.05.35.14Z"/>
      <path class="st0" d="M487.69,42.53c-1.49-1.4-2.23-3.27-2.23-5.62v-13.81c0-2.34.74-4.21,2.23-5.62,1.48-1.4,3.45-2.1,5.9-2.1s4.43.71,5.92,2.12c1.5,1.42,2.25,3.3,2.25,5.64v1.55c0,.14-.05.25-.14.35s-.21.14-.35.14h-4.78c-.14,0-.25-.05-.35-.14-.1-.09-.14-.21-.14-.35v-1.63c0-.82-.22-1.48-.65-1.98-.44-.5-1.02-.76-1.76-.76s-1.28.25-1.72.76c-.44.5-.65,1.16-.65,1.98v13.89c0,.82.22,1.48.65,1.98.44.5,1.01.75,1.72.75s1.32-.25,1.76-.75c.44-.5.65-1.17.65-1.98v-3.27c0-.14-.07-.21-.2-.21h-1.8c-.14,0-.25-.05-.35-.14-.1-.09-.14-.21-.14-.35v-3.64c0-.14.05-.25.14-.35s.21-.14.35-.14h7.27c.14,0,.25.05.35.14.09.1.14.21.14.35v7.56c0,2.34-.75,4.21-2.25,5.62-1.5,1.4-3.47,2.1-5.92,2.1s-4.42-.7-5.9-2.1Z"/>
      <path class="st0" d="M505.46,44.17c-.1-.1-.14-.21-.14-.35v-27.62c0-.14.05-.25.14-.35.1-.09.21-.14.35-.14h4.78c.14,0,.25.05.35.14.1.1.14.21.14.35v27.62c0,.14-.05.25-.14.35s-.21.14-.35.14h-4.78c-.14,0-.25-.05-.35-.14Z"/>
      <path class="st0" d="M520.07,43.86l-5.84-27.62-.04-.16c0-.25.15-.37.45-.37h5.27c.33,0,.5.15.53.45l2.82,17.98c.03.11.07.16.12.16s.09-.05.12-.16l2.74-17.98c.03-.3.2-.45.53-.45h5.11c.35,0,.49.18.41.53l-5.88,27.62c-.05.3-.23.45-.53.45h-5.27c-.3,0-.48-.15-.53-.45Z"/>
      <path class="st0" d="M535.53,44.17c-.1-.1-.14-.21-.14-.35v-27.62c0-.14.05-.25.14-.35.1-.09.21-.14.35-.14h4.78c.14,0,.25.05.35.14.1.1.14.21.14.35v27.62c0,.14-.05.25-.14.35s-.21.14-.35.14h-4.78c-.14,0-.25-.05-.35-.14Z"/>
      <path class="st0" d="M556.98,15.85c.1-.09.21-.14.35-.14h4.74c.14,0,.25.05.35.14.09.1.14.21.14.35v27.62c0,.14-.05.25-.14.35-.1.1-.21.14-.35.14h-5.39c-.27,0-.45-.14-.53-.41l-5.07-15.81c-.03-.08-.08-.12-.14-.1-.07.01-.1.06-.1.14l.04,15.69c0,.14-.05.25-.14.35s-.21.14-.35.14h-4.74c-.14,0-.25-.05-.35-.14s-.14-.21-.14-.35v-27.62c0-.14.05-.25.14-.35.1-.09.21-.14.35-.14h5.35c.27,0,.45.14.53.41l5.11,15.81c.03.08.07.12.14.1.07-.01.1-.06.1-.14l-.04-15.69c0-.14.05-.25.14-.35Z"/>
      <path class="st0" d="M568.34,42.53c-1.49-1.4-2.23-3.27-2.23-5.62v-13.81c0-2.34.74-4.21,2.23-5.62,1.48-1.4,3.45-2.1,5.9-2.1s4.43.71,5.92,2.12c1.5,1.42,2.25,3.3,2.25,5.64v1.55c0,.14-.05.25-.14.35s-.21.14-.35.14h-4.78c-.14,0-.25-.05-.35-.14-.1-.09-.14-.21-.14-.35v-1.63c0-.82-.22-1.48-.65-1.98-.44-.5-1.02-.76-1.76-.76s-1.28.25-1.72.76c-.44.5-.65,1.16-.65,1.98v13.89c0,.82.22,1.48.65,1.98.44.5,1.01.75,1.72.75s1.32-.25,1.76-.75c.44-.5.65-1.17.65-1.98v-3.27c0-.14-.07-.21-.2-.21h-1.8c-.14,0-.25-.05-.35-.14-.1-.09-.14-.21-.14-.35v-3.64c0-.14.05-.25.14-.35s.21-.14.35-.14h7.27c.14,0,.25.05.35.14.09.1.14.21.14.35v7.56c0,2.34-.75,4.21-2.25,5.62-1.5,1.4-3.47,2.1-5.92,2.1s-4.42-.7-5.9-2.1Z"/>
      <path class="st0" d="M608.64,42.27c-1.53,1.36-3.5,2.04-5.92,2.04h-7.72c-.14,0-.25-.05-.35-.14s-.14-.21-.14-.35v-27.62c0-.14.05-.25.14-.35.1-.09.21-.14.35-.14h6.82c2.72,0,4.86.65,6.39,1.96,1.54,1.31,2.31,3.25,2.31,5.84s-.93,4.66-2.78,5.88c-.11.08-.12.16-.04.25,2.15,1.53,3.23,3.79,3.23,6.78,0,2.53-.76,4.48-2.29,5.84ZM600.27,20.86v6.41c0,.14.07.2.2.2h1.47c.93,0,1.65-.29,2.17-.88.52-.58.78-1.41.78-2.47,0-1.12-.25-1.97-.76-2.57-.5-.6-1.23-.9-2.19-.9h-1.47c-.14,0-.2.07-.2.2ZM604.39,38.34c.52-.65.78-1.58.78-2.78s-.26-2.15-.78-2.86c-.52-.71-1.21-1.06-2.08-1.06h-1.84c-.14,0-.2.07-.2.2v7.27c0,.14.07.2.2.2h1.8c.9,0,1.61-.33,2.12-.98Z"/>
      <path class="st0" d="M624.74,43.86l-.65-3.92c0-.14-.08-.21-.25-.21h-5.19c-.16,0-.25.07-.25.21l-.65,3.92c-.03.3-.2.45-.53.45h-4.78c-.35,0-.49-.18-.41-.53l6.01-27.62c.05-.3.23-.45.53-.45h5.51c.3,0,.48.15.53.45l5.96,27.62.04.16c0,.25-.15.37-.45.37h-4.9c-.33,0-.5-.15-.53-.45ZM619.39,35.28h3.68c.14,0,.19-.07.16-.2l-1.92-11.15c-.03-.08-.07-.12-.12-.12s-.1.04-.12.12l-1.84,11.15c0,.14.05.2.16.2Z"/>
      <path class="st0" d="M634.36,42.45c-1.49-1.46-2.23-3.41-2.23-5.86v-13.24c0-2.42.74-4.36,2.23-5.8,1.48-1.44,3.45-2.17,5.9-2.17s4.46.72,5.94,2.17c1.48,1.44,2.23,3.38,2.23,5.8v.45c0,.14-.05.25-.14.35-.1.1-.21.14-.35.14l-4.78.2c-.33,0-.49-.15-.49-.45v-1.06c0-.79-.22-1.43-.65-1.92-.44-.49-1.02-.74-1.76-.74s-1.28.25-1.72.74c-.44.49-.65,1.13-.65,1.92v14.1c0,.79.22,1.42.65,1.9.44.48,1.01.71,1.72.71s1.32-.24,1.76-.71c.44-.48.65-1.11.65-1.9v-1.1c0-.14.05-.25.14-.35.09-.1.21-.14.35-.14l4.78.21c.14,0,.25.05.35.14.09.1.14.21.14.35v.41c0,2.45-.75,4.41-2.25,5.86-1.5,1.46-3.47,2.19-5.92,2.19s-4.42-.73-5.9-2.19Z"/>
      <path class="st0" d="M652.01,44.17c-.1-.1-.14-.21-.14-.35v-27.62c0-.14.05-.25.14-.35.1-.09.21-.14.35-.14h4.78c.14,0,.25.05.35.14.1.1.14.21.14.35v10.29c0,.11.03.17.1.18s.12-.03.14-.14l5.27-10.46c.14-.25.33-.37.57-.37h5.07c.19,0,.32.05.39.14.07.1.06.24-.02.43l-6.05,11.77c-.03.11-.04.19-.04.25l6.41,15.44c.03.06.04.14.04.25,0,.22-.14.33-.41.33h-5.11c-.3,0-.49-.12-.57-.37l-4.25-10.7c-.03-.08-.07-.12-.12-.1s-.11.05-.16.1l-1.19,2.12c-.05.11-.08.19-.08.25v8.21c0,.14-.05.25-.14.35s-.21.14-.35.14h-4.78c-.14,0-.25-.05-.35-.14Z"/>
      <path class="st0" d="M672.07,48.17c-.1-.1-.13-.23-.1-.39l.9-9.48c.05-.3.22-.45.49-.45h4.17c.38,0,.53.18.45.53l-2.17,9.48c-.08.3-.26.45-.53.45h-2.82c-.16,0-.29-.05-.39-.14Z"/>
    </g>
  </g>
  <g>
    <g>
      <path class="st1" d="M183.41,101.41c-1.9,1.7-4.37,2.55-7.39,2.55h-9.64c-.17,0-.31-.06-.43-.18-.12-.12-.18-.26-.18-.43v-34.47c0-.17.06-.31.18-.43.12-.12.26-.18.43-.18h8.52c3.4,0,6.06.82,7.98,2.45,1.92,1.63,2.88,4.06,2.88,7.29s-1.16,5.81-3.47,7.34c-.14.1-.15.2-.05.31,2.69,1.9,4.03,4.73,4.03,8.47,0,3.16-.95,5.59-2.86,7.29ZM172.95,74.69v8.01c0,.17.08.25.25.25h1.84c1.16,0,2.06-.37,2.7-1.1.65-.73.97-1.76.97-3.08,0-1.39-.31-2.46-.94-3.21-.63-.75-1.54-1.12-2.73-1.12h-1.84c-.17,0-.25.08-.25.25ZM178.1,96.52c.65-.82.97-1.97.97-3.47s-.32-2.69-.97-3.57c-.65-.88-1.51-1.33-2.6-1.33h-2.29c-.17,0-.25.08-.25.25v9.08c0,.17.08.25.25.25h2.24c1.12,0,2.01-.41,2.65-1.22Z"/>
      <path class="st1" d="M192.81,101.49c-1.85-1.92-2.78-4.48-2.78-7.67v-24.94c0-.17.06-.31.18-.43.12-.12.26-.18.43-.18h5.97c.17,0,.31.06.43.18.12.12.18.26.18.43v25.65c0,1.09.27,1.97.82,2.65.54.68,1.26,1.02,2.14,1.02s1.59-.34,2.12-1.02c.53-.68.79-1.56.79-2.65v-25.65c0-.17.06-.31.18-.43.12-.12.26-.18.43-.18h5.97c.17,0,.31.06.43.18.12.12.18.26.18.43v24.94c0,3.2-.93,5.75-2.78,7.67-1.85,1.92-4.29,2.88-7.32,2.88s-5.52-.96-7.37-2.88Z"/>
      <path class="st1" d="M235.29,68.44c.12.12.18.26.18.43v4.95c0,.17-.06.31-.18.43-.12.12-.26.18-.43.18h-6.37c-.17,0-.25.08-.25.25v28.66c0,.17-.06.31-.18.43-.12.12-.26.18-.43.18h-5.97c-.17,0-.31-.06-.43-.18-.12-.12-.18-.26-.18-.43v-28.66c0-.17-.08-.25-.25-.25h-6.12c-.17,0-.31-.06-.43-.18-.12-.12-.18-.26-.18-.43v-4.95c0-.17.06-.31.18-.43.12-.12.26-.18.43-.18h20.19c.17,0,.31.06.43.18Z"/>
      <path class="st1" d="M250.23,103.78c-.12-.12-.18-.26-.18-.43v-34.47c0-.17.06-.31.18-.43.12-.12.26-.18.43-.18h5.97c.17,0,.31.06.43.18.12.12.18.26.18.43v28.66c0,.17.08.25.25.25h10.71c.17,0,.31.06.43.18.12.12.18.26.18.43v4.95c0,.17-.06.31-.18.43-.12.12-.26.18-.43.18h-17.54c-.17,0-.31-.06-.43-.18Z"/>
      <path class="st1" d="M272.41,103.78c-.12-.12-.18-.26-.18-.43v-34.47c0-.17.06-.31.18-.43.12-.12.26-.18.43-.18h5.97c.17,0,.31.06.43.18.12.12.18.26.18.43v34.47c0,.17-.06.31-.18.43s-.26.18-.43.18h-5.97c-.17,0-.31-.06-.43-.18Z"/>
      <path class="st1" d="M290.64,103.4l-7.29-34.47-.05-.2c0-.31.19-.46.56-.46h6.58c.41,0,.63.19.66.56l3.52,22.44c.03.14.08.2.15.2s.12-.07.15-.2l3.42-22.44c.03-.37.25-.56.66-.56h6.37c.44,0,.61.22.51.66l-7.34,34.47c-.07.38-.29.56-.66.56h-6.58c-.37,0-.6-.19-.66-.56Z"/>
      <path class="st1" d="M309.95,103.78c-.12-.12-.18-.26-.18-.43v-34.47c0-.17.06-.31.18-.43.12-.12.26-.18.43-.18h5.97c.17,0,.31.06.43.18.12.12.18.26.18.43v34.47c0,.17-.06.31-.18.43s-.26.18-.43.18h-5.97c-.17,0-.31-.06-.43-.18Z"/>
      <path class="st1" d="M336.72,68.44c.12-.12.26-.18.43-.18h5.92c.17,0,.31.06.43.18.12.12.18.26.18.43v34.47c0,.17-.06.31-.18.43-.12.12-.26.18-.43.18h-6.73c-.34,0-.56-.17-.66-.51l-6.32-19.74c-.03-.1-.09-.14-.18-.13-.08.02-.13.08-.13.18l.05,19.58c0,.17-.06.31-.18.43-.12.12-.26.18-.43.18h-5.92c-.17,0-.31-.06-.43-.18-.12-.12-.18-.26-.18-.43v-34.47c0-.17.06-.31.18-.43.12-.12.26-.18.43-.18h6.68c.34,0,.56.17.66.51l6.37,19.74c.03.1.09.14.18.13.08-.02.13-.08.13-.18l-.05-19.58c0-.17.06-.31.18-.43Z"/>
      <path class="st1" d="M350.89,101.74c-1.85-1.75-2.78-4.09-2.78-7.01v-17.24c0-2.92.93-5.26,2.78-7.01,1.85-1.75,4.31-2.63,7.37-2.63s5.52.88,7.39,2.65c1.87,1.77,2.8,4.11,2.8,7.04v1.94c0,.17-.06.31-.18.43-.12.12-.26.18-.43.18h-5.97c-.17,0-.31-.06-.43-.18-.12-.12-.18-.26-.18-.43v-2.04c0-1.02-.27-1.84-.82-2.47-.54-.63-1.27-.94-2.19-.94s-1.6.32-2.14.94c-.54.63-.82,1.45-.82,2.47v17.34c0,1.02.27,1.84.82,2.47.54.63,1.26.94,2.14.94s1.65-.31,2.19-.94c.54-.63.82-1.45.82-2.47v-4.08c0-.17-.09-.25-.25-.25h-2.24c-.17,0-.31-.06-.43-.18-.12-.12-.18-.26-.18-.43v-4.54c0-.17.06-.31.18-.43.12-.12.26-.18.43-.18h9.08c.17,0,.31.06.43.18.12.12.18.26.18.43v9.43c0,2.92-.94,5.26-2.8,7.01-1.87,1.75-4.33,2.63-7.39,2.63s-5.52-.87-7.37-2.63Z"/>
      <path class="st1" d="M383.73,103.78c-.12-.12-.18-.26-.18-.43v-34.47c0-.17.06-.31.18-.43.12-.12.26-.18.43-.18h5.97c.17,0,.31.06.43.18.12.12.18.26.18.43v34.47c0,.17-.06.31-.18.43-.12.12-.26.18-.43.18h-5.97c-.17,0-.31-.06-.43-.18Z"/>
      <path class="st1" d="M410.51,68.44c.12-.12.26-.18.43-.18h5.92c.17,0,.31.06.43.18.12.12.18.26.18.43v34.47c0,.17-.06.31-.18.43s-.26.18-.43.18h-6.73c-.34,0-.56-.17-.66-.51l-6.32-19.74c-.03-.1-.09-.14-.18-.13-.09.02-.13.08-.13.18l.05,19.58c0,.17-.06.31-.18.43s-.26.18-.43.18h-5.92c-.17,0-.31-.06-.43-.18s-.18-.26-.18-.43v-34.47c0-.17.06-.31.18-.43.12-.12.26-.18.43-.18h6.68c.34,0,.56.17.66.51l6.37,19.74c.03.1.09.14.18.13.08-.02.13-.08.13-.18l-.05-19.58c0-.17.06-.31.18-.43Z"/>
      <path class="st1" d="M450.71,101.41c-1.9,1.7-4.37,2.55-7.39,2.55h-9.64c-.17,0-.31-.06-.43-.18s-.18-.26-.18-.43v-34.47c0-.17.06-.31.18-.43.12-.12.26-.18.43-.18h8.52c3.4,0,6.06.82,7.98,2.45,1.92,1.63,2.88,4.06,2.88,7.29s-1.16,5.81-3.47,7.34c-.14.1-.15.2-.05.31,2.69,1.9,4.03,4.73,4.03,8.47,0,3.16-.95,5.59-2.86,7.29ZM440.26,74.69v8.01c0,.17.08.25.26.25h1.83c1.16,0,2.06-.37,2.7-1.1.65-.73.97-1.76.97-3.08,0-1.39-.31-2.46-.94-3.21-.63-.75-1.54-1.12-2.73-1.12h-1.83c-.17,0-.26.08-.26.25ZM445.41,96.52c.64-.82.97-1.97.97-3.47s-.32-2.69-.97-3.57c-.65-.88-1.51-1.33-2.6-1.33h-2.29c-.17,0-.26.08-.26.25v9.08c0,.17.08.25.26.25h2.24c1.12,0,2.01-.41,2.65-1.22Z"/>
      <path class="st1" d="M470.81,103.4l-.82-4.9c0-.17-.1-.25-.31-.25h-6.48c-.2,0-.31.09-.31.25l-.82,4.9c-.03.38-.25.56-.66.56h-5.97c-.44,0-.61-.22-.51-.66l7.5-34.47c.07-.37.29-.56.66-.56h6.88c.37,0,.59.19.66.56l7.45,34.47.05.2c0,.31-.19.46-.56.46h-6.12c-.41,0-.63-.19-.66-.56ZM464.12,92.69h4.59c.17,0,.24-.08.2-.25l-2.4-13.92c-.03-.1-.09-.15-.15-.15s-.12.05-.15.15l-2.29,13.92c0,.17.07.25.2.25Z"/>
      <path class="st1" d="M481.69,103.78c-.12-.12-.18-.26-.18-.43v-34.47c0-.17.06-.31.18-.43.12-.12.26-.18.43-.18h5.97c.17,0,.31.06.43.18.12.12.18.26.18.43v28.66c0,.17.08.25.26.25h10.71c.17,0,.31.06.43.18s.18.26.18.43v4.95c0,.17-.06.31-.18.43s-.26.18-.43.18h-17.54c-.17,0-.31-.06-.43-.18Z"/>
      <path class="st1" d="M518.89,103.4l-.82-4.9c0-.17-.1-.25-.31-.25h-6.48c-.2,0-.31.09-.31.25l-.82,4.9c-.03.38-.25.56-.66.56h-5.97c-.44,0-.61-.22-.51-.66l7.5-34.47c.07-.37.29-.56.66-.56h6.88c.37,0,.59.19.66.56l7.45,34.47.05.2c0,.31-.19.46-.56.46h-6.12c-.41,0-.63-.19-.66-.56ZM512.21,92.69h4.59c.17,0,.24-.08.2-.25l-2.4-13.92c-.03-.1-.09-.15-.15-.15s-.12.05-.15.15l-2.29,13.92c0,.17.07.25.2.25Z"/>
      <path class="st1" d="M544.37,68.44c.12-.12.26-.18.43-.18h5.92c.17,0,.31.06.43.18.12.12.18.26.18.43v34.47c0,.17-.06.31-.18.43s-.26.18-.43.18h-6.73c-.34,0-.56-.17-.66-.51l-6.32-19.74c-.03-.1-.09-.14-.18-.13-.09.02-.13.08-.13.18l.05,19.58c0,.17-.06.31-.18.43s-.26.18-.43.18h-5.92c-.17,0-.31-.06-.43-.18s-.18-.26-.18-.43v-34.47c0-.17.06-.31.18-.43.12-.12.26-.18.43-.18h6.68c.34,0,.56.17.66.51l6.37,19.74c.03.1.09.14.18.13.08-.02.13-.08.13-.18l-.05-19.58c0-.17.06-.31.18-.43Z"/>
      <path class="st1" d="M558.54,101.64c-1.85-1.82-2.78-4.26-2.78-7.32v-16.52c0-3.03.93-5.44,2.78-7.24s4.31-2.7,7.37-2.7,5.57.9,7.42,2.7c1.85,1.8,2.78,4.22,2.78,7.24v.56c0,.17-.06.31-.18.43-.12.12-.26.18-.43.18l-5.97.25c-.41,0-.61-.19-.61-.56v-1.33c0-.99-.27-1.79-.82-2.4-.54-.61-1.27-.92-2.19-.92s-1.6.31-2.14.92c-.54.61-.82,1.41-.82,2.4v17.59c0,.99.27,1.78.82,2.37.54.6,1.26.89,2.14.89s1.65-.3,2.19-.89c.54-.59.82-1.38.82-2.37v-1.38c0-.17.06-.31.18-.43s.26-.18.43-.18l5.97.25c.17,0,.31.06.43.18.12.12.18.26.18.43v.51c0,3.06-.94,5.5-2.8,7.32-1.87,1.82-4.33,2.73-7.39,2.73s-5.52-.91-7.37-2.73Z"/>
      <path class="st1" d="M598.93,74.26c-.12.12-.26.18-.43.18h-10.66c-.17,0-.26.08-.26.25v8.06c0,.17.08.25.26.25h6.12c.17,0,.31.06.43.18.12.12.18.26.18.43v4.95c0,.17-.06.31-.18.43-.12.12-.26.18-.43.18h-6.12c-.17,0-.26.09-.26.25v8.11c0,.17.08.25.26.25h10.66c.17,0,.31.06.43.18s.18.26.18.43v4.95c0,.17-.06.31-.18.43s-.26.18-.43.18h-17.49c-.17,0-.31-.06-.43-.18s-.18-.26-.18-.43v-34.47c0-.17.06-.31.18-.43.12-.12.26-.18.43-.18h17.49c.17,0,.31.06.43.18.12.12.18.26.18.43v4.95c0,.17-.06.31-.18.43Z"/>
      <path class="st1" d="M114.18,164.6l-6.88-34.47-.05-.2c0-.31.19-.46.56-.46h6.22c.41,0,.63.19.66.56l2.91,18.36c.03.14.08.2.15.2s.12-.07.15-.2l2.75-18.36c.03-.37.25-.56.66-.56h5.15c.41,0,.63.19.66.56l3.01,18.36c.03.14.08.2.15.2s.12-.07.15-.2l2.6-18.36c.03-.37.25-.56.66-.56h6.02c.44,0,.63.22.56.66l-6.48,34.47c-.03.37-.26.56-.66.56h-5.51c-.41,0-.63-.19-.66-.56l-3.01-18.87c-.03-.14-.08-.2-.15-.2s-.12.07-.15.2l-2.7,18.87c-.03.37-.25.56-.66.56h-5.46c-.37,0-.6-.19-.66-.56Z"/>
      <path class="st1" d="M144.24,164.98c-.12-.12-.18-.26-.18-.43v-34.47c0-.17.06-.31.18-.43.12-.12.26-.18.43-.18h5.97c.17,0,.31.06.43.18s.18.26.18.43v34.47c0,.17-.06.31-.18.43-.12.12-.26.18-.43.18h-5.97c-.17,0-.31-.06-.43-.18Z"/>
      <path class="st1" d="M176.47,129.64c.12.12.18.26.18.43v4.95c0,.17-.06.31-.18.43-.12.12-.26.18-.43.18h-6.37c-.17,0-.25.08-.25.25v28.66c0,.17-.06.31-.18.43-.12.12-.26.18-.43.18h-5.97c-.17,0-.31-.06-.43-.18-.12-.12-.18-.26-.18-.43v-28.66c0-.17-.08-.25-.25-.25h-6.12c-.17,0-.31-.06-.43-.18-.12-.12-.18-.26-.18-.43v-4.95c0-.17.06-.31.18-.43.12-.12.26-.18.43-.18h20.19c.17,0,.31.06.43.18Z"/>
      <path class="st1" d="M193.55,129.64c.12-.12.26-.18.43-.18h5.97c.17,0,.31.06.43.18.12.12.18.26.18.43v34.47c0,.17-.06.31-.18.43-.12.12-.26.18-.43.18h-5.97c-.17,0-.31-.06-.43-.18-.12-.12-.18-.26-.18-.43v-13.92c0-.17-.09-.25-.25-.25h-5.1c-.17,0-.25.08-.25.25v13.92c0,.17-.06.31-.18.43-.12.12-.26.18-.43.18h-5.97c-.17,0-.31-.06-.43-.18-.12-.12-.18-.26-.18-.43v-34.47c0-.17.06-.31.18-.43.12-.12.26-.18.43-.18h5.97c.17,0,.31.06.43.18s.18.26.18.43v13.87c0,.17.08.25.25.25h5.1c.17,0,.25-.08.25-.25v-13.87c0-.17.06-.31.18-.43Z"/>
      <path class="st1" d="M236.39,129.64c.12.12.18.26.18.43v4.95c0,.17-.06.31-.18.43-.12.12-.26.18-.43.18h-6.37c-.17,0-.25.08-.25.25v28.66c0,.17-.06.31-.18.43-.12.12-.26.18-.43.18h-5.97c-.17,0-.31-.06-.43-.18-.12-.12-.18-.26-.18-.43v-28.66c0-.17-.08-.25-.25-.25h-6.12c-.17,0-.31-.06-.43-.18-.12-.12-.18-.26-.18-.43v-4.95c0-.17.06-.31.18-.43.12-.12.26-.18.43-.18h20.19c.17,0,.31.06.43.18Z"/>
      <path class="st1" d="M253.47,129.64c.12-.12.26-.18.43-.18h5.97c.17,0,.31.06.43.18.12.12.18.26.18.43v34.47c0,.17-.06.31-.18.43-.12.12-.26.18-.43.18h-5.97c-.17,0-.31-.06-.43-.18-.12-.12-.18-.26-.18-.43v-13.92c0-.17-.09-.25-.25-.25h-5.1c-.17,0-.25.08-.25.25v13.92c0,.17-.06.31-.18.43-.12.12-.26.18-.43.18h-5.97c-.17,0-.31-.06-.43-.18-.12-.12-.18-.26-.18-.43v-34.47c0-.17.06-.31.18-.43.12-.12.26-.18.43-.18h5.97c.17,0,.31.06.43.18s.18.26.18.43v13.87c0,.17.08.25.25.25h5.1c.17,0,.25-.08.25-.25v-13.87c0-.17.06-.31.18-.43Z"/>
      <path class="st1" d="M283.81,135.45c-.12.12-.26.18-.43.18h-10.66c-.17,0-.25.08-.25.25v8.06c0,.17.08.25.25.25h6.12c.17,0,.31.06.43.18.12.12.18.26.18.43v4.95c0,.17-.06.32-.18.43-.12.12-.26.18-.43.18h-6.12c-.17,0-.25.08-.25.25v8.11c0,.17.08.25.25.25h10.66c.17,0,.31.06.43.18.12.12.18.26.18.43v4.95c0,.17-.06.31-.18.43-.12.12-.26.18-.43.18h-17.49c-.17,0-.31-.06-.43-.18-.12-.12-.18-.26-.18-.43v-34.47c0-.17.06-.31.18-.43.12-.12.26-.18.43-.18h17.49c.17,0,.31.06.43.18.12.12.18.26.18.43v4.95c0,.17-.06.31-.18.43Z"/>
      <path class="st1" d="M304.44,164.6l-6.88-34.47-.05-.2c0-.31.19-.46.56-.46h6.22c.41,0,.63.19.66.56l2.91,18.36c.03.14.08.2.15.2s.12-.07.15-.2l2.75-18.36c.03-.37.25-.56.66-.56h5.15c.41,0,.63.19.66.56l3.01,18.36c.03.14.08.2.15.2s.12-.07.15-.2l2.6-18.36c.03-.37.25-.56.66-.56h6.02c.44,0,.63.22.56.66l-6.48,34.47c-.03.37-.26.56-.66.56h-5.51c-.41,0-.63-.19-.66-.56l-3.01-18.87c-.03-.14-.08-.2-.15-.2s-.12.07-.15.2l-2.7,18.87c-.03.37-.25.56-.66.56h-5.46c-.37,0-.6-.19-.66-.56Z"/>
      <path class="st1" d="M335.75,162.81c-1.87-1.84-2.8-4.28-2.8-7.34v-16.32c0-3.06.93-5.51,2.8-7.34,1.87-1.84,4.37-2.75,7.5-2.75s5.64.92,7.52,2.75,2.83,4.28,2.83,7.34v16.32c0,3.06-.94,5.51-2.83,7.34s-4.39,2.75-7.52,2.75-5.63-.92-7.5-2.75ZM345.54,158.4c.58-.66.87-1.54.87-2.63v-16.93c0-1.09-.29-1.96-.87-2.63-.58-.66-1.34-.99-2.29-.99s-1.71.33-2.27.99-.84,1.54-.84,2.63v16.93c0,1.09.28,1.96.84,2.63s1.32,1,2.27,1,1.72-.33,2.29-1Z"/>
      <path class="st1" d="M371.39,164.65l-3.93-14.07c-.07-.14-.15-.2-.25-.2h-1.73c-.17,0-.25.08-.25.25v13.92c0,.17-.06.31-.18.43-.12.12-.26.18-.43.18h-5.97c-.17,0-.31-.06-.43-.18-.12-.12-.18-.26-.18-.43v-34.47c0-.17.06-.31.18-.43.12-.12.26-.18.43-.18h10.3c1.87,0,3.54.45,5,1.35,1.46.9,2.59,2.17,3.39,3.8s1.2,3.5,1.2,5.61-.38,3.77-1.15,5.3c-.76,1.53-1.83,2.72-3.19,3.57-.07.03-.12.08-.15.13-.03.05-.03.11,0,.18l4.69,15.04.05.2c0,.34-.19.51-.56.51h-6.12c-.37,0-.61-.17-.71-.51ZM365.22,135.89v8.72c0,.17.08.25.25.25h2.29c1.05,0,1.91-.42,2.58-1.25s.99-1.95.99-3.34-.33-2.56-.99-3.39-1.52-1.25-2.58-1.25h-2.29c-.17,0-.25.08-.25.25Z"/>
      <path class="st1" d="M382.69,164.98c-.12-.12-.18-.26-.18-.43v-34.47c0-.17.06-.31.18-.43s.26-.18.43-.18h5.97c.17,0,.31.06.43.18.12.12.18.26.18.43v28.66c0,.17.08.25.26.25h10.71c.17,0,.31.06.43.18s.18.26.18.43v4.95c0,.17-.06.31-.18.43-.12.12-.26.18-.43.18h-17.54c-.17,0-.31-.06-.43-.18Z"/>
      <path class="st1" d="M404.87,164.98c-.12-.12-.18-.26-.18-.43v-34.47c0-.17.06-.31.18-.43s.26-.18.43-.18h9.23c3.09,0,5.58.9,7.45,2.7,1.87,1.8,2.8,4.2,2.8,7.19v15.91c0,2.99-.94,5.39-2.8,7.19-1.87,1.8-4.35,2.7-7.45,2.7h-9.23c-.17,0-.31-.06-.43-.18ZM412.14,158.99l2.29-.05c.92-.03,1.67-.42,2.24-1.17s.88-1.73.92-2.96v-14.99c0-1.29-.29-2.31-.87-3.06-.58-.75-1.36-1.12-2.35-1.12h-2.24c-.17,0-.26.08-.26.25v22.85c0,.17.08.25.26.25Z"/>
      <path class="st1" d="M454.41,164.6l-.82-4.9c0-.17-.1-.25-.31-.25h-6.48c-.2,0-.31.08-.31.25l-.82,4.9c-.03.37-.25.56-.66.56h-5.97c-.44,0-.61-.22-.51-.66l7.5-34.47c.07-.37.29-.56.66-.56h6.88c.37,0,.59.19.66.56l7.45,34.47.05.2c0,.31-.19.46-.56.46h-6.12c-.41,0-.63-.19-.66-.56ZM447.73,153.89h4.59c.17,0,.24-.08.2-.25l-2.4-13.92c-.03-.1-.09-.15-.15-.15s-.12.05-.15.15l-2.29,13.92c0,.17.07.25.2.25Z"/>
      <path class="st1" d="M478.48,164.65l-3.93-14.07c-.07-.14-.15-.2-.25-.2h-1.73c-.17,0-.26.08-.26.25v13.92c0,.17-.06.31-.18.43s-.26.18-.43.18h-5.97c-.17,0-.31-.06-.43-.18-.12-.12-.18-.26-.18-.43v-34.47c0-.17.06-.31.18-.43s.26-.18.43-.18h10.3c1.87,0,3.54.45,5,1.35,1.46.9,2.59,2.17,3.39,3.8s1.2,3.5,1.2,5.61-.38,3.77-1.15,5.3c-.77,1.53-1.83,2.72-3.19,3.57-.07.03-.12.08-.15.13s-.03.11,0,.18l4.69,15.04.05.2c0,.34-.19.51-.56.51h-6.12c-.38,0-.61-.17-.71-.51ZM472.31,135.89v8.72c0,.17.08.25.26.25h2.29c1.05,0,1.91-.42,2.58-1.25.66-.83,1-1.95,1-3.34s-.33-2.56-1-3.39c-.66-.83-1.52-1.25-2.58-1.25h-2.29c-.17,0-.26.08-.26.25Z"/>
      <path class="st1" d="M491.89,162.81c-1.87-1.84-2.8-4.28-2.8-7.34v-16.32c0-3.06.94-5.51,2.8-7.34,1.87-1.84,4.37-2.75,7.5-2.75s5.63.92,7.52,2.75,2.83,4.28,2.83,7.34v16.32c0,3.06-.94,5.51-2.83,7.34s-4.39,2.75-7.52,2.75-5.63-.92-7.5-2.75ZM501.68,158.4c.58-.66.87-1.54.87-2.63v-16.93c0-1.09-.29-1.96-.87-2.63s-1.34-.99-2.29-.99-1.71.33-2.27.99c-.56.66-.84,1.54-.84,2.63v16.93c0,1.09.28,1.96.84,2.63.56.66,1.32,1,2.27,1s1.72-.33,2.29-1Z"/>
      <path class="st1" d="M516.8,162.68c-1.85-1.92-2.78-4.48-2.78-7.67v-24.94c0-.17.06-.31.18-.43.12-.12.26-.18.43-.18h5.97c.17,0,.31.06.43.18s.18.26.18.43v25.65c0,1.09.27,1.97.82,2.65.54.68,1.26,1.02,2.14,1.02s1.59-.34,2.12-1.02c.53-.68.79-1.56.79-2.65v-25.65c0-.17.06-.31.18-.43.12-.12.26-.18.43-.18h5.97c.17,0,.31.06.43.18s.18.26.18.43v24.94c0,3.2-.93,5.75-2.78,7.67-1.85,1.92-4.29,2.88-7.32,2.88s-5.52-.96-7.37-2.88Z"/>
      <path class="st1" d="M553.52,129.64c.12-.12.26-.18.43-.18h5.92c.17,0,.31.06.43.18s.18.26.18.43v34.47c0,.17-.06.31-.18.43-.12.12-.26.18-.43.18h-6.73c-.34,0-.56-.17-.66-.51l-6.32-19.74c-.03-.1-.09-.14-.18-.13-.09.02-.13.08-.13.18l.05,19.58c0,.17-.06.31-.18.43-.12.12-.26.18-.43.18h-5.92c-.17,0-.31-.06-.43-.18-.12-.12-.18-.26-.18-.43v-34.47c0-.17.06-.31.18-.43s.26-.18.43-.18h6.68c.34,0,.56.17.66.51l6.37,19.74c.03.1.09.14.18.13.08-.02.13-.08.13-.18l-.05-19.58c0-.17.06-.31.18-.43Z"/>
      <path class="st1" d="M565.6,164.98c-.12-.12-.18-.26-.18-.43v-34.47c0-.17.06-.31.18-.43s.26-.18.43-.18h9.23c3.09,0,5.58.9,7.45,2.7,1.87,1.8,2.8,4.2,2.8,7.19v15.91c0,2.99-.94,5.39-2.8,7.19-1.87,1.8-4.35,2.7-7.45,2.7h-9.23c-.17,0-.31-.06-.43-.18ZM572.87,158.99l2.29-.05c.92-.03,1.67-.42,2.24-1.17s.88-1.73.92-2.96v-14.99c0-1.29-.29-2.31-.87-3.06-.58-.75-1.36-1.12-2.35-1.12h-2.24c-.17,0-.26.08-.26.25v22.85c0,.17.08.25.26.25Z"/>
      <path class="st1" d="M603.44,162.68c-1.85-1.92-2.78-4.48-2.78-7.67v-24.94c0-.17.06-.31.18-.43.12-.12.26-.18.43-.18h5.97c.17,0,.31.06.43.18s.18.26.18.43v25.65c0,1.09.27,1.97.82,2.65.54.68,1.26,1.02,2.14,1.02s1.59-.34,2.12-1.02c.53-.68.79-1.56.79-2.65v-25.65c0-.17.06-.31.18-.43.12-.12.26-.18.43-.18h5.97c.17,0,.31.06.43.18s.18.26.18.43v24.94c0,3.2-.93,5.75-2.78,7.67-1.85,1.92-4.29,2.88-7.32,2.88s-5.52-.96-7.37-2.88Z"/>
      <path class="st1" d="M629.68,164.39c-1.5-.78-2.65-1.88-3.47-3.29-.82-1.41-1.22-3.03-1.22-4.87v-1.48c0-.17.06-.31.18-.43s.26-.18.43-.18h5.86c.17,0,.31.06.43.18s.18.26.18.43v1.12c0,1.05.27,1.9.82,2.55.54.65,1.22.97,2.04.97s1.5-.31,2.04-.92c.54-.61.82-1.41.82-2.4s-.34-1.89-1.02-2.63c-.68-.73-2.01-1.81-3.98-3.24-1.7-1.22-3.08-2.31-4.13-3.26-1.05-.95-1.96-2.12-2.7-3.52-.75-1.39-1.12-3.01-1.12-4.84,0-2.89.9-5.2,2.7-6.93,1.8-1.73,4.18-2.6,7.14-2.6s5.4.9,7.22,2.7c1.82,1.8,2.73,4.17,2.73,7.09v1.22c0,.17-.06.31-.18.43s-.26.18-.43.18h-5.86c-.17,0-.31-.06-.43-.18s-.18-.26-.18-.43v-1.38c0-1.05-.26-1.89-.79-2.52-.53-.63-1.22-.94-2.07-.94s-1.48.3-1.99.89c-.51.59-.77,1.42-.77,2.47s.32,1.92.97,2.7c.65.78,1.92,1.87,3.83,3.26,2.11,1.56,3.7,2.83,4.77,3.8,1.07.97,1.9,2.04,2.5,3.21s.89,2.58.89,4.21c0,2.99-.92,5.37-2.75,7.14s-4.25,2.65-7.24,2.65c-1.97,0-3.71-.39-5.2-1.17Z"/>
      <path class="st1" d="M649.23,164.21c-.76-.76-1.15-1.72-1.15-2.88s.37-2.16,1.12-2.91c.75-.75,1.72-1.12,2.91-1.12s2.16.37,2.91,1.12c.75.75,1.12,1.72,1.12,2.91s-.38,2.12-1.15,2.88-1.73,1.15-2.88,1.15-2.12-.38-2.88-1.15Z"/>
    </g>
    <g>
      <path class="st1" d="M183.41,101.41c-1.9,1.7-4.37,2.55-7.39,2.55h-9.64c-.17,0-.31-.06-.43-.18-.12-.12-.18-.26-.18-.43v-34.47c0-.17.06-.31.18-.43.12-.12.26-.18.43-.18h8.52c3.4,0,6.06.82,7.98,2.45,1.92,1.63,2.88,4.06,2.88,7.29s-1.16,5.81-3.47,7.34c-.14.1-.15.2-.05.31,2.69,1.9,4.03,4.73,4.03,8.47,0,3.16-.95,5.59-2.86,7.29ZM172.95,74.69v8.01c0,.17.08.25.25.25h1.84c1.16,0,2.06-.37,2.7-1.1.65-.73.97-1.76.97-3.08,0-1.39-.31-2.46-.94-3.21-.63-.75-1.54-1.12-2.73-1.12h-1.84c-.17,0-.25.08-.25.25ZM178.1,96.52c.65-.82.97-1.97.97-3.47s-.32-2.69-.97-3.57c-.65-.88-1.51-1.33-2.6-1.33h-2.29c-.17,0-.25.08-.25.25v9.08c0,.17.08.25.25.25h2.24c1.12,0,2.01-.41,2.65-1.22Z"/>
      <path class="st1" d="M192.81,101.49c-1.85-1.92-2.78-4.48-2.78-7.67v-24.94c0-.17.06-.31.18-.43.12-.12.26-.18.43-.18h5.97c.17,0,.31.06.43.18.12.12.18.26.18.43v25.65c0,1.09.27,1.97.82,2.65.54.68,1.26,1.02,2.14,1.02s1.59-.34,2.12-1.02c.53-.68.79-1.56.79-2.65v-25.65c0-.17.06-.31.18-.43.12-.12.26-.18.43-.18h5.97c.17,0,.31.06.43.18.12.12.18.26.18.43v24.94c0,3.2-.93,5.75-2.78,7.67-1.85,1.92-4.29,2.88-7.32,2.88s-5.52-.96-7.37-2.88Z"/>
      <path class="st1" d="M235.29,68.44c.12.12.18.26.18.43v4.95c0,.17-.06.31-.18.43-.12.12-.26.18-.43.18h-6.37c-.17,0-.25.08-.25.25v28.66c0,.17-.06.31-.18.43-.12.12-.26.18-.43.18h-5.97c-.17,0-.31-.06-.43-.18-.12-.12-.18-.26-.18-.43v-28.66c0-.17-.08-.25-.25-.25h-6.12c-.17,0-.31-.06-.43-.18-.12-.12-.18-.26-.18-.43v-4.95c0-.17.06-.31.18-.43.12-.12.26-.18.43-.18h20.19c.17,0,.31.06.43.18Z"/>
      <path class="st1" d="M250.23,103.78c-.12-.12-.18-.26-.18-.43v-34.47c0-.17.06-.31.18-.43.12-.12.26-.18.43-.18h5.97c.17,0,.31.06.43.18.12.12.18.26.18.43v28.66c0,.17.08.25.25.25h10.71c.17,0,.31.06.43.18.12.12.18.26.18.43v4.95c0,.17-.06.31-.18.43-.12.12-.26.18-.43.18h-17.54c-.17,0-.31-.06-.43-.18Z"/>
      <path class="st1" d="M272.41,103.78c-.12-.12-.18-.26-.18-.43v-34.47c0-.17.06-.31.18-.43.12-.12.26-.18.43-.18h5.97c.17,0,.31.06.43.18.12.12.18.26.18.43v34.47c0,.17-.06.31-.18.43s-.26.18-.43.18h-5.97c-.17,0-.31-.06-.43-.18Z"/>
      <path class="st1" d="M290.64,103.4l-7.29-34.47-.05-.2c0-.31.19-.46.56-.46h6.58c.41,0,.63.19.66.56l3.52,22.44c.03.14.08.2.15.2s.12-.07.15-.2l3.42-22.44c.03-.37.25-.56.66-.56h6.37c.44,0,.61.22.51.66l-7.34,34.47c-.07.38-.29.56-.66.56h-6.58c-.37,0-.6-.19-.66-.56Z"/>
      <path class="st1" d="M309.95,103.78c-.12-.12-.18-.26-.18-.43v-34.47c0-.17.06-.31.18-.43.12-.12.26-.18.43-.18h5.97c.17,0,.31.06.43.18.12.12.18.26.18.43v34.47c0,.17-.06.31-.18.43s-.26.18-.43.18h-5.97c-.17,0-.31-.06-.43-.18Z"/>
      <path class="st1" d="M336.72,68.44c.12-.12.26-.18.43-.18h5.92c.17,0,.31.06.43.18.12.12.18.26.18.43v34.47c0,.17-.06.31-.18.43-.12.12-.26.18-.43.18h-6.73c-.34,0-.56-.17-.66-.51l-6.32-19.74c-.03-.1-.09-.14-.18-.13-.08.02-.13.08-.13.18l.05,19.58c0,.17-.06.31-.18.43-.12.12-.26.18-.43.18h-5.92c-.17,0-.31-.06-.43-.18-.12-.12-.18-.26-.18-.43v-34.47c0-.17.06-.31.18-.43.12-.12.26-.18.43-.18h6.68c.34,0,.56.17.66.51l6.37,19.74c.03.1.09.14.18.13.08-.02.13-.08.13-.18l-.05-19.58c0-.17.06-.31.18-.43Z"/>
      <path class="st1" d="M350.89,101.74c-1.85-1.75-2.78-4.09-2.78-7.01v-17.24c0-2.92.93-5.26,2.78-7.01,1.85-1.75,4.31-2.63,7.37-2.63s5.52.88,7.39,2.65c1.87,1.77,2.8,4.11,2.8,7.04v1.94c0,.17-.06.31-.18.43-.12.12-.26.18-.43.18h-5.97c-.17,0-.31-.06-.43-.18-.12-.12-.18-.26-.18-.43v-2.04c0-1.02-.27-1.84-.82-2.47-.54-.63-1.27-.94-2.19-.94s-1.6.32-2.14.94c-.54.63-.82,1.45-.82,2.47v17.34c0,1.02.27,1.84.82,2.47.54.63,1.26.94,2.14.94s1.65-.31,2.19-.94c.54-.63.82-1.45.82-2.47v-4.08c0-.17-.09-.25-.25-.25h-2.24c-.17,0-.31-.06-.43-.18-.12-.12-.18-.26-.18-.43v-4.54c0-.17.06-.31.18-.43.12-.12.26-.18.43-.18h9.08c.17,0,.31.06.43.18.12.12.18.26.18.43v9.43c0,2.92-.94,5.26-2.8,7.01-1.87,1.75-4.33,2.63-7.39,2.63s-5.52-.87-7.37-2.63Z"/>
      <path class="st1" d="M383.73,103.78c-.12-.12-.18-.26-.18-.43v-34.47c0-.17.06-.31.18-.43.12-.12.26-.18.43-.18h5.97c.17,0,.31.06.43.18.12.12.18.26.18.43v34.47c0,.17-.06.31-.18.43-.12.12-.26.18-.43.18h-5.97c-.17,0-.31-.06-.43-.18Z"/>
      <path class="st1" d="M410.51,68.44c.12-.12.26-.18.43-.18h5.92c.17,0,.31.06.43.18.12.12.18.26.18.43v34.47c0,.17-.06.31-.18.43s-.26.18-.43.18h-6.73c-.34,0-.56-.17-.66-.51l-6.32-19.74c-.03-.1-.09-.14-.18-.13-.09.02-.13.08-.13.18l.05,19.58c0,.17-.06.31-.18.43s-.26.18-.43.18h-5.92c-.17,0-.31-.06-.43-.18s-.18-.26-.18-.43v-34.47c0-.17.06-.31.18-.43.12-.12.26-.18.43-.18h6.68c.34,0,.56.17.66.51l6.37,19.74c.03.1.09.14.18.13.08-.02.13-.08.13-.18l-.05-19.58c0-.17.06-.31.18-.43Z"/>
      <path class="st1" d="M450.71,101.41c-1.9,1.7-4.37,2.55-7.39,2.55h-9.64c-.17,0-.31-.06-.43-.18s-.18-.26-.18-.43v-34.47c0-.17.06-.31.18-.43.12-.12.26-.18.43-.18h8.52c3.4,0,6.06.82,7.98,2.45,1.92,1.63,2.88,4.06,2.88,7.29s-1.16,5.81-3.47,7.34c-.14.1-.15.2-.05.31,2.69,1.9,4.03,4.73,4.03,8.47,0,3.16-.95,5.59-2.86,7.29ZM440.26,74.69v8.01c0,.17.08.25.26.25h1.83c1.16,0,2.06-.37,2.7-1.1.65-.73.97-1.76.97-3.08,0-1.39-.31-2.46-.94-3.21-.63-.75-1.54-1.12-2.73-1.12h-1.83c-.17,0-.26.08-.26.25ZM445.41,96.52c.64-.82.97-1.97.97-3.47s-.32-2.69-.97-3.57c-.65-.88-1.51-1.33-2.6-1.33h-2.29c-.17,0-.26.08-.26.25v9.08c0,.17.08.25.26.25h2.24c1.12,0,2.01-.41,2.65-1.22Z"/>
      <path class="st1" d="M470.81,103.4l-.82-4.9c0-.17-.1-.25-.31-.25h-6.48c-.2,0-.31.09-.31.25l-.82,4.9c-.03.38-.25.56-.66.56h-5.97c-.44,0-.61-.22-.51-.66l7.5-34.47c.07-.37.29-.56.66-.56h6.88c.37,0,.59.19.66.56l7.45,34.47.05.2c0,.31-.19.46-.56.46h-6.12c-.41,0-.63-.19-.66-.56ZM464.12,92.69h4.59c.17,0,.24-.08.2-.25l-2.4-13.92c-.03-.1-.09-.15-.15-.15s-.12.05-.15.15l-2.29,13.92c0,.17.07.25.2.25Z"/>
      <path class="st1" d="M481.69,103.78c-.12-.12-.18-.26-.18-.43v-34.47c0-.17.06-.31.18-.43.12-.12.26-.18.43-.18h5.97c.17,0,.31.06.43.18.12.12.18.26.18.43v28.66c0,.17.08.25.26.25h10.71c.17,0,.31.06.43.18s.18.26.18.43v4.95c0,.17-.06.31-.18.43s-.26.18-.43.18h-17.54c-.17,0-.31-.06-.43-.18Z"/>
      <path class="st1" d="M518.89,103.4l-.82-4.9c0-.17-.1-.25-.31-.25h-6.48c-.2,0-.31.09-.31.25l-.82,4.9c-.03.38-.25.56-.66.56h-5.97c-.44,0-.61-.22-.51-.66l7.5-34.47c.07-.37.29-.56.66-.56h6.88c.37,0,.59.19.66.56l7.45,34.47.05.2c0,.31-.19.46-.56.46h-6.12c-.41,0-.63-.19-.66-.56ZM512.21,92.69h4.59c.17,0,.24-.08.2-.25l-2.4-13.92c-.03-.1-.09-.15-.15-.15s-.12.05-.15.15l-2.29,13.92c0,.17.07.25.2.25Z"/>
      <path class="st1" d="M544.37,68.44c.12-.12.26-.18.43-.18h5.92c.17,0,.31.06.43.18.12.12.18.26.18.43v34.47c0,.17-.06.31-.18.43s-.26.18-.43.18h-6.73c-.34,0-.56-.17-.66-.51l-6.32-19.74c-.03-.1-.09-.14-.18-.13-.09.02-.13.08-.13.18l.05,19.58c0,.17-.06.31-.18.43s-.26.18-.43.18h-5.92c-.17,0-.31-.06-.43-.18s-.18-.26-.18-.43v-34.47c0-.17.06-.31.18-.43.12-.12.26-.18.43-.18h6.68c.34,0,.56.17.66.51l6.37,19.74c.03.1.09.14.18.13.08-.02.13-.08.13-.18l-.05-19.58c0-.17.06-.31.18-.43Z"/>
      <path class="st1" d="M558.54,101.64c-1.85-1.82-2.78-4.26-2.78-7.32v-16.52c0-3.03.93-5.44,2.78-7.24s4.31-2.7,7.37-2.7,5.57.9,7.42,2.7c1.85,1.8,2.78,4.22,2.78,7.24v.56c0,.17-.06.31-.18.43-.12.12-.26.18-.43.18l-5.97.25c-.41,0-.61-.19-.61-.56v-1.33c0-.99-.27-1.79-.82-2.4-.54-.61-1.27-.92-2.19-.92s-1.6.31-2.14.92c-.54.61-.82,1.41-.82,2.4v17.59c0,.99.27,1.78.82,2.37.54.6,1.26.89,2.14.89s1.65-.3,2.19-.89c.54-.59.82-1.38.82-2.37v-1.38c0-.17.06-.31.18-.43s.26-.18.43-.18l5.97.25c.17,0,.31.06.43.18.12.12.18.26.18.43v.51c0,3.06-.94,5.5-2.8,7.32-1.87,1.82-4.33,2.73-7.39,2.73s-5.52-.91-7.37-2.73Z"/>
      <path class="st1" d="M598.93,74.26c-.12.12-.26.18-.43.18h-10.66c-.17,0-.26.08-.26.25v8.06c0,.17.08.25.26.25h6.12c.17,0,.31.06.43.18.12.12.18.26.18.43v4.95c0,.17-.06.31-.18.43-.12.12-.26.18-.43.18h-6.12c-.17,0-.26.09-.26.25v8.11c0,.17.08.25.26.25h10.66c.17,0,.31.06.43.18s.18.26.18.43v4.95c0,.17-.06.31-.18.43s-.26.18-.43.18h-17.49c-.17,0-.31-.06-.43-.18s-.18-.26-.18-.43v-34.47c0-.17.06-.31.18-.43.12-.12.26-.18.43-.18h17.49c.17,0,.31.06.43.18.12.12.18.26.18.43v4.95c0,.17-.06.31-.18.43Z"/>
      <path class="st1" d="M114.18,164.6l-6.88-34.47-.05-.2c0-.31.19-.46.56-.46h6.22c.41,0,.63.19.66.56l2.91,18.36c.03.14.08.2.15.2s.12-.07.15-.2l2.75-18.36c.03-.37.25-.56.66-.56h5.15c.41,0,.63.19.66.56l3.01,18.36c.03.14.08.2.15.2s.12-.07.15-.2l2.6-18.36c.03-.37.25-.56.66-.56h6.02c.44,0,.63.22.56.66l-6.48,34.47c-.03.37-.26.56-.66.56h-5.51c-.41,0-.63-.19-.66-.56l-3.01-18.87c-.03-.14-.08-.2-.15-.2s-.12.07-.15.2l-2.7,18.87c-.03.37-.25.56-.66.56h-5.46c-.37,0-.6-.19-.66-.56Z"/>
      <path class="st1" d="M144.24,164.98c-.12-.12-.18-.26-.18-.43v-34.47c0-.17.06-.31.18-.43.12-.12.26-.18.43-.18h5.97c.17,0,.31.06.43.18s.18.26.18.43v34.47c0,.17-.06.31-.18.43-.12.12-.26.18-.43.18h-5.97c-.17,0-.31-.06-.43-.18Z"/>
      <path class="st1" d="M176.47,129.64c.12.12.18.26.18.43v4.95c0,.17-.06.31-.18.43-.12.12-.26.18-.43.18h-6.37c-.17,0-.25.08-.25.25v28.66c0,.17-.06.31-.18.43-.12.12-.26.18-.43.18h-5.97c-.17,0-.31-.06-.43-.18-.12-.12-.18-.26-.18-.43v-28.66c0-.17-.08-.25-.25-.25h-6.12c-.17,0-.31-.06-.43-.18-.12-.12-.18-.26-.18-.43v-4.95c0-.17.06-.31.18-.43.12-.12.26-.18.43-.18h20.19c.17,0,.31.06.43.18Z"/>
      <path class="st1" d="M193.55,129.64c.12-.12.26-.18.43-.18h5.97c.17,0,.31.06.43.18.12.12.18.26.18.43v34.47c0,.17-.06.31-.18.43-.12.12-.26.18-.43.18h-5.97c-.17,0-.31-.06-.43-.18-.12-.12-.18-.26-.18-.43v-13.92c0-.17-.09-.25-.25-.25h-5.1c-.17,0-.25.08-.25.25v13.92c0,.17-.06.31-.18.43-.12.12-.26.18-.43.18h-5.97c-.17,0-.31-.06-.43-.18-.12-.12-.18-.26-.18-.43v-34.47c0-.17.06-.31.18-.43.12-.12.26-.18.43-.18h5.97c.17,0,.31.06.43.18s.18.26.18.43v13.87c0,.17.08.25.25.25h5.1c.17,0,.25-.08.25-.25v-13.87c0-.17.06-.31.18-.43Z"/>
      <path class="st1" d="M236.39,129.64c.12.12.18.26.18.43v4.95c0,.17-.06.31-.18.43-.12.12-.26.18-.43.18h-6.37c-.17,0-.25.08-.25.25v28.66c0,.17-.06.31-.18.43-.12.12-.26.18-.43.18h-5.97c-.17,0-.31-.06-.43-.18-.12-.12-.18-.26-.18-.43v-28.66c0-.17-.08-.25-.25-.25h-6.12c-.17,0-.31-.06-.43-.18-.12-.12-.18-.26-.18-.43v-4.95c0-.17.06-.31.18-.43.12-.12.26-.18.43-.18h20.19c.17,0,.31.06.43.18Z"/>
      <path class="st1" d="M253.47,129.64c.12-.12.26-.18.43-.18h5.97c.17,0,.31.06.43.18.12.12.18.26.18.43v34.47c0,.17-.06.31-.18.43-.12.12-.26.18-.43.18h-5.97c-.17,0-.31-.06-.43-.18-.12-.12-.18-.26-.18-.43v-13.92c0-.17-.09-.25-.25-.25h-5.1c-.17,0-.25.08-.25.25v13.92c0,.17-.06.31-.18.43-.12.12-.26.18-.43.18h-5.97c-.17,0-.31-.06-.43-.18-.12-.12-.18-.26-.18-.43v-34.47c0-.17.06-.31.18-.43.12-.12.26-.18.43-.18h5.97c.17,0,.31.06.43.18s.18.26.18.43v13.87c0,.17.08.25.25.25h5.1c.17,0,.25-.08.25-.25v-13.87c0-.17.06-.31.18-.43Z"/>
      <path class="st1" d="M283.81,135.45c-.12.12-.26.18-.43.18h-10.66c-.17,0-.25.08-.25.25v8.06c0,.17.08.25.25.25h6.12c.17,0,.31.06.43.18.12.12.18.26.18.43v4.95c0,.17-.06.32-.18.43-.12.12-.26.18-.43.18h-6.12c-.17,0-.25.08-.25.25v8.11c0,.17.08.25.25.25h10.66c.17,0,.31.06.43.18.12.12.18.26.18.43v4.95c0,.17-.06.31-.18.43-.12.12-.26.18-.43.18h-17.49c-.17,0-.31-.06-.43-.18-.12-.12-.18-.26-.18-.43v-34.47c0-.17.06-.31.18-.43.12-.12.26-.18.43-.18h17.49c.17,0,.31.06.43.18.12.12.18.26.18.43v4.95c0,.17-.06.31-.18.43Z"/>
      <path class="st1" d="M304.44,164.6l-6.88-34.47-.05-.2c0-.31.19-.46.56-.46h6.22c.41,0,.63.19.66.56l2.91,18.36c.03.14.08.2.15.2s.12-.07.15-.2l2.75-18.36c.03-.37.25-.56.66-.56h5.15c.41,0,.63.19.66.56l3.01,18.36c.03.14.08.2.15.2s.12-.07.15-.2l2.6-18.36c.03-.37.25-.56.66-.56h6.02c.44,0,.63.22.56.66l-6.48,34.47c-.03.37-.26.56-.66.56h-5.51c-.41,0-.63-.19-.66-.56l-3.01-18.87c-.03-.14-.08-.2-.15-.2s-.12.07-.15.2l-2.7,18.87c-.03.37-.25.56-.66.56h-5.46c-.37,0-.6-.19-.66-.56Z"/>
      <path class="st1" d="M335.75,162.81c-1.87-1.84-2.8-4.28-2.8-7.34v-16.32c0-3.06.93-5.51,2.8-7.34,1.87-1.84,4.37-2.75,7.5-2.75s5.64.92,7.52,2.75,2.83,4.28,2.83,7.34v16.32c0,3.06-.94,5.51-2.83,7.34s-4.39,2.75-7.52,2.75-5.63-.92-7.5-2.75ZM345.54,158.4c.58-.66.87-1.54.87-2.63v-16.93c0-1.09-.29-1.96-.87-2.63-.58-.66-1.34-.99-2.29-.99s-1.71.33-2.27.99-.84,1.54-.84,2.63v16.93c0,1.09.28,1.96.84,2.63s1.32,1,2.27,1,1.72-.33,2.29-1Z"/>
      <path class="st1" d="M371.39,164.65l-3.93-14.07c-.07-.14-.15-.2-.25-.2h-1.73c-.17,0-.25.08-.25.25v13.92c0,.17-.06.31-.18.43-.12.12-.26.18-.43.18h-5.97c-.17,0-.31-.06-.43-.18-.12-.12-.18-.26-.18-.43v-34.47c0-.17.06-.31.18-.43.12-.12.26-.18.43-.18h10.3c1.87,0,3.54.45,5,1.35,1.46.9,2.59,2.17,3.39,3.8s1.2,3.5,1.2,5.61-.38,3.77-1.15,5.3c-.76,1.53-1.83,2.72-3.19,3.57-.07.03-.12.08-.15.13-.03.05-.03.11,0,.18l4.69,15.04.05.2c0,.34-.19.51-.56.51h-6.12c-.37,0-.61-.17-.71-.51ZM365.22,135.89v8.72c0,.17.08.25.25.25h2.29c1.05,0,1.91-.42,2.58-1.25s.99-1.95.99-3.34-.33-2.56-.99-3.39-1.52-1.25-2.58-1.25h-2.29c-.17,0-.25.08-.25.25Z"/>
      <path class="st1" d="M382.69,164.98c-.12-.12-.18-.26-.18-.43v-34.47c0-.17.06-.31.18-.43s.26-.18.43-.18h5.97c.17,0,.31.06.43.18.12.12.18.26.18.43v28.66c0,.17.08.25.26.25h10.71c.17,0,.31.06.43.18s.18.26.18.43v4.95c0,.17-.06.31-.18.43-.12.12-.26.18-.43.18h-17.54c-.17,0-.31-.06-.43-.18Z"/>
      <path class="st1" d="M404.87,164.98c-.12-.12-.18-.26-.18-.43v-34.47c0-.17.06-.31.18-.43s.26-.18.43-.18h9.23c3.09,0,5.58.9,7.45,2.7,1.87,1.8,2.8,4.2,2.8,7.19v15.91c0,2.99-.94,5.39-2.8,7.19-1.87,1.8-4.35,2.7-7.45,2.7h-9.23c-.17,0-.31-.06-.43-.18ZM412.14,158.99l2.29-.05c.92-.03,1.67-.42,2.24-1.17s.88-1.73.92-2.96v-14.99c0-1.29-.29-2.31-.87-3.06-.58-.75-1.36-1.12-2.35-1.12h-2.24c-.17,0-.26.08-.26.25v22.85c0,.17.08.25.26.25Z"/>
      <path class="st1" d="M454.41,164.6l-.82-4.9c0-.17-.1-.25-.31-.25h-6.48c-.2,0-.31.08-.31.25l-.82,4.9c-.03.37-.25.56-.66.56h-5.97c-.44,0-.61-.22-.51-.66l7.5-34.47c.07-.37.29-.56.66-.56h6.88c.37,0,.59.19.66.56l7.45,34.47.05.2c0,.31-.19.46-.56.46h-6.12c-.41,0-.63-.19-.66-.56ZM447.73,153.89h4.59c.17,0,.24-.08.2-.25l-2.4-13.92c-.03-.1-.09-.15-.15-.15s-.12.05-.15.15l-2.29,13.92c0,.17.07.25.2.25Z"/>
      <path class="st1" d="M478.48,164.65l-3.93-14.07c-.07-.14-.15-.2-.25-.2h-1.73c-.17,0-.26.08-.26.25v13.92c0,.17-.06.31-.18.43s-.26.18-.43.18h-5.97c-.17,0-.31-.06-.43-.18-.12-.12-.18-.26-.18-.43v-34.47c0-.17.06-.31.18-.43s.26-.18.43-.18h10.3c1.87,0,3.54.45,5,1.35,1.46.9,2.59,2.17,3.39,3.8s1.2,3.5,1.2,5.61-.38,3.77-1.15,5.3c-.77,1.53-1.83,2.72-3.19,3.57-.07.03-.12.08-.15.13s-.03.11,0,.18l4.69,15.04.05.2c0,.34-.19.51-.56.51h-6.12c-.38,0-.61-.17-.71-.51ZM472.31,135.89v8.72c0,.17.08.25.26.25h2.29c1.05,0,1.91-.42,2.58-1.25.66-.83,1-1.95,1-3.34s-.33-2.56-1-3.39c-.66-.83-1.52-1.25-2.58-1.25h-2.29c-.17,0-.26.08-.26.25Z"/>
      <path class="st1" d="M491.89,162.81c-1.87-1.84-2.8-4.28-2.8-7.34v-16.32c0-3.06.94-5.51,2.8-7.34,1.87-1.84,4.37-2.75,7.5-2.75s5.63.92,7.52,2.75,2.83,4.28,2.83,7.34v16.32c0,3.06-.94,5.51-2.83,7.34s-4.39,2.75-7.52,2.75-5.63-.92-7.5-2.75ZM501.68,158.4c.58-.66.87-1.54.87-2.63v-16.93c0-1.09-.29-1.96-.87-2.63s-1.34-.99-2.29-.99-1.71.33-2.27.99c-.56.66-.84,1.54-.84,2.63v16.93c0,1.09.28,1.96.84,2.63.56.66,1.32,1,2.27,1s1.72-.33,2.29-1Z"/>
      <path class="st1" d="M516.8,162.68c-1.85-1.92-2.78-4.48-2.78-7.67v-24.94c0-.17.06-.31.18-.43.12-.12.26-.18.43-.18h5.97c.17,0,.31.06.43.18s.18.26.18.43v25.65c0,1.09.27,1.97.82,2.65.54.68,1.26,1.02,2.14,1.02s1.59-.34,2.12-1.02c.53-.68.79-1.56.79-2.65v-25.65c0-.17.06-.31.18-.43.12-.12.26-.18.43-.18h5.97c.17,0,.31.06.43.18s.18.26.18.43v24.94c0,3.2-.93,5.75-2.78,7.67-1.85,1.92-4.29,2.88-7.32,2.88s-5.52-.96-7.37-2.88Z"/>
      <path class="st1" d="M553.52,129.64c.12-.12.26-.18.43-.18h5.92c.17,0,.31.06.43.18s.18.26.18.43v34.47c0,.17-.06.31-.18.43-.12.12-.26.18-.43.18h-6.73c-.34,0-.56-.17-.66-.51l-6.32-19.74c-.03-.1-.09-.14-.18-.13-.09.02-.13.08-.13.18l.05,19.58c0,.17-.06.31-.18.43-.12.12-.26.18-.43.18h-5.92c-.17,0-.31-.06-.43-.18-.12-.12-.18-.26-.18-.43v-34.47c0-.17.06-.31.18-.43s.26-.18.43-.18h6.68c.34,0,.56.17.66.51l6.37,19.74c.03.1.09.14.18.13.08-.02.13-.08.13-.18l-.05-19.58c0-.17.06-.31.18-.43Z"/>
      <path class="st1" d="M565.6,164.98c-.12-.12-.18-.26-.18-.43v-34.47c0-.17.06-.31.18-.43s.26-.18.43-.18h9.23c3.09,0,5.58.9,7.45,2.7,1.87,1.8,2.8,4.2,2.8,7.19v15.91c0,2.99-.94,5.39-2.8,7.19-1.87,1.8-4.35,2.7-7.45,2.7h-9.23c-.17,0-.31-.06-.43-.18ZM572.87,158.99l2.29-.05c.92-.03,1.67-.42,2.24-1.17s.88-1.73.92-2.96v-14.99c0-1.29-.29-2.31-.87-3.06-.58-.75-1.36-1.12-2.35-1.12h-2.24c-.17,0-.26.08-.26.25v22.85c0,.17.08.25.26.25Z"/>
      <path class="st1" d="M603.44,162.68c-1.85-1.92-2.78-4.48-2.78-7.67v-24.94c0-.17.06-.31.18-.43.12-.12.26-.18.43-.18h5.97c.17,0,.31.06.43.18s.18.26.18.43v25.65c0,1.09.27,1.97.82,2.65.54.68,1.26,1.02,2.14,1.02s1.59-.34,2.12-1.02c.53-.68.79-1.56.79-2.65v-25.65c0-.17.06-.31.18-.43.12-.12.26-.18.43-.18h5.97c.17,0,.31.06.43.18s.18.26.18.43v24.94c0,3.2-.93,5.75-2.78,7.67-1.85,1.92-4.29,2.88-7.32,2.88s-5.52-.96-7.37-2.88Z"/>
      <path class="st1" d="M629.68,164.39c-1.5-.78-2.65-1.88-3.47-3.29-.82-1.41-1.22-3.03-1.22-4.87v-1.48c0-.17.06-.31.18-.43s.26-.18.43-.18h5.86c.17,0,.31.06.43.18s.18.26.18.43v1.12c0,1.05.27,1.9.82,2.55.54.65,1.22.97,2.04.97s1.5-.31,2.04-.92c.54-.61.82-1.41.82-2.4s-.34-1.89-1.02-2.63c-.68-.73-2.01-1.81-3.98-3.24-1.7-1.22-3.08-2.31-4.13-3.26-1.05-.95-1.96-2.12-2.7-3.52-.75-1.39-1.12-3.01-1.12-4.84,0-2.89.9-5.2,2.7-6.93,1.8-1.73,4.18-2.6,7.14-2.6s5.4.9,7.22,2.7c1.82,1.8,2.73,4.17,2.73,7.09v1.22c0,.17-.06.31-.18.43s-.26.18-.43.18h-5.86c-.17,0-.31-.06-.43-.18s-.18-.26-.18-.43v-1.38c0-1.05-.26-1.89-.79-2.52-.53-.63-1.22-.94-2.07-.94s-1.48.3-1.99.89c-.51.59-.77,1.42-.77,2.47s.32,1.92.97,2.7c.65.78,1.92,1.87,3.83,3.26,2.11,1.56,3.7,2.83,4.77,3.8,1.07.97,1.9,2.04,2.5,3.21s.89,2.58.89,4.21c0,2.99-.92,5.37-2.75,7.14s-4.25,2.65-7.24,2.65c-1.97,0-3.71-.39-5.2-1.17Z"/>
      <path class="st1" d="M649.23,164.21c-.76-.76-1.15-1.72-1.15-2.88s.37-2.16,1.12-2.91c.75-.75,1.72-1.12,2.91-1.12s2.16.37,2.91,1.12c.75.75,1.12,1.72,1.12,2.91s-.38,2.12-1.15,2.88-1.73,1.15-2.88,1.15-2.12-.38-2.88-1.15Z"/>
    </g>
  </g>
</svg>