<?xml version="1.0" encoding="UTF-8"?>
<svg id="Layer_1" xmlns="http://www.w3.org/2000/svg" version="1.1" viewBox="0 0 764 94.62">
  <!-- Generator: Adobe Illustrator 29.6.1, SVG Export Plug-In . SVG Version: 2.1.1 Build 9)  -->
  <defs>
    <style>
      .st0 {
        fill: none;
        stroke: #fff;
        stroke-miterlimit: 10;
      }

      .st1 {
        fill: #00e1ff;
      }
    </style>
  </defs>
  <g>
    <g>
      <path class="st1" d="M352.29,61.67c-1.85-1.75-2.78-4.09-2.78-7.01v-17.24c0-2.92.93-5.26,2.78-7.01,1.85-1.75,4.31-2.63,7.37-2.63s5.52.88,7.39,2.65c1.87,1.77,2.8,4.11,2.8,7.04v1.94c0,.17-.06.31-.18.43s-.26.18-.43.18h-5.97c-.17,0-.31-.06-.43-.18-.12-.12-.18-.26-.18-.43v-2.04c0-1.02-.27-1.84-.82-2.47-.54-.63-1.27-.94-2.19-.94s-1.6.31-2.14.94c-.54.63-.82,1.45-.82,2.47v17.34c0,1.02.27,1.84.82,2.47.54.63,1.26.94,2.14.94s1.65-.31,2.19-.94c.54-.63.82-1.45.82-2.47v-4.08c0-.17-.09-.25-.25-.25h-2.24c-.17,0-.31-.06-.43-.18-.12-.12-.18-.26-.18-.43v-4.54c0-.17.06-.31.18-.43s.26-.18.43-.18h9.08c.17,0,.31.06.43.18.12.12.18.26.18.43v9.43c0,2.92-.94,5.26-2.8,7.01-1.87,1.75-4.33,2.63-7.39,2.63s-5.52-.87-7.37-2.63Z"/>
      <path class="st1" d="M390.16,29.51c1.46.92,2.59,2.2,3.39,3.85.8,1.65,1.2,3.53,1.2,5.64,0,3.16-.85,5.69-2.55,7.6-1.7,1.9-3.93,2.86-6.68,2.86h-3.82c-.17,0-.25.09-.25.25v13.56c0,.17-.06.31-.18.43-.12.12-.26.18-.43.18h-5.97c-.17,0-.31-.06-.43-.18-.12-.12-.18-.26-.18-.43V28.75c0-.17.06-.31.18-.43.12-.12.26-.18.43-.18h10.3c1.87,0,3.54.46,5,1.38ZM386.56,42.59c.66-.83.99-1.98.99-3.44s-.33-2.67-.99-3.52c-.66-.85-1.54-1.27-2.63-1.27h-2.24c-.17,0-.25.08-.25.25v8.98c0,.17.08.25.25.25h2.24c1.09,0,1.96-.42,2.63-1.25Z"/>
      <path class="st1" d="M396.79,61.67c-1.84-1.75-2.75-4.07-2.75-6.96v-3.52c0-.17.06-.31.18-.43.12-.12.26-.18.43-.18h5.97c.17,0,.31.06.43.18.12.12.18.26.18.43v3.62c0,.99.25,1.78.76,2.4.51.61,1.19.92,2.04.92s1.59-.31,2.12-.92c.53-.61.79-1.41.79-2.4v-26.01c0-.17.06-.31.18-.43.12-.12.26-.18.43-.18h5.97c.17,0,.31.06.43.18.12.12.18.26.18.43v25.91c0,2.89-.93,5.21-2.78,6.96-1.85,1.75-4.29,2.63-7.32,2.63s-5.41-.87-7.24-2.63Z"/>
    </g>
    <g>
      <path class="st1" d="M352.29,61.67c-1.85-1.75-2.78-4.09-2.78-7.01v-17.24c0-2.92.93-5.26,2.78-7.01,1.85-1.75,4.31-2.63,7.37-2.63s5.52.88,7.39,2.65c1.87,1.77,2.8,4.11,2.8,7.04v1.94c0,.17-.06.31-.18.43s-.26.18-.43.18h-5.97c-.17,0-.31-.06-.43-.18-.12-.12-.18-.26-.18-.43v-2.04c0-1.02-.27-1.84-.82-2.47-.54-.63-1.27-.94-2.19-.94s-1.6.31-2.14.94c-.54.63-.82,1.45-.82,2.47v17.34c0,1.02.27,1.84.82,2.47.54.63,1.26.94,2.14.94s1.65-.31,2.19-.94c.54-.63.82-1.45.82-2.47v-4.08c0-.17-.09-.25-.25-.25h-2.24c-.17,0-.31-.06-.43-.18-.12-.12-.18-.26-.18-.43v-4.54c0-.17.06-.31.18-.43s.26-.18.43-.18h9.08c.17,0,.31.06.43.18.12.12.18.26.18.43v9.43c0,2.92-.94,5.26-2.8,7.01-1.87,1.75-4.33,2.63-7.39,2.63s-5.52-.87-7.37-2.63Z"/>
      <path class="st1" d="M390.16,29.51c1.46.92,2.59,2.2,3.39,3.85.8,1.65,1.2,3.53,1.2,5.64,0,3.16-.85,5.69-2.55,7.6-1.7,1.9-3.93,2.86-6.68,2.86h-3.82c-.17,0-.25.09-.25.25v13.56c0,.17-.06.31-.18.43-.12.12-.26.18-.43.18h-5.97c-.17,0-.31-.06-.43-.18-.12-.12-.18-.26-.18-.43V28.75c0-.17.06-.31.18-.43.12-.12.26-.18.43-.18h10.3c1.87,0,3.54.46,5,1.38ZM386.56,42.59c.66-.83.99-1.98.99-3.44s-.33-2.67-.99-3.52c-.66-.85-1.54-1.27-2.63-1.27h-2.24c-.17,0-.25.08-.25.25v8.98c0,.17.08.25.25.25h2.24c1.09,0,1.96-.42,2.63-1.25Z"/>
      <path class="st1" d="M396.79,61.67c-1.84-1.75-2.75-4.07-2.75-6.96v-3.52c0-.17.06-.31.18-.43.12-.12.26-.18.43-.18h5.97c.17,0,.31.06.43.18.12.12.18.26.18.43v3.62c0,.99.25,1.78.76,2.4.51.61,1.19.92,2.04.92s1.59-.31,2.12-.92c.53-.61.79-1.41.79-2.4v-26.01c0-.17.06-.31.18-.43.12-.12.26-.18.43-.18h5.97c.17,0,.31.06.43.18.12.12.18.26.18.43v25.91c0,2.89-.93,5.21-2.78,6.96-1.85,1.75-4.29,2.63-7.32,2.63s-5.41-.87-7.24-2.63Z"/>
    </g>
  </g>
  <line class="st0" x1="28.59" y1="45.16" x2="327.89" y2="45.16"/>
  <line class="st0" x1="438.56" y1="45.16" x2="727.93" y2="45.16"/>
</svg>