<?xml version="1.0" encoding="UTF-8"?>
<svg id="Layer_1" xmlns="http://www.w3.org/2000/svg" version="1.1" viewBox="0 0 764 94.62">
  <!-- Generator: Adobe Illustrator 29.6.1, SVG Export Plug-In . SVG Version: 2.1.1 Build 9)  -->
  <defs>
    <style>
      .st0 {
        fill: none;
        stroke: #fff;
        stroke-miterlimit: 10;
      }

      .st1 {
        fill: #00e1ff;
      }
    </style>
  </defs>
  <g>
    <g>
      <path class="st1" d="M328.3,30.79c1.46.92,2.59,2.2,3.39,3.85.8,1.65,1.2,3.53,1.2,5.64,0,3.16-.85,5.69-2.55,7.6-1.7,1.9-3.93,2.86-6.68,2.86h-3.82c-.17,0-.26.09-.26.25v13.56c0,.17-.06.31-.18.43s-.26.18-.43.18h-5.97c-.17,0-.31-.06-.43-.18-.12-.12-.18-.26-.18-.43V30.02c0-.17.06-.31.18-.43.12-.12.26-.18.43-.18h10.3c1.87,0,3.54.46,5,1.38ZM324.71,43.87c.66-.83.99-1.98.99-3.44s-.33-2.67-.99-3.52c-.66-.85-1.54-1.27-2.63-1.27h-2.24c-.17,0-.26.08-.26.25v8.98c0,.17.08.25.26.25h2.24c1.09,0,1.96-.42,2.63-1.25Z"/>
      <path class="st1" d="M349.59,29.64c.12-.12.26-.18.43-.18h5.97c.17,0,.31.06.43.18.12.12.18.26.18.43v34.47c0,.17-.06.31-.18.43s-.26.18-.43.18h-5.97c-.17,0-.31-.06-.43-.18-.12-.12-.18-.26-.18-.43v-13.92c0-.17-.09-.25-.25-.25h-5.1c-.17,0-.25.09-.25.25v13.92c0,.17-.06.31-.18.43-.12.12-.26.18-.43.18h-5.97c-.17,0-.31-.06-.43-.18-.12-.12-.18-.26-.18-.43V30.07c0-.17.06-.31.18-.43s.26-.18.43-.18h5.97c.17,0,.31.06.43.18.12.12.18.26.18.43v13.87c0,.17.08.25.25.25h5.1c.17,0,.25-.08.25-.25v-13.87c0-.17.06-.31.18-.43Z"/>
      <path class="st1" d="M375.88,64.6l-.82-4.9c0-.17-.1-.25-.31-.25h-6.48c-.2,0-.31.09-.31.25l-.82,4.9c-.03.37-.25.56-.66.56h-5.97c-.44,0-.61-.22-.51-.66l7.5-34.47c.07-.37.29-.56.66-.56h6.88c.37,0,.59.19.66.56l7.44,34.47.05.2c0,.31-.19.46-.56.46h-6.12c-.41,0-.63-.19-.66-.56ZM369.2,53.89h4.59c.17,0,.24-.08.2-.25l-2.4-13.92c-.03-.1-.08-.15-.15-.15s-.12.05-.15.15l-2.29,13.92c0,.17.07.25.2.25Z"/>
      <path class="st1" d="M389.29,64.39c-1.5-.78-2.65-1.88-3.47-3.29-.82-1.41-1.22-3.03-1.22-4.87v-1.48c0-.17.06-.31.18-.43.12-.12.26-.18.43-.18h5.86c.17,0,.31.06.43.18.12.12.18.26.18.43v1.12c0,1.05.27,1.9.82,2.55.54.65,1.22.97,2.04.97s1.5-.31,2.04-.92c.54-.61.82-1.41.82-2.4s-.34-1.89-1.02-2.63c-.68-.73-2.01-1.81-3.98-3.24-1.7-1.22-3.08-2.31-4.13-3.26-1.05-.95-1.96-2.12-2.7-3.52-.75-1.39-1.12-3.01-1.12-4.84,0-2.89.9-5.2,2.7-6.94s4.18-2.6,7.14-2.6,5.4.9,7.22,2.7c1.82,1.8,2.73,4.16,2.73,7.09v1.22c0,.17-.06.31-.18.43s-.26.18-.43.18h-5.86c-.17,0-.31-.06-.43-.18s-.18-.26-.18-.43v-1.38c0-1.05-.26-1.89-.79-2.52-.53-.63-1.22-.94-2.07-.94s-1.48.3-1.99.89c-.51.6-.77,1.42-.77,2.47s.32,1.92.97,2.7c.65.78,1.92,1.87,3.83,3.26,2.11,1.56,3.7,2.83,4.77,3.8,1.07.97,1.9,2.04,2.5,3.21.59,1.17.89,2.58.89,4.21,0,2.99-.92,5.37-2.75,7.14-1.84,1.77-4.25,2.65-7.24,2.65-1.97,0-3.71-.39-5.2-1.17Z"/>
      <path class="st1" d="M426.8,35.45c-.12.12-.26.18-.43.18h-10.66c-.17,0-.26.08-.26.25v8.06c0,.17.08.25.26.25h6.12c.17,0,.31.06.43.18.12.12.18.26.18.43v4.95c0,.17-.06.31-.18.43-.12.12-.26.18-.43.18h-6.12c-.17,0-.26.09-.26.25v8.11c0,.17.08.25.26.25h10.66c.17,0,.31.06.43.18s.18.26.18.43v4.95c0,.17-.06.31-.18.43-.12.12-.26.18-.43.18h-17.49c-.17,0-.31-.06-.43-.18-.12-.12-.18-.26-.18-.43V30.07c0-.17.06-.31.18-.43.12-.12.26-.18.43-.18h17.49c.17,0,.31.06.43.18.12.12.18.26.18.43v4.95c0,.17-.06.31-.18.43Z"/>
      <path class="st1" d="M445.33,29.46h6.17c.17,0,.31.06.43.18.12.12.18.26.18.43v34.47c0,.17-.06.31-.18.43-.12.12-.26.18-.43.18h-5.97c-.17,0-.31-.06-.43-.18-.12-.12-.18-.26-.18-.43v-27.84c0-.14-.08-.2-.25-.2l-3.93.46h-.1c-.37,0-.56-.19-.56-.56l-.15-4.39c0-.34.15-.58.46-.71l4.18-1.68c.27-.1.53-.15.76-.15Z"/>
    </g>
    <g>
      <path class="st1" d="M328.3,30.79c1.46.92,2.59,2.2,3.39,3.85.8,1.65,1.2,3.53,1.2,5.64,0,3.16-.85,5.69-2.55,7.6-1.7,1.9-3.93,2.86-6.68,2.86h-3.82c-.17,0-.26.09-.26.25v13.56c0,.17-.06.31-.18.43s-.26.18-.43.18h-5.97c-.17,0-.31-.06-.43-.18-.12-.12-.18-.26-.18-.43V30.02c0-.17.06-.31.18-.43.12-.12.26-.18.43-.18h10.3c1.87,0,3.54.46,5,1.38ZM324.71,43.87c.66-.83.99-1.98.99-3.44s-.33-2.67-.99-3.52c-.66-.85-1.54-1.27-2.63-1.27h-2.24c-.17,0-.26.08-.26.25v8.98c0,.17.08.25.26.25h2.24c1.09,0,1.96-.42,2.63-1.25Z"/>
      <path class="st1" d="M349.59,29.64c.12-.12.26-.18.43-.18h5.97c.17,0,.31.06.43.18.12.12.18.26.18.43v34.47c0,.17-.06.31-.18.43s-.26.18-.43.18h-5.97c-.17,0-.31-.06-.43-.18-.12-.12-.18-.26-.18-.43v-13.92c0-.17-.09-.25-.25-.25h-5.1c-.17,0-.25.09-.25.25v13.92c0,.17-.06.31-.18.43-.12.12-.26.18-.43.18h-5.97c-.17,0-.31-.06-.43-.18-.12-.12-.18-.26-.18-.43V30.07c0-.17.06-.31.18-.43s.26-.18.43-.18h5.97c.17,0,.31.06.43.18.12.12.18.26.18.43v13.87c0,.17.08.25.25.25h5.1c.17,0,.25-.08.25-.25v-13.87c0-.17.06-.31.18-.43Z"/>
      <path class="st1" d="M375.88,64.6l-.82-4.9c0-.17-.1-.25-.31-.25h-6.48c-.2,0-.31.09-.31.25l-.82,4.9c-.03.37-.25.56-.66.56h-5.97c-.44,0-.61-.22-.51-.66l7.5-34.47c.07-.37.29-.56.66-.56h6.88c.37,0,.59.19.66.56l7.44,34.47.05.2c0,.31-.19.46-.56.46h-6.12c-.41,0-.63-.19-.66-.56ZM369.2,53.89h4.59c.17,0,.24-.08.2-.25l-2.4-13.92c-.03-.1-.08-.15-.15-.15s-.12.05-.15.15l-2.29,13.92c0,.17.07.25.2.25Z"/>
      <path class="st1" d="M389.29,64.39c-1.5-.78-2.65-1.88-3.47-3.29-.82-1.41-1.22-3.03-1.22-4.87v-1.48c0-.17.06-.31.18-.43.12-.12.26-.18.43-.18h5.86c.17,0,.31.06.43.18.12.12.18.26.18.43v1.12c0,1.05.27,1.9.82,2.55.54.65,1.22.97,2.04.97s1.5-.31,2.04-.92c.54-.61.82-1.41.82-2.4s-.34-1.89-1.02-2.63c-.68-.73-2.01-1.81-3.98-3.24-1.7-1.22-3.08-2.31-4.13-3.26-1.05-.95-1.96-2.12-2.7-3.52-.75-1.39-1.12-3.01-1.12-4.84,0-2.89.9-5.2,2.7-6.94s4.18-2.6,7.14-2.6,5.4.9,7.22,2.7c1.82,1.8,2.73,4.16,2.73,7.09v1.22c0,.17-.06.31-.18.43s-.26.18-.43.18h-5.86c-.17,0-.31-.06-.43-.18s-.18-.26-.18-.43v-1.38c0-1.05-.26-1.89-.79-2.52-.53-.63-1.22-.94-2.07-.94s-1.48.3-1.99.89c-.51.6-.77,1.42-.77,2.47s.32,1.92.97,2.7c.65.78,1.92,1.87,3.83,3.26,2.11,1.56,3.7,2.83,4.77,3.8,1.07.97,1.9,2.04,2.5,3.21.59,1.17.89,2.58.89,4.21,0,2.99-.92,5.37-2.75,7.14-1.84,1.77-4.25,2.65-7.24,2.65-1.97,0-3.71-.39-5.2-1.17Z"/>
      <path class="st1" d="M426.8,35.45c-.12.12-.26.18-.43.18h-10.66c-.17,0-.26.08-.26.25v8.06c0,.17.08.25.26.25h6.12c.17,0,.31.06.43.18.12.12.18.26.18.43v4.95c0,.17-.06.31-.18.43-.12.12-.26.18-.43.18h-6.12c-.17,0-.26.09-.26.25v8.11c0,.17.08.25.26.25h10.66c.17,0,.31.06.43.18s.18.26.18.43v4.95c0,.17-.06.31-.18.43-.12.12-.26.18-.43.18h-17.49c-.17,0-.31-.06-.43-.18-.12-.12-.18-.26-.18-.43V30.07c0-.17.06-.31.18-.43.12-.12.26-.18.43-.18h17.49c.17,0,.31.06.43.18.12.12.18.26.18.43v4.95c0,.17-.06.31-.18.43Z"/>
      <path class="st1" d="M445.33,29.46h6.17c.17,0,.31.06.43.18.12.12.18.26.18.43v34.47c0,.17-.06.31-.18.43-.12.12-.26.18-.43.18h-5.97c-.17,0-.31-.06-.43-.18-.12-.12-.18-.26-.18-.43v-27.84c0-.14-.08-.2-.25-.2l-3.93.46h-.1c-.37,0-.56-.19-.56-.56l-.15-4.39c0-.34.15-.58.46-.71l4.18-1.68c.27-.1.53-.15.76-.15Z"/>
    </g>
  </g>
  <line class="st0" x1="28.59" y1="46.44" x2="287.23" y2="46.44"/>
  <line class="st0" x1="474.7" y1="46.44" x2="727.93" y2="46.44"/>
</svg>