<?xml version="1.0" encoding="UTF-8"?>
<svg id="Layer_1" xmlns="http://www.w3.org/2000/svg" version="1.1" viewBox="0 0 764 94.62">
  <!-- Generator: Adobe Illustrator 29.6.1, SVG Export Plug-In . SVG Version: 2.1.1 Build 9)  -->
  <defs>
    <style>
      .st0 {
        fill: none;
        stroke: #fff;
        stroke-miterlimit: 10;
      }

      .st1 {
        fill: #00e1ff;
      }
    </style>
  </defs>
  <g>
    <g>
      <path class="st1" d="M156.61,62.69c-.12-.12-.18-.26-.18-.43V27.78c0-.17.06-.31.18-.43s.26-.18.43-.18h5.97c.17,0,.31.06.43.18.12.12.18.26.18.43v28.66c0,.17.08.25.25.25h10.71c.17,0,.31.06.43.18.12.12.18.26.18.43v4.95c0,.17-.06.31-.18.43s-.26.18-.43.18h-17.54c-.17,0-.31-.06-.43-.18Z"/>
      <path class="st1" d="M178.79,62.69c-.12-.12-.18-.26-.18-.43V27.78c0-.17.06-.31.18-.43s.26-.18.43-.18h5.97c.17,0,.31.06.43.18.12.12.18.26.18.43v34.47c0,.17-.06.31-.18.43-.12.12-.26.18-.43.18h-5.97c-.17,0-.31-.06-.43-.18Z"/>
      <path class="st1" d="M205.56,27.35c.12-.12.26-.18.43-.18h5.92c.17,0,.31.06.43.18.12.12.18.26.18.43v34.47c0,.17-.06.31-.18.43s-.26.18-.43.18h-6.73c-.34,0-.56-.17-.66-.51l-6.32-19.74c-.03-.1-.09-.14-.18-.13-.08.02-.13.08-.13.18l.05,19.58c0,.17-.06.31-.18.43s-.26.18-.43.18h-5.92c-.17,0-.31-.06-.43-.18-.12-.12-.18-.26-.18-.43V27.78c0-.17.06-.31.18-.43s.26-.18.43-.18h6.68c.34,0,.56.17.66.51l6.37,19.74c.03.1.09.14.18.13.08-.02.13-.08.13-.18l-.05-19.58c0-.17.06-.31.18-.43Z"/>
      <path class="st1" d="M217.65,62.69c-.12-.12-.18-.26-.18-.43V27.78c0-.17.06-.31.18-.43s.26-.18.43-.18h5.97c.17,0,.31.06.43.18.12.12.18.26.18.43v12.85c0,.14.04.21.13.23.08.02.14-.04.18-.18l6.58-13.05c.17-.31.41-.46.71-.46h6.32c.24,0,.4.06.48.18.08.12.08.3-.03.54l-7.55,14.69c-.03.14-.05.24-.05.31l8.01,19.28c.03.07.05.17.05.31,0,.27-.17.41-.51.41h-6.37c-.37,0-.61-.15-.71-.46l-5.3-13.36c-.03-.1-.09-.14-.15-.13-.07.02-.14.06-.2.13l-1.48,2.65c-.07.14-.1.24-.1.31v10.25c0,.17-.06.31-.18.43-.12.12-.26.18-.43.18h-5.97c-.17,0-.31-.06-.43-.18Z"/>
      <path class="st1" d="M273.84,27.35c.12.12.18.26.18.43v4.95c0,.17-.06.31-.18.43s-.26.18-.43.18h-6.37c-.17,0-.25.08-.25.25v28.66c0,.17-.06.31-.18.43s-.26.18-.43.18h-5.97c-.17,0-.31-.06-.43-.18-.12-.12-.18-.26-.18-.43v-28.66c0-.17-.08-.25-.25-.25h-6.12c-.17,0-.31-.06-.43-.18-.12-.12-.18-.26-.18-.43v-4.95c0-.17.06-.31.18-.43s.26-.18.43-.18h20.19c.17,0,.31.06.43.18Z"/>
      <path class="st1" d="M279.27,60.52c-1.87-1.84-2.8-4.28-2.8-7.34v-16.32c0-3.06.93-5.51,2.8-7.34,1.87-1.84,4.37-2.75,7.5-2.75s5.64.92,7.52,2.75,2.83,4.28,2.83,7.34v16.32c0,3.06-.94,5.51-2.83,7.34s-4.39,2.75-7.52,2.75-5.63-.92-7.5-2.75ZM289.06,56.11c.58-.66.87-1.54.87-2.63v-16.93c0-1.09-.29-1.96-.87-2.63-.58-.66-1.34-.99-2.29-.99s-1.71.33-2.27.99-.84,1.54-.84,2.63v16.93c0,1.09.28,1.96.84,2.63s1.32.99,2.27.99,1.72-.33,2.29-.99Z"/>
      <path class="st1" d="M312.39,62.69c-.12-.12-.18-.26-.18-.43V27.78c0-.17.06-.31.18-.43s.26-.18.43-.18h5.97c.17,0,.31.06.43.18.12.12.18.26.18.43v28.66c0,.17.08.25.25.25h10.71c.17,0,.31.06.43.18.12.12.18.26.18.43v4.95c0,.17-.06.31-.18.43s-.26.18-.43.18h-17.54c-.17,0-.31-.06-.43-.18Z"/>
      <path class="st1" d="M334.57,62.69c-.12-.12-.18-.26-.18-.43V27.78c0-.17.06-.31.18-.43s.26-.18.43-.18h5.97c.17,0,.31.06.43.18.12.12.18.26.18.43v34.47c0,.17-.06.31-.18.43-.12.12-.26.18-.43.18h-5.97c-.17,0-.31-.06-.43-.18Z"/>
      <path class="st1" d="M365.07,33.16c-.12.12-.26.18-.43.18h-10.61c-.17,0-.25.08-.25.25v8.06c0,.17.08.25.25.25h6.07c.17,0,.31.06.43.18.12.12.18.26.18.43v4.95c0,.17-.06.31-.18.43-.12.12-.26.18-.43.18h-6.07c-.17,0-.25.09-.25.25v13.92c0,.17-.06.31-.18.43-.12.12-.26.18-.43.18h-5.97c-.17,0-.31-.06-.43-.18-.12-.12-.18-.26-.18-.43V27.78c0-.17.06-.31.18-.43s.26-.18.43-.18h17.44c.17,0,.31.06.43.18.12.12.18.26.18.43v4.95c0,.17-.06.31-.18.43Z"/>
      <path class="st1" d="M387.05,33.16c-.12.12-.26.18-.43.18h-10.66c-.17,0-.25.08-.25.25v8.06c0,.17.08.25.25.25h6.12c.17,0,.31.06.43.18.12.12.18.26.18.43v4.95c0,.17-.06.31-.18.43-.12.12-.26.18-.43.18h-6.12c-.17,0-.25.09-.25.25v8.11c0,.17.08.25.25.25h10.66c.17,0,.31.06.43.18s.18.26.18.43v4.95c0,.17-.06.31-.18.43-.12.12-.26.18-.43.18h-17.49c-.17,0-.31-.06-.43-.18-.12-.12-.18-.26-.18-.43V27.78c0-.17.06-.31.18-.43s.26-.18.43-.18h17.49c.17,0,.31.06.43.18.12.12.18.26.18.43v4.95c0,.17-.06.31-.18.43Z"/>
      <path class="st1" d="M390.72,67.68c-.12-.12-.16-.28-.13-.48l1.12-11.83c.07-.37.27-.56.61-.56h5.2c.48,0,.66.22.56.66l-2.7,11.83c-.1.37-.32.56-.66.56h-3.52c-.2,0-.37-.06-.48-.18Z"/>
      <path class="st1" d="M430.26,27.17h5.92c.17,0,.31.06.43.18.12.12.18.26.18.43v34.47c0,.17-.06.31-.18.43-.12.12-.26.18-.43.18h-5.97c-.17,0-.32-.06-.43-.18-.12-.12-.18-.26-.18-.43v-22.9c0-.14-.03-.2-.1-.2s-.14.05-.2.15l-3.98,7.04c-.17.27-.31.41-.41.41s-.24-.14-.41-.41l-3.98-7.04c-.07-.1-.14-.15-.2-.15s-.1.07-.1.2v22.9c0,.17-.06.31-.18.43-.12.12-.26.18-.43.18h-5.97c-.17,0-.32-.06-.43-.18-.12-.12-.18-.26-.18-.43V27.78c0-.17.06-.31.18-.43.12-.12.26-.18.43-.18h5.86c.34,0,.59.14.76.41l4.54,8.11c.1.14.2.14.31,0l4.39-8.11c.13-.27.39-.41.76-.41Z"/>
      <path class="st1" d="M455.91,62.3l-.82-4.9c0-.17-.1-.25-.31-.25h-6.48c-.2,0-.31.09-.31.25l-.82,4.9c-.03.37-.25.56-.66.56h-5.97c-.44,0-.61-.22-.51-.66l7.5-34.47c.07-.37.29-.56.66-.56h6.88c.37,0,.59.19.66.56l7.45,34.47.05.2c0,.31-.19.46-.56.46h-6.12c-.41,0-.63-.19-.66-.56ZM449.23,51.59h4.59c.17,0,.24-.08.2-.25l-2.4-13.92c-.03-.1-.09-.15-.15-.15s-.12.05-.15.15l-2.29,13.92c0,.17.07.25.2.25Z"/>
      <path class="st1" d="M469.25,60.39c-1.85-1.92-2.78-4.48-2.78-7.67v-24.94c0-.17.06-.31.18-.43.12-.12.26-.18.43-.18h5.97c.17,0,.31.06.43.18.12.12.18.26.18.43v25.65c0,1.09.27,1.97.82,2.65.54.68,1.26,1.02,2.14,1.02s1.59-.34,2.12-1.02c.53-.68.79-1.56.79-2.65v-25.65c0-.17.06-.31.18-.43.12-.12.26-.18.43-.18h5.97c.17,0,.31.06.43.18.12.12.18.26.18.43v24.94c0,3.2-.93,5.75-2.78,7.67-1.85,1.92-4.29,2.88-7.32,2.88s-5.52-.96-7.37-2.88Z"/>
      <path class="st1" d="M504.87,62.35l-3.93-14.07c-.07-.14-.15-.2-.25-.2h-1.73c-.17,0-.26.09-.26.25v13.92c0,.17-.06.31-.18.43-.12.12-.26.18-.43.18h-5.97c-.17,0-.31-.06-.43-.18-.12-.12-.18-.26-.18-.43V27.78c0-.17.06-.31.18-.43.12-.12.26-.18.43-.18h10.3c1.87,0,3.54.45,5,1.35,1.46.9,2.59,2.17,3.39,3.8s1.2,3.5,1.2,5.61-.38,3.77-1.15,5.3c-.77,1.53-1.83,2.72-3.19,3.57-.07.03-.12.08-.15.13-.03.05-.03.11,0,.18l4.69,15.04.05.2c0,.34-.19.51-.56.51h-6.12c-.38,0-.61-.17-.71-.51ZM498.7,33.59v8.72c0,.17.08.25.26.25h2.29c1.05,0,1.91-.42,2.58-1.25.66-.83,1-1.95,1-3.34s-.33-2.56-1-3.39c-.66-.83-1.52-1.25-2.58-1.25h-2.29c-.17,0-.26.08-.26.25Z"/>
      <path class="st1" d="M516.16,62.69c-.12-.12-.18-.26-.18-.43V27.78c0-.17.06-.31.18-.43.12-.12.26-.18.43-.18h5.97c.17,0,.31.06.43.18.12.12.18.26.18.43v34.47c0,.17-.06.31-.18.43-.12.12-.26.18-.43.18h-5.97c-.17,0-.31-.06-.43-.18Z"/>
      <path class="st1" d="M548.39,27.35c.12.12.18.26.18.43v4.95c0,.17-.06.31-.18.43-.12.12-.26.18-.43.18h-6.37c-.17,0-.25.08-.25.25v28.66c0,.17-.06.31-.18.43-.12.12-.26.18-.43.18h-5.97c-.17,0-.31-.06-.43-.18-.12-.12-.18-.26-.18-.43v-28.66c0-.17-.08-.25-.25-.25h-6.12c-.17,0-.31-.06-.43-.18-.12-.12-.18-.26-.18-.43v-4.95c0-.17.06-.31.18-.43.12-.12.26-.18.43-.18h20.19c.17,0,.31.06.43.18Z"/>
      <path class="st1" d="M552.67,62.69c-.12-.12-.18-.26-.18-.43V27.78c0-.17.06-.31.18-.43.12-.12.26-.18.43-.18h5.97c.17,0,.31.06.43.18.12.12.18.26.18.43v34.47c0,.17-.06.31-.18.43-.12.12-.26.18-.43.18h-5.97c-.17,0-.31-.06-.43-.18Z"/>
      <path class="st1" d="M567.31,60.39c-1.85-1.92-2.78-4.48-2.78-7.67v-24.94c0-.17.06-.31.18-.43.12-.12.26-.18.43-.18h5.97c.17,0,.31.06.43.18.12.12.18.26.18.43v25.65c0,1.09.27,1.97.82,2.65.54.68,1.26,1.02,2.14,1.02s1.59-.34,2.12-1.02c.53-.68.79-1.56.79-2.65v-25.65c0-.17.06-.31.18-.43.12-.12.26-.18.43-.18h5.97c.17,0,.31.06.43.18.12.12.18.26.18.43v24.94c0,3.2-.93,5.75-2.78,7.67-1.85,1.92-4.29,2.88-7.32,2.88s-5.52-.96-7.37-2.88Z"/>
      <path class="st1" d="M593.55,62.1c-1.5-.78-2.65-1.88-3.47-3.29-.82-1.41-1.22-3.03-1.22-4.87v-1.48c0-.17.06-.31.18-.43.12-.12.26-.18.43-.18h5.86c.17,0,.31.06.43.18.12.12.18.26.18.43v1.12c0,1.05.27,1.9.82,2.55.54.65,1.22.97,2.04.97s1.5-.31,2.04-.92c.54-.61.82-1.41.82-2.4s-.34-1.89-1.02-2.63c-.68-.73-2.01-1.81-3.98-3.24-1.7-1.22-3.08-2.31-4.13-3.26-1.05-.95-1.96-2.12-2.7-3.52-.75-1.39-1.12-3.01-1.12-4.84,0-2.89.9-5.2,2.7-6.94s4.18-2.6,7.14-2.6,5.4.9,7.22,2.7c1.82,1.8,2.73,4.16,2.73,7.09v1.22c0,.17-.06.31-.18.43s-.26.18-.43.18h-5.86c-.17,0-.31-.06-.43-.18s-.18-.26-.18-.43v-1.38c0-1.05-.26-1.89-.79-2.52-.53-.63-1.22-.94-2.07-.94s-1.48.3-1.99.89c-.51.6-.77,1.42-.77,2.47s.32,1.92.97,2.7c.65.78,1.92,1.87,3.83,3.26,2.11,1.56,3.7,2.83,4.77,3.8,1.07.97,1.9,2.04,2.5,3.21.59,1.17.89,2.58.89,4.21,0,2.99-.92,5.37-2.75,7.14-1.84,1.77-4.25,2.65-7.24,2.65-1.97,0-3.71-.39-5.2-1.17Z"/>
    </g>
    <g>
      <path class="st1" d="M156.61,62.69c-.12-.12-.18-.26-.18-.43V27.78c0-.17.06-.31.18-.43s.26-.18.43-.18h5.97c.17,0,.31.06.43.18.12.12.18.26.18.43v28.66c0,.17.08.25.25.25h10.71c.17,0,.31.06.43.18.12.12.18.26.18.43v4.95c0,.17-.06.31-.18.43s-.26.18-.43.18h-17.54c-.17,0-.31-.06-.43-.18Z"/>
      <path class="st1" d="M178.79,62.69c-.12-.12-.18-.26-.18-.43V27.78c0-.17.06-.31.18-.43s.26-.18.43-.18h5.97c.17,0,.31.06.43.18.12.12.18.26.18.43v34.47c0,.17-.06.31-.18.43-.12.12-.26.18-.43.18h-5.97c-.17,0-.31-.06-.43-.18Z"/>
      <path class="st1" d="M205.56,27.35c.12-.12.26-.18.43-.18h5.92c.17,0,.31.06.43.18.12.12.18.26.18.43v34.47c0,.17-.06.31-.18.43s-.26.18-.43.18h-6.73c-.34,0-.56-.17-.66-.51l-6.32-19.74c-.03-.1-.09-.14-.18-.13-.08.02-.13.08-.13.18l.05,19.58c0,.17-.06.31-.18.43s-.26.18-.43.18h-5.92c-.17,0-.31-.06-.43-.18-.12-.12-.18-.26-.18-.43V27.78c0-.17.06-.31.18-.43s.26-.18.43-.18h6.68c.34,0,.56.17.66.51l6.37,19.74c.03.1.09.14.18.13.08-.02.13-.08.13-.18l-.05-19.58c0-.17.06-.31.18-.43Z"/>
      <path class="st1" d="M217.65,62.69c-.12-.12-.18-.26-.18-.43V27.78c0-.17.06-.31.18-.43s.26-.18.43-.18h5.97c.17,0,.31.06.43.18.12.12.18.26.18.43v12.85c0,.14.04.21.13.23.08.02.14-.04.18-.18l6.58-13.05c.17-.31.41-.46.71-.46h6.32c.24,0,.4.06.48.18.08.12.08.3-.03.54l-7.55,14.69c-.03.14-.05.24-.05.31l8.01,19.28c.03.07.05.17.05.31,0,.27-.17.41-.51.41h-6.37c-.37,0-.61-.15-.71-.46l-5.3-13.36c-.03-.1-.09-.14-.15-.13-.07.02-.14.06-.2.13l-1.48,2.65c-.07.14-.1.24-.1.31v10.25c0,.17-.06.31-.18.43-.12.12-.26.18-.43.18h-5.97c-.17,0-.31-.06-.43-.18Z"/>
      <path class="st1" d="M273.84,27.35c.12.12.18.26.18.43v4.95c0,.17-.06.31-.18.43s-.26.18-.43.18h-6.37c-.17,0-.25.08-.25.25v28.66c0,.17-.06.31-.18.43s-.26.18-.43.18h-5.97c-.17,0-.31-.06-.43-.18-.12-.12-.18-.26-.18-.43v-28.66c0-.17-.08-.25-.25-.25h-6.12c-.17,0-.31-.06-.43-.18-.12-.12-.18-.26-.18-.43v-4.95c0-.17.06-.31.18-.43s.26-.18.43-.18h20.19c.17,0,.31.06.43.18Z"/>
      <path class="st1" d="M279.27,60.52c-1.87-1.84-2.8-4.28-2.8-7.34v-16.32c0-3.06.93-5.51,2.8-7.34,1.87-1.84,4.37-2.75,7.5-2.75s5.64.92,7.52,2.75,2.83,4.28,2.83,7.34v16.32c0,3.06-.94,5.51-2.83,7.34s-4.39,2.75-7.52,2.75-5.63-.92-7.5-2.75ZM289.06,56.11c.58-.66.87-1.54.87-2.63v-16.93c0-1.09-.29-1.96-.87-2.63-.58-.66-1.34-.99-2.29-.99s-1.71.33-2.27.99-.84,1.54-.84,2.63v16.93c0,1.09.28,1.96.84,2.63s1.32.99,2.27.99,1.72-.33,2.29-.99Z"/>
      <path class="st1" d="M312.39,62.69c-.12-.12-.18-.26-.18-.43V27.78c0-.17.06-.31.18-.43s.26-.18.43-.18h5.97c.17,0,.31.06.43.18.12.12.18.26.18.43v28.66c0,.17.08.25.25.25h10.71c.17,0,.31.06.43.18.12.12.18.26.18.43v4.95c0,.17-.06.31-.18.43s-.26.18-.43.18h-17.54c-.17,0-.31-.06-.43-.18Z"/>
      <path class="st1" d="M334.57,62.69c-.12-.12-.18-.26-.18-.43V27.78c0-.17.06-.31.18-.43s.26-.18.43-.18h5.97c.17,0,.31.06.43.18.12.12.18.26.18.43v34.47c0,.17-.06.31-.18.43-.12.12-.26.18-.43.18h-5.97c-.17,0-.31-.06-.43-.18Z"/>
      <path class="st1" d="M365.07,33.16c-.12.12-.26.18-.43.18h-10.61c-.17,0-.25.08-.25.25v8.06c0,.17.08.25.25.25h6.07c.17,0,.31.06.43.18.12.12.18.26.18.43v4.95c0,.17-.06.31-.18.43-.12.12-.26.18-.43.18h-6.07c-.17,0-.25.09-.25.25v13.92c0,.17-.06.31-.18.43-.12.12-.26.18-.43.18h-5.97c-.17,0-.31-.06-.43-.18-.12-.12-.18-.26-.18-.43V27.78c0-.17.06-.31.18-.43s.26-.18.43-.18h17.44c.17,0,.31.06.43.18.12.12.18.26.18.43v4.95c0,.17-.06.31-.18.43Z"/>
      <path class="st1" d="M387.05,33.16c-.12.12-.26.18-.43.18h-10.66c-.17,0-.25.08-.25.25v8.06c0,.17.08.25.25.25h6.12c.17,0,.31.06.43.18.12.12.18.26.18.43v4.95c0,.17-.06.31-.18.43-.12.12-.26.18-.43.18h-6.12c-.17,0-.25.09-.25.25v8.11c0,.17.08.25.25.25h10.66c.17,0,.31.06.43.18s.18.26.18.43v4.95c0,.17-.06.31-.18.43-.12.12-.26.18-.43.18h-17.49c-.17,0-.31-.06-.43-.18-.12-.12-.18-.26-.18-.43V27.78c0-.17.06-.31.18-.43s.26-.18.43-.18h17.49c.17,0,.31.06.43.18.12.12.18.26.18.43v4.95c0,.17-.06.31-.18.43Z"/>
      <path class="st1" d="M390.72,67.68c-.12-.12-.16-.28-.13-.48l1.12-11.83c.07-.37.27-.56.61-.56h5.2c.48,0,.66.22.56.66l-2.7,11.83c-.1.37-.32.56-.66.56h-3.52c-.2,0-.37-.06-.48-.18Z"/>
      <path class="st1" d="M430.26,27.17h5.92c.17,0,.31.06.43.18.12.12.18.26.18.43v34.47c0,.17-.06.31-.18.43-.12.12-.26.18-.43.18h-5.97c-.17,0-.32-.06-.43-.18-.12-.12-.18-.26-.18-.43v-22.9c0-.14-.03-.2-.1-.2s-.14.05-.2.15l-3.98,7.04c-.17.27-.31.41-.41.41s-.24-.14-.41-.41l-3.98-7.04c-.07-.1-.14-.15-.2-.15s-.1.07-.1.2v22.9c0,.17-.06.31-.18.43-.12.12-.26.18-.43.18h-5.97c-.17,0-.32-.06-.43-.18-.12-.12-.18-.26-.18-.43V27.78c0-.17.06-.31.18-.43.12-.12.26-.18.43-.18h5.86c.34,0,.59.14.76.41l4.54,8.11c.1.14.2.14.31,0l4.39-8.11c.13-.27.39-.41.76-.41Z"/>
      <path class="st1" d="M455.91,62.3l-.82-4.9c0-.17-.1-.25-.31-.25h-6.48c-.2,0-.31.09-.31.25l-.82,4.9c-.03.37-.25.56-.66.56h-5.97c-.44,0-.61-.22-.51-.66l7.5-34.47c.07-.37.29-.56.66-.56h6.88c.37,0,.59.19.66.56l7.45,34.47.05.2c0,.31-.19.46-.56.46h-6.12c-.41,0-.63-.19-.66-.56ZM449.23,51.59h4.59c.17,0,.24-.08.2-.25l-2.4-13.92c-.03-.1-.09-.15-.15-.15s-.12.05-.15.15l-2.29,13.92c0,.17.07.25.2.25Z"/>
      <path class="st1" d="M469.25,60.39c-1.85-1.92-2.78-4.48-2.78-7.67v-24.94c0-.17.06-.31.18-.43.12-.12.26-.18.43-.18h5.97c.17,0,.31.06.43.18.12.12.18.26.18.43v25.65c0,1.09.27,1.97.82,2.65.54.68,1.26,1.02,2.14,1.02s1.59-.34,2.12-1.02c.53-.68.79-1.56.79-2.65v-25.65c0-.17.06-.31.18-.43.12-.12.26-.18.43-.18h5.97c.17,0,.31.06.43.18.12.12.18.26.18.43v24.94c0,3.2-.93,5.75-2.78,7.67-1.85,1.92-4.29,2.88-7.32,2.88s-5.52-.96-7.37-2.88Z"/>
      <path class="st1" d="M504.87,62.35l-3.93-14.07c-.07-.14-.15-.2-.25-.2h-1.73c-.17,0-.26.09-.26.25v13.92c0,.17-.06.31-.18.43-.12.12-.26.18-.43.18h-5.97c-.17,0-.31-.06-.43-.18-.12-.12-.18-.26-.18-.43V27.78c0-.17.06-.31.18-.43.12-.12.26-.18.43-.18h10.3c1.87,0,3.54.45,5,1.35,1.46.9,2.59,2.17,3.39,3.8s1.2,3.5,1.2,5.61-.38,3.77-1.15,5.3c-.77,1.53-1.83,2.72-3.19,3.57-.07.03-.12.08-.15.13-.03.05-.03.11,0,.18l4.69,15.04.05.2c0,.34-.19.51-.56.51h-6.12c-.38,0-.61-.17-.71-.51ZM498.7,33.59v8.72c0,.17.08.25.26.25h2.29c1.05,0,1.91-.42,2.58-1.25.66-.83,1-1.95,1-3.34s-.33-2.56-1-3.39c-.66-.83-1.52-1.25-2.58-1.25h-2.29c-.17,0-.26.08-.26.25Z"/>
      <path class="st1" d="M516.16,62.69c-.12-.12-.18-.26-.18-.43V27.78c0-.17.06-.31.18-.43.12-.12.26-.18.43-.18h5.97c.17,0,.31.06.43.18.12.12.18.26.18.43v34.47c0,.17-.06.31-.18.43-.12.12-.26.18-.43.18h-5.97c-.17,0-.31-.06-.43-.18Z"/>
      <path class="st1" d="M548.39,27.35c.12.12.18.26.18.43v4.95c0,.17-.06.31-.18.43-.12.12-.26.18-.43.18h-6.37c-.17,0-.25.08-.25.25v28.66c0,.17-.06.31-.18.43-.12.12-.26.18-.43.18h-5.97c-.17,0-.31-.06-.43-.18-.12-.12-.18-.26-.18-.43v-28.66c0-.17-.08-.25-.25-.25h-6.12c-.17,0-.31-.06-.43-.18-.12-.12-.18-.26-.18-.43v-4.95c0-.17.06-.31.18-.43.12-.12.26-.18.43-.18h20.19c.17,0,.31.06.43.18Z"/>
      <path class="st1" d="M552.67,62.69c-.12-.12-.18-.26-.18-.43V27.78c0-.17.06-.31.18-.43.12-.12.26-.18.43-.18h5.97c.17,0,.31.06.43.18.12.12.18.26.18.43v34.47c0,.17-.06.31-.18.43-.12.12-.26.18-.43.18h-5.97c-.17,0-.31-.06-.43-.18Z"/>
      <path class="st1" d="M567.31,60.39c-1.85-1.92-2.78-4.48-2.78-7.67v-24.94c0-.17.06-.31.18-.43.12-.12.26-.18.43-.18h5.97c.17,0,.31.06.43.18.12.12.18.26.18.43v25.65c0,1.09.27,1.97.82,2.65.54.68,1.26,1.02,2.14,1.02s1.59-.34,2.12-1.02c.53-.68.79-1.56.79-2.65v-25.65c0-.17.06-.31.18-.43.12-.12.26-.18.43-.18h5.97c.17,0,.31.06.43.18.12.12.18.26.18.43v24.94c0,3.2-.93,5.75-2.78,7.67-1.85,1.92-4.29,2.88-7.32,2.88s-5.52-.96-7.37-2.88Z"/>
      <path class="st1" d="M593.55,62.1c-1.5-.78-2.65-1.88-3.47-3.29-.82-1.41-1.22-3.03-1.22-4.87v-1.48c0-.17.06-.31.18-.43.12-.12.26-.18.43-.18h5.86c.17,0,.31.06.43.18.12.12.18.26.18.43v1.12c0,1.05.27,1.9.82,2.55.54.65,1.22.97,2.04.97s1.5-.31,2.04-.92c.54-.61.82-1.41.82-2.4s-.34-1.89-1.02-2.63c-.68-.73-2.01-1.81-3.98-3.24-1.7-1.22-3.08-2.31-4.13-3.26-1.05-.95-1.96-2.12-2.7-3.52-.75-1.39-1.12-3.01-1.12-4.84,0-2.89.9-5.2,2.7-6.94s4.18-2.6,7.14-2.6,5.4.9,7.22,2.7c1.82,1.8,2.73,4.16,2.73,7.09v1.22c0,.17-.06.31-.18.43s-.26.18-.43.18h-5.86c-.17,0-.31-.06-.43-.18s-.18-.26-.18-.43v-1.38c0-1.05-.26-1.89-.79-2.52-.53-.63-1.22-.94-2.07-.94s-1.48.3-1.99.89c-.51.6-.77,1.42-.77,2.47s.32,1.92.97,2.7c.65.78,1.92,1.87,3.83,3.26,2.11,1.56,3.7,2.83,4.77,3.8,1.07.97,1.9,2.04,2.5,3.21.59,1.17.89,2.58.89,4.21,0,2.99-.92,5.37-2.75,7.14-1.84,1.77-4.25,2.65-7.24,2.65-1.97,0-3.71-.39-5.2-1.17Z"/>
    </g>
  </g>
  <line class="st0" x1="28.59" y1="47.31" x2="134.76" y2="47.31"/>
  <line class="st0" x1="627.17" y1="47.31" x2="733.33" y2="47.31"/>
</svg>