<?xml version="1.0" encoding="UTF-8"?>
<svg id="Layer_1" xmlns="http://www.w3.org/2000/svg" version="1.1" viewBox="0 0 764 187">
  <!-- Generator: Adobe Illustrator 29.6.1, SVG Export Plug-In . SVG Version: 2.1.1 Build 9)  -->
  <defs>
    <style>
      .st0 {
        fill: #00e1ff;
      }
    </style>
  </defs>
  <path class="st0" d="M165.14,78.84c-.15-.15-.23-.34-.23-.56v-44.62c0-.22.08-.41.23-.56.15-.15.34-.23.56-.23h7.72c.22,0,.41.08.56.23.15.15.23.34.23.56v44.62c0,.22-.08.41-.23.56-.15.16-.34.23-.56.23h-7.72c-.22,0-.41-.08-.56-.23Z"/>
  <path class="st0" d="M180.32,78.84c-.15-.15-.23-.34-.23-.56v-44.62c0-.22.08-.41.23-.56.15-.15.34-.23.56-.23h11.95c4,0,7.22,1.17,9.64,3.5,2.42,2.33,3.63,5.43,3.63,9.31v20.59c0,3.87-1.21,6.97-3.63,9.31-2.42,2.33-5.63,3.5-9.64,3.5h-11.95c-.22,0-.41-.08-.56-.23ZM189.73,71.08l2.97-.07c1.19-.04,2.16-.55,2.9-1.52.75-.97,1.14-2.24,1.19-3.83v-19.4c0-1.67-.37-2.99-1.12-3.96-.75-.97-1.76-1.45-3.04-1.45h-2.9c-.22,0-.33.11-.33.33v29.57c0,.22.11.33.33.33Z"/>
  <path class="st0" d="M235.3,40.62c-.15.16-.34.23-.56.23h-13.79c-.22,0-.33.11-.33.33v10.43c0,.22.11.33.33.33h7.92c.22,0,.41.08.56.23.15.15.23.34.23.56v6.4c0,.22-.08.41-.23.56-.15.15-.34.23-.56.23h-7.92c-.22,0-.33.11-.33.33v10.49c0,.22.11.33.33.33h13.79c.22,0,.41.08.56.23.15.15.23.34.23.56v6.4c0,.22-.08.41-.23.56-.15.16-.34.23-.56.23h-22.64c-.22,0-.41-.08-.56-.23-.15-.15-.23-.34-.23-.56v-44.62c0-.22.08-.41.23-.56.15-.15.34-.23.56-.23h22.64c.22,0,.41.08.56.23.15.15.23.34.23.56v6.4c0,.22-.08.41-.23.56Z"/>
  <path class="st0" d="M259.82,78.34l-1.06-6.34c0-.22-.13-.33-.4-.33h-8.38c-.26,0-.4.11-.4.33l-1.06,6.34c-.04.48-.33.73-.86.73h-7.72c-.57,0-.79-.29-.66-.86l9.7-44.62c.09-.48.37-.73.86-.73h8.91c.48,0,.77.24.86.73l9.64,44.62.07.26c0,.4-.24.59-.73.59h-7.92c-.53,0-.81-.24-.86-.73ZM251.17,64.48h5.94c.22,0,.31-.11.26-.33l-3.1-18.02c-.04-.13-.11-.2-.2-.2s-.15.07-.2.2l-2.97,18.02c0,.22.09.33.26.33Z"/>
  <path class="st0" d="M276.58,78.08c-1.94-1.01-3.43-2.43-4.49-4.26-1.06-1.83-1.58-3.93-1.58-6.3v-1.91c0-.22.08-.41.23-.56.15-.15.34-.23.56-.23h7.59c.22,0,.41.08.56.23.15.16.23.34.23.56v1.45c0,1.36.35,2.46,1.06,3.3.7.84,1.58,1.25,2.64,1.25s1.94-.4,2.64-1.19c.7-.79,1.06-1.83,1.06-3.1s-.44-2.45-1.32-3.4c-.88-.95-2.6-2.34-5.15-4.19-2.2-1.58-3.98-2.99-5.35-4.22-1.36-1.23-2.53-2.75-3.5-4.55-.97-1.8-1.45-3.89-1.45-6.27,0-3.74,1.17-6.73,3.5-8.98,2.33-2.24,5.41-3.37,9.24-3.37s6.98,1.17,9.34,3.5c2.35,2.33,3.53,5.39,3.53,9.17v1.58c0,.22-.08.41-.23.56-.15.16-.34.23-.56.23h-7.59c-.22,0-.41-.08-.56-.23-.15-.15-.23-.34-.23-.56v-1.78c0-1.36-.34-2.45-1.02-3.27-.68-.81-1.57-1.22-2.67-1.22s-1.91.39-2.57,1.16c-.66.77-.99,1.84-.99,3.2s.42,2.49,1.25,3.5c.84,1.01,2.49,2.42,4.95,4.22,2.73,2.02,4.78,3.66,6.17,4.92,1.39,1.25,2.46,2.64,3.23,4.16.77,1.52,1.16,3.33,1.16,5.45,0,3.87-1.19,6.95-3.56,9.24-2.38,2.29-5.5,3.43-9.37,3.43-2.55,0-4.8-.51-6.73-1.52Z"/>
  <path class="st0" d="M299.78,85.31c-.15-.16-.21-.36-.17-.63l1.45-15.31c.09-.48.35-.73.79-.73h6.73c.62,0,.86.29.73.86l-3.5,15.31c-.13.48-.42.73-.86.73h-4.55c-.26,0-.47-.08-.63-.23Z"/>
  <path class="st0" d="M351.66,40.62c-.15.16-.34.23-.56.23h-13.79c-.22,0-.33.11-.33.33v10.43c0,.22.11.33.33.33h7.92c.22,0,.41.08.56.23.15.15.23.34.23.56v6.4c0,.22-.08.41-.23.56-.16.15-.34.23-.56.23h-7.92c-.22,0-.33.11-.33.33v10.49c0,.22.11.33.33.33h13.79c.22,0,.41.08.56.23.15.15.23.34.23.56v6.4c0,.22-.08.41-.23.56-.15.16-.34.23-.56.23h-22.64c-.22,0-.41-.08-.56-.23-.15-.15-.23-.34-.23-.56v-44.62c0-.22.08-.41.23-.56s.34-.23.56-.23h22.64c.22,0,.41.08.56.23s.23.34.23.56v6.4c0,.22-.08.41-.23.56Z"/>
  <path class="st0" d="M355.39,78.81c-.09-.18-.09-.4,0-.66l8.98-21.98c.04-.13.04-.26,0-.4l-8.98-21.98c-.04-.09-.07-.22-.07-.4,0-.35.22-.53.66-.53h7.92c.44,0,.73.22.86.66l4.42,12.67c.04.13.11.2.2.2s.15-.07.2-.2l4.42-12.67c.13-.44.42-.66.86-.66h7.85c.31,0,.5.09.59.26.09.18.09.4,0,.66l-8.98,21.98c-.04.13-.04.26,0,.4l8.98,21.98c.04.09.07.22.07.4,0,.35-.22.53-.66.53h-7.85c-.44,0-.73-.22-.86-.66l-4.42-12.61c-.04-.13-.11-.2-.2-.2s-.15.07-.2.2l-4.49,12.61c-.13.44-.42.66-.86.66h-7.85c-.31,0-.51-.09-.59-.26Z"/>
  <path class="st0" d="M411.91,40.62c-.15.16-.34.23-.56.23h-13.79c-.22,0-.33.11-.33.33v10.43c0,.22.11.33.33.33h7.92c.22,0,.41.08.56.23.15.15.23.34.23.56v6.4c0,.22-.08.41-.23.56-.16.15-.34.23-.56.23h-7.92c-.22,0-.33.11-.33.33v10.49c0,.22.11.33.33.33h13.79c.22,0,.41.08.56.23.15.15.23.34.23.56v6.4c0,.22-.08.41-.23.56-.15.16-.34.23-.56.23h-22.64c-.22,0-.41-.08-.56-.23-.15-.15-.23-.34-.23-.56v-44.62c0-.22.08-.41.23-.56s.34-.23.56-.23h22.64c.22,0,.41.08.56.23s.23.34.23.56v6.4c0,.22-.08.41-.23.56Z"/>
  <path class="st0" d="M419.77,76.07c-2.4-2.35-3.6-5.51-3.6-9.47v-21.38c0-3.92,1.2-7.04,3.6-9.37,2.4-2.33,5.58-3.5,9.54-3.5s7.2,1.17,9.6,3.5c2.4,2.33,3.6,5.46,3.6,9.37v.73c0,.22-.08.41-.23.56-.15.16-.34.23-.56.23l-7.72.33c-.53,0-.79-.24-.79-.73v-1.72c0-1.28-.35-2.31-1.06-3.1-.7-.79-1.65-1.19-2.84-1.19s-2.07.4-2.77,1.19c-.71.79-1.06,1.83-1.06,3.1v22.77c0,1.28.35,2.3,1.06,3.07.7.77,1.63,1.16,2.77,1.16s2.13-.38,2.84-1.16c.7-.77,1.06-1.79,1.06-3.07v-1.78c0-.22.08-.41.23-.56.15-.15.34-.23.56-.23l7.72.33c.22,0,.41.08.56.23.15.16.23.34.23.56v.66c0,3.96-1.21,7.12-3.63,9.47-2.42,2.35-5.61,3.53-9.57,3.53s-7.14-1.18-9.54-3.53Z"/>
  <path class="st0" d="M450.85,75.87c-2.4-2.49-3.6-5.8-3.6-9.93v-32.27c0-.22.08-.41.23-.56s.34-.23.56-.23h7.72c.22,0,.41.08.56.23.15.15.23.34.23.56v33.2c0,1.41.35,2.55,1.06,3.43.7.88,1.63,1.32,2.77,1.32s2.06-.44,2.74-1.32c.68-.88,1.02-2.02,1.02-3.43v-33.2c0-.22.08-.41.23-.56.15-.15.34-.23.56-.23h7.72c.22,0,.41.08.56.23s.23.34.23.56v32.27c0,4.14-1.2,7.45-3.6,9.93-2.4,2.49-5.55,3.73-9.47,3.73s-7.14-1.24-9.54-3.73Z"/>
  <path class="st0" d="M505.24,33.1c.15.15.23.34.23.56v6.4c0,.22-.08.41-.23.56s-.34.23-.56.23h-8.25c-.22,0-.33.11-.33.33v37.09c0,.22-.08.41-.23.56s-.34.23-.56.23h-7.72c-.22,0-.41-.08-.56-.23-.16-.15-.23-.34-.23-.56v-37.09c0-.22-.11-.33-.33-.33h-7.92c-.22,0-.41-.08-.56-.23-.16-.15-.23-.34-.23-.56v-6.4c0-.22.08-.41.23-.56.15-.15.34-.23.56-.23h26.14c.22,0,.41.08.56.23Z"/>
  <path class="st0" d="M510.18,78.84c-.15-.15-.23-.34-.23-.56v-44.62c0-.22.08-.41.23-.56s.34-.23.56-.23h7.72c.22,0,.41.08.56.23s.23.34.23.56v44.62c0,.22-.08.41-.23.56-.15.16-.34.23-.56.23h-7.72c-.22,0-.41-.08-.56-.23Z"/>
  <path class="st0" d="M528.1,76.03c-2.42-2.38-3.63-5.54-3.63-9.5v-21.12c0-3.96,1.21-7.13,3.63-9.5,2.42-2.38,5.65-3.56,9.7-3.56s7.29,1.19,9.73,3.56c2.44,2.38,3.66,5.54,3.66,9.5v21.12c0,3.96-1.22,7.13-3.66,9.5-2.44,2.38-5.69,3.56-9.73,3.56s-7.28-1.19-9.7-3.56ZM540.78,70.32c.75-.86,1.12-1.99,1.12-3.4v-21.91c0-1.41-.37-2.54-1.12-3.4-.75-.86-1.74-1.29-2.97-1.29s-2.21.43-2.94,1.29c-.73.86-1.09,1.99-1.09,3.4v21.91c0,1.41.36,2.54,1.09,3.4.73.86,1.71,1.29,2.94,1.29s2.22-.43,2.97-1.29Z"/>
  <path class="st0" d="M575.46,33.1c.15-.15.34-.23.56-.23h7.66c.22,0,.41.08.56.23.15.15.23.34.23.56v44.62c0,.22-.08.41-.23.56-.15.16-.34.23-.56.23h-8.71c-.44,0-.73-.22-.86-.66l-8.18-25.54c-.04-.13-.12-.19-.23-.17-.11.02-.17.1-.17.23l.07,25.34c0,.22-.08.41-.23.56-.15.16-.34.23-.56.23h-7.66c-.22,0-.41-.08-.56-.23-.15-.15-.23-.34-.23-.56v-44.62c0-.22.08-.41.23-.56s.34-.23.56-.23h8.65c.44,0,.73.22.86.66l8.25,25.54c.04.13.12.19.23.17.11-.02.17-.1.17-.23l-.07-25.34c0-.22.08-.41.23-.56Z"/>
  <path class="st0" d="M589.52,85.31c-.15-.16-.21-.36-.16-.63l1.45-15.31c.09-.48.35-.73.79-.73h6.73c.62,0,.86.29.73.86l-3.5,15.31c-.13.48-.42.73-.86.73h-4.55c-.26,0-.47-.08-.63-.23Z"/>
  <path class="st0" d="M186.92,150.34l-9.44-44.62-.07-.26c0-.4.24-.59.73-.59h8.51c.53,0,.81.24.86.73l4.55,29.04c.04.18.11.26.2.26s.15-.09.2-.26l4.42-29.04c.04-.48.33-.73.86-.73h8.25c.57,0,.79.29.66.86l-9.5,44.62c-.09.48-.37.73-.86.73h-8.51c-.48,0-.77-.24-.86-.73Z"/>
  <path class="st0" d="M211.31,150.84c-.15-.15-.23-.34-.23-.56v-44.62c0-.22.08-.41.23-.56.15-.15.34-.23.56-.23h7.72c.22,0,.41.08.56.23.15.15.23.34.23.56v44.62c0,.22-.08.41-.23.56-.15.16-.34.23-.56.23h-7.72c-.22,0-.41-.08-.56-.23Z"/>
  <path class="st0" d="M250.25,112.62c-.15.16-.34.23-.56.23h-13.79c-.22,0-.33.11-.33.33v10.43c0,.22.11.33.33.33h7.92c.22,0,.41.08.56.23.15.15.23.34.23.56v6.4c0,.22-.08.41-.23.56-.15.15-.34.23-.56.23h-7.92c-.22,0-.33.11-.33.33v10.49c0,.22.11.33.33.33h13.79c.22,0,.41.08.56.23.15.15.23.34.23.56v6.4c0,.22-.08.41-.23.56-.15.16-.34.23-.56.23h-22.64c-.22,0-.41-.08-.56-.23-.15-.15-.23-.34-.23-.56v-44.62c0-.22.08-.41.23-.56.15-.15.34-.23.56-.23h22.64c.22,0,.41.08.56.23.15.15.23.34.23.56v6.4c0,.22-.08.41-.23.56Z"/>
  <path class="st0" d="M262.56,150.34l-8.91-44.62-.07-.26c0-.4.24-.59.73-.59h8.05c.53,0,.81.24.86.73l3.76,23.76c.04.18.11.26.2.26s.15-.09.2-.26l3.56-23.76c.04-.48.33-.73.86-.73h6.67c.53,0,.81.24.86.73l3.89,23.76c.04.18.11.26.2.26s.15-.09.2-.26l3.37-23.76c.04-.48.33-.73.86-.73h7.79c.57,0,.81.29.73.86l-8.38,44.62c-.04.48-.33.73-.86.73h-7.13c-.53,0-.81-.24-.86-.73l-3.89-24.42c-.04-.17-.11-.26-.2-.26s-.15.09-.2.26l-3.5,24.42c-.04.48-.33.73-.86.73h-7.06c-.48,0-.77-.24-.86-.73Z"/>
  <path class="st0" d="M304.8,150.08c-1.94-1.01-3.43-2.43-4.49-4.26-1.06-1.83-1.58-3.93-1.58-6.3v-1.91c0-.22.08-.41.23-.56.15-.15.34-.23.56-.23h7.59c.22,0,.41.08.56.23.15.16.23.34.23.56v1.45c0,1.36.35,2.46,1.06,3.3.7.84,1.58,1.25,2.64,1.25s1.94-.4,2.64-1.19c.7-.79,1.06-1.83,1.06-3.1s-.44-2.45-1.32-3.4c-.88-.95-2.6-2.34-5.15-4.19-2.2-1.58-3.98-2.99-5.35-4.22-1.36-1.23-2.53-2.75-3.5-4.55-.97-1.8-1.45-3.89-1.45-6.27,0-3.74,1.17-6.73,3.5-8.98,2.33-2.24,5.41-3.37,9.24-3.37s6.98,1.17,9.34,3.5c2.35,2.33,3.53,5.39,3.53,9.17v1.58c0,.22-.08.41-.23.56-.15.16-.34.23-.56.23h-7.59c-.22,0-.41-.08-.56-.23-.15-.15-.23-.34-.23-.56v-1.78c0-1.36-.34-2.45-1.02-3.27-.68-.81-1.57-1.22-2.67-1.22s-1.91.39-2.57,1.16c-.66.77-.99,1.84-.99,3.2s.42,2.49,1.25,3.5c.84,1.01,2.49,2.42,4.95,4.22,2.73,2.02,4.78,3.66,6.17,4.92,1.39,1.25,2.46,2.64,3.23,4.16.77,1.52,1.15,3.33,1.15,5.45,0,3.87-1.19,6.95-3.56,9.24-2.38,2.29-5.5,3.43-9.37,3.43-2.55,0-4.8-.51-6.73-1.52Z"/>
  <path class="st0" d="M327.99,157.31c-.15-.16-.21-.36-.16-.63l1.45-15.31c.09-.48.35-.73.79-.73h6.73c.62,0,.86.29.73.86l-3.5,15.31c-.13.48-.42.73-.86.73h-4.55c-.26,0-.47-.08-.63-.23Z"/>
  <path class="st0" d="M358.85,148.03c-2.42-2.38-3.63-5.54-3.63-9.5v-21.12c0-3.96,1.21-7.13,3.63-9.5,2.42-2.38,5.65-3.56,9.7-3.56s7.29,1.19,9.73,3.56c2.44,2.38,3.66,5.54,3.66,9.5v21.12c0,3.96-1.22,7.13-3.66,9.5-2.44,2.38-5.69,3.56-9.73,3.56s-7.28-1.19-9.7-3.56ZM371.52,142.32c.75-.86,1.12-1.99,1.12-3.4v-21.91c0-1.41-.37-2.54-1.12-3.4-.75-.86-1.74-1.29-2.97-1.29s-2.21.43-2.94,1.29c-.73.86-1.09,1.99-1.09,3.4v21.91c0,1.41.36,2.54,1.09,3.4.73.86,1.71,1.29,2.94,1.29s2.22-.43,2.97-1.29Z"/>
  <path class="st0" d="M407.62,106.59c1.89,1.19,3.35,2.85,4.39,4.98,1.03,2.13,1.55,4.57,1.55,7.29,0,4.09-1.1,7.37-3.3,9.83-2.2,2.46-5.08,3.7-8.65,3.7h-4.95c-.22,0-.33.11-.33.33v17.56c0,.22-.08.41-.23.56-.15.16-.34.23-.56.23h-7.72c-.22,0-.41-.08-.56-.23-.16-.15-.23-.34-.23-.56v-44.68c0-.22.08-.41.23-.56s.34-.23.56-.23h13.33c2.42,0,4.58.59,6.47,1.78ZM402.97,123.52c.86-1.08,1.29-2.56,1.29-4.46s-.43-3.45-1.29-4.55c-.86-1.1-1.99-1.65-3.4-1.65h-2.9c-.22,0-.33.11-.33.33v11.62c0,.22.11.33.33.33h2.9c1.41,0,2.54-.54,3.4-1.62Z"/>
  <path class="st0" d="M418.02,150.84c-.15-.15-.23-.34-.23-.56v-44.62c0-.22.08-.41.23-.56s.34-.23.56-.23h7.72c.22,0,.41.08.56.23s.23.34.23.56v44.62c0,.22-.08.41-.23.56-.15.16-.34.23-.56.23h-7.72c-.22,0-.41-.08-.56-.23Z"/>
  <path class="st0" d="M452.07,105.1c.15-.15.34-.23.56-.23h7.66c.22,0,.41.08.56.23.15.15.23.34.23.56v44.62c0,.22-.08.41-.23.56-.15.16-.34.23-.56.23h-8.71c-.44,0-.73-.22-.86-.66l-8.18-25.54c-.04-.13-.12-.19-.23-.17-.11.02-.17.1-.17.23l.07,25.34c0,.22-.08.41-.23.56-.15.16-.34.23-.56.23h-7.66c-.22,0-.41-.08-.56-.23-.15-.15-.23-.34-.23-.56v-44.62c0-.22.08-.41.23-.56s.34-.23.56-.23h8.65c.44,0,.73.22.86.66l8.25,25.54c.04.13.12.19.23.17.11-.02.17-.1.17-.23l-.07-25.34c0-.22.08-.41.23-.56Z"/>
  <path class="st0" d="M467.12,150.84c-.15-.15-.23-.34-.23-.56v-44.62c0-.22.08-.41.23-.56s.34-.23.56-.23h7.72c.22,0,.41.08.56.23s.23.34.23.56v44.62c0,.22-.08.41-.23.56-.15.16-.34.23-.56.23h-7.72c-.22,0-.41-.08-.56-.23Z"/>
  <path class="st0" d="M485.04,148.03c-2.42-2.38-3.63-5.54-3.63-9.5v-21.12c0-3.96,1.21-7.13,3.63-9.5,2.42-2.38,5.65-3.56,9.7-3.56s7.29,1.19,9.73,3.56c2.44,2.38,3.66,5.54,3.66,9.5v21.12c0,3.96-1.22,7.13-3.66,9.5-2.44,2.38-5.69,3.56-9.73,3.56s-7.28-1.19-9.7-3.56ZM497.71,142.32c.75-.86,1.12-1.99,1.12-3.4v-21.91c0-1.41-.37-2.54-1.12-3.4-.75-.86-1.74-1.29-2.97-1.29s-2.21.43-2.94,1.29c-.73.86-1.09,1.99-1.09,3.4v21.91c0,1.41.36,2.54,1.09,3.4.73.86,1.71,1.29,2.94,1.29s2.22-.43,2.97-1.29Z"/>
  <path class="st0" d="M532.39,105.1c.15-.15.34-.23.56-.23h7.66c.22,0,.41.08.56.23.15.15.23.34.23.56v44.62c0,.22-.08.41-.23.56-.15.16-.34.23-.56.23h-8.71c-.44,0-.73-.22-.86-.66l-8.18-25.54c-.04-.13-.12-.19-.23-.17-.11.02-.17.1-.17.23l.07,25.34c0,.22-.08.41-.23.56-.15.16-.34.23-.56.23h-7.66c-.22,0-.41-.08-.56-.23-.15-.15-.23-.34-.23-.56v-44.62c0-.22.08-.41.23-.56s.34-.23.56-.23h8.65c.44,0,.73.22.86.66l8.25,25.54c.04.13.12.19.23.17.11-.02.17-.1.17-.23l-.07-25.34c0-.22.08-.41.23-.56Z"/>
  <path class="st0" d="M552.36,150.08c-1.94-1.01-3.43-2.43-4.49-4.26-1.06-1.83-1.58-3.93-1.58-6.3v-1.91c0-.22.08-.41.23-.56.15-.15.34-.23.56-.23h7.59c.22,0,.41.08.56.23.15.16.23.34.23.56v1.45c0,1.36.35,2.46,1.06,3.3.7.84,1.58,1.25,2.64,1.25s1.94-.4,2.64-1.19c.7-.79,1.06-1.83,1.06-3.1s-.44-2.45-1.32-3.4c-.88-.95-2.6-2.34-5.15-4.19-2.2-1.58-3.98-2.99-5.35-4.22-1.37-1.23-2.53-2.75-3.5-4.55-.97-1.8-1.45-3.89-1.45-6.27,0-3.74,1.17-6.73,3.5-8.98,2.33-2.24,5.41-3.37,9.24-3.37s6.99,1.17,9.34,3.5c2.35,2.33,3.53,5.39,3.53,9.17v1.58c0,.22-.08.41-.23.56s-.34.23-.56.23h-7.59c-.22,0-.41-.08-.56-.23-.16-.15-.23-.34-.23-.56v-1.78c0-1.36-.34-2.45-1.02-3.27-.68-.81-1.57-1.22-2.67-1.22s-1.91.39-2.57,1.16c-.66.77-.99,1.84-.99,3.2s.42,2.49,1.25,3.5c.83,1.01,2.49,2.42,4.95,4.22,2.73,2.02,4.79,3.66,6.17,4.92s2.46,2.64,3.23,4.16c.77,1.52,1.15,3.33,1.15,5.45,0,3.87-1.19,6.95-3.56,9.24-2.38,2.29-5.5,3.43-9.37,3.43-2.55,0-4.8-.51-6.73-1.52Z"/>
  <path class="st0" d="M575.56,157.31c-.15-.16-.21-.36-.16-.63l1.45-15.31c.09-.48.35-.73.79-.73h6.73c.62,0,.86.29.73.86l-3.5,15.31c-.13.48-.42.73-.86.73h-4.55c-.26,0-.47-.08-.63-.23Z"/>
</svg>