<?xml version="1.0" encoding="UTF-8"?>
<svg id="Layer_1" xmlns="http://www.w3.org/2000/svg" version="1.1" viewBox="0 0 764 153.67">
  <!-- Generator: Adobe Illustrator 29.6.1, SVG Export Plug-In . SVG Version: 2.1.1 Build 9)  -->
  <defs>
    <style>
      .st0 {
        fill: none;
        stroke: #fff;
        stroke-miterlimit: 10;
      }

      .st1 {
        fill: #00e1ff;
      }
    </style>
  </defs>
  <g>
    <g>
      <path class="st1" d="M80.19,90.35c.1.11.16.23.16.38v4.37c0,.15-.05.28-.16.38-.11.11-.23.16-.38.16h-5.62c-.15,0-.23.08-.23.22v25.29c0,.15-.05.28-.16.38-.11.11-.23.16-.38.16h-5.26c-.15,0-.28-.05-.38-.16-.11-.11-.16-.23-.16-.38v-25.29c0-.15-.08-.22-.23-.22h-5.4c-.15,0-.28-.05-.38-.16-.11-.1-.16-.23-.16-.38v-4.37c0-.15.05-.28.16-.38.1-.1.23-.16.38-.16h17.82c.15,0,.28.05.38.16Z"/>
      <path class="st1" d="M84.98,119.62c-1.65-1.62-2.48-3.78-2.48-6.48v-14.4c0-2.7.83-4.86,2.48-6.48,1.65-1.62,3.85-2.43,6.62-2.43s4.97.81,6.64,2.43,2.5,3.78,2.5,6.48v14.4c0,2.7-.83,4.86-2.5,6.48s-3.88,2.43-6.64,2.43-4.97-.81-6.62-2.43ZM93.62,115.73c.51-.58.77-1.36.77-2.32v-14.94c0-.96-.26-1.73-.77-2.32-.51-.58-1.19-.88-2.02-.88s-1.51.29-2,.88c-.5.58-.74,1.36-.74,2.32v14.94c0,.96.25,1.73.74,2.32.49.58,1.16.88,2,.88s1.51-.29,2.02-.88Z"/>
      <path class="st1" d="M114.21,121.54c-.11-.11-.16-.23-.16-.38v-30.42c0-.15.05-.28.16-.38s.23-.16.38-.16h8.15c2.73,0,4.92.79,6.57,2.38,1.65,1.59,2.48,3.71,2.48,6.35v14.04c0,2.64-.83,4.76-2.48,6.35s-3.84,2.38-6.57,2.38h-8.15c-.15,0-.28-.05-.38-.16ZM120.62,116.25l2.03-.04c.81-.03,1.47-.38,1.98-1.04.51-.66.78-1.53.81-2.61v-13.23c0-1.14-.26-2.04-.77-2.7-.51-.66-1.2-.99-2.07-.99h-1.98c-.15,0-.22.08-.22.22v20.16c0,.15.07.22.22.22Z"/>
      <path class="st1" d="M147.67,121.25l-3.46-12.42c-.06-.12-.14-.18-.23-.18h-1.53c-.15,0-.22.08-.22.22v12.29c0,.15-.05.28-.16.38-.11.11-.23.16-.38.16h-5.27c-.15,0-.28-.05-.38-.16-.11-.11-.16-.23-.16-.38v-30.42c0-.15.05-.28.16-.38s.23-.16.38-.16h9.09c1.65,0,3.12.4,4.41,1.19,1.29.79,2.29,1.91,2.99,3.35.7,1.44,1.06,3.09,1.06,4.95s-.34,3.33-1.01,4.68-1.61,2.4-2.81,3.15c-.06.03-.11.07-.14.11-.03.04-.03.1,0,.16l4.14,13.28.04.18c0,.3-.17.45-.5.45h-5.4c-.33,0-.54-.15-.63-.45ZM142.22,95.87v7.7c0,.15.07.22.22.22h2.03c.93,0,1.69-.37,2.27-1.1.58-.73.88-1.72.88-2.95s-.29-2.26-.88-2.99-1.34-1.1-2.27-1.1h-2.03c-.15,0-.22.08-.22.22Z"/>
      <path class="st1" d="M157.63,121.54c-.11-.11-.16-.23-.16-.38v-30.42c0-.15.05-.28.16-.38s.23-.16.38-.16h5.27c.15,0,.28.05.38.16.1.11.16.23.16.38v30.42c0,.15-.05.28-.16.38-.11.11-.23.16-.38.16h-5.27c-.15,0-.28-.05-.38-.16Z"/>
      <path class="st1" d="M173.72,121.2l-6.44-30.42-.04-.18c0-.27.16-.41.49-.41h5.81c.36,0,.55.17.58.5l3.1,19.8c.03.12.07.18.14.18s.1-.06.13-.18l3.02-19.8c.03-.33.23-.5.58-.5h5.62c.39,0,.54.2.45.58l-6.48,30.42c-.06.33-.25.5-.58.5h-5.8c-.33,0-.53-.16-.58-.5Z"/>
      <path class="st1" d="M206.95,95.48c-.11.11-.23.16-.38.16h-9.41c-.15,0-.22.08-.22.22v7.11c0,.15.07.22.22.22h5.4c.15,0,.28.05.38.16.1.11.16.23.16.38v4.37c0,.15-.05.28-.16.38-.11.11-.23.16-.38.16h-5.4c-.15,0-.22.08-.22.22v7.16c0,.15.07.22.22.22h9.41c.15,0,.28.05.38.16.1.11.16.23.16.38v4.37c0,.15-.05.28-.16.38-.11.11-.23.16-.38.16h-15.44c-.15,0-.28-.05-.38-.16-.11-.11-.16-.23-.16-.38v-30.42c0-.15.05-.28.16-.38s.23-.16.38-.16h15.44c.15,0,.28.05.38.16.1.11.16.23.16.38v4.37c0,.15-.05.28-.16.38Z"/>
      <path class="st1" d="M235.19,90.2h5.22c.15,0,.28.05.38.16.1.11.16.23.16.38v30.42c0,.15-.05.28-.16.38-.11.11-.23.16-.38.16h-5.27c-.15,0-.28-.05-.38-.16-.11-.11-.16-.23-.16-.38v-20.21c0-.12-.03-.18-.09-.18s-.12.04-.18.13l-3.51,6.21c-.15.24-.27.36-.36.36s-.21-.12-.36-.36l-3.51-6.21c-.06-.09-.12-.13-.18-.13s-.09.06-.09.18v20.21c0,.15-.05.28-.16.38-.11.11-.23.16-.38.16h-5.27c-.15,0-.28-.05-.38-.16-.11-.11-.16-.23-.16-.38v-30.42c0-.15.05-.28.16-.38.1-.1.23-.16.38-.16h5.18c.3,0,.52.12.67.36l4.01,7.15c.09.12.18.12.27,0l3.87-7.15c.12-.24.34-.36.68-.36Z"/>
      <path class="st1" d="M261.54,95.48c-.11.11-.23.16-.38.16h-9.41c-.15,0-.22.08-.22.22v7.11c0,.15.07.22.22.22h5.4c.15,0,.28.05.38.16.1.11.16.23.16.38v4.37c0,.15-.05.28-.16.38-.11.11-.23.16-.38.16h-5.4c-.15,0-.22.08-.22.22v7.16c0,.15.07.22.22.22h9.41c.15,0,.28.05.38.16.1.11.16.23.16.38v4.37c0,.15-.05.28-.16.38-.11.11-.23.16-.38.16h-15.44c-.15,0-.28-.05-.38-.16-.11-.11-.16-.23-.16-.38v-30.42c0-.15.05-.28.16-.38s.23-.16.38-.16h15.44c.15,0,.28.05.38.16.1.11.16.23.16.38v4.37c0,.15-.05.28-.16.38Z"/>
      <path class="st1" d="M278.66,121.2l-.72-4.32c0-.15-.09-.22-.27-.22h-5.71c-.18,0-.27.08-.27.22l-.72,4.32c-.03.33-.23.5-.58.5h-5.27c-.39,0-.54-.19-.45-.58l6.62-30.42c.06-.33.25-.5.58-.5h6.07c.33,0,.52.17.59.5l6.57,30.42.04.18c0,.27-.17.41-.5.41h-5.4c-.36,0-.56-.16-.58-.5ZM272.76,111.75h4.05c.15,0,.21-.07.18-.22l-2.11-12.29c-.03-.09-.08-.13-.14-.13s-.11.04-.13.13l-2.03,12.29c0,.15.06.22.18.22Z"/>
      <path class="st1" d="M301.14,90.35c.1-.1.23-.16.38-.16h5.22c.15,0,.28.05.38.16.1.11.16.23.16.38v30.42c0,.15-.05.28-.16.38-.11.11-.23.16-.38.16h-5.94c-.3,0-.5-.15-.58-.45l-5.58-17.42c-.03-.09-.08-.13-.16-.11-.08.02-.11.07-.11.16l.04,17.28c0,.15-.05.28-.16.38-.11.11-.23.16-.38.16h-5.22c-.15,0-.28-.05-.38-.16-.11-.11-.16-.23-.16-.38v-30.42c0-.15.05-.28.16-.38s.23-.16.38-.16h5.9c.3,0,.5.15.58.45l5.62,17.42c.03.09.08.13.16.11.07-.01.11-.07.11-.16l-.04-17.28c0-.15.05-.28.16-.38Z"/>
      <path class="st1" d="M311.8,121.54c-.11-.11-.16-.23-.16-.38v-30.42c0-.15.05-.28.16-.38s.23-.16.38-.16h5.27c.15,0,.28.05.38.16.1.11.16.23.16.38v30.42c0,.15-.05.28-.16.38-.11.11-.23.16-.38.16h-5.27c-.15,0-.28-.05-.38-.16Z"/>
      <path class="st1" d="M335.43,90.35c.1-.1.23-.16.38-.16h5.22c.15,0,.28.05.38.16.1.11.16.23.16.38v30.42c0,.15-.05.28-.16.38-.11.11-.23.16-.38.16h-5.94c-.3,0-.5-.15-.58-.45l-5.58-17.42c-.03-.09-.08-.13-.16-.11-.08.02-.11.07-.11.16l.04,17.28c0,.15-.05.28-.16.38-.11.11-.23.16-.38.16h-5.22c-.15,0-.28-.05-.38-.16-.11-.11-.16-.23-.16-.38v-30.42c0-.15.05-.28.16-.38s.23-.16.38-.16h5.9c.3,0,.5.15.58.45l5.62,17.42c.03.09.08.13.16.11.07-.01.11-.07.11-.16l-.04-17.28c0-.15.05-.28.16-.38Z"/>
      <path class="st1" d="M347.94,119.74c-1.64-1.54-2.45-3.61-2.45-6.19v-15.21c0-2.58.82-4.64,2.45-6.19,1.63-1.54,3.8-2.32,6.5-2.32s4.88.78,6.52,2.34,2.48,3.63,2.48,6.21v1.71c0,.15-.05.28-.16.38s-.23.16-.38.16h-5.26c-.15,0-.28-.05-.38-.16-.11-.1-.16-.23-.16-.38v-1.8c0-.9-.24-1.63-.72-2.18-.48-.56-1.12-.83-1.94-.83s-1.41.28-1.89.83c-.48.55-.72,1.28-.72,2.18v15.3c0,.9.24,1.63.72,2.18.48.56,1.11.83,1.89.83s1.46-.28,1.94-.83c.48-.55.72-1.28.72-2.18v-3.6c0-.15-.08-.22-.23-.22h-1.98c-.15,0-.28-.05-.38-.16-.11-.11-.16-.23-.16-.38v-4c0-.15.05-.28.16-.38s.23-.16.38-.16h8.01c.15,0,.28.05.38.16.1.11.16.23.16.38v8.33c0,2.58-.83,4.64-2.48,6.19s-3.82,2.32-6.52,2.32-4.87-.77-6.5-2.32Z"/>
      <path class="st1" d="M383.67,95.48c-.11.11-.23.16-.38.16h-9.36c-.15,0-.22.08-.22.22v7.11c0,.15.07.22.22.22h5.35c.15,0,.28.05.38.16.1.11.16.23.16.38v4.37c0,.15-.05.28-.16.38-.11.11-.23.16-.38.16h-5.35c-.15,0-.22.08-.22.22v12.29c0,.15-.05.28-.16.38-.11.11-.23.16-.38.16h-5.27c-.15,0-.28-.05-.38-.16-.11-.11-.16-.23-.16-.38v-30.42c0-.15.05-.28.16-.38s.23-.16.38-.16h15.39c.15,0,.28.05.38.16.11.11.16.23.16.38v4.37c0,.15-.05.28-.16.38Z"/>
      <path class="st1" d="M389.02,119.51c-1.63-1.69-2.45-3.95-2.45-6.77v-22c0-.15.05-.28.16-.38.11-.1.23-.16.38-.16h5.27c.15,0,.28.05.38.16.1.11.16.23.16.38v22.63c0,.96.24,1.74.72,2.34.48.6,1.11.9,1.89.9s1.4-.3,1.87-.9c.46-.6.7-1.38.7-2.34v-22.63c0-.15.05-.28.16-.38s.23-.16.38-.16h5.27c.15,0,.28.05.38.16.11.11.16.23.16.38v22c0,2.82-.82,5.08-2.45,6.77-1.64,1.7-3.79,2.54-6.46,2.54s-4.87-.85-6.5-2.54Z"/>
      <path class="st1" d="M408.82,121.54c-.11-.11-.16-.23-.16-.38v-30.42c0-.15.05-.28.16-.38.1-.1.23-.16.38-.16h5.27c.15,0,.28.05.38.16.11.11.16.23.16.38v25.29c0,.15.07.22.22.22h9.45c.15,0,.28.05.38.16s.16.23.16.38v4.37c0,.15-.05.28-.16.38s-.23.16-.38.16h-15.48c-.15,0-.28-.05-.38-.16Z"/>
      <path class="st1" d="M439.64,119.65c-1.64-1.6-2.45-3.76-2.45-6.46v-14.58c0-2.67.82-4.8,2.45-6.39,1.63-1.59,3.8-2.39,6.5-2.39s4.91.8,6.55,2.39,2.45,3.72,2.45,6.39v.5c0,.15-.05.28-.16.38s-.23.16-.38.16l-5.27.22c-.36,0-.54-.16-.54-.5v-1.17c0-.87-.24-1.58-.72-2.12-.48-.54-1.12-.81-1.94-.81s-1.41.27-1.89.81c-.48.54-.72,1.25-.72,2.12v15.53c0,.87.24,1.57.72,2.09.48.52,1.11.79,1.89.79s1.46-.26,1.94-.79c.48-.53.72-1.22.72-2.09v-1.21c0-.15.05-.28.16-.38.11-.1.23-.16.38-.16l5.27.22c.15,0,.28.05.38.16.11.11.16.23.16.38v.45c0,2.7-.83,4.85-2.47,6.46-1.65,1.61-3.83,2.41-6.53,2.41s-4.87-.8-6.5-2.41Z"/>
      <path class="st1" d="M460.95,119.62c-1.65-1.62-2.47-3.78-2.47-6.48v-14.4c0-2.7.82-4.86,2.47-6.48s3.86-2.43,6.62-2.43,4.97.81,6.64,2.43c1.66,1.62,2.5,3.78,2.5,6.48v14.4c0,2.7-.83,4.86-2.5,6.48-1.67,1.62-3.88,2.43-6.64,2.43s-4.96-.81-6.62-2.43ZM469.59,115.73c.51-.58.77-1.36.77-2.32v-14.94c0-.96-.26-1.73-.77-2.32s-1.19-.88-2.03-.88-1.51.29-2,.88c-.5.58-.74,1.36-.74,2.32v14.94c0,.96.25,1.73.74,2.32.49.58,1.16.88,2,.88s1.52-.29,2.03-.88Z"/>
      <path class="st1" d="M493.64,90.35c.1-.1.23-.16.38-.16h5.22c.15,0,.28.05.38.16.11.11.16.23.16.38v30.42c0,.15-.05.28-.16.38s-.23.16-.38.16h-5.94c-.3,0-.5-.15-.59-.45l-5.58-17.42c-.03-.09-.08-.13-.16-.11-.08.02-.11.07-.11.16l.04,17.28c0,.15-.05.28-.16.38s-.23.16-.38.16h-5.22c-.15,0-.28-.05-.38-.16s-.16-.23-.16-.38v-30.42c0-.15.05-.28.16-.38.11-.1.23-.16.38-.16h5.89c.3,0,.5.15.59.45l5.62,17.42c.03.09.08.13.16.11.08-.01.11-.07.11-.16l-.04-17.28c0-.15.05-.28.16-.38Z"/>
      <path class="st1" d="M509.64,121.2l-6.44-30.42-.04-.18c0-.27.16-.41.5-.41h5.8c.36,0,.55.17.58.5l3.11,19.8c.03.12.07.18.13.18s.11-.06.13-.18l3.02-19.8c.03-.33.22-.5.58-.5h5.62c.39,0,.54.2.45.58l-6.48,30.42c-.06.33-.26.5-.58.5h-5.81c-.33,0-.53-.16-.58-.5Z"/>
      <path class="st1" d="M542.87,95.48c-.11.11-.23.16-.38.16h-9.4c-.15,0-.22.08-.22.22v7.11c0,.15.07.22.22.22h5.4c.15,0,.28.05.38.16.11.11.16.23.16.38v4.37c0,.15-.05.28-.16.38s-.23.16-.38.16h-5.4c-.15,0-.22.08-.22.22v7.16c0,.15.07.22.22.22h9.4c.15,0,.28.05.38.16s.16.23.16.38v4.37c0,.15-.05.28-.16.38s-.23.16-.38.16h-15.44c-.15,0-.28-.05-.38-.16-.11-.11-.16-.23-.16-.38v-30.42c0-.15.05-.28.16-.38.1-.1.23-.16.38-.16h15.44c.15,0,.28.05.38.16.11.11.16.23.16.38v4.37c0,.15-.05.28-.16.38Z"/>
      <path class="st1" d="M558.42,121.25l-3.46-12.42c-.06-.12-.13-.18-.22-.18h-1.53c-.15,0-.22.08-.22.22v12.29c0,.15-.05.28-.16.38-.11.11-.23.16-.38.16h-5.27c-.15,0-.28-.05-.38-.16s-.16-.23-.16-.38v-30.42c0-.15.05-.28.16-.38.11-.1.23-.16.38-.16h9.09c1.65,0,3.12.4,4.41,1.19,1.29.79,2.29,1.91,2.99,3.35.71,1.44,1.06,3.09,1.06,4.95s-.34,3.33-1.01,4.68c-.67,1.35-1.61,2.4-2.81,3.15-.06.03-.11.07-.13.11s-.03.1,0,.16l4.14,13.28.04.18c0,.3-.17.45-.5.45h-5.4c-.33,0-.54-.15-.63-.45ZM552.97,95.87v7.7c0,.15.07.22.22.22h2.03c.93,0,1.69-.37,2.27-1.1.58-.73.88-1.72.88-2.95s-.29-2.26-.88-2.99c-.59-.74-1.34-1.1-2.27-1.1h-2.03c-.15,0-.22.08-.22.22Z"/>
      <path class="st1" d="M571.87,121.02c-1.32-.69-2.34-1.66-3.06-2.9s-1.08-2.68-1.08-4.3v-1.3c0-.15.05-.28.16-.38.1-.1.23-.16.38-.16h5.18c.15,0,.28.05.38.16.11.11.16.23.16.38v.99c0,.93.24,1.68.72,2.25.48.57,1.08.86,1.8.86s1.32-.27,1.8-.81c.48-.54.72-1.25.72-2.12s-.3-1.67-.9-2.32-1.77-1.6-3.51-2.86c-1.5-1.08-2.71-2.04-3.64-2.88-.93-.84-1.73-1.87-2.38-3.1-.66-1.23-.99-2.66-.99-4.28,0-2.55.79-4.59,2.38-6.12,1.59-1.53,3.69-2.29,6.3-2.29s4.76.8,6.37,2.39c1.6,1.59,2.41,3.67,2.41,6.25v1.08c0,.15-.05.28-.16.38-.11.11-.23.16-.38.16h-5.18c-.15,0-.28-.05-.38-.16-.11-.1-.16-.23-.16-.38v-1.22c0-.93-.23-1.67-.7-2.23-.47-.56-1.07-.83-1.82-.83s-1.31.26-1.76.79c-.45.53-.68,1.25-.68,2.18s.29,1.7.86,2.39,1.7,1.65,3.38,2.88c1.86,1.38,3.26,2.5,4.21,3.35.95.85,1.68,1.8,2.21,2.83s.79,2.27.79,3.71c0,2.64-.81,4.74-2.43,6.3-1.62,1.56-3.75,2.34-6.39,2.34-1.74,0-3.27-.35-4.59-1.04Z"/>
      <path class="st1" d="M601.39,121.2l-.72-4.32c0-.15-.09-.22-.27-.22h-5.71c-.18,0-.27.08-.27.22l-.72,4.32c-.03.33-.22.5-.58.5h-5.27c-.39,0-.54-.19-.45-.58l6.62-30.42c.06-.33.25-.5.58-.5h6.08c.33,0,.52.17.58.5l6.57,30.42.04.18c0,.27-.17.41-.49.41h-5.4c-.36,0-.56-.16-.59-.5ZM595.5,111.75h4.05c.15,0,.21-.07.18-.22l-2.12-12.29c-.03-.09-.08-.13-.13-.13s-.11.04-.13.13l-2.03,12.29c0,.15.06.22.18.22Z"/>
      <path class="st1" d="M626.03,90.35c.11.11.16.23.16.38v4.37c0,.15-.05.28-.16.38-.11.11-.23.16-.38.16h-5.62c-.15,0-.22.08-.22.22v25.29c0,.15-.05.28-.16.38s-.23.16-.38.16h-5.26c-.15,0-.28-.05-.38-.16-.11-.11-.16-.23-.16-.38v-25.29c0-.15-.07-.22-.22-.22h-5.4c-.15,0-.28-.05-.38-.16-.11-.1-.16-.23-.16-.38v-4.37c0-.15.05-.28.16-.38.11-.1.23-.16.38-.16h17.82c.15,0,.28.05.38.16Z"/>
      <path class="st1" d="M629.81,121.54c-.11-.11-.16-.23-.16-.38v-30.42c0-.15.05-.28.16-.38.11-.1.23-.16.38-.16h5.27c.15,0,.28.05.38.16.1.11.16.23.16.38v30.42c0,.15-.05.28-.16.38-.11.11-.23.16-.38.16h-5.27c-.15,0-.28-.05-.38-.16Z"/>
      <path class="st1" d="M642.43,119.62c-1.65-1.62-2.47-3.78-2.47-6.48v-14.4c0-2.7.82-4.86,2.47-6.48,1.65-1.62,3.85-2.43,6.62-2.43s4.97.81,6.64,2.43c1.67,1.62,2.5,3.78,2.5,6.48v14.4c0,2.7-.83,4.86-2.5,6.48-1.66,1.62-3.88,2.43-6.64,2.43s-4.97-.81-6.62-2.43ZM651.07,115.73c.51-.58.77-1.36.77-2.32v-14.94c0-.96-.26-1.73-.77-2.32s-1.18-.88-2.02-.88-1.51.29-2,.88c-.49.58-.74,1.36-.74,2.32v14.94c0,.96.25,1.73.74,2.32.5.58,1.16.88,2,.88s1.51-.29,2.02-.88Z"/>
      <path class="st1" d="M675.12,90.35c.11-.1.23-.16.38-.16h5.22c.15,0,.28.05.38.16.11.11.16.23.16.38v30.42c0,.15-.05.28-.16.38s-.23.16-.38.16h-5.94c-.3,0-.49-.15-.58-.45l-5.58-17.42c-.03-.09-.08-.13-.16-.11-.07.02-.11.07-.11.16l.04,17.28c0,.15-.05.28-.16.38s-.23.16-.38.16h-5.22c-.15,0-.28-.05-.38-.16-.11-.11-.16-.23-.16-.38v-30.42c0-.15.05-.28.16-.38.1-.1.23-.16.38-.16h5.9c.3,0,.49.15.58.45l5.62,17.42c.03.09.08.13.16.11.07-.01.11-.07.11-.16l-.04-17.28c0-.15.05-.28.16-.38Z"/>
      <path class="st1" d="M689.14,121.02c-1.32-.69-2.34-1.66-3.06-2.9s-1.08-2.68-1.08-4.3v-1.3c0-.15.05-.28.16-.38.1-.1.23-.16.38-.16h5.18c.15,0,.28.05.38.16.11.11.16.23.16.38v.99c0,.93.24,1.68.72,2.25.48.57,1.08.86,1.8.86s1.32-.27,1.8-.81c.48-.54.72-1.25.72-2.12s-.3-1.67-.9-2.32-1.77-1.6-3.51-2.86c-1.5-1.08-2.71-2.04-3.64-2.88-.93-.84-1.73-1.87-2.38-3.1-.66-1.23-.99-2.66-.99-4.28,0-2.55.79-4.59,2.38-6.12,1.59-1.53,3.69-2.29,6.3-2.29s4.76.8,6.37,2.39c1.6,1.59,2.41,3.67,2.41,6.25v1.08c0,.15-.05.28-.16.38-.11.11-.23.16-.38.16h-5.18c-.15,0-.28-.05-.38-.16-.11-.1-.16-.23-.16-.38v-1.22c0-.93-.23-1.67-.7-2.23-.47-.56-1.07-.83-1.82-.83s-1.31.26-1.76.79c-.45.53-.68,1.25-.68,2.18s.29,1.7.86,2.39,1.7,1.65,3.38,2.88c1.86,1.38,3.26,2.5,4.21,3.35.95.85,1.68,1.8,2.21,2.83s.79,2.27.79,3.71c0,2.64-.81,4.74-2.43,6.3-1.62,1.56-3.75,2.34-6.39,2.34-1.74,0-3.27-.35-4.59-1.04Z"/>
    </g>
    <g>
      <path class="st1" d="M80.19,90.35c.1.11.16.23.16.38v4.37c0,.15-.05.28-.16.38-.11.11-.23.16-.38.16h-5.62c-.15,0-.23.08-.23.22v25.29c0,.15-.05.28-.16.38-.11.11-.23.16-.38.16h-5.26c-.15,0-.28-.05-.38-.16-.11-.11-.16-.23-.16-.38v-25.29c0-.15-.08-.22-.23-.22h-5.4c-.15,0-.28-.05-.38-.16-.11-.1-.16-.23-.16-.38v-4.37c0-.15.05-.28.16-.38.1-.1.23-.16.38-.16h17.82c.15,0,.28.05.38.16Z"/>
      <path class="st1" d="M84.98,119.62c-1.65-1.62-2.48-3.78-2.48-6.48v-14.4c0-2.7.83-4.86,2.48-6.48,1.65-1.62,3.85-2.43,6.62-2.43s4.97.81,6.64,2.43,2.5,3.78,2.5,6.48v14.4c0,2.7-.83,4.86-2.5,6.48s-3.88,2.43-6.64,2.43-4.97-.81-6.62-2.43ZM93.62,115.73c.51-.58.77-1.36.77-2.32v-14.94c0-.96-.26-1.73-.77-2.32-.51-.58-1.19-.88-2.02-.88s-1.51.29-2,.88c-.5.58-.74,1.36-.74,2.32v14.94c0,.96.25,1.73.74,2.32.49.58,1.16.88,2,.88s1.51-.29,2.02-.88Z"/>
      <path class="st1" d="M114.21,121.54c-.11-.11-.16-.23-.16-.38v-30.42c0-.15.05-.28.16-.38s.23-.16.38-.16h8.15c2.73,0,4.92.79,6.57,2.38,1.65,1.59,2.48,3.71,2.48,6.35v14.04c0,2.64-.83,4.76-2.48,6.35s-3.84,2.38-6.57,2.38h-8.15c-.15,0-.28-.05-.38-.16ZM120.62,116.25l2.03-.04c.81-.03,1.47-.38,1.98-1.04.51-.66.78-1.53.81-2.61v-13.23c0-1.14-.26-2.04-.77-2.7-.51-.66-1.2-.99-2.07-.99h-1.98c-.15,0-.22.08-.22.22v20.16c0,.15.07.22.22.22Z"/>
      <path class="st1" d="M147.67,121.25l-3.46-12.42c-.06-.12-.14-.18-.23-.18h-1.53c-.15,0-.22.08-.22.22v12.29c0,.15-.05.28-.16.38-.11.11-.23.16-.38.16h-5.27c-.15,0-.28-.05-.38-.16-.11-.11-.16-.23-.16-.38v-30.42c0-.15.05-.28.16-.38s.23-.16.38-.16h9.09c1.65,0,3.12.4,4.41,1.19,1.29.79,2.29,1.91,2.99,3.35.7,1.44,1.06,3.09,1.06,4.95s-.34,3.33-1.01,4.68-1.61,2.4-2.81,3.15c-.06.03-.11.07-.14.11-.03.04-.03.1,0,.16l4.14,13.28.04.18c0,.3-.17.45-.5.45h-5.4c-.33,0-.54-.15-.63-.45ZM142.22,95.87v7.7c0,.15.07.22.22.22h2.03c.93,0,1.69-.37,2.27-1.1.58-.73.88-1.72.88-2.95s-.29-2.26-.88-2.99-1.34-1.1-2.27-1.1h-2.03c-.15,0-.22.08-.22.22Z"/>
      <path class="st1" d="M157.63,121.54c-.11-.11-.16-.23-.16-.38v-30.42c0-.15.05-.28.16-.38s.23-.16.38-.16h5.27c.15,0,.28.05.38.16.1.11.16.23.16.38v30.42c0,.15-.05.28-.16.38-.11.11-.23.16-.38.16h-5.27c-.15,0-.28-.05-.38-.16Z"/>
      <path class="st1" d="M173.72,121.2l-6.44-30.42-.04-.18c0-.27.16-.41.49-.41h5.81c.36,0,.55.17.58.5l3.1,19.8c.03.12.07.18.14.18s.1-.06.13-.18l3.02-19.8c.03-.33.23-.5.58-.5h5.62c.39,0,.54.2.45.58l-6.48,30.42c-.06.33-.25.5-.58.5h-5.8c-.33,0-.53-.16-.58-.5Z"/>
      <path class="st1" d="M206.95,95.48c-.11.11-.23.16-.38.16h-9.41c-.15,0-.22.08-.22.22v7.11c0,.15.07.22.22.22h5.4c.15,0,.28.05.38.16.1.11.16.23.16.38v4.37c0,.15-.05.28-.16.38-.11.11-.23.16-.38.16h-5.4c-.15,0-.22.08-.22.22v7.16c0,.15.07.22.22.22h9.41c.15,0,.28.05.38.16.1.11.16.23.16.38v4.37c0,.15-.05.28-.16.38-.11.11-.23.16-.38.16h-15.44c-.15,0-.28-.05-.38-.16-.11-.11-.16-.23-.16-.38v-30.42c0-.15.05-.28.16-.38s.23-.16.38-.16h15.44c.15,0,.28.05.38.16.1.11.16.23.16.38v4.37c0,.15-.05.28-.16.38Z"/>
      <path class="st1" d="M235.19,90.2h5.22c.15,0,.28.05.38.16.1.11.16.23.16.38v30.42c0,.15-.05.28-.16.38-.11.11-.23.16-.38.16h-5.27c-.15,0-.28-.05-.38-.16-.11-.11-.16-.23-.16-.38v-20.21c0-.12-.03-.18-.09-.18s-.12.04-.18.13l-3.51,6.21c-.15.24-.27.36-.36.36s-.21-.12-.36-.36l-3.51-6.21c-.06-.09-.12-.13-.18-.13s-.09.06-.09.18v20.21c0,.15-.05.28-.16.38-.11.11-.23.16-.38.16h-5.27c-.15,0-.28-.05-.38-.16-.11-.11-.16-.23-.16-.38v-30.42c0-.15.05-.28.16-.38.1-.1.23-.16.38-.16h5.18c.3,0,.52.12.67.36l4.01,7.15c.09.12.18.12.27,0l3.87-7.15c.12-.24.34-.36.68-.36Z"/>
      <path class="st1" d="M261.54,95.48c-.11.11-.23.16-.38.16h-9.41c-.15,0-.22.08-.22.22v7.11c0,.15.07.22.22.22h5.4c.15,0,.28.05.38.16.1.11.16.23.16.38v4.37c0,.15-.05.28-.16.38-.11.11-.23.16-.38.16h-5.4c-.15,0-.22.08-.22.22v7.16c0,.15.07.22.22.22h9.41c.15,0,.28.05.38.16.1.11.16.23.16.38v4.37c0,.15-.05.28-.16.38-.11.11-.23.16-.38.16h-15.44c-.15,0-.28-.05-.38-.16-.11-.11-.16-.23-.16-.38v-30.42c0-.15.05-.28.16-.38s.23-.16.38-.16h15.44c.15,0,.28.05.38.16.1.11.16.23.16.38v4.37c0,.15-.05.28-.16.38Z"/>
      <path class="st1" d="M278.66,121.2l-.72-4.32c0-.15-.09-.22-.27-.22h-5.71c-.18,0-.27.08-.27.22l-.72,4.32c-.03.33-.23.5-.58.5h-5.27c-.39,0-.54-.19-.45-.58l6.62-30.42c.06-.33.25-.5.58-.5h6.07c.33,0,.52.17.59.5l6.57,30.42.04.18c0,.27-.17.41-.5.41h-5.4c-.36,0-.56-.16-.58-.5ZM272.76,111.75h4.05c.15,0,.21-.07.18-.22l-2.11-12.29c-.03-.09-.08-.13-.14-.13s-.11.04-.13.13l-2.03,12.29c0,.15.06.22.18.22Z"/>
      <path class="st1" d="M301.14,90.35c.1-.1.23-.16.38-.16h5.22c.15,0,.28.05.38.16.1.11.16.23.16.38v30.42c0,.15-.05.28-.16.38-.11.11-.23.16-.38.16h-5.94c-.3,0-.5-.15-.58-.45l-5.58-17.42c-.03-.09-.08-.13-.16-.11-.08.02-.11.07-.11.16l.04,17.28c0,.15-.05.28-.16.38-.11.11-.23.16-.38.16h-5.22c-.15,0-.28-.05-.38-.16-.11-.11-.16-.23-.16-.38v-30.42c0-.15.05-.28.16-.38s.23-.16.38-.16h5.9c.3,0,.5.15.58.45l5.62,17.42c.03.09.08.13.16.11.07-.01.11-.07.11-.16l-.04-17.28c0-.15.05-.28.16-.38Z"/>
      <path class="st1" d="M311.8,121.54c-.11-.11-.16-.23-.16-.38v-30.42c0-.15.05-.28.16-.38s.23-.16.38-.16h5.27c.15,0,.28.05.38.16.1.11.16.23.16.38v30.42c0,.15-.05.28-.16.38-.11.11-.23.16-.38.16h-5.27c-.15,0-.28-.05-.38-.16Z"/>
      <path class="st1" d="M335.43,90.35c.1-.1.23-.16.38-.16h5.22c.15,0,.28.05.38.16.1.11.16.23.16.38v30.42c0,.15-.05.28-.16.38-.11.11-.23.16-.38.16h-5.94c-.3,0-.5-.15-.58-.45l-5.58-17.42c-.03-.09-.08-.13-.16-.11-.08.02-.11.07-.11.16l.04,17.28c0,.15-.05.28-.16.38-.11.11-.23.16-.38.16h-5.22c-.15,0-.28-.05-.38-.16-.11-.11-.16-.23-.16-.38v-30.42c0-.15.05-.28.16-.38s.23-.16.38-.16h5.9c.3,0,.5.15.58.45l5.62,17.42c.03.09.08.13.16.11.07-.01.11-.07.11-.16l-.04-17.28c0-.15.05-.28.16-.38Z"/>
      <path class="st1" d="M347.94,119.74c-1.64-1.54-2.45-3.61-2.45-6.19v-15.21c0-2.58.82-4.64,2.45-6.19,1.63-1.54,3.8-2.32,6.5-2.32s4.88.78,6.52,2.34,2.48,3.63,2.48,6.21v1.71c0,.15-.05.28-.16.38s-.23.16-.38.16h-5.26c-.15,0-.28-.05-.38-.16-.11-.1-.16-.23-.16-.38v-1.8c0-.9-.24-1.63-.72-2.18-.48-.56-1.12-.83-1.94-.83s-1.41.28-1.89.83c-.48.55-.72,1.28-.72,2.18v15.3c0,.9.24,1.63.72,2.18.48.56,1.11.83,1.89.83s1.46-.28,1.94-.83c.48-.55.72-1.28.72-2.18v-3.6c0-.15-.08-.22-.23-.22h-1.98c-.15,0-.28-.05-.38-.16-.11-.11-.16-.23-.16-.38v-4c0-.15.05-.28.16-.38s.23-.16.38-.16h8.01c.15,0,.28.05.38.16.1.11.16.23.16.38v8.33c0,2.58-.83,4.64-2.48,6.19s-3.82,2.32-6.52,2.32-4.87-.77-6.5-2.32Z"/>
      <path class="st1" d="M383.67,95.48c-.11.11-.23.16-.38.16h-9.36c-.15,0-.22.08-.22.22v7.11c0,.15.07.22.22.22h5.35c.15,0,.28.05.38.16.1.11.16.23.16.38v4.37c0,.15-.05.28-.16.38-.11.11-.23.16-.38.16h-5.35c-.15,0-.22.08-.22.22v12.29c0,.15-.05.28-.16.38-.11.11-.23.16-.38.16h-5.27c-.15,0-.28-.05-.38-.16-.11-.11-.16-.23-.16-.38v-30.42c0-.15.05-.28.16-.38s.23-.16.38-.16h15.39c.15,0,.28.05.38.16.11.11.16.23.16.38v4.37c0,.15-.05.28-.16.38Z"/>
      <path class="st1" d="M389.02,119.51c-1.63-1.69-2.45-3.95-2.45-6.77v-22c0-.15.05-.28.16-.38.11-.1.23-.16.38-.16h5.27c.15,0,.28.05.38.16.1.11.16.23.16.38v22.63c0,.96.24,1.74.72,2.34.48.6,1.11.9,1.89.9s1.4-.3,1.87-.9c.46-.6.7-1.38.7-2.34v-22.63c0-.15.05-.28.16-.38s.23-.16.38-.16h5.27c.15,0,.28.05.38.16.11.11.16.23.16.38v22c0,2.82-.82,5.08-2.45,6.77-1.64,1.7-3.79,2.54-6.46,2.54s-4.87-.85-6.5-2.54Z"/>
      <path class="st1" d="M408.82,121.54c-.11-.11-.16-.23-.16-.38v-30.42c0-.15.05-.28.16-.38.1-.1.23-.16.38-.16h5.27c.15,0,.28.05.38.16.11.11.16.23.16.38v25.29c0,.15.07.22.22.22h9.45c.15,0,.28.05.38.16s.16.23.16.38v4.37c0,.15-.05.28-.16.38s-.23.16-.38.16h-15.48c-.15,0-.28-.05-.38-.16Z"/>
      <path class="st1" d="M439.64,119.65c-1.64-1.6-2.45-3.76-2.45-6.46v-14.58c0-2.67.82-4.8,2.45-6.39,1.63-1.59,3.8-2.39,6.5-2.39s4.91.8,6.55,2.39,2.45,3.72,2.45,6.39v.5c0,.15-.05.28-.16.38s-.23.16-.38.16l-5.27.22c-.36,0-.54-.16-.54-.5v-1.17c0-.87-.24-1.58-.72-2.12-.48-.54-1.12-.81-1.94-.81s-1.41.27-1.89.81c-.48.54-.72,1.25-.72,2.12v15.53c0,.87.24,1.57.72,2.09.48.52,1.11.79,1.89.79s1.46-.26,1.94-.79c.48-.53.72-1.22.72-2.09v-1.21c0-.15.05-.28.16-.38.11-.1.23-.16.38-.16l5.27.22c.15,0,.28.05.38.16.11.11.16.23.16.38v.45c0,2.7-.83,4.85-2.47,6.46-1.65,1.61-3.83,2.41-6.53,2.41s-4.87-.8-6.5-2.41Z"/>
      <path class="st1" d="M460.95,119.62c-1.65-1.62-2.47-3.78-2.47-6.48v-14.4c0-2.7.82-4.86,2.47-6.48s3.86-2.43,6.62-2.43,4.97.81,6.64,2.43c1.66,1.62,2.5,3.78,2.5,6.48v14.4c0,2.7-.83,4.86-2.5,6.48-1.67,1.62-3.88,2.43-6.64,2.43s-4.96-.81-6.62-2.43ZM469.59,115.73c.51-.58.77-1.36.77-2.32v-14.94c0-.96-.26-1.73-.77-2.32s-1.19-.88-2.03-.88-1.51.29-2,.88c-.5.58-.74,1.36-.74,2.32v14.94c0,.96.25,1.73.74,2.32.49.58,1.16.88,2,.88s1.52-.29,2.03-.88Z"/>
      <path class="st1" d="M493.64,90.35c.1-.1.23-.16.38-.16h5.22c.15,0,.28.05.38.16.11.11.16.23.16.38v30.42c0,.15-.05.28-.16.38s-.23.16-.38.16h-5.94c-.3,0-.5-.15-.59-.45l-5.58-17.42c-.03-.09-.08-.13-.16-.11-.08.02-.11.07-.11.16l.04,17.28c0,.15-.05.28-.16.38s-.23.16-.38.16h-5.22c-.15,0-.28-.05-.38-.16s-.16-.23-.16-.38v-30.42c0-.15.05-.28.16-.38.11-.1.23-.16.38-.16h5.89c.3,0,.5.15.59.45l5.62,17.42c.03.09.08.13.16.11.08-.01.11-.07.11-.16l-.04-17.28c0-.15.05-.28.16-.38Z"/>
      <path class="st1" d="M509.64,121.2l-6.44-30.42-.04-.18c0-.27.16-.41.5-.41h5.8c.36,0,.55.17.58.5l3.11,19.8c.03.12.07.18.13.18s.11-.06.13-.18l3.02-19.8c.03-.33.22-.5.58-.5h5.62c.39,0,.54.2.45.58l-6.48,30.42c-.06.33-.26.5-.58.5h-5.81c-.33,0-.53-.16-.58-.5Z"/>
      <path class="st1" d="M542.87,95.48c-.11.11-.23.16-.38.16h-9.4c-.15,0-.22.08-.22.22v7.11c0,.15.07.22.22.22h5.4c.15,0,.28.05.38.16.11.11.16.23.16.38v4.37c0,.15-.05.28-.16.38s-.23.16-.38.16h-5.4c-.15,0-.22.08-.22.22v7.16c0,.15.07.22.22.22h9.4c.15,0,.28.05.38.16s.16.23.16.38v4.37c0,.15-.05.28-.16.38s-.23.16-.38.16h-15.44c-.15,0-.28-.05-.38-.16-.11-.11-.16-.23-.16-.38v-30.42c0-.15.05-.28.16-.38.1-.1.23-.16.38-.16h15.44c.15,0,.28.05.38.16.11.11.16.23.16.38v4.37c0,.15-.05.28-.16.38Z"/>
      <path class="st1" d="M558.42,121.25l-3.46-12.42c-.06-.12-.13-.18-.22-.18h-1.53c-.15,0-.22.08-.22.22v12.29c0,.15-.05.28-.16.38-.11.11-.23.16-.38.16h-5.27c-.15,0-.28-.05-.38-.16s-.16-.23-.16-.38v-30.42c0-.15.05-.28.16-.38.11-.1.23-.16.38-.16h9.09c1.65,0,3.12.4,4.41,1.19,1.29.79,2.29,1.91,2.99,3.35.71,1.44,1.06,3.09,1.06,4.95s-.34,3.33-1.01,4.68c-.67,1.35-1.61,2.4-2.81,3.15-.06.03-.11.07-.13.11s-.03.1,0,.16l4.14,13.28.04.18c0,.3-.17.45-.5.45h-5.4c-.33,0-.54-.15-.63-.45ZM552.97,95.87v7.7c0,.15.07.22.22.22h2.03c.93,0,1.69-.37,2.27-1.1.58-.73.88-1.72.88-2.95s-.29-2.26-.88-2.99c-.59-.74-1.34-1.1-2.27-1.1h-2.03c-.15,0-.22.08-.22.22Z"/>
      <path class="st1" d="M571.87,121.02c-1.32-.69-2.34-1.66-3.06-2.9s-1.08-2.68-1.08-4.3v-1.3c0-.15.05-.28.16-.38.1-.1.23-.16.38-.16h5.18c.15,0,.28.05.38.16.11.11.16.23.16.38v.99c0,.93.24,1.68.72,2.25.48.57,1.08.86,1.8.86s1.32-.27,1.8-.81c.48-.54.72-1.25.72-2.12s-.3-1.67-.9-2.32-1.77-1.6-3.51-2.86c-1.5-1.08-2.71-2.04-3.64-2.88-.93-.84-1.73-1.87-2.38-3.1-.66-1.23-.99-2.66-.99-4.28,0-2.55.79-4.59,2.38-6.12,1.59-1.53,3.69-2.29,6.3-2.29s4.76.8,6.37,2.39c1.6,1.59,2.41,3.67,2.41,6.25v1.08c0,.15-.05.28-.16.38-.11.11-.23.16-.38.16h-5.18c-.15,0-.28-.05-.38-.16-.11-.1-.16-.23-.16-.38v-1.22c0-.93-.23-1.67-.7-2.23-.47-.56-1.07-.83-1.82-.83s-1.31.26-1.76.79c-.45.53-.68,1.25-.68,2.18s.29,1.7.86,2.39,1.7,1.65,3.38,2.88c1.86,1.38,3.26,2.5,4.21,3.35.95.85,1.68,1.8,2.21,2.83s.79,2.27.79,3.71c0,2.64-.81,4.74-2.43,6.3-1.62,1.56-3.75,2.34-6.39,2.34-1.74,0-3.27-.35-4.59-1.04Z"/>
      <path class="st1" d="M601.39,121.2l-.72-4.32c0-.15-.09-.22-.27-.22h-5.71c-.18,0-.27.08-.27.22l-.72,4.32c-.03.33-.22.5-.58.5h-5.27c-.39,0-.54-.19-.45-.58l6.62-30.42c.06-.33.25-.5.58-.5h6.08c.33,0,.52.17.58.5l6.57,30.42.04.18c0,.27-.17.41-.49.41h-5.4c-.36,0-.56-.16-.59-.5ZM595.5,111.75h4.05c.15,0,.21-.07.18-.22l-2.12-12.29c-.03-.09-.08-.13-.13-.13s-.11.04-.13.13l-2.03,12.29c0,.15.06.22.18.22Z"/>
      <path class="st1" d="M626.03,90.35c.11.11.16.23.16.38v4.37c0,.15-.05.28-.16.38-.11.11-.23.16-.38.16h-5.62c-.15,0-.22.08-.22.22v25.29c0,.15-.05.28-.16.38s-.23.16-.38.16h-5.26c-.15,0-.28-.05-.38-.16-.11-.11-.16-.23-.16-.38v-25.29c0-.15-.07-.22-.22-.22h-5.4c-.15,0-.28-.05-.38-.16-.11-.1-.16-.23-.16-.38v-4.37c0-.15.05-.28.16-.38.11-.1.23-.16.38-.16h17.82c.15,0,.28.05.38.16Z"/>
      <path class="st1" d="M629.81,121.54c-.11-.11-.16-.23-.16-.38v-30.42c0-.15.05-.28.16-.38.11-.1.23-.16.38-.16h5.27c.15,0,.28.05.38.16.1.11.16.23.16.38v30.42c0,.15-.05.28-.16.38-.11.11-.23.16-.38.16h-5.27c-.15,0-.28-.05-.38-.16Z"/>
      <path class="st1" d="M642.43,119.62c-1.65-1.62-2.47-3.78-2.47-6.48v-14.4c0-2.7.82-4.86,2.47-6.48,1.65-1.62,3.85-2.43,6.62-2.43s4.97.81,6.64,2.43c1.67,1.62,2.5,3.78,2.5,6.48v14.4c0,2.7-.83,4.86-2.5,6.48-1.66,1.62-3.88,2.43-6.64,2.43s-4.97-.81-6.62-2.43ZM651.07,115.73c.51-.58.77-1.36.77-2.32v-14.94c0-.96-.26-1.73-.77-2.32s-1.18-.88-2.02-.88-1.51.29-2,.88c-.49.58-.74,1.36-.74,2.32v14.94c0,.96.25,1.73.74,2.32.5.58,1.16.88,2,.88s1.51-.29,2.02-.88Z"/>
      <path class="st1" d="M675.12,90.35c.11-.1.23-.16.38-.16h5.22c.15,0,.28.05.38.16.11.11.16.23.16.38v30.42c0,.15-.05.28-.16.38s-.23.16-.38.16h-5.94c-.3,0-.49-.15-.58-.45l-5.58-17.42c-.03-.09-.08-.13-.16-.11-.07.02-.11.07-.11.16l.04,17.28c0,.15-.05.28-.16.38s-.23.16-.38.16h-5.22c-.15,0-.28-.05-.38-.16-.11-.11-.16-.23-.16-.38v-30.42c0-.15.05-.28.16-.38.1-.1.23-.16.38-.16h5.9c.3,0,.49.15.58.45l5.62,17.42c.03.09.08.13.16.11.07-.01.11-.07.11-.16l-.04-17.28c0-.15.05-.28.16-.38Z"/>
      <path class="st1" d="M689.14,121.02c-1.32-.69-2.34-1.66-3.06-2.9s-1.08-2.68-1.08-4.3v-1.3c0-.15.05-.28.16-.38.1-.1.23-.16.38-.16h5.18c.15,0,.28.05.38.16.11.11.16.23.16.38v.99c0,.93.24,1.68.72,2.25.48.57,1.08.86,1.8.86s1.32-.27,1.8-.81c.48-.54.72-1.25.72-2.12s-.3-1.67-.9-2.32-1.77-1.6-3.51-2.86c-1.5-1.08-2.71-2.04-3.64-2.88-.93-.84-1.73-1.87-2.38-3.1-.66-1.23-.99-2.66-.99-4.28,0-2.55.79-4.59,2.38-6.12,1.59-1.53,3.69-2.29,6.3-2.29s4.76.8,6.37,2.39c1.6,1.59,2.41,3.67,2.41,6.25v1.08c0,.15-.05.28-.16.38-.11.11-.23.16-.38.16h-5.18c-.15,0-.28-.05-.38-.16-.11-.1-.16-.23-.16-.38v-1.22c0-.93-.23-1.67-.7-2.23-.47-.56-1.07-.83-1.82-.83s-1.31.26-1.76.79c-.45.53-.68,1.25-.68,2.18s.29,1.7.86,2.39,1.7,1.65,3.38,2.88c1.86,1.38,3.26,2.5,4.21,3.35.95.85,1.68,1.8,2.21,2.83s.79,2.27.79,3.71c0,2.64-.81,4.74-2.43,6.3-1.62,1.56-3.75,2.34-6.39,2.34-1.74,0-3.27-.35-4.59-1.04Z"/>
    </g>
  </g>
  <g>
    <path class="st0" d="M50.68,65.13l-.79-4.6c0-.16-.1-.24-.29-.24l-6.1.03c-.19,0-.29.08-.29.24l-.75,4.61c-.03.35-.24.53-.62.53l-5.62.02c-.42,0-.58-.21-.48-.62l6.92-32.48c.06-.35.27-.53.62-.53l6.48-.03c.35,0,.56.17.63.53l7.15,32.42.05.19c0,.29-.17.43-.53.43l-5.76.02c-.38,0-.59-.17-.63-.53ZM44.35,55.08l4.32-.02c.16,0,.22-.08.19-.24l-2.31-13.09c-.03-.1-.08-.14-.14-.14-.06,0-.11.05-.14.14l-2.1,13.11c0,.16.06.24.19.24Z"/>
    <path class="st0" d="M74.51,32.12c.11-.11.25-.17.41-.17l5.57-.02c.16,0,.3.05.41.17.11.11.17.25.17.41l.14,32.45c0,.16-.05.3-.17.41-.11.11-.25.17-.41.17l-6.34.03c-.32,0-.53-.16-.63-.48l-6.03-18.55c-.03-.1-.09-.14-.17-.12s-.12.07-.12.17l.13,18.43c0,.16-.05.3-.17.41-.11.11-.25.17-.41.17l-5.57.02c-.16,0-.3-.05-.41-.17-.11-.11-.17-.25-.17-.41l-.14-32.45c0-.16.05-.29.17-.41.11-.11.25-.17.41-.17l6.29-.03c.32,0,.53.16.63.48l6.08,18.55c.03.1.09.14.17.12.08-.02.12-.07.12-.17l-.13-18.43c0-.16.05-.29.17-.41Z"/>
    <path class="st0" d="M86.03,65.33c-.11-.11-.17-.25-.17-.41l-.14-32.45c0-.16.05-.29.17-.41.11-.11.25-.17.41-.17l8.69-.04c2.91-.01,5.25.82,7.02,2.51,1.77,1.69,2.66,3.94,2.67,6.76l.06,14.98c.01,2.82-.86,5.08-2.61,6.78-1.75,1.7-4.08,2.56-7,2.57l-8.69.04c-.16,0-.3-.05-.41-.17ZM92.85,59.67l2.16-.06c.86-.04,1.57-.41,2.11-1.11.54-.71.82-1.64.85-2.79l-.06-14.11c0-1.21-.28-2.17-.83-2.88-.55-.7-1.28-1.05-2.21-1.05h-2.11c-.16.01-.24.09-.24.25l.09,21.5c0,.16.08.24.24.24Z"/>
    <path class="st0" d="M121.3,63.17c-1.75-1.7-2.63-4-2.65-6.88l-.07-15.55c-.01-2.85.85-5.12,2.59-6.83,1.74-1.7,4.04-2.56,6.92-2.57,2.91-.01,5.24.83,6.99,2.51,1.75,1.69,2.63,3.96,2.65,6.8v.53c0,.16-.05.3-.16.41-.11.11-.25.17-.41.17l-5.61.26c-.38,0-.58-.17-.58-.53v-1.25c0-.93-.27-1.68-.78-2.25-.51-.57-1.2-.86-2.07-.86-.83,0-1.5.29-2.01.87-.51.58-.76,1.33-.76,2.26l.07,16.56c0,.93.26,1.67.78,2.23.51.56,1.19.83,2.02.83.86,0,1.55-.29,2.06-.85.51-.56.76-1.31.76-2.24v-1.3c0-.16.05-.3.16-.41.11-.11.25-.17.41-.17l5.62.22c.16,0,.3.06.41.17.11.11.17.25.17.41v.48c.01,2.88-.86,5.18-2.61,6.9-1.75,1.72-4.07,2.58-6.95,2.6s-5.2-.83-6.95-2.54Z"/>
    <path class="st0" d="M144.03,63.04c-1.77-1.72-2.66-4.02-2.67-6.9l-.07-15.36c-.01-2.88.86-5.19,2.61-6.92,1.75-1.74,4.1-2.61,7.04-2.62,2.94-.01,5.31.84,7.09,2.56,1.78,1.72,2.68,4.02,2.69,6.9l.07,15.36c.01,2.88-.87,5.19-2.63,6.92-1.77,1.74-4.12,2.61-7.07,2.62-2.94.01-5.3-.84-7.07-2.56ZM153.23,58.85c.54-.63.81-1.45.81-2.48l-.07-15.94c0-1.02-.28-1.85-.83-2.47-.55-.62-1.27-.93-2.16-.93-.9,0-1.61.32-2.13.95-.53.63-.79,1.45-.78,2.48l.07,15.94c0,1.02.27,1.85.8,2.47.53.62,1.24.93,2.14.93.9,0,1.61-.32,2.16-.95Z"/>
    <path class="st0" d="M165.18,64.99c-.11-.11-.17-.25-.17-.41l-.14-32.45c0-.16.05-.29.17-.41.11-.11.25-.17.41-.17l5.62-.02c.16,0,.3.05.41.17.11.11.17.25.17.41l.12,26.98c0,.16.08.24.24.24l10.08-.04c.16,0,.3.05.41.17.11.11.17.25.17.41l.02,4.66c0,.16-.05.3-.17.41-.11.11-.25.17-.41.17l-16.51.07c-.16,0-.3-.05-.41-.17Z"/>
    <path class="st0" d="M186.06,64.9c-.11-.11-.17-.25-.17-.41l-.14-32.45c0-.16.05-.29.17-.41.11-.11.25-.17.41-.17l5.62-.02c.16,0,.3.05.41.17.11.11.17.25.17.41l.12,26.98c0,.16.08.24.24.24l10.08-.04c.16,0,.3.05.41.17.11.11.17.25.17.41l.02,4.66c0,.16-.05.3-.17.41-.11.11-.25.17-.41.17l-16.51.07c-.16,0-.3-.05-.41-.17Z"/>
    <path class="st0" d="M224.1,36.94c-.11.11-.25.17-.41.17l-10.03.04c-.16,0-.24.08-.24.24l.03,7.58c0,.16.08.24.24.24l5.76-.03c.16,0,.3.05.41.17.11.11.17.25.17.41l.02,4.66c0,.16-.05.3-.17.41-.11.11-.25.17-.41.17l-5.76.03c-.16,0-.24.08-.24.24l.03,7.63c0,.16.08.24.24.24l10.03-.04c.16,0,.3.05.41.17.11.11.17.25.17.41l.02,4.66c0,.16-.05.3-.17.41-.11.11-.25.17-.41.17l-16.46.07c-.16,0-.3-.05-.41-.17-.11-.11-.17-.25-.17-.41l-.14-32.45c0-.16.05-.29.17-.41.11-.11.25-.17.41-.17l16.46-.07c.16,0,.3.05.41.17.11.11.17.25.17.41l.02,4.66c0,.16-.06.3-.17.41Z"/>
    <path class="st0" d="M230.36,62.69c-1.75-1.7-2.63-4-2.65-6.88l-.07-15.55c-.01-2.85.85-5.12,2.59-6.83,1.74-1.7,4.04-2.56,6.92-2.57,2.91-.01,5.24.83,7,2.51,1.75,1.69,2.63,3.96,2.65,6.8v.53c0,.16-.05.3-.16.41-.11.11-.25.17-.41.17l-5.62.26c-.38,0-.58-.17-.58-.53v-1.25c0-.93-.27-1.68-.78-2.25-.51-.57-1.2-.86-2.07-.86-.83,0-1.5.29-2.01.87-.51.58-.76,1.33-.76,2.26l.07,16.56c0,.93.26,1.67.78,2.23.51.56,1.19.83,2.02.83.86,0,1.55-.29,2.06-.85.51-.56.76-1.31.76-2.24v-1.3c0-.16.05-.3.16-.41.11-.11.25-.17.41-.17l5.62.22c.16,0,.3.05.41.17.11.11.17.25.17.41v.48c.01,2.88-.86,5.18-2.61,6.9-1.75,1.72-4.07,2.58-6.95,2.6-2.88.01-5.2-.83-6.95-2.54Z"/>
    <path class="st0" d="M269.82,31.27c.11.11.17.25.17.41l.02,4.66c0,.16-.06.3-.17.41-.11.11-.25.17-.41.17l-6,.03c-.16,0-.24.08-.24.24l.12,26.98c0,.16-.05.3-.17.41-.11.11-.25.17-.41.17l-5.62.02c-.16,0-.3-.05-.41-.17-.11-.11-.17-.25-.17-.41l-.12-26.98c0-.16-.08-.24-.24-.24l-5.76.03c-.16,0-.3-.05-.41-.17-.11-.11-.17-.25-.17-.41l-.02-4.66c0-.16.05-.29.17-.41.11-.11.25-.17.41-.17l19.01-.08c.16,0,.3.05.41.17Z"/>
    <path class="st0" d="M273.99,64.52c-.11-.11-.17-.25-.17-.41l-.14-32.45c0-.16.05-.29.17-.41.11-.11.25-.17.41-.17l5.62-.02c.16,0,.3.05.41.17.11.11.17.25.17.41l.14,32.45c0,.16-.05.3-.17.41-.11.11-.25.17-.41.17l-5.62.02c-.16,0-.3-.05-.41-.17Z"/>
    <path class="st0" d="M291.15,64.08l-7-32.42-.05-.19c0-.29.17-.43.53-.43l6.19-.03c.38,0,.59.17.63.52l3.4,21.11c.03.13.08.19.15.19.06,0,.11-.06.14-.19l3.12-21.13c.03-.35.24-.53.62-.53l6-.03c.42,0,.58.21.48.62l-6.77,32.48c-.06.35-.27.53-.62.53l-6.19.03c-.35,0-.56-.17-.63-.53Z"/>
    <path class="st0" d="M326.48,36.5c-.11.11-.25.17-.41.17l-10.03.04c-.16,0-.24.08-.24.24l.03,7.58c0,.16.08.24.24.24l5.76-.03c.16,0,.3.05.41.17.11.11.17.25.17.41l.02,4.66c0,.16-.05.3-.17.41-.11.11-.25.17-.41.17l-5.76.03c-.16,0-.24.08-.24.24l.03,7.63c0,.16.08.24.24.24l10.03-.04c.16,0,.3.05.41.17.11.11.17.25.17.41l.02,4.66c0,.16-.05.3-.17.41-.11.11-.25.17-.41.17l-16.46.07c-.16,0-.3-.05-.41-.17-.11-.11-.17-.25-.17-.41l-.14-32.45c0-.16.05-.29.17-.41.11-.11.25-.17.41-.17l16.46-.07c.16,0,.3.05.41.17.11.11.17.25.17.41l.02,4.66c0,.16-.06.3-.17.41Z"/>
    <path class="st0" d="M346.66,64.15c-.11-.11-.17-.25-.17-.41l-.05-12.48-.05-.29-6.81-19.51c-.03-.06-.05-.14-.05-.24,0-.29.17-.43.53-.43l5.9-.03c.35,0,.58.16.67.48l3.03,11.46c.03.1.08.14.14.14.06,0,.11-.05.14-.15l2.93-11.48c.09-.32.32-.48.67-.48l5.9-.03c.19,0,.34.05.43.17.1.11.11.28.05.5l-6.68,19.57-.05.29.05,12.48c0,.16-.05.3-.17.41-.11.11-.25.17-.41.17l-5.62.02c-.16,0-.3-.05-.41-.17Z"/>
    <path class="st0" d="M380.77,36.26c-.11.11-.25.17-.41.17l-10.03.04c-.16,0-.24.08-.24.24l.03,7.58c0,.16.08.24.24.24l5.76-.03c.16,0,.3.05.41.17s.17.25.17.41l.02,4.66c0,.16-.06.3-.17.41-.11.11-.25.17-.41.17l-5.76.03c-.16,0-.24.08-.24.24l.03,7.63c0,.16.08.24.24.24l10.03-.04c.16,0,.29.05.41.17.11.11.17.25.17.41l.02,4.66c0,.16-.05.3-.17.41-.11.11-.25.17-.41.17l-16.46.07c-.16,0-.3-.05-.41-.17-.11-.11-.17-.25-.17-.41l-.14-32.45c0-.16.05-.29.17-.41.11-.11.25-.17.41-.17l16.46-.07c.16,0,.29.05.41.17.11.11.17.25.17.41l.02,4.66c0,.16-.05.3-.17.41Z"/>
    <path class="st0" d="M399.15,63.61l-.79-4.6c0-.16-.1-.24-.29-.24l-6.1.03c-.19,0-.29.08-.29.24l-.75,4.61c-.03.35-.24.53-.62.53l-5.62.02c-.42,0-.58-.21-.48-.62l6.91-32.48c.06-.35.27-.53.62-.53l6.48-.03c.35,0,.56.17.63.53l7.15,32.42.05.19c0,.29-.17.43-.53.43l-5.76.02c-.38,0-.59-.17-.63-.53ZM392.82,53.56l4.32-.02c.16,0,.22-.08.19-.24l-2.31-13.09c-.03-.1-.08-.14-.15-.14-.06,0-.11.05-.14.14l-2.1,13.11c0,.16.06.24.19.24Z"/>
    <path class="st0" d="M421.81,63.56l-3.75-13.23c-.07-.13-.15-.19-.24-.19h-1.63c-.16,0-.24.09-.24.25l.06,13.1c0,.16-.05.3-.17.41-.11.11-.25.17-.41.17l-5.62.02c-.16,0-.3-.05-.41-.17-.11-.11-.17-.25-.17-.41l-.14-32.45c0-.16.05-.29.17-.41.11-.11.25-.17.41-.17l9.7-.04c1.76,0,3.33.41,4.71,1.25,1.38.84,2.45,2.03,3.21,3.56.76,1.53,1.14,3.29,1.15,5.28,0,1.89-.34,3.55-1.06,5-.71,1.44-1.71,2.57-2.99,3.37-.06.03-.11.07-.14.12s-.03.1,0,.17l4.48,14.14.05.19c0,.32-.17.48-.53.48l-5.76.03c-.35,0-.58-.16-.67-.48ZM415.88,36.51l.04,8.21c0,.16.08.24.24.24h2.16c.99-.01,1.8-.41,2.42-1.2.62-.79.93-1.83.92-3.15,0-1.34-.32-2.41-.95-3.19-.63-.78-1.44-1.17-2.43-1.17h-2.16c-.16.01-.24.09-.24.25Z"/>
    <path class="st0" d="M436.16,63.26c-1.41-.73-2.5-1.76-3.28-3.08-.77-1.32-1.16-2.85-1.17-4.58v-1.39c0-.16.05-.3.16-.41.11-.11.25-.17.41-.17l5.52-.02c.16,0,.29.05.41.17.11.11.17.25.17.41v1.06c0,.99.27,1.79.78,2.4.51.61,1.16.91,1.92.9.77,0,1.41-.29,1.92-.87.51-.58.76-1.33.76-2.26,0-.96-.33-1.78-.97-2.47-.64-.69-1.9-1.7-3.76-3.03-1.61-1.14-2.91-2.16-3.9-3.05-1-.89-1.85-1.99-2.56-3.3-.71-1.31-1.07-2.83-1.08-4.56-.01-2.72.83-4.9,2.52-6.54s3.93-2.47,6.71-2.48c2.82-.01,5.08.83,6.8,2.51,1.72,1.69,2.58,3.91,2.6,6.66v1.15c0,.16-.05.3-.16.41-.11.11-.25.17-.41.17l-5.52.02c-.16,0-.3-.05-.41-.17-.11-.11-.17-.25-.17-.41v-1.3c0-.99-.26-1.78-.76-2.37-.5-.59-1.15-.88-1.95-.88-.77,0-1.39.29-1.87.85-.48.56-.71,1.34-.71,2.33,0,.96.31,1.81.92,2.54.61.73,1.81,1.75,3.61,3.06,1.99,1.46,3.49,2.65,4.5,3.56,1.01.91,1.8,1.91,2.37,3.01.56,1.1.85,2.42.86,3.96.01,2.82-.84,5.06-2.56,6.73-1.72,1.67-3.99,2.51-6.81,2.53-1.86,0-3.49-.35-4.9-1.08Z"/>
    <path class="st0" d="M466.34,61.64c-1.77-1.72-2.66-4.02-2.67-6.9l-.07-15.36c-.01-2.88.86-5.19,2.61-6.92,1.75-1.74,4.1-2.61,7.04-2.62,2.94-.01,5.31.84,7.09,2.56,1.78,1.72,2.68,4.02,2.69,6.9l.07,15.36c.01,2.88-.87,5.19-2.63,6.92-1.77,1.74-4.13,2.61-7.07,2.62-2.94.01-5.3-.84-7.07-2.56ZM475.54,57.45c.54-.63.81-1.45.8-2.47l-.07-15.94c0-1.02-.28-1.85-.83-2.47-.55-.62-1.27-.93-2.16-.93-.9,0-1.61.32-2.13.94-.53.63-.79,1.45-.78,2.48l.07,15.94c0,1.02.27,1.85.8,2.47.53.62,1.24.93,2.14.93.9,0,1.61-.32,2.16-.95Z"/>
    <path class="st0" d="M504.6,35.72c-.11.11-.25.17-.41.17l-9.98.04c-.16,0-.24.08-.24.24l.03,7.58c0,.16.08.24.24.24l5.71-.03c.16,0,.3.05.41.17.11.11.17.25.17.41l.02,4.66c0,.16-.06.3-.17.41-.11.11-.25.17-.41.17l-5.71.03c-.16,0-.24.08-.24.24l.06,13.1c0,.16-.05.3-.17.41-.11.11-.25.17-.41.17l-5.62.02c-.16,0-.3-.05-.41-.17-.11-.11-.17-.25-.17-.41l-.14-32.45c0-.16.05-.29.17-.41.11-.11.25-.17.41-.17l16.42-.07c.16,0,.3.05.41.17.11.11.17.25.17.41l.02,4.66c0,.16-.05.3-.17.41Z"/>
    <path class="st0" d="M535.32,35.59c-.11.11-.25.17-.41.17l-10.03.04c-.16,0-.24.08-.24.24l.03,7.58c0,.16.08.24.24.24l5.76-.03c.16,0,.3.05.41.17.11.11.17.25.17.41l.02,4.66c0,.16-.06.3-.17.41-.11.11-.25.17-.41.17l-5.76.03c-.16,0-.24.08-.24.24l.03,7.63c0,.16.08.24.24.24l10.03-.04c.16,0,.29.05.41.17.11.11.17.25.17.41l.02,4.66c0,.16-.05.3-.17.41-.11.11-.25.17-.41.17l-16.46.07c-.16,0-.3-.05-.41-.17-.11-.11-.17-.25-.17-.41l-.14-32.45c0-.16.05-.29.17-.41.11-.11.25-.17.41-.17l16.46-.07c.16,0,.29.05.41.17.11.11.17.25.17.41l.02,4.66c0,.16-.05.3-.17.41Z"/>
    <path class="st0" d="M538.59,63.34c-.07-.13-.07-.29,0-.48l6.46-16.01c.03-.1.03-.19,0-.29l-6.6-15.96c-.03-.06-.05-.16-.05-.29,0-.26.16-.38.48-.39l5.76-.02c.32,0,.53.16.63.48l3.26,9.2c.03.1.08.14.14.14s.11-.05.14-.15l3.18-9.23c.09-.32.3-.48.62-.48l5.71-.02c.22,0,.37.06.43.19.06.13.07.29,0,.48l-6.46,16.01c-.03.1-.03.19,0,.29l6.6,15.96c.03.06.05.16.05.29,0,.26-.16.38-.48.39l-5.71.02c-.32,0-.53-.16-.63-.48l-3.26-9.15c-.03-.1-.08-.14-.15-.14s-.11.05-.14.14l-3.22,9.18c-.09.32-.3.48-.62.48l-5.71.02c-.22,0-.37-.06-.43-.19Z"/>
    <path class="st0" d="M577.47,31.01c1.38.86,2.45,2.06,3.21,3.61.76,1.55,1.14,3.31,1.15,5.3.01,2.98-.78,5.36-2.37,7.16-1.59,1.8-3.68,2.7-6.28,2.72l-3.6.02c-.16,0-.24.08-.24.24l.06,12.77c0,.16-.05.3-.17.41s-.25.17-.41.17l-5.62.02c-.16,0-.3-.05-.41-.17-.11-.11-.17-.25-.17-.41l-.14-32.5c0-.16.05-.29.17-.41.11-.11.25-.17.41-.17l9.7-.04c1.76,0,3.33.42,4.71,1.28ZM574.14,43.34c.62-.79.93-1.87.92-3.24,0-1.41-.32-2.51-.95-3.31-.63-.8-1.45-1.19-2.48-1.19h-2.11c-.16.01-.24.09-.24.25l.04,8.45c0,.16.08.24.24.24h2.11c1.02-.01,1.85-.41,2.47-1.2Z"/>
    <path class="st0" d="M602.76,35.29c-.11.11-.25.17-.41.17l-10.03.04c-.16,0-.24.08-.24.24l.03,7.58c0,.16.08.24.24.24l5.76-.03c.16,0,.3.05.41.17.11.11.17.25.17.41l.02,4.66c0,.16-.06.3-.17.41-.11.11-.25.17-.41.17l-5.76.03c-.16,0-.24.08-.24.24l.03,7.63c0,.16.08.24.24.24l10.03-.04c.16,0,.29.05.41.17.11.11.17.25.17.41l.02,4.66c0,.16-.05.3-.17.41-.11.11-.25.17-.41.17l-16.46.07c-.16,0-.3-.05-.41-.17s-.17-.25-.17-.41l-.14-32.45c0-.16.05-.29.17-.41.11-.11.25-.17.41-.17l16.46-.07c.16,0,.29.05.41.17.11.11.17.25.17.41l.02,4.66c0,.16-.05.3-.17.41Z"/>
    <path class="st0" d="M619.46,62.7l-3.75-13.23c-.07-.13-.15-.19-.24-.19h-1.63c-.16,0-.24.09-.24.25l.06,13.1c0,.16-.05.3-.17.41-.11.11-.25.17-.41.17l-5.62.02c-.16,0-.3-.05-.41-.17s-.17-.25-.17-.41l-.14-32.45c0-.16.05-.3.17-.41.11-.11.25-.17.41-.17l9.7-.04c1.76,0,3.33.41,4.71,1.25,1.38.84,2.45,2.03,3.21,3.56.76,1.53,1.14,3.29,1.15,5.28,0,1.89-.34,3.55-1.06,5-.71,1.44-1.71,2.57-2.99,3.37-.06.03-.11.07-.14.12-.03.05-.03.11,0,.17l4.48,14.14.05.19c0,.32-.17.48-.53.48l-5.76.03c-.35,0-.58-.16-.67-.48ZM613.54,35.65l.04,8.21c0,.16.08.24.24.24h2.16c.99-.01,1.8-.41,2.42-1.2.62-.79.93-1.83.92-3.15,0-1.34-.32-2.41-.95-3.19-.63-.78-1.44-1.17-2.43-1.17h-2.16c-.16,0-.24.09-.24.25Z"/>
    <path class="st0" d="M630.1,62.97c-.11-.11-.17-.25-.17-.41l-.14-32.45c0-.16.05-.29.17-.41.11-.11.25-.17.41-.17l5.62-.02c.16,0,.3.05.41.17.11.11.17.25.17.41l.14,32.45c0,.16-.05.3-.17.41-.11.11-.25.17-.41.17l-5.62.02c-.16,0-.3-.05-.41-.17Z"/>
    <path class="st0" d="M658.73,35.05c-.11.11-.25.17-.41.17l-10.03.04c-.16,0-.24.08-.24.24l.03,7.58c0,.16.08.24.24.24l5.76-.03c.16,0,.3.05.41.17.11.11.17.25.17.41l.02,4.66c0,.16-.06.3-.17.41-.11.11-.25.17-.41.17l-5.76.03c-.16,0-.24.08-.24.24l.03,7.63c0,.16.08.24.24.24l10.03-.04c.16,0,.29.05.41.17.11.11.17.25.17.41l.02,4.66c0,.16-.05.3-.17.41-.11.11-.25.17-.41.17l-16.46.07c-.16,0-.3-.05-.41-.17-.11-.11-.17-.25-.17-.41l-.14-32.45c0-.16.05-.29.17-.41.11-.11.25-.17.41-.17l16.46-.07c.16,0,.29.05.41.17.11.11.17.25.17.41l.02,4.66c0,.16-.05.3-.17.41Z"/>
    <path class="st0" d="M676.61,29.5c.11-.11.25-.17.41-.17l5.57-.02c.16,0,.29.05.41.17.11.11.17.25.17.41l.14,32.45c0,.16-.05.3-.17.41-.11.11-.25.17-.41.17l-6.34.03c-.32,0-.53-.16-.63-.48l-6.03-18.55c-.03-.1-.09-.14-.17-.12-.08.02-.12.07-.12.17l.13,18.43c0,.16-.05.3-.17.41s-.25.17-.41.17l-5.57.02c-.16,0-.3-.05-.41-.17-.11-.11-.17-.25-.17-.41l-.14-32.45c0-.16.05-.29.17-.41.11-.11.25-.17.41-.17l6.29-.03c.32,0,.53.16.63.48l6.08,18.55c.03.1.09.14.17.12.08-.02.12-.07.12-.17l-.13-18.43c0-.16.05-.29.17-.41Z"/>
    <path class="st0" d="M690.09,60.69c-1.75-1.71-2.63-4-2.65-6.88l-.07-15.55c-.01-2.85.85-5.12,2.59-6.83,1.74-1.7,4.04-2.56,6.92-2.57,2.91-.01,5.24.83,7,2.51,1.75,1.69,2.63,3.96,2.65,6.8v.53c0,.16-.05.3-.16.41-.11.11-.25.17-.41.17l-5.62.26c-.38,0-.58-.17-.58-.53v-1.25c0-.93-.27-1.68-.78-2.25-.52-.57-1.2-.86-2.07-.86-.83,0-1.5.29-2.01.87-.51.58-.76,1.33-.76,2.26l.07,16.56c0,.93.26,1.67.78,2.23.51.56,1.19.83,2.02.83.86,0,1.55-.29,2.06-.85.51-.56.76-1.31.76-2.24v-1.3c0-.16.05-.3.16-.41.11-.11.25-.17.41-.17l5.62.21c.16,0,.3.06.41.17s.17.25.17.41v.48c.01,2.88-.86,5.18-2.61,6.9s-4.07,2.58-6.95,2.6c-2.88.01-5.19-.83-6.95-2.54Z"/>
    <path class="st0" d="M727.99,34.75c-.11.11-.25.17-.41.17l-10.03.04c-.16,0-.24.08-.24.24l.03,7.58c0,.16.08.24.24.24l5.76-.03c.16,0,.3.05.41.17.11.11.17.25.17.41l.02,4.66c0,.16-.06.3-.17.41-.11.11-.25.17-.41.17l-5.76.03c-.16,0-.24.08-.24.24l.03,7.63c0,.16.08.24.24.24l10.03-.04c.16,0,.29.05.41.17.11.11.17.25.17.41l.02,4.66c0,.16-.05.3-.17.41-.11.11-.25.17-.41.17l-16.46.07c-.16,0-.3-.05-.41-.17-.11-.11-.17-.25-.17-.41l-.14-32.45c0-.16.05-.29.17-.41.11-.11.25-.17.41-.17l16.46-.07c.16,0,.29.05.41.17.11.11.17.25.17.41l.02,4.66c0,.16-.05.3-.17.41Z"/>
  </g>
</svg>