<?xml version="1.0" encoding="UTF-8"?>
<svg id="Layer_1" xmlns="http://www.w3.org/2000/svg" version="1.1" viewBox="0 0 764 187">
  <!-- Generator: Adobe Illustrator 29.6.1, SVG Export Plug-In . SVG Version: 2.1.1 Build 9)  -->
  <defs>
    <style>
      .st0 {
        fill: none;
        stroke: #fff;
        stroke-miterlimit: 10;
      }

      .st1 {
        fill: #fff;
      }

      .st2 {
        fill: #00e1ff;
      }
    </style>
  </defs>
  <g>
    <g>
      <path class="st2" d="M153.63,160.1l-.65-3.92c0-.14-.08-.21-.25-.21h-5.19c-.16,0-.25.07-.25.21l-.65,3.92c-.03.3-.2.45-.53.45h-4.78c-.35,0-.49-.18-.41-.53l6.01-27.62c.05-.3.23-.45.53-.45h5.52c.3,0,.48.15.53.45l5.96,27.62.04.16c0,.25-.15.37-.45.37h-4.9c-.33,0-.5-.15-.53-.45ZM148.28,151.52h3.68c.14,0,.19-.07.16-.2l-1.92-11.15c-.03-.08-.07-.12-.12-.12s-.1.04-.12.12l-1.84,11.15c0,.14.05.2.16.2Z"/>
      <path class="st2" d="M174.04,132.1c.1-.09.21-.14.35-.14h4.74c.14,0,.25.05.35.14.1.1.14.21.14.35v27.62c0,.14-.05.25-.14.35-.1.1-.21.14-.35.14h-5.39c-.27,0-.45-.14-.53-.41l-5.07-15.81c-.03-.08-.08-.12-.14-.1-.07.01-.1.06-.1.14l.04,15.69c0,.14-.05.25-.14.35-.1.1-.21.14-.35.14h-4.74c-.14,0-.25-.05-.35-.14-.1-.1-.14-.21-.14-.35v-27.62c0-.14.05-.25.14-.35.1-.09.21-.14.35-.14h5.35c.27,0,.45.14.53.41l5.11,15.81c.03.08.07.12.14.1.07-.01.1-.06.1-.14l-.04-15.69c0-.14.05-.25.14-.35Z"/>
      <path class="st2" d="M183.72,160.41c-.1-.1-.14-.21-.14-.35v-27.62c0-.14.05-.25.14-.35.1-.09.21-.14.35-.14h7.39c2.48,0,4.47.72,5.97,2.17,1.5,1.44,2.25,3.36,2.25,5.76v12.75c0,2.4-.75,4.32-2.25,5.76-1.5,1.44-3.49,2.17-5.97,2.17h-7.39c-.14,0-.25-.05-.35-.14ZM189.54,155.61l1.84-.04c.74-.03,1.33-.34,1.8-.94.46-.6.71-1.39.74-2.37v-12.01c0-1.03-.23-1.85-.69-2.45-.46-.6-1.09-.9-1.88-.9h-1.8c-.14,0-.2.07-.2.2v18.3c0,.14.07.2.2.2Z"/>
      <path class="st2" d="M228.13,132.1c.1.1.14.21.14.35v3.96c0,.14-.05.25-.14.35-.1.1-.21.14-.35.14h-5.11c-.14,0-.2.07-.2.2v22.96c0,.14-.05.25-.14.35-.1.1-.21.14-.35.14h-4.78c-.14,0-.25-.05-.35-.14-.1-.1-.14-.21-.14-.35v-22.96c0-.14-.07-.2-.2-.2h-4.9c-.14,0-.25-.05-.35-.14-.1-.09-.14-.21-.14-.35v-3.96c0-.14.05-.25.14-.35.1-.09.21-.14.35-.14h16.18c.14,0,.25.05.35.14Z"/>
      <path class="st2" d="M241.82,132.1c.1-.09.21-.14.35-.14h4.78c.14,0,.25.05.35.14.1.1.14.21.14.35v27.62c0,.14-.05.25-.14.35-.1.1-.21.14-.35.14h-4.78c-.14,0-.25-.05-.35-.14-.1-.1-.14-.21-.14-.35v-11.15c0-.14-.07-.21-.2-.21h-4.09c-.14,0-.2.07-.2.21v11.15c0,.14-.05.25-.14.35-.1.1-.21.14-.35.14h-4.78c-.14,0-.25-.05-.35-.14-.1-.1-.14-.21-.14-.35v-27.62c0-.14.05-.25.14-.35.1-.09.21-.14.35-.14h4.78c.14,0,.25.05.35.14.09.1.14.21.14.35v11.11c0,.14.07.2.2.2h4.09c.14,0,.2-.07.2-.2v-11.11c0-.14.05-.25.14-.35Z"/>
      <path class="st2" d="M262.88,160.1l-.65-3.92c0-.14-.08-.21-.25-.21h-5.19c-.16,0-.25.07-.25.21l-.65,3.92c-.03.3-.2.45-.53.45h-4.78c-.35,0-.49-.18-.41-.53l6.01-27.62c.05-.3.23-.45.53-.45h5.52c.3,0,.48.15.53.45l5.96,27.62.04.16c0,.25-.15.37-.45.37h-4.9c-.33,0-.5-.15-.53-.45ZM257.53,151.52h3.68c.14,0,.19-.07.16-.2l-1.92-11.15c-.03-.08-.07-.12-.12-.12s-.1.04-.12.12l-1.84,11.15c0,.14.05.2.16.2Z"/>
      <path class="st2" d="M285.25,132.1c.1.1.14.21.14.35v3.96c0,.14-.05.25-.14.35-.1.1-.21.14-.35.14h-5.11c-.14,0-.2.07-.2.2v22.96c0,.14-.05.25-.14.35-.1.1-.21.14-.35.14h-4.78c-.14,0-.25-.05-.35-.14-.1-.1-.14-.21-.14-.35v-22.96c0-.14-.07-.2-.2-.2h-4.9c-.14,0-.25-.05-.35-.14-.1-.09-.14-.21-.14-.35v-3.96c0-.14.05-.25.14-.35.1-.09.21-.14.35-.14h16.18c.14,0,.25.05.35.14Z"/>
      <path class="st2" d="M297.22,160.41c-.1-.1-.14-.21-.14-.35v-27.62c0-.14.05-.25.14-.35.1-.09.21-.14.35-.14h4.78c.14,0,.25.05.35.14.09.1.14.21.14.35v27.62c0,.14-.05.25-.14.35-.1.1-.21.14-.35.14h-4.78c-.14,0-.25-.05-.35-.14Z"/>
      <path class="st2" d="M310.03,159.94c-1.2-.63-2.12-1.5-2.78-2.63-.65-1.13-.98-2.43-.98-3.9v-1.19c0-.14.05-.25.14-.35.1-.1.21-.14.35-.14h4.7c.14,0,.25.05.35.14.1.1.14.21.14.35v.9c0,.84.22,1.53.65,2.04.44.52.98.78,1.63.78s1.2-.25,1.63-.74c.44-.49.65-1.13.65-1.92s-.27-1.52-.82-2.1c-.55-.59-1.61-1.45-3.19-2.59-1.36-.98-2.47-1.85-3.31-2.62-.84-.76-1.57-1.7-2.17-2.82-.6-1.12-.9-2.41-.9-3.88,0-2.31.72-4.17,2.17-5.56,1.44-1.39,3.35-2.08,5.72-2.08s4.32.72,5.78,2.17c1.46,1.44,2.19,3.34,2.19,5.68v.98c0,.14-.05.25-.14.35-.1.1-.21.14-.35.14h-4.7c-.14,0-.25-.05-.35-.14-.1-.09-.14-.21-.14-.35v-1.1c0-.84-.21-1.52-.63-2.02-.42-.5-.97-.76-1.65-.76s-1.19.24-1.59.71c-.41.48-.61,1.14-.61,1.98s.26,1.54.78,2.17c.52.63,1.54,1.5,3.06,2.61,1.69,1.25,2.96,2.27,3.82,3.04s1.53,1.63,2,2.57c.48.94.71,2.06.71,3.37,0,2.4-.74,4.3-2.21,5.72-1.47,1.42-3.4,2.12-5.8,2.12-1.58,0-2.97-.31-4.17-.94Z"/>
      <path class="st2" d="M344.59,160.14l-3.15-11.28c-.05-.11-.12-.16-.2-.16h-1.39c-.14,0-.2.07-.2.21v11.15c0,.14-.05.25-.14.35-.1.1-.21.14-.35.14h-4.78c-.14,0-.25-.05-.35-.14-.1-.1-.14-.21-.14-.35v-27.62c0-.14.05-.25.14-.35.1-.09.21-.14.35-.14h8.25c1.5,0,2.83.36,4,1.08,1.17.72,2.08,1.74,2.72,3.04.64,1.31.96,2.81.96,4.49s-.31,3.02-.92,4.25-1.46,2.18-2.55,2.86c-.06.03-.1.06-.12.1-.03.04-.03.09,0,.14l3.76,12.05.04.16c0,.27-.15.41-.45.41h-4.9c-.3,0-.49-.14-.57-.41ZM339.65,137.1v6.99c0,.14.07.2.2.2h1.84c.84,0,1.53-.33,2.06-1,.53-.67.8-1.56.8-2.68s-.27-2.05-.8-2.72c-.53-.67-1.22-1-2.06-1h-1.84c-.14,0-.2.07-.2.2Z"/>
      <path class="st2" d="M368.35,136.75c-.1.1-.21.14-.35.14h-8.54c-.14,0-.2.07-.2.2v6.46c0,.14.07.2.2.2h4.9c.14,0,.25.05.35.14.1.1.14.21.14.35v3.96c0,.14-.05.25-.14.35-.1.1-.21.14-.35.14h-4.9c-.14,0-.2.07-.2.21v6.5c0,.14.07.2.2.2h8.54c.14,0,.25.05.35.14.09.1.14.21.14.35v3.96c0,.14-.05.25-.14.35-.1.1-.21.14-.35.14h-14.01c-.14,0-.25-.05-.35-.14-.1-.1-.14-.21-.14-.35v-27.62c0-.14.05-.25.14-.35.1-.09.21-.14.35-.14h14.01c.14,0,.25.05.35.14.09.1.14.21.14.35v3.96c0,.14-.05.25-.14.35Z"/>
      <path class="st2" d="M386.57,136.75c-.1.1-.21.14-.35.14h-8.5c-.14,0-.2.07-.2.2v6.46c0,.14.07.2.2.2h4.86c.14,0,.25.05.35.14.1.1.14.21.14.35v3.96c0,.14-.05.25-.14.35-.1.1-.21.14-.35.14h-4.86c-.14,0-.2.07-.2.21v11.15c0,.14-.05.25-.14.35-.1.1-.21.14-.35.14h-4.78c-.14,0-.25-.05-.35-.14-.1-.1-.14-.21-.14-.35v-27.62c0-.14.05-.25.14-.35.1-.09.21-.14.35-.14h13.97c.14,0,.25.05.35.14.1.1.14.21.14.35v3.96c0,.14-.05.25-.14.35Z"/>
      <path class="st2" d="M389.47,160.41c-.1-.1-.14-.21-.14-.35v-27.62c0-.14.05-.25.14-.35.1-.09.21-.14.35-.14h4.78c.14,0,.25.05.35.14.1.1.14.21.14.35v22.96c0,.14.07.2.21.2h8.58c.14,0,.25.05.35.14.09.1.14.21.14.35v3.96c0,.14-.05.25-.14.35-.1.1-.21.14-.35.14h-14.05c-.14,0-.25-.05-.35-.14Z"/>
      <path class="st2" d="M421.95,136.75c-.1.1-.21.14-.35.14h-8.54c-.14,0-.2.07-.2.2v6.46c0,.14.07.2.2.2h4.9c.14,0,.25.05.35.14s.14.21.14.35v3.96c0,.14-.05.25-.14.35-.1.1-.21.14-.35.14h-4.9c-.14,0-.2.07-.2.21v6.5c0,.14.07.2.2.2h8.54c.14,0,.25.05.35.14.09.1.14.21.14.35v3.96c0,.14-.05.25-.14.35-.1.1-.21.14-.35.14h-14.01c-.14,0-.25-.05-.35-.14s-.14-.21-.14-.35v-27.62c0-.14.05-.25.14-.35.1-.09.21-.14.35-.14h14.01c.14,0,.25.05.35.14.09.1.14.21.14.35v3.96c0,.14-.05.25-.14.35Z"/>
      <path class="st2" d="M427.18,158.69c-1.48-1.46-2.23-3.41-2.23-5.86v-13.24c0-2.42.74-4.36,2.23-5.8,1.48-1.44,3.45-2.17,5.9-2.17s4.46.72,5.94,2.17c1.48,1.44,2.23,3.38,2.23,5.8v.45c0,.14-.05.25-.14.35s-.21.14-.35.14l-4.78.2c-.33,0-.49-.15-.49-.45v-1.06c0-.79-.22-1.43-.65-1.92-.44-.49-1.02-.74-1.76-.74s-1.28.25-1.72.74-.65,1.13-.65,1.92v14.1c0,.79.22,1.42.65,1.9.44.48,1.01.71,1.72.71s1.32-.24,1.76-.71c.43-.48.65-1.11.65-1.9v-1.1c0-.14.05-.25.14-.35s.21-.14.35-.14l4.78.21c.14,0,.25.05.35.14.1.1.14.21.14.35v.41c0,2.45-.75,4.41-2.25,5.86-1.5,1.46-3.47,2.19-5.92,2.19s-4.42-.73-5.9-2.19Z"/>
      <path class="st2" d="M460.88,132.1c.09.1.14.21.14.35v3.96c0,.14-.05.25-.14.35-.1.1-.21.14-.35.14h-5.11c-.14,0-.2.07-.2.2v22.96c0,.14-.05.25-.14.35s-.21.14-.35.14h-4.78c-.14,0-.25-.05-.35-.14s-.14-.21-.14-.35v-22.96c0-.14-.07-.2-.21-.2h-4.9c-.14,0-.25-.05-.35-.14-.1-.09-.14-.21-.14-.35v-3.96c0-.14.05-.25.14-.35.1-.09.21-.14.35-.14h16.18c.14,0,.25.05.35.14Z"/>
      <path class="st2" d="M464.31,160.41c-.1-.1-.14-.21-.14-.35v-27.62c0-.14.05-.25.14-.35.1-.09.21-.14.35-.14h4.78c.13,0,.25.05.35.14.1.1.14.21.14.35v27.62c0,.14-.05.25-.14.35s-.21.14-.35.14h-4.78c-.14,0-.25-.05-.35-.14Z"/>
      <path class="st2" d="M478.92,160.1l-5.84-27.62-.04-.16c0-.25.15-.37.45-.37h5.27c.33,0,.5.15.53.45l2.82,17.98c.03.11.07.16.12.16s.1-.05.12-.16l2.74-17.98c.03-.3.21-.45.53-.45h5.11c.35,0,.49.18.41.53l-5.88,27.62c-.05.3-.23.45-.53.45h-5.27c-.3,0-.48-.15-.53-.45Z"/>
      <path class="st2" d="M509.09,136.75c-.1.1-.21.14-.35.14h-8.54c-.14,0-.21.07-.21.2v6.46c0,.14.07.2.21.2h4.9c.13,0,.25.05.35.14.09.1.14.21.14.35v3.96c0,.14-.05.25-.14.35-.1.1-.21.14-.35.14h-4.9c-.14,0-.21.07-.21.21v6.5c0,.14.07.2.21.2h8.54c.13,0,.25.05.35.14.1.1.14.21.14.35v3.96c0,.14-.05.25-.14.35s-.21.14-.35.14h-14.01c-.14,0-.25-.05-.35-.14s-.14-.21-.14-.35v-27.62c0-.14.05-.25.14-.35.1-.09.21-.14.35-.14h14.01c.13,0,.25.05.35.14.1.1.14.21.14.35v3.96c0,.14-.05.25-.14.35Z"/>
      <path class="st2" d="M522.88,158.67c-1.5-1.47-2.25-3.43-2.25-5.88v-13.07c0-2.45.75-4.41,2.25-5.88s3.5-2.21,6.01-2.21,4.51.74,6.03,2.21,2.27,3.43,2.27,5.88v13.07c0,2.45-.76,4.41-2.27,5.88-1.51,1.47-3.52,2.21-6.03,2.21s-4.51-.74-6.01-2.21ZM530.72,155.14c.46-.53.7-1.23.7-2.1v-13.56c0-.87-.23-1.57-.7-2.1s-1.08-.8-1.84-.8-1.37.27-1.82.8-.67,1.23-.67,2.1v13.56c0,.87.22,1.57.67,2.1s1.05.8,1.82.8,1.38-.26,1.84-.8Z"/>
      <path class="st2" d="M555.54,136.75c-.1.1-.21.14-.35.14h-8.5c-.14,0-.2.07-.2.2v6.46c0,.14.07.2.2.2h4.86c.14,0,.25.05.35.14s.14.21.14.35v3.96c0,.14-.05.25-.14.35-.1.1-.21.14-.35.14h-4.86c-.14,0-.2.07-.2.21v11.15c0,.14-.05.25-.14.35s-.21.14-.35.14h-4.78c-.14,0-.25-.05-.35-.14s-.14-.21-.14-.35v-27.62c0-.14.05-.25.14-.35.1-.09.21-.14.35-.14h13.97c.14,0,.25.05.35.14.1.1.14.21.14.35v3.96c0,.14-.05.25-.14.35Z"/>
      <path class="st2" d="M568.68,158.67c-1.5-1.47-2.25-3.43-2.25-5.88v-13.07c0-2.45.75-4.41,2.25-5.88s3.5-2.21,6.01-2.21,4.51.74,6.03,2.21,2.27,3.43,2.27,5.88v13.07c0,2.45-.76,4.41-2.27,5.88-1.51,1.47-3.52,2.21-6.03,2.21s-4.51-.74-6.01-2.21ZM576.52,155.14c.46-.53.7-1.23.7-2.1v-13.56c0-.87-.23-1.57-.7-2.1s-1.08-.8-1.84-.8-1.37.27-1.82.8-.67,1.23-.67,2.1v13.56c0,.87.22,1.57.67,2.1s1.05.8,1.82.8,1.38-.26,1.84-.8Z"/>
      <path class="st2" d="M588.64,158.57c-1.48-1.54-2.23-3.59-2.23-6.15v-19.98c0-.14.05-.25.14-.35.1-.09.21-.14.35-.14h4.78c.14,0,.25.05.35.14.1.1.14.21.14.35v20.55c0,.87.22,1.58.65,2.12s1.01.82,1.72.82,1.27-.27,1.7-.82c.42-.54.63-1.25.63-2.12v-20.55c0-.14.05-.25.14-.35.1-.09.21-.14.35-.14h4.78c.14,0,.25.05.35.14.1.1.14.21.14.35v19.98c0,2.56-.74,4.61-2.23,6.15-1.48,1.54-3.44,2.31-5.86,2.31s-4.42-.77-5.9-2.31Z"/>
      <path class="st2" d="M617.17,160.14l-3.14-11.28c-.06-.11-.12-.16-.21-.16h-1.39c-.14,0-.21.07-.21.21v11.15c0,.14-.05.25-.14.35s-.21.14-.35.14h-4.78c-.14,0-.25-.05-.35-.14s-.14-.21-.14-.35v-27.62c0-.14.05-.25.14-.35.1-.09.21-.14.35-.14h8.25c1.5,0,2.83.36,4,1.08,1.17.72,2.08,1.74,2.72,3.04s.96,2.81.96,4.49-.31,3.02-.92,4.25-1.46,2.18-2.55,2.86c-.05.03-.1.06-.12.1s-.03.09,0,.14l3.76,12.05.04.16c0,.27-.15.41-.45.41h-4.9c-.3,0-.49-.14-.57-.41ZM612.23,137.1v6.99c0,.14.07.2.21.2h1.84c.84,0,1.53-.33,2.06-1,.53-.67.8-1.56.8-2.68s-.27-2.05-.8-2.72c-.53-.67-1.22-1-2.06-1h-1.84c-.14,0-.21.07-.21.2Z"/>
    </g>
    <g>
      <path class="st1" d="M153.63,160.1l-.65-3.92c0-.14-.08-.21-.25-.21h-5.19c-.16,0-.25.07-.25.21l-.65,3.92c-.03.3-.2.45-.53.45h-4.78c-.35,0-.49-.18-.41-.53l6.01-27.62c.05-.3.23-.45.53-.45h5.52c.3,0,.48.15.53.45l5.96,27.62.04.16c0,.25-.15.37-.45.37h-4.9c-.33,0-.5-.15-.53-.45ZM148.28,151.52h3.68c.14,0,.19-.07.16-.2l-1.92-11.15c-.03-.08-.07-.12-.12-.12s-.1.04-.12.12l-1.84,11.15c0,.14.05.2.16.2Z"/>
      <path class="st1" d="M174.04,132.1c.1-.09.21-.14.35-.14h4.74c.14,0,.25.05.35.14.1.1.14.21.14.35v27.62c0,.14-.05.25-.14.35-.1.1-.21.14-.35.14h-5.39c-.27,0-.45-.14-.53-.41l-5.07-15.81c-.03-.08-.08-.12-.14-.1-.07.01-.1.06-.1.14l.04,15.69c0,.14-.05.25-.14.35-.1.1-.21.14-.35.14h-4.74c-.14,0-.25-.05-.35-.14-.1-.1-.14-.21-.14-.35v-27.62c0-.14.05-.25.14-.35.1-.09.21-.14.35-.14h5.35c.27,0,.45.14.53.41l5.11,15.81c.03.08.07.12.14.1.07-.01.1-.06.1-.14l-.04-15.69c0-.14.05-.25.14-.35Z"/>
      <path class="st1" d="M183.72,160.41c-.1-.1-.14-.21-.14-.35v-27.62c0-.14.05-.25.14-.35.1-.09.21-.14.35-.14h7.39c2.48,0,4.47.72,5.97,2.17,1.5,1.44,2.25,3.36,2.25,5.76v12.75c0,2.4-.75,4.32-2.25,5.76-1.5,1.44-3.49,2.17-5.97,2.17h-7.39c-.14,0-.25-.05-.35-.14ZM189.54,155.61l1.84-.04c.74-.03,1.33-.34,1.8-.94.46-.6.71-1.39.74-2.37v-12.01c0-1.03-.23-1.85-.69-2.45-.46-.6-1.09-.9-1.88-.9h-1.8c-.14,0-.2.07-.2.2v18.3c0,.14.07.2.2.2Z"/>
      <path class="st1" d="M228.13,132.1c.1.1.14.21.14.35v3.96c0,.14-.05.25-.14.35-.1.1-.21.14-.35.14h-5.11c-.14,0-.2.07-.2.2v22.96c0,.14-.05.25-.14.35-.1.1-.21.14-.35.14h-4.78c-.14,0-.25-.05-.35-.14-.1-.1-.14-.21-.14-.35v-22.96c0-.14-.07-.2-.2-.2h-4.9c-.14,0-.25-.05-.35-.14-.1-.09-.14-.21-.14-.35v-3.96c0-.14.05-.25.14-.35.1-.09.21-.14.35-.14h16.18c.14,0,.25.05.35.14Z"/>
      <path class="st1" d="M241.82,132.1c.1-.09.21-.14.35-.14h4.78c.14,0,.25.05.35.14.1.1.14.21.14.35v27.62c0,.14-.05.25-.14.35-.1.1-.21.14-.35.14h-4.78c-.14,0-.25-.05-.35-.14-.1-.1-.14-.21-.14-.35v-11.15c0-.14-.07-.21-.2-.21h-4.09c-.14,0-.2.07-.2.21v11.15c0,.14-.05.25-.14.35-.1.1-.21.14-.35.14h-4.78c-.14,0-.25-.05-.35-.14-.1-.1-.14-.21-.14-.35v-27.62c0-.14.05-.25.14-.35.1-.09.21-.14.35-.14h4.78c.14,0,.25.05.35.14.09.1.14.21.14.35v11.11c0,.14.07.2.2.2h4.09c.14,0,.2-.07.2-.2v-11.11c0-.14.05-.25.14-.35Z"/>
      <path class="st1" d="M262.88,160.1l-.65-3.92c0-.14-.08-.21-.25-.21h-5.19c-.16,0-.25.07-.25.21l-.65,3.92c-.03.3-.2.45-.53.45h-4.78c-.35,0-.49-.18-.41-.53l6.01-27.62c.05-.3.23-.45.53-.45h5.52c.3,0,.48.15.53.45l5.96,27.62.04.16c0,.25-.15.37-.45.37h-4.9c-.33,0-.5-.15-.53-.45ZM257.53,151.52h3.68c.14,0,.19-.07.16-.2l-1.92-11.15c-.03-.08-.07-.12-.12-.12s-.1.04-.12.12l-1.84,11.15c0,.14.05.2.16.2Z"/>
      <path class="st1" d="M285.25,132.1c.1.1.14.21.14.35v3.96c0,.14-.05.25-.14.35-.1.1-.21.14-.35.14h-5.11c-.14,0-.2.07-.2.2v22.96c0,.14-.05.25-.14.35-.1.1-.21.14-.35.14h-4.78c-.14,0-.25-.05-.35-.14-.1-.1-.14-.21-.14-.35v-22.96c0-.14-.07-.2-.2-.2h-4.9c-.14,0-.25-.05-.35-.14-.1-.09-.14-.21-.14-.35v-3.96c0-.14.05-.25.14-.35.1-.09.21-.14.35-.14h16.18c.14,0,.25.05.35.14Z"/>
      <path class="st1" d="M297.22,160.41c-.1-.1-.14-.21-.14-.35v-27.62c0-.14.05-.25.14-.35.1-.09.21-.14.35-.14h4.78c.14,0,.25.05.35.14.09.1.14.21.14.35v27.62c0,.14-.05.25-.14.35-.1.1-.21.14-.35.14h-4.78c-.14,0-.25-.05-.35-.14Z"/>
      <path class="st1" d="M310.03,159.94c-1.2-.63-2.12-1.5-2.78-2.63-.65-1.13-.98-2.43-.98-3.9v-1.19c0-.14.05-.25.14-.35.1-.1.21-.14.35-.14h4.7c.14,0,.25.05.35.14.1.1.14.21.14.35v.9c0,.84.22,1.53.65,2.04.44.52.98.78,1.63.78s1.2-.25,1.63-.74c.44-.49.65-1.13.65-1.92s-.27-1.52-.82-2.1c-.55-.59-1.61-1.45-3.19-2.59-1.36-.98-2.47-1.85-3.31-2.62-.84-.76-1.57-1.7-2.17-2.82-.6-1.12-.9-2.41-.9-3.88,0-2.31.72-4.17,2.17-5.56,1.44-1.39,3.35-2.08,5.72-2.08s4.32.72,5.78,2.17c1.46,1.44,2.19,3.34,2.19,5.68v.98c0,.14-.05.25-.14.35-.1.1-.21.14-.35.14h-4.7c-.14,0-.25-.05-.35-.14-.1-.09-.14-.21-.14-.35v-1.1c0-.84-.21-1.52-.63-2.02-.42-.5-.97-.76-1.65-.76s-1.19.24-1.59.71c-.41.48-.61,1.14-.61,1.98s.26,1.54.78,2.17c.52.63,1.54,1.5,3.06,2.61,1.69,1.25,2.96,2.27,3.82,3.04s1.53,1.63,2,2.57c.48.94.71,2.06.71,3.37,0,2.4-.74,4.3-2.21,5.72-1.47,1.42-3.4,2.12-5.8,2.12-1.58,0-2.97-.31-4.17-.94Z"/>
      <path class="st1" d="M344.59,160.14l-3.15-11.28c-.05-.11-.12-.16-.2-.16h-1.39c-.14,0-.2.07-.2.21v11.15c0,.14-.05.25-.14.35-.1.1-.21.14-.35.14h-4.78c-.14,0-.25-.05-.35-.14-.1-.1-.14-.21-.14-.35v-27.62c0-.14.05-.25.14-.35.1-.09.21-.14.35-.14h8.25c1.5,0,2.83.36,4,1.08,1.17.72,2.08,1.74,2.72,3.04.64,1.31.96,2.81.96,4.49s-.31,3.02-.92,4.25-1.46,2.18-2.55,2.86c-.06.03-.1.06-.12.1-.03.04-.03.09,0,.14l3.76,12.05.04.16c0,.27-.15.41-.45.41h-4.9c-.3,0-.49-.14-.57-.41ZM339.65,137.1v6.99c0,.14.07.2.2.2h1.84c.84,0,1.53-.33,2.06-1,.53-.67.8-1.56.8-2.68s-.27-2.05-.8-2.72c-.53-.67-1.22-1-2.06-1h-1.84c-.14,0-.2.07-.2.2Z"/>
      <path class="st1" d="M368.35,136.75c-.1.1-.21.14-.35.14h-8.54c-.14,0-.2.07-.2.2v6.46c0,.14.07.2.2.2h4.9c.14,0,.25.05.35.14.1.1.14.21.14.35v3.96c0,.14-.05.25-.14.35-.1.1-.21.14-.35.14h-4.9c-.14,0-.2.07-.2.21v6.5c0,.14.07.2.2.2h8.54c.14,0,.25.05.35.14.09.1.14.21.14.35v3.96c0,.14-.05.25-.14.35-.1.1-.21.14-.35.14h-14.01c-.14,0-.25-.05-.35-.14-.1-.1-.14-.21-.14-.35v-27.62c0-.14.05-.25.14-.35.1-.09.21-.14.35-.14h14.01c.14,0,.25.05.35.14.09.1.14.21.14.35v3.96c0,.14-.05.25-.14.35Z"/>
      <path class="st1" d="M386.57,136.75c-.1.1-.21.14-.35.14h-8.5c-.14,0-.2.07-.2.2v6.46c0,.14.07.2.2.2h4.86c.14,0,.25.05.35.14.1.1.14.21.14.35v3.96c0,.14-.05.25-.14.35-.1.1-.21.14-.35.14h-4.86c-.14,0-.2.07-.2.21v11.15c0,.14-.05.25-.14.35-.1.1-.21.14-.35.14h-4.78c-.14,0-.25-.05-.35-.14-.1-.1-.14-.21-.14-.35v-27.62c0-.14.05-.25.14-.35.1-.09.21-.14.35-.14h13.97c.14,0,.25.05.35.14.1.1.14.21.14.35v3.96c0,.14-.05.25-.14.35Z"/>
      <path class="st1" d="M389.47,160.41c-.1-.1-.14-.21-.14-.35v-27.62c0-.14.05-.25.14-.35.1-.09.21-.14.35-.14h4.78c.14,0,.25.05.35.14.1.1.14.21.14.35v22.96c0,.14.07.2.21.2h8.58c.14,0,.25.05.35.14.09.1.14.21.14.35v3.96c0,.14-.05.25-.14.35-.1.1-.21.14-.35.14h-14.05c-.14,0-.25-.05-.35-.14Z"/>
      <path class="st1" d="M421.95,136.75c-.1.1-.21.14-.35.14h-8.54c-.14,0-.2.07-.2.2v6.46c0,.14.07.2.2.2h4.9c.14,0,.25.05.35.14s.14.21.14.35v3.96c0,.14-.05.25-.14.35-.1.1-.21.14-.35.14h-4.9c-.14,0-.2.07-.2.21v6.5c0,.14.07.2.2.2h8.54c.14,0,.25.05.35.14.09.1.14.21.14.35v3.96c0,.14-.05.25-.14.35-.1.1-.21.14-.35.14h-14.01c-.14,0-.25-.05-.35-.14s-.14-.21-.14-.35v-27.62c0-.14.05-.25.14-.35.1-.09.21-.14.35-.14h14.01c.14,0,.25.05.35.14.09.1.14.21.14.35v3.96c0,.14-.05.25-.14.35Z"/>
      <path class="st1" d="M427.18,158.69c-1.48-1.46-2.23-3.41-2.23-5.86v-13.24c0-2.42.74-4.36,2.23-5.8,1.48-1.44,3.45-2.17,5.9-2.17s4.46.72,5.94,2.17c1.48,1.44,2.23,3.38,2.23,5.8v.45c0,.14-.05.25-.14.35s-.21.14-.35.14l-4.78.2c-.33,0-.49-.15-.49-.45v-1.06c0-.79-.22-1.43-.65-1.92-.44-.49-1.02-.74-1.76-.74s-1.28.25-1.72.74-.65,1.13-.65,1.92v14.1c0,.79.22,1.42.65,1.9.44.48,1.01.71,1.72.71s1.32-.24,1.76-.71c.43-.48.65-1.11.65-1.9v-1.1c0-.14.05-.25.14-.35s.21-.14.35-.14l4.78.21c.14,0,.25.05.35.14.1.1.14.21.14.35v.41c0,2.45-.75,4.41-2.25,5.86-1.5,1.46-3.47,2.19-5.92,2.19s-4.42-.73-5.9-2.19Z"/>
      <path class="st1" d="M460.88,132.1c.09.1.14.21.14.35v3.96c0,.14-.05.25-.14.35-.1.1-.21.14-.35.14h-5.11c-.14,0-.2.07-.2.2v22.96c0,.14-.05.25-.14.35s-.21.14-.35.14h-4.78c-.14,0-.25-.05-.35-.14s-.14-.21-.14-.35v-22.96c0-.14-.07-.2-.21-.2h-4.9c-.14,0-.25-.05-.35-.14-.1-.09-.14-.21-.14-.35v-3.96c0-.14.05-.25.14-.35.1-.09.21-.14.35-.14h16.18c.14,0,.25.05.35.14Z"/>
      <path class="st1" d="M464.31,160.41c-.1-.1-.14-.21-.14-.35v-27.62c0-.14.05-.25.14-.35.1-.09.21-.14.35-.14h4.78c.13,0,.25.05.35.14.1.1.14.21.14.35v27.62c0,.14-.05.25-.14.35s-.21.14-.35.14h-4.78c-.14,0-.25-.05-.35-.14Z"/>
      <path class="st1" d="M478.92,160.1l-5.84-27.62-.04-.16c0-.25.15-.37.45-.37h5.27c.33,0,.5.15.53.45l2.82,17.98c.03.11.07.16.12.16s.1-.05.12-.16l2.74-17.98c.03-.3.21-.45.53-.45h5.11c.35,0,.49.18.41.53l-5.88,27.62c-.05.3-.23.45-.53.45h-5.27c-.3,0-.48-.15-.53-.45Z"/>
      <path class="st1" d="M509.09,136.75c-.1.1-.21.14-.35.14h-8.54c-.14,0-.21.07-.21.2v6.46c0,.14.07.2.21.2h4.9c.13,0,.25.05.35.14.09.1.14.21.14.35v3.96c0,.14-.05.25-.14.35-.1.1-.21.14-.35.14h-4.9c-.14,0-.21.07-.21.21v6.5c0,.14.07.2.21.2h8.54c.13,0,.25.05.35.14.1.1.14.21.14.35v3.96c0,.14-.05.25-.14.35s-.21.14-.35.14h-14.01c-.14,0-.25-.05-.35-.14s-.14-.21-.14-.35v-27.62c0-.14.05-.25.14-.35.1-.09.21-.14.35-.14h14.01c.13,0,.25.05.35.14.1.1.14.21.14.35v3.96c0,.14-.05.25-.14.35Z"/>
      <path class="st1" d="M522.88,158.67c-1.5-1.47-2.25-3.43-2.25-5.88v-13.07c0-2.45.75-4.41,2.25-5.88s3.5-2.21,6.01-2.21,4.51.74,6.03,2.21,2.27,3.43,2.27,5.88v13.07c0,2.45-.76,4.41-2.27,5.88-1.51,1.47-3.52,2.21-6.03,2.21s-4.51-.74-6.01-2.21ZM530.72,155.14c.46-.53.7-1.23.7-2.1v-13.56c0-.87-.23-1.57-.7-2.1s-1.08-.8-1.84-.8-1.37.27-1.82.8-.67,1.23-.67,2.1v13.56c0,.87.22,1.57.67,2.1s1.05.8,1.82.8,1.38-.26,1.84-.8Z"/>
      <path class="st1" d="M555.54,136.75c-.1.1-.21.14-.35.14h-8.5c-.14,0-.2.07-.2.2v6.46c0,.14.07.2.2.2h4.86c.14,0,.25.05.35.14s.14.21.14.35v3.96c0,.14-.05.25-.14.35-.1.1-.21.14-.35.14h-4.86c-.14,0-.2.07-.2.21v11.15c0,.14-.05.25-.14.35s-.21.14-.35.14h-4.78c-.14,0-.25-.05-.35-.14s-.14-.21-.14-.35v-27.62c0-.14.05-.25.14-.35.1-.09.21-.14.35-.14h13.97c.14,0,.25.05.35.14.1.1.14.21.14.35v3.96c0,.14-.05.25-.14.35Z"/>
      <path class="st1" d="M568.68,158.67c-1.5-1.47-2.25-3.43-2.25-5.88v-13.07c0-2.45.75-4.41,2.25-5.88s3.5-2.21,6.01-2.21,4.51.74,6.03,2.21,2.27,3.43,2.27,5.88v13.07c0,2.45-.76,4.41-2.27,5.88-1.51,1.47-3.52,2.21-6.03,2.21s-4.51-.74-6.01-2.21ZM576.52,155.14c.46-.53.7-1.23.7-2.1v-13.56c0-.87-.23-1.57-.7-2.1s-1.08-.8-1.84-.8-1.37.27-1.82.8-.67,1.23-.67,2.1v13.56c0,.87.22,1.57.67,2.1s1.05.8,1.82.8,1.38-.26,1.84-.8Z"/>
      <path class="st1" d="M588.64,158.57c-1.48-1.54-2.23-3.59-2.23-6.15v-19.98c0-.14.05-.25.14-.35.1-.09.21-.14.35-.14h4.78c.14,0,.25.05.35.14.1.1.14.21.14.35v20.55c0,.87.22,1.58.65,2.12s1.01.82,1.72.82,1.27-.27,1.7-.82c.42-.54.63-1.25.63-2.12v-20.55c0-.14.05-.25.14-.35.1-.09.21-.14.35-.14h4.78c.14,0,.25.05.35.14.1.1.14.21.14.35v19.98c0,2.56-.74,4.61-2.23,6.15-1.48,1.54-3.44,2.31-5.86,2.31s-4.42-.77-5.9-2.31Z"/>
      <path class="st1" d="M617.17,160.14l-3.14-11.28c-.06-.11-.12-.16-.21-.16h-1.39c-.14,0-.21.07-.21.21v11.15c0,.14-.05.25-.14.35s-.21.14-.35.14h-4.78c-.14,0-.25-.05-.35-.14s-.14-.21-.14-.35v-27.62c0-.14.05-.25.14-.35.1-.09.21-.14.35-.14h8.25c1.5,0,2.83.36,4,1.08,1.17.72,2.08,1.74,2.72,3.04s.96,2.81.96,4.49-.31,3.02-.92,4.25-1.46,2.18-2.55,2.86c-.05.03-.1.06-.12.1s-.03.09,0,.14l3.76,12.05.04.16c0,.27-.15.41-.45.41h-4.9c-.3,0-.49-.14-.57-.41ZM612.23,137.1v6.99c0,.14.07.2.21.2h1.84c.84,0,1.53-.33,2.06-1,.53-.67.8-1.56.8-2.68s-.27-2.05-.8-2.72c-.53-.67-1.22-1-2.06-1h-1.84c-.14,0-.21.07-.21.2Z"/>
    </g>
  </g>
  <g>
    <g>
      <path class="st2" d="M123.54,114.61l-6.88-34.47-.05-.2c0-.31.19-.46.56-.46h6.22c.41,0,.63.19.66.56l2.91,18.36c.03.14.08.2.15.2s.12-.07.15-.2l2.75-18.36c.03-.37.25-.56.66-.56h5.15c.41,0,.63.19.66.56l3.01,18.36c.03.14.08.2.15.2s.12-.07.15-.2l2.6-18.36c.03-.37.25-.56.66-.56h6.02c.44,0,.63.22.56.66l-6.48,34.47c-.03.37-.26.56-.66.56h-5.51c-.41,0-.63-.19-.66-.56l-3.01-18.87c-.03-.14-.08-.2-.15-.2s-.12.07-.15.2l-2.7,18.87c-.03.37-.25.56-.66.56h-5.46c-.37,0-.6-.19-.66-.56Z"/>
      <path class="st2" d="M171.96,85.47c-.12.12-.26.18-.43.18h-10.66c-.17,0-.25.08-.25.25v8.06c0,.17.08.25.25.25h6.12c.17,0,.31.06.43.18.12.12.18.26.18.43v4.95c0,.17-.06.32-.18.43-.12.12-.26.18-.43.18h-6.12c-.17,0-.25.08-.25.25v8.11c0,.17.08.25.25.25h10.66c.17,0,.31.06.43.18.12.12.18.26.18.43v4.95c0,.17-.06.31-.18.43-.12.12-.26.18-.43.18h-17.49c-.17,0-.31-.06-.43-.18-.12-.12-.18-.26-.18-.43v-34.47c0-.17.06-.31.18-.43.12-.12.26-.18.43-.18h17.49c.17,0,.31.06.43.18.12.12.18.26.18.43v4.95c0,.17-.06.31-.18.43Z"/>
      <path class="st2" d="M204.52,112.62c-1.9,1.7-4.37,2.55-7.39,2.55h-9.64c-.17,0-.31-.06-.43-.18-.12-.12-.18-.26-.18-.43v-34.47c0-.17.06-.31.18-.43.12-.12.26-.18.43-.18h8.52c3.4,0,6.06.82,7.98,2.45,1.92,1.63,2.88,4.06,2.88,7.29s-1.16,5.81-3.47,7.34c-.14.1-.15.2-.05.31,2.69,1.9,4.03,4.73,4.03,8.46,0,3.16-.95,5.59-2.86,7.29ZM194.06,85.9v8.01c0,.17.08.25.25.25h1.84c1.16,0,2.06-.37,2.7-1.1.65-.73.97-1.76.97-3.08,0-1.39-.31-2.46-.94-3.21-.63-.75-1.54-1.12-2.73-1.12h-1.84c-.17,0-.25.08-.25.25ZM199.21,107.73c.65-.82.97-1.97.97-3.47s-.32-2.68-.97-3.57c-.65-.88-1.51-1.33-2.6-1.33h-2.29c-.17,0-.25.09-.25.26v9.08c0,.17.08.26.25.26h2.24c1.12,0,2.01-.41,2.65-1.22Z"/>
      <path class="st2" d="M213.92,112.7c-1.85-1.92-2.78-4.48-2.78-7.67v-24.94c0-.17.06-.31.18-.43s.26-.18.43-.18h5.97c.17,0,.31.06.43.18.12.12.18.26.18.43v25.65c0,1.09.27,1.97.82,2.65.54.68,1.26,1.02,2.14,1.02s1.59-.34,2.12-1.02c.53-.68.79-1.56.79-2.65v-25.65c0-.17.06-.31.18-.43s.26-.18.43-.18h5.97c.17,0,.31.06.43.18.12.12.18.26.18.43v24.94c0,3.2-.93,5.75-2.78,7.67-1.85,1.92-4.29,2.88-7.32,2.88s-5.52-.96-7.37-2.88Z"/>
      <path class="st2" d="M236.36,114.99c-.12-.12-.18-.26-.18-.43v-34.47c0-.17.06-.31.18-.43.12-.12.26-.18.43-.18h5.97c.17,0,.31.06.43.18s.18.26.18.43v34.47c0,.17-.06.31-.18.43-.12.12-.26.18-.43.18h-5.97c-.17,0-.31-.06-.43-.18Z"/>
      <path class="st2" d="M248.55,114.99c-.12-.12-.18-.26-.18-.43v-34.47c0-.17.06-.31.18-.43.12-.12.26-.18.43-.18h5.97c.17,0,.31.06.43.18s.18.26.18.43v28.66c0,.17.08.25.25.25h10.71c.17,0,.31.06.43.18.12.12.18.26.18.43v4.95c0,.17-.06.31-.18.43-.12.12-.26.18-.43.18h-17.54c-.17,0-.31-.06-.43-.18Z"/>
      <path class="st2" d="M270.73,114.99c-.12-.12-.18-.26-.18-.43v-34.47c0-.17.06-.31.18-.43.12-.12.26-.18.43-.18h9.23c3.09,0,5.58.9,7.44,2.7s2.81,4.2,2.81,7.19v15.91c0,2.99-.94,5.39-2.81,7.19s-4.35,2.7-7.44,2.7h-9.23c-.17,0-.31-.06-.43-.18ZM278,109l2.29-.05c.92-.03,1.67-.42,2.24-1.17.58-.75.88-1.73.92-2.96v-14.99c0-1.29-.29-2.31-.87-3.06-.58-.75-1.36-1.12-2.35-1.12h-2.24c-.17,0-.25.08-.25.25v22.85c0,.17.08.25.25.25Z"/>
      <path class="st2" d="M308.24,112.83c-1.87-1.84-2.8-4.28-2.8-7.34v-16.32c0-3.06.93-5.51,2.8-7.34,1.87-1.84,4.37-2.75,7.5-2.75s5.64.92,7.52,2.75,2.83,4.28,2.83,7.34v16.32c0,3.06-.94,5.51-2.83,7.34s-4.39,2.75-7.52,2.75-5.63-.92-7.5-2.75ZM318.03,108.41c.58-.66.87-1.54.87-2.63v-16.93c0-1.09-.29-1.96-.87-2.63-.58-.66-1.34-.99-2.29-.99s-1.71.33-2.27.99-.84,1.54-.84,2.63v16.93c0,1.09.28,1.96.84,2.63s1.32,1,2.27,1,1.72-.33,2.29-1Z"/>
      <path class="st2" d="M333.15,112.7c-1.85-1.92-2.78-4.48-2.78-7.67v-24.94c0-.17.06-.31.18-.43s.26-.18.43-.18h5.97c.17,0,.31.06.43.18.12.12.18.26.18.43v25.65c0,1.09.27,1.97.82,2.65.54.68,1.26,1.02,2.14,1.02s1.59-.34,2.12-1.02c.53-.68.79-1.56.79-2.65v-25.65c0-.17.06-.31.18-.43s.26-.18.43-.18h5.97c.17,0,.31.06.43.18.12.12.18.26.18.43v24.94c0,3.2-.93,5.75-2.78,7.67-1.85,1.92-4.29,2.88-7.32,2.88s-5.52-.96-7.37-2.88Z"/>
      <path class="st2" d="M368.77,114.66l-3.93-14.07c-.07-.14-.15-.2-.25-.2h-1.73c-.17,0-.25.08-.25.25v13.92c0,.17-.06.31-.18.43-.12.12-.26.18-.43.18h-5.97c-.17,0-.31-.06-.43-.18-.12-.12-.18-.26-.18-.43v-34.47c0-.17.06-.31.18-.43.12-.12.26-.18.43-.18h10.3c1.87,0,3.54.45,5,1.35,1.46.9,2.59,2.17,3.39,3.8.8,1.63,1.2,3.5,1.2,5.61s-.38,3.77-1.15,5.3c-.76,1.53-1.83,2.72-3.19,3.57-.07.03-.12.08-.15.13-.03.05-.03.11,0,.18l4.69,15.04.05.2c0,.34-.19.51-.56.51h-6.12c-.37,0-.61-.17-.71-.51ZM362.6,85.9v8.72c0,.17.08.25.25.25h2.29c1.05,0,1.91-.42,2.58-1.25s.99-1.95.99-3.34-.33-2.56-.99-3.39-1.52-1.25-2.58-1.25h-2.29c-.17,0-.25.08-.25.25Z"/>
      <path class="st2" d="M392.84,112.83c-1.87-1.84-2.8-4.28-2.8-7.34v-16.32c0-3.06.94-5.51,2.8-7.34,1.87-1.84,4.37-2.75,7.5-2.75s5.63.92,7.52,2.75,2.83,4.28,2.83,7.34v16.32c0,3.06-.94,5.51-2.83,7.34s-4.39,2.75-7.52,2.75-5.63-.92-7.5-2.75ZM402.63,108.41c.58-.66.87-1.54.87-2.63v-16.93c0-1.09-.29-1.96-.87-2.63s-1.34-.99-2.29-.99-1.71.33-2.27.99c-.56.66-.84,1.54-.84,2.63v16.93c0,1.09.28,1.96.84,2.63.56.66,1.32,1,2.27,1s1.72-.33,2.29-1Z"/>
      <path class="st2" d="M420.78,114.61l-6.88-34.47-.05-.2c0-.31.19-.46.56-.46h6.22c.41,0,.63.19.66.56l2.91,18.36c.03.14.08.2.15.2s.12-.07.15-.2l2.75-18.36c.03-.37.25-.56.66-.56h5.15c.41,0,.63.19.66.56l3.01,18.36c.03.14.08.2.15.2s.12-.07.15-.2l2.6-18.36c.03-.37.25-.56.66-.56h6.02c.44,0,.63.22.56.66l-6.48,34.47c-.03.37-.25.56-.66.56h-5.51c-.41,0-.63-.19-.66-.56l-3.01-18.87c-.03-.14-.08-.2-.15-.2s-.12.07-.15.2l-2.7,18.87c-.03.37-.25.56-.66.56h-5.46c-.38,0-.6-.19-.66-.56Z"/>
      <path class="st2" d="M465.43,79.65c.12-.12.26-.18.43-.18h5.92c.17,0,.31.06.43.18s.18.26.18.43v34.47c0,.17-.06.31-.18.43-.12.12-.26.18-.43.18h-6.73c-.34,0-.56-.17-.66-.51l-6.32-19.74c-.03-.1-.09-.14-.18-.13-.09.02-.13.08-.13.18l.05,19.58c0,.17-.06.31-.18.43-.12.12-.26.18-.43.18h-5.92c-.17,0-.31-.06-.43-.18-.12-.12-.18-.26-.18-.43v-34.47c0-.17.06-.31.18-.43s.26-.18.43-.18h6.68c.34,0,.56.17.66.51l6.37,19.74c.03.1.09.14.18.13.08-.02.13-.08.13-.18l-.05-19.58c0-.17.06-.31.18-.43Z"/>
      <path class="st2" d="M490.26,112.85c-1.85-1.82-2.78-4.26-2.78-7.32v-16.52c0-3.03.93-5.44,2.78-7.24,1.85-1.8,4.31-2.7,7.37-2.7s5.57.9,7.42,2.7c1.85,1.8,2.78,4.22,2.78,7.24v.56c0,.17-.06.32-.18.43-.12.12-.26.18-.43.18l-5.97.25c-.41,0-.61-.19-.61-.56v-1.33c0-.99-.27-1.79-.82-2.4-.54-.61-1.27-.92-2.19-.92s-1.6.31-2.14.92c-.54.61-.82,1.41-.82,2.4v17.59c0,.99.27,1.78.82,2.37.54.59,1.26.89,2.14.89s1.65-.3,2.19-.89.82-1.38.82-2.37v-1.38c0-.17.06-.31.18-.43.12-.12.26-.18.43-.18l5.97.25c.17,0,.31.06.43.18.12.12.18.26.18.43v.51c0,3.06-.94,5.5-2.8,7.32-1.87,1.82-4.33,2.73-7.39,2.73s-5.52-.91-7.37-2.73Z"/>
      <path class="st2" d="M514.74,112.7c-1.85-1.92-2.78-4.48-2.78-7.67v-24.94c0-.17.06-.31.18-.43.12-.12.26-.18.43-.18h5.97c.17,0,.31.06.43.18s.18.26.18.43v25.65c0,1.09.27,1.97.82,2.65.54.68,1.26,1.02,2.14,1.02s1.59-.34,2.12-1.02c.53-.68.79-1.56.79-2.65v-25.65c0-.17.06-.31.18-.43.12-.12.26-.18.43-.18h5.97c.17,0,.31.06.43.18s.18.26.18.43v24.94c0,3.2-.93,5.75-2.78,7.67-1.85,1.92-4.29,2.88-7.32,2.88s-5.52-.96-7.37-2.88Z"/>
      <path class="st2" d="M537.17,114.99c-.12-.12-.18-.26-.18-.43v-34.47c0-.17.06-.31.18-.43s.26-.18.43-.18h5.97c.17,0,.31.06.43.18.12.12.18.26.18.43v28.66c0,.17.08.25.26.25h10.71c.17,0,.31.06.43.18s.18.26.18.43v4.95c0,.17-.06.31-.18.43-.12.12-.26.18-.43.18h-17.54c-.17,0-.31-.06-.43-.18Z"/>
      <path class="st2" d="M575.22,79.65c.12.12.18.26.18.43v4.95c0,.17-.06.31-.18.43s-.26.18-.43.18h-6.37c-.17,0-.25.08-.25.25v28.66c0,.17-.06.31-.18.43-.12.12-.26.18-.43.18h-5.97c-.17,0-.31-.06-.43-.18-.12-.12-.18-.26-.18-.43v-28.66c0-.17-.08-.25-.25-.25h-6.12c-.17,0-.31-.06-.43-.18s-.18-.26-.18-.43v-4.95c0-.17.06-.31.18-.43s.26-.18.43-.18h20.19c.17,0,.31.06.43.18Z"/>
      <path class="st2" d="M581.95,112.7c-1.85-1.92-2.78-4.48-2.78-7.67v-24.94c0-.17.06-.31.18-.43.12-.12.26-.18.43-.18h5.97c.17,0,.31.06.43.18s.18.26.18.43v25.65c0,1.09.27,1.97.82,2.65.54.68,1.26,1.02,2.14,1.02s1.59-.34,2.12-1.02c.53-.68.79-1.56.79-2.65v-25.65c0-.17.06-.31.18-.43.12-.12.26-.18.43-.18h5.97c.17,0,.31.06.43.18s.18.26.18.43v24.94c0,3.2-.93,5.75-2.78,7.67-1.85,1.92-4.29,2.88-7.32,2.88s-5.52-.96-7.37-2.88Z"/>
      <path class="st2" d="M617.57,114.66l-3.93-14.07c-.07-.14-.15-.2-.25-.2h-1.73c-.17,0-.26.08-.26.25v13.92c0,.17-.06.31-.18.43s-.26.18-.43.18h-5.97c-.17,0-.31-.06-.43-.18-.12-.12-.18-.26-.18-.43v-34.47c0-.17.06-.31.18-.43s.26-.18.43-.18h10.3c1.87,0,3.54.45,5,1.35,1.46.9,2.59,2.17,3.39,3.8s1.2,3.5,1.2,5.61-.38,3.77-1.15,5.3c-.77,1.53-1.83,2.72-3.19,3.57-.07.03-.12.08-.15.13s-.03.11,0,.18l4.69,15.04.05.2c0,.34-.19.51-.56.51h-6.12c-.38,0-.61-.17-.71-.51ZM611.4,85.9v8.72c0,.17.08.25.26.25h2.29c1.05,0,1.91-.42,2.58-1.25.66-.83,1-1.95,1-3.34s-.33-2.56-1-3.39c-.66-.83-1.52-1.25-2.58-1.25h-2.29c-.17,0-.26.08-.26.25Z"/>
      <path class="st2" d="M647.22,85.47c-.12.12-.26.18-.43.18h-10.66c-.17,0-.26.08-.26.25v8.06c0,.17.08.25.26.25h6.12c.17,0,.31.06.43.18.12.12.18.26.18.43v4.95c0,.17-.06.32-.18.43-.12.12-.26.18-.43.18h-6.12c-.17,0-.26.08-.26.25v8.11c0,.17.08.25.26.25h10.66c.17,0,.31.06.43.18s.18.26.18.43v4.95c0,.17-.06.31-.18.43-.12.12-.26.18-.43.18h-17.49c-.17,0-.31-.06-.43-.18-.12-.12-.18-.26-.18-.43v-34.47c0-.17.06-.31.18-.43s.26-.18.43-.18h17.49c.17,0,.31.06.43.18s.18.26.18.43v4.95c0,.17-.06.31-.18.43Z"/>
    </g>
    <g>
      <path class="st2" d="M123.54,114.61l-6.88-34.47-.05-.2c0-.31.19-.46.56-.46h6.22c.41,0,.63.19.66.56l2.91,18.36c.03.14.08.2.15.2s.12-.07.15-.2l2.75-18.36c.03-.37.25-.56.66-.56h5.15c.41,0,.63.19.66.56l3.01,18.36c.03.14.08.2.15.2s.12-.07.15-.2l2.6-18.36c.03-.37.25-.56.66-.56h6.02c.44,0,.63.22.56.66l-6.48,34.47c-.03.37-.26.56-.66.56h-5.51c-.41,0-.63-.19-.66-.56l-3.01-18.87c-.03-.14-.08-.2-.15-.2s-.12.07-.15.2l-2.7,18.87c-.03.37-.25.56-.66.56h-5.46c-.37,0-.6-.19-.66-.56Z"/>
      <path class="st2" d="M171.96,85.47c-.12.12-.26.18-.43.18h-10.66c-.17,0-.25.08-.25.25v8.06c0,.17.08.25.25.25h6.12c.17,0,.31.06.43.18.12.12.18.26.18.43v4.95c0,.17-.06.32-.18.43-.12.12-.26.18-.43.18h-6.12c-.17,0-.25.08-.25.25v8.11c0,.17.08.25.25.25h10.66c.17,0,.31.06.43.18.12.12.18.26.18.43v4.95c0,.17-.06.31-.18.43-.12.12-.26.18-.43.18h-17.49c-.17,0-.31-.06-.43-.18-.12-.12-.18-.26-.18-.43v-34.47c0-.17.06-.31.18-.43.12-.12.26-.18.43-.18h17.49c.17,0,.31.06.43.18.12.12.18.26.18.43v4.95c0,.17-.06.31-.18.43Z"/>
      <path class="st2" d="M204.52,112.62c-1.9,1.7-4.37,2.55-7.39,2.55h-9.64c-.17,0-.31-.06-.43-.18-.12-.12-.18-.26-.18-.43v-34.47c0-.17.06-.31.18-.43.12-.12.26-.18.43-.18h8.52c3.4,0,6.06.82,7.98,2.45,1.92,1.63,2.88,4.06,2.88,7.29s-1.16,5.81-3.47,7.34c-.14.1-.15.2-.05.31,2.69,1.9,4.03,4.73,4.03,8.46,0,3.16-.95,5.59-2.86,7.29ZM194.06,85.9v8.01c0,.17.08.25.25.25h1.84c1.16,0,2.06-.37,2.7-1.1.65-.73.97-1.76.97-3.08,0-1.39-.31-2.46-.94-3.21-.63-.75-1.54-1.12-2.73-1.12h-1.84c-.17,0-.25.08-.25.25ZM199.21,107.73c.65-.82.97-1.97.97-3.47s-.32-2.68-.97-3.57c-.65-.88-1.51-1.33-2.6-1.33h-2.29c-.17,0-.25.09-.25.26v9.08c0,.17.08.26.25.26h2.24c1.12,0,2.01-.41,2.65-1.22Z"/>
      <path class="st2" d="M213.92,112.7c-1.85-1.92-2.78-4.48-2.78-7.67v-24.94c0-.17.06-.31.18-.43s.26-.18.43-.18h5.97c.17,0,.31.06.43.18.12.12.18.26.18.43v25.65c0,1.09.27,1.97.82,2.65.54.68,1.26,1.02,2.14,1.02s1.59-.34,2.12-1.02c.53-.68.79-1.56.79-2.65v-25.65c0-.17.06-.31.18-.43s.26-.18.43-.18h5.97c.17,0,.31.06.43.18.12.12.18.26.18.43v24.94c0,3.2-.93,5.75-2.78,7.67-1.85,1.92-4.29,2.88-7.32,2.88s-5.52-.96-7.37-2.88Z"/>
      <path class="st2" d="M236.36,114.99c-.12-.12-.18-.26-.18-.43v-34.47c0-.17.06-.31.18-.43.12-.12.26-.18.43-.18h5.97c.17,0,.31.06.43.18s.18.26.18.43v34.47c0,.17-.06.31-.18.43-.12.12-.26.18-.43.18h-5.97c-.17,0-.31-.06-.43-.18Z"/>
      <path class="st2" d="M248.55,114.99c-.12-.12-.18-.26-.18-.43v-34.47c0-.17.06-.31.18-.43.12-.12.26-.18.43-.18h5.97c.17,0,.31.06.43.18s.18.26.18.43v28.66c0,.17.08.25.25.25h10.71c.17,0,.31.06.43.18.12.12.18.26.18.43v4.95c0,.17-.06.31-.18.43-.12.12-.26.18-.43.18h-17.54c-.17,0-.31-.06-.43-.18Z"/>
      <path class="st2" d="M270.73,114.99c-.12-.12-.18-.26-.18-.43v-34.47c0-.17.06-.31.18-.43.12-.12.26-.18.43-.18h9.23c3.09,0,5.58.9,7.44,2.7s2.81,4.2,2.81,7.19v15.91c0,2.99-.94,5.39-2.81,7.19s-4.35,2.7-7.44,2.7h-9.23c-.17,0-.31-.06-.43-.18ZM278,109l2.29-.05c.92-.03,1.67-.42,2.24-1.17.58-.75.88-1.73.92-2.96v-14.99c0-1.29-.29-2.31-.87-3.06-.58-.75-1.36-1.12-2.35-1.12h-2.24c-.17,0-.25.08-.25.25v22.85c0,.17.08.25.25.25Z"/>
      <path class="st2" d="M308.24,112.83c-1.87-1.84-2.8-4.28-2.8-7.34v-16.32c0-3.06.93-5.51,2.8-7.34,1.87-1.84,4.37-2.75,7.5-2.75s5.64.92,7.52,2.75,2.83,4.28,2.83,7.34v16.32c0,3.06-.94,5.51-2.83,7.34s-4.39,2.75-7.52,2.75-5.63-.92-7.5-2.75ZM318.03,108.41c.58-.66.87-1.54.87-2.63v-16.93c0-1.09-.29-1.96-.87-2.63-.58-.66-1.34-.99-2.29-.99s-1.71.33-2.27.99-.84,1.54-.84,2.63v16.93c0,1.09.28,1.96.84,2.63s1.32,1,2.27,1,1.72-.33,2.29-1Z"/>
      <path class="st2" d="M333.15,112.7c-1.85-1.92-2.78-4.48-2.78-7.67v-24.94c0-.17.06-.31.18-.43s.26-.18.43-.18h5.97c.17,0,.31.06.43.18.12.12.18.26.18.43v25.65c0,1.09.27,1.97.82,2.65.54.68,1.26,1.02,2.14,1.02s1.59-.34,2.12-1.02c.53-.68.79-1.56.79-2.65v-25.65c0-.17.06-.31.18-.43s.26-.18.43-.18h5.97c.17,0,.31.06.43.18.12.12.18.26.18.43v24.94c0,3.2-.93,5.75-2.78,7.67-1.85,1.92-4.29,2.88-7.32,2.88s-5.52-.96-7.37-2.88Z"/>
      <path class="st2" d="M368.77,114.66l-3.93-14.07c-.07-.14-.15-.2-.25-.2h-1.73c-.17,0-.25.08-.25.25v13.92c0,.17-.06.31-.18.43-.12.12-.26.18-.43.18h-5.97c-.17,0-.31-.06-.43-.18-.12-.12-.18-.26-.18-.43v-34.47c0-.17.06-.31.18-.43.12-.12.26-.18.43-.18h10.3c1.87,0,3.54.45,5,1.35,1.46.9,2.59,2.17,3.39,3.8.8,1.63,1.2,3.5,1.2,5.61s-.38,3.77-1.15,5.3c-.76,1.53-1.83,2.72-3.19,3.57-.07.03-.12.08-.15.13-.03.05-.03.11,0,.18l4.69,15.04.05.2c0,.34-.19.51-.56.51h-6.12c-.37,0-.61-.17-.71-.51ZM362.6,85.9v8.72c0,.17.08.25.25.25h2.29c1.05,0,1.91-.42,2.58-1.25s.99-1.95.99-3.34-.33-2.56-.99-3.39-1.52-1.25-2.58-1.25h-2.29c-.17,0-.25.08-.25.25Z"/>
      <path class="st2" d="M392.84,112.83c-1.87-1.84-2.8-4.28-2.8-7.34v-16.32c0-3.06.94-5.51,2.8-7.34,1.87-1.84,4.37-2.75,7.5-2.75s5.63.92,7.52,2.75,2.83,4.28,2.83,7.34v16.32c0,3.06-.94,5.51-2.83,7.34s-4.39,2.75-7.52,2.75-5.63-.92-7.5-2.75ZM402.63,108.41c.58-.66.87-1.54.87-2.63v-16.93c0-1.09-.29-1.96-.87-2.63s-1.34-.99-2.29-.99-1.71.33-2.27.99c-.56.66-.84,1.54-.84,2.63v16.93c0,1.09.28,1.96.84,2.63.56.66,1.32,1,2.27,1s1.72-.33,2.29-1Z"/>
      <path class="st2" d="M420.78,114.61l-6.88-34.47-.05-.2c0-.31.19-.46.56-.46h6.22c.41,0,.63.19.66.56l2.91,18.36c.03.14.08.2.15.2s.12-.07.15-.2l2.75-18.36c.03-.37.25-.56.66-.56h5.15c.41,0,.63.19.66.56l3.01,18.36c.03.14.08.2.15.2s.12-.07.15-.2l2.6-18.36c.03-.37.25-.56.66-.56h6.02c.44,0,.63.22.56.66l-6.48,34.47c-.03.37-.25.56-.66.56h-5.51c-.41,0-.63-.19-.66-.56l-3.01-18.87c-.03-.14-.08-.2-.15-.2s-.12.07-.15.2l-2.7,18.87c-.03.37-.25.56-.66.56h-5.46c-.38,0-.6-.19-.66-.56Z"/>
      <path class="st2" d="M465.43,79.65c.12-.12.26-.18.43-.18h5.92c.17,0,.31.06.43.18s.18.26.18.43v34.47c0,.17-.06.31-.18.43-.12.12-.26.18-.43.18h-6.73c-.34,0-.56-.17-.66-.51l-6.32-19.74c-.03-.1-.09-.14-.18-.13-.09.02-.13.08-.13.18l.05,19.58c0,.17-.06.31-.18.43-.12.12-.26.18-.43.18h-5.92c-.17,0-.31-.06-.43-.18-.12-.12-.18-.26-.18-.43v-34.47c0-.17.06-.31.18-.43s.26-.18.43-.18h6.68c.34,0,.56.17.66.51l6.37,19.74c.03.1.09.14.18.13.08-.02.13-.08.13-.18l-.05-19.58c0-.17.06-.31.18-.43Z"/>
      <path class="st2" d="M490.26,112.85c-1.85-1.82-2.78-4.26-2.78-7.32v-16.52c0-3.03.93-5.44,2.78-7.24,1.85-1.8,4.31-2.7,7.37-2.7s5.57.9,7.42,2.7c1.85,1.8,2.78,4.22,2.78,7.24v.56c0,.17-.06.32-.18.43-.12.12-.26.18-.43.18l-5.97.25c-.41,0-.61-.19-.61-.56v-1.33c0-.99-.27-1.79-.82-2.4-.54-.61-1.27-.92-2.19-.92s-1.6.31-2.14.92c-.54.61-.82,1.41-.82,2.4v17.59c0,.99.27,1.78.82,2.37.54.59,1.26.89,2.14.89s1.65-.3,2.19-.89.82-1.38.82-2.37v-1.38c0-.17.06-.31.18-.43.12-.12.26-.18.43-.18l5.97.25c.17,0,.31.06.43.18.12.12.18.26.18.43v.51c0,3.06-.94,5.5-2.8,7.32-1.87,1.82-4.33,2.73-7.39,2.73s-5.52-.91-7.37-2.73Z"/>
      <path class="st2" d="M514.74,112.7c-1.85-1.92-2.78-4.48-2.78-7.67v-24.94c0-.17.06-.31.18-.43.12-.12.26-.18.43-.18h5.97c.17,0,.31.06.43.18s.18.26.18.43v25.65c0,1.09.27,1.97.82,2.65.54.68,1.26,1.02,2.14,1.02s1.59-.34,2.12-1.02c.53-.68.79-1.56.79-2.65v-25.65c0-.17.06-.31.18-.43.12-.12.26-.18.43-.18h5.97c.17,0,.31.06.43.18s.18.26.18.43v24.94c0,3.2-.93,5.75-2.78,7.67-1.85,1.92-4.29,2.88-7.32,2.88s-5.52-.96-7.37-2.88Z"/>
      <path class="st2" d="M537.17,114.99c-.12-.12-.18-.26-.18-.43v-34.47c0-.17.06-.31.18-.43s.26-.18.43-.18h5.97c.17,0,.31.06.43.18.12.12.18.26.18.43v28.66c0,.17.08.25.26.25h10.71c.17,0,.31.06.43.18s.18.26.18.43v4.95c0,.17-.06.31-.18.43-.12.12-.26.18-.43.18h-17.54c-.17,0-.31-.06-.43-.18Z"/>
      <path class="st2" d="M575.22,79.65c.12.12.18.26.18.43v4.95c0,.17-.06.31-.18.43s-.26.18-.43.18h-6.37c-.17,0-.25.08-.25.25v28.66c0,.17-.06.31-.18.43-.12.12-.26.18-.43.18h-5.97c-.17,0-.31-.06-.43-.18-.12-.12-.18-.26-.18-.43v-28.66c0-.17-.08-.25-.25-.25h-6.12c-.17,0-.31-.06-.43-.18s-.18-.26-.18-.43v-4.95c0-.17.06-.31.18-.43s.26-.18.43-.18h20.19c.17,0,.31.06.43.18Z"/>
      <path class="st2" d="M581.95,112.7c-1.85-1.92-2.78-4.48-2.78-7.67v-24.94c0-.17.06-.31.18-.43.12-.12.26-.18.43-.18h5.97c.17,0,.31.06.43.18s.18.26.18.43v25.65c0,1.09.27,1.97.82,2.65.54.68,1.26,1.02,2.14,1.02s1.59-.34,2.12-1.02c.53-.68.79-1.56.79-2.65v-25.65c0-.17.06-.31.18-.43.12-.12.26-.18.43-.18h5.97c.17,0,.31.06.43.18s.18.26.18.43v24.94c0,3.2-.93,5.75-2.78,7.67-1.85,1.92-4.29,2.88-7.32,2.88s-5.52-.96-7.37-2.88Z"/>
      <path class="st2" d="M617.57,114.66l-3.93-14.07c-.07-.14-.15-.2-.25-.2h-1.73c-.17,0-.26.08-.26.25v13.92c0,.17-.06.31-.18.43s-.26.18-.43.18h-5.97c-.17,0-.31-.06-.43-.18-.12-.12-.18-.26-.18-.43v-34.47c0-.17.06-.31.18-.43s.26-.18.43-.18h10.3c1.87,0,3.54.45,5,1.35,1.46.9,2.59,2.17,3.39,3.8s1.2,3.5,1.2,5.61-.38,3.77-1.15,5.3c-.77,1.53-1.83,2.72-3.19,3.57-.07.03-.12.08-.15.13s-.03.11,0,.18l4.69,15.04.05.2c0,.34-.19.51-.56.51h-6.12c-.38,0-.61-.17-.71-.51ZM611.4,85.9v8.72c0,.17.08.25.26.25h2.29c1.05,0,1.91-.42,2.58-1.25.66-.83,1-1.95,1-3.34s-.33-2.56-1-3.39c-.66-.83-1.52-1.25-2.58-1.25h-2.29c-.17,0-.26.08-.26.25Z"/>
      <path class="st2" d="M647.22,85.47c-.12.12-.26.18-.43.18h-10.66c-.17,0-.26.08-.26.25v8.06c0,.17.08.25.26.25h6.12c.17,0,.31.06.43.18.12.12.18.26.18.43v4.95c0,.17-.06.32-.18.43-.12.12-.26.18-.43.18h-6.12c-.17,0-.26.08-.26.25v8.11c0,.17.08.25.26.25h10.66c.17,0,.31.06.43.18s.18.26.18.43v4.95c0,.17-.06.31-.18.43-.12.12-.26.18-.43.18h-17.49c-.17,0-.31-.06-.43-.18-.12-.12-.18-.26-.18-.43v-34.47c0-.17.06-.31.18-.43s.26-.18.43-.18h17.49c.17,0,.31.06.43.18s.18.26.18.43v4.95c0,.17-.06.31-.18.43Z"/>
    </g>
  </g>
  <g>
    <path class="st0" d="M309.77,61.52l-.82-4.9c0-.17-.1-.25-.31-.25h-6.48c-.2,0-.31.09-.31.25l-.82,4.9c-.03.38-.25.56-.66.56h-5.97c-.44,0-.61-.22-.51-.66l7.5-34.47c.07-.37.29-.56.66-.56h6.88c.37,0,.59.19.66.56l7.45,34.47.05.2c0,.31-.19.46-.56.46h-6.12c-.41,0-.63-.19-.66-.56ZM303.09,50.81h4.59c.17,0,.24-.08.2-.25l-2.4-13.92c-.03-.1-.08-.15-.15-.15s-.12.05-.15.15l-2.29,13.92c0,.17.07.25.2.25Z"/>
    <path class="st0" d="M337.69,26.56c.12.12.18.26.18.43v4.95c0,.17-.06.31-.18.43-.12.12-.26.18-.43.18h-6.37c-.17,0-.25.08-.25.25v28.66c0,.17-.06.31-.18.43-.12.12-.26.18-.43.18h-5.97c-.17,0-.31-.06-.43-.18-.12-.12-.18-.26-.18-.43v-28.66c0-.17-.08-.25-.25-.25h-6.12c-.17,0-.31-.06-.43-.18-.12-.12-.18-.26-.18-.43v-4.95c0-.17.06-.31.18-.43.12-.12.26-.18.43-.18h20.19c.17,0,.31.06.43.18Z"/>
    <path class="st0" d="M352.63,61.9c-.12-.12-.18-.26-.18-.43V27c0-.17.06-.31.18-.43.12-.12.26-.18.43-.18h5.97c.17,0,.31.06.43.18.12.12.18.26.18.43v34.47c0,.17-.06.31-.18.43s-.26.18-.43.18h-5.97c-.17,0-.31-.06-.43-.18Z"/>
    <path class="st0" d="M364.82,61.9c-.12-.12-.18-.26-.18-.43V27c0-.17.06-.31.18-.43.12-.12.26-.18.43-.18h5.97c.17,0,.31.06.43.18.12.12.18.26.18.43v12.85c0,.14.04.21.13.23.08.02.14-.04.18-.18l6.58-13.05c.17-.31.41-.46.71-.46h6.32c.24,0,.4.06.48.18.08.12.08.3-.03.54l-7.55,14.69c-.03.14-.05.24-.05.31l8.01,19.28c.03.07.05.17.05.31,0,.27-.17.41-.51.41h-6.37c-.37,0-.61-.15-.71-.46l-5.3-13.36c-.03-.1-.09-.14-.15-.13-.07.02-.14.06-.2.13l-1.48,2.65c-.07.14-.1.24-.1.31v10.25c0,.17-.06.31-.18.43s-.26.18-.43.18h-5.97c-.17,0-.31-.06-.43-.18Z"/>
    <path class="st0" d="M390.31,61.9c-.12-.12-.18-.26-.18-.43V27c0-.17.06-.31.18-.43s.26-.18.43-.18h5.97c.17,0,.31.06.43.18.12.12.18.26.18.43v34.47c0,.17-.06.31-.18.43s-.26.18-.43.18h-5.97c-.17,0-.31-.06-.43-.18Z"/>
    <path class="st0" d="M404.59,59.86c-1.85-1.75-2.78-4.09-2.78-7.01v-17.24c0-2.92.93-5.26,2.78-7.01,1.85-1.75,4.31-2.63,7.37-2.63s5.52.88,7.39,2.65c1.87,1.77,2.8,4.11,2.8,7.04v1.94c0,.17-.06.31-.18.43s-.26.18-.43.18h-5.97c-.17,0-.32-.06-.43-.18-.12-.12-.18-.26-.18-.43v-2.04c0-1.02-.27-1.84-.82-2.47-.54-.63-1.27-.94-2.19-.94s-1.6.32-2.14.94c-.54.63-.82,1.45-.82,2.47v17.34c0,1.02.27,1.84.82,2.47.54.63,1.26.94,2.14.94s1.65-.31,2.19-.94c.54-.63.82-1.45.82-2.47v-4.08c0-.17-.08-.25-.25-.25h-2.24c-.17,0-.31-.06-.43-.18s-.18-.26-.18-.43v-4.54c0-.17.06-.31.18-.43s.26-.18.43-.18h9.08c.17,0,.31.06.43.18s.18.26.18.43v9.43c0,2.92-.93,5.26-2.8,7.01-1.87,1.75-4.33,2.63-7.39,2.63s-5.52-.87-7.37-2.63Z"/>
    <path class="st0" d="M440.42,61.52l-.82-4.9c0-.17-.1-.25-.31-.25h-6.48c-.2,0-.31.09-.31.25l-.82,4.9c-.03.38-.25.56-.66.56h-5.97c-.44,0-.61-.22-.51-.66l7.5-34.47c.07-.37.29-.56.66-.56h6.88c.37,0,.59.19.66.56l7.45,34.47.05.2c0,.31-.19.46-.56.46h-6.12c-.41,0-.63-.19-.66-.56ZM433.74,50.81h4.59c.17,0,.24-.08.21-.25l-2.4-13.92c-.03-.1-.08-.15-.15-.15s-.12.05-.15.15l-2.29,13.92c0,.17.07.25.2.25Z"/>
    <path class="st0" d="M451.3,61.9c-.12-.12-.18-.26-.18-.43V27c0-.17.06-.31.18-.43.12-.12.26-.18.43-.18h5.97c.17,0,.31.06.43.18.12.12.18.26.18.43v34.47c0,.17-.06.31-.18.43s-.26.18-.43.18h-5.97c-.17,0-.31-.06-.43-.18Z"/>
    <path class="st0" d="M462.72,66.9c-.12-.12-.16-.28-.13-.48l1.12-11.83c.07-.37.27-.56.61-.56h5.2c.48,0,.66.22.56.66l-2.7,11.83c-.1.37-.32.56-.66.56h-3.52c-.2,0-.37-.06-.48-.18Z"/>
  </g>
</svg>