<?xml version="1.0" encoding="UTF-8"?>
<svg xmlns="http://www.w3.org/2000/svg" xmlns:xlink="http://www.w3.org/1999/xlink" version="1.1" viewBox="0 0 450 392.68">
  <!-- Generator: Adobe Illustrator 29.5.1, SVG Export Plug-In . SVG Version: 2.1.0 Build 141)  -->
  <defs>
    <style>
      .st0 {
        filter: url(#outer-glow-1);
      }

      .st0, .st1, .st2, .st3 {
        fill: #6d6af3;
      }

      .st1 {
        filter: url(#outer-glow-2);
      }

      .st4 {
        opacity: .76;
      }

      .st4, .st3, .st5, .st6 {
        mix-blend-mode: multiply;
      }

      .st4, .st7 {
        fill: #c6c6f5;
      }

      .st8 {
        isolation: isolate;
      }

      .st3, .st6 {
        opacity: .35;
      }

      .st5 {
        fill: #ccc;
        opacity: .29;
      }

      .st9 {
        fill: #f7f7f7;
      }

      .st10 {
        fill: #6868d2;
      }

      .st11, .st6 {
        fill: #ededed;
      }

      .st12 {
        fill: #a4a4f6;
      }

      .st13 {
        mix-blend-mode: screen;
        opacity: .64;
      }
    </style>
    <filter id="outer-glow-1" x="251.73" y="328.74" width="47" height="38" filterUnits="userSpaceOnUse">
      <feOffset dx="0" dy="0"/>
      <feGaussianBlur result="blur" stdDeviation="1"/>
      <feFlood flood-color="#cdcac8" flood-opacity=".5"/>
      <feComposite in2="blur" operator="in"/>
      <feComposite in="SourceGraphic"/>
    </filter>
    <filter id="outer-glow-2" x="46.73" y="59.74" width="47" height="38" filterUnits="userSpaceOnUse">
      <feOffset dx="0" dy="0"/>
      <feGaussianBlur result="blur1" stdDeviation="1"/>
      <feFlood flood-color="#cdcac8" flood-opacity=".5"/>
      <feComposite in2="blur1" operator="in"/>
      <feComposite in="SourceGraphic"/>
    </filter>
  </defs>
  <g class="st8">
    <g id="Layer_1">
      <g>
        <g>
          <g>
            <polygon class="st9" points="78.83 90.51 87.96 48.14 244.14 48.55 132.29 123.56 78.83 90.51"/>
            <polygon class="st9" points="265.61 335.9 308.88 338.39 350.09 187.74 247.99 275.57 265.61 335.9"/>
            <path class="st5" d="M267.71,338.74l41.17-.35,18.72-68.43c-.22.04-.46.05-.68.09-14.88,2.66-27.66,9.61-37.72,19.81l-28.57,28.96.07.23c1.94,4.94,2.75,13.7,7.02,19.69Z"/>
          </g>
          <g>
            <path class="st10" d="M51.79,213.34C12.18,229.75-7.82,275.47,2.85,342.13h0s0,0,0,0c61.41,28.04,110.81,20.94,137.17-12.87l-88.23-115.92Z"/>
            <path class="st12" d="M69.99,219.56c-38.16,18.31-61.38,59.8-58.61,116.08h0c53.51,17.66,99.68,6.32,127.5-25.58l-68.88-90.5Z"/>
            <path class="st7" d="M86.62,226.31c-36.75,20.16-63.09,57.55-67.97,103.79h0c45.87,7.62,88.93-7.81,118.14-37.87l-50.18-65.92Z"/>
            <path class="st4" d="M130.16,339.65c3.56-3.13,6.87-6.56,9.86-10.39l-88.23-115.92c-4.48,1.86-8.68,4.14-12.64,6.73l91.01,119.57Z"/>
          </g>
          <g>
            <path class="st2" d="M450,1.77h0c-45.57-4.07-88.5-1.11-127.82,8.69,10.73,19.6,23.65,39.57,38.6,59.21,14.95,19.64,30.76,37.42,46.79,52.98,19.92-35.29,34.21-75.88,42.42-120.89h0Z"/>
            <g>
              <path class="st11" d="M350.41,195.63c22.39-20.77,41.52-45.24,57.17-72.97-16.03-15.57-31.84-33.34-46.79-52.98-14.95-19.64-27.87-39.61-38.6-59.21-30.9,7.7-59.58,19.62-85.56,35.67l-67.66,39.68c-45.64,26.77-84.16,64.14-112.29,108.94h0s102.56,134.74,102.56,134.74h0c50.68-15.19,96.96-42.36,134.91-79.22l56.27-54.64Z"/>
              <path class="st2" d="M68.29,177.53c-4.04,5.61-7.93,11.35-11.62,17.22h0s102.56,134.74,102.56,134.74c6.65-1.99,13.21-4.22,19.7-6.62l-110.63-145.35Z"/>
            </g>
            <path class="st5" d="M294.14,250.27l56.27-54.64c22.39-20.77,41.52-45.24,57.17-72.97,18.15-32.17,31.58-68.77,40.04-109.08-6.76,18.49-14.71,35.99-23.92,52.3-15.65,27.73-34.78,52.2-57.17,72.97l-56.27,54.64c-.38.37-.76.74-1.14,1.1-59.62,57.35-156.5,48.26-206.61-17.57l-16.55-21.75c-10.67,12.41-20.54,25.53-29.29,39.47h0s102.56,134.74,102.56,134.74c50.68-15.19,96.96-42.36,134.92-79.22Z"/>
            <path class="st3" d="M164.45,327.25L60.23,190.33c-.1-.13-.25-.19-.36-.31-1.05,1.6-2.18,3.12-3.2,4.74h0s102.56,134.74,102.56,134.74c1.83-.55,3.61-1.24,5.43-1.82-.09-.13-.11-.3-.21-.43Z"/>
            <path class="st2" d="M144.88,342.14L40.66,205.22c-3.19-4.19-2.38-10.18,1.81-13.37h0c4.19-3.19,10.18-2.38,13.37,1.81l104.22,136.92c3.19,4.19,2.38,10.18-1.81,13.37h0c-4.19,3.19-10.18,2.38-13.37-1.81Z"/>
          </g>
          <g>
            <path class="st6" d="M299.39,230.04c-35.07,26.7-85.14,19.9-111.84-15.17-26.69-35.07-19.9-85.14,15.17-111.84,35.07-26.7,85.14-19.9,111.84,15.17,26.69,35.07,19.9,85.14-15.17,111.84Z"/>
            <path class="st2" d="M300.33,220.46c-35.07,26.69-85.14,19.9-111.84-15.17-26.7-35.07-19.9-85.14,15.17-111.84,35.07-26.69,85.14-19.9,111.84,15.17,26.7,35.07,19.9,85.14-15.17,111.84Z"/>
            <path class="st7" d="M292.6,210.31c-29.46,22.43-71.53,16.72-93.96-12.74-22.43-29.46-16.72-71.53,12.74-93.96,29.46-22.43,71.53-16.72,93.96,12.74,22.43,29.46,16.72,71.53-12.74,93.96Z"/>
            <g class="st13">
              <path class="st7" d="M282.35,97.25l-70.39,5.97c-.19.14-.39.25-.57.39-4.89,3.72-9.05,8.02-12.61,12.67l98.82-8.38c-4.64-4.32-9.77-7.87-15.25-10.65Z"/>
              <path class="st7" d="M313.5,130.43l-126.65,10.74c-2.06,8.54-2.47,17.44-1.1,26.18l133.21-11.3c-.11-8.7-1.91-17.4-5.46-25.62Z"/>
              <path class="st7" d="M290.11,212.02c.83-.57,1.68-1.09,2.49-1.71,3.64-2.77,6.92-5.85,9.83-9.17l-92.62,7.85c4.28,3.47,8.89,6.38,13.77,8.66l66.53-5.64Z"/>
              <path class="st7" d="M313.16,184.43c1.64-3.66,2.91-7.45,3.87-11.32l-126.4,10.72c1.59,3.61,3.52,7.12,5.79,10.5l116.74-9.9Z"/>
            </g>
          </g>
        </g>
        <g>
          <g>
            <g>
              <path class="st10" d="M262.21,329.67c-23.19,13.55-41.12,36.3-46.69,62.84h0c27.06,1.7,53.76-9.53,73-28.27l-26.31-34.57Z"/>
              <path class="st12" d="M270.58,329.29c-22.76,14.12-41.65,35.6-49.58,59.05h0c24.71-1.4,50.45-13.89,70.12-32.06l-20.54-26.99Z"/>
              <path class="st7" d="M278.05,329.39c-22.34,14.67-42.16,34.93-52.37,55.38h0,0c22.43-4.39,47.24-18.1,67.33-35.73l-14.96-19.66Z"/>
            </g>
            <g>
              <path class="st10" d="M265.81,326.93c-23.19,13.55-41.12,36.3-46.69,62.84h0c27.06,1.7,53.76-9.53,73-28.27l-26.31-34.57Z"/>
              <path class="st12" d="M274.18,326.55c-22.76,14.12-41.65,35.6-49.58,59.05h0c24.71-1.4,50.45-13.89,70.12-32.06l-20.54-26.99Z"/>
              <path class="st7" d="M281.65,326.65c-22.34,14.67-42.16,34.93-52.37,55.38h0s0,0,0,0c22.43-4.39,47.24-18.1,67.33-35.72l-14.96-19.66Z"/>
            </g>
            <g>
              <path class="st2" d="M266.08,326.04l-2.74,2.78h0c2.99,9.1,17.85,29.6,26.31,34.57l3.25-1.81c-9.8-6.86-22.55-24.49-26.82-35.53Z"/>
              <path class="st9" d="M357.75,310.55c4.75-9.93,8.05-21.25,9.79-33.75-12.51-1.65-24.3-1.49-35.14.44-14.88,2.66-27.66,9.61-37.72,19.81l-28.6,28.98c4.27,11.04,17.01,28.67,26.82,35.53l35.71-19.94c12.52-6.99,22.62-17.45,29.14-31.08Z"/>
            </g>
            <path class="st2" d="M323.03,279.45c3.18,7.33,7.41,14.62,12.69,21.56,5.28,6.94,11.18,12.96,17.4,17.98,7.27-11.79,12.16-25.99,14.41-42.19-16.22-2.14-31.2-1.22-44.5,2.65Z"/>
            <polygon class="st0" points="259.65 363.44 255.29 357.71 293.04 331.74 294.74 333.97 259.65 363.44"/>
            <path class="st5" d="M328.6,341.63c9.82-5.48,18.12-13.13,24.4-22.74.04.03.08.07.12.1.68-1.1,1.32-2.24,1.95-3.39.04-.06.07-.12.11-.18.54-.98,1.06-1.98,1.57-2.99.32-.63.68-1.23.99-1.88.86-1.8,1.66-3.67,2.43-5.56.07-.17.14-.35.21-.52.62-1.55,1.21-3.13,1.76-4.74.03-.08.06-.16.09-.25.59-1.73,1.14-3.48,1.65-5.27.02-.09.05-.18.07-.26.45-1.57.86-3.17,1.24-4.79.11-.47.22-.95.33-1.42.3-1.31.57-2.64.83-3.98.1-.5.2-1.01.29-1.51.32-1.79.62-3.6.88-5.44-1.84-.24-3.67-.44-5.48-.6-.51-.05-1.02-.08-1.54-.12-.39-.03-.77-.05-1.16-.07-.19.95-.38,1.91-.59,2.84-.11.48-.21.95-.33,1.42-.39,1.62-.8,3.22-1.24,4.79-.02.09-.05.18-.07.26-.51,1.79-1.07,3.55-1.65,5.27-.03.08-.06.16-.09.25-.55,1.61-1.14,3.19-1.76,4.74-.07.17-.14.35-.21.52-.77,1.89-1.56,3.76-2.43,5.56-.31.65-.66,1.25-.99,1.88-.51,1.01-1.03,2.01-1.57,2.99-.03.06-.07.12-.11.18-.64,1.14-1.28,2.29-1.95,3.39-.04-.03-.08-.07-.12-.1-6.29,9.61-14.59,17.26-24.4,22.74l-35.71,19.94-2.13,1.19c-3.08,2.89-6.32,5.61-9.74,8.1-16.02,12.82-35.87,20.86-56.4,21.73-.93,2.88-1.72,5.82-2.34,8.8h0c23.7,1.49,47.13-6.94,65.51-21.65,3.41-2.49,6.66-5.21,9.74-8.1l2.13-1.19,35.71-19.94Z"/>
          </g>
          <g>
            <g>
              <path class="st10" d="M57.52,60.75c-23.19,13.55-41.12,36.3-46.69,62.84h0c27.06,1.7,53.76-9.53,73-28.27l-26.31-34.57Z"/>
              <path class="st12" d="M65.89,60.37c-22.76,14.12-41.65,35.6-49.58,59.05h0c24.71-1.4,50.45-13.89,70.12-32.06l-20.54-26.99Z"/>
              <path class="st7" d="M73.36,60.47c-22.34,14.67-42.16,34.93-52.37,55.38h0c22.43-4.39,47.24-18.1,67.33-35.73l-14.96-19.66Z"/>
            </g>
            <g>
              <path class="st10" d="M61.12,58.02c-23.19,13.55-41.12,36.3-46.69,62.84h0c27.06,1.7,53.76-9.53,73-28.27l-26.31-34.57Z"/>
              <path class="st12" d="M69.49,57.63c-22.76,14.12-41.65,35.6-49.58,59.05h0c24.71-1.4,50.45-13.89,70.12-32.06l-20.54-26.99Z"/>
              <path class="st7" d="M76.96,57.73c-22.34,14.67-42.16,34.93-52.37,55.38h0,0c22.43-4.39,47.24-18.1,67.33-35.73l-14.96-19.66Z"/>
            </g>
            <g>
              <path class="st2" d="M61.39,57.12l-2.74,2.78h0c2.99,9.1,17.85,29.6,26.31,34.57l3.25-1.81c-9.8-6.86-22.54-24.49-26.82-35.53Z"/>
              <path class="st9" d="M153.06,41.63c4.75-9.93,8.05-21.25,9.79-33.75-12.51-1.65-24.3-1.49-35.14.44-14.88,2.66-27.66,9.61-37.72,19.81l-28.6,28.98c4.27,11.04,17.01,28.67,26.82,35.53l35.71-19.94c12.52-6.99,22.62-17.45,29.14-31.08Z"/>
            </g>
            <path class="st2" d="M118.34,10.53c3.18,7.33,7.41,14.62,12.69,21.56,5.28,6.94,11.18,12.96,17.4,17.98,7.27-11.79,12.16-25.99,14.41-42.19-16.22-2.14-31.2-1.22-44.5,2.65Z"/>
            <polygon class="st1" points="54.96 94.52 50.6 88.79 88.35 62.82 90.05 65.05 54.96 94.52"/>
            <path class="st5" d="M123.91,72.72c9.82-5.48,18.12-13.13,24.4-22.74.04.03.08.07.12.1.68-1.1,1.32-2.24,1.95-3.39.04-.06.07-.12.11-.18.54-.98,1.06-1.98,1.57-2.99.32-.63.68-1.23.99-1.88.86-1.8,1.66-3.67,2.43-5.56.07-.17.14-.34.21-.52.62-1.55,1.21-3.13,1.76-4.74.03-.08.06-.16.09-.25.59-1.73,1.14-3.48,1.65-5.27.02-.09.05-.18.07-.26.45-1.57.86-3.17,1.24-4.79.11-.47.22-.95.33-1.42.3-1.31.57-2.64.83-3.98.1-.5.2-1.01.29-1.51.32-1.79.62-3.6.88-5.44-1.84-.24-3.67-.44-5.48-.6-.51-.05-1.02-.08-1.54-.12-.39-.03-.77-.05-1.16-.07-.19.95-.38,1.91-.6,2.84-.11.48-.21.95-.33,1.42-.39,1.62-.8,3.22-1.24,4.79-.02.09-.05.18-.07.26-.51,1.79-1.07,3.55-1.65,5.27-.03.08-.06.16-.09.25-.55,1.61-1.14,3.19-1.76,4.74-.07.17-.14.35-.21.52-.77,1.89-1.56,3.76-2.43,5.56-.31.65-.66,1.25-.99,1.88-.51,1.01-1.03,2.01-1.57,2.99-.04.06-.07.12-.11.18-.64,1.14-1.28,2.29-1.95,3.39-.04-.03-.08-.07-.12-.1-6.29,9.61-14.59,17.26-24.4,22.74l-35.71,19.94-2.13,1.19c-3.08,2.89-6.32,5.61-9.74,8.1-16.02,12.82-35.87,20.86-56.4,21.74-.93,2.88-1.72,5.82-2.34,8.8h0c23.7,1.49,47.13-6.94,65.51-21.65,3.41-2.49,6.66-5.21,9.74-8.1l2.13-1.19,35.71-19.94Z"/>
          </g>
        </g>
      </g>
    </g>
  </g>
</svg>