<?xml version="1.0" encoding="UTF-8"?>
<svg xmlns="http://www.w3.org/2000/svg" version="1.1" viewBox="0 0 329.62 450">
  <!-- Generator: Adobe Illustrator 29.5.1, SVG Export Plug-In . SVG Version: 2.1.0 Build 141)  -->
  <defs>
    <style>
      .st0, .st1 {
        fill: #00d5b6;
      }

      .st0, .st2, .st3, .st4 {
        opacity: .35;
      }

      .st0, .st2, .st4 {
        mix-blend-mode: multiply;
      }

      .st5 {
        isolation: isolate;
      }

      .st6, .st2, .st3 {
        fill: #6d6af3;
      }

      .st3 {
        mix-blend-mode: screen;
      }

      .st7, .st4 {
        fill: #ededed;
      }
    </style>
  </defs>
  <g class="st5">
    <g id="Layer_1">
      <g>
        <g>
          <path class="st6" d="M20.72,252.45c1.69.75,4.45,1.96,7.68,2.78,6.74,1.71,11.47,7.71,11.93,14.65,1.04,15.66,4.01,29.29,5.57,46.58.56,6.24,1.29,12.68,4.46,18.08,6.91,11.77,22.78,14.54,36.38,13.39,13.6-1.14,27.48-4.89,40.66-1.34-7.75,34-15,68.61-21.45,103.41h204.31c-8.47-49.68-16.07-99.5-22.23-149.55-1.26-10.29-2.48-20.8-.35-30.95,2.66-12.66,10.26-23.6,16.65-34.84,28.54-50.26,36.32-112.77,5.6-164.05C261.35-10.49,143.97-23.4,76.33,40.55c-12.36,11.69-21.51,24.6-28.39,38.47-12.81,25.81-17.38,54.49-22.66,82.53-4.36,23.18-7.93,50.98-23.48,69.88-3.15,3.83-2.02,9.57,2.29,12.03,6.02,3.43,13.43,7.56,16.63,8.98Z"/>
          <path class="st3" d="M270.1,450h40.15c-8.47-49.68-16.07-99.5-22.23-149.55-1.26-10.29-2.48-20.8-.35-30.95.74-3.5,1.87-6.86,3.24-10.15-21.07,14.06-24.19,38.77-27.9,56.64-6.31,30.38-3.36,61.88.8,92.63,1.87,13.83,3.99,27.62,6.29,41.37Z"/>
          <path class="st2" d="M127.33,346.86c14.65.93,75.7-9.68,94.45-19.84,0,0-55.59,53.73-106.33,74.52,4.65-23.1,6.71-31.99,11.87-54.67Z"/>
          <path class="st3" d="M290.97,259.21l-.74.6c.32-.35.63-.72.95-1.07-.07.16-.14.31-.2.47Z"/>
        </g>
        <g>
          <g>
            <circle class="st1" cx="184.36" cy="228.32" r="10.7"/>
            <path class="st0" d="M184.36,217.62c-.11,0-.21.03-.32.03,3.83,1.63,6.52,5.43,6.52,9.85,0,5.8-4.62,10.5-10.38,10.67,1.28.55,2.7.85,4.18.85,5.91,0,10.7-4.79,10.7-10.7s-4.79-10.7-10.7-10.7Z"/>
          </g>
          <g>
            <path class="st7" d="M247.96,123.82c0-33.86-28.06-61.36-62.82-61.76-35.05-.41-64.03,27.11-64.37,61.16-.2,19.99,9.38,37.8,24.38,49.22,4.21,3.2,6.6,8.15,6.6,13.34v18.11h65.23v-18c0-5.24,2.41-10.25,6.66-13.49,14.81-11.31,24.32-28.86,24.32-48.58Z"/>
            <path class="st4" d="M247.96,123.82c0-24.74-15.01-46.03-36.64-55.89,2.16,19.17-.82,38.98-4.85,58.03-1.81,8.58-3.86,17.23-7.93,24.99-4.35,8.3-10.86,15.27-17.78,21.6-9.04,8.27-18.85,15.59-29.02,22.41v8.92h65.23v-18c0-5.24,2.41-10.25,6.66-13.49,14.81-11.31,24.32-28.86,24.32-48.58Z"/>
          </g>
          <g>
            <g>
              <rect class="st1" x="156.06" y="217.59" width="56.6" height="10.7" rx="1.11" ry="1.11"/>
              <path class="st0" d="M207.09,217.59c.43.71.67,1.51.67,2.37v.63c0,2.78-2.56,5.03-5.71,5.03h-45.18s-.09,0-.14,0c.96,1.58,2.86,2.66,5.04,2.66h45.18c3.16,0,5.71-2.25,5.71-5.03v-.63c0-2.74-2.48-4.96-5.58-5.02Z"/>
            </g>
            <g>
              <rect class="st1" x="152.86" y="207.81" width="62.99" height="10.69" rx="1.11" ry="1.11"/>
              <path class="st0" d="M210.28,207.81c.43.71.67,1.51.67,2.37v.63c0,2.78-2.56,5.03-5.71,5.03h-51.56s-.09,0-.14,0c.96,1.58,2.86,2.66,5.04,2.66h51.56c3.16,0,5.71-2.25,5.71-5.03v-.63c0-2.74-2.48-4.96-5.58-5.02Z"/>
            </g>
            <g>
              <rect class="st1" x="149.12" y="198.03" width="70.47" height="10.7" rx="1.11" ry="1.11"/>
              <path class="st0" d="M214.02,198.04c.43.71.67,1.51.67,2.37v.63c0,2.78-2.56,5.03-5.71,5.03h-59.05s-.09,0-.14,0c.96,1.58,2.86,2.66,5.04,2.66h59.05c3.16,0,5.71-2.25,5.71-5.03v-.63c0-2.74-2.48-4.96-5.58-5.02Z"/>
            </g>
          </g>
        </g>
      </g>
    </g>
  </g>
</svg>