<?xml version="1.0" encoding="UTF-8"?>
<svg id="Layer_1" xmlns="http://www.w3.org/2000/svg" version="1.1" viewBox="0 0 90 90">
  <!-- Generator: Adobe Illustrator 29.5.1, SVG Export Plug-In . SVG Version: 2.1.0 Build 141)  -->
  <defs>
    <style>
      .st0 {
        fill: #1e4bff;
        fill-rule: evenodd;
      }

      .st1 {
        fill: #00e1ff;
      }
    </style>
  </defs>
  <rect class="st1" width="90" height="90"/>
  <g>
    <g>
      <path d="M46.13,22.67c.56.14,1.2.11,1.78.19,6.95.88,13.33,5.32,16.69,11.41.44.8,1.64,3.15,1.62,3.97-.05,1.73-2.35,2.33-3.24.87-.51-.82-.84-2.08-1.35-3.01-7.07-13.05-25.96-13.28-33.16-.23-8.11,14.7,5.71,31.83,21.82,27.2,2.04-.59,3.18-1.43,4.97-2.28,2.27-1.08,3.74,1.53,1.95,2.9-2.07,1.58-6.05,2.94-8.62,3.34l-2.38.29c-.84-.03-1.69.05-2.53,0-9.81-.55-18.31-7.7-20.48-17.26-3.03-13.41,6.49-26.37,20.18-27.29l.21-.09h2.53Z"/>
      <path d="M67.35,47.61c-.66,6.82-9.17,9.58-13.89,4.49-.16-.17-.64-.96-.82-.92-4.24,5.32-12.68,4.7-16.13-1.16-3.02-5.12-.85-11.79,4.61-14.08,3.56-1.5,7.36-.82,10.33,1.56-.11-2.29,2.89-2.78,3.47-.55.27,3.33-.3,7.07.03,10.34.44,4.37,6.56,5.49,8.47,1.42.45-.95.25-1.82.55-2.59.61-1.57,3.01-1.29,3.36.35-.03.37.03.77,0,1.13ZM51.36,44.99c0-3.51-2.85-6.36-6.37-6.36s-6.37,2.85-6.37,6.36,2.85,6.36,6.37,6.36,6.37-2.85,6.37-6.36Z"/>
    </g>
    <g>
      <path class="st0" d="M46.13,22.67c.56.14,1.2.11,1.78.19,6.95.88,13.33,5.32,16.69,11.41.44.8,1.64,3.15,1.62,3.97-.05,1.73-2.35,2.33-3.24.87-.51-.82-.84-2.08-1.35-3.01-7.07-13.05-25.96-13.28-33.16-.23-8.11,14.7,5.71,31.83,21.82,27.2,2.04-.59,3.18-1.43,4.97-2.28,2.27-1.08,3.74,1.53,1.95,2.9-2.07,1.58-6.05,2.94-8.62,3.34l-2.38.29c-.84-.03-1.69.05-2.53,0-9.81-.55-18.31-7.7-20.48-17.26-3.03-13.41,6.49-26.37,20.18-27.29l.21-.09h2.53Z"/>
      <path class="st0" d="M67.35,47.61c-.66,6.82-9.17,9.58-13.89,4.49-.16-.17-.64-.96-.82-.92-4.24,5.32-12.68,4.7-16.13-1.16-3.02-5.12-.85-11.79,4.61-14.08,3.56-1.5,7.36-.82,10.33,1.56-.11-2.29,2.89-2.78,3.47-.55.27,3.33-.3,7.07.03,10.34.44,4.37,6.56,5.49,8.47,1.42.45-.95.25-1.82.55-2.59.61-1.57,3.01-1.29,3.36.35-.03.37.03.77,0,1.13ZM51.36,44.99c0-3.51-2.85-6.36-6.37-6.36s-6.37,2.85-6.37,6.36,2.85,6.36,6.37,6.36,6.37-2.85,6.37-6.36Z"/>
    </g>
  </g>
</svg>