<?xml version="1.0" encoding="UTF-8"?>
<svg id="Layer_1" xmlns="http://www.w3.org/2000/svg" version="1.1" viewBox="0 0 90 90">
  <!-- Generator: Adobe Illustrator 29.5.1, SVG Export Plug-In . SVG Version: 2.1.0 Build 141)  -->
  <defs>
    <style>
      .st0, .st1 {
        fill: #1e4bff;
      }

      .st1 {
        fill-rule: evenodd;
      }

      .st2 {
        fill: #00e1ff;
      }
    </style>
  </defs>
  <rect class="st2" width="90" height="90"/>
  <g>
    <g>
      <path d="M49.56,21.63c.49.15,1.07.12,1.58.2,8.66,1.23,15.74,8.28,17.01,16.94.08.54.06,1.14.21,1.66v1.64c-.34.7-1.45.82-1.76.07-.15-.38-.1-1.75-.16-2.3-.94-8.48-7.66-15.38-16.2-16.29-.57-.06-2,0-2.39-.16-.76-.3-.63-1.42.07-1.76h1.64Z"/>
      <path d="M28.19,28.22c.83-.11,1.48.14,2.12.66,2.17,2.55,5.37,4.87,7.44,7.44,2.31,2.87-1.65,4.81-3.2,6.75-.55.69-.68,1.3-.31,2.13.31.69,1.74,2.26,1.81,2.76.15.97-.95,1.41-1.64.72-.42-.42-1.54-2.1-1.81-2.66-1.66-3.38,2.1-5.29,3.9-7.48.14-.25.16-.57.02-.82l-7.31-7.39c-.51-.39-.73-.44-1.24-.05-4.14,3.25-5.78,7.66-3.38,12.6,4.08,8.4,11.27,16.03,19.28,20.79,3.71,2.2,6.93,3.96,11.29,2.01,1.93-.86,3.14-2.44,4.63-3.86.18-.31.13-.8-.14-1.06l-7.16-7.16c-.5-.39-.71-.42-1.23-.04-2.2,1.58-3.56,5.23-7.02,3.91-.69-.26-3.57-2.26-4.03-2.81-.61-.74,0-1.79.95-1.49,1.17.69,2.32,1.91,3.53,2.5.87.42,1.45.29,2.19-.28,1.94-1.51,3.89-5.54,6.76-3.19,2.57,2.1,4.88,5.24,7.44,7.44,2.02,2.32-1.06,4.86-2.79,6.25-5.71,4.58-11.1,2.05-16.46-1.33-7.56-4.77-14.03-11.75-18.22-19.66-2.63-4.96-2.92-9.48,1-13.87.8-.9,2.41-2.65,3.58-2.8Z"/>
      <path d="M48.08,27.12c.95-.19,3.23.29,4.22.57,5.33,1.5,9.47,6.15,10.38,11.62.1.6.3,2.06.19,2.6-.18.88-1.33,1.03-1.74.23-.01-6.12-4.12-11.64-10.18-12.91-1.01-.21-1.94-.16-2.89-.31s-.98-1.6.02-1.8Z"/>
      <path d="M48.17,32.6c.31-.05,1.08.05,1.41.09,3.94.57,7.18,3.85,7.73,7.79.1.7.3,1.83-.52,2.11-1.44.51-1.25-1.73-1.45-2.61-.6-2.6-2.82-4.76-5.41-5.36-.65-.15-1.36-.12-1.94-.25-.88-.2-.91-1.62.19-1.79Z"/>
      <path d="M48.24,38.1c1.66-.09,3.3,1.33,3.58,2.94.13.72.12,1.62-.84,1.62-1.18,0-.72-1.46-1.42-2.19-.56-.58-1.05-.4-1.66-.62-.87-.32-.76-1.69.34-1.75Z"/>
      <circle cx="37.83" cy="51.27" r=".9"/>
    </g>
    <g>
      <path class="st1" d="M49.56,21.63c.49.15,1.07.12,1.58.2,8.66,1.23,15.74,8.28,17.01,16.94.08.54.06,1.14.21,1.66v1.64c-.34.7-1.45.82-1.76.07-.15-.38-.1-1.75-.16-2.3-.94-8.48-7.66-15.38-16.2-16.29-.57-.06-2,0-2.39-.16-.76-.3-.63-1.42.07-1.76h1.64Z"/>
      <path class="st1" d="M28.19,28.22c.83-.11,1.48.14,2.12.66,2.17,2.55,5.37,4.87,7.44,7.44,2.31,2.87-1.65,4.81-3.2,6.75-.55.69-.68,1.3-.31,2.13.31.69,1.74,2.26,1.81,2.76.15.97-.95,1.41-1.64.72-.42-.42-1.54-2.1-1.81-2.66-1.66-3.38,2.1-5.29,3.9-7.48.14-.25.16-.57.02-.82l-7.31-7.39c-.51-.39-.73-.44-1.24-.05-4.14,3.25-5.78,7.66-3.38,12.6,4.08,8.4,11.27,16.03,19.28,20.79,3.71,2.2,6.93,3.96,11.29,2.01,1.93-.86,3.14-2.44,4.63-3.86.18-.31.13-.8-.14-1.06l-7.16-7.16c-.5-.39-.71-.42-1.23-.04-2.2,1.58-3.56,5.23-7.02,3.91-.69-.26-3.57-2.26-4.03-2.81-.61-.74,0-1.79.95-1.49,1.17.69,2.32,1.91,3.53,2.5.87.42,1.45.29,2.19-.28,1.94-1.51,3.89-5.54,6.76-3.19,2.57,2.1,4.88,5.24,7.44,7.44,2.02,2.32-1.06,4.86-2.79,6.25-5.71,4.58-11.1,2.05-16.46-1.33-7.56-4.77-14.03-11.75-18.22-19.66-2.63-4.96-2.92-9.48,1-13.87.8-.9,2.41-2.65,3.58-2.8Z"/>
      <path class="st1" d="M48.08,27.12c.95-.19,3.23.29,4.22.57,5.33,1.5,9.47,6.15,10.38,11.62.1.6.3,2.06.19,2.6-.18.88-1.33,1.03-1.74.23-.01-6.12-4.12-11.64-10.18-12.91-1.01-.21-1.94-.16-2.89-.31s-.98-1.6.02-1.8Z"/>
      <path class="st1" d="M48.17,32.6c.31-.05,1.08.05,1.41.09,3.94.57,7.18,3.85,7.73,7.79.1.7.3,1.83-.52,2.11-1.44.51-1.25-1.73-1.45-2.61-.6-2.6-2.82-4.76-5.41-5.36-.65-.15-1.36-.12-1.94-.25-.88-.2-.91-1.62.19-1.79Z"/>
      <path class="st1" d="M48.24,38.1c1.66-.09,3.3,1.33,3.58,2.94.13.72.12,1.62-.84,1.62-1.18,0-.72-1.46-1.42-2.19-.56-.58-1.05-.4-1.66-.62-.87-.32-.76-1.69.34-1.75Z"/>
      <circle class="st0" cx="37.83" cy="51.27" r=".9"/>
    </g>
  </g>
</svg>