<?xml version="1.0" encoding="UTF-8"?>
<svg id="Layer_1" xmlns="http://www.w3.org/2000/svg" xmlns:xlink="http://www.w3.org/1999/xlink" version="1.1" viewBox="0 0 1500 1081.35">
  <!-- Generator: Adobe Illustrator 29.6.1, SVG Export Plug-In . SVG Version: 2.1.1 Build 9)  -->
  <defs>
    <style>
      .st0 {
        fill: #40a5e6;
      }

      .st1 {
        fill: #f35e6a;
      }

      .st2 {
        fill: url(#linear-gradient2);
      }

      .st3 {
        fill: url(#linear-gradient1);
      }

      .st4 {
        fill: url(#linear-gradient9);
      }

      .st5 {
        fill: url(#linear-gradient3);
      }

      .st6 {
        fill: url(#linear-gradient6);
      }

      .st7 {
        fill: url(#linear-gradient8);
      }

      .st8 {
        fill: url(#linear-gradient7);
      }

      .st9 {
        fill: url(#linear-gradient5);
      }

      .st10 {
        fill: url(#linear-gradient4);
      }

      .st11 {
        fill: #ffcf00;
      }

      .st12 {
        fill: url(#linear-gradient11);
      }

      .st13 {
        fill: url(#linear-gradient10);
      }

      .st14 {
        fill: #a83150;
      }

      .st15 {
        fill: #01a;
      }

      .st16 {
        fill: url(#linear-gradient);
      }

      .st17 {
        fill: #d19500;
      }

      .st18 {
        fill: #fff;
      }

      .st19 {
        fill: #490f32;
      }

      .st20 {
        fill: #32c5f4;
      }

      .st21 {
        fill: #1967bc;
      }

      .st22 {
        fill: #9e4d8a;
      }
    </style>
    <linearGradient id="linear-gradient" x1="2955.81" y1="3356.61" x2="3207.67" y2="3215.11" gradientTransform="translate(-2422.66 -2308.52) rotate(90) scale(1 -1)" gradientUnits="userSpaceOnUse">
      <stop offset=".41" stop-color="#46a2e3"/>
      <stop offset="1" stop-color="#346ed7"/>
    </linearGradient>
    <linearGradient id="linear-gradient1" x1="2909.23" y1="3537.21" x2="3160.75" y2="3395.9" gradientTransform="translate(-2422.66 -2308.52) rotate(90) scale(1 -1)" gradientUnits="userSpaceOnUse">
      <stop offset=".41" stop-color="#ffcf00"/>
      <stop offset="1" stop-color="#ff9c18"/>
    </linearGradient>
    <linearGradient id="linear-gradient2" x1="2722.74" y1="3548.13" x2="2907.66" y2="3444.25" gradientTransform="translate(-2422.66 -2308.52) rotate(90) scale(1 -1)" gradientUnits="userSpaceOnUse">
      <stop offset=".41" stop-color="#ffcf00"/>
      <stop offset="1" stop-color="#ff9c18"/>
    </linearGradient>
    <linearGradient id="linear-gradient3" x1="1721.26" y1="5034.64" x2="1973.12" y2="4893.14" gradientTransform="translate(2347.53 -4292.9) rotate(-180) scale(1 -1)" gradientUnits="userSpaceOnUse">
      <stop offset=".41" stop-color="#9b5288"/>
      <stop offset="1" stop-color="#643c74"/>
    </linearGradient>
    <linearGradient id="linear-gradient4" x1="1674.68" y1="5215.24" x2="1926.2" y2="5073.94" gradientTransform="translate(2347.53 -4292.9) rotate(-180) scale(1 -1)" gradientUnits="userSpaceOnUse">
      <stop offset=".41" stop-color="#46a2e3"/>
      <stop offset="1" stop-color="#346ed7"/>
    </linearGradient>
    <linearGradient id="linear-gradient5" x1="1488.19" y1="5226.15" x2="1673.11" y2="5122.26" gradientTransform="translate(2347.53 -4292.9) rotate(-180) scale(1 -1)" gradientUnits="userSpaceOnUse">
      <stop offset=".41" stop-color="#46a2e3"/>
      <stop offset="1" stop-color="#346ed7"/>
    </linearGradient>
    <linearGradient id="linear-gradient6" x1="1558.41" y1="2184.27" x2="1810.27" y2="2042.77" gradientTransform="translate(2716.1 1992.47) rotate(-90) scale(1 -1)" gradientUnits="userSpaceOnUse">
      <stop offset=".41" stop-color="#f35e6a"/>
      <stop offset="1" stop-color="#ba4166"/>
    </linearGradient>
    <linearGradient id="linear-gradient7" x1="1511.83" y1="2364.87" x2="1763.36" y2="2223.57" gradientTransform="translate(2716.1 1992.47) rotate(-90) scale(1 -1)" gradientUnits="userSpaceOnUse">
      <stop offset=".41" stop-color="#9b5288"/>
      <stop offset="1" stop-color="#643c74"/>
    </linearGradient>
    <linearGradient id="linear-gradient8" x1="1325.34" y1="2375.79" x2="1510.26" y2="2271.9" gradientTransform="translate(2716.1 1992.47) rotate(-90) scale(1 -1)" gradientUnits="userSpaceOnUse">
      <stop offset=".41" stop-color="#9b5288"/>
      <stop offset="1" stop-color="#643c74"/>
    </linearGradient>
    <linearGradient id="linear-gradient9" x1="4580.25" y1="705.44" x2="4832.12" y2="563.94" gradientTransform="translate(-3740.76 1045.05) scale(1 -1)" gradientUnits="userSpaceOnUse">
      <stop offset=".41" stop-color="#ffcf00"/>
      <stop offset="1" stop-color="#ff9c18"/>
    </linearGradient>
    <linearGradient id="linear-gradient10" x1="4533.68" y1="886.03" x2="4785.2" y2="744.73" gradientTransform="translate(-3740.76 1045.05) scale(1 -1)" gradientUnits="userSpaceOnUse">
      <stop offset=".41" stop-color="#f35e6a"/>
      <stop offset="1" stop-color="#ba4166"/>
    </linearGradient>
    <linearGradient id="linear-gradient11" x1="4347.18" y1="896.95" x2="4532.1" y2="793.06" gradientTransform="translate(-3740.76 1045.05) scale(1 -1)" gradientUnits="userSpaceOnUse">
      <stop offset=".41" stop-color="#f35e6a"/>
      <stop offset="1" stop-color="#ba4166"/>
    </linearGradient>
  </defs>
  <rect class="st15" x="468.73" y="277.53" width="528.32" height="527.31"/>
  <g>
    <g id="_x3C_Radial_Repeat_x3E_">
      <path class="st16" d="M732.89,804.84h264.16v-264.16h0c-145.33,0-264.16,117.82-264.16,263.15v1.01h0Z"/>
      <path class="st3" d="M997.05,804.84h0c145.33,0,263.15-117.82,263.15-263.15v-1.01h-263.15v264.16h0Z"/>
      <path class="st2" d="M997.05,540.68h263.15v-1.01c0-145.33-117.82-263.15-263.15-263.15h0v264.16h0Z"/>
    </g>
    <g id="_x3C_Radial_Repeat_x3E_1">
      <path class="st5" d="M468.73,540.68v264.16h264.16c0-145.33-117.82-264.16-263.15-264.16h-1.01Z"/>
      <path class="st10" d="M468.73,804.84h0c0,145.33,117.82,263.15,263.15,263.15h1.01v-263.15h-264.16Z"/>
      <path class="st9" d="M732.89,804.84v263.15h1.01c145.33,0,263.15-117.82,263.15-263.15h-264.16Z"/>
    </g>
    <g id="_x3C_Radial_Repeat_x3E_2">
      <path class="st6" d="M732.89,276.52h-264.16v264.16h0c145.33,0,264.16-117.82,264.16-263.15v-1.01Z"/>
      <path class="st8" d="M468.73,276.52h0c-145.33,0-263.15,117.82-263.15,263.15v1.01h263.15v-264.16Z"/>
      <path class="st7" d="M468.73,540.68H205.57v1.01c0,145.33,117.82,263.15,263.15,263.15h0v-264.16h.01Z"/>
    </g>
    <g id="_x3C_Radial_Repeat_x3E_3">
      <path class="st4" d="M997.05,540.68v-264.16h-264.16c0,145.33,117.82,264.16,263.15,264.16h1.01,0Z"/>
      <path class="st13" d="M997.05,276.52h0c0-145.33-117.82-263.15-263.15-263.15h-1.01v263.15h264.16,0Z"/>
      <path class="st12" d="M732.89,276.52V13.37h-1.01c-145.33,0-263.15,117.82-263.15,263.15h264.16Z"/>
    </g>
    <rect class="st11" x="1241.98" y="539.15" width="207.13" height="3.06"/>
    <circle class="st11" cx="1452.41" cy="540.68" r="13.37"/>
    <g>
      <rect class="st1" x="735.33" y="11.84" width="251.11" height="3.06"/>
      <circle class="st1" cx="989.74" cy="13.37" r="13.37"/>
    </g>
    <g>
      <rect class="st22" x="16.66" y="552.51" width="207.13" height="3.06"/>
      <circle class="st22" cx="13.37" cy="554.04" r="13.37"/>
    </g>
    <g>
      <rect class="st0" x="481.87" y="1066.46" width="254.53" height="3.06"/>
      <circle class="st0" cx="478.58" cy="1067.99" r="13.37"/>
    </g>
    <g>
      <path class="st18" d="M653.04,148.69c1.74,1.11,3.09,2.68,4.05,4.69.96,2.02,1.44,4.3,1.44,6.87,0,3.86-1.02,6.96-3.05,9.32s-4.73,3.54-8.06,3.54h-5.47c-.22,0-.32.11-.32.32v17.87c0,.22-.08.4-.23.55s-.33.23-.55.23h-5.91c-.22,0-.4-.08-.55-.23s-.23-.33-.23-.55v-43.51c0-.22.08-.4.23-.55s.33-.23.55-.23h12.08c2.27,0,4.28.56,6.01,1.67h0ZM649.63,165.43c.96-1.22,1.44-2.89,1.44-4.98s-.48-3.84-1.44-5.11c-.96-1.26-2.24-1.89-3.82-1.89h-3.86c-.22,0-.32.1-.32.32v13.17c0,.22.1.32.32.32h3.86c1.58,0,2.86-.61,3.82-1.83Z"/>
      <path class="st18" d="M682.51,161.67c2.1,1.97,3.15,4.56,3.15,7.78v21.86c0,.22-.08.4-.23.55s-.33.23-.55.23h-5.91c-.22,0-.4-.08-.55-.23s-.23-.33-.23-.55v-1.23c0-.13-.04-.22-.13-.26-.09-.04-.17,0-.26.13-1.5,1.76-3.68,2.63-6.55,2.63-2.44,0-4.6-.7-6.46-2.09-1.86-1.39-2.8-3.93-2.8-7.61s1.12-6.6,3.37-8.23c2.25-1.63,5.3-2.44,9.16-2.44h3.35c.22,0,.32-.1.32-.32v-1.67c0-1.55-.38-2.77-1.16-3.69s-1.74-1.38-2.89-1.38c-.9,0-1.65.29-2.25.87s-.96,1.36-1.1,2.35c-.04.51-.32.77-.83.77h-6.23c-.51,0-.75-.26-.7-.77.22-2.91,1.36-5.25,3.44-7,2.08-1.76,4.68-2.63,7.81-2.63,3.38,0,6.13.98,8.23,2.95h0ZM676.72,185.19c.98-.82,1.48-1.95,1.48-3.41v-3.67c0-.22-.1-.32-.32-.32h-3.35c-1.46,0-2.63.4-3.54,1.19s-1.35,1.94-1.35,3.44c0,1.33.34,2.33,1.03,2.99.69.66,1.56,1,2.63,1,1.29,0,2.42-.41,3.41-1.23h0Z"/>
      <path class="st18" d="M692.98,190.02c-2.02-1.63-3.02-3.83-3.02-6.62v-.45c0-.22.08-.4.23-.55s.33-.23.55-.23h5.53c.22,0,.4.08.55.23s.23.33.23.55v.32c0,1.03.4,1.89,1.19,2.57.79.69,1.76,1.03,2.93,1.03s1.99-.32,2.63-.96c.64-.64.96-1.46.96-2.44,0-.86-.28-1.57-.83-2.16s-1.16-1.02-1.8-1.32-1.8-.79-3.47-1.48c-2.44-.94-4.45-2.14-6.01-3.6s-2.35-3.62-2.35-6.49.96-5.34,2.86-7.04c1.9-1.69,4.48-2.54,7.74-2.54s5.99.89,7.93,2.67,2.93,4.17,2.93,7.17c0,.22-.08.4-.23.55s-.33.23-.55.23h-5.4c-.22,0-.4-.08-.55-.23s-.23-.33-.23-.55v-.38c0-1.03-.36-1.89-1.06-2.57-.7-.69-1.6-1.03-2.67-1.03s-2.01.36-2.67,1.06-1,1.56-1,2.54c0,.82.26,1.5.77,2.06s1.1,1,1.74,1.32c.64.32,1.71.8,3.22,1.44,1.8.73,3.31,1.44,4.53,2.16,1.22.7,2.29,1.71,3.22,3.02.92,1.3,1.38,2.93,1.38,4.85,0,2.87-1.01,5.14-3.02,6.81s-4.74,2.51-8.16,2.51-6.08-.82-8.1-2.44h0Z"/>
      <path class="st18" d="M717.6,190.02c-2.02-1.63-3.02-3.83-3.02-6.62v-.45c0-.22.08-.4.23-.55s.33-.23.55-.23h5.53c.22,0,.4.08.55.23s.23.33.23.55v.32c0,1.03.4,1.89,1.19,2.57.79.69,1.76,1.03,2.93,1.03s1.99-.32,2.63-.96c.64-.64.96-1.46.96-2.44,0-.86-.28-1.57-.83-2.16s-1.16-1.02-1.8-1.32-1.8-.79-3.47-1.48c-2.44-.94-4.45-2.14-6.01-3.6s-2.35-3.62-2.35-6.49.96-5.34,2.86-7.04c1.9-1.69,4.48-2.54,7.74-2.54s5.99.89,7.94,2.67c1.95,1.78,2.93,4.17,2.93,7.17,0,.22-.08.4-.23.55s-.33.23-.55.23h-5.4c-.22,0-.4-.08-.55-.23s-.23-.33-.23-.55v-.38c0-1.03-.36-1.89-1.06-2.57s-1.6-1.03-2.67-1.03-2,.36-2.67,1.06-1,1.56-1,2.54c0,.82.26,1.5.77,2.06s1.1,1,1.74,1.32c.64.32,1.71.8,3.22,1.44,1.8.73,3.31,1.44,4.53,2.16,1.23.7,2.29,1.71,3.22,3.02.92,1.3,1.38,2.93,1.38,4.85,0,2.87-1.01,5.14-3.02,6.81s-4.74,2.51-8.16,2.51-6.08-.82-8.1-2.44h0Z"/>
      <path class="st18" d="M741.83,153.45c-.86-.86-1.29-1.95-1.29-3.28s.43-2.42,1.29-3.28,1.95-1.29,3.28-1.29,2.41.43,3.24,1.29c.83.86,1.25,1.95,1.25,3.28s-.43,2.42-1.29,3.28-1.93,1.29-3.22,1.29-2.42-.43-3.28-1.29h0ZM741.67,191.85c-.15-.15-.23-.33-.23-.55v-31.3c0-.22.08-.4.23-.55s.33-.23.55-.23h5.91c.22,0,.4.08.55.23s.23.33.23.55v31.3c0,.22-.08.4-.23.55s-.33.23-.55.23h-5.91c-.22,0-.4-.08-.55-.23Z"/>
      <path class="st18" d="M757.55,189.76c-2.03-1.89-3.05-4.43-3.05-7.65v-12.92c0-3.17,1.03-5.71,3.09-7.62,2.06-1.9,4.84-2.86,8.36-2.86s6.36.96,8.42,2.86c2.06,1.9,3.09,4.45,3.09,7.62v12.92c0,3.22-1.02,5.76-3.05,7.65s-4.85,2.83-8.46,2.83-6.35-.94-8.39-2.83h0ZM768.86,184.85c.75-.83,1.12-1.94,1.12-3.31v-11.83c0-1.33-.37-2.42-1.12-3.28s-1.73-1.29-2.93-1.29-2.16.42-2.89,1.25-1.1,1.94-1.1,3.31v11.83c0,1.37.36,2.48,1.1,3.31.73.83,1.69,1.25,2.89,1.25s2.17-.42,2.93-1.25Z"/>
      <path class="st18" d="M803.18,161.51c1.43,1.86,2.16,4.51,2.16,7.93v21.86c0,.22-.08.4-.23.55s-.33.23-.55.23h-5.91c-.22,0-.4-.08-.55-.23s-.23-.33-.23-.55v-21.27c0-1.55-.32-2.75-.96-3.6-.64-.86-1.56-1.29-2.76-1.29s-2.21.45-2.89,1.35-1.03,2.15-1.03,3.73v21.08c0,.22-.08.4-.23.55s-.33.23-.55.23h-5.92c-.22,0-.4-.08-.55-.23s-.23-.33-.23-.55v-31.3c0-.22.08-.4.23-.55s.33-.23.55-.23h5.92c.22,0,.4.08.55.23s.23.33.23.55v1.29c0,.13.05.2.17.23.1.03.23-.05.36-.23,1.46-1.71,3.49-2.57,6.11-2.57,2.79,0,4.89.93,6.34,2.8h-.02Z"/>
    </g>
    <g>
      <path class="st18" d="M958.26,385.47h5.92c.22,0,.4.08.55.23s.23.33.23.55v43.45c0,.22-.08.4-.23.55s-.33.23-.55.23h-5.92c-.22,0-.4-.08-.55-.23s-.23-.33-.23-.55v-30.34c0-.17-.04-.26-.13-.26s-.17.06-.26.19l-5.59,10.16c-.22.35-.41.51-.58.51s-.36-.17-.58-.51l-5.59-10.16c-.09-.13-.17-.19-.26-.19s-.13.09-.13.26v30.34c0,.22-.08.4-.23.55s-.33.23-.55.23h-5.91c-.22,0-.4-.08-.55-.23s-.23-.33-.23-.55v-43.45c0-.22.08-.4.23-.55s.33-.23.55-.23h5.91c.43,0,.75.17.96.51l6.23,10.99c.13.17.26.17.38,0l6.11-10.99c.22-.34.54-.51.96-.51h.02Z"/>
      <path class="st18" d="M971.83,391.83c-.86-.86-1.29-1.95-1.29-3.28s.43-2.42,1.29-3.28,1.95-1.29,3.28-1.29,2.41.43,3.24,1.29c.83.86,1.25,1.95,1.25,3.28s-.43,2.42-1.29,3.28-1.93,1.29-3.22,1.29-2.42-.43-3.28-1.29h0ZM971.66,430.23c-.15-.15-.23-.33-.23-.55v-31.3c0-.22.08-.4.23-.55s.33-.23.55-.23h5.91c.22,0,.4.08.55.23s.23.33.23.55v31.3c0,.22-.08.4-.23.55s-.33.23-.55.23h-5.91c-.22,0-.4-.08-.55-.23Z"/>
      <path class="st18" d="M986.99,428.41c-2.02-1.63-3.02-3.83-3.02-6.62v-.45c0-.22.08-.4.23-.55s.33-.23.55-.23h5.53c.22,0,.4.08.55.23s.23.33.23.55v.32c0,1.03.4,1.89,1.19,2.57.79.69,1.76,1.03,2.93,1.03s1.99-.32,2.63-.96c.64-.64.96-1.46.96-2.44,0-.86-.28-1.57-.83-2.16s-1.16-1.02-1.8-1.32c-.64-.3-1.8-.79-3.47-1.48-2.44-.94-4.45-2.14-6.01-3.6-1.56-1.46-2.35-3.62-2.35-6.49s.96-5.34,2.86-7.04,4.48-2.54,7.74-2.54,5.99.89,7.94,2.67c1.95,1.78,2.93,4.17,2.93,7.17,0,.22-.08.4-.23.55s-.33.23-.55.23h-5.4c-.22,0-.4-.08-.55-.23s-.23-.33-.23-.55v-.38c0-1.03-.36-1.89-1.06-2.57s-1.6-1.03-2.67-1.03-2,.36-2.67,1.06-1,1.56-1,2.54c0,.82.26,1.5.77,2.06.51.56,1.1,1,1.74,1.32s1.71.8,3.22,1.44c1.8.73,3.31,1.44,4.53,2.16,1.23.7,2.29,1.71,3.22,3.02.92,1.3,1.38,2.93,1.38,4.85,0,2.87-1.01,5.14-3.02,6.81-2.02,1.67-4.74,2.51-8.16,2.51s-6.08-.82-8.1-2.44h0Z"/>
      <path class="st18" d="M1011.61,428.41c-2.02-1.63-3.02-3.83-3.02-6.62v-.45c0-.22.08-.4.23-.55s.33-.23.55-.23h5.53c.22,0,.4.08.55.23s.23.33.23.55v.32c0,1.03.4,1.89,1.19,2.57.79.69,1.76,1.03,2.93,1.03s1.99-.32,2.63-.96c.64-.64.96-1.46.96-2.44,0-.86-.28-1.57-.83-2.16s-1.16-1.02-1.8-1.32c-.64-.3-1.8-.79-3.47-1.48-2.44-.94-4.45-2.14-6.01-3.6-1.56-1.46-2.35-3.62-2.35-6.49s.96-5.34,2.86-7.04,4.48-2.54,7.74-2.54,5.99.89,7.94,2.67c1.95,1.78,2.93,4.17,2.93,7.17,0,.22-.08.4-.23.55s-.33.23-.55.23h-5.4c-.22,0-.4-.08-.55-.23s-.23-.33-.23-.55v-.38c0-1.03-.36-1.89-1.06-2.57s-1.6-1.03-2.67-1.03-2,.36-2.67,1.06-1,1.56-1,2.54c0,.82.26,1.5.77,2.06.51.56,1.1,1,1.74,1.32s1.71.8,3.22,1.44c1.8.73,3.31,1.44,4.53,2.16,1.23.7,2.29,1.71,3.22,3.02.92,1.3,1.38,2.93,1.38,4.85,0,2.87-1.01,5.14-3.02,6.81-2.02,1.67-4.74,2.51-8.16,2.51s-6.08-.82-8.1-2.44h0Z"/>
      <path class="st18" d="M1035.84,391.83c-.86-.86-1.29-1.95-1.29-3.28s.43-2.42,1.29-3.28c.86-.86,1.95-1.29,3.28-1.29s2.41.43,3.24,1.29c.83.86,1.25,1.95,1.25,3.28s-.43,2.42-1.29,3.28-1.93,1.29-3.22,1.29-2.42-.43-3.28-1.29h0ZM1035.68,430.23c-.15-.15-.23-.33-.23-.55v-31.3c0-.22.08-.4.23-.55s.33-.23.55-.23h5.91c.22,0,.4.08.55.23s.23.33.23.55v31.3c0,.22-.08.4-.23.55s-.33.23-.55.23h-5.91c-.22,0-.4-.08-.55-.23Z"/>
      <path class="st18" d="M1051.56,428.15c-2.03-1.89-3.05-4.43-3.05-7.65v-12.92c0-3.17,1.03-5.71,3.09-7.62,2.06-1.9,4.84-2.86,8.36-2.86s6.36.96,8.42,2.86,3.09,4.45,3.09,7.62v12.92c0,3.22-1.02,5.76-3.05,7.65-2.03,1.89-4.85,2.83-8.46,2.83s-6.35-.94-8.39-2.83h0ZM1062.87,423.23c.75-.83,1.12-1.94,1.12-3.31v-11.83c0-1.33-.37-2.42-1.12-3.28s-1.73-1.29-2.93-1.29-2.16.42-2.89,1.25-1.1,1.94-1.1,3.31v11.83c0,1.37.37,2.48,1.1,3.31s1.69,1.25,2.89,1.25,2.17-.42,2.93-1.25Z"/>
      <path class="st18" d="M1097.2,399.89c1.43,1.86,2.16,4.51,2.16,7.93v21.86c0,.22-.08.4-.23.55s-.33.23-.55.23h-5.91c-.22,0-.4-.08-.55-.23s-.23-.33-.23-.55v-21.27c0-1.55-.32-2.75-.96-3.6-.64-.86-1.56-1.29-2.76-1.29s-2.21.45-2.89,1.35-1.03,2.15-1.03,3.73v21.08c0,.22-.08.4-.23.55s-.33.23-.55.23h-5.92c-.22,0-.4-.08-.55-.23s-.23-.33-.23-.55v-31.3c0-.22.08-.4.23-.55s.33-.23.55-.23h5.92c.22,0,.4.08.55.23s.23.33.23.55v1.29c0,.13.05.2.17.23.1.03.23-.05.36-.23,1.46-1.71,3.49-2.57,6.11-2.57,2.79,0,4.89.93,6.34,2.8h-.02Z"/>
    </g>
    <g>
      <path class="st18" d="M641.82,935.71l-9.19-43.45-.06-.26c0-.38.23-.58.7-.58h6.49c.51,0,.79.23.83.7l5.34,30.92c.04.13.1.19.19.19s.15-.06.19-.19l5.21-30.92c.04-.47.32-.7.83-.7h6.3c.56,0,.77.28.64.83l-9.26,43.45c-.09.47-.36.7-.83.7h-6.55c-.47,0-.75-.23-.83-.7h0Z"/>
      <path class="st18" d="M692.95,934.1c-2.03-1.89-3.05-4.43-3.05-7.65v-12.98c0-3.13,1.02-5.65,3.05-7.55s4.81-2.86,8.33-2.86,6.3.93,8.35,2.8c2.06,1.86,3.09,4.23,3.09,7.1v.9c0,.22-.08.4-.23.55s-.33.23-.55.23l-5.91.26c-.51,0-.77-.26-.77-.77v-.64c0-1.07-.37-2-1.12-2.8-.75-.79-1.7-1.19-2.86-1.19s-2.1.43-2.82,1.29c-.73.86-1.1,1.95-1.1,3.28v11.89c0,1.33.36,2.42,1.1,3.28.73.86,1.67,1.29,2.82,1.29s2.11-.4,2.86-1.19,1.12-1.75,1.12-2.86v-.64c0-.22.08-.4.23-.55s.33-.23.55-.23l5.91.06c.22,0,.4.08.55.23s.23.33.23.55v1.16c0,2.95-1.03,5.34-3.09,7.17s-4.84,2.73-8.35,2.73-6.29-.94-8.33-2.83h0Z"/>
      <path class="st18" d="M736.95,906.02c2.1,1.97,3.15,4.56,3.15,7.78v21.86c0,.22-.08.4-.23.55s-.33.23-.55.23h-5.91c-.22,0-.4-.08-.55-.23s-.23-.33-.23-.55v-1.23c0-.13-.04-.22-.13-.26-.09-.04-.17,0-.25.13-1.5,1.76-3.68,2.63-6.55,2.63-2.44,0-4.6-.7-6.46-2.09-1.86-1.39-2.8-3.93-2.8-7.61s1.12-6.6,3.38-8.23c2.25-1.63,5.3-2.44,9.16-2.44h3.35c.22,0,.32-.1.32-.32v-1.67c0-1.55-.38-2.77-1.16-3.69s-1.73-1.38-2.89-1.38c-.9,0-1.65.29-2.25.87s-.96,1.36-1.1,2.35c-.04.51-.32.77-.83.77h-6.23c-.51,0-.75-.26-.7-.77.22-2.91,1.36-5.25,3.44-7,2.08-1.76,4.68-2.63,7.81-2.63,3.39,0,6.13.98,8.23,2.95h-.03ZM731.17,929.54c.98-.82,1.48-1.95,1.48-3.41v-3.67c0-.22-.1-.32-.32-.32h-3.35c-1.46,0-2.64.4-3.54,1.19-.9.79-1.35,1.94-1.35,3.44,0,1.33.34,2.33,1.03,2.99s1.56,1,2.63,1c1.29,0,2.42-.41,3.41-1.23h0Z"/>
      <path class="st18" d="M758.96,908.61c-.15.15-.33.23-.55.23h-3.99c-.22,0-.32.11-.32.32v16.84c0,1.5.28,2.54.83,3.12s1.39.84,2.51.81h.45c.22,0,.4.08.55.23s.23.33.23.55v4.94c0,.22-.08.4-.23.55s-.33.23-.55.23h-2.18c-2.91,0-5.11-.54-6.59-1.61s-2.22-3.09-2.22-6.04v-19.61c0-.22-.1-.32-.32-.32h-2.25c-.22,0-.4-.08-.55-.23s-.23-.33-.23-.55v-3.73c0-.22.08-.4.23-.55s.33-.23.55-.23h2.25c.22,0,.32-.1.32-.32v-7.07c0-.22.08-.4.23-.55s.33-.23.55-.23h5.66c.22,0,.4.08.55.23s.23.33.23.55v7.07c0,.22.1.32.32.32h3.99c.22,0,.4.08.55.23s.23.33.23.55v3.73c0,.22-.08.4-.23.55h-.02Z"/>
      <path class="st18" d="M764.2,897.79c-.86-.86-1.29-1.95-1.29-3.28s.43-2.42,1.29-3.28,1.95-1.29,3.28-1.29,2.41.43,3.24,1.29c.83.86,1.25,1.95,1.25,3.28s-.43,2.42-1.29,3.28-1.93,1.29-3.22,1.29-2.42-.43-3.28-1.29h0ZM764.04,936.19c-.15-.15-.23-.33-.23-.55v-31.3c0-.22.08-.4.23-.55s.33-.23.55-.23h5.91c.22,0,.4.08.55.23s.23.33.23.55v31.3c0,.22-.08.4-.23.55s-.33.23-.55.23h-5.91c-.22,0-.4-.08-.55-.23Z"/>
      <path class="st18" d="M779.91,934.1c-2.03-1.89-3.05-4.43-3.05-7.65v-12.92c0-3.17,1.03-5.71,3.09-7.62,2.06-1.9,4.84-2.86,8.36-2.86s6.36.96,8.42,2.86,3.09,4.45,3.09,7.62v12.92c0,3.22-1.02,5.76-3.05,7.65s-4.85,2.83-8.46,2.83-6.35-.94-8.39-2.83h0ZM791.23,929.18c.75-.83,1.12-1.94,1.12-3.31v-11.83c0-1.33-.37-2.42-1.12-3.28s-1.73-1.29-2.93-1.29-2.16.42-2.89,1.25-1.1,1.94-1.1,3.31v11.83c0,1.37.36,2.48,1.1,3.31s1.69,1.25,2.89,1.25,2.17-.42,2.93-1.25Z"/>
      <path class="st18" d="M663.79,934.1c-2.03-1.89-3.05-4.43-3.05-7.65v-12.92c0-3.17,1.03-5.71,3.09-7.62,2.06-1.9,4.84-2.86,8.36-2.86s6.36.96,8.42,2.86,3.09,4.45,3.09,7.62v12.92c0,3.22-1.02,5.76-3.05,7.65s-4.85,2.83-8.46,2.83-6.35-.94-8.39-2.83h0ZM675.11,929.18c.75-.83,1.12-1.94,1.12-3.31v-11.83c0-1.33-.37-2.42-1.12-3.28s-1.73-1.29-2.93-1.29-2.16.42-2.89,1.25-1.1,1.94-1.1,3.31v11.83c0,1.37.36,2.48,1.1,3.31s1.69,1.25,2.89,1.25,2.17-.42,2.93-1.25Z"/>
      <path class="st18" d="M825.55,905.85c1.43,1.86,2.16,4.51,2.16,7.93v21.86c0,.22-.08.4-.23.55s-.33.23-.55.23h-5.91c-.22,0-.4-.08-.55-.23s-.23-.33-.23-.55v-21.27c0-1.55-.32-2.75-.96-3.6-.64-.86-1.56-1.29-2.76-1.29s-2.21.45-2.89,1.35-1.03,2.15-1.03,3.73v21.08c0,.22-.08.4-.23.55s-.33.23-.55.23h-5.92c-.22,0-.4-.08-.55-.23s-.23-.33-.23-.55v-31.3c0-.22.08-.4.23-.55s.33-.23.55-.23h5.92c.22,0,.4.08.55.23s.23.33.23.55v1.29c0,.13.05.2.17.23.1.03.23-.05.36-.23,1.46-1.71,3.49-2.57,6.11-2.57,2.79,0,4.89.93,6.34,2.8h-.02Z"/>
    </g>
    <g>
      <path class="st18" d="M403.01,667.58c1.74,1.11,3.09,2.68,4.05,4.69.96,2.02,1.44,4.3,1.44,6.87,0,3.86-1.02,6.96-3.05,9.32-2.03,2.36-4.73,3.54-8.06,3.54h-5.47c-.22,0-.32.11-.32.32v17.87c0,.22-.08.4-.23.55s-.33.23-.55.23h-5.91c-.22,0-.4-.08-.55-.23s-.23-.33-.23-.55v-43.51c0-.22.08-.4.23-.55s.33-.23.55-.23h12.08c2.27,0,4.28.56,6.01,1.67h0ZM399.6,684.33c.96-1.22,1.44-2.89,1.44-4.98s-.48-3.84-1.44-5.11c-.96-1.26-2.24-1.89-3.82-1.89h-3.86c-.22,0-.32.1-.32.32v13.17c0,.22.1.32.32.32h3.86c1.58,0,2.86-.61,3.82-1.83Z"/>
      <path class="st18" d="M429.2,678.39c.34.22.47.54.38.96l-1.03,5.98c-.04.51-.35.67-.9.45-.6-.17-1.16-.26-1.67-.26s-.98.06-1.42.19c-1.2.17-2.17.84-2.93,2.02-.75,1.18-1.12,2.58-1.12,4.21v18.19c0,.22-.08.4-.23.55s-.33.23-.55.23h-5.91c-.22,0-.4-.08-.55-.23s-.23-.33-.23-.55v-31.23c0-.22.08-.4.23-.55s.33-.23.55-.23h5.91c.22,0,.4.08.55.23s.23.33.23.55v2.95c0,.17.04.27.13.29.09.03.15-.05.19-.23,1.16-2.78,3.04-4.18,5.66-4.18,1.16,0,2.06.22,2.7.64h0Z"/>
      <path class="st18" d="M435.34,708.65c-2.03-1.89-3.05-4.43-3.05-7.65v-12.92c0-3.17,1.03-5.71,3.09-7.62,2.06-1.9,4.84-2.86,8.36-2.86s6.36.96,8.42,2.86,3.09,4.45,3.09,7.62v12.92c0,3.22-1.02,5.76-3.05,7.65s-4.85,2.83-8.46,2.83-6.35-.94-8.39-2.83h0ZM446.65,703.74c.75-.83,1.12-1.94,1.12-3.31v-11.83c0-1.33-.37-2.42-1.12-3.28-.75-.86-1.73-1.29-2.93-1.29s-2.16.42-2.89,1.25-1.1,1.94-1.1,3.31v11.83c0,1.37.37,2.48,1.1,3.31s1.69,1.25,2.89,1.25,2.17-.42,2.93-1.25Z"/>
      <path class="st18" d="M474.42,678.35c.15.15.23.33.23.55v3.79c0,.22-.08.4-.23.55s-.33.23-.55.23h-3.99c-.22,0-.32.1-.32.32v26.42c0,.22-.08.4-.23.55s-.33.23-.55.23h-5.85c-.22,0-.4-.08-.55-.23s-.23-.33-.23-.55v-26.42c0-.22-.1-.32-.32-.32h-2.06c-.22,0-.4-.08-.55-.23s-.23-.33-.23-.55v-3.79c0-.22.08-.4.23-.55s.33-.23.55-.23h2.06c.22,0,.32-.1.32-.32v-1.61c0-3.86.88-6.58,2.63-8.16s4.56-2.36,8.42-2.31h.51c.22,0,.4.08.55.23s.23.33.23.55l-.13,4.37c0,.22-.08.4-.23.55s-.33.23-.55.23h-.32c-1.29.04-2.22.46-2.82,1.25s-.9,2-.9,3.63v1.29c0,.22.1.32.32.32h3.99c.22,0,.4.08.55.23h0Z"/>
      <path class="st18" d="M501.28,697.05c-.15.15-.33.23-.55.23h-14.21c-.22,0-.32.1-.32.32v2.89c0,1.33.37,2.42,1.1,3.28.73.86,1.67,1.29,2.82,1.29.98,0,1.83-.31,2.54-.93.7-.63,1.16-1.43,1.38-2.41.13-.43.41-.64.83-.64l5.72.26c.22,0,.4.08.55.23s.2.36.17.61c-.3,3-1.39,5.3-3.28,6.91-1.89,1.61-4.52,2.41-7.91,2.41s-6.29-.93-8.33-2.8c-2.03-1.87-3.05-4.41-3.05-7.62v-13.04c0-3.13,1.02-5.65,3.05-7.55s4.81-2.86,8.33-2.86,6.29.96,8.33,2.86,3.05,4.42,3.05,7.55v8.48c0,.22-.08.4-.23.55h0ZM487.3,685.32c-.73.86-1.1,1.95-1.1,3.28v2.89c0,.22.1.32.32.32h7.27c.22,0,.32-.1.32-.32v-2.89c0-1.37-.37-2.48-1.1-3.31s-1.69-1.25-2.89-1.25-2.1.43-2.82,1.29h0Z"/>
      <path class="st18" d="M508.58,708.92c-2.02-1.63-3.02-3.83-3.02-6.62v-.45c0-.22.08-.4.23-.55s.33-.23.55-.23h5.53c.22,0,.4.08.55.23s.23.33.23.55v.32c0,1.03.4,1.89,1.19,2.57.79.69,1.76,1.03,2.93,1.03s1.99-.32,2.63-.96.96-1.46.96-2.44c0-.86-.28-1.57-.83-2.16-.56-.58-1.16-1.02-1.8-1.32s-1.8-.79-3.47-1.48c-2.44-.94-4.45-2.14-6.01-3.6-1.56-1.46-2.35-3.62-2.35-6.49s.96-5.34,2.86-7.04c1.9-1.69,4.48-2.54,7.74-2.54s5.99.89,7.93,2.67,2.93,4.17,2.93,7.17c0,.22-.08.4-.23.55s-.33.23-.55.23h-5.4c-.22,0-.4-.08-.55-.23s-.23-.33-.23-.55v-.38c0-1.03-.36-1.89-1.06-2.57-.7-.69-1.6-1.03-2.67-1.03s-2.01.36-2.67,1.06-1,1.56-1,2.54c0,.82.26,1.5.77,2.06.51.56,1.1,1,1.74,1.32s1.71.8,3.22,1.44c1.8.73,3.31,1.44,4.53,2.16,1.22.7,2.29,1.71,3.22,3.02.92,1.3,1.38,2.93,1.38,4.85,0,2.87-1.01,5.14-3.02,6.81-2.02,1.67-4.74,2.51-8.16,2.51s-6.08-.82-8.1-2.44h0Z"/>
      <path class="st18" d="M533.19,708.92c-2.02-1.63-3.02-3.83-3.02-6.62v-.45c0-.22.08-.4.23-.55s.33-.23.55-.23h5.53c.22,0,.4.08.55.23s.23.33.23.55v.32c0,1.03.4,1.89,1.19,2.57.79.69,1.76,1.03,2.93,1.03s1.99-.32,2.63-.96c.64-.64.96-1.46.96-2.44,0-.86-.28-1.57-.83-2.16s-1.16-1.02-1.8-1.32-1.8-.79-3.47-1.48c-2.44-.94-4.45-2.14-6.01-3.6-1.56-1.46-2.35-3.62-2.35-6.49s.96-5.34,2.86-7.04c1.9-1.69,4.48-2.54,7.74-2.54s5.99.89,7.93,2.67,2.93,4.17,2.93,7.17c0,.22-.08.4-.23.55s-.33.23-.55.23h-5.4c-.22,0-.4-.08-.55-.23s-.23-.33-.23-.55v-.38c0-1.03-.36-1.89-1.06-2.57-.7-.69-1.6-1.03-2.67-1.03s-2.01.36-2.67,1.06-1,1.56-1,2.54c0,.82.26,1.5.77,2.06.51.56,1.09,1,1.74,1.32.64.32,1.71.8,3.22,1.44,1.8.73,3.31,1.44,4.53,2.16,1.22.7,2.29,1.71,3.22,3.02.92,1.3,1.38,2.93,1.38,4.85,0,2.87-1.01,5.14-3.02,6.81-2.02,1.67-4.74,2.51-8.16,2.51s-6.08-.82-8.1-2.44h0Z"/>
      <path class="st18" d="M557.43,672.34c-.86-.86-1.29-1.95-1.29-3.28s.43-2.42,1.29-3.28,1.95-1.29,3.28-1.29,2.41.43,3.25,1.29c.83.86,1.25,1.95,1.25,3.28s-.43,2.42-1.29,3.28c-.86.86-1.93,1.29-3.22,1.29s-2.42-.43-3.28-1.29ZM557.26,710.75c-.15-.15-.23-.33-.23-.55v-31.3c0-.22.08-.4.23-.55s.33-.23.55-.23h5.91c.22,0,.4.08.55.23s.23.33.23.55v31.3c0,.22-.08.4-.23.55s-.33.23-.55.23h-5.91c-.22,0-.4-.08-.55-.23Z"/>
      <path class="st18" d="M573.14,708.65c-2.03-1.89-3.05-4.43-3.05-7.65v-12.92c0-3.17,1.03-5.71,3.09-7.62,2.06-1.9,4.84-2.86,8.36-2.86s6.36.96,8.42,2.86,3.09,4.45,3.09,7.62v12.92c0,3.22-1.02,5.76-3.05,7.65s-4.85,2.83-8.46,2.83-6.35-.94-8.39-2.83h0ZM584.45,703.74c.75-.83,1.12-1.94,1.12-3.31v-11.83c0-1.33-.37-2.42-1.12-3.28s-1.73-1.29-2.93-1.29-2.16.42-2.89,1.25-1.1,1.94-1.1,3.31v11.83c0,1.37.36,2.48,1.1,3.31s1.69,1.25,2.89,1.25,2.17-.42,2.93-1.25Z"/>
      <path class="st18" d="M618.77,680.41c1.43,1.86,2.16,4.51,2.16,7.93v21.86c0,.22-.08.4-.23.55s-.33.23-.55.23h-5.91c-.22,0-.4-.08-.55-.23s-.23-.33-.23-.55v-21.27c0-1.55-.32-2.75-.96-3.6-.64-.86-1.56-1.29-2.76-1.29s-2.21.45-2.89,1.35c-.69.9-1.03,2.15-1.03,3.73v21.08c0,.22-.08.4-.23.55s-.33.23-.55.23h-5.91c-.22,0-.4-.08-.55-.23s-.23-.33-.23-.55v-31.3c0-.22.08-.4.23-.55s.33-.23.55-.23h5.91c.22,0,.4.08.55.23s.23.33.23.55v1.29c0,.13.05.2.17.23.1.03.23-.05.36-.23,1.46-1.71,3.49-2.57,6.11-2.57,2.78,0,4.89.93,6.34,2.8h-.02Z"/>
    </g>
    <g>
      <path class="st18" d="M1283.88,600.46v-30.46c0-.29.15-.45.45-.45h6.89c2.3,0,4.13.75,5.51,2.26s2.06,3.53,2.06,6.06v14.69c0,2.54-.69,4.56-2.06,6.07-1.38,1.51-3.21,2.26-5.51,2.26h-6.89c-.3,0-.45-.15-.45-.45v.02ZM1287.24,598.13l3.94-.04c1.31,0,2.36-.51,3.16-1.52s1.2-2.39,1.23-4.12v-14.42c0-1.76-.39-3.15-1.17-4.17-.78-1.01-1.85-1.52-3.23-1.52h-3.94c-.12,0-.18.06-.18.18v25.44c0,.12.06.18.18.18h0Z"/>
      <path class="st18" d="M1306.07,599.11c-1.42-1.44-2.13-3.33-2.13-5.69v-16.39c0-2.36.71-4.26,2.13-5.69,1.42-1.44,3.28-2.15,5.58-2.15s4.21.72,5.64,2.15c1.44,1.44,2.15,3.33,2.15,5.69v16.39c0,2.33-.72,4.22-2.15,5.67-1.44,1.44-3.31,2.17-5.64,2.17s-4.16-.72-5.58-2.15ZM1314.98,597.12c.85-.91,1.28-2.08,1.28-3.51v-16.7c0-1.46-.42-2.65-1.28-3.56-.85-.91-1.96-1.37-3.34-1.37s-2.43.46-3.27,1.37-1.25,2.1-1.25,3.56v16.7c0,1.44.42,2.6,1.25,3.51s1.93,1.37,3.27,1.37,2.48-.46,3.34-1.37Z"/>
      <path class="st18" d="M1338.07,600.51l-5.91-30.46v-.09c0-.27.14-.41.41-.41h2.37c.3,0,.47.14.49.41l4.21,23.55c.03.06.06.1.09.1s.06-.03.09-.1l3.62-23.55c.06-.27.21-.41.45-.41h2.06c.27,0,.42.14.45.41l3.81,23.55c.03.06.06.1.09.1s.06-.03.09-.1l3.85-23.55c.06-.27.21-.41.45-.41h2.37c.15,0,.26.04.34.14.08.09.1.21.07.35l-5.55,30.46c-.03.27-.2.41-.49.41h-2.2c-.24,0-.39-.14-.45-.41l-3.76-23.65c-.03-.06-.07-.09-.11-.09s-.07.03-.07.09l-3.67,23.65c-.03.27-.18.41-.45.41h-2.15c-.27,0-.43-.14-.49-.41h0Z"/>
      <path class="st18" d="M1361.99,600.46v-30.46c0-.29.15-.45.45-.45h2.28c.3,0,.45.15.45.45v30.46c0,.3-.15.45-.45.45h-2.28c-.3,0-.45-.15-.45-.45Z"/>
      <path class="st18" d="M1385.81,570.01v1.88c0,.3-.15.45-.45.45h-5.91c-.12,0-.18.06-.18.18v27.95c0,.3-.15.45-.45.45h-2.28c-.3,0-.45-.15-.45-.45v-27.95c0-.12-.06-.18-.18-.18h-5.55c-.3,0-.45-.15-.45-.45v-1.88c0-.29.15-.45.45-.45h15c.3,0,.45.15.45.45h0Z"/>
      <path class="st18" d="M1402.51,569.56h2.28c.29,0,.45.15.45.45v30.46c0,.3-.15.45-.45.45h-2.28c-.3,0-.45-.15-.45-.45v-13.66c0-.12-.06-.18-.18-.18h-7.98c-.12,0-.18.06-.18.18v13.66c0,.3-.15.45-.45.45h-2.28c-.3,0-.45-.15-.45-.45v-30.46c0-.29.15-.45.45-.45h2.28c.3,0,.45.15.45.45v13.62c0,.12.06.18.18.18h7.98c.12,0,.18-.06.18-.18v-13.62c0-.29.15-.45.45-.45Z"/>
      <path class="st18" d="M1296.95,625.65c1.34,1.6,2.02,3.69,2.02,6.29s-.66,4.64-1.97,6.2-3.04,2.35-5.2,2.35h-4.61c-.12,0-.18.06-.18.18v13.53c0,.3-.15.45-.45.45h-2.28c-.3,0-.45-.15-.45-.45v-30.5c0-.29.15-.45.45-.45h7.39c2.18,0,3.94.8,5.29,2.4h0ZM1294.54,636.28c.84-1.07,1.25-2.51,1.25-4.3s-.42-3.24-1.25-4.33-1.93-1.63-3.27-1.63h-4.07c-.12,0-.18.06-.18.18v11.51c0,.12.06.18.18.18h4.07c1.34,0,2.43-.54,3.27-1.61h0Z"/>
      <path class="st18" d="M1317.42,626.08h-10.39c-.12,0-.18.06-.18.18v11.11c0,.12.06.18.18.18h6.54c.3,0,.45.15.45.45v1.93c0,.3-.15.45-.45.45h-6.54c-.12,0-.18.06-.18.18v11.15c0,.12.06.18.18.18h10.39c.3,0,.45.15.45.45v1.88c0,.3-.15.45-.45.45h-13.3c-.3,0-.45-.15-.45-.45v-30.46c0-.29.15-.45.45-.45h13.3c.3,0,.45.15.45.45v1.88c0,.3-.15.45-.45.45h0Z"/>
      <path class="st18" d="M1334.89,654.29l-4.57-13.84c-.03-.09-.09-.14-.18-.14h-3.89c-.12,0-.18.06-.18.18v13.7c0,.3-.15.45-.45.45h-2.28c-.3,0-.45-.15-.45-.45v-30.46c0-.29.15-.45.45-.45h7.39c2.18,0,3.94.8,5.29,2.4,1.34,1.6,2.02,3.68,2.02,6.25,0,1.94-.42,3.62-1.25,5.02s-1.97,2.39-3.4,2.96c-.12.03-.16.1-.14.22l4.88,14.01.04.18c0,.21-.14.31-.41.31h-2.33c-.27,0-.45-.12-.54-.35h0ZM1326.07,626.26v11.33c0,.12.06.18.18.18h4.03c1.38,0,2.48-.53,3.31-1.59s1.25-2.47,1.25-4.23-.42-3.18-1.25-4.26c-.84-1.07-1.94-1.61-3.31-1.61h-4.03c-.12,0-.18.06-.18.18h0Z"/>
      <path class="st18" d="M1356.39,626.08h-10.3c-.12,0-.18.06-.18.18v11.11c0,.12.06.18.18.18h6.5c.3,0,.45.15.45.45v1.93c0,.3-.15.45-.45.45h-6.5c-.12,0-.18.06-.18.18v13.66c0,.3-.15.45-.45.45h-2.28c-.3,0-.45-.15-.45-.45v-30.46c0-.29.15-.45.45-.45h13.21c.3,0,.45.15.45.45v1.88c0,.3-.15.45-.45.45h0Z"/>
      <path class="st18" d="M1374.56,626.08h-10.39c-.12,0-.18.06-.18.18v11.11c0,.12.06.18.18.18h6.54c.3,0,.45.15.45.45v1.93c0,.3-.15.45-.45.45h-6.54c-.12,0-.18.06-.18.18v11.15c0,.12.06.18.18.18h10.39c.3,0,.45.15.45.45v1.88c0,.3-.15.45-.45.45h-13.3c-.3,0-.45-.15-.45-.45v-30.46c0-.29.15-.45.45-.45h13.3c.3,0,.45.15.45.45v1.88c0,.3-.15.45-.45.45h0Z"/>
      <path class="st18" d="M1381.35,652.9c-1.38-1.4-2.08-3.29-2.08-5.64v-16.62c0-2.33.69-4.2,2.08-5.6s3.24-2.1,5.53-2.1,4.19.69,5.58,2.08,2.08,3.26,2.08,5.62v.76c0,.3-.15.45-.45.45l-2.33.14c-.3,0-.45-.15-.45-.45v-1.12c0-1.4-.41-2.53-1.21-3.4s-1.88-1.3-3.23-1.3-2.38.43-3.2,1.3-1.23,2-1.23,3.4v17.11c0,1.4.41,2.53,1.23,3.4.82.87,1.89,1.3,3.2,1.3s2.42-.43,3.23-1.3c.8-.87,1.21-2,1.21-3.4v-1.12c0-.3.15-.45.45-.45l2.33.14c.29,0,.45.15.45.45v.72c0,2.36-.7,4.24-2.1,5.64s-3.25,2.1-5.55,2.1-4.14-.7-5.53-2.1v-.03Z"/>
      <path class="st18" d="M1414.2,623.75v1.88c0,.3-.15.45-.45.45h-5.91c-.12,0-.18.06-.18.18v27.95c0,.3-.15.45-.45.45h-2.28c-.3,0-.45-.15-.45-.45v-27.95c0-.12-.06-.18-.18-.18h-5.55c-.3,0-.45-.15-.45-.45v-1.88c0-.29.15-.45.45-.45h15c.3,0,.45.15.45.45h0Z"/>
      <path class="st18" d="M1418.95,654.2v-30.46c0-.29.15-.45.45-.45h2.28c.3,0,.45.15.45.45v30.46c0,.3-.15.45-.45.45h-2.28c-.3,0-.45-.15-.45-.45Z"/>
      <path class="st18" d="M1429.94,652.86c-1.42-1.44-2.13-3.33-2.13-5.69v-16.39c0-2.36.71-4.26,2.13-5.69,1.42-1.44,3.28-2.15,5.58-2.15s4.21.72,5.64,2.15c1.44,1.44,2.15,3.33,2.15,5.69v16.39c0,2.33-.72,4.22-2.15,5.67-1.44,1.44-3.31,2.17-5.64,2.17s-4.16-.72-5.58-2.15ZM1438.85,650.87c.85-.91,1.28-2.08,1.28-3.51v-16.7c0-1.46-.42-2.65-1.28-3.56-.85-.91-1.96-1.37-3.34-1.37s-2.43.46-3.27,1.37-1.25,2.1-1.25,3.56v16.7c0,1.44.42,2.6,1.25,3.51s1.93,1.37,3.27,1.37,2.48-.46,3.34-1.37Z"/>
      <path class="st18" d="M1461.98,623.3h2.24c.3,0,.45.15.45.45v30.46c0,.3-.15.45-.45.45h-2.65c-.24,0-.41-.12-.49-.35l-8.74-23.16c-.03-.09-.08-.13-.14-.11-.06.02-.1.07-.1.16l.04,23.02c0,.3-.15.45-.45.45h-2.28c-.3,0-.45-.15-.45-.45v-30.46c0-.29.15-.45.45-.45h2.6c.24,0,.41.12.49.35l8.78,23.2c.03.09.08.13.14.11.06-.02.09-.07.09-.16v-23.06c0-.29.15-.45.45-.45h.02Z"/>
    </g>
    <g>
      <path class="st18" d="M318.12,944.18h-10.39c-.12,0-.18.06-.18.18v11.11c0,.12.06.18.18.18h6.54c.29,0,.45.15.45.45v1.93c0,.3-.15.45-.45.45h-6.54c-.12,0-.18.06-.18.18v11.15c0,.12.06.18.18.18h10.39c.29,0,.45.15.45.45v1.88c0,.3-.15.45-.45.45h-13.3c-.3,0-.45-.15-.45-.45v-30.46c0-.29.15-.45.45-.45h13.3c.29,0,.45.15.45.45v1.88c0,.3-.15.45-.45.45h0Z"/>
      <path class="st18" d="M322.09,972.58c-.08-.1-.09-.23-.03-.38l6.27-15c.06-.09.06-.18,0-.27l-6.27-15-.04-.18c0-.24.14-.35.41-.35h2.37c.24,0,.41.12.49.35l4.65,11.91c.03.1.08.14.14.14s.1-.04.14-.14l4.65-11.91c.09-.24.25-.35.49-.35h2.37c.15,0,.26.05.34.16.08.1.09.23.03.38l-6.31,15.05c-.03.09-.03.18,0,.27l6.31,14.96.04.18c0,.24-.14.35-.41.35h-2.37c-.24,0-.41-.12-.49-.35l-4.65-11.87c-.03-.1-.08-.14-.14-.14s-.1.04-.14.14l-4.65,11.87c-.09.24-.25.35-.49.35h-2.37c-.15,0-.26-.05-.34-.16h0Z"/>
      <path class="st18" d="M356.1,943.74c1.34,1.6,2.02,3.69,2.02,6.29s-.66,4.64-1.97,6.2-3.04,2.35-5.2,2.35h-4.61c-.12,0-.18.06-.18.18v13.53c0,.3-.15.45-.45.45h-2.28c-.3,0-.45-.15-.45-.45v-30.5c0-.29.15-.45.45-.45h7.39c2.18,0,3.94.8,5.29,2.4h0ZM353.68,954.38c.84-1.07,1.25-2.51,1.25-4.3s-.42-3.24-1.25-4.33-1.93-1.63-3.27-1.63h-4.07c-.12,0-.18.06-.18.18v11.51c0,.12.06.18.18.18h4.07c1.34,0,2.43-.54,3.27-1.61h0Z"/>
      <path class="st18" d="M376.56,944.18h-10.39c-.12,0-.18.06-.18.18v11.11c0,.12.06.18.18.18h6.54c.29,0,.45.15.45.45v1.93c0,.3-.15.45-.45.45h-6.54c-.12,0-.18.06-.18.18v11.15c0,.12.06.18.18.18h10.39c.29,0,.45.15.45.45v1.88c0,.3-.15.45-.45.45h-13.3c-.3,0-.45-.15-.45-.45v-30.46c0-.29.15-.45.45-.45h13.3c.29,0,.45.15.45.45v1.88c0,.3-.15.45-.45.45h0Z"/>
      <path class="st18" d="M394.03,972.38l-4.57-13.84c-.03-.09-.09-.14-.18-.14h-3.89c-.12,0-.18.06-.18.18v13.7c0,.3-.15.45-.45.45h-2.28c-.3,0-.45-.15-.45-.45v-30.46c0-.29.15-.45.45-.45h7.39c2.18,0,3.94.8,5.29,2.4,1.34,1.6,2.02,3.68,2.02,6.25,0,1.94-.42,3.62-1.25,5.02s-1.97,2.39-3.4,2.96c-.12.03-.16.1-.14.22l4.88,14.01.04.18c0,.21-.14.31-.41.31h-2.33c-.27,0-.45-.12-.54-.35h0ZM385.21,944.35v11.33c0,.12.06.18.18.18h4.03c1.38,0,2.47-.53,3.31-1.59s1.25-2.47,1.25-4.23-.42-3.18-1.25-4.26-1.94-1.61-3.31-1.61h-4.03c-.12,0-.18.06-.18.18h0Z"/>
      <path class="st18" d="M416.06,941.84v1.88c0,.3-.15.45-.45.45h-5.91c-.12,0-.18.06-.18.18v27.95c0,.3-.15.45-.45.45h-2.28c-.3,0-.45-.15-.45-.45v-27.95c0-.12-.06-.18-.18-.18h-5.55c-.3,0-.45-.15-.45-.45v-1.88c0-.29.15-.45.45-.45h15c.29,0,.45.15.45.45h0Z"/>
      <path class="st18" d="M420.81,972.3v-30.46c0-.29.15-.45.45-.45h2.28c.29,0,.45.15.45.45v30.46c0,.3-.15.45-.45.45h-2.28c-.3,0-.45-.15-.45-.45Z"/>
      <path class="st18" d="M431.16,970.91c-1.38-1.46-2.06-3.37-2.06-5.74v-1.03c0-.29.15-.45.45-.45h2.2c.3,0,.45.15.45.45v.9c0,1.58.41,2.86,1.21,3.83s1.85,1.45,3.13,1.45,2.3-.47,3.13-1.39c.84-.93,1.25-2.15,1.25-3.68,0-1.01-.2-1.89-.61-2.62-.41-.74-.93-1.38-1.57-1.93-.64-.55-1.71-1.39-3.2-2.53-1.5-1.11-2.67-2.05-3.54-2.85-.87-.79-1.57-1.74-2.13-2.85s-.83-2.4-.83-3.89c0-2.33.67-4.17,2.02-5.53s3.09-2.03,5.24-2.03c2.27,0,4.08.74,5.44,2.21s2.04,3.44,2.04,5.89v1.12c0,.3-.15.45-.45.45h-2.24c-.3,0-.45-.15-.45-.45v-1.17c0-1.58-.4-2.86-1.19-3.83s-1.84-1.45-3.16-1.45c-1.19,0-2.18.42-2.96,1.28-.78.85-1.17,2.05-1.17,3.61,0,.93.17,1.74.52,2.44s.86,1.37,1.55,1.99,1.7,1.44,3.04,2.47c1.79,1.31,3.12,2.38,4.01,3.2.88.82,1.56,1.72,2.04,2.69.48.97.72,2.15.72,3.51,0,2.45-.7,4.41-2.1,5.89s-3.21,2.21-5.42,2.21-4.01-.74-5.37-2.2l-.02.02Z"/>
      <path class="st18" d="M462.5,944.18h-10.39c-.12,0-.18.06-.18.18v11.11c0,.12.06.18.18.18h6.54c.29,0,.45.15.45.45v1.93c0,.3-.15.45-.45.45h-6.54c-.12,0-.18.06-.18.18v11.15c0,.12.06.18.18.18h10.39c.29,0,.45.15.45.45v1.88c0,.3-.15.45-.45.45h-13.3c-.3,0-.45-.15-.45-.45v-30.46c0-.29.15-.45.45-.45h13.3c.29,0,.45.15.45.45v1.88c0,.3-.15.45-.45.45h0Z"/>
      <path class="st18" d="M315.7,1026.09l-1.12-5.55c0-.06-.03-.1-.07-.14s-.1-.04-.16-.04h-8.11c-.06,0-.11.02-.16.04s-.07.08-.07.14l-1.12,5.55c-.03.27-.2.41-.49.41h-2.28c-.15,0-.26-.04-.34-.14s-.1-.21-.07-.36l6.72-30.46c.06-.27.22-.41.49-.41h2.69c.3,0,.47.14.49.41l6.81,30.46v.1c0,.27-.14.41-.41.41h-2.33c-.27,0-.43-.14-.49-.41h0ZM306.75,1017.75h7.08c.09,0,.14-.06.14-.18l-3.58-17.6c-.03-.09-.06-.14-.09-.14-.03,0-.06.04-.09.14l-3.58,17.6c0,.12.04.18.14.18h-.02Z"/>
      <path class="st18" d="M334.25,995.58v1.88c0,.3-.15.45-.45.45h-5.91c-.12,0-.18.06-.18.18v27.95c0,.3-.15.45-.45.45h-2.28c-.3,0-.45-.15-.45-.45v-27.95c0-.12-.06-.18-.18-.18h-5.55c-.3,0-.45-.15-.45-.45v-1.88c0-.29.15-.45.45-.45h15c.29,0,.45.15.45.45h0Z"/>
      <path class="st18" d="M351.94,1026.09l-5.91-30.46v-.09c0-.27.14-.41.41-.41h2.37c.3,0,.47.14.49.41l4.21,23.55c.03.06.06.1.09.1s.06-.03.09-.1l3.62-23.55c.06-.27.21-.41.45-.41h2.06c.27,0,.42.14.45.41l3.81,23.55c.03.06.06.1.09.1s.06-.03.09-.1l3.85-23.55c.06-.27.21-.41.45-.41h2.37c.15,0,.26.04.34.14.08.09.1.21.07.35l-5.55,30.46c-.03.27-.2.41-.49.41h-2.2c-.24,0-.39-.14-.45-.41l-3.76-23.65c-.03-.06-.07-.09-.11-.09s-.07.03-.07.09l-3.68,23.65c-.03.27-.18.41-.45.41h-2.15c-.27,0-.43-.14-.49-.41h.02Z"/>
      <path class="st18" d="M376.81,1024.69c-1.42-1.44-2.13-3.33-2.13-5.69v-16.39c0-2.36.71-4.26,2.13-5.69,1.42-1.44,3.28-2.15,5.58-2.15s4.21.72,5.64,2.15c1.44,1.44,2.15,3.33,2.15,5.69v16.39c0,2.33-.72,4.22-2.15,5.67s-3.31,2.17-5.64,2.17-4.16-.72-5.58-2.15h0ZM385.73,1022.7c.85-.91,1.28-2.08,1.28-3.51v-16.7c0-1.46-.42-2.65-1.28-3.56-.85-.91-1.96-1.37-3.34-1.37s-2.43.46-3.27,1.37c-.84.91-1.25,2.1-1.25,3.56v16.7c0,1.44.42,2.6,1.25,3.51s1.93,1.37,3.27,1.37,2.48-.46,3.34-1.37Z"/>
      <path class="st18" d="M407.87,1026.13l-4.57-13.84c-.03-.09-.09-.14-.18-.14h-3.89c-.12,0-.18.06-.18.18v13.7c0,.3-.15.45-.45.45h-2.28c-.3,0-.45-.15-.45-.45v-30.46c0-.29.15-.45.45-.45h7.39c2.18,0,3.94.8,5.29,2.4s2.02,3.68,2.02,6.25c0,1.94-.42,3.62-1.25,5.02s-1.97,2.39-3.4,2.96c-.12.03-.16.1-.14.22l4.88,14.01.04.18c0,.21-.14.31-.41.31h-2.33c-.27,0-.45-.12-.54-.35h0ZM399.05,998.09v11.33c0,.12.06.18.18.18h4.03c1.38,0,2.47-.53,3.31-1.59s1.25-2.47,1.25-4.23-.42-3.18-1.25-4.26-1.94-1.61-3.31-1.61h-4.03c-.12,0-.18.06-.18.18h0Z"/>
      <path class="st18" d="M415.71,1026.04v-30.46c0-.29.15-.45.45-.45h2.28c.29,0,.45.15.45.45v14.51c0,.09.03.15.09.18.06.03.1,0,.14-.09l8.64-14.73c.15-.21.33-.31.54-.31h2.51c.18,0,.3.05.35.16.06.1.04.23-.04.38l-6.99,12.14c-.06.12-.08.21-.04.27l7.7,17.87.04.18c0,.24-.14.35-.41.35h-2.55c-.24,0-.41-.12-.49-.35l-6.45-15.22c-.03-.12-.1-.12-.22,0l-2.78,4.3s-.04.1-.04.22v10.61c0,.3-.15.45-.45.45h-2.28c-.3,0-.45-.15-.45-.45h.02Z"/>
    </g>
    <g>
      <path class="st18" d="M32.36,454.12v-13.39c0-.12-.02-.2-.04-.22l-6.23-16.7-.04-.18c0-.24.14-.35.41-.35h2.42c.27,0,.45.12.54.35l4.39,13.12c.03.06.08.09.14.09s.1-.03.14-.09l4.39-13.12c.09-.24.27-.35.54-.35h2.42c.15,0,.26.05.34.16s.09.23.03.38l-6.18,16.7s-.04.1-.04.22v13.39c0,.3-.15.45-.45.45h-2.28c-.3,0-.45-.15-.45-.45h-.02Z"/>
      <path class="st18" d="M47.52,452.83c-1.42-1.44-2.13-3.33-2.13-5.69v-16.39c0-2.36.71-4.26,2.13-5.69,1.42-1.44,3.28-2.15,5.58-2.15s4.21.72,5.64,2.15c1.44,1.44,2.15,3.33,2.15,5.69v16.39c0,2.33-.72,4.22-2.15,5.67s-3.31,2.17-5.64,2.17-4.16-.72-5.58-2.15ZM56.43,450.84c.85-.91,1.28-2.08,1.28-3.51v-16.7c0-1.46-.42-2.65-1.28-3.56-.85-.91-1.96-1.37-3.34-1.37s-2.43.46-3.27,1.37c-.84.91-1.25,2.1-1.25,3.56v16.7c0,1.44.42,2.6,1.25,3.51.84.91,1.93,1.37,3.27,1.37s2.48-.46,3.34-1.37Z"/>
      <path class="st18" d="M68.41,452.6c-1.4-1.58-2.1-3.68-2.1-6.27v-22.62c0-.29.15-.45.45-.45h2.28c.29,0,.45.15.45.45v22.97c0,1.64.41,2.98,1.23,3.99.82,1.01,1.9,1.52,3.24,1.52s2.47-.51,3.31-1.52c.84-1.01,1.25-2.34,1.25-3.99v-22.97c0-.29.15-.45.45-.45h2.28c.29,0,.45.15.45.45v22.62c0,2.6-.71,4.69-2.13,6.27s-3.3,2.37-5.62,2.37-4.15-.79-5.55-2.37Z"/>
      <path class="st18" d="M108.18,454.22l-1.12-5.55c0-.06-.03-.1-.07-.14s-.1-.04-.16-.04h-8.11c-.06,0-.11.02-.16.04s-.07.08-.07.14l-1.12,5.55c-.03.27-.2.41-.49.41h-2.28c-.15,0-.26-.04-.34-.14s-.1-.21-.07-.36l6.72-30.46c.06-.27.22-.41.49-.41h2.69c.3,0,.47.14.49.41l6.81,30.46v.1c0,.27-.14.41-.41.41h-2.33c-.27,0-.43-.14-.49-.41h0ZM99.22,445.89h7.08c.09,0,.14-.06.14-.18l-3.58-17.6c-.03-.09-.06-.14-.09-.14-.03,0-.06.04-.09.14l-3.58,17.6c0,.12.04.18.14.18h-.02Z"/>
      <path class="st18" d="M127.21,454.26l-4.57-13.84c-.03-.09-.09-.14-.18-.14h-3.89c-.12,0-.18.06-.18.18v13.7c0,.3-.15.45-.45.45h-2.28c-.3,0-.45-.15-.45-.45v-30.46c0-.29.15-.45.45-.45h7.39c2.18,0,3.94.8,5.29,2.4,1.34,1.6,2.02,3.68,2.02,6.25,0,1.94-.42,3.62-1.25,5.02-.84,1.4-1.97,2.39-3.4,2.96-.12.03-.16.1-.14.22l4.88,14.01.04.18c0,.21-.14.31-.41.31h-2.33c-.27,0-.45-.12-.54-.35h0ZM118.39,426.23v11.33c0,.12.06.18.18.18h4.03c1.38,0,2.47-.53,3.31-1.59s1.25-2.47,1.25-4.23-.42-3.18-1.25-4.26c-.84-1.07-1.94-1.61-3.31-1.61h-4.03c-.12,0-.18.06-.18.18h0Z"/>
      <path class="st18" d="M148.8,426.05h-10.39c-.12,0-.18.06-.18.18v11.11c0,.12.06.18.18.18h6.54c.29,0,.45.15.45.45v1.93c0,.3-.15.45-.45.45h-6.54c-.12,0-.18.06-.18.18v11.15c0,.12.06.18.18.18h10.39c.29,0,.45.15.45.45v1.88c0,.3-.15.45-.45.45h-13.3c-.3,0-.45-.15-.45-.45v-30.46c0-.29.15-.45.45-.45h13.3c.29,0,.45.15.45.45v1.88c0,.3-.15.45-.45.45h0Z"/>
      <path class="st18" d="M41.85,477.45v1.88c0,.3-.15.45-.45.45h-5.91c-.12,0-.18.06-.18.18v27.95c0,.3-.15.45-.45.45h-2.28c-.3,0-.45-.15-.45-.45v-27.95c0-.12-.06-.18-.18-.18h-5.54c-.3,0-.45-.15-.45-.45v-1.88c0-.29.15-.45.45-.45h15c.29,0,.45.15.45.45Z"/>
      <path class="st18" d="M58.56,477.01h2.28c.29,0,.45.15.45.45v30.46c0,.3-.15.45-.45.45h-2.28c-.3,0-.45-.15-.45-.45v-13.66c0-.12-.06-.18-.18-.18h-7.98c-.12,0-.18.06-.18.18v13.66c0,.3-.15.45-.45.45h-2.28c-.3,0-.45-.15-.45-.45v-30.46c0-.29.15-.45.45-.45h2.28c.29,0,.45.15.45.45v13.62c0,.12.06.18.18.18h7.98c.12,0,.18-.06.18-.18v-13.62c0-.29.15-.45.45-.45Z"/>
      <path class="st18" d="M81.18,479.79h-10.39c-.12,0-.18.06-.18.18v11.11c0,.12.06.18.18.18h6.54c.29,0,.45.15.45.45v1.93c0,.3-.15.45-.45.45h-6.54c-.12,0-.18.06-.18.18v11.15c0,.12.06.18.18.18h10.39c.29,0,.45.15.45.45v1.88c0,.3-.15.45-.45.45h-13.3c-.3,0-.45-.15-.45-.45v-30.46c0-.29.15-.45.45-.45h13.3c.29,0,.45.15.45.45v1.88c0,.3-.15.45-.45.45h0Z"/>
      <path class="st18" d="M108.76,506.12c-1.46,1.5-3.42,2.24-5.86,2.24h-6.85c-.3,0-.45-.15-.45-.45v-30.46c0-.29.15-.45.45-.45h6.45c2.57,0,4.58.71,6.05,2.13,1.46,1.42,2.2,3.44,2.2,6.06,0,3.35-1.24,5.63-3.72,6.85-.06.03-.09.06-.09.09,0,.03.02.06.04.1,2.63,1.52,3.94,4.06,3.94,7.61.03,2.69-.68,4.77-2.15,6.27h-.02ZM98.77,479.96v10.8c0,.12.06.18.18.18h3.54c1.61,0,2.86-.48,3.76-1.44.9-.95,1.34-2.3,1.34-4.03s-.45-3.18-1.34-4.19c-.89-1-2.15-1.5-3.76-1.5h-3.54c-.12,0-.18.06-.18.18h0ZM106.38,503.95c.89-1.06,1.34-2.54,1.34-4.45s-.45-3.45-1.34-4.52c-.9-1.07-2.14-1.61-3.72-1.61h-3.72c-.12,0-.18.06-.18.18v11.82c0,.12.06.18.18.18h3.72c1.58,0,2.82-.53,3.72-1.59h0Z"/>
      <path class="st18" d="M129.13,479.79h-10.39c-.12,0-.18.06-.18.18v11.11c0,.12.06.18.18.18h6.54c.29,0,.45.15.45.45v1.93c0,.3-.15.45-.45.45h-6.54c-.12,0-.18.06-.18.18v11.15c0,.12.06.18.18.18h10.39c.29,0,.45.15.45.45v1.88c0,.3-.15.45-.45.45h-13.3c-.3,0-.45-.15-.45-.45v-30.46c0-.29.15-.45.45-.45h13.3c.29,0,.45.15.45.45v1.88c0,.3-.15.45-.45.45h0Z"/>
      <path class="st18" d="M135.32,506.53c-1.38-1.46-2.06-3.37-2.06-5.74v-1.03c0-.29.15-.45.45-.45h2.2c.3,0,.45.15.45.45v.9c0,1.58.41,2.86,1.21,3.83s1.85,1.45,3.13,1.45,2.3-.47,3.13-1.39c.84-.93,1.25-2.15,1.25-3.68,0-1.01-.2-1.89-.61-2.62s-.93-1.38-1.57-1.93c-.64-.55-1.71-1.39-3.2-2.53-1.5-1.11-2.67-2.05-3.54-2.85-.87-.79-1.57-1.74-2.13-2.85s-.83-2.4-.83-3.89c0-2.33.67-4.17,2.02-5.53s3.09-2.03,5.24-2.03c2.27,0,4.08.74,5.44,2.21,1.36,1.48,2.04,3.44,2.04,5.89v1.12c0,.3-.15.45-.45.45h-2.24c-.3,0-.45-.15-.45-.45v-1.17c0-1.58-.4-2.86-1.19-3.83-.79-.97-1.84-1.45-3.16-1.45-1.19,0-2.18.42-2.96,1.28-.78.85-1.17,2.05-1.17,3.61,0,.93.17,1.74.52,2.44.35.7.86,1.37,1.55,1.99s1.7,1.44,3.04,2.47c1.79,1.31,3.12,2.38,4.01,3.2s1.56,1.72,2.04,2.69c.48.97.72,2.15.72,3.51,0,2.45-.7,4.41-2.1,5.89s-3.21,2.21-5.41,2.21-4.01-.74-5.37-2.2l-.02.02Z"/>
      <path class="st18" d="M166.8,477.45v1.88c0,.3-.15.45-.45.45h-5.91c-.12,0-.18.06-.18.18v27.95c0,.3-.15.45-.45.45h-2.28c-.3,0-.45-.15-.45-.45v-27.95c0-.12-.06-.18-.18-.18h-5.55c-.3,0-.45-.15-.45-.45v-1.88c0-.29.15-.45.45-.45h15c.29,0,.45.15.45.45h0Z"/>
    </g>
    <g>
      <path class="st18" d="M998.28,70.12v-30.46c0-.29.15-.45.45-.45h2.28c.3,0,.45.15.45.45v27.95c0,.12.06.18.18.18h10.26c.3,0,.45.15.45.45v1.88c0,.3-.15.45-.45.45h-13.17c-.3,0-.45-.15-.45-.45h0Z"/>
      <path class="st18" d="M1017.34,68.77c-1.42-1.44-2.13-3.33-2.13-5.69v-16.39c0-2.36.71-4.26,2.13-5.69s3.28-2.15,5.58-2.15,4.21.72,5.64,2.15c1.44,1.44,2.15,3.33,2.15,5.69v16.39c0,2.33-.72,4.22-2.15,5.67-1.44,1.44-3.31,2.17-5.64,2.17s-4.16-.72-5.58-2.15ZM1026.26,66.78c.85-.91,1.28-2.08,1.28-3.51v-16.7c0-1.46-.42-2.65-1.28-3.56-.85-.91-1.96-1.37-3.34-1.37s-2.43.46-3.27,1.37-1.25,2.1-1.25,3.56v16.7c0,1.44.42,2.6,1.25,3.51.84.91,1.93,1.37,3.27,1.37s2.48-.46,3.34-1.37Z"/>
      <path class="st18" d="M1041.1,70.16l-6.5-30.46v-.09c0-.27.14-.41.41-.41h2.51c.29,0,.46.14.49.41l4.84,25.03c.03.06.06.09.09.09s.06-.03.09-.09l4.79-25.03c.06-.27.22-.41.49-.41h2.41c.33,0,.47.16.41.49l-6.5,30.46c-.03.27-.2.41-.49.41h-2.55c-.27,0-.43-.14-.49-.41h0Z"/>
      <path class="st18" d="M1069.67,41.99h-10.39c-.12,0-.18.06-.18.18v11.11c0,.12.06.18.18.18h6.54c.3,0,.45.15.45.45v1.93c0,.3-.15.45-.45.45h-6.54c-.12,0-.18.06-.18.18v11.15c0,.12.06.18.18.18h10.39c.3,0,.45.15.45.45v1.88c0,.3-.15.45-.45.45h-13.3c-.3,0-.45-.15-.45-.45v-30.47c0-.29.15-.45.45-.45h13.3c.3,0,.45.15.45.45v1.88c0,.3-.15.45-.45.45Z"/>
      <path class="st18" d="M1088.08,70.16l-5.91-30.46v-.09c0-.27.14-.41.41-.41h2.37c.3,0,.47.14.49.41l4.21,23.55c.03.06.06.1.09.1s.06-.03.09-.1l3.62-23.55c.06-.27.21-.41.45-.41h2.06c.27,0,.42.14.45.41l3.81,23.55c.03.06.06.1.09.1s.06-.03.09-.1l3.85-23.55c.06-.27.21-.41.45-.41h2.37c.15,0,.26.04.34.14.08.09.1.21.07.35l-5.55,30.46c-.03.27-.2.41-.49.41h-2.2c-.24,0-.39-.14-.45-.41l-3.76-23.65c-.03-.06-.07-.09-.11-.09s-.07.03-.07.09l-3.67,23.65c-.03.27-.18.41-.45.41h-2.15c-.27,0-.43-.14-.49-.41h0Z"/>
      <path class="st18" d="M1123.95,39.21h2.28c.29,0,.45.15.45.45v30.46c0,.3-.15.45-.45.45h-2.28c-.3,0-.45-.15-.45-.45v-13.66c0-.12-.06-.18-.18-.18h-7.98c-.12,0-.18.06-.18.18v13.66c0,.3-.15.45-.45.45h-2.28c-.3,0-.45-.15-.45-.45v-30.46c0-.29.15-.45.45-.45h2.28c.3,0,.45.15.45.45v13.62c0,.12.06.18.18.18h7.98c.12,0,.18-.06.18-.18v-13.62c0-.29.15-.45.45-.45Z"/>
      <path class="st18" d="M1144.46,70.16l-1.12-5.55c0-.06-.03-.1-.07-.14s-.1-.04-.16-.04h-8.11c-.06,0-.11.02-.16.04s-.07.08-.07.14l-1.12,5.55c-.03.27-.2.41-.49.41h-2.28c-.15,0-.26-.04-.34-.14s-.1-.21-.07-.36l6.71-30.46c.06-.27.22-.41.49-.41h2.69c.29,0,.46.14.49.41l6.81,30.46v.1c0,.27-.14.41-.41.41h-2.33c-.27,0-.43-.14-.49-.41ZM1135.51,61.83h7.08c.09,0,.14-.06.14-.18l-3.58-17.6c-.03-.09-.06-.14-.09-.14s-.06.04-.09.14l-3.58,17.6c0,.12.04.18.14.18h-.02Z"/>
      <path class="st18" d="M1163,39.66v1.88c0,.3-.15.45-.45.45h-5.91c-.12,0-.18.06-.18.18v27.95c0,.3-.15.45-.45.45h-2.28c-.3,0-.45-.15-.45-.45v-27.95c0-.12-.06-.18-.18-.18h-5.55c-.3,0-.45-.15-.45-.45v-1.88c0-.29.15-.45.45-.45h15c.3,0,.45.15.45.45h0Z"/>
      <path class="st18" d="M1002.99,123.81v-13.39c0-.12-.02-.2-.04-.22l-6.23-16.7-.04-.18c0-.24.14-.35.41-.35h2.42c.27,0,.45.12.54.35l4.39,13.12c.03.06.08.09.14.09s.1-.03.14-.09l4.39-13.12c.09-.24.27-.35.54-.35h2.41c.15,0,.26.05.34.16s.09.23.03.38l-6.18,16.7s-.04.1-.04.22v13.39c0,.3-.15.45-.45.45h-2.28c-.3,0-.45-.15-.45-.45h0Z"/>
      <path class="st18" d="M1018.15,122.51c-1.42-1.44-2.13-3.33-2.13-5.69v-16.39c0-2.36.71-4.26,2.13-5.69s3.28-2.15,5.58-2.15,4.21.72,5.64,2.15c1.44,1.44,2.15,3.33,2.15,5.69v16.39c0,2.33-.72,4.22-2.15,5.67-1.44,1.44-3.31,2.17-5.64,2.17s-4.16-.72-5.58-2.15ZM1027.06,120.52c.85-.91,1.28-2.08,1.28-3.51v-16.7c0-1.46-.42-2.65-1.28-3.56-.85-.91-1.96-1.37-3.34-1.37s-2.43.46-3.27,1.37-1.25,2.1-1.25,3.56v16.7c0,1.44.42,2.6,1.25,3.51.84.91,1.93,1.37,3.27,1.37s2.48-.46,3.34-1.37Z"/>
      <path class="st18" d="M1039.04,122.29c-1.4-1.58-2.1-3.68-2.1-6.27v-22.62c0-.29.15-.45.45-.45h2.28c.29,0,.45.15.45.45v22.97c0,1.64.42,2.98,1.23,3.99.82,1.01,1.9,1.52,3.24,1.52s2.48-.51,3.31-1.52c.84-1.01,1.25-2.34,1.25-3.99v-22.97c0-.29.15-.45.45-.45h2.28c.3,0,.45.15.45.45v22.62c0,2.6-.71,4.69-2.13,6.27s-3.3,2.37-5.62,2.37-4.15-.79-5.55-2.37Z"/>
      <path class="st18" d="M1067.48,123.85v-30.46c0-.29.15-.45.45-.45h6.89c2.3,0,4.13.75,5.51,2.26s2.06,3.53,2.06,6.06v14.69c0,2.54-.69,4.56-2.06,6.07-1.38,1.51-3.21,2.26-5.51,2.26h-6.89c-.3,0-.45-.15-.45-.45v.02ZM1070.84,121.53l3.94-.04c1.31,0,2.36-.51,3.16-1.52.8-1.01,1.2-2.39,1.23-4.12v-14.42c0-1.76-.39-3.15-1.17-4.17-.78-1.01-1.85-1.52-3.23-1.52h-3.94c-.12,0-.18.06-.18.18v25.44c0,.12.06.18.18.18h0Z"/>
      <path class="st18" d="M1089.67,122.51c-1.42-1.44-2.13-3.33-2.13-5.69v-16.39c0-2.36.71-4.26,2.13-5.69s3.28-2.15,5.58-2.15,4.21.72,5.64,2.15c1.44,1.44,2.15,3.33,2.15,5.69v16.39c0,2.33-.72,4.22-2.15,5.67-1.44,1.44-3.31,2.17-5.64,2.17s-4.16-.72-5.58-2.15ZM1098.58,120.52c.85-.91,1.28-2.08,1.28-3.51v-16.7c0-1.46-.42-2.65-1.28-3.56-.85-.91-1.96-1.37-3.34-1.37s-2.43.46-3.27,1.37-1.25,2.1-1.25,3.56v16.7c0,1.44.42,2.6,1.25,3.51.84.91,1.93,1.37,3.27,1.37s2.48-.46,3.34-1.37Z"/>
    </g>
    <g>
      <path class="st18" d="M642.94,519.14c0-1.37.5-2.56,1.5-3.56s2.2-1.5,3.6-1.5,2.63.5,3.63,1.5c1,.98,1.5,2.18,1.5,3.6s-.5,2.63-1.5,3.63c-.98,1-2.18,1.5-3.6,1.5s-2.63-.5-3.63-1.5-1.5-2.22-1.5-3.67ZM651.99,533.28v34h-7.86v-34h7.86Z"/>
      <path class="st18" d="M672.37,508.32v35.96l11.07-11h10.54l-14.77,14.28,15.85,19.73h-10.19l-11.24-14.35-1.26,1.26v13.09h-7.86v-58.97h7.86Z"/>
      <path class="st18" d="M701.51,519.14c0-1.37.5-2.56,1.5-3.56s2.2-1.5,3.6-1.5,2.63.5,3.63,1.5c1,.98,1.5,2.18,1.5,3.6s-.5,2.63-1.5,3.63c-.98,1-2.18,1.5-3.6,1.5s-2.63-.5-3.63-1.5-1.5-2.22-1.5-3.67ZM710.55,533.28v34h-7.86v-34h7.86Z"/>
      <path class="st18" d="M755.96,566.48c0,1.61-.05,3.02-.16,4.24-.1,1.22-.25,2.3-.44,3.23-.56,2.56-1.65,4.76-3.28,6.6-3.07,3.54-7.3,5.31-12.67,5.31-4.54,0-8.27-1.22-11.21-3.67-3.03-2.51-4.77-5.99-5.24-10.44h7.89c.3,1.68.8,2.97,1.5,3.88,1.63,2.12,4,3.18,7.12,3.18,5.75,0,8.62-3.53,8.62-10.58v-4.75c-3.12,3.19-6.72,4.78-10.79,4.78-4.63,0-8.43-1.68-11.38-5.03-2.98-3.4-4.47-7.65-4.47-12.74s1.38-9.17,4.15-12.64c2.98-3.68,6.91-5.52,11.8-5.52,4.28,0,7.84,1.59,10.68,4.78v-3.84h7.86v33.2h.02ZM748.42,550.35c0-3.3-.88-5.95-2.65-7.92-1.79-2.02-4.08-3.04-6.88-3.04-2.98,0-5.33,1.11-7.05,3.32-1.56,1.98-2.34,4.54-2.34,7.68s.78,5.63,2.34,7.61c1.7,2.16,4.05,3.25,7.05,3.25s5.38-1.09,7.12-3.28c1.61-1.98,2.41-4.51,2.41-7.61h0Z"/>
      <path class="st18" d="M793.52,533.28h7.89v34h-7.89v-3.56c-3.24,3.03-6.72,4.54-10.44,4.54-4.7,0-8.59-1.7-11.66-5.1-3.05-3.47-4.57-7.8-4.57-12.99s1.52-9.34,4.57-12.74c3.05-3.4,6.87-5.1,11.45-5.1,3.96,0,7.51,1.63,10.65,4.89v-3.95h0ZM774.87,550.18c0,3.26.87,5.91,2.62,7.96,1.79,2.07,4.05,3.11,6.77,3.11,2.91,0,5.26-1,7.05-3,1.79-2.07,2.69-4.7,2.69-7.89s-.9-5.82-2.69-7.89c-1.79-2.02-4.12-3.04-6.98-3.04-2.7,0-4.96,1.02-6.77,3.07-1.79,2.07-2.69,4.63-2.69,7.68Z"/>
      <path class="st18" d="M812.71,519.14c0-1.37.5-2.56,1.5-3.56s2.2-1.5,3.6-1.5,2.63.5,3.63,1.5c1,.98,1.5,2.18,1.5,3.6s-.5,2.63-1.5,3.63c-.98,1-2.18,1.5-3.6,1.5s-2.63-.5-3.63-1.5-1.5-2.22-1.5-3.67ZM821.75,533.28v34h-7.86v-34h7.86Z"/>
      <circle class="st20" cx="647.8" cy="519.38" r="5.47"/>
      <circle class="st20" cx="706.51" cy="519.38" r="5.47"/>
      <circle class="st20" cx="817.98" cy="519.38" r="5.47"/>
    </g>
    <path class="st17" d="M1047.33,688.29c1.45-1.32,4.93.1,6.62-.96l18.65-17.61,4.27-23.56,12.49-11.11c.86-.75,2.09-.67,2.86.12l17.13,29.83c-.09,2.2-2.49,3.23-3.97,1.48l-14.64-25.28-1.26-.33-8.75,7.66-3.73,22.6-.47,1.02-14.63,13.94c-.44.5-.27,1.18.26,1.5l52.31.14c.57.06.99-.41,1.06-.94.15-1.09-4.52-9.22-5.06-10.99-.63-1.67.6-2.7,1.61-3.87,4.2-4.83,9.61-9.33,13.93-14.14l.26-.76-11.69-40.25h-1.24l-12.54,21.25c-1.3,1.93-4.29.69-4-1.51.1-.76,1.16-2.35,1.59-3.14,4.69-8.6,10.16-16.79,14.83-25.41.62-5.99-.42-12.6.11-18.53.16-1.75,1.69-2.85,3.31-2.04,2.63,1.31-.25,7.12,2.33,7.34l10.2-4.37c.88-.5,1.5-1.15.64-2.05l-15.79-6.93c-1.65-1.93.2-4.38,2.56-3.62l22.23,9.81c.97.91.87,2.74-.29,3.44-5.99,3.12-12.92,5.16-18.89,8.19-.41.21-1.36.57-1.59.89-.68.93.03,6.46-.22,7.96l13.71,15.61,29.38,64.77c.68,1.3.48,2.66-.85,3.37l-111.44.11c-1.81,0-2.52-2.52-1.28-3.65v.02ZM1120.85,687.4c.38.29.84.28,1.29.32,10.07.87,21.37-.68,31.57,0,.7,0,1.12-.43,1.13-1.13l-26.67-59.8c-1.49-1.79-2.92-3.74-4.53-5.41-1.19-1.24-2.77-2.3-2.81.31l10.37,36.32-.86,1.64-14.93,15.39c-.25.78.29,1.67.6,2.41,1.39,3.33,3.37,6.64,4.82,9.95h.02Z"/>
    <g>
      <path class="st14" d="M555.44,406.29h8.64v-15.85l-18.73-18.46c-12.79-14.87,5.25-34.48,20.74-23.07,15.5-11.42,33.7,8.11,21.05,22.95l-18.87,18.59v15.85h11.66c1.35,0,3.81,2.22,4.43,3.43,1.34,2.61,1.06,8.84-.85,11.32,2.01,2.16,2.08,8.54.94,10.98-.97,2.06-3.43,2.84-3.73,3.34-.25.43-.54,2.77-.98,3.74-.66,1.46-1.28,2.26-3.1,1.65-2.28-.76-.52-3.62-.25-5.12h-20.43c1.34,6.06,7.05,9.5,13.1,7.99,1.36-.34,3.81-2.03,4.39.58.58,2.57-2.04,3.23-4.08,3.67-6.57,1.41-13.55-1.98-16.43-8.05-.56-1.17-.98-3.89-1.32-4.45-.42-.68-2.81-1.21-3.8-3.53-1.12-2.63-.88-8.58,1.01-10.96-1.99-2.15-2.07-8.32-1.01-10.79.71-1.68,3.28-3.2,3.37-3.44.32-.91-.26-2.61-.56-3.55-2-6.38-8.14-8.64-12.37-13.3-19.04-20.98-8.91-55.05,18.47-61.95,36.37-9.17,62.48,34.51,37.2,62.09-2.85,3.11-6.91,5.22-9.43,8.12-1.17,1.35-2.19,4.47-4.2,3.94-3.91-1.04.51-6.22,1.99-7.72,1.71-1.73,4.03-3,5.87-4.61,20.09-17.57,12.53-50.72-13.1-57.63-30.16-8.13-54.39,25.9-36.36,51.55,5.39,7.66,13.98,9.97,16.38,19.77.23.96.41,1.94.34,2.93h.02ZM555.12,349.79c-7.77.9-12.11,9.48-8.73,16.44,1.58,3.25,10.78,11.7,13.89,14.66,1.94,1.86,3.99,3.68,6,5.47,1.73-1.86,3.71-3.47,5.54-5.21,3.17-3.02,12.83-11.94,14.32-15.28,4.47-10.02-6.27-20.13-15.94-14.63-1.17.66-2.89,2.66-4.11,2.59-1.14-.06-2.45-1.65-3.44-2.29-2.23-1.45-4.88-2.06-7.53-1.75ZM553.01,410.54c-2.08.14-1.75,6.15-1.3,7.21,1.01,2.37,6.33-.42,6.08,3.32-.25,3.81-5.83.11-6.28,3.94-.23,1.92-.63,6.68,2.22,6.44,8.02-.58,17,.72,24.91,0,1.33-.12,2.05-.55,2.22-1.97.13-1.1.16-4.85-.4-5.63-.48-.67-1.06-.74-1.81-.8-4.57-.42-10.58.67-14.93,0-2.32-.36-2.12-3.82,0-4.16,4.33-.68,10.36.41,14.93,0,1.34-.12,2.05-.56,2.22-1.97.22-1.9.64-6.68-2.22-6.44l-25.63.07h0Z"/>
      <path class="st14" d="M609.59,362.34c1.04-.23,8.54-.23,9.58,0,1.92.43,1.94,3.78-.22,4.12-1.3.21-8.16.22-9.36-.04-2.02-.45-1.81-3.68,0-4.08h0Z"/>
      <path class="st14" d="M515.29,347.41c.44-.1.75-.05,1.18,0,1.15.16,7.28,2,8.24,2.51.38.2.95.61,1.07,1.02.56,6.06-8.05.55-11.05.31-1.52-.88-1.18-3.47.55-3.85h.01Z"/>
      <path class="st14" d="M530.74,338.79c1.43,1.58-.24,4.11-2.29,3.47-1.46-1.2-8.04-4.51-8.33-6.1-.25-1.4,1.1-2.93,2.52-2.52l8.1,5.15Z"/>
      <path class="st14" d="M615.62,347.42c2.71-.44,3.69,2.48,1.89,3.72-.62.43-7.9,2.66-8.79,2.75-2.24.23-3.2-2.25-1.67-3.79,2.67-.64,5.96-2.26,8.58-2.69h-.01Z"/>
      <path class="st14" d="M513.19,362.34c1.02-.23,8.3-.23,9.32,0,2.06.46,2.04,3.77-.22,4.12-1.05.16-8.56.19-9.36-.04-1.68-.49-1.82-3.61.26-4.08h0Z"/>
      <path class="st14" d="M609.33,333.79c2.13-.42,3.42,1.54,2.28,3.34l-7.78,5.05c-1.9.91-3.59-1.39-2.57-3.09.25-.41,7.48-5.18,8.07-5.3Z"/>
      <path class="st14" d="M576.33,353.95c1.58-.28,4.29,1.88,5.16,3.12.68.97,1.45,3.14,1.45,4.31,0,2.15-1.93,6.63-4.54,4.55-1.89-1.5.29-3.16.34-4.57.12-3.18-3.72-2.79-4.13-4.75-.22-1.07.64-2.45,1.72-2.65h0Z"/>
    </g>
    <g>
      <g>
        <path d="M363.28,448.83c.45.45-1.46,11-1.54,12.69-.04.91-.06,1.75.17,2.64.2.78,4.19,6.93,4.82,7.48,1.67,1.46,4.41,1.38,6.03-.13.75-.7,4.65-6.86,4.81-7.75.12-.71.09-1.52.06-2.24-.08-1.69-1.99-12.24-1.54-12.69,1.63-.05,3.32.37,4.62-.89,4.31-4.2,7.76-9.71,11.91-13.98,2.32-2.39,5.59-3.08,7.68.02,1.37,2.03,1.03,3.7-.26,5.6-4.55,6.7-12.01,13.27-17.02,19.89-.57.75-1.21,1.47-1.43,2.41l-.3,50.96c-.11.23-.23.44-.49.53-.53.18-7.3.17-8.17.05-.52-.07-.9-.15-1.09-.7l-.05-27.38c-.22-2.43-3.38-2.44-3.6,0l-.05,27.38c-.14.42-.43.61-.85.69-.79.15-8.21.1-8.58-.12-.22-.13-.4-.57-.45-.83l-.17-50.58c-.22-.94-.86-1.66-1.43-2.41-5.01-6.62-12.47-13.2-17.02-19.89-1.41-2.08-1.68-4.36.2-6.29,2.31-2.37,5.17-1.44,7.22.67,4.15,4.27,7.6,9.78,11.91,13.98,1.3,1.26,2.99.84,4.62.89h-.01Z"/>
        <circle cx="369.69" cy="432.49" r="9.7"/>
        <path d="M407.34,391.96l2.85,6.76,7.41.66c.08.26.06.56-.03.82-.41,1.17-4.97,3.67-5.28,4.73-.47,1.6,1.81,5.73,1.45,7.06-.12.45-.53.73-.99.6-1.14-.31-5.16-3.74-5.97-3.7l-6.42,3.76c-.35-.16-.63-.44-.66-.84-.08-1.35,2.08-5.82,1.61-6.99l-5.24-4.28c-.55-.61-.07-1.28.67-1.42,1.36-.26,5.55.08,6.53-.39,1.16-.94,2.22-6.37,3.26-6.75.22-.08.63-.13.81-.01h0Z"/>
        <path d="M338.24,404.56c-.27.32-.27.56-.22.96.22,1.93,1.27,4.33,1.67,6.28l-.5.77c-.78.39-5.41-3.4-6.58-3.69l-6.33,3.76c-.18-.03-.48-.31-.56-.48-.56-1.2,1.83-5.69,1.37-7.24-.32-1.09-4.89-3.59-5.28-4.73-.09-.26-.1-.56-.03-.82l7.41-.66,2.85-6.76c.19-.12.6-.07.81.01,1.04.37,2.1,5.81,3.26,6.75l6.53.39c.72.13,1.22.81.67,1.42-1.23,1.29-4.04,2.8-5.07,4.03h0Z"/>
        <path d="M372.82,398.53c.56.57,5.78.35,6.99.57.85.16.78.77.4,1.42-.65,1.1-4.91,3.68-5.11,4.4-.11,1.33,1.98,6.67,1.47,7.47-.11.17-.71.25-.97.16-1.61-.5-4.02-3.07-5.83-3.67-.84-.08-4.83,3.3-6,3.67-.26.08-.87,0-.97-.16-.51-.81,1.58-6.15,1.47-7.47-.2-.7-4.51-3.37-5.11-4.4-.24-.41-.4-.73-.13-1.19l7.41-.73c.55-.36,1.81-5.31,2.5-6.28.42-.59,1.05-.62,1.49,0,.97,1.36,1.47,4.62,2.39,6.2h0Z"/>
        <path d="M367.29,448.87l5.11.2,1.65,12.71c.09.58,0,1.05-.2,1.59s-3.01,4.88-3.42,5.29c-.48.48-.78.67-1.38.16-.39-.33-3.63-5.54-3.71-6.04.63-4.29.75-9.08,1.53-13.31.05-.29.08-.52.42-.61h0Z"/>
        <path d="M335.01,453.78c1.26,1.59-.42,3.93-2.38,2.77l-20.34-14.52c-1.58-1.73.58-4.02,2.42-2.68l20.29,14.43h0Z"/>
        <path d="M404.37,453.78l20.29-14.43c1.84-1.34,4,.94,2.42,2.68l-20.49,14.62c-2.05.78-3.39-1.14-2.22-2.86h0Z"/>
        <path d="M332.96,479.65c2.38-.55,3.29,1.7,1.48,3.27-5.83,5.06-13.7,9.14-19.77,14.06-2.06,1.15-3.98-1-2.27-2.78l20.56-14.56h0Z"/>
        <path d="M404.99,479.65c.62-.18,1.41-.1,1.96.24l20.03,14.32c1.7,1.82-.19,3.91-2.27,2.78l-20.53-14.85c-.62-.75-.06-2.23.81-2.48h0Z"/>
        <path d="M332.71,466.85c.83.83.62,2.07-.3,2.77l-24.37.24c-2.67-.31-1.92-3.65.52-3.59,7.18.49,15.23-.66,22.31-.01.54.05,1.46.22,1.84.6h0Z"/>
        <path d="M406.67,466.85c.37-.38,1.3-.55,1.84-.6,7.08-.64,15.13.51,22.31.01,2.44-.06,3.19,3.28.52,3.59l-24.37-.24c-.92-.69-1.12-1.93-.3-2.77h0Z"/>
      </g>
      <g>
        <path class="st19" d="M363.28,448.83c.45.45-1.46,11-1.54,12.69-.04.91-.06,1.75.17,2.64.2.78,4.19,6.93,4.82,7.48,1.67,1.46,4.41,1.38,6.03-.13.75-.7,4.65-6.86,4.81-7.75.12-.71.09-1.52.06-2.24-.08-1.69-1.99-12.24-1.54-12.69,1.63-.05,3.32.37,4.62-.89,4.31-4.2,7.76-9.71,11.91-13.98,2.32-2.39,5.59-3.08,7.68.02,1.37,2.03,1.03,3.7-.26,5.6-4.55,6.7-12.01,13.27-17.02,19.89-.57.75-1.21,1.47-1.43,2.41l-.3,50.96c-.11.23-.23.44-.49.53-.53.18-7.3.17-8.17.05-.52-.07-.9-.15-1.09-.7l-.05-27.38c-.22-2.43-3.38-2.44-3.6,0l-.05,27.38c-.14.42-.43.61-.85.69-.79.15-8.21.1-8.58-.12-.22-.13-.4-.57-.45-.83l-.17-50.58c-.22-.94-.86-1.66-1.43-2.41-5.01-6.62-12.47-13.2-17.02-19.89-1.41-2.08-1.68-4.36.2-6.29,2.31-2.37,5.17-1.44,7.22.67,4.15,4.27,7.6,9.78,11.91,13.98,1.3,1.26,2.99.84,4.62.89h-.01Z"/>
        <circle class="st19" cx="369.69" cy="432.49" r="9.7"/>
        <path class="st19" d="M407.34,391.96l2.85,6.76,7.41.66c.08.26.06.56-.03.82-.41,1.17-4.97,3.67-5.28,4.73-.47,1.6,1.81,5.73,1.45,7.06-.12.45-.53.73-.99.6-1.14-.31-5.16-3.74-5.97-3.7l-6.42,3.76c-.35-.16-.63-.44-.66-.84-.08-1.35,2.08-5.82,1.61-6.99l-5.24-4.28c-.55-.61-.07-1.28.67-1.42,1.36-.26,5.55.08,6.53-.39,1.16-.94,2.22-6.37,3.26-6.75.22-.08.63-.13.81-.01h0Z"/>
        <path class="st19" d="M338.24,404.56c-.27.32-.27.56-.22.96.22,1.93,1.27,4.33,1.67,6.28l-.5.77c-.78.39-5.41-3.4-6.58-3.69l-6.33,3.76c-.18-.03-.48-.31-.56-.48-.56-1.2,1.83-5.69,1.37-7.24-.32-1.09-4.89-3.59-5.28-4.73-.09-.26-.1-.56-.03-.82l7.41-.66,2.85-6.76c.19-.12.6-.07.81.01,1.04.37,2.1,5.81,3.26,6.75l6.53.39c.72.13,1.22.81.67,1.42-1.23,1.29-4.04,2.8-5.07,4.03h0Z"/>
        <path class="st19" d="M372.82,398.53c.56.57,5.78.35,6.99.57.85.16.78.77.4,1.42-.65,1.1-4.91,3.68-5.11,4.4-.11,1.33,1.98,6.67,1.47,7.47-.11.17-.71.25-.97.16-1.61-.5-4.02-3.07-5.83-3.67-.84-.08-4.83,3.3-6,3.67-.26.08-.87,0-.97-.16-.51-.81,1.58-6.15,1.47-7.47-.2-.7-4.51-3.37-5.11-4.4-.24-.41-.4-.73-.13-1.19l7.41-.73c.55-.36,1.81-5.31,2.5-6.28.42-.59,1.05-.62,1.49,0,.97,1.36,1.47,4.62,2.39,6.2h0Z"/>
        <path class="st19" d="M367.29,448.87l5.11.2,1.65,12.71c.09.58,0,1.05-.2,1.59s-3.01,4.88-3.42,5.29c-.48.48-.78.67-1.38.16-.39-.33-3.63-5.54-3.71-6.04.63-4.29.75-9.08,1.53-13.31.05-.29.08-.52.42-.61h0Z"/>
        <path class="st19" d="M335.01,453.78c1.26,1.59-.42,3.93-2.38,2.77l-20.34-14.52c-1.58-1.73.58-4.02,2.42-2.68l20.29,14.43h0Z"/>
        <path class="st19" d="M404.37,453.78l20.29-14.43c1.84-1.34,4,.94,2.42,2.68l-20.49,14.62c-2.05.78-3.39-1.14-2.22-2.86h0Z"/>
        <path class="st19" d="M332.96,479.65c2.38-.55,3.29,1.7,1.48,3.27-5.83,5.06-13.7,9.14-19.77,14.06-2.06,1.15-3.98-1-2.27-2.78l20.56-14.56h0Z"/>
        <path class="st19" d="M404.99,479.65c.62-.18,1.41-.1,1.96.24l20.03,14.32c1.7,1.82-.19,3.91-2.27,2.78l-20.53-14.85c-.62-.75-.06-2.23.81-2.48h0Z"/>
        <path class="st19" d="M332.71,466.85c.83.83.62,2.07-.3,2.77l-24.37.24c-2.67-.31-1.92-3.65.52-3.59,7.18.49,15.23-.66,22.31-.01.54.05,1.46.22,1.84.6h0Z"/>
        <path class="st19" d="M406.67,466.85c.37-.38,1.3-.55,1.84-.6,7.08-.64,15.13.51,22.31.01,2.44-.06,3.19,3.28.52,3.59l-24.37-.24c-.92-.69-1.12-1.93-.3-2.77h0Z"/>
      </g>
    </g>
  </g>
  <g>
    <g>
      <path d="M937.96,677.65v-22.82l-9.25,2.62-.19,28.28c-.57,1.34-3.59,1.55-4.95,1.84-7.66,1.61-16.1,3.32-23.83,4.43-14.4,2.08-30.46-1.58-44.66-4.7-1.16-.26-3.07-.35-3.59-1.57l-.32-28.48c-.45-.64-13.11-3.24-15.17-4.12-2.28-.97-2.1-3.64.29-4.21l54.19-14.15,52.66,13.93c1.2.41,2.4.67,2.46,2.18.11,2.75-3.04,2.02-3.28,3.25v22.83c.26,1.4,5.9,2.74,6.13,4.74l.06,19.66c-2.17,4.61-5.72-1.37-8.46-2.21-1.59.91-6.41,6.25-7.85,2.88l-.15-20.66c.3-1.03,4.73-3.25,5.92-3.72ZM934.7,651.02l-44.69-11.82-44.7,11.96,44.7,11.82,44.69-11.95ZM924.37,658.36l-34.37,8.99-34.37-8.99v24.73c7.27.94,14.44,2.78,21.69,3.99,8.37,1.39,13.66,1.84,22.15.59s16.53-3.49,24.9-4.58v-24.73ZM944.21,683.35l-3.99-2.12-3.89,2.26v12.91c1.42-.57,2.32-2.22,3.94-2.2s2.48,1.78,3.94,2.2v-13.04Z"/>
      <path d="M833.27,709.22l31.32.08c1.4.63,1.18,4.36,1.44,5.89,4.55,26.97,43.94,27.9,48.28-2.37.2-1.37-.39-2.77,1.28-3.61h31.41c.65.33,1.15,1,1.26,1.73.23,1.47.2,6.34.02,7.87-.05.43-.11.66-.31,1.05-.86,1.66-7.55,3.01-9.33,4.25-1.08,4.37-3.11,8.35-5.02,12.37.26,2.51,4.14,7.63,3.4,9.91l-11.3,11.52c-.28.23-.6.36-.96.41-2.18.32-6.5-2.89-8.81-3.4-1.35-.3-4.49,1.82-5.98,2.45-2.3.97-4.64,1.78-7.04,2.47-.72.54-2.51,6.94-3.34,8.34-.32.55-.68.92-1.28,1.17l-15.92.13c-.39.01-.71-.14-1.05-.31-1.63-.84-2.93-7.61-4.26-9.33-4.36-1.1-8.35-3.11-12.37-5.04-1.38-.09-6.21,2.94-7.98,3.4-.68.18-1.24.23-1.93,0l-11.52-11.3c-.55-.69-.47-1.37-.3-2.18.44-2.15,2.73-5.19,3.29-7.32.41-1.55-1.76-4.64-2.45-6.26-.97-2.3-1.71-4.68-2.46-7.05-.64-.77-6.89-2.47-8.35-3.34-.43-.26-.89-.61-1.08-1.09-.35-.87-.37-7.58-.19-8.74.13-.86.71-1.49,1.54-1.72ZM943.94,713.51h-25.13c-.65.46-.33,1.3-.44,2.01-2.53,15.75-17.05,26.47-32.9,24-12.67-1.97-22.91-12.74-23.9-25.56l-.37-.45h-25.13l.27,3.94c1.86.96,7.88,2.33,8.81,3.96.76,2.55,1.44,5.12,2.48,7.58.85,2.02,2.84,4.83,3.41,6.66.21.67.23.75.08,1.44-.47,2.11-2.61,5.14-3.31,7.33l.21,1.03,8.3,8.2,8.66-3.65c4.8,2.39,9.52,4.91,14.83,6.06,1.7.89,3,7.08,4.07,8.91l12.27.04c1.08-1.76,2.4-7.91,3.92-8.85,5.21-1.39,10.16-3.41,14.8-6.13,1.37-.23,8.51,3.78,8.99,3.57,1.05-1.63,8.05-7.29,8.38-8.49.24-.86-2.61-6.08-3.08-7.42-.17-.49-.41-.86-.36-1.42.1-1.04,2.96-5.73,3.6-7.27,1-2.4,1.72-4.89,2.38-7.4.97-1.95,7.1-3.02,9.05-4.26l.12-3.81Z"/>
      <path d="M872.13,709.22l35.52-.04c3.02.47,1.1,7.08.36,9.02-7.07,18.61-35.01,14.79-37.13-4.04-.16-1.45-.47-4.54,1.25-4.94ZM904.81,713.51h-29.62c1.69,9.16,10.39,14.66,19.44,11.97,5.13-1.52,9.4-6.69,10.18-11.97Z"/>
    </g>
    <g>
      <path class="st21" d="M937.96,677.65v-22.82l-9.25,2.62-.19,28.28c-.57,1.34-3.59,1.55-4.95,1.84-7.66,1.61-16.1,3.32-23.83,4.43-14.4,2.08-30.46-1.58-44.66-4.7-1.16-.26-3.07-.35-3.59-1.57l-.32-28.48c-.45-.64-13.11-3.24-15.17-4.12-2.28-.97-2.1-3.64.29-4.21l54.19-14.15,52.66,13.93c1.2.41,2.4.67,2.46,2.18.11,2.75-3.04,2.02-3.28,3.25v22.83c.26,1.4,5.9,2.74,6.13,4.74l.06,19.66c-2.17,4.61-5.72-1.37-8.46-2.21-1.59.91-6.41,6.25-7.85,2.88l-.15-20.66c.3-1.03,4.73-3.25,5.92-3.72ZM934.7,651.02l-44.69-11.82-44.7,11.96,44.7,11.82,44.69-11.95ZM924.37,658.36l-34.37,8.99-34.37-8.99v24.73c7.27.94,14.44,2.78,21.69,3.99,8.37,1.39,13.66,1.84,22.15.59s16.53-3.49,24.9-4.58v-24.73ZM944.21,683.35l-3.99-2.12-3.89,2.26v12.91c1.42-.57,2.32-2.22,3.94-2.2s2.48,1.78,3.94,2.2v-13.04Z"/>
      <path class="st21" d="M833.27,709.22l31.32.08c1.4.63,1.18,4.36,1.44,5.89,4.55,26.97,43.94,27.9,48.28-2.37.2-1.37-.39-2.77,1.28-3.61h31.41c.65.33,1.15,1,1.26,1.73.23,1.47.2,6.34.02,7.87-.05.43-.11.66-.31,1.05-.86,1.66-7.55,3.01-9.33,4.25-1.08,4.37-3.11,8.35-5.02,12.37.26,2.51,4.14,7.63,3.4,9.91l-11.3,11.52c-.28.23-.6.36-.96.41-2.18.32-6.5-2.89-8.81-3.4-1.35-.3-4.49,1.82-5.98,2.45-2.3.97-4.64,1.78-7.04,2.47-.72.54-2.51,6.94-3.34,8.34-.32.55-.68.92-1.28,1.17l-15.92.13c-.39.01-.71-.14-1.05-.31-1.63-.84-2.93-7.61-4.26-9.33-4.36-1.1-8.35-3.11-12.37-5.04-1.38-.09-6.21,2.94-7.98,3.4-.68.18-1.24.23-1.93,0l-11.52-11.3c-.55-.69-.47-1.37-.3-2.18.44-2.15,2.73-5.19,3.29-7.32.41-1.55-1.76-4.64-2.45-6.26-.97-2.3-1.71-4.68-2.46-7.05-.64-.77-6.89-2.47-8.35-3.34-.43-.26-.89-.61-1.08-1.09-.35-.87-.37-7.58-.19-8.74.13-.86.71-1.49,1.54-1.72ZM943.94,713.51h-25.13c-.65.46-.33,1.3-.44,2.01-2.53,15.75-17.05,26.47-32.9,24-12.67-1.97-22.91-12.74-23.9-25.56l-.37-.45h-25.13l.27,3.94c1.86.96,7.88,2.33,8.81,3.96.76,2.55,1.44,5.12,2.48,7.58.85,2.02,2.84,4.83,3.41,6.66.21.67.23.75.08,1.44-.47,2.11-2.61,5.14-3.31,7.33l.21,1.03,8.3,8.2,8.66-3.65c4.8,2.39,9.52,4.91,14.83,6.06,1.7.89,3,7.08,4.07,8.91l12.27.04c1.08-1.76,2.4-7.91,3.92-8.85,5.21-1.39,10.16-3.41,14.8-6.13,1.37-.23,8.51,3.78,8.99,3.57,1.05-1.63,8.05-7.29,8.38-8.49.24-.86-2.61-6.08-3.08-7.42-.17-.49-.41-.86-.36-1.42.1-1.04,2.96-5.73,3.6-7.27,1-2.4,1.72-4.89,2.38-7.4.97-1.95,7.1-3.02,9.05-4.26l.12-3.81Z"/>
      <path class="st21" d="M872.13,709.22l35.52-.04c3.02.47,1.1,7.08.36,9.02-7.07,18.61-35.01,14.79-37.13-4.04-.16-1.45-.47-4.54,1.25-4.94ZM904.81,713.51h-29.62c1.69,9.16,10.39,14.66,19.44,11.97,5.13-1.52,9.4-6.69,10.18-11.97Z"/>
    </g>
  </g>
</svg>