<?xml version="1.0" encoding="UTF-8"?>
<svg id="Layer_1" xmlns="http://www.w3.org/2000/svg" version="1.1" viewBox="0 0 720 450">
  <!-- Generator: Adobe Illustrator 29.6.1, SVG Export Plug-In . SVG Version: 2.1.1 Build 9)  -->
  <defs>
    <style>
      .st0 {
        fill: #01a;
      }

      .st1 {
        fill: #001696;
      }

      .st2 {
        fill: #fff;
      }

      .st3 {
        fill: #32c5f4;
      }

      .st4 {
        fill: none;
        stroke: #32c5f4;
        stroke-miterlimit: 10;
      }
    </style>
  </defs>
  <rect class="st0" width="720" height="450"/>
  <g>
    <path class="st2" d="M77.82,183.66c-1.42-1.39-2.13-3.26-2.13-5.6v-12.64c0-2.31.71-4.16,2.13-5.54s3.3-2.07,5.64-2.07,4.26.69,5.67,2.07,2.13,3.22,2.13,5.54v.43c0,.13-.05.24-.14.33s-.2.14-.33.14l-4.56.2c-.31,0-.47-.14-.47-.43v-1.01c0-.75-.21-1.36-.62-1.83-.42-.47-.98-.7-1.68-.7s-1.22.23-1.64.7c-.42.47-.62,1.08-.62,1.83v13.46c0,.75.21,1.36.62,1.81.42.46.96.68,1.64.68s1.26-.23,1.68-.68c.42-.45.62-1.06.62-1.81v-1.05c0-.13.04-.24.14-.33.09-.09.2-.14.33-.14l4.56.2c.13,0,.24.04.33.14.09.09.14.2.14.33v.39c0,2.34-.72,4.21-2.15,5.6-1.43,1.39-3.31,2.09-5.65,2.09s-4.22-.69-5.64-2.09Z"/>
    <path class="st2" d="M95.94,183.64c-1.43-1.4-2.15-3.28-2.15-5.62v-12.48c0-2.34.71-4.21,2.15-5.62,1.43-1.4,3.34-2.11,5.73-2.11s4.31.7,5.75,2.11,2.16,3.28,2.16,5.62v12.48c0,2.34-.72,4.21-2.16,5.62s-3.36,2.11-5.75,2.11-4.3-.7-5.73-2.11ZM103.43,180.26c.44-.51.66-1.18.66-2.01v-12.95c0-.83-.22-1.5-.66-2.01-.44-.51-1.03-.76-1.75-.76s-1.31.25-1.74.76c-.43.51-.64,1.18-.64,2.01v12.95c0,.83.21,1.5.64,2.01.43.51,1.01.76,1.74.76s1.31-.25,1.75-.76Z"/>
    <path class="st2" d="M123.92,158.27c.09-.09.2-.14.33-.14h4.52c.13,0,.24.05.33.14.09.09.14.2.14.33v26.36c0,.13-.05.24-.14.33s-.2.14-.33.14h-5.15c-.26,0-.43-.13-.51-.39l-4.84-15.09c-.03-.08-.07-.11-.14-.1-.06.01-.1.06-.1.14l.04,14.98c0,.13-.04.24-.14.33-.09.09-.2.14-.33.14h-4.52c-.13,0-.24-.04-.33-.14-.09-.09-.14-.2-.14-.33v-26.36c0-.13.05-.24.14-.33s.2-.14.33-.14h5.11c.26,0,.43.13.51.39l4.88,15.09c.03.08.07.11.14.1.06-.01.1-.06.1-.14l-.04-14.98c0-.13.04-.24.14-.33Z"/>
    <path class="st2" d="M137.43,185l-5.58-26.36-.04-.16c0-.23.14-.35.43-.35h5.03c.31,0,.48.14.51.43l2.69,17.16c.03.1.06.16.12.16s.09-.05.12-.16l2.61-17.16c.03-.29.2-.43.51-.43h4.88c.34,0,.47.17.39.51l-5.62,26.36c-.05.29-.22.43-.51.43h-5.03c-.29,0-.46-.14-.51-.43Z"/>
    <path class="st2" d="M165.88,162.71c-.09.09-.2.14-.33.14h-8.15c-.13,0-.2.07-.2.2v6.16c0,.13.06.19.2.19h4.68c.13,0,.24.05.33.14.09.09.14.2.14.33v3.78c0,.13-.05.24-.14.33s-.2.14-.33.14h-4.68c-.13,0-.2.06-.2.19v6.2c0,.13.06.2.2.2h8.15c.13,0,.24.05.33.14.09.09.14.2.14.33v3.78c0,.13-.05.24-.14.33-.09.09-.2.14-.33.14h-13.38c-.13,0-.24-.04-.33-.14s-.14-.2-.14-.33v-26.36c0-.13.05-.24.14-.33.09-.09.2-.14.33-.14h13.38c.13,0,.24.05.33.14.09.09.14.2.14.33v3.78c0,.13-.05.24-.14.33Z"/>
    <path class="st2" d="M173.68,185.25c-.09-.09-.14-.2-.14-.33v-10.14l-.04-.23-5.46-15.87c-.03-.05-.04-.12-.04-.2,0-.23.14-.35.43-.35h4.8c.29,0,.47.13.55.39l2.42,9.32c.03.08.06.12.12.12s.09-.04.12-.12l2.42-9.32c.08-.26.26-.39.55-.39h4.8c.16,0,.27.05.35.14s.09.23.04.41l-5.5,15.87-.04.23v10.14c0,.13-.05.24-.14.33-.09.09-.2.14-.33.14h-4.56c-.13,0-.24-.04-.33-.14Z"/>
    <path class="st2" d="M187.41,185.29c-.09-.09-.14-.2-.14-.33v-26.36c0-.13.04-.24.14-.33.09-.09.2-.14.33-.14h4.56c.13,0,.24.05.33.14s.14.2.14.33v26.36c0,.13-.04.24-.14.33-.09.09-.2.14-.33.14h-4.56c-.13,0-.24-.04-.33-.14Z"/>
    <path class="st2" d="M207.53,158.27c.09-.09.2-.14.33-.14h4.52c.13,0,.24.05.33.14.09.09.14.2.14.33v26.36c0,.13-.05.24-.14.33-.09.09-.2.14-.33.14h-5.15c-.26,0-.43-.13-.51-.39l-4.84-15.09c-.03-.08-.07-.11-.14-.1-.07.01-.1.06-.1.14l.04,14.98c0,.13-.05.24-.14.33s-.2.14-.33.14h-4.52c-.13,0-.24-.04-.33-.14s-.14-.2-.14-.33v-26.36c0-.13.05-.24.14-.33.09-.09.2-.14.33-.14h5.11c.26,0,.43.13.51.39l4.88,15.09c.03.08.07.11.14.1.06-.01.1-.06.1-.14l-.04-14.98c0-.13.04-.24.14-.33Z"/>
    <path class="st2" d="M218.03,183.73c-1.42-1.34-2.13-3.13-2.13-5.36v-13.18c0-2.24.71-4.02,2.13-5.36,1.42-1.34,3.3-2.01,5.64-2.01s4.22.68,5.65,2.03c1.43,1.35,2.15,3.15,2.15,5.38v1.48c0,.13-.05.24-.14.33-.09.09-.2.14-.33.14h-4.56c-.13,0-.24-.04-.33-.14-.09-.09-.14-.2-.14-.33v-1.56c0-.78-.21-1.41-.62-1.89-.42-.48-.98-.72-1.68-.72s-1.22.24-1.64.72c-.42.48-.62,1.11-.62,1.89v13.26c0,.78.21,1.41.62,1.89.42.48.96.72,1.64.72s1.26-.24,1.68-.72c.42-.48.62-1.11.62-1.89v-3.12c0-.13-.07-.2-.2-.2h-1.72c-.13,0-.24-.04-.33-.14-.09-.09-.14-.2-.14-.33v-3.47c0-.13.04-.24.14-.33.09-.09.2-.14.33-.14h6.94c.13,0,.24.05.33.14.09.09.14.2.14.33v7.22c0,2.24-.72,4.02-2.15,5.36s-3.31,2.01-5.65,2.01-4.22-.67-5.64-2.01Z"/>
    <path class="st2" d="M244.06,183.64c-1.43-1.4-2.14-3.28-2.14-5.62v-12.48c0-2.34.71-4.21,2.14-5.62s3.34-2.11,5.73-2.11,4.31.7,5.75,2.11,2.17,3.28,2.17,5.62v12.48c0,2.34-.72,4.21-2.17,5.62s-3.36,2.11-5.75,2.11-4.3-.7-5.73-2.11ZM251.55,180.26c.44-.51.66-1.18.66-2.01v-12.95c0-.83-.22-1.5-.66-2.01-.44-.51-1.03-.76-1.76-.76s-1.31.25-1.74.76-.64,1.18-.64,2.01v12.95c0,.83.21,1.5.64,2.01.43.51,1.01.76,1.74.76s1.31-.25,1.76-.76Z"/>
    <path class="st2" d="M272.04,158.27c.09-.09.2-.14.33-.14h4.52c.13,0,.24.05.33.14s.14.2.14.33v26.36c0,.13-.05.24-.14.33-.09.09-.2.14-.33.14h-5.15c-.26,0-.43-.13-.51-.39l-4.84-15.09c-.03-.08-.07-.11-.14-.1-.07.01-.1.06-.1.14l.04,14.98c0,.13-.05.24-.14.33-.09.09-.2.14-.33.14h-4.52c-.13,0-.24-.04-.33-.14-.09-.09-.14-.2-.14-.33v-26.36c0-.13.04-.24.14-.33.09-.09.2-.14.33-.14h5.11c.26,0,.43.13.51.39l4.88,15.09c.03.08.07.11.14.1.06-.01.1-.06.1-.14l-.04-14.98c0-.13.04-.24.14-.33Z"/>
    <path class="st2" d="M294.97,162.71c-.09.09-.2.14-.33.14h-8.15c-.13,0-.2.07-.2.2v6.16c0,.13.06.19.2.19h4.68c.13,0,.24.05.33.14.09.09.14.2.14.33v3.78c0,.13-.04.24-.14.33-.09.09-.2.14-.33.14h-4.68c-.13,0-.2.06-.2.19v6.2c0,.13.06.2.2.2h8.15c.13,0,.24.05.33.14.09.09.14.2.14.33v3.78c0,.13-.05.24-.14.33s-.2.14-.33.14h-13.38c-.13,0-.24-.04-.33-.14-.09-.09-.14-.2-.14-.33v-26.36c0-.13.05-.24.14-.33s.2-.14.33-.14h13.38c.13,0,.24.05.33.14.09.09.14.2.14.33v3.78c0,.13-.05.24-.14.33Z"/>
    <path class="st2" d="M309.17,158.27c.09-.09.2-.14.33-.14h4.52c.13,0,.24.05.33.14s.14.2.14.33v26.36c0,.13-.05.24-.14.33-.09.09-.2.14-.33.14h-5.15c-.26,0-.43-.13-.51-.39l-4.84-15.09c-.03-.08-.07-.11-.14-.1-.07.01-.1.06-.1.14l.04,14.98c0,.13-.05.24-.14.33-.09.09-.2.14-.33.14h-4.52c-.13,0-.24-.04-.33-.14-.09-.09-.14-.2-.14-.33v-26.36c0-.13.04-.24.14-.33.09-.09.2-.14.33-.14h5.11c.26,0,.43.13.51.39l4.88,15.09c.03.08.07.11.14.1.06-.01.1-.06.1-.14l-.04-14.98c0-.13.04-.24.14-.33Z"/>
    <path class="st2" d="M332.1,162.71c-.09.09-.2.14-.33.14h-8.15c-.13,0-.2.07-.2.2v6.16c0,.13.06.19.2.19h4.68c.13,0,.24.05.33.14.09.09.14.2.14.33v3.78c0,.13-.04.24-.14.33-.09.09-.2.14-.33.14h-4.68c-.13,0-.2.06-.2.19v6.2c0,.13.06.2.2.2h8.15c.13,0,.24.05.33.14.09.09.14.2.14.33v3.78c0,.13-.05.24-.14.33s-.2.14-.33.14h-13.38c-.13,0-.24-.04-.33-.14-.09-.09-.14-.2-.14-.33v-26.36c0-.13.04-.24.14-.33.09-.09.2-.14.33-.14h13.38c.13,0,.24.05.33.14.09.09.14.2.14.33v3.78c0,.13-.05.24-.14.33Z"/>
    <path class="st2" d="M338.05,184.85c-1.14-.6-2.03-1.44-2.65-2.52-.62-1.08-.94-2.32-.94-3.72v-1.13c0-.13.04-.24.14-.33.09-.09.2-.14.33-.14h4.49c.13,0,.24.05.33.14s.14.2.14.33v.86c0,.81.21,1.46.62,1.95.42.5.94.74,1.56.74s1.14-.23,1.56-.7c.42-.47.62-1.08.62-1.83s-.26-1.45-.78-2.01-1.53-1.38-3.04-2.48c-1.3-.94-2.35-1.77-3.16-2.5-.81-.73-1.5-1.62-2.07-2.69-.57-1.07-.86-2.3-.86-3.71,0-2.21.69-3.98,2.07-5.3,1.38-1.33,3.2-1.99,5.46-1.99s4.13.69,5.52,2.07c1.39,1.38,2.09,3.19,2.09,5.42v.94c0,.13-.04.24-.14.33s-.2.14-.33.14h-4.48c-.13,0-.24-.04-.33-.14-.09-.09-.14-.2-.14-.33v-1.05c0-.81-.2-1.45-.6-1.93-.4-.48-.93-.72-1.58-.72s-1.13.23-1.52.68c-.39.46-.58,1.09-.58,1.89s.25,1.47.74,2.07c.49.6,1.47,1.43,2.92,2.5,1.61,1.2,2.83,2.16,3.65,2.91.82.74,1.46,1.56,1.91,2.46.46.9.68,1.97.68,3.22,0,2.29-.7,4.11-2.11,5.46-1.4,1.35-3.25,2.03-5.54,2.03-1.51,0-2.83-.3-3.98-.9Z"/>
    <path class="st2" d="M355.36,184.85c-1.14-.6-2.03-1.44-2.65-2.52-.62-1.08-.94-2.32-.94-3.72v-1.13c0-.13.04-.24.14-.33.09-.09.2-.14.33-.14h4.49c.13,0,.24.05.33.14s.14.2.14.33v.86c0,.81.21,1.46.62,1.95.42.5.94.74,1.56.74s1.14-.23,1.56-.7c.42-.47.62-1.08.62-1.83s-.26-1.45-.78-2.01-1.53-1.38-3.04-2.48c-1.3-.94-2.35-1.77-3.16-2.5-.81-.73-1.5-1.62-2.07-2.69-.57-1.07-.86-2.3-.86-3.71,0-2.21.69-3.98,2.07-5.3,1.38-1.33,3.2-1.99,5.46-1.99s4.13.69,5.52,2.07c1.39,1.38,2.09,3.19,2.09,5.42v.94c0,.13-.04.24-.14.33s-.2.14-.33.14h-4.48c-.13,0-.24-.04-.33-.14-.09-.09-.14-.2-.14-.33v-1.05c0-.81-.2-1.45-.6-1.93-.4-.48-.93-.72-1.58-.72s-1.13.23-1.52.68c-.39.46-.58,1.09-.58,1.89s.25,1.47.74,2.07c.49.6,1.47,1.43,2.92,2.5,1.61,1.2,2.83,2.16,3.65,2.91.82.74,1.46,1.56,1.91,2.46.46.9.68,1.97.68,3.22,0,2.29-.7,4.11-2.11,5.46-1.4,1.35-3.25,2.03-5.54,2.03-1.51,0-2.83-.3-3.98-.9Z"/>
    <path class="st2" d="M87.05,231.8l-.62-3.74c0-.13-.08-.2-.23-.2h-4.95c-.16,0-.23.07-.23.2l-.62,3.74c-.03.29-.19.43-.51.43h-4.56c-.34,0-.47-.17-.39-.51l5.73-26.36c.05-.29.22-.43.51-.43h5.26c.29,0,.46.14.51.43l5.69,26.36.04.16c0,.23-.14.35-.43.35h-4.68c-.31,0-.48-.14-.51-.43ZM81.94,223.61h3.51c.13,0,.18-.06.16-.2l-1.83-10.65c-.03-.08-.07-.12-.12-.12s-.09.04-.12.12l-1.76,10.65c0,.13.05.2.16.2Z"/>
    <path class="st2" d="M106.18,205.07c.09-.09.2-.14.33-.14h4.52c.13,0,.24.05.33.14.09.09.14.2.14.33v26.36c0,.13-.05.24-.14.33-.09.09-.2.14-.33.14h-5.15c-.26,0-.43-.13-.51-.39l-4.84-15.09c-.03-.08-.07-.11-.14-.1-.07.01-.1.06-.1.14l.04,14.98c0,.13-.05.24-.14.33s-.2.14-.33.14h-4.52c-.13,0-.24-.04-.33-.14s-.14-.2-.14-.33v-26.36c0-.13.05-.24.14-.33.09-.09.2-.14.33-.14h5.11c.26,0,.43.13.51.39l4.88,15.09c.03.08.07.11.14.1.06-.01.1-.06.1-.14l-.04-14.98c0-.13.04-.24.14-.33Z"/>
    <path class="st2" d="M115.07,232.09c-.09-.09-.14-.2-.14-.33v-26.36c0-.13.04-.24.14-.33.09-.09.2-.14.33-.14h7.06c2.37,0,4.26.69,5.69,2.07,1.43,1.38,2.14,3.21,2.14,5.5v12.17c0,2.29-.71,4.12-2.14,5.5-1.43,1.38-3.33,2.07-5.69,2.07h-7.06c-.13,0-.24-.04-.33-.14ZM120.62,227.51l1.76-.04c.7-.03,1.27-.33,1.71-.9.44-.57.68-1.33.7-2.26v-11.47c0-.99-.22-1.77-.66-2.34-.44-.57-1.04-.86-1.79-.86h-1.72c-.13,0-.2.07-.2.2v17.47c0,.13.07.2.2.2Z"/>
    <path class="st2" d="M145.66,231.8l-5.26-26.36-.04-.16c0-.23.14-.35.43-.35h4.76c.31,0,.48.14.51.43l2.22,14.04c.03.1.07.16.12.16s.09-.05.12-.16l2.11-14.04c.03-.29.19-.43.51-.43h3.94c.31,0,.48.14.51.43l2.3,14.04c.03.1.06.16.12.16s.09-.05.12-.16l1.99-14.04c.03-.29.19-.43.51-.43h4.6c.34,0,.48.17.43.51l-4.95,26.36c-.03.29-.2.43-.51.43h-4.21c-.31,0-.48-.14-.51-.43l-2.3-14.43c-.03-.1-.06-.16-.12-.16s-.09.05-.12.16l-2.07,14.43c-.03.29-.19.43-.51.43h-4.17c-.29,0-.46-.14-.51-.43Z"/>
    <path class="st2" d="M182.34,209.51c-.09.09-.2.14-.33.14h-8.15c-.13,0-.2.07-.2.2v6.16c0,.13.07.19.2.19h4.68c.13,0,.24.05.33.14.09.09.14.2.14.33v3.78c0,.13-.05.24-.14.33-.09.09-.2.14-.33.14h-4.68c-.13,0-.2.06-.2.19v6.2c0,.13.07.2.2.2h8.15c.13,0,.24.05.33.14.09.09.14.2.14.33v3.78c0,.13-.04.24-.14.33-.09.09-.2.14-.33.14h-13.38c-.13,0-.24-.04-.33-.14-.09-.09-.14-.2-.14-.33v-26.36c0-.13.04-.24.14-.33.09-.09.2-.14.33-.14h13.38c.13,0,.24.05.33.14.09.09.14.2.14.33v3.78c0,.13-.04.24-.14.33Z"/>
    <path class="st2" d="M185.38,232.09c-.09-.09-.14-.2-.14-.33v-26.36c0-.13.05-.24.14-.33s.2-.14.33-.14h4.56c.13,0,.24.05.33.14.09.09.14.2.14.33v21.92c0,.13.06.2.2.2h8.19c.13,0,.24.05.33.14.09.09.14.2.14.33v3.78c0,.13-.05.24-.14.33s-.2.14-.33.14h-13.42c-.13,0-.24-.04-.33-.14Z"/>
    <path class="st2" d="M202,232.09c-.09-.09-.14-.2-.14-.33v-26.36c0-.13.04-.24.14-.33.09-.09.2-.14.33-.14h4.56c.13,0,.24.05.33.14s.14.2.14.33v21.92c0,.13.07.2.2.2h8.19c.13,0,.24.05.33.14.09.09.14.2.14.33v3.78c0,.13-.04.24-.14.33-.09.09-.2.14-.33.14h-13.42c-.13,0-.24-.04-.33-.14Z"/>
    <path class="st2" d="M239.77,230.28c-1.46,1.3-3.34,1.95-5.66,1.95h-7.37c-.13,0-.24-.04-.33-.14-.09-.09-.14-.2-.14-.33v-26.36c0-.13.05-.24.14-.33s.2-.14.33-.14h6.51c2.6,0,4.63.62,6.1,1.87,1.47,1.25,2.2,3.11,2.2,5.58s-.88,4.45-2.65,5.62c-.1.08-.12.16-.04.23,2.05,1.46,3.08,3.61,3.08,6.47,0,2.42-.73,4.28-2.18,5.58ZM231.77,209.84v6.12c0,.13.06.19.2.19h1.4c.88,0,1.57-.28,2.07-.84.49-.56.74-1.35.74-2.36,0-1.07-.24-1.88-.72-2.46-.48-.57-1.18-.86-2.09-.86h-1.4c-.13,0-.2.07-.2.2ZM235.71,226.54c.49-.62.74-1.51.74-2.65s-.25-2.05-.74-2.73c-.49-.68-1.16-1.01-1.99-1.01h-1.75c-.13,0-.2.07-.2.2v6.94c0,.13.06.2.2.2h1.72c.86,0,1.53-.31,2.03-.94Z"/>
    <path class="st2" d="M258.66,209.51c-.09.09-.2.14-.33.14h-8.15c-.13,0-.2.07-.2.2v6.16c0,.13.06.19.2.19h4.68c.13,0,.24.05.33.14.09.09.14.2.14.33v3.78c0,.13-.05.24-.14.33-.09.09-.2.14-.33.14h-4.68c-.13,0-.2.06-.2.19v6.2c0,.13.06.2.2.2h8.15c.13,0,.24.05.33.14.09.09.14.2.14.33v3.78c0,.13-.05.24-.14.33s-.2.14-.33.14h-13.38c-.13,0-.24-.04-.33-.14-.09-.09-.14-.2-.14-.33v-26.36c0-.13.05-.24.14-.33s.2-.14.33-.14h13.38c.13,0,.24.05.33.14.09.09.14.2.14.33v3.78c0,.13-.05.24-.14.33Z"/>
    <path class="st2" d="M261.7,232.09c-.09-.09-.14-.2-.14-.33v-26.36c0-.13.05-.24.14-.33.09-.09.2-.14.33-.14h4.56c.13,0,.24.05.33.14.09.09.14.2.14.33v26.36c0,.13-.05.24-.14.33s-.2.14-.33.14h-4.56c-.13,0-.24-.04-.33-.14Z"/>
    <path class="st2" d="M281.83,205.07c.09-.09.2-.14.33-.14h4.52c.13,0,.24.05.33.14.09.09.14.2.14.33v26.36c0,.13-.05.24-.14.33-.09.09-.2.14-.33.14h-5.15c-.26,0-.43-.13-.51-.39l-4.84-15.09c-.03-.08-.07-.11-.14-.1-.06.01-.1.06-.1.14l.04,14.98c0,.13-.04.24-.14.33-.09.09-.2.14-.33.14h-4.52c-.13,0-.24-.04-.33-.14-.09-.09-.14-.2-.14-.33v-26.36c0-.13.04-.24.14-.33.09-.09.2-.14.33-.14h5.11c.26,0,.43.13.51.39l4.88,15.09c.03.08.07.11.14.1.06-.01.1-.06.1-.14l-.04-14.98c0-.13.04-.24.14-.33Z"/>
    <path class="st2" d="M292.32,230.53c-1.42-1.34-2.12-3.13-2.12-5.36v-13.18c0-2.24.71-4.02,2.12-5.36,1.42-1.34,3.3-2.01,5.64-2.01s4.22.68,5.66,2.03c1.43,1.35,2.14,3.15,2.14,5.38v1.48c0,.13-.05.24-.14.33-.09.09-.2.14-.33.14h-4.56c-.13,0-.24-.04-.33-.14-.09-.09-.14-.2-.14-.33v-1.56c0-.78-.21-1.41-.62-1.89-.42-.48-.97-.72-1.68-.72s-1.22.24-1.64.72c-.42.48-.62,1.11-.62,1.89v13.26c0,.78.21,1.41.62,1.89.42.48.96.72,1.64.72s1.26-.24,1.68-.72c.42-.48.62-1.11.62-1.89v-3.12c0-.13-.06-.2-.19-.2h-1.72c-.13,0-.24-.04-.33-.14-.09-.09-.14-.2-.14-.33v-3.47c0-.13.04-.24.14-.33s.2-.14.33-.14h6.94c.13,0,.24.05.33.14.09.09.14.2.14.33v7.22c0,2.24-.71,4.02-2.14,5.36-1.43,1.34-3.32,2.01-5.66,2.01s-4.22-.67-5.64-2.01Z"/>
    <path class="st2" d="M327.56,231.8l-.62-3.74c0-.13-.08-.2-.23-.2h-4.95c-.16,0-.23.07-.23.2l-.62,3.74c-.03.29-.2.43-.51.43h-4.56c-.34,0-.47-.17-.39-.51l5.73-26.36c.05-.29.22-.43.51-.43h5.26c.29,0,.46.14.51.43l5.69,26.36.04.16c0,.23-.14.35-.43.35h-4.68c-.31,0-.48-.14-.51-.43ZM322.45,223.61h3.51c.13,0,.18-.06.16-.2l-1.83-10.65c-.03-.08-.07-.12-.12-.12s-.09.04-.12.12l-1.75,10.65c0,.13.05.2.16.2Z"/>
    <path class="st2" d="M337.46,231.65c-1.14-.6-2.03-1.44-2.65-2.52-.62-1.08-.94-2.32-.94-3.72v-1.13c0-.13.04-.24.14-.33.09-.09.2-.14.33-.14h4.49c.13,0,.24.05.33.14s.14.2.14.33v.86c0,.81.21,1.46.62,1.95.42.5.94.74,1.56.74s1.14-.23,1.56-.7c.42-.47.62-1.08.62-1.83s-.26-1.45-.78-2.01-1.53-1.38-3.04-2.48c-1.3-.94-2.35-1.77-3.16-2.5-.81-.73-1.5-1.62-2.07-2.69-.57-1.07-.86-2.3-.86-3.71,0-2.21.69-3.98,2.07-5.3,1.38-1.33,3.2-1.99,5.46-1.99s4.13.69,5.52,2.07c1.39,1.38,2.09,3.19,2.09,5.42v.94c0,.13-.04.24-.14.33s-.2.14-.33.14h-4.48c-.13,0-.24-.04-.33-.14-.09-.09-.14-.2-.14-.33v-1.05c0-.81-.2-1.45-.6-1.93-.4-.48-.93-.72-1.58-.72s-1.13.23-1.52.68c-.39.46-.58,1.09-.58,1.89s.25,1.47.74,2.07c.49.6,1.47,1.43,2.92,2.5,1.61,1.2,2.83,2.16,3.65,2.91.82.74,1.46,1.56,1.91,2.46.46.9.68,1.97.68,3.22,0,2.29-.7,4.11-2.11,5.46-1.4,1.35-3.25,2.03-5.54,2.03-1.51,0-2.83-.3-3.98-.9Z"/>
    <path class="st2" d="M77.82,277.26c-1.42-1.39-2.13-3.26-2.13-5.6v-12.64c0-2.31.71-4.16,2.13-5.54s3.3-2.07,5.64-2.07,4.26.69,5.67,2.07,2.13,3.22,2.13,5.54v.43c0,.13-.05.24-.14.33s-.2.14-.33.14l-4.56.2c-.31,0-.47-.14-.47-.43v-1.01c0-.75-.21-1.36-.62-1.83-.42-.47-.98-.7-1.68-.7s-1.22.23-1.64.7c-.42.47-.62,1.08-.62,1.83v13.46c0,.75.21,1.36.62,1.81.42.46.96.68,1.64.68s1.26-.23,1.68-.68c.42-.45.62-1.06.62-1.81v-1.05c0-.13.04-.24.14-.33.09-.09.2-.14.33-.14l4.56.2c.13,0,.24.04.33.14.09.09.14.2.14.33v.39c0,2.34-.72,4.21-2.15,5.6-1.43,1.39-3.31,2.09-5.65,2.09s-4.22-.69-5.64-2.09Z"/>
    <path class="st2" d="M95.94,277.24c-1.43-1.4-2.15-3.28-2.15-5.62v-12.48c0-2.34.71-4.21,2.15-5.62,1.43-1.4,3.34-2.11,5.73-2.11s4.31.7,5.75,2.11,2.16,3.28,2.16,5.62v12.48c0,2.34-.72,4.21-2.16,5.62s-3.36,2.11-5.75,2.11-4.3-.7-5.73-2.11ZM103.43,273.86c.44-.51.66-1.18.66-2.01v-12.95c0-.83-.22-1.5-.66-2.01-.44-.51-1.03-.76-1.75-.76s-1.31.25-1.74.76c-.43.51-.64,1.18-.64,2.01v12.95c0,.83.21,1.5.64,2.01.43.51,1.01.76,1.74.76s1.31-.25,1.75-.76Z"/>
    <path class="st2" d="M122.85,278.64l-3-10.76c-.05-.1-.12-.16-.2-.16h-1.33c-.13,0-.2.06-.2.19v10.65c0,.13-.04.24-.14.33-.09.09-.2.14-.33.14h-4.56c-.13,0-.24-.04-.33-.14-.09-.09-.14-.2-.14-.33v-26.36c0-.13.05-.24.14-.33s.2-.14.33-.14h7.88c1.43,0,2.7.34,3.82,1.03,1.12.69,1.98,1.66,2.59,2.91.61,1.25.92,2.68.92,4.29s-.29,2.89-.88,4.06-1.4,2.08-2.44,2.73c-.05.03-.09.06-.12.1s-.03.08,0,.14l3.59,11.5.04.16c0,.26-.14.39-.43.39h-4.68c-.29,0-.47-.13-.55-.39ZM118.13,256.65v6.67c0,.13.06.19.2.19h1.75c.81,0,1.46-.32,1.97-.96.51-.64.76-1.49.76-2.55s-.25-1.96-.76-2.59c-.51-.64-1.16-.96-1.97-.96h-1.75c-.13,0-.2.07-.2.2Z"/>
    <path class="st2" d="M145.18,256.31c-.09.09-.2.14-.33.14h-8.15c-.13,0-.2.07-.2.2v6.16c0,.13.06.19.2.19h4.68c.13,0,.24.05.33.14.09.09.14.2.14.33v3.78c0,.13-.05.24-.14.33s-.2.14-.33.14h-4.68c-.13,0-.2.06-.2.19v6.2c0,.13.06.2.2.2h8.15c.13,0,.24.05.33.14.09.09.14.2.14.33v3.78c0,.13-.05.24-.14.33-.09.09-.2.14-.33.14h-13.38c-.13,0-.24-.04-.33-.14s-.14-.2-.14-.33v-26.36c0-.13.05-.24.14-.33.09-.09.2-.14.33-.14h13.38c.13,0,.24.05.33.14.09.09.14.2.14.33v3.78c0,.13-.05.24-.14.33Z"/>
    <path class="st2" d="M171.34,251.87c.09.09.14.2.14.33v3.78c0,.13-.05.24-.14.33s-.2.14-.33.14h-4.88c-.13,0-.2.07-.2.2v21.92c0,.13-.04.24-.14.33-.09.09-.2.14-.33.14h-4.56c-.13,0-.24-.04-.33-.14-.09-.09-.14-.2-.14-.33v-21.92c0-.13-.07-.2-.2-.2h-4.68c-.13,0-.24-.04-.33-.14-.09-.09-.14-.2-.14-.33v-3.78c0-.13.04-.24.14-.33.09-.09.2-.14.33-.14h15.44c.13,0,.24.05.33.14Z"/>
    <path class="st2" d="M175.15,277.24c-1.43-1.4-2.15-3.28-2.15-5.62v-12.48c0-2.34.71-4.21,2.15-5.62,1.43-1.4,3.34-2.11,5.73-2.11s4.31.7,5.75,2.11c1.44,1.4,2.17,3.28,2.17,5.62v12.48c0,2.34-.72,4.21-2.17,5.62-1.44,1.4-3.36,2.11-5.75,2.11s-4.3-.7-5.73-2.11ZM182.63,273.86c.44-.51.66-1.18.66-2.01v-12.95c0-.83-.22-1.5-.66-2.01s-1.03-.76-1.75-.76-1.31.25-1.74.76c-.43.51-.64,1.18-.64,2.01v12.95c0,.83.21,1.5.64,2.01.43.51,1.01.76,1.74.76s1.31-.25,1.75-.76Z"/>
    <path class="st2" d="M199.77,278.89c-.09-.09-.14-.2-.14-.33v-26.36c0-.13.05-.24.14-.33.09-.09.2-.14.33-.14h4.56c.13,0,.24.05.33.14.09.09.14.2.14.33v26.36c0,.13-.05.24-.14.33s-.2.14-.33.14h-4.56c-.13,0-.24-.04-.33-.14Z"/>
    <path class="st2" d="M208.74,278.89c-.09-.09-.14-.2-.14-.33v-26.36c0-.13.04-.24.14-.33.09-.09.2-.14.33-.14h4.56c.13,0,.24.05.33.14s.14.2.14.33v9.83c0,.1.03.16.1.18s.11-.03.14-.14l5.03-9.98c.13-.23.31-.35.55-.35h4.84c.18,0,.31.05.37.14s.06.23-.02.41l-5.77,11.23c-.03.1-.04.18-.04.23l6.12,14.74c.03.05.04.13.04.23,0,.21-.13.31-.39.31h-4.88c-.29,0-.47-.12-.54-.35l-4.06-10.22c-.03-.08-.06-.11-.12-.1-.05.01-.1.04-.16.1l-1.13,2.03c-.05.1-.08.18-.08.23v7.84c0,.13-.04.24-.14.33-.09.09-.2.14-.33.14h-4.56c-.13,0-.24-.04-.33-.14Z"/>
    <path class="st2" d="M227.89,278.89c-.09-.09-.14-.2-.14-.33v-26.36c0-.13.04-.24.14-.33.09-.09.2-.14.33-.14h4.56c.13,0,.24.05.33.14.09.09.14.2.14.33v26.36c0,.13-.05.24-.14.33-.09.09-.2.14-.33.14h-4.56c-.13,0-.24-.04-.33-.14Z"/>
    <path class="st2" d="M238.46,277.33c-1.42-1.34-2.12-3.13-2.12-5.36v-13.18c0-2.24.71-4.02,2.12-5.36,1.42-1.34,3.3-2.01,5.64-2.01s4.23.68,5.66,2.03c1.43,1.35,2.14,3.15,2.14,5.38v1.48c0,.13-.04.24-.14.33-.09.09-.2.14-.33.14h-4.56c-.13,0-.24-.04-.33-.14-.09-.09-.14-.2-.14-.33v-1.56c0-.78-.21-1.41-.62-1.89-.42-.48-.97-.72-1.68-.72s-1.22.24-1.64.72c-.42.48-.62,1.11-.62,1.89v13.26c0,.78.21,1.41.62,1.89.42.48.96.72,1.64.72s1.26-.24,1.68-.72c.42-.48.62-1.11.62-1.89v-3.12c0-.13-.07-.2-.2-.2h-1.72c-.13,0-.24-.04-.33-.14-.09-.09-.14-.2-.14-.33v-3.47c0-.13.05-.24.14-.33.09-.09.2-.14.33-.14h6.94c.13,0,.24.05.33.14s.14.2.14.33v7.22c0,2.24-.71,4.02-2.14,5.36s-3.32,2.01-5.66,2.01-4.22-.67-5.64-2.01Z"/>
    <path class="st2" d="M265.51,278.6l-.62-3.74c0-.13-.08-.2-.23-.2h-4.95c-.16,0-.23.07-.23.2l-.62,3.74c-.03.29-.19.43-.51.43h-4.56c-.34,0-.47-.17-.39-.51l5.73-26.36c.05-.29.22-.43.51-.43h5.26c.29,0,.46.14.51.43l5.69,26.36.04.16c0,.23-.14.35-.43.35h-4.68c-.31,0-.48-.14-.51-.43ZM260.4,270.41h3.51c.13,0,.18-.06.16-.2l-1.83-10.65c-.03-.08-.07-.12-.12-.12s-.09.04-.12.12l-1.76,10.65c0,.13.05.2.16.2Z"/>
    <path class="st2" d="M273.48,278.89c-.09-.09-.14-.2-.14-.33v-26.36c0-.13.05-.24.14-.33.09-.09.2-.14.33-.14h4.56c.13,0,.24.05.33.14.09.09.14.2.14.33v26.36c0,.13-.05.24-.14.33s-.2.14-.33.14h-4.56c-.13,0-.24-.04-.33-.14Z"/>
    <path class="st2" d="M304.29,256.31c-.09.09-.2.14-.33.14h-8.15c-.13,0-.2.07-.2.2v6.16c0,.13.06.19.2.19h4.68c.13,0,.24.05.33.14.09.09.14.2.14.33v3.78c0,.13-.04.24-.14.33-.09.09-.2.14-.33.14h-4.68c-.13,0-.2.06-.2.19v6.2c0,.13.06.2.2.2h8.15c.13,0,.24.05.33.14.09.09.14.2.14.33v3.78c0,.13-.05.24-.14.33s-.2.14-.33.14h-13.38c-.13,0-.24-.04-.33-.14-.09-.09-.14-.2-.14-.33v-26.36c0-.13.04-.24.14-.33.09-.09.2-.14.33-.14h13.38c.13,0,.24.05.33.14.09.09.14.2.14.33v3.78c0,.13-.05.24-.14.33Z"/>
    <path class="st2" d="M311.95,278.6l-5.58-26.36-.04-.16c0-.23.14-.35.43-.35h5.03c.31,0,.48.14.51.43l2.69,17.16c.03.1.07.16.12.16s.09-.05.12-.16l2.61-17.16c.03-.29.19-.43.51-.43h4.88c.34,0,.47.17.39.51l-5.62,26.36c-.05.29-.22.43-.51.43h-5.03c-.29,0-.46-.14-.51-.43Z"/>
    <path class="st2" d="M340.4,256.31c-.09.09-.2.14-.33.14h-8.15c-.13,0-.2.07-.2.2v6.16c0,.13.06.19.2.19h4.68c.13,0,.24.05.33.14.09.09.14.2.14.33v3.78c0,.13-.04.24-.14.33-.09.09-.2.14-.33.14h-4.68c-.13,0-.2.06-.2.19v6.2c0,.13.06.2.2.2h8.15c.13,0,.24.05.33.14.09.09.14.2.14.33v3.78c0,.13-.05.24-.14.33s-.2.14-.33.14h-13.38c-.13,0-.24-.04-.33-.14-.09-.09-.14-.2-.14-.33v-26.36c0-.13.04-.24.14-.33.09-.09.2-.14.33-.14h13.38c.13,0,.24.05.33.14.09.09.14.2.14.33v3.78c0,.13-.05.24-.14.33Z"/>
    <path class="st2" d="M354.6,251.87c.09-.09.2-.14.33-.14h4.52c.13,0,.24.05.33.14s.14.2.14.33v26.36c0,.13-.05.24-.14.33-.09.09-.2.14-.33.14h-5.15c-.26,0-.43-.13-.51-.39l-4.84-15.09c-.03-.08-.07-.11-.14-.1-.07.01-.1.06-.1.14l.04,14.98c0,.13-.05.24-.14.33-.09.09-.2.14-.33.14h-4.52c-.13,0-.24-.04-.33-.14-.09-.09-.14-.2-.14-.33v-26.36c0-.13.04-.24.14-.33.09-.09.2-.14.33-.14h5.11c.26,0,.43.13.51.39l4.88,15.09c.03.08.07.11.14.1.06-.01.1-.06.1-.14l-.04-14.98c0-.13.04-.24.14-.33Z"/>
    <path class="st2" d="M378.82,251.87c.09.09.14.2.14.33v3.78c0,.13-.05.24-.14.33s-.2.14-.33.14h-4.88c-.13,0-.19.07-.19.2v21.92c0,.13-.05.24-.14.33s-.2.14-.33.14h-4.56c-.13,0-.24-.04-.33-.14-.09-.09-.14-.2-.14-.33v-21.92c0-.13-.07-.2-.2-.2h-4.68c-.13,0-.24-.04-.33-.14-.09-.09-.14-.2-.14-.33v-3.78c0-.13.05-.24.14-.33s.2-.14.33-.14h15.44c.13,0,.24.05.33.14Z"/>
    <path class="st2" d="M384.65,278.45c-1.14-.6-2.03-1.44-2.65-2.52-.62-1.08-.94-2.32-.94-3.72v-1.13c0-.13.04-.24.14-.33.09-.09.2-.14.33-.14h4.49c.13,0,.24.05.33.14s.14.2.14.33v.86c0,.81.21,1.46.62,1.95.42.5.94.74,1.56.74s1.14-.23,1.56-.7c.42-.47.62-1.08.62-1.83s-.26-1.45-.78-2.01-1.53-1.38-3.04-2.48c-1.3-.94-2.35-1.77-3.16-2.5-.81-.73-1.5-1.62-2.07-2.69-.57-1.07-.86-2.3-.86-3.71,0-2.21.69-3.98,2.07-5.3,1.38-1.33,3.2-1.99,5.46-1.99s4.13.69,5.52,2.07c1.39,1.38,2.09,3.19,2.09,5.42v.94c0,.13-.04.24-.14.33s-.2.14-.33.14h-4.48c-.13,0-.24-.04-.33-.14-.09-.09-.14-.2-.14-.33v-1.05c0-.81-.2-1.45-.6-1.93-.4-.48-.93-.72-1.58-.72s-1.13.23-1.52.68c-.39.46-.58,1.09-.58,1.89s.25,1.47.74,2.07c.49.6,1.47,1.43,2.92,2.5,1.61,1.2,2.83,2.16,3.65,2.91.82.74,1.46,1.56,1.91,2.46.46.9.68,1.97.68,3.22,0,2.29-.7,4.11-2.11,5.46-1.4,1.35-3.25,2.03-5.54,2.03-1.51,0-2.83-.3-3.98-.9Z"/>
    <path class="st2" d="M399.26,278.31c-.58-.58-.88-1.32-.88-2.2s.29-1.65.86-2.22c.57-.57,1.31-.86,2.22-.86s1.65.29,2.22.86c.57.57.86,1.31.86,2.22s-.29,1.62-.88,2.2-1.32.88-2.2.88-1.62-.29-2.2-.88Z"/>
  </g>
  <g>
    <path class="st3" d="M77.82,322.9c-1.42-1.39-2.13-3.26-2.13-5.6v-12.64c0-2.31.71-4.16,2.13-5.54s3.3-2.07,5.64-2.07,4.26.69,5.67,2.07,2.13,3.22,2.13,5.54v.43c0,.13-.05.24-.14.33s-.2.14-.33.14l-4.56.2c-.31,0-.47-.14-.47-.43v-1.01c0-.75-.21-1.36-.62-1.83-.42-.47-.98-.7-1.68-.7s-1.22.23-1.64.7c-.42.47-.62,1.08-.62,1.83v13.46c0,.75.21,1.36.62,1.81.42.46.96.68,1.64.68s1.26-.23,1.68-.68c.42-.45.62-1.06.62-1.81v-1.05c0-.13.04-.24.14-.33.09-.09.2-.14.33-.14l4.56.2c.13,0,.24.04.33.14.09.09.14.2.14.33v.39c0,2.34-.72,4.21-2.15,5.6-1.43,1.39-3.31,2.09-5.65,2.09s-4.22-.69-5.64-2.09Z"/>
    <path class="st3" d="M95.94,322.88c-1.43-1.4-2.15-3.28-2.15-5.62v-12.48c0-2.34.71-4.21,2.15-5.62,1.43-1.4,3.34-2.11,5.73-2.11s4.31.7,5.75,2.11,2.16,3.28,2.16,5.62v12.48c0,2.34-.72,4.21-2.16,5.62s-3.36,2.11-5.75,2.11-4.3-.7-5.73-2.11ZM103.43,319.51c.44-.51.66-1.18.66-2.01v-12.95c0-.83-.22-1.5-.66-2.01-.44-.51-1.03-.76-1.75-.76s-1.31.25-1.74.76c-.43.51-.64,1.18-.64,2.01v12.95c0,.83.21,1.5.64,2.01.43.51,1.01.76,1.74.76s1.31-.25,1.75-.76Z"/>
    <path class="st3" d="M112.77,324.54c-.09-.09-.14-.2-.14-.33v-26.36c0-.13.05-.24.14-.33s.2-.14.33-.14h4.56c.13,0,.24.05.33.14.09.09.14.2.14.33v21.92c0,.13.06.2.2.2h8.19c.13,0,.24.05.33.14.09.09.14.2.14.33v3.78c0,.13-.05.24-.14.33s-.2.14-.33.14h-13.42c-.13,0-.24-.04-.33-.14Z"/>
    <path class="st3" d="M129.38,324.54c-.09-.09-.14-.2-.14-.33v-26.36c0-.13.04-.24.14-.33.09-.09.2-.14.33-.14h4.56c.13,0,.24.05.33.14s.14.2.14.33v21.92c0,.13.07.2.2.2h8.19c.13,0,.24.05.33.14.09.09.14.2.14.33v3.78c0,.13-.04.24-.14.33-.09.09-.2.14-.33.14h-13.42c-.13,0-.24-.04-.33-.14Z"/>
    <path class="st3" d="M157.48,324.25l-.62-3.74c0-.13-.08-.2-.23-.2h-4.95c-.16,0-.23.07-.23.2l-.62,3.74c-.03.29-.2.43-.51.43h-4.56c-.34,0-.47-.17-.39-.51l5.73-26.36c.05-.29.22-.43.51-.43h5.26c.29,0,.46.14.51.43l5.69,26.36.04.16c0,.23-.14.35-.43.35h-4.68c-.31,0-.48-.14-.51-.43ZM152.37,316.06h3.51c.13,0,.18-.06.16-.2l-1.83-10.65c-.03-.08-.06-.12-.12-.12s-.09.04-.12.12l-1.75,10.65c0,.13.05.2.16.2Z"/>
    <path class="st3" d="M178.81,322.73c-1.46,1.3-3.34,1.95-5.65,1.95h-7.37c-.13,0-.24-.04-.33-.14-.09-.09-.14-.2-.14-.33v-26.36c0-.13.04-.24.14-.33.09-.09.2-.14.33-.14h6.51c2.6,0,4.63.62,6.1,1.87s2.2,3.11,2.2,5.58-.88,4.45-2.65,5.62c-.11.08-.12.16-.04.23,2.05,1.46,3.08,3.61,3.08,6.47,0,2.42-.73,4.28-2.18,5.58ZM170.82,302.29v6.12c0,.13.07.19.2.19h1.4c.88,0,1.57-.28,2.07-.84.49-.56.74-1.35.74-2.36,0-1.07-.24-1.88-.72-2.46s-1.18-.86-2.09-.86h-1.4c-.13,0-.2.07-.2.2ZM174.76,318.98c.49-.62.74-1.51.74-2.65s-.25-2.05-.74-2.73c-.49-.68-1.16-1.01-1.99-1.01h-1.75c-.13,0-.2.07-.2.2v6.94c0,.13.07.2.2.2h1.72c.86,0,1.53-.31,2.03-.94Z"/>
    <path class="st3" d="M185.4,322.88c-1.43-1.4-2.15-3.28-2.15-5.62v-12.48c0-2.34.71-4.21,2.15-5.62,1.43-1.4,3.34-2.11,5.73-2.11s4.31.7,5.75,2.11,2.16,3.28,2.16,5.62v12.48c0,2.34-.72,4.21-2.16,5.62s-3.36,2.11-5.75,2.11-4.3-.7-5.73-2.11ZM192.89,319.51c.44-.51.66-1.18.66-2.01v-12.95c0-.83-.22-1.5-.66-2.01-.44-.51-1.03-.76-1.75-.76s-1.31.25-1.74.76c-.43.51-.64,1.18-.64,2.01v12.95c0,.83.21,1.5.64,2.01.43.51,1.01.76,1.74.76s1.31-.25,1.75-.76Z"/>
    <path class="st3" d="M212.31,324.29l-3-10.76c-.05-.1-.12-.16-.2-.16h-1.33c-.13,0-.2.06-.2.19v10.65c0,.13-.04.24-.14.33-.09.09-.2.14-.33.14h-4.56c-.13,0-.24-.04-.33-.14-.09-.09-.14-.2-.14-.33v-26.36c0-.13.05-.24.14-.33s.2-.14.33-.14h7.88c1.43,0,2.7.34,3.82,1.03,1.12.69,1.98,1.66,2.59,2.91.61,1.25.92,2.68.92,4.29s-.29,2.89-.88,4.06-1.4,2.08-2.44,2.73c-.05.03-.09.06-.12.1s-.03.08,0,.14l3.59,11.5.04.16c0,.26-.14.39-.43.39h-4.68c-.29,0-.47-.13-.55-.39ZM207.59,302.29v6.67c0,.13.06.19.2.19h1.75c.81,0,1.46-.32,1.97-.96.51-.64.76-1.49.76-2.55s-.25-1.96-.76-2.59c-.51-.64-1.16-.96-1.97-.96h-1.75c-.13,0-.2.07-.2.2Z"/>
    <path class="st3" d="M231.62,324.25l-.62-3.74c0-.13-.08-.2-.23-.2h-4.95c-.16,0-.23.07-.23.2l-.62,3.74c-.03.29-.19.43-.51.43h-4.56c-.34,0-.47-.17-.39-.51l5.73-26.36c.05-.29.22-.43.51-.43h5.26c.29,0,.46.14.51.43l5.69,26.36.04.16c0,.23-.14.35-.43.35h-4.68c-.31,0-.48-.14-.51-.43ZM226.51,316.06h3.51c.13,0,.18-.06.16-.2l-1.83-10.65c-.03-.08-.07-.12-.12-.12s-.09.04-.12.12l-1.76,10.65c0,.13.05.2.16.2Z"/>
    <path class="st3" d="M252.62,297.51c.09.09.14.2.14.33v3.78c0,.13-.05.24-.14.33s-.2.14-.33.14h-4.88c-.13,0-.2.07-.2.2v21.92c0,.13-.04.24-.14.33-.09.09-.2.14-.33.14h-4.56c-.13,0-.24-.04-.33-.14-.09-.09-.14-.2-.14-.33v-21.92c0-.13-.07-.2-.2-.2h-4.68c-.13,0-.24-.04-.33-.14-.09-.09-.14-.2-.14-.33v-3.78c0-.13.04-.24.14-.33.09-.09.2-.14.33-.14h15.44c.13,0,.24.05.33.14Z"/>
    <path class="st3" d="M255.54,324.54c-.09-.09-.14-.2-.14-.33v-26.36c0-.13.05-.24.14-.33.09-.09.2-.14.33-.14h4.56c.13,0,.24.05.33.14.09.09.14.2.14.33v26.36c0,.13-.05.24-.14.33s-.2.14-.33.14h-4.56c-.13,0-.24-.04-.33-.14Z"/>
    <path class="st3" d="M275.67,297.51c.09-.09.2-.14.33-.14h4.52c.13,0,.24.05.33.14.09.09.14.2.14.33v26.36c0,.13-.04.24-.14.33-.09.09-.2.14-.33.14h-5.15c-.26,0-.43-.13-.51-.39l-4.84-15.09c-.03-.08-.07-.11-.14-.1-.06.01-.1.06-.1.14l.04,14.98c0,.13-.04.24-.14.33-.09.09-.2.14-.33.14h-4.52c-.13,0-.24-.04-.33-.14-.09-.09-.14-.2-.14-.33v-26.36c0-.13.04-.24.14-.33.09-.09.2-.14.33-.14h5.11c.26,0,.43.13.51.39l4.88,15.09c.03.08.07.11.14.1.06-.01.1-.06.1-.14l-.04-14.98c0-.13.04-.24.14-.33Z"/>
    <path class="st3" d="M286.16,322.98c-1.42-1.34-2.12-3.13-2.12-5.36v-13.18c0-2.24.71-4.02,2.12-5.36,1.42-1.34,3.3-2.01,5.64-2.01s4.22.68,5.65,2.03c1.43,1.35,2.14,3.15,2.14,5.38v1.48c0,.13-.04.24-.13.33-.09.09-.2.14-.33.14h-4.56c-.13,0-.24-.04-.33-.14-.09-.09-.14-.2-.14-.33v-1.56c0-.78-.21-1.41-.62-1.89-.42-.48-.97-.72-1.68-.72s-1.22.24-1.64.72c-.42.48-.62,1.11-.62,1.89v13.26c0,.78.21,1.41.62,1.89.42.48.96.72,1.64.72s1.26-.24,1.68-.72c.42-.48.62-1.11.62-1.89v-3.12c0-.13-.06-.2-.2-.2h-1.72c-.13,0-.24-.04-.33-.14-.09-.09-.14-.2-.14-.33v-3.47c0-.13.04-.24.14-.33.09-.09.2-.14.33-.14h6.94c.13,0,.24.05.33.14.09.09.13.2.13.33v7.22c0,2.24-.71,4.02-2.14,5.36s-3.31,2.01-5.65,2.01-4.22-.67-5.64-2.01Z"/>
    <path class="st3" d="M321.39,324.25l-.62-3.74c0-.13-.08-.2-.23-.2h-4.95c-.16,0-.23.07-.23.2l-.62,3.74c-.03.29-.2.43-.51.43h-4.56c-.34,0-.47-.17-.39-.51l5.73-26.36c.05-.29.22-.43.51-.43h5.26c.29,0,.46.14.51.43l5.69,26.36.04.16c0,.23-.14.35-.43.35h-4.68c-.31,0-.48-.14-.51-.43ZM316.28,316.06h3.51c.13,0,.18-.06.16-.2l-1.83-10.65c-.03-.08-.07-.12-.12-.12s-.09.04-.12.12l-1.75,10.65c0,.13.05.2.16.2Z"/>
    <path class="st3" d="M340.52,297.51c.09-.09.2-.14.33-.14h4.52c.13,0,.24.05.33.14s.14.2.14.33v26.36c0,.13-.05.24-.14.33-.09.09-.2.14-.33.14h-5.15c-.26,0-.43-.13-.51-.39l-4.84-15.09c-.03-.08-.07-.11-.14-.1-.07.01-.1.06-.1.14l.04,14.98c0,.13-.05.24-.14.33-.09.09-.2.14-.33.14h-4.52c-.13,0-.24-.04-.33-.14-.09-.09-.14-.2-.14-.33v-26.36c0-.13.04-.24.14-.33.09-.09.2-.14.33-.14h5.11c.26,0,.43.13.51.39l4.88,15.09c.03.08.07.11.14.1.06-.01.1-.06.1-.14l-.04-14.98c0-.13.04-.24.14-.33Z"/>
    <path class="st3" d="M349.41,324.54c-.09-.09-.14-.2-.14-.33v-26.36c0-.13.04-.24.14-.33.09-.09.2-.14.33-.14h7.06c2.37,0,4.26.69,5.69,2.07,1.43,1.38,2.15,3.21,2.15,5.5v12.17c0,2.29-.72,4.12-2.15,5.5-1.43,1.38-3.33,2.07-5.69,2.07h-7.06c-.13,0-.24-.04-.33-.14ZM354.97,319.96l1.75-.04c.7-.03,1.27-.33,1.72-.9.44-.57.68-1.33.7-2.26v-11.47c0-.99-.22-1.77-.66-2.34-.44-.57-1.04-.86-1.79-.86h-1.72c-.13,0-.2.07-.2.2v17.47c0,.13.06.2.2.2Z"/>
    <path class="st3" d="M76.22,371.34c-.09-.09-.14-.2-.14-.33v-26.36c0-.13.04-.24.14-.33.09-.09.2-.14.33-.14h7.06c2.37,0,4.26.69,5.69,2.07,1.43,1.38,2.14,3.21,2.14,5.5v12.17c0,2.29-.71,4.12-2.14,5.5-1.43,1.38-3.33,2.07-5.69,2.07h-7.06c-.13,0-.24-.04-.33-.14ZM81.78,366.76l1.76-.04c.7-.03,1.27-.33,1.71-.9.44-.57.68-1.33.7-2.26v-11.47c0-.99-.22-1.77-.66-2.34-.44-.57-1.04-.86-1.79-.86h-1.72c-.13,0-.2.07-.2.2v17.47c0,.13.07.2.2.2Z"/>
    <path class="st3" d="M108.71,348.76c-.09.09-.2.14-.33.14h-8.15c-.13,0-.2.07-.2.2v6.16c0,.13.07.19.2.19h4.68c.13,0,.24.05.33.14.09.09.14.2.14.33v3.78c0,.13-.05.24-.14.33-.09.09-.2.14-.33.14h-4.68c-.13,0-.2.06-.2.19v6.2c0,.13.07.2.2.2h8.15c.13,0,.24.05.33.14.09.09.14.2.14.33v3.78c0,.13-.04.24-.14.33-.09.09-.2.14-.33.14h-13.38c-.13,0-.24-.04-.33-.14-.09-.09-.14-.2-.14-.33v-26.36c0-.13.04-.24.14-.33.09-.09.2-.14.33-.14h13.38c.13,0,.24.05.33.14.09.09.14.2.14.33v3.78c0,.13-.04.24-.14.33Z"/>
    <path class="st3" d="M111.75,371.34c-.09-.09-.14-.2-.14-.33v-26.36c0-.13.05-.24.14-.33s.2-.14.33-.14h4.56c.13,0,.24.05.33.14.09.09.14.2.14.33v21.92c0,.13.06.2.2.2h8.19c.13,0,.24.05.33.14.09.09.14.2.14.33v3.78c0,.13-.05.24-.14.33s-.2.14-.33.14h-13.42c-.13,0-.24-.04-.33-.14Z"/>
    <path class="st3" d="M128.37,371.34c-.09-.09-.14-.2-.14-.33v-26.36c0-.13.04-.24.14-.33.09-.09.2-.14.33-.14h4.56c.13,0,.24.05.33.14s.14.2.14.33v26.36c0,.13-.04.24-.14.33-.09.09-.2.14-.33.14h-4.56c-.13,0-.24-.04-.33-.14Z"/>
    <path class="st3" d="M141.96,371.05l-5.58-26.36-.04-.16c0-.23.14-.35.43-.35h5.03c.31,0,.48.14.51.43l2.69,17.16c.03.1.06.16.12.16s.09-.05.12-.16l2.61-17.16c.03-.29.2-.43.51-.43h4.88c.34,0,.47.17.39.51l-5.62,26.36c-.05.29-.22.43-.51.43h-5.03c-.29,0-.46-.14-.51-.43Z"/>
    <path class="st3" d="M170.41,348.76c-.09.09-.2.14-.33.14h-8.15c-.13,0-.2.07-.2.2v6.16c0,.13.06.19.2.19h4.68c.13,0,.24.05.33.14.09.09.14.2.14.33v3.78c0,.13-.05.24-.14.33-.09.09-.2.14-.33.14h-4.68c-.13,0-.2.06-.2.19v6.2c0,.13.06.2.2.2h8.15c.13,0,.24.05.33.14.09.09.14.2.14.33v3.78c0,.13-.05.24-.14.33s-.2.14-.33.14h-13.38c-.13,0-.24-.04-.33-.14-.09-.09-.14-.2-.14-.33v-26.36c0-.13.05-.24.14-.33s.2-.14.33-.14h13.38c.13,0,.24.05.33.14.09.09.14.2.14.33v3.78c0,.13-.05.24-.14.33Z"/>
    <path class="st3" d="M183.53,371.09l-3-10.76c-.05-.1-.12-.16-.2-.16h-1.33c-.13,0-.2.06-.2.19v10.65c0,.13-.05.24-.14.33s-.2.14-.33.14h-4.56c-.13,0-.24-.04-.33-.14s-.14-.2-.14-.33v-26.36c0-.13.05-.24.14-.33.09-.09.2-.14.33-.14h7.88c1.43,0,2.7.34,3.82,1.03,1.12.69,1.98,1.66,2.59,2.91s.92,2.68.92,4.29-.29,2.89-.88,4.06c-.58,1.17-1.4,2.08-2.44,2.73-.05.03-.09.06-.12.1-.03.04-.03.08,0,.14l3.59,11.5.04.16c0,.26-.14.39-.43.39h-4.68c-.29,0-.47-.13-.55-.39ZM178.81,349.09v6.67c0,.13.06.19.2.19h1.75c.81,0,1.46-.32,1.97-.96.51-.64.76-1.49.76-2.55s-.25-1.96-.76-2.59c-.51-.64-1.16-.96-1.97-.96h-1.75c-.13,0-.2.07-.2.2Z"/>
    <path class="st3" d="M191.82,371.34c-.09-.09-.14-.2-.14-.33v-26.36c0-.13.04-.24.14-.33.09-.09.2-.14.33-.14h4.56c.13,0,.24.05.33.14.09.09.14.2.14.33v26.36c0,.13-.05.24-.14.33-.09.09-.2.14-.33.14h-4.56c-.13,0-.24-.04-.33-.14Z"/>
    <path class="st3" d="M211.94,344.31c.09-.09.2-.14.33-.14h4.52c.13,0,.24.05.33.14.09.09.14.2.14.33v26.36c0,.13-.05.24-.14.33s-.2.14-.33.14h-5.15c-.26,0-.43-.13-.51-.39l-4.84-15.09c-.03-.08-.07-.11-.14-.1-.06.01-.1.06-.1.14l.04,14.98c0,.13-.04.24-.14.33-.09.09-.2.14-.33.14h-4.52c-.13,0-.24-.04-.33-.14-.09-.09-.14-.2-.14-.33v-26.36c0-.13.05-.24.14-.33s.2-.14.33-.14h5.11c.26,0,.43.13.51.39l4.88,15.09c.03.08.07.11.14.1.06-.01.1-.06.1-.14l-.04-14.98c0-.13.04-.24.14-.33Z"/>
    <path class="st3" d="M222.43,369.78c-1.42-1.34-2.13-3.13-2.13-5.36v-13.18c0-2.24.71-4.02,2.13-5.36,1.42-1.34,3.29-2.01,5.63-2.01s4.22.68,5.66,2.03c1.43,1.35,2.15,3.15,2.15,5.38v1.48c0,.13-.05.24-.14.33-.09.09-.2.14-.33.14h-4.56c-.13,0-.24-.04-.33-.14-.09-.09-.14-.2-.14-.33v-1.56c0-.78-.21-1.41-.62-1.89-.42-.48-.98-.72-1.68-.72s-1.22.24-1.64.72c-.42.48-.62,1.11-.62,1.89v13.26c0,.78.21,1.41.62,1.89.42.48.96.72,1.64.72s1.26-.24,1.68-.72c.42-.48.62-1.11.62-1.89v-3.12c0-.13-.06-.2-.2-.2h-1.71c-.13,0-.24-.04-.33-.14-.09-.09-.14-.2-.14-.33v-3.47c0-.13.04-.24.14-.33s.2-.14.33-.14h6.94c.13,0,.24.05.33.14.09.09.14.2.14.33v7.22c0,2.24-.72,4.02-2.15,5.36-1.43,1.34-3.32,2.01-5.66,2.01s-4.22-.67-5.63-2.01Z"/>
    <path class="st3" d="M257.67,371.05l-.62-3.74c0-.13-.08-.2-.23-.2h-4.95c-.16,0-.23.07-.23.2l-.62,3.74c-.03.29-.2.43-.51.43h-4.56c-.34,0-.47-.17-.39-.51l5.73-26.36c.05-.29.22-.43.51-.43h5.26c.29,0,.46.14.51.43l5.69,26.36.04.16c0,.23-.14.35-.43.35h-4.68c-.31,0-.48-.14-.51-.43ZM252.56,362.86h3.51c.13,0,.18-.06.16-.2l-1.83-10.65c-.03-.08-.06-.12-.12-.12s-.09.04-.12.12l-1.75,10.65c0,.13.05.2.16.2Z"/>
    <path class="st3" d="M267.57,370.89c-1.14-.6-2.03-1.44-2.65-2.52-.62-1.08-.94-2.32-.94-3.72v-1.13c0-.13.05-.24.14-.33s.2-.14.33-.14h4.49c.13,0,.24.05.33.14.09.09.14.2.14.33v.86c0,.81.21,1.46.62,1.95.42.5.94.74,1.56.74s1.14-.23,1.56-.7c.42-.47.62-1.08.62-1.83s-.26-1.45-.78-2.01-1.53-1.38-3.04-2.48c-1.3-.94-2.35-1.77-3.16-2.5-.81-.73-1.5-1.62-2.07-2.69-.57-1.07-.86-2.3-.86-3.71,0-2.21.69-3.98,2.07-5.3,1.38-1.33,3.2-1.99,5.46-1.99s4.13.69,5.52,2.07,2.09,3.19,2.09,5.42v.94c0,.13-.04.24-.14.33-.09.09-.2.14-.33.14h-4.49c-.13,0-.24-.04-.33-.14-.09-.09-.14-.2-.14-.33v-1.05c0-.81-.2-1.45-.61-1.93-.4-.48-.93-.72-1.58-.72s-1.13.23-1.52.68c-.39.46-.59,1.09-.59,1.89s.25,1.47.74,2.07c.49.6,1.47,1.43,2.92,2.5,1.61,1.2,2.83,2.16,3.65,2.91.82.74,1.46,1.56,1.91,2.46.45.9.68,1.97.68,3.22,0,2.29-.7,4.11-2.11,5.46s-3.25,2.03-5.54,2.03c-1.51,0-2.83-.3-3.98-.9Z"/>
    <path class="st3" d="M291.4,369.68c-1.43-1.4-2.14-3.28-2.14-5.62v-12.48c0-2.34.71-4.21,2.14-5.62s3.34-2.11,5.73-2.11,4.31.7,5.75,2.11c1.44,1.4,2.17,3.28,2.17,5.62v12.48c0,2.34-.72,4.21-2.17,5.62-1.44,1.4-3.36,2.11-5.75,2.11s-4.3-.7-5.73-2.11ZM298.89,366.31c.44-.51.66-1.18.66-2.01v-12.95c0-.83-.22-1.5-.66-2.01-.44-.51-1.03-.76-1.75-.76s-1.31.25-1.74.76c-.43.51-.64,1.18-.64,2.01v12.95c0,.83.21,1.5.64,2.01.43.51,1.01.76,1.74.76s1.31-.25,1.75-.76Z"/>
    <path class="st3" d="M319.39,344.31c.09-.09.2-.14.33-.14h4.52c.13,0,.24.05.33.14s.14.2.14.33v26.36c0,.13-.05.24-.14.33-.09.09-.2.14-.33.14h-5.15c-.26,0-.43-.13-.51-.39l-4.84-15.09c-.03-.08-.07-.11-.14-.1-.07.01-.1.06-.1.14l.04,14.98c0,.13-.05.24-.14.33-.09.09-.2.14-.33.14h-4.52c-.13,0-.24-.04-.33-.14-.09-.09-.14-.2-.14-.33v-26.36c0-.13.04-.24.14-.33.09-.09.2-.14.33-.14h5.11c.26,0,.43.13.51.39l4.88,15.09c.03.08.07.11.14.1.06-.01.1-.06.1-.14l-.04-14.98c0-.13.04-.24.14-.33Z"/>
    <path class="st3" d="M342.32,348.76c-.09.09-.2.14-.33.14h-8.15c-.13,0-.2.07-.2.2v6.16c0,.13.06.19.2.19h4.68c.13,0,.24.05.33.14.09.09.14.2.14.33v3.78c0,.13-.04.24-.14.33-.09.09-.2.14-.33.14h-4.68c-.13,0-.2.06-.2.19v6.2c0,.13.06.2.2.2h8.15c.13,0,.24.05.33.14.09.09.14.2.14.33v3.78c0,.13-.05.24-.14.33s-.2.14-.33.14h-13.38c-.13,0-.24-.04-.33-.14-.09-.09-.14-.2-.14-.33v-26.36c0-.13.04-.24.14-.33.09-.09.2-.14.33-.14h13.38c.13,0,.24.05.33.14.09.09.14.2.14.33v3.78c0,.13-.05.24-.14.33Z"/>
    <path class="st3" d="M368.49,344.31c.09.09.14.2.14.33v3.78c0,.13-.05.24-.14.33s-.2.14-.33.14h-4.88c-.13,0-.19.07-.19.2v21.92c0,.13-.05.24-.14.33s-.2.14-.33.14h-4.56c-.13,0-.24-.04-.33-.14-.09-.09-.14-.2-.14-.33v-21.92c0-.13-.07-.2-.2-.2h-4.68c-.13,0-.24-.04-.33-.14-.09-.09-.14-.2-.14-.33v-3.78c0-.13.05-.24.14-.33s.2-.14.33-.14h15.44c.13,0,.24.05.33.14Z"/>
    <path class="st3" d="M385.45,348.76c-.09.09-.2.14-.33.14h-8.15c-.13,0-.2.07-.2.2v6.16c0,.13.06.19.2.19h4.68c.13,0,.24.05.33.14.09.09.14.2.14.33v3.78c0,.13-.04.24-.14.33-.09.09-.2.14-.33.14h-4.68c-.13,0-.2.06-.2.19v6.2c0,.13.06.2.2.2h8.15c.13,0,.24.05.33.14.09.09.14.2.14.33v3.78c0,.13-.05.24-.14.33s-.2.14-.33.14h-13.38c-.13,0-.24-.04-.33-.14-.09-.09-.14-.2-.14-.33v-26.36c0-.13.04-.24.14-.33.09-.09.2-.14.33-.14h13.38c.13,0,.24.05.33.14.09.09.14.2.14.33v3.78c0,.13-.05.24-.14.33Z"/>
    <path class="st3" d="M399.94,371.05l-.62-3.74c0-.13-.08-.2-.23-.2h-4.95c-.16,0-.23.07-.23.2l-.62,3.74c-.03.29-.2.43-.51.43h-4.56c-.34,0-.47-.17-.39-.51l5.73-26.36c.05-.29.22-.43.51-.43h5.26c.29,0,.46.14.51.43l5.69,26.36.04.16c0,.23-.14.35-.43.35h-4.68c-.31,0-.48-.14-.51-.43ZM394.83,362.86h3.51c.13,0,.18-.06.16-.2l-1.83-10.65c-.03-.08-.07-.12-.12-.12s-.09.04-.12.12l-1.75,10.65c0,.13.05.2.16.2Z"/>
    <path class="st3" d="M420.84,344.18h4.52c.13,0,.24.05.33.14.09.09.14.2.14.33v26.36c0,.13-.05.24-.14.33s-.2.14-.33.14h-4.56c-.13,0-.24-.04-.33-.14-.09-.09-.14-.2-.14-.33v-17.51c0-.1-.03-.16-.08-.16s-.1.04-.16.12l-3.04,5.38c-.13.21-.23.31-.31.31s-.18-.1-.31-.31l-3.04-5.38c-.05-.08-.1-.12-.16-.12s-.08.05-.08.16v17.51c0,.13-.04.24-.14.33s-.2.14-.33.14h-4.56c-.13,0-.24-.04-.33-.14-.09-.09-.14-.2-.14-.33v-26.36c0-.13.05-.24.14-.33s.2-.14.33-.14h4.48c.26,0,.46.1.58.31l3.47,6.2c.08.1.16.1.23,0l3.35-6.2c.1-.21.3-.31.58-.31Z"/>
  </g>
  <g>
    <path class="st3" d="M102.71,53.93h5.59c.49,0,.74.25.74.74v50.05c0,.49-.25.74-.74.74h-5.59c-.49,0-.74-.25-.74-.74v-36.5c0-.15-.04-.22-.11-.22s-.16.05-.26.15l-7.06,13.17c-.15.34-.37.52-.66.52s-.52-.17-.66-.52l-6.99-13.1c-.1-.1-.18-.15-.26-.15s-.11.07-.11.22v36.43c0,.49-.25.74-.74.74h-5.59c-.49,0-.74-.25-.74-.74v-50.05c0-.49.25-.74.74-.74h5.59c.34,0,.64.17.88.52l7.73,13.84s.12.07.22.07.17-.02.22-.07l7.65-13.84c.2-.34.49-.52.88-.52Z"/>
    <path class="st3" d="M119.04,104.71v-50.05c0-.49.24-.74.74-.74h5.59c.49,0,.74.25.74.74v50.05c0,.49-.25.74-.74.74h-5.59c-.49,0-.74-.25-.74-.74Z"/>
    <path class="st3" d="M138.14,102.4c-2.38-2.43-3.57-5.6-3.57-9.53v-1.91c0-.49.24-.74.74-.74h5.45c.49,0,.74.25.74.74v1.55c0,2.26.56,4.06,1.69,5.41,1.13,1.35,2.58,2.02,4.34,2.02s3.22-.65,4.38-1.95c1.15-1.3,1.73-3,1.73-5.11,0-1.42-.31-2.67-.92-3.75-.61-1.08-1.42-2.05-2.43-2.91-1.01-.86-2.64-2.12-4.89-3.79-2.5-1.86-4.46-3.46-5.89-4.78s-2.63-2.92-3.61-4.78c-.98-1.86-1.47-4.05-1.47-6.55,0-3.97,1.18-7.13,3.53-9.46,2.36-2.33,5.42-3.5,9.2-3.5s7.08,1.25,9.46,3.75c2.38,2.5,3.57,5.79,3.57,9.86v1.84c0,.49-.25.74-.74.74h-5.45c-.49,0-.74-.25-.74-.74v-1.99c0-2.21-.56-3.99-1.69-5.34-1.13-1.35-2.6-2.02-4.42-2.02-1.72,0-3.12.6-4.2,1.8-1.08,1.2-1.62,2.88-1.62,5.04,0,1.96.54,3.62,1.62,4.97,1.08,1.35,3.17,3.15,6.26,5.41,2.94,2.21,5.16,4,6.66,5.37,1.5,1.37,2.65,2.88,3.46,4.53.81,1.64,1.21,3.59,1.21,5.85,0,4.12-1.2,7.42-3.61,9.9-2.4,2.48-5.54,3.72-9.42,3.72s-7-1.21-9.38-3.64Z"/>
    <path class="st3" d="M170.6,102.4c-2.38-2.43-3.57-5.6-3.57-9.53v-1.91c0-.49.25-.74.74-.74h5.45c.49,0,.74.25.74.74v1.55c0,2.26.56,4.06,1.69,5.41,1.13,1.35,2.58,2.02,4.34,2.02s3.23-.65,4.38-1.95c1.15-1.3,1.73-3,1.73-5.11,0-1.42-.31-2.67-.92-3.75-.61-1.08-1.42-2.05-2.43-2.91-1.01-.86-2.64-2.12-4.89-3.79-2.5-1.86-4.46-3.46-5.89-4.78-1.42-1.32-2.63-2.92-3.61-4.78-.98-1.86-1.47-4.05-1.47-6.55,0-3.97,1.18-7.13,3.53-9.46,2.35-2.33,5.42-3.5,9.2-3.5s7.08,1.25,9.46,3.75c2.38,2.5,3.57,5.79,3.57,9.86v1.84c0,.49-.25.74-.74.74h-5.45c-.49,0-.74-.25-.74-.74v-1.99c0-2.21-.56-3.99-1.69-5.34-1.13-1.35-2.6-2.02-4.42-2.02-1.72,0-3.12.6-4.2,1.8-1.08,1.2-1.62,2.88-1.62,5.04,0,1.96.54,3.62,1.62,4.97,1.08,1.35,3.16,3.15,6.26,5.41,2.94,2.21,5.16,4,6.66,5.37,1.5,1.37,2.65,2.88,3.46,4.53.81,1.64,1.21,3.59,1.21,5.85,0,4.12-1.2,7.42-3.61,9.9-2.4,2.48-5.54,3.72-9.42,3.72s-7-1.21-9.38-3.64Z"/>
    <path class="st3" d="M201.25,104.71v-50.05c0-.49.24-.74.74-.74h5.59c.49,0,.74.25.74.74v50.05c0,.49-.25.74-.74.74h-5.59c-.49,0-.74-.25-.74-.74Z"/>
    <path class="st3" d="M221.19,102.36c-2.45-2.45-3.68-5.72-3.68-9.79v-25.69c0-4.07,1.23-7.35,3.68-9.83,2.45-2.48,5.69-3.72,9.71-3.72s7.35,1.24,9.83,3.72c2.48,2.48,3.72,5.75,3.72,9.83v25.69c0,4.07-1.24,7.34-3.72,9.79-2.48,2.45-5.75,3.68-9.83,3.68s-7.26-1.23-9.71-3.68ZM235.62,97.98c1.18-1.3,1.77-3,1.77-5.11v-26.35c0-2.11-.59-3.81-1.77-5.11-1.18-1.3-2.75-1.95-4.71-1.95s-3.45.65-4.6,1.95c-1.15,1.3-1.73,3.01-1.73,5.11v26.35c0,2.11.58,3.82,1.73,5.11,1.15,1.3,2.69,1.95,4.6,1.95s3.53-.65,4.71-1.95Z"/>
    <path class="st3" d="M275.14,53.93h5.52c.49,0,.74.25.74.74v50.05c0,.49-.25.74-.74.74h-6.33c-.39,0-.66-.2-.81-.59l-12.51-33.63c-.05-.1-.12-.13-.22-.11-.1.03-.15.09-.15.18l.07,33.41c0,.49-.25.74-.74.74h-5.59c-.49,0-.74-.25-.74-.74v-50.05c0-.49.25-.74.74-.74h6.26c.39,0,.66.2.81.59l12.59,33.63c.05.15.12.21.22.18.1-.02.15-.11.15-.26v-33.41c0-.49.25-.74.74-.74Z"/>
  </g>
  <g>
    <path class="st1" d="M606.28,394.1v-8.42c0-1.08.54-1.62,1.62-1.62h110.16c1.08,0,1.62.54,1.62,1.62v8.26c0,1.08-.54,1.62-1.62,1.62h-86.83c-.32,0-.49.08-.49.24s.11.35.32.57l34.99,16.85c.76.32,1.13.87,1.13,1.62,0,.87-.38,1.46-1.13,1.78l-34.83,16.85c-.21.22-.32.41-.32.57s.16.24.49.24h86.67c1.08,0,1.62.54,1.62,1.62v8.26c0,1.08-.54,1.62-1.62,1.62h-110.16c-1.08,0-1.62-.54-1.62-1.62v-8.42c0-.97.38-1.62,1.13-1.94l37.42-18.47c.22-.11.32-.27.32-.49s-.11-.38-.32-.49l-37.42-18.31c-.75-.32-1.13-.97-1.13-1.94Z"/>
    <path class="st1" d="M718.06,357.16h-110.16c-1.08,0-1.62-.54-1.62-1.62v-8.26c0-1.08.54-1.62,1.62-1.62h110.16c1.08,0,1.62.54,1.62,1.62v8.26c0,1.08-.54,1.62-1.62,1.62Z"/>
    <path class="st1" d="M713.04,315.85c-5.29,4.97-12.2,7.45-20.74,7.45h-3.73c-1.08,0-1.62-.54-1.62-1.62v-7.94c0-1.08.54-1.62,1.62-1.62h3.24c5.73,0,10.34-1.46,13.85-4.37,3.51-2.92,5.26-6.69,5.26-11.34s-1.67-8.31-5.02-11.34c-3.35-3.02-7.78-4.54-13.28-4.54-3.67,0-6.83.73-9.48,2.19-2.64,1.46-4.97,3.35-6.97,5.67-2,2.32-5.05,6.18-9.15,11.58-3.99,5.4-7.42,9.67-10.29,12.8-2.86,3.13-6.29,5.7-10.29,7.7-4,2-8.69,3-14.09,3-8.42,0-15.09-2.43-20.01-7.29-4.91-4.86-7.37-11.18-7.37-18.95,0-8.21,2.67-14.77,8.02-19.68,5.35-4.91,12.45-7.37,21.3-7.37h4.05c1.08,0,1.62.54,1.62,1.62v8.1c0,1.08-.54,1.62-1.62,1.62h-4.21c-5.72,0-10.34,1.43-13.85,4.29-3.51,2.86-5.27,6.67-5.27,11.42,0,4.32,1.54,7.88,4.62,10.69,3.08,2.81,7.43,4.21,13.04,4.21,3.35,0,6.29-.62,8.83-1.86,2.54-1.24,4.94-3.1,7.21-5.59,2.27-2.48,5.24-6.16,8.91-11.02,4.75-6.48,8.61-11.31,11.58-14.5,2.97-3.18,6.21-5.64,9.72-7.37,3.51-1.73,7.75-2.59,12.72-2.59,8.86,0,15.96,2.54,21.3,7.61,5.35,5.08,8.02,11.61,8.02,19.6s-2.65,14.47-7.94,19.44Z"/>
    <path class="st1" d="M713.04,244.58c-5.29,4.97-12.2,7.45-20.74,7.45h-3.73c-1.08,0-1.62-.54-1.62-1.62v-7.94c0-1.08.54-1.62,1.62-1.62h3.24c5.73,0,10.34-1.46,13.85-4.37,3.51-2.92,5.26-6.69,5.26-11.34s-1.67-8.32-5.02-11.34c-3.35-3.02-7.78-4.54-13.28-4.54-3.67,0-6.83.73-9.48,2.19-2.64,1.46-4.97,3.35-6.97,5.67-2,2.32-5.05,6.18-9.15,11.58-3.99,5.4-7.42,9.67-10.29,12.8-2.86,3.13-6.29,5.7-10.29,7.7-4,2-8.69,3-14.09,3-8.42,0-15.09-2.43-20.01-7.29-4.91-4.86-7.37-11.18-7.37-18.95,0-8.21,2.67-14.77,8.02-19.68,5.35-4.91,12.45-7.37,21.3-7.37h4.05c1.08,0,1.62.54,1.62,1.62v8.1c0,1.08-.54,1.62-1.62,1.62h-4.21c-5.72,0-10.34,1.43-13.85,4.29-3.51,2.86-5.27,6.67-5.27,11.42,0,4.32,1.54,7.89,4.62,10.69,3.08,2.81,7.43,4.21,13.04,4.21,3.35,0,6.29-.62,8.83-1.86,2.54-1.24,4.94-3.1,7.21-5.59,2.27-2.48,5.24-6.16,8.91-11.02,4.75-6.48,8.61-11.31,11.58-14.5,2.97-3.18,6.21-5.64,9.72-7.37,3.51-1.73,7.75-2.59,12.72-2.59,8.86,0,15.96,2.54,21.3,7.61,5.35,5.08,8.02,11.61,8.02,19.6s-2.65,14.47-7.94,19.44Z"/>
    <path class="st1" d="M718.06,175.89h-110.16c-1.08,0-1.62-.54-1.62-1.62v-8.26c0-1.08.54-1.62,1.62-1.62h110.16c1.08,0,1.62.54,1.62,1.62v8.26c0,1.08-.54,1.62-1.62,1.62Z"/>
    <path class="st1" d="M713.2,132.23c-5.18,5.13-12.04,7.69-20.57,7.69h-59.29c-8.53,0-15.39-2.56-20.57-7.69-5.18-5.13-7.78-11.85-7.78-20.17s2.59-15.23,7.78-20.41,12.04-7.78,20.57-7.78h59.29c8.42,0,15.26,2.59,20.49,7.78,5.24,5.18,7.86,11.99,7.86,20.41s-2.59,15.04-7.78,20.17ZM705.99,99.99c-3.29-3.08-7.53-4.62-12.72-4.62h-60.43c-5.29,0-9.58,1.54-12.88,4.62-3.29,3.08-4.94,7.1-4.94,12.07s1.65,8.8,4.94,11.83c3.3,3.02,7.59,4.54,12.88,4.54h60.43c5.18,0,9.42-1.51,12.72-4.54,3.3-3.02,4.94-6.97,4.94-11.83s-1.65-8.99-4.94-12.07Z"/>
    <path class="st1" d="M606.28,12.43V4.33c0-1.08.54-1.62,1.62-1.62h110.16c1.08,0,1.62.54,1.62,1.62v9.56c0,.87-.43,1.46-1.3,1.78l-83.75,31.59c-.32.11-.46.27-.41.49.06.22.24.32.57.32l83.27-.16c1.08,0,1.62.54,1.62,1.62v8.26c0,1.08-.54,1.62-1.62,1.62h-110.16c-1.08,0-1.62-.54-1.62-1.62v-9.4c0-.86.43-1.46,1.3-1.78l83.92-31.75c.32-.11.46-.27.41-.49-.05-.21-.24-.32-.57-.32h-83.43c-1.08,0-1.62-.54-1.62-1.62Z"/>
  </g>
  <g>
    <path class="st3" d="M535.7,102.24c26.07-4.06,29.22,32.74,6.98,36-24.96,3.66-28.48-32.66-6.98-36Z"/>
    <path class="st2" d="M532.43,56.41l-.26,2.22c-25.74,3.62-45.74,21.11-52.54,46.15-.54,1.98-.99,10.09-3.53,8.24s3.13-16.81,4.39-19.66c6.83-15.36,21.31-28.68,37.19-34.25,2.1-.74,13.87-4.13,14.75-2.7Z"/>
    <path class="st2" d="M547.91,55.92c1.25-.25,9.44,1.93,11.26,2.49,20.83,6.5,39.05,25.45,43.38,47.04.24,1.19,2.17,9.17-.85,7.55-1.43-.76-1.93-7.23-2.49-9.23-6.32-22.44-23.27-37.79-45.49-43.81-1.64-.44-7.6-.62-7.22-2.72.07-.39.98-1.24,1.42-1.33Z"/>
    <path class="st2" d="M603.38,127.22c-1.28,26.61-23.78,50.95-49.67,56.1-1.53.3-6.07,1.63-7.01.3-.49-.7-.43-1.47.3-1.98s10.4-2.15,12.72-2.91c22.11-7.3,38.35-28.25,41.36-51.19l2.29-.33Z"/>
    <path class="st2" d="M476.41,127.23c.95-.3,1.43.09,1.83.95.7,1.51,1,6.09,1.65,8.4,5.38,19.15,20.29,35.79,39.34,42.16,2.25.75,12.16,2.52,12.72,2.91,2.16,1.51-.53,2.63-2.49,2.52-24.23-1.4-51.12-28.48-53.73-52.35-.12-1.07-.66-4.16.68-4.59Z"/>
    <path class="st2" d="M547.38,74.81c16.81,2.26,31.88,15.84,36.44,32.07.43,1.53,2.45,7.3-.75,6.33-.99-.3-2.95-8.3-3.76-10.2-4.32-10.12-13.57-19.04-23.78-23.11-1.78-.71-7.7-2-8.51-2.65-.38-.31-.69-.54-.58-1.1l.94-1.35Z"/>
    <path class="st2" d="M530.14,74.87c2.11-.23,3.37,1.1,1.79,2.39-.71.58-5.31,1.52-6.83,2.1-10.9,4.17-19.95,11.81-24.9,22.54-1.29,2.8-2.41,8.78-3.49,10.46-.41.64-.84,1.33-1.62.64-.83-.64-1.06-1.03-1.01-2.09.19-4.04,4.69-12.96,7.03-16.47,5.79-8.72,18.35-18.4,29.03-19.57Z"/>
    <path class="st2" d="M571.82,153.15c-3.47,3.41-8.1,6.91-12.54,8.96-1.83.84-10.43,3.93-11.7,3.37-.46-.2-1.19-1.06-1.1-1.63,1.16-1.92,3.68-1.5,5.67-2.18,13.65-4.65,23.1-13.53,28.2-27.06.7-1.86,1.02-4.81,1.68-6.13,1.12-2.24,3.11-1.63,2.81,1.09-.87,7.92-7.45,18.08-13.03,23.57Z"/>
    <path class="st2" d="M496.75,127.25c2.14,13.57,11.61,26.24,24.03,32.07,2.68,1.26,9.2,2.59,10.82,3.69,1.83,1.25,1.02,2.64-.96,2.56-13.68-.57-29.36-16.13-34.14-28.3-.94-2.4-4.78-11.2.25-10.02Z"/>
    <path class="st2" d="M538.08,144.25c.38-1.32,2.79-.84,2.79,0v48.56c0,1.05-2.79,1.05-2.79,0v-48.56Z"/>
    <path class="st2" d="M466.91,118.85h48.56c1.05,0,1.05,2.79,0,2.79h-48.56c-.85,0-1.29-2.29,0-2.79Z"/>
    <polygon class="st2" points="612.87 118.85 612.04 121.64 563.2 121.64 562.68 119.75 563.48 118.85 612.87 118.85"/>
    <path class="st2" d="M538.08,96.53v-48.84c0-1.05,2.79-1.05,2.79,0v48.56l-.9.8-1.9-.52Z"/>
  </g>
  <line class="st4" x1="-.68" y1="119.95" x2="466.91" y2="119.95"/>
</svg>