<?xml version="1.0" encoding="UTF-8"?>
<svg id="Layer_1" xmlns="http://www.w3.org/2000/svg" version="1.1" viewBox="0 0 912 157.76">
  <!-- Generator: Adobe Illustrator 29.6.1, SVG Export Plug-In . SVG Version: 2.1.1 Build 9)  -->
  <defs>
    <style>
      .st0 {
        fill: #fff;
      }

      .st1 {
        fill: #00e1ff;
      }
    </style>
  </defs>
  <g>
    <path class="st1" d="M67.99,56.31c-1.56-1.54-2.34-3.58-2.34-6.14v-13.64c0-2.56.78-4.6,2.34-6.14,1.56-1.53,3.65-2.3,6.27-2.3s4.71.77,6.29,2.3c1.58,1.54,2.37,3.58,2.37,6.14v13.64c0,2.56-.79,4.6-2.37,6.14-1.58,1.53-3.67,2.3-6.29,2.3s-4.7-.77-6.27-2.3ZM76.18,52.62c.48-.55.73-1.29.73-2.2v-14.15c0-.91-.24-1.64-.73-2.2-.48-.55-1.12-.83-1.92-.83s-1.43.28-1.9.83c-.47.55-.7,1.29-.7,2.2v14.15c0,.91.23,1.64.7,2.2.47.55,1.1.83,1.9.83s1.43-.28,1.92-.83Z"/>
    <path class="st1" d="M88.44,56.2c-1.55-1.61-2.32-3.74-2.32-6.42v-20.85c0-.14.05-.26.15-.36s.22-.15.36-.15h4.99c.14,0,.26.05.36.15s.15.22.15.36v21.44c0,.91.23,1.65.68,2.22s1.05.85,1.79.85,1.33-.28,1.77-.85c.44-.57.66-1.31.66-2.22v-21.44c0-.14.05-.26.15-.36s.22-.15.36-.15h4.99c.14,0,.26.05.36.15s.15.22.15.36v20.85c0,2.67-.77,4.81-2.32,6.42-1.55,1.61-3.59,2.41-6.12,2.41s-4.61-.8-6.16-2.41Z"/>
    <path class="st1" d="M117.83,57.84l-3.28-11.77c-.06-.11-.13-.17-.21-.17h-1.45c-.14,0-.21.07-.21.21v11.64c0,.14-.05.26-.15.36-.1.1-.22.15-.36.15h-4.99c-.14,0-.26-.05-.36-.15-.1-.1-.15-.22-.15-.36v-28.82c0-.14.05-.26.15-.36s.22-.15.36-.15h8.61c1.56,0,2.96.38,4.18,1.13s2.17,1.81,2.83,3.18c.67,1.36,1,2.93,1,4.69s-.32,3.16-.96,4.43-1.53,2.27-2.66,2.98c-.06.03-.1.06-.13.11-.03.04-.03.09,0,.15l3.92,12.58.04.17c0,.29-.16.43-.47.43h-5.12c-.31,0-.51-.14-.6-.43h0ZM112.67,33.8v7.29c0,.14.07.21.21.21h1.92c.88,0,1.6-.35,2.15-1.04.55-.7.83-1.63.83-2.79s-.28-2.14-.83-2.83-1.27-1.04-2.15-1.04h-1.92c-.14,0-.21.07-.21.21h0Z"/>
    <path class="st1" d="M41.69,100.43l-5.76-28.82-.04-.17c0-.26.16-.38.47-.38h5.2c.34,0,.53.16.55.47l2.43,15.35c.03.11.07.17.13.17s.1-.06.13-.17l2.3-15.35c.03-.31.21-.47.55-.47h4.31c.34,0,.53.16.55.47l2.52,15.35c.03.11.07.17.13.17s.1-.06.13-.17l2.17-15.35c.03-.31.21-.47.55-.47h5.03c.37,0,.53.19.47.55l-5.41,28.82c-.03.31-.21.47-.55.47h-4.6c-.34,0-.53-.16-.55-.47l-2.52-15.77c-.03-.11-.07-.17-.13-.17s-.1.06-.13.17l-2.26,15.77c-.03.31-.21.47-.55.47h-4.56c-.31,0-.5-.16-.55-.47h-.01Z"/>
    <path class="st1" d="M67.48,98.94c-1.56-1.54-2.34-3.58-2.34-6.14v-13.64c0-2.56.78-4.6,2.34-6.14,1.56-1.53,3.65-2.3,6.27-2.3s4.71.77,6.29,2.3c1.58,1.54,2.37,3.58,2.37,6.14v13.64c0,2.56-.79,4.6-2.37,6.14-1.58,1.53-3.67,2.3-6.29,2.3s-4.7-.77-6.27-2.3ZM75.67,95.25c.48-.55.73-1.29.73-2.2v-14.15c0-.91-.24-1.64-.73-2.2-.48-.55-1.12-.83-1.92-.83s-1.43.28-1.9.83-.7,1.29-.7,2.2v14.15c0,.91.23,1.64.7,2.2.47.55,1.1.83,1.9.83s1.43-.28,1.92-.83Z"/>
    <path class="st1" d="M96.9,100.47l-3.28-11.77c-.06-.11-.13-.17-.21-.17h-1.45c-.14,0-.21.07-.21.21v11.64c0,.14-.05.26-.15.36s-.22.15-.36.15h-4.99c-.14,0-.26-.05-.36-.15s-.15-.22-.15-.36v-28.82c0-.14.05-.26.15-.36s.22-.15.36-.15h8.61c1.56,0,2.96.38,4.18,1.13s2.17,1.81,2.83,3.18c.67,1.36,1,2.93,1,4.69s-.32,3.16-.96,4.43-1.53,2.27-2.66,2.98c-.06.03-.1.06-.13.11-.03.04-.03.09,0,.15l3.92,12.58.04.17c0,.29-.16.43-.47.43h-5.12c-.31,0-.51-.14-.6-.43h0ZM91.74,76.43v7.29c0,.14.07.21.21.21h1.92c.88,0,1.6-.35,2.15-1.04.55-.7.83-1.63.83-2.79s-.28-2.14-.83-2.84-1.27-1.04-2.15-1.04h-1.92c-.14,0-.21.07-.21.21Z"/>
    <path class="st1" d="M105.96,100.75c-.1-.1-.15-.22-.15-.36v-28.82c0-.14.05-.26.15-.36s.22-.15.36-.15h4.99c.14,0,.26.05.36.15s.15.22.15.36v10.74c0,.11.04.18.11.19s.12-.04.15-.15l5.5-10.91c.14-.26.34-.38.6-.38h5.29c.2,0,.33.05.4.15s.06.25-.02.45l-6.31,12.28c-.03.11-.04.2-.04.26l6.69,16.11c.03.06.04.14.04.26,0,.23-.14.34-.43.34h-5.33c-.31,0-.51-.13-.6-.38l-4.43-11.17c-.03-.09-.07-.12-.13-.11s-.11.05-.17.11l-1.24,2.22c-.06.11-.09.2-.09.26v8.57c0,.14-.05.26-.15.36s-.22.15-.36.15h-4.99c-.14,0-.26-.05-.36-.15v-.02h0Z"/>
    <path class="st1" d="M14.41,113.69h4.94c.14,0,.26.05.36.15s.15.22.15.36v28.82c0,.14-.05.26-.15.36s-.22.15-.36.15h-4.99c-.14,0-.26-.05-.36-.15-.1-.1-.15-.22-.15-.36v-19.14c0-.11-.03-.17-.09-.17s-.11.04-.17.13l-3.33,5.88c-.14.23-.26.34-.34.34s-.2-.11-.34-.34l-3.33-5.88c-.06-.08-.11-.13-.17-.13s-.09.06-.09.17v19.14c0,.14-.05.26-.15.36s-.22.15-.36.15H.51c-.14,0-.26-.05-.36-.15-.1-.1-.15-.22-.15-.36v-28.82c0-.14.05-.26.15-.36.1-.1.22-.15.36-.15h4.9c.28,0,.5.11.64.34l3.79,6.78c.08.11.17.11.26,0l3.67-6.78c.11-.23.33-.34.64-.34Z"/>
    <path class="st1" d="M35.47,143.06l-.68-4.09c0-.14-.08-.21-.26-.21h-5.41c-.17,0-.26.07-.26.21l-.68,4.09c-.03.31-.21.47-.55.47h-4.99c-.37,0-.51-.18-.43-.55l6.27-28.82c.06-.31.24-.47.55-.47h5.75c.31,0,.5.16.55.47l6.22,28.82.04.17c0,.26-.16.38-.47.38h-5.12c-.34,0-.53-.16-.55-.47,0,0,.02,0,.02,0ZM29.88,134.11h3.84c.14,0,.2-.07.17-.21l-2-11.64c-.03-.09-.07-.13-.13-.13s-.1.04-.13.13l-1.92,11.64c0,.14.06.21.17.21Z"/>
    <path class="st1" d="M56.38,113.84c.1-.1.22-.15.36-.15h4.95c.14,0,.26.05.36.15.1.1.15.22.15.36v28.82c0,.14-.05.26-.15.36-.1.1-.22.15-.36.15h-5.63c-.28,0-.47-.14-.55-.43l-5.29-16.5c-.03-.08-.08-.12-.15-.11s-.11.06-.11.15l.04,16.37c0,.14-.05.26-.15.36-.1.1-.22.15-.36.15h-4.95c-.14,0-.26-.05-.36-.15-.1-.1-.15-.22-.15-.36v-28.82c0-.14.05-.26.15-.36.1-.1.22-.15.36-.15h5.58c.28,0,.47.14.55.43l5.33,16.5c.03.08.08.12.15.11s.11-.06.11-.15l-.04-16.37c0-.14.05-.26.15-.36,0,0,0,0,.01,0Z"/>
    <path class="st1" d="M82.85,113.84c.1.1.15.22.15.36v4.14c0,.14-.05.26-.15.36s-.22.15-.36.15h-5.33c-.14,0-.21.07-.21.21v23.96c0,.14-.05.26-.15.36s-.22.15-.36.15h-4.99c-.14,0-.26-.05-.36-.15-.1-.1-.15-.22-.15-.36v-23.96c0-.14-.07-.21-.21-.21h-5.12c-.14,0-.26-.05-.36-.15s-.15-.22-.15-.36v-4.14c0-.14.05-.26.15-.36s.22-.15.36-.15h16.88c.14,0,.26.05.36.15Z"/>
    <path class="st1" d="M97.07,143.1l-3.28-11.77c-.06-.11-.13-.17-.21-.17h-1.45c-.14,0-.21.07-.21.21v11.64c0,.14-.05.26-.15.36s-.22.15-.36.15h-4.99c-.14,0-.26-.05-.36-.15-.1-.1-.15-.22-.15-.36v-28.82c0-.14.05-.26.15-.36s.22-.15.36-.15h8.61c1.56,0,2.96.38,4.18,1.13s2.17,1.81,2.83,3.18c.67,1.36,1,2.93,1,4.69s-.32,3.16-.96,4.43-1.53,2.27-2.66,2.98c-.06.03-.1.06-.13.11-.03.04-.03.09,0,.15l3.92,12.58.04.17c0,.29-.16.43-.47.43h-5.12c-.31,0-.51-.14-.6-.43h0ZM91.91,119.06v7.29c0,.14.07.21.21.21h1.92c.88,0,1.6-.35,2.15-1.04.55-.7.83-1.63.83-2.79s-.28-2.14-.83-2.83-1.27-1.04-2.15-1.04h-1.92c-.14,0-.21.07-.21.21h0Z"/>
    <path class="st1" d="M118.17,143.06l-.68-4.09c0-.14-.08-.21-.26-.21h-5.41c-.17,0-.26.07-.26.21l-.68,4.09c-.03.31-.21.47-.55.47h-4.99c-.37,0-.51-.18-.43-.55l6.27-28.82c.06-.31.24-.47.55-.47h5.75c.31,0,.5.16.55.47l6.22,28.82.04.17c0,.26-.16.38-.47.38h-5.12c-.34,0-.53-.16-.55-.47h.02ZM112.59,134.11h3.84c.14,0,.2-.07.17-.21l-2-11.64c-.03-.09-.07-.13-.13-.13s-.1.04-.13.13l-1.92,11.64c0,.14.06.21.17.21Z"/>
  </g>
  <g>
    <path class="st1" d="M245.24,71.14c-.21-.21-.31-.46-.31-.77V9.6c0-.3.11-.55.31-.77s.46-.31.77-.31h15.38c5.15,0,9.28,1.56,12.36,4.68s4.64,7.28,4.64,12.5v28.59c0,5.22-1.55,9.38-4.64,12.5s-7.21,4.68-12.36,4.68h-15.38c-.3,0-.55-.11-.77-.31h0ZM255.8,62.47l5.39-.09c1.98,0,3.59-.8,4.81-2.39,1.23-1.59,1.87-3.71,1.93-6.34v-27.34c0-2.7-.62-4.84-1.85-6.43s-2.9-2.39-4.99-2.39h-5.31c-.3,0-.45.15-.45.45v44.06c0,.3.15.45.45.45h.01Z"/>
    <path class="st1" d="M291.02,67.5c-3.14-3.12-4.72-7.25-4.72-12.4v-30.21c0-5.15,1.58-9.29,4.72-12.4,3.14-3.12,7.29-4.68,12.46-4.68s9.33,1.56,12.5,4.68,4.77,7.25,4.77,12.4v30.21c0,5.15-1.59,9.29-4.77,12.4s-7.35,4.68-12.5,4.68-9.3-1.56-12.46-4.68ZM308.41,61.07c1.26-1.4,1.89-3.25,1.89-5.53v-31.12c0-2.28-.63-4.12-1.89-5.53s-2.91-2.12-4.95-2.12-3.67.7-4.91,2.12c-1.23,1.4-1.85,3.25-1.85,5.53v31.12c0,2.28.62,4.12,1.85,5.53s2.86,2.12,4.91,2.12,3.68-.7,4.95-2.12Z"/>
    <path class="st1" d="M347.67,71.14c-.21-.21-.31-.46-.31-.77V9.6c0-.3.11-.55.31-.77s.46-.31.77-.31h8.28c.3,0,.55.11.77.31s.31.46.31.77v60.79c0,.3-.11.55-.31.77s-.46.31-.77.31h-8.28c-.3,0-.55-.11-.77-.31h0Z"/>
    <path class="st1" d="M400.54,8.83c.21.21.31.46.31.77v6.83c0,.3-.11.55-.31.77s-.46.31-.77.31h-11.42c-.3,0-.45.15-.45.45v52.43c0,.3-.11.55-.31.77s-.46.31-.77.31h-8.28c-.3,0-.55-.11-.77-.31s-.31-.46-.31-.77V17.96c0-.3-.15-.45-.45-.45h-10.79c-.3,0-.55-.11-.77-.31s-.31-.46-.31-.77v-6.83c0-.3.11-.55.31-.77s.46-.31.77-.31h33.54c.3,0,.55.11.77.31h.02Z"/>
    <path class="st0" d="M426.44,71.14c-.21-.21-.31-.46-.31-.77V9.6c0-.3.11-.55.31-.77s.46-.31.77-.31h15.38c5.15,0,9.28,1.56,12.36,4.68s4.64,7.28,4.64,12.5v28.59c0,5.22-1.55,9.38-4.64,12.5s-7.21,4.68-12.36,4.68h-15.38c-.3,0-.55-.11-.77-.31h0ZM437.01,62.47l5.39-.09c1.98,0,3.59-.8,4.81-2.39,1.23-1.59,1.87-3.71,1.93-6.34v-27.34c0-2.7-.62-4.84-1.85-6.43s-2.9-2.39-4.99-2.39h-5.31c-.3,0-.45.15-.45.45v44.06c0,.3.15.45.45.45h.01Z"/>
    <path class="st0" d="M468.88,71.14c-.21-.21-.31-.46-.31-.77V9.6c0-.3.11-.55.31-.77s.46-.31.77-.31h8.28c.3,0,.55.11.77.31s.31.46.31.77v60.79c0,.3-.11.55-.31.77s-.46.31-.77.31h-8.28c-.3,0-.55-.11-.77-.31h0Z"/>
    <path class="st0" d="M519.69,17.19c-.21.21-.46.31-.77.31h-19.33c-.3,0-.45.15-.45.45v17c0,.3.15.45.45.45h11.42c.3,0,.55.11.77.31s.31.46.31.77v6.93c0,.3-.11.55-.31.77s-.46.31-.77.31h-11.42c-.3,0-.45.15-.45.45v25.45c0,.3-.11.55-.31.77s-.46.31-.77.31h-8.28c-.3,0-.55-.11-.77-.31s-.31-.46-.31-.77V9.6c0-.3.11-.55.31-.77s.46-.31.77-.31h29.13c.3,0,.55.11.77.31s.31.46.31.77v6.83c0,.3-.11.55-.31.77h.01Z"/>
    <path class="st0" d="M557.01,17.19c-.21.21-.46.31-.77.31h-19.33c-.3,0-.45.15-.45.45v17c0,.3.15.45.45.45h11.42c.3,0,.55.11.77.31s.31.46.31.77v6.93c0,.3-.11.55-.31.77s-.46.31-.77.31h-11.42c-.3,0-.45.15-.45.45v25.45c0,.3-.11.55-.31.77s-.46.31-.77.31h-8.28c-.3,0-.55-.11-.77-.31s-.31-.46-.31-.77V9.6c0-.3.11-.55.31-.77s.46-.31.77-.31h29.13c.3,0,.55.11.77.31s.31.46.31.77v6.83c0,.3-.11.55-.31.77h.01Z"/>
    <path class="st0" d="M594.42,17.19c-.21.21-.46.31-.77.31h-19.43c-.3,0-.45.15-.45.45v17c0,.3.15.45.45.45h11.51c.3,0,.55.11.77.31s.31.46.31.77v6.93c0,.3-.11.55-.31.77s-.46.31-.77.31h-11.51c-.3,0-.45.15-.45.45v17.08c0,.3.15.45.45.45h19.43c.3,0,.55.11.77.31.21.21.31.46.31.77v6.83c0,.3-.11.55-.31.77s-.46.31-.77.31h-29.23c-.3,0-.55-.11-.77-.31s-.31-.46-.31-.77V9.6c0-.3.11-.55.31-.77s.46-.31.77-.31h29.23c.3,0,.55.11.77.31s.31.46.31.77v6.83c0,.3-.11.55-.31.77Z"/>
    <path class="st0" d="M626.21,70.56l-7.64-25.81c-.12-.24-.27-.36-.45-.36h-4.77c-.3,0-.45.15-.45.45v25.54c0,.3-.11.55-.31.77s-.46.31-.77.31h-8.28c-.3,0-.55-.11-.77-.31s-.31-.46-.31-.77V9.6c0-.3.11-.55.31-.77s.46-.31.77-.31h16.91c3.18,0,5.98.77,8.41,2.29,2.43,1.52,4.31,3.68,5.66,6.47s2.02,5.98,2.02,9.57-.72,6.93-2.16,9.62c-1.44,2.7-3.45,4.73-6.03,6.12-.24.06-.33.24-.27.54l8.82,27.07c.06.12.09.27.09.45,0,.54-.33.81-.99.81h-8.63c-.59,0-.99-.3-1.17-.9h.02ZM612.9,17.96v17.89c0,.3.15.45.45.45h5.49c2.16,0,3.91-.84,5.26-2.52s2.02-3.95,2.02-6.83-.67-5.18-2.02-6.88c-1.35-1.71-3.1-2.56-5.26-2.56h-5.49c-.3,0-.45.15-.45.45h0Z"/>
    <path class="st0" d="M675,17.19c-.21.21-.46.31-.77.31h-19.43c-.3,0-.45.15-.45.45v17c0,.3.15.45.45.45h11.51c.3,0,.55.11.77.31s.31.46.31.77v6.93c0,.3-.11.55-.31.77s-.46.31-.77.31h-11.51c-.3,0-.45.15-.45.45v17.08c0,.3.15.45.45.45h19.43c.3,0,.55.11.77.31.21.21.31.46.31.77v6.83c0,.3-.11.55-.31.77s-.46.31-.77.31h-29.23c-.3,0-.55-.11-.77-.31s-.31-.46-.31-.77V9.6c0-.3.11-.55.31-.77s.46-.31.77-.31h29.23c.3,0,.55.11.77.31s.31.46.31.77v6.83c0,.3-.11.55-.31.77Z"/>
    <path class="st0" d="M708.89,8.83c.21-.21.46-.31.77-.31h8.18c.3,0,.55.11.77.31s.31.46.31.77v60.79c0,.3-.11.55-.31.77s-.46.31-.77.31h-9.44c-.59,0-.99-.3-1.17-.9l-13.4-38.13c-.06-.18-.16-.26-.31-.23-.15.03-.23.13-.23.31l.09,37.86c0,.3-.11.55-.31.77s-.46.31-.77.31h-8.18c-.3,0-.55-.11-.77-.31s-.31-.46-.31-.77V9.6c0-.3.11-.55.31-.77s.46-.31.77-.31h9.26c.59,0,.99.3,1.17.9l13.49,37.86c.06.18.16.26.31.23.15-.03.23-.13.23-.31V9.6c0-.3.11-.55.31-.77h.01Z"/>
    <path class="st0" d="M761.69,8.83c.21.21.31.46.31.77v6.83c0,.3-.11.55-.31.77s-.46.31-.77.31h-11.42c-.3,0-.45.15-.45.45v52.43c0,.3-.11.55-.31.77s-.46.31-.77.31h-8.28c-.3,0-.55-.11-.77-.31s-.31-.46-.31-.77V17.96c0-.3-.15-.45-.45-.45h-10.79c-.3,0-.55-.11-.77-.31s-.31-.46-.31-.77v-6.83c0-.3.11-.55.31-.77s.46-.31.77-.31h33.54c.3,0,.55.11.77.31h.02Z"/>
    <path class="st0" d="M769.24,71.14c-.21-.21-.31-.46-.31-.77V9.6c0-.3.11-.55.31-.77s.46-.31.77-.31h8.28c.3,0,.55.11.77.31s.31.46.31.77v52.43c0,.3.15.45.45.45h19.43c.3,0,.55.11.77.31.21.21.31.46.31.77v6.83c0,.3-.11.55-.31.77s-.46.31-.77.31h-29.23c-.3,0-.55-.11-.77-.31h-.01Z"/>
    <path class="st0" d="M814.2,71.06c-.21-.21-.31-.46-.31-.77v-24.55l-.09-.54-12.5-35.43c-.06-.12-.09-.27-.09-.45,0-.54.33-.81.99-.81h8.63c.66,0,1.08.3,1.26.9l6.74,23.11c.06.18.15.27.27.27s.21-.09.27-.27l6.74-23.11c.18-.59.59-.9,1.26-.9h8.63c.36,0,.63.11.81.31s.21.53.09.94l-12.5,35.43-.09.54v24.55c0,.3-.11.55-.31.77s-.46.31-.77.31h-8.28c-.3,0-.55-.11-.77-.31h-.01Z"/>
    <path class="st1" d="M245.24,149.86c-.21-.21-.31-.46-.31-.77v-60.79c0-.3.11-.55.31-.77s.46-.31.77-.31h8.28c.3,0,.55.11.77.31s.31.46.31.77v24.82c0,.24.06.38.18.4s.24-.04.36-.23l13.49-25.27c.3-.54.75-.81,1.35-.81h8.9c.42,0,.69.12.81.36s.09.54-.09.9l-13.49,25.27c-.06.24-.09.42-.09.54l14.57,34.62c.06.12.09.3.09.54,0,.48-.3.72-.9.72h-8.9c-.66,0-1.08-.27-1.26-.81l-10.61-25.99c-.06-.18-.15-.26-.27-.23s-.24.11-.36.23l-3.6,6.03c-.12.24-.18.42-.18.54v19.16c0,.3-.11.55-.31.77s-.46.31-.77.31h-8.28c-.3,0-.55-.11-.77-.31h0Z"/>
    <path class="st1" d="M318.89,95.91c-.21.21-.46.31-.77.31h-19.43c-.3,0-.45.15-.45.45v17c0,.3.15.45.45.45h11.51c.3,0,.55.11.77.31s.31.46.31.77v6.93c0,.3-.11.55-.31.77s-.46.31-.77.31h-11.51c-.3,0-.45.15-.45.45v17.08c0,.3.15.45.45.45h19.43c.3,0,.55.11.77.31s.31.46.31.77v6.83c0,.3-.11.55-.31.77s-.46.31-.77.31h-29.23c-.3,0-.55-.11-.77-.31s-.31-.46-.31-.77v-60.79c0-.3.11-.55.31-.77s.46-.31.77-.31h29.23c.3,0,.55.11.77.31s.31.46.31.77v6.83c0,.3-.11.55-.31.77h0Z"/>
    <path class="st1" d="M358.01,95.91c-.21.21-.46.31-.77.31h-19.43c-.3,0-.45.15-.45.45v17c0,.3.15.45.45.45h11.51c.3,0,.55.11.77.31s.31.46.31.77v6.93c0,.3-.11.55-.31.77s-.46.31-.77.31h-11.51c-.3,0-.45.15-.45.45v17.08c0,.3.15.45.45.45h19.43c.3,0,.55.11.77.31s.31.46.31.77v6.83c0,.3-.11.55-.31.77s-.46.31-.77.31h-29.23c-.3,0-.55-.11-.77-.31s-.31-.46-.31-.77v-60.79c0-.3.11-.55.31-.77s.46-.31.77-.31h29.23c.3,0,.55.11.77.31s.31.46.31.77v6.83c0,.3-.11.55-.31.77h0Z"/>
    <path class="st1" d="M392.36,89.48c2.43,1.56,4.31,3.75,5.66,6.57s2.02,6.03,2.02,9.62c0,5.39-1.43,9.75-4.27,13.04s-6.61,4.95-11.28,4.95h-7.64c-.3,0-.45.15-.45.45v25c0,.3-.11.55-.31.77s-.46.31-.77.31h-8.28c-.3,0-.55-.11-.77-.31s-.31-.46-.31-.77v-60.88c0-.3.11-.55.31-.77s.46-.31.77-.31h16.91c3.18,0,5.98.78,8.41,2.33h0ZM387.59,112.91c1.35-1.71,2.02-4.03,2.02-6.97s-.67-5.38-2.02-7.15-3.13-2.66-5.35-2.66h-5.39c-.3,0-.45.15-.45.45v18.43c0,.3.15.45.45.45h5.39c2.22,0,4-.85,5.35-2.56h0Z"/>
    <path class="st1" d="M425.45,149.86c-.21-.21-.31-.46-.31-.77v-60.79c0-.3.11-.55.31-.77s.46-.31.77-.31h8.28c.3,0,.55.11.77.31s.31.46.31.77v60.79c0,.3-.11.55-.31.77s-.46.31-.77.31h-8.28c-.3,0-.55-.11-.77-.31Z"/>
    <path class="st1" d="M478.33,87.55c.21.21.31.46.31.77v6.83c0,.3-.11.55-.31.77s-.46.31-.77.31h-11.42c-.3,0-.45.15-.45.45v52.43c0,.3-.11.55-.31.77s-.46.31-.77.31h-8.28c-.3,0-.55-.11-.77-.31s-.31-.46-.31-.77v-52.43c0-.3-.15-.45-.45-.45h-10.79c-.3,0-.55-.11-.77-.31s-.31-.46-.31-.77v-6.83c0-.3.11-.55.31-.77s.46-.31.77-.31h33.54c.3,0,.55.11.77.31h.02Z"/>
    <path class="st0" d="M506.7,146.4c-3.06-2.99-4.58-6.93-4.58-11.78v-2.33c0-.3.11-.55.31-.77s.46-.31.77-.31h8.18c.3,0,.55.11.77.31s.31.46.31.77v1.79c0,2.33.58,4.22,1.75,5.66s2.68,2.16,4.54,2.16,3.38-.67,4.58-2.02,1.79-3.13,1.79-5.35c0-1.56-.33-2.91-.99-4.05-.66-1.13-1.59-2.22-2.79-3.24s-3.12-2.49-5.76-4.41c-2.99-2.16-5.41-4.07-7.24-5.76-1.83-1.67-3.36-3.71-4.58-6.07s-1.85-5.11-1.85-8.22c0-4.98,1.5-8.94,4.5-11.88s6.96-4.41,11.88-4.41,8.99,1.55,12.05,4.64,4.58,7.17,4.58,12.27v2.16c0,.3-.11.55-.31.77s-.46.31-.77.31h-8.09c-.3,0-.55-.11-.77-.31s-.31-.46-.31-.77v-2.33c0-2.33-.58-4.21-1.75-5.62s-2.71-2.12-4.64-2.12c-1.79,0-3.26.65-4.41,1.93s-1.71,3.07-1.71,5.35c0,2.16.62,3.99,1.85,5.49s3.64,3.57,7.24,6.2c3.65,2.7,6.42,4.91,8.28,6.61s3.3,3.59,4.31,5.62,1.52,4.46,1.52,7.28c0,5.1-1.52,9.18-4.58,12.27s-7.08,4.64-12.05,4.64-8.99-1.5-12.05-4.5h.02Z"/>
    <path class="st0" d="M543.26,149.86c-.21-.21-.31-.46-.31-.77v-60.79c0-.3.11-.55.31-.77s.46-.31.77-.31h8.28c.3,0,.55.11.77.31s.31.46.31.77v60.79c0,.3-.11.55-.31.77s-.46.31-.77.31h-8.28c-.3,0-.55-.11-.77-.31Z"/>
    <path class="st0" d="M592.67,87.23h8.28c.3,0,.55.11.77.31s.31.46.31.77v60.79c0,.3-.11.55-.31.77s-.46.31-.77.31h-8.28c-.3,0-.55-.11-.77-.31s-.31-.46-.31-.77v-42.44c0-.24-.06-.36-.18-.36s-.24.09-.36.27l-7.82,14.21c-.3.48-.57.72-.81.72s-.51-.24-.81-.72l-7.82-14.21c-.12-.18-.24-.27-.36-.27s-.18.12-.18.36v42.44c0,.3-.11.55-.31.77s-.46.31-.77.31h-8.28c-.3,0-.55-.11-.77-.31s-.31-.46-.31-.77v-60.79c0-.3.11-.55.31-.77s.46-.31.77-.31h8.28c.59,0,1.05.24,1.35.72l8.72,15.38c.18.24.36.24.54,0l8.55-15.38c.3-.48.75-.72,1.35-.72Z"/>
    <path class="st0" d="M637.76,89.48c2.43,1.56,4.31,3.75,5.66,6.57s2.02,6.03,2.02,9.62c0,5.39-1.43,9.75-4.27,13.04-2.85,3.3-6.61,4.95-11.28,4.95h-7.64c-.3,0-.45.15-.45.45v25c0,.3-.11.55-.31.77s-.46.31-.77.31h-8.28c-.3,0-.55-.11-.77-.31s-.31-.46-.31-.77v-60.88c0-.3.11-.55.31-.77s.46-.31.77-.31h16.91c3.18,0,5.98.78,8.41,2.33h0ZM633,112.91c1.35-1.71,2.02-4.03,2.02-6.97s-.67-5.38-2.02-7.15-3.13-2.66-5.35-2.66h-5.39c-.3,0-.45.15-.45.45v18.43c0,.3.15.45.45.45h5.39c2.22,0,4-.85,5.35-2.56h0Z"/>
    <path class="st0" d="M652.88,149.86c-.21-.21-.31-.46-.31-.77v-60.79c0-.3.11-.55.31-.77s.46-.31.77-.31h8.28c.3,0,.55.11.77.31s.31.46.31.77v52.43c0,.3.15.45.45.45h19.43c.3,0,.55.11.77.31s.31.46.31.77v6.83c0,.3-.11.55-.31.77s-.46.31-.77.31h-29.23c-.3,0-.55-.11-.77-.31h-.01Z"/>
    <path class="st0" d="M720.95,95.91c-.21.21-.46.31-.77.31h-19.43c-.3,0-.45.15-.45.45v17c0,.3.15.45.45.45h11.51c.3,0,.55.11.77.31s.31.46.31.77v6.93c0,.3-.11.55-.31.77s-.46.31-.77.31h-11.51c-.3,0-.45.15-.45.45v17.08c0,.3.15.45.45.45h19.43c.3,0,.55.11.77.31s.31.46.31.77v6.83c0,.3-.11.55-.31.77s-.46.31-.77.31h-29.23c-.3,0-.55-.11-.77-.31s-.31-.46-.31-.77v-60.79c0-.3.11-.55.31-.77s.46-.31.77-.31h29.23c.3,0,.55.11.77.31s.31.46.31.77v6.83c0,.3-.11.55-.31.77h0Z"/>
  </g>
  <g>
    <g>
      <path d="M859.92,131.34h-13.59c-.11,0-1.15-.26-1.33-.32-.98-.36-1.89-1.54-2.04-2.58.45-7.11-.65-15.06-.02-22.07.13-1.47,1.2-2.88,2.72-3.04,7.76.46,16.22-.61,23.9,0,1.64.13,2.68,1.15,3.03,2.74-.29,7.7.44,15.73.02,23.39-.75,13.86-12.09,26.25-26.12,27.26-.56.04-3.54.18-3.54-.41v-11.37c0-.64,3.3-.67,3.99-.79,6.32-1.12,11.67-6.57,12.98-12.8h0ZM844.59,155.07c13.88-.09,25.52-11.73,26.36-25.46.46-7.47-.34-15.39,0-22.91,0-.95-.57-1.76-1.56-1.73-7.48.53-15.88-.68-23.25,0-1.01.09-1.44.55-1.56,1.57.48,6.83-.64,14.53,0,21.26.07.72.19,1.24.88,1.59.1.05.81.3.86.3h14.99c.75.72.1,2.35-.17,3.3-2.05,7.25-8.91,12.92-16.56,13.02v9.06h.01Z"/>
      <path d="M894.52,131.34h-13.59c-.11,0-1.15-.26-1.33-.32-.98-.36-1.89-1.54-2.04-2.58.45-7.11-.65-15.06-.02-22.07.13-1.47,1.2-2.88,2.72-3.04,7.76.46,16.22-.61,23.9,0,1.64.13,2.68,1.15,3.03,2.74-.29,7.7.44,15.73.02,23.39-.75,13.86-12.09,26.25-26.12,27.26-.56.04-3.54.18-3.54-.41v-11.37c0-.64,3.3-.67,3.99-.79,6.32-1.12,11.67-6.57,12.98-12.8h0ZM879.2,155.07c13.88-.09,25.52-11.73,26.36-25.46.46-7.47-.34-15.39,0-22.91,0-.95-.57-1.76-1.56-1.73-7.48.53-15.88-.68-23.25,0-1.01.09-1.44.55-1.56,1.57.48,6.83-.64,14.53,0,21.26.07.72.19,1.24.88,1.59.1.05.81.3.86.3h14.99c.75.72.1,2.35-.17,3.3-2.05,7.25-8.91,12.92-16.56,13.02v9.06h.01Z"/>
    </g>
    <g>
      <path class="st0" d="M859.92,131.34h-13.59c-.11,0-1.15-.26-1.33-.32-.98-.36-1.89-1.54-2.04-2.58.45-7.11-.65-15.06-.02-22.07.13-1.47,1.2-2.88,2.72-3.04,7.76.46,16.22-.61,23.9,0,1.64.13,2.68,1.15,3.03,2.74-.29,7.7.44,15.73.02,23.39-.75,13.86-12.09,26.25-26.12,27.26-.56.04-3.54.18-3.54-.41v-11.37c0-.64,3.3-.67,3.99-.79,6.32-1.12,11.67-6.57,12.98-12.8h0ZM844.59,155.07c13.88-.09,25.52-11.73,26.36-25.46.46-7.47-.34-15.39,0-22.91,0-.95-.57-1.76-1.56-1.73-7.48.53-15.88-.68-23.25,0-1.01.09-1.44.55-1.56,1.57.48,6.83-.64,14.53,0,21.26.07.72.19,1.24.88,1.59.1.05.81.3.86.3h14.99c.75.72.1,2.35-.17,3.3-2.05,7.25-8.91,12.92-16.56,13.02v9.06h.01Z"/>
      <path class="st0" d="M894.52,131.34h-13.59c-.11,0-1.15-.26-1.33-.32-.98-.36-1.89-1.54-2.04-2.58.45-7.11-.65-15.06-.02-22.07.13-1.47,1.2-2.88,2.72-3.04,7.76.46,16.22-.61,23.9,0,1.64.13,2.68,1.15,3.03,2.74-.29,7.7.44,15.73.02,23.39-.75,13.86-12.09,26.25-26.12,27.26-.56.04-3.54.18-3.54-.41v-11.37c0-.64,3.3-.67,3.99-.79,6.32-1.12,11.67-6.57,12.98-12.8h0ZM879.2,155.07c13.88-.09,25.52-11.73,26.36-25.46.46-7.47-.34-15.39,0-22.91,0-.95-.57-1.76-1.56-1.73-7.48.53-15.88-.68-23.25,0-1.01.09-1.44.55-1.56,1.57.48,6.83-.64,14.53,0,21.26.07.72.19,1.24.88,1.59.1.05.81.3.86.3h14.99c.75.72.1,2.35-.17,3.3-2.05,7.25-8.91,12.92-16.56,13.02v9.06h.01Z"/>
    </g>
  </g>
  <g>
    <g>
      <path d="M211.48,25.42h13.59c.11,0,1.15.26,1.33.32.98.36,1.89,1.54,2.04,2.58-.45,7.11.65,15.06.02,22.07-.13,1.47-1.2,2.88-2.72,3.04-7.76-.46-16.22.61-23.9,0-1.64-.13-2.68-1.15-3.03-2.74.29-7.7-.44-15.73-.02-23.39.75-13.86,12.09-26.25,26.12-27.26.56-.04,3.54-.18,3.54.41v11.37c0,.64-3.3.67-3.99.79-6.32,1.12-11.67,6.57-12.98,12.8h0ZM226.8,1.69c-13.88.09-25.52,11.73-26.36,25.46-.46,7.47.34,15.39,0,22.91,0,.95.57,1.76,1.56,1.73,7.48-.53,15.88.68,23.25,0,1.01-.09,1.44-.55,1.56-1.57-.48-6.83.64-14.53,0-21.26-.07-.72-.19-1.24-.88-1.59-.1-.05-.81-.3-.86-.3h-14.99c-.75-.72-.1-2.35.17-3.3,2.05-7.25,8.91-12.92,16.56-13.02V1.69h0Z"/>
      <path d="M176.88,25.42h13.59c.11,0,1.15.26,1.33.32.98.36,1.89,1.54,2.04,2.58-.45,7.11.65,15.06.02,22.07-.13,1.47-1.2,2.88-2.72,3.04-7.76-.46-16.22.61-23.9,0-1.64-.13-2.68-1.15-3.03-2.74.29-7.7-.44-15.73-.02-23.39.75-13.86,12.09-26.25,26.12-27.26.56-.04,3.54-.18,3.54.41v11.37c0,.64-3.3.67-3.99.79-6.32,1.12-11.67,6.57-12.98,12.8h0ZM192.2,1.69c-13.88.09-25.52,11.73-26.36,25.46-.46,7.47.34,15.39,0,22.91,0,.95.57,1.76,1.56,1.73,7.48-.53,15.88.68,23.25,0,1.01-.09,1.44-.55,1.56-1.57-.48-6.83.64-14.53,0-21.26-.07-.72-.19-1.24-.88-1.59-.1-.05-.81-.3-.86-.3h-14.99c-.75-.72-.1-2.35.17-3.3,2.05-7.25,8.91-12.92,16.56-13.02V1.69h0Z"/>
    </g>
    <g>
      <path class="st0" d="M211.48,25.42h13.59c.11,0,1.15.26,1.33.32.98.36,1.89,1.54,2.04,2.58-.45,7.11.65,15.06.02,22.07-.13,1.47-1.2,2.88-2.72,3.04-7.76-.46-16.22.61-23.9,0-1.64-.13-2.68-1.15-3.03-2.74.29-7.7-.44-15.73-.02-23.39.75-13.86,12.09-26.25,26.12-27.26.56-.04,3.54-.18,3.54.41v11.37c0,.64-3.3.67-3.99.79-6.32,1.12-11.67,6.57-12.98,12.8h0ZM226.8,1.69c-13.88.09-25.52,11.73-26.36,25.46-.46,7.47.34,15.39,0,22.91,0,.95.57,1.76,1.56,1.73,7.48-.53,15.88.68,23.25,0,1.01-.09,1.44-.55,1.56-1.57-.48-6.83.64-14.53,0-21.26-.07-.72-.19-1.24-.88-1.59-.1-.05-.81-.3-.86-.3h-14.99c-.75-.72-.1-2.35.17-3.3,2.05-7.25,8.91-12.92,16.56-13.02V1.69h0Z"/>
      <path class="st0" d="M176.88,25.42h13.59c.11,0,1.15.26,1.33.32.98.36,1.89,1.54,2.04,2.58-.45,7.11.65,15.06.02,22.07-.13,1.47-1.2,2.88-2.72,3.04-7.76-.46-16.22.61-23.9,0-1.64-.13-2.68-1.15-3.03-2.74.29-7.7-.44-15.73-.02-23.39.75-13.86,12.09-26.25,26.12-27.26.56-.04,3.54-.18,3.54.41v11.37c0,.64-3.3.67-3.99.79-6.32,1.12-11.67,6.57-12.98,12.8h0ZM192.2,1.69c-13.88.09-25.52,11.73-26.36,25.46-.46,7.47.34,15.39,0,22.91,0,.95.57,1.76,1.56,1.73,7.48-.53,15.88.68,23.25,0,1.01-.09,1.44-.55,1.56-1.57-.48-6.83.64-14.53,0-21.26-.07-.72-.19-1.24-.88-1.59-.1-.05-.81-.3-.86-.3h-14.99c-.75-.72-.1-2.35.17-3.3,2.05-7.25,8.91-12.92,16.56-13.02V1.69h0Z"/>
    </g>
  </g>
</svg>