<?xml version="1.0" encoding="UTF-8"?>
<svg id="Layer_1" xmlns="http://www.w3.org/2000/svg" version="1.1" viewBox="0 0 1366 359.09">
  <!-- Generator: Adobe Illustrator 29.6.1, SVG Export Plug-In . SVG Version: 2.1.1 Build 9)  -->
  <defs>
    <style>
      .st0, .st1 {
        fill: none;
      }

      .st2, .st1 {
        isolation: isolate;
      }

      .st3 {
        fill: #fff;
      }

      .st4 {
        fill: #32c5f4;
      }

      .st1 {
        font-family: NeuzeitGro-Bol, 'Neuzeit Grotesk';
        font-size: 73.58px;
      }
    </style>
  </defs>
  <g>
    <g>
      <path class="st4" d="M776.69,177.27c3.14-3.42,6.17-7.5,9.05-12.16l-17.55-9.79c-4.97,7.52-9.37,12.66-13.44,15.66-4.62,3.36-10.46,5.06-17.37,5.06-8.89,0-16.29-2.94-22.01-8.75-5.67-5.83-8.9-13.7-9.63-23.41l-.2-2.63h80.16l.07-3.67c0-17.63-4.56-31.61-13.56-41.48-9.02-9.88-21.51-14.89-37.13-14.89s-28.04,5.17-37.36,15.35c-9.29,10.38-14.02,24.24-14.02,41.17s4.86,30.91,14.46,41.16c9.54,10.12,22.43,15.26,38.29,15.26,5.57,0,10.81-.59,15.56-1.76,4.69-1.16,9.12-3,13.15-5.49,4.06-2.5,7.93-5.75,11.5-9.65l.03.02ZM707.53,122.02c.9-3.44,2.23-6.56,3.97-9.28,1.74-2.74,3.87-5.12,6.32-7.07,2.46-1.96,5.23-3.48,8.22-4.52,3-1.04,6.23-1.57,9.62-1.57,14.93,0,24.47,7.55,28.36,22.44l.8,3.07h-58.1l.8-3.07h.01Z"/>
      <polygon class="st4" points="917.24 84.33 893.74 84.33 863.44 150.38 833.01 84.33 809.62 84.33 863.21 195.47 917.24 84.33"/>
      <path class="st4" d="M1033.14,177.27c3.13-3.42,6.17-7.5,9.05-12.16l-17.55-9.79c-4.96,7.52-9.37,12.65-13.43,15.66-4.63,3.36-10.47,5.06-17.38,5.06-8.89,0-16.29-2.94-22.01-8.74-5.66-5.83-8.9-13.7-9.63-23.41l-.2-2.63h80.17l.07-3.67c0-17.64-4.56-31.61-13.56-41.48-9.02-9.88-21.51-14.89-37.13-14.89s-28.04,5.17-37.36,15.35c-9.29,10.38-14.02,24.24-14.02,41.17s4.86,30.91,14.45,41.16c9.54,10.12,22.43,15.26,38.29,15.26,5.57,0,10.81-.59,15.56-1.76,4.69-1.16,9.12-3,13.16-5.49,4.06-2.5,7.93-5.75,11.5-9.65h.02ZM963.98,122.02c.9-3.44,2.24-6.56,3.97-9.28,1.74-2.74,3.87-5.12,6.32-7.07,2.46-1.96,5.23-3.48,8.22-4.52,3-1.04,6.23-1.57,9.62-1.57,14.93,0,24.47,7.55,28.36,22.44l.8,3.07h-58.1l.8-3.07h.01Z"/>
      <path class="st4" d="M1130.53,99.47c8.67,0,14.82,2.51,18.27,7.46,3.37,4.63,5.02,12.56,5.02,24.19v59.85h20.98v-65.92c0-15.03-2.95-25.92-8.76-32.37-6.84-7.7-16.17-11.44-28.53-11.44-10.58,0-20.25,4.27-28.73,12.69l-4.17,4.14v-13.73h-20.98v106.64h20.98v-51.37c0-14.5,1.85-24.48,5.64-30.51,4.06-6.38,10.88-9.62,20.28-9.62h0Z"/>
      <polygon class="st4" points="1262.37 84.33 1242.33 84.33 1242.33 43.44 1221.46 43.44 1221.46 84.33 1210.47 84.33 1210.47 103.48 1221.46 103.48 1221.46 190.96 1242.33 190.96 1242.33 103.48 1262.37 103.48 1262.37 84.33"/>
      <path class="st4" d="M1353.94,140.94c-4.48-4.7-13.5-9.98-26.79-15.7-11.01-4.66-16.37-9.55-16.37-14.96,0-3.14,1.11-5.76,3.3-7.8,2.14-1.99,4.74-3,7.74-3,5.35,0,9.88,3.17,13.49,9.44l17.04-9.07c-6.54-12.52-15.91-18.61-28.59-18.61-9.14,0-16.68,2.89-23.06,8.85-6.17,5.89-9.18,13.18-9.18,22.26,0,6.71,1.77,12.23,5.27,16.41,2.82,3.38,7.86,6.87,15,10.37,2.66,1.29,5.28,2.55,7.87,3.76,2.61,1.23,5.22,2.5,7.84,3.8l.15.08c7.48,4.42,11.28,9.45,11.28,14.93,0,9.26-5.51,14.36-15.5,14.36-4.97,0-9.31-1.68-12.89-5-1.58-1.43-3.65-4.33-6.32-8.83l-17.77,8.24c7.51,15.95,19.48,23.72,36.51,23.72,10.25,0,19.1-3.26,26.31-9.69,7.45-6.81,11.09-15.06,11.09-25.2,0-7.7-2.16-13.88-6.42-18.35h0Z"/>
    </g>
    <g>
      <path class="st3" d="M2.04,35.5c0-4.5,1.64-8.4,4.93-11.68,3.28-3.28,7.21-4.92,11.79-4.92s8.63,1.64,11.91,4.92c3.28,3.21,4.92,7.14,4.92,11.79s-1.64,8.63-4.92,11.91c-3.21,3.28-7.14,4.92-11.79,4.92s-8.63-1.64-11.91-4.92c-3.28-3.28-4.93-7.29-4.93-12.02ZM31.7,81.88v111.54H5.93v-111.54h25.77Z"/>
      <path class="st3" d="M98.55,0v117.95l36.3-36.07h34.58l-48.44,46.84,51.99,64.7h-33.44l-36.87-47.06-4.12,4.12v42.94h-25.77V0h25.77,0Z"/>
      <path class="st3" d="M194.13,35.5c0-4.5,1.64-8.4,4.92-11.68s7.22-4.92,11.79-4.92,8.63,1.64,11.91,4.92c3.28,3.21,4.92,7.14,4.92,11.79s-1.64,8.63-4.92,11.91c-3.21,3.28-7.14,4.92-11.79,4.92s-8.63-1.64-11.91-4.92-4.92-7.29-4.92-12.02ZM223.79,81.88v111.54h-25.77v-111.54h25.77Z"/>
      <path class="st3" d="M372.74,190.78c0,5.27-.17,9.9-.51,13.91-.34,4.01-.82,7.54-1.43,10.59-1.83,8.4-5.42,15.61-10.77,21.64-10.08,11.6-23.93,17.41-41.57,17.41-14.89,0-27.14-4.01-36.76-12.02-9.93-8.25-15.65-19.66-17.18-34.24h25.88c.99,5.5,2.63,9.73,4.92,12.71,5.34,6.95,13.13,10.42,23.36,10.42,18.86,0,28.29-11.57,28.29-34.7v-15.57c-10.23,10.46-22.03,15.69-35.38,15.69-15.19,0-27.64-5.5-37.33-16.49-9.77-11.14-14.66-25.08-14.66-41.8s4.54-30.08,13.63-41.45c9.77-12.06,22.67-18.09,38.7-18.09,14.05,0,25.73,5.23,35.04,15.69v-12.6h25.77v108.9h0ZM348.01,137.87c0-10.84-2.9-19.5-8.7-25.99-5.88-6.64-13.4-9.96-22.56-9.96-9.77,0-17.48,3.63-23.13,10.88-5.11,6.49-7.67,14.89-7.67,25.19s2.56,18.48,7.67,24.96c5.57,7.1,13.28,10.65,23.13,10.65s17.63-3.59,23.36-10.77c5.27-6.49,7.9-14.81,7.9-24.96h0Z"/>
      <path class="st3" d="M495.93,81.88h25.88v111.54h-25.88v-11.68c-10.61,9.93-22.03,14.89-34.24,14.89-15.42,0-28.17-5.57-38.25-16.72-10-11.37-15-25.57-15-42.6s5-30.65,15-41.8,22.52-16.72,37.56-16.72c12.98,0,24.62,5.35,34.93,16.03,0,0,0-12.94,0-12.94ZM434.78,137.3c0,10.69,2.86,19.39,8.59,26.11,5.88,6.79,13.28,10.19,22.22,10.19,9.54,0,17.25-3.28,23.13-9.85,5.88-6.79,8.82-15.42,8.82-25.88s-2.94-19.08-8.82-25.88c-5.88-6.64-13.51-9.96-22.9-9.96-8.86,0-16.26,3.36-22.22,10.08-5.88,6.8-8.82,15.19-8.82,25.19Z"/>
      <path class="st3" d="M558.88,35.5c0-4.5,1.64-8.4,4.93-11.68,3.28-3.28,7.21-4.92,11.79-4.92s8.63,1.64,11.91,4.92c3.28,3.21,4.92,7.14,4.92,11.79s-1.64,8.63-4.92,11.91c-3.21,3.28-7.14,4.92-11.79,4.92s-8.63-1.64-11.91-4.92c-3.28-3.28-4.93-7.29-4.93-12.02ZM588.54,81.88v111.54h-25.77v-111.54h25.77Z"/>
      <circle class="st4" cx="17.95" cy="36.3" r="17.95"/>
      <circle class="st4" cx="210.55" cy="36.3" r="17.95"/>
      <circle class="st4" cx="576.15" cy="36.3" r="17.95"/>
    </g>
  </g>
  <g class="st2">
    <text class="st1" transform="translate(.03 340.69)"><tspan x="0" y="0" xml:space="preserve">DRIVING PASSION  PURPOSE  EXPERINCES</tspan></text>
  </g>
  <circle class="st0" cx="611.98" cy="317.34" r="9.34"/>
  <circle class="st0" cx="957.04" cy="317.34" r="9.34"/>
</svg>