<?xml version="1.0" encoding="UTF-8"?>
<svg id="Layer_1" xmlns="http://www.w3.org/2000/svg" version="1.1" viewBox="0 0 41.87 118">
  <!-- Generator: Adobe Illustrator 29.6.1, SVG Export Plug-In . SVG Version: 2.1.1 Build 9)  -->
  <defs>
    <style>
      .st0 {
        fill: none;
      }

      .st1 {
        fill: #1e4bff;
        fill-rule: evenodd;
      }

      .st2 {
        fill: #fff;
      }
    </style>
  </defs>
  <rect class="st0" width="41.87" height="118"/>
  <g>
    <rect class="st2" x="0" y="41.17" width="41.87" height="76.83"/>
    <g>
      <g>
        <path d="M29.32,70.01l-6.56-9.53-.74-1.08-4.69-6.82-.39-.57h-5.77l1.41,2.04,6.24,9.07.74,1.08,5.01,7.29.39.56h5.77l-1.41-2.04ZM25.64,70.75l-5.21-7.57-.74-1.08-6.05-8.78h2.6l4.89,7.1.74,1.08,6.37,9.25h-2.6Z"/>
        <polygon points="19.69 62.1 20.43 63.18 19.55 64.2 12.81 72.05 11.14 72.05 18.81 63.12 19.69 62.1"/>
        <polygon points="30.03 52.01 22.76 60.47 21.88 61.5 21.14 60.42 22.02 59.4 26.94 53.66 28.37 52.01 30.03 52.01"/>
      </g>
      <g>
        <path class="st1" d="M29.32,70.01l-6.56-9.53-.74-1.08-4.69-6.82-.39-.57h-5.77l1.41,2.04,6.24,9.07.74,1.08,5.01,7.29.39.56h5.77l-1.41-2.04ZM25.64,70.75l-5.21-7.57-.74-1.08-6.05-8.78h2.6l4.89,7.1.74,1.08,6.37,9.25h-2.6Z"/>
        <polygon class="st1" points="19.69 62.1 20.43 63.18 19.55 64.2 12.81 72.05 11.14 72.05 18.81 63.12 19.69 62.1"/>
        <polygon class="st1" points="30.03 52.01 22.76 60.47 21.88 61.5 21.14 60.42 22.02 59.4 26.94 53.66 28.37 52.01 30.03 52.01"/>
      </g>
    </g>
  </g>
</svg>