<?xml version="1.0" encoding="UTF-8"?>
<svg id="Layer_1" xmlns="http://www.w3.org/2000/svg" version="1.1" viewBox="0 0 41.87 118">
  <!-- Generator: Adobe Illustrator 29.6.1, SVG Export Plug-In . SVG Version: 2.1.1 Build 9)  -->
  <defs>
    <style>
      .st0 {
        fill: none;
      }

      .st1 {
        fill: #1e4bff;
        fill-rule: evenodd;
      }

      .st2 {
        fill: #fff;
      }
    </style>
  </defs>
  <g>
    <rect class="st2" y="41.17" width="41.87" height="76.83"/>
    <g>
      <g>
        <path d="M10.41,57.54h4.52v14.5h-4.52v-14.5ZM12.67,50.33c1.44,0,2.61,1.17,2.61,2.61s-1.17,2.62-2.61,2.62-2.62-1.17-2.62-2.62,1.17-2.61,2.62-2.61"/>
        <path d="M17.76,57.54h4.32v1.98h.06c.6-1.14,2.07-2.34,4.27-2.34,4.56,0,5.41,3,5.41,6.91v7.96h-4.51v-7.05c0-1.68-.03-3.85-2.34-3.85s-2.7,1.83-2.7,3.72v7.17h-4.51v-14.5Z"/>
      </g>
      <g>
        <path class="st1" d="M10.41,57.54h4.52v14.5h-4.52v-14.5ZM12.67,50.33c1.44,0,2.61,1.17,2.61,2.61s-1.17,2.62-2.61,2.62-2.62-1.17-2.62-2.62,1.17-2.61,2.62-2.61"/>
        <path class="st1" d="M17.76,57.54h4.32v1.98h.06c.6-1.14,2.07-2.34,4.27-2.34,4.56,0,5.41,3,5.41,6.91v7.96h-4.51v-7.05c0-1.68-.03-3.85-2.34-3.85s-2.7,1.83-2.7,3.72v7.17h-4.51v-14.5Z"/>
      </g>
    </g>
  </g>
  <rect class="st0" width="41.87" height="118"/>
</svg>