<?xml version="1.0" encoding="UTF-8"?>
<svg id="Layer_1" xmlns="http://www.w3.org/2000/svg" version="1.1" viewBox="0 0 41.87 118">
  <!-- Generator: Adobe Illustrator 29.6.1, SVG Export Plug-In . SVG Version: 2.1.1 Build 9)  -->
  <defs>
    <style>
      .st0 {
        fill: none;
      }

      .st1 {
        fill: #1e4bff;
      }

      .st1, .st2 {
        fill-rule: evenodd;
      }

      .st3 {
        fill: #fff;
      }
    </style>
  </defs>
  <rect class="st0" width="41.87" height="118"/>
  <g>
    <rect class="st3" x="0" y="41.17" width="41.87" height="76.83"/>
    <g>
      <path class="st2" d="M11.29,70.12c-.92-.3-1.53-.9-1.86-1.81-.81-2.22-1.05-11.5.51-13.33.53-.62,1.21-.99,2.03-1.08,4.19-.45,17.13-.39,18.62.15.87.31,1.49.89,1.83,1.76.88,2.29.91,10.64-.12,12.85-.28.6-.73,1.02-1.31,1.33-1.56.82-17.64.81-19.69.13ZM17.94,65.77c2.52-1.31,5.01-2.6,7.54-3.91-2.53-1.32-5.03-2.62-7.54-3.94v7.85Z"/>
      <path class="st1" d="M11.29,70.12c-.92-.3-1.53-.9-1.86-1.81-.81-2.22-1.05-11.5.51-13.33.53-.62,1.21-.99,2.03-1.08,4.19-.45,17.13-.39,18.62.15.87.31,1.49.89,1.83,1.76.88,2.29.91,10.64-.12,12.85-.28.6-.73,1.02-1.31,1.33-1.56.82-17.64.81-19.69.13ZM17.94,65.77c2.52-1.31,5.01-2.6,7.54-3.91-2.53-1.32-5.03-2.62-7.54-3.94v7.85Z"/>
    </g>
  </g>
</svg>