<?xml version="1.0" encoding="UTF-8"?>
<svg id="Layer_1" xmlns="http://www.w3.org/2000/svg" version="1.1" viewBox="0 0 41.87 118">
  <!-- Generator: Adobe Illustrator 29.6.1, SVG Export Plug-In . SVG Version: 2.1.1 Build 9)  -->
  <defs>
    <style>
      .st0 {
        fill: none;
      }

      .st1 {
        fill: #1e4bff;
        fill-rule: evenodd;
      }

      .st2 {
        fill: #fff;
      }
    </style>
  </defs>
  <rect class="st0" width="41.87" height="118"/>
  <g>
    <rect class="st2" x="0" width="41.87" height="90.61"/>
    <g>
      <path d="M33.02,55.91c-.17-1.62-.78-3.05-1.99-4.19-1.26-1.21-2.81-1.74-4.5-1.83-2.89-.16-9.74-.26-12.15.14-2.75.45-4.55,2.05-5.31,4.77-.59,2.09-.47,11.72-.13,13.79.47,2.82,2.14,4.64,4.93,5.36,1.94.5,11.46.44,13.6.09,2.83-.46,4.65-2.12,5.38-4.91.56-2.15.37-11.27.17-13.21ZM30.76,68.19c-.33,2.15-1.75,3.47-3.91,3.71-1.98.22-10.83.34-12.67-.18-1.76-.49-2.76-1.7-3.06-3.47-.28-1.69-.35-10.13,0-12.39.32-2.13,1.75-3.45,3.89-3.69,2.18-.24,10.01-.27,12.09.05,2.14.33,3.47,1.76,3.7,3.92.22,2.02.28,9.89-.05,12.06ZM20.94,55.73c-3.48,0-6.3,2.82-6.3,6.29,0,3.48,2.82,6.3,6.29,6.3,3.48,0,6.3-2.82,6.3-6.29,0-3.48-2.82-6.3-6.29-6.3ZM20.89,66.1c-2.25-.02-4.06-1.86-4.04-4.11.02-2.25,1.86-4.06,4.11-4.04,2.25.02,4.06,1.86,4.04,4.11-.02,2.25-1.86,4.06-4.11,4.04ZM28.95,55.5c0,.81-.66,1.47-1.48,1.47-.81,0-1.47-.66-1.47-1.48,0-.81.66-1.47,1.48-1.47.81,0,1.47.66,1.47,1.48Z"/>
      <path class="st1" d="M33.02,55.91c-.17-1.62-.78-3.05-1.99-4.19-1.26-1.21-2.81-1.74-4.5-1.83-2.89-.16-9.74-.26-12.15.14-2.75.45-4.55,2.05-5.31,4.77-.59,2.09-.47,11.72-.13,13.79.47,2.82,2.14,4.64,4.93,5.36,1.94.5,11.46.44,13.6.09,2.83-.46,4.65-2.12,5.38-4.91.56-2.15.37-11.27.17-13.21ZM30.76,68.19c-.33,2.15-1.75,3.47-3.91,3.71-1.98.22-10.83.34-12.67-.18-1.76-.49-2.76-1.7-3.06-3.47-.28-1.69-.35-10.13,0-12.39.32-2.13,1.75-3.45,3.89-3.69,2.18-.24,10.01-.27,12.09.05,2.14.33,3.47,1.76,3.7,3.92.22,2.02.28,9.89-.05,12.06ZM20.94,55.73c-3.48,0-6.3,2.82-6.3,6.29,0,3.48,2.82,6.3,6.29,6.3,3.48,0,6.3-2.82,6.3-6.29,0-3.48-2.82-6.3-6.29-6.3ZM20.89,66.1c-2.25-.02-4.06-1.86-4.04-4.11.02-2.25,1.86-4.06,4.11-4.04,2.25.02,4.06,1.86,4.04,4.11-.02,2.25-1.86,4.06-4.11,4.04ZM28.95,55.5c0,.81-.66,1.47-1.48,1.47-.81,0-1.47-.66-1.47-1.48,0-.81.66-1.47,1.48-1.47.81,0,1.47.66,1.47,1.48Z"/>
    </g>
  </g>
</svg>