<?xml version="1.0" encoding="UTF-8"?>
<svg id="Layer_1" xmlns="http://www.w3.org/2000/svg" version="1.1" viewBox="0 0 41.87 118">
  <!-- Generator: Adobe Illustrator 29.6.1, SVG Export Plug-In . SVG Version: 2.1.1 Build 9)  -->
  <defs>
    <style>
      .st0 {
        fill: none;
      }

      .st1 {
        fill: #1e4bff;
      }

      .st1, .st2 {
        fill-rule: evenodd;
      }

      .st3 {
        fill: #fff;
      }
    </style>
  </defs>
  <rect class="st0" width="41.87" height="118"/>
  <g>
    <rect class="st3" x="0" width="41.87" height="90.61"/>
    <g>
      <path class="st2" d="M25.48,53.38c.91-.03,1.81,0,2.72,0h.37v-4.72c-.49-.05-.99-.12-1.5-.14-.93-.04-1.86-.09-2.8-.07-1.42.03-2.77.38-3.95,1.22-1.35.97-2.09,2.33-2.37,3.94-.12.66-.15,1.35-.16,2.03-.03,1.06,0,2.12,0,3.18v.4h-4.52v5.27h4.49v13.26h5.49v-13.24h4.48c.23-1.75.45-3.49.69-5.3-.36,0-.68,0-1.01,0-1.27,0-4.2,0-4.2,0,0,0,.01-2.61.04-3.75.04-1.55.97-2.03,2.21-2.07Z"/>
      <path class="st1" d="M25.48,53.38c.91-.03,1.81,0,2.72,0h.37v-4.72c-.49-.05-.99-.12-1.5-.14-.93-.04-1.86-.09-2.8-.07-1.42.03-2.77.38-3.95,1.22-1.35.97-2.09,2.33-2.37,3.94-.12.66-.15,1.35-.16,2.03-.03,1.06,0,2.12,0,3.18v.4h-4.52v5.27h4.49v13.26h5.49v-13.24h4.48c.23-1.75.45-3.49.69-5.3-.36,0-.68,0-1.01,0-1.27,0-4.2,0-4.2,0,0,0,.01-2.61.04-3.75.04-1.55.97-2.03,2.21-2.07Z"/>
    </g>
  </g>
</svg>