<?xml version="1.0" encoding="UTF-8"?>
<svg id="Layer_1" xmlns="http://www.w3.org/2000/svg" version="1.1" viewBox="0 0 1.33 1.33">
  <!-- Generator: Adobe Illustrator 29.6.1, SVG Export Plug-In . SVG Version: 2.1.1 Build 9)  -->
  <defs>
    <style>
      .st0 {
        fill-rule: evenodd;
      }
    </style>
  </defs>
  <path class="st0" d="M.67,0c.18,0,.35.07.47.19.12.12.19.29.19.47s-.07.35-.19.47c-.12.12-.29.19-.47.19s-.35-.07-.47-.19C.07,1.02,0,.85,0,.67S.07.32.19.19C.32.07.48,0,.67,0ZM1.1.23c-.11-.11-.27-.18-.43-.18S.34.12.23.23C.12.34.05.5.05.67s.07.32.18.43c.11.11.27.18.44.18s.32-.07.43-.18c.11-.11.18-.27.18-.43s-.07-.32-.18-.44Z"/>
  <path d="M.28.51s0-.01.02-.02h.15s.22-.21.22-.21c.02-.01.04,0,.04.02v.72s-.02.03-.04.02l-.22-.21h-.15s-.02,0-.02-.02v-.31ZM.67.98V.35l-.18.17s-.01.01-.02.01h-.14v.26h.14s.01,0,.02.01l.18.17Z"/>
  <path class="st0" d="M.8.59s-.04,0-.05-.01c0-.02,0-.04.01-.05l.2-.12s.04,0,.05.01c0,.02,0,.04-.01.05,0,0-.2.12-.2.12Z"/>
  <path class="st0" d="M.77.75s-.02-.03-.01-.05c0-.02.03-.02.05-.01l.2.12s.02.03.01.05c0,.02-.03.02-.05.01,0,0-.2-.12-.2-.12Z"/>
</svg>