<?xml version="1.0" encoding="UTF-8"?>
<svg id="Layer_1" xmlns="http://www.w3.org/2000/svg" version="1.1" viewBox="0 0 1.27 1.27">
  <!-- Generator: Adobe Illustrator 29.6.1, SVG Export Plug-In . SVG Version: 2.1.1 Build 9)  -->
  <defs>
    <style>
      .st0 {
        fill-rule: evenodd;
      }
    </style>
  </defs>
  <path class="st0" d="M.64,0c.18,0,.33.07.45.19.12.11.19.27.19.45s-.07.33-.19.45c-.12.12-.27.19-.45.19s-.34-.07-.45-.19C.07.97,0,.81,0,.64S.07.3.19.19C.3.07.46,0,.64,0ZM1.05.22c-.11-.11-.25-.17-.41-.17S.33.11.22.22C.11.33.05.47.05.64s.07.31.17.41c.11.11.25.17.42.17s.31-.07.41-.17c.11-.11.17-.25.17-.41s-.07-.31-.17-.42Z"/>
  <g>
    <path d="M.27.49s0-.01.02-.02h.15s.21-.2.21-.2c.02-.01.04,0,.04.02v.68s-.02.03-.04.02l-.21-.2h-.15s-.01,0-.02-.02v-.3ZM.64.93V.34l-.17.16s-.01.01-.02.01h-.14v.25h.14s.01,0,.02.01l.17.16Z"/>
    <path d="M.84.88s.02-.04.03-.05c.12-.1.12-.28,0-.38-.01-.01-.04-.02-.03-.05,0-.01.02,0,.04,0,.17.1.17.37,0,.47-.01,0-.02.01-.03,0Z"/>
    <path d="M.77.53s.04.02.04.03c.03.04.03.09,0,.13,0,.02-.04.06-.06.04-.02-.02,0-.03.02-.04.02-.03.02-.08,0-.1,0-.01-.02-.02-.02-.03,0,0,0-.01.02-.02Z"/>
  </g>
</svg>