<?xml version="1.0" encoding="UTF-8"?>
<svg id="Layer_1" xmlns="http://www.w3.org/2000/svg" version="1.1" viewBox="0 0 720 450">
  <!-- Generator: Adobe Illustrator 29.6.1, SVG Export Plug-In . SVG Version: 2.1.1 Build 9)  -->
  <defs>
    <style>
      .st0, .st1 {
        fill: none;
      }

      .st2 {
        fill: #001696;
        font-family: BarlowCondensed-Regular, 'Barlow Condensed';
        font-size: 162px;
        letter-spacing: .12em;
      }

      .st3 {
        fill: #01a;
      }

      .st4 {
        font-family: BarlowCondensed-Medium, 'Barlow Condensed';
        font-size: 73.6px;
        font-weight: 500;
        letter-spacing: .02em;
      }

      .st4, .st5 {
        fill: #32c5f4;
      }

      .st6 {
        fill: #fff;
      }

      .st1 {
        stroke: #32c5f4;
        stroke-miterlimit: 10;
      }
    </style>
  </defs>
  <rect class="st3" width="720" height="450"/>
  <g>
    <g>
      <path class="st6" d="M524.15,158.27c.09.09.14.2.14.33v3.78c0,.13-.05.24-.14.33s-.2.14-.33.14h-4.88c-.13,0-.19.07-.19.2v21.92c0,.13-.05.24-.14.33s-.2.14-.33.14h-4.56c-.13,0-.24-.04-.33-.14-.09-.09-.14-.2-.14-.33v-21.92c0-.13-.07-.2-.2-.2h-4.68c-.13,0-.24-.04-.33-.14-.09-.09-.14-.2-.14-.33v-3.78c0-.13.05-.24.14-.33s.2-.14.33-.14h15.44c.13,0,.24.05.33.14Z"/>
      <path class="st6" d="M535.75,185l-.62-3.74c0-.13-.08-.2-.23-.2h-4.95c-.16,0-.23.07-.23.2l-.62,3.74c-.03.29-.2.43-.51.43h-4.56c-.34,0-.47-.17-.39-.51l5.73-26.36c.05-.29.22-.43.51-.43h5.26c.29,0,.46.14.51.43l5.69,26.36.04.16c0,.23-.14.35-.43.35h-4.68c-.31,0-.48-.14-.51-.43ZM530.64,176.81h3.51c.13,0,.18-.06.16-.2l-1.83-10.65c-.03-.08-.07-.12-.12-.12s-.09.04-.12.12l-1.75,10.65c0,.13.05.2.16.2Z"/>
      <path class="st6" d="M543.73,185.29c-.09-.09-.14-.2-.14-.33v-26.36c0-.13.04-.24.14-.33.09-.09.2-.14.33-.14h4.56c.13,0,.24.05.33.14s.14.2.14.33v9.83c0,.1.03.16.1.18.06.01.11-.03.14-.14l5.03-9.98c.13-.23.31-.35.55-.35h4.84c.18,0,.3.05.37.14.06.09.06.23-.02.41l-5.77,11.23c-.03.1-.04.18-.04.23l6.12,14.74c.03.05.04.13.04.23,0,.21-.13.31-.39.31h-4.88c-.29,0-.47-.12-.55-.35l-4.06-10.22c-.03-.08-.07-.11-.12-.1-.05.01-.1.04-.16.1l-1.13,2.03c-.05.1-.08.18-.08.23v7.84c0,.13-.05.24-.14.33-.09.09-.2.14-.33.14h-4.56c-.13,0-.24-.04-.33-.14Z"/>
      <path class="st6" d="M562.87,185.29c-.09-.09-.14-.2-.14-.33v-26.36c0-.13.04-.24.14-.33.09-.09.2-.14.33-.14h4.56c.13,0,.24.05.33.14s.14.2.14.33v26.36c0,.13-.05.24-.14.33-.09.09-.2.14-.33.14h-4.56c-.13,0-.24-.04-.33-.14Z"/>
      <path class="st6" d="M583,158.27c.09-.09.2-.14.33-.14h4.52c.13,0,.24.05.33.14s.14.2.14.33v26.36c0,.13-.05.24-.14.33-.09.09-.2.14-.33.14h-5.15c-.26,0-.43-.13-.51-.39l-4.84-15.09c-.03-.08-.07-.11-.14-.1-.07.01-.1.06-.1.14l.04,14.98c0,.13-.05.24-.14.33-.09.09-.2.14-.33.14h-4.52c-.13,0-.24-.04-.33-.14-.09-.09-.14-.2-.14-.33v-26.36c0-.13.04-.24.14-.33.09-.09.2-.14.33-.14h5.11c.26,0,.43.13.51.39l4.88,15.09c.03.08.07.11.14.1.06-.01.1-.06.1-.14l-.04-14.98c0-.13.04-.24.14-.33Z"/>
      <path class="st6" d="M593.49,183.73c-1.42-1.34-2.12-3.13-2.12-5.36v-13.18c0-2.24.71-4.02,2.12-5.36,1.42-1.34,3.3-2.01,5.64-2.01s4.22.68,5.66,2.03c1.43,1.35,2.14,3.15,2.14,5.38v1.48c0,.13-.05.24-.14.33-.09.09-.2.14-.33.14h-4.56c-.13,0-.24-.04-.33-.14-.09-.09-.14-.2-.14-.33v-1.56c0-.78-.21-1.41-.62-1.89-.42-.48-.97-.72-1.68-.72s-1.22.24-1.64.72c-.42.48-.62,1.11-.62,1.89v13.26c0,.78.21,1.41.62,1.89.42.48.96.72,1.64.72s1.26-.24,1.68-.72c.42-.48.62-1.11.62-1.89v-3.12c0-.13-.06-.2-.19-.2h-1.72c-.13,0-.24-.04-.33-.14-.09-.09-.14-.2-.14-.33v-3.47c0-.13.04-.24.14-.33s.2-.14.33-.14h6.94c.13,0,.24.05.33.14.09.09.14.2.14.33v7.22c0,2.24-.71,4.02-2.14,5.36-1.43,1.34-3.32,2.01-5.66,2.01s-4.22-.67-5.64-2.01Z"/>
      <path class="st6" d="M359.77,230.53c-1.42-1.34-2.13-3.13-2.13-5.36v-13.18c0-2.24.71-4.02,2.13-5.36,1.42-1.34,3.3-2.01,5.64-2.01s4.22.68,5.66,2.03c1.43,1.35,2.14,3.15,2.14,5.38v1.48c0,.13-.05.24-.14.33-.09.09-.2.14-.33.14h-4.56c-.13,0-.24-.04-.33-.14-.09-.09-.14-.2-.14-.33v-1.56c0-.78-.21-1.41-.62-1.89-.42-.48-.97-.72-1.68-.72s-1.22.24-1.64.72c-.42.48-.62,1.11-.62,1.89v13.26c0,.78.21,1.41.62,1.89.42.48.96.72,1.64.72s1.26-.24,1.68-.72c.42-.48.62-1.11.62-1.89v-3.12c0-.13-.07-.2-.2-.2h-1.72c-.13,0-.24-.04-.33-.14-.09-.09-.14-.2-.14-.33v-3.47c0-.13.04-.24.14-.33s.2-.14.33-.14h6.94c.13,0,.24.05.33.14.09.09.14.2.14.33v7.22c0,2.24-.72,4.02-2.14,5.36-1.43,1.34-3.32,2.01-5.66,2.01s-4.22-.67-5.64-2.01Z"/>
      <path class="st6" d="M378,230.44c-1.43-1.4-2.14-3.28-2.14-5.62v-12.48c0-2.34.71-4.21,2.14-5.62s3.34-2.11,5.73-2.11,4.31.7,5.75,2.11c1.44,1.4,2.17,3.28,2.17,5.62v12.48c0,2.34-.72,4.21-2.17,5.62-1.44,1.4-3.36,2.11-5.75,2.11s-4.3-.7-5.73-2.11ZM385.49,227.06c.44-.51.66-1.18.66-2.01v-12.95c0-.83-.22-1.5-.66-2.01-.44-.51-1.03-.76-1.75-.76s-1.31.25-1.74.76c-.43.51-.64,1.18-.64,2.01v12.95c0,.83.21,1.5.64,2.01.43.51,1.01.76,1.74.76s1.31-.25,1.75-.76Z"/>
      <path class="st6" d="M396.45,230.44c-1.43-1.4-2.15-3.28-2.15-5.62v-12.48c0-2.34.71-4.21,2.15-5.62,1.43-1.4,3.34-2.11,5.73-2.11s4.31.7,5.75,2.11c1.44,1.4,2.16,3.28,2.16,5.62v12.48c0,2.34-.72,4.21-2.16,5.62-1.44,1.4-3.36,2.11-5.75,2.11s-4.3-.7-5.73-2.11ZM403.93,227.06c.44-.51.66-1.18.66-2.01v-12.95c0-.83-.22-1.5-.66-2.01s-1.03-.76-1.75-.76-1.31.25-1.74.76-.64,1.18-.64,2.01v12.95c0,.83.21,1.5.64,2.01.43.51,1.01.76,1.74.76s1.31-.25,1.75-.76Z"/>
      <path class="st6" d="M413.27,232.09c-.09-.09-.14-.2-.14-.33v-26.36c0-.13.04-.24.14-.33.09-.09.2-.14.33-.14h7.06c2.37,0,4.26.69,5.69,2.07,1.43,1.38,2.15,3.21,2.15,5.5v12.17c0,2.29-.72,4.12-2.15,5.5-1.43,1.38-3.33,2.07-5.69,2.07h-7.06c-.13,0-.24-.04-.33-.14ZM418.83,227.51l1.75-.04c.7-.03,1.27-.33,1.72-.9.44-.57.68-1.33.7-2.26v-11.47c0-.99-.22-1.77-.66-2.34-.44-.57-1.04-.86-1.79-.86h-1.72c-.13,0-.2.07-.2.2v17.47c0,.13.06.2.2.2Z"/>
      <path class="st6" d="M453.68,209.51c-.09.09-.2.14-.33.14h-8.15c-.13,0-.2.07-.2.2v6.16c0,.13.07.19.2.19h4.68c.13,0,.24.05.33.14.09.09.14.2.14.33v3.78c0,.13-.05.24-.14.33-.09.09-.2.14-.33.14h-4.68c-.13,0-.2.06-.2.19v6.2c0,.13.07.2.2.2h8.15c.13,0,.24.05.33.14s.14.2.14.33v3.78c0,.13-.05.24-.14.33-.09.09-.2.14-.33.14h-13.38c-.13,0-.24-.04-.33-.14-.09-.09-.14-.2-.14-.33v-26.36c0-.13.05-.24.14-.33s.2-.14.33-.14h13.38c.13,0,.24.05.33.14s.14.2.14.33v3.78c0,.13-.05.24-.14.33Z"/>
      <path class="st6" d="M455.88,232.07c-.05-.1-.05-.23,0-.39l5.3-12.99c.03-.08.03-.16,0-.23l-5.3-12.99c-.03-.05-.04-.13-.04-.23,0-.21.13-.31.39-.31h4.68c.26,0,.43.13.51.39l2.61,7.49c.03.08.06.12.12.12s.09-.04.12-.12l2.61-7.49c.08-.26.25-.39.51-.39h4.64c.18,0,.3.05.35.16.05.1.05.23,0,.39l-5.3,12.99c-.03.08-.03.16,0,.23l5.3,12.99c.03.05.04.13.04.23,0,.21-.13.31-.39.31h-4.64c-.26,0-.43-.13-.51-.39l-2.61-7.45c-.03-.08-.06-.12-.12-.12s-.09.04-.12.12l-2.65,7.45c-.08.26-.25.39-.51.39h-4.64c-.18,0-.3-.05-.35-.16Z"/>
      <path class="st6" d="M487.24,205.94c1.12.7,1.98,1.68,2.59,2.94.61,1.26.92,2.7.92,4.31,0,2.42-.65,4.36-1.95,5.81-1.3,1.46-3,2.18-5.11,2.18h-2.92c-.13,0-.2.07-.2.2v10.37c0,.13-.05.24-.14.33-.09.09-.2.14-.33.14h-4.56c-.13,0-.24-.04-.33-.14-.09-.09-.14-.2-.14-.33v-26.4c0-.13.04-.24.14-.33.09-.09.2-.14.33-.14h7.88c1.43,0,2.7.35,3.82,1.05ZM484.49,215.95c.51-.64.76-1.51.76-2.63s-.25-2.04-.76-2.69c-.51-.65-1.18-.97-2.01-.97h-1.72c-.13,0-.2.07-.2.2v6.86c0,.13.06.2.2.2h1.72c.83,0,1.5-.32,2.01-.96Z"/>
      <path class="st6" d="M507.42,209.51c-.09.09-.2.14-.33.14h-8.15c-.13,0-.2.07-.2.2v6.16c0,.13.06.19.2.19h4.68c.13,0,.24.05.33.14.09.09.14.2.14.33v3.78c0,.13-.04.24-.14.33-.09.09-.2.14-.33.14h-4.68c-.13,0-.2.06-.2.19v6.2c0,.13.06.2.2.2h8.15c.13,0,.24.05.33.14.09.09.14.2.14.33v3.78c0,.13-.05.24-.14.33s-.2.14-.33.14h-13.38c-.13,0-.24-.04-.33-.14-.09-.09-.14-.2-.14-.33v-26.36c0-.13.04-.24.14-.33.09-.09.2-.14.33-.14h13.38c.13,0,.24.05.33.14.09.09.14.2.14.33v3.78c0,.13-.05.24-.14.33Z"/>
      <path class="st6" d="M520.54,231.84l-3-10.76c-.05-.1-.12-.16-.19-.16h-1.33c-.13,0-.2.06-.2.19v10.65c0,.13-.05.24-.14.33-.09.09-.2.14-.33.14h-4.56c-.13,0-.24-.04-.33-.14-.09-.09-.14-.2-.14-.33v-26.36c0-.13.04-.24.14-.33.09-.09.2-.14.33-.14h7.88c1.43,0,2.7.34,3.82,1.03,1.12.69,1.98,1.66,2.59,2.91.61,1.25.92,2.68.92,4.29s-.29,2.89-.88,4.06-1.4,2.08-2.44,2.73c-.05.03-.09.06-.12.1-.03.04-.03.08,0,.14l3.59,11.5.04.16c0,.26-.14.39-.43.39h-4.68c-.29,0-.47-.13-.55-.39ZM515.82,209.84v6.67c0,.13.06.19.2.19h1.75c.81,0,1.46-.32,1.97-.96.51-.64.76-1.49.76-2.55s-.25-1.96-.76-2.59c-.51-.64-1.16-.96-1.97-.96h-1.75c-.13,0-.2.07-.2.2Z"/>
      <path class="st6" d="M528.83,232.09c-.09-.09-.14-.2-.14-.33v-26.36c0-.13.04-.24.14-.33.09-.09.2-.14.33-.14h4.56c.13,0,.24.05.33.14s.14.2.14.33v26.36c0,.13-.05.24-.14.33-.09.09-.2.14-.33.14h-4.56c-.13,0-.24-.04-.33-.14Z"/>
      <path class="st6" d="M551.84,209.51c-.09.09-.2.14-.33.14h-8.15c-.13,0-.2.07-.2.2v6.16c0,.13.06.19.2.19h4.68c.13,0,.24.05.33.14.09.09.14.2.14.33v3.78c0,.13-.04.24-.14.33-.09.09-.2.14-.33.14h-4.68c-.13,0-.2.06-.2.19v6.2c0,.13.06.2.2.2h8.15c.13,0,.24.05.33.14.09.09.14.2.14.33v3.78c0,.13-.05.24-.14.33s-.2.14-.33.14h-13.38c-.13,0-.24-.04-.33-.14-.09-.09-.14-.2-.14-.33v-26.36c0-.13.04-.24.14-.33.09-.09.2-.14.33-.14h13.38c.13,0,.24.05.33.14.09.09.14.2.14.33v3.78c0,.13-.05.24-.14.33Z"/>
      <path class="st6" d="M566.03,205.07c.09-.09.2-.14.33-.14h4.52c.13,0,.24.05.33.14s.14.2.14.33v26.36c0,.13-.05.24-.14.33-.09.09-.2.14-.33.14h-5.15c-.26,0-.43-.13-.51-.39l-4.84-15.09c-.03-.08-.07-.11-.14-.1-.07.01-.1.06-.1.14l.04,14.98c0,.13-.05.24-.14.33-.09.09-.2.14-.33.14h-4.52c-.13,0-.24-.04-.33-.14-.09-.09-.14-.2-.14-.33v-26.36c0-.13.04-.24.14-.33.09-.09.2-.14.33-.14h5.11c.26,0,.43.13.51.39l4.88,15.09c.03.08.07.11.14.1.06-.01.1-.06.1-.14l-.04-14.98c0-.13.04-.24.14-.33Z"/>
      <path class="st6" d="M576.52,230.46c-1.42-1.39-2.12-3.26-2.12-5.6v-12.64c0-2.31.71-4.16,2.12-5.54s3.3-2.07,5.64-2.07,4.26.69,5.67,2.07c1.42,1.38,2.12,3.22,2.12,5.54v.43c0,.13-.05.24-.14.33-.09.09-.2.14-.33.14l-4.56.2c-.31,0-.47-.14-.47-.43v-1.01c0-.75-.21-1.36-.62-1.83-.42-.47-.97-.7-1.68-.7s-1.22.23-1.64.7c-.42.47-.62,1.08-.62,1.83v13.46c0,.75.21,1.36.62,1.81.42.46.96.68,1.64.68s1.26-.23,1.68-.68c.42-.45.62-1.06.62-1.81v-1.05c0-.13.04-.24.14-.33.09-.09.2-.14.33-.14l4.56.2c.13,0,.24.04.33.14.09.09.14.2.14.33v.39c0,2.34-.71,4.21-2.14,5.6-1.43,1.39-3.32,2.09-5.66,2.09s-4.22-.69-5.64-2.09Z"/>
      <path class="st6" d="M607.06,209.51c-.09.09-.2.14-.33.14h-8.15c-.13,0-.2.07-.2.2v6.16c0,.13.06.19.2.19h4.68c.13,0,.24.05.33.14.09.09.14.2.14.33v3.78c0,.13-.04.24-.14.33-.09.09-.2.14-.33.14h-4.68c-.13,0-.2.06-.2.19v6.2c0,.13.06.2.2.2h8.15c.13,0,.24.05.33.14.09.09.14.2.14.33v3.78c0,.13-.05.24-.14.33s-.2.14-.33.14h-13.38c-.13,0-.24-.04-.33-.14-.09-.09-.14-.2-.14-.33v-26.36c0-.13.04-.24.14-.33.09-.09.2-.14.33-.14h13.38c.13,0,.24.05.33.14.09.09.14.2.14.33v3.78c0,.13-.05.24-.14.33Z"/>
      <path class="st6" d="M563.52,278.6l-.62-3.74c0-.13-.08-.2-.23-.2h-4.95c-.16,0-.23.07-.23.2l-.62,3.74c-.03.29-.2.43-.51.43h-4.56c-.34,0-.47-.17-.39-.51l5.73-26.36c.05-.29.22-.43.51-.43h5.26c.29,0,.46.14.51.43l5.69,26.36.04.16c0,.23-.14.35-.43.35h-4.68c-.31,0-.48-.14-.51-.43ZM558.41,270.41h3.51c.13,0,.18-.06.16-.2l-1.83-10.65c-.03-.08-.07-.12-.12-.12s-.09.04-.12.12l-1.75,10.65c0,.13.05.2.16.2Z"/>
      <path class="st6" d="M582.65,251.87c.09-.09.2-.14.33-.14h4.52c.13,0,.24.05.33.14s.14.2.14.33v26.36c0,.13-.05.24-.14.33-.09.09-.2.14-.33.14h-5.15c-.26,0-.43-.13-.51-.39l-4.84-15.09c-.03-.08-.07-.11-.14-.1-.07.01-.1.06-.1.14l.04,14.98c0,.13-.05.24-.14.33-.09.09-.2.14-.33.14h-4.52c-.13,0-.24-.04-.33-.14-.09-.09-.14-.2-.14-.33v-26.36c0-.13.04-.24.14-.33.09-.09.2-.14.33-.14h5.11c.26,0,.43.13.51.39l4.88,15.09c.03.08.07.11.14.1.06-.01.1-.06.1-.14l-.04-14.98c0-.13.04-.24.14-.33Z"/>
      <path class="st6" d="M591.54,278.89c-.09-.09-.14-.2-.14-.33v-26.36c0-.13.04-.24.14-.33.09-.09.2-.14.33-.14h7.06c2.37,0,4.26.69,5.69,2.07,1.43,1.38,2.15,3.21,2.15,5.5v12.17c0,2.29-.72,4.12-2.15,5.5-1.43,1.38-3.33,2.07-5.69,2.07h-7.06c-.13,0-.24-.04-.33-.14ZM597.1,274.31l1.75-.04c.7-.03,1.27-.33,1.72-.9.44-.57.68-1.33.7-2.26v-11.47c0-.99-.22-1.77-.66-2.34-.44-.57-1.04-.86-1.79-.86h-1.72c-.13,0-.2.07-.2.2v17.47c0,.13.06.2.2.2Z"/>
      <path class="st6" d="M344.63,325.69c-.09-.09-.14-.2-.14-.33v-26.36c0-.13.05-.24.14-.33.09-.09.2-.14.33-.14h4.56c.13,0,.24.05.33.14.09.09.14.2.14.33v21.92c0,.13.06.2.2.2h8.19c.13,0,.24.05.33.14.09.09.14.2.14.33v3.78c0,.13-.05.24-.14.33-.09.09-.2.14-.33.14h-13.42c-.13,0-.24-.04-.33-.14Z"/>
      <path class="st6" d="M372.73,325.4l-.62-3.74c0-.13-.08-.2-.23-.2h-4.95c-.16,0-.23.07-.23.2l-.62,3.74c-.03.29-.19.43-.51.43h-4.56c-.34,0-.47-.17-.39-.51l5.73-26.36c.05-.29.22-.43.51-.43h5.26c.29,0,.46.14.51.43l5.69,26.36.04.16c0,.23-.14.35-.43.35h-4.68c-.31,0-.48-.14-.51-.43ZM367.62,317.21h3.51c.13,0,.18-.06.16-.2l-1.83-10.65c-.03-.08-.07-.12-.12-.12s-.09.04-.12.12l-1.75,10.65c0,.13.05.2.16.2Z"/>
      <path class="st6" d="M382.64,325.25c-1.14-.6-2.03-1.44-2.65-2.52-.62-1.08-.94-2.32-.94-3.72v-1.13c0-.13.04-.24.14-.33.09-.09.2-.14.33-.14h4.49c.13,0,.24.05.33.14s.14.2.14.33v.86c0,.81.21,1.46.62,1.95.42.5.94.74,1.56.74s1.14-.23,1.56-.7c.42-.47.62-1.08.62-1.83s-.26-1.45-.78-2.01c-.52-.56-1.53-1.38-3.04-2.48-1.3-.94-2.35-1.77-3.16-2.5-.81-.73-1.5-1.62-2.07-2.69-.57-1.07-.86-2.3-.86-3.71,0-2.21.69-3.98,2.07-5.3,1.38-1.33,3.2-1.99,5.46-1.99s4.13.69,5.52,2.07c1.39,1.38,2.09,3.19,2.09,5.42v.94c0,.13-.05.24-.14.33-.09.09-.2.14-.33.14h-4.49c-.13,0-.24-.04-.33-.14-.09-.09-.14-.2-.14-.33v-1.05c0-.81-.2-1.45-.6-1.93-.4-.48-.93-.72-1.58-.72s-1.13.23-1.52.68c-.39.46-.58,1.09-.58,1.89s.25,1.47.74,2.07c.49.6,1.47,1.43,2.92,2.5,1.61,1.2,2.83,2.16,3.65,2.91s1.46,1.56,1.91,2.46c.45.9.68,1.97.68,3.22,0,2.29-.7,4.11-2.11,5.46-1.4,1.35-3.25,2.03-5.54,2.03-1.51,0-2.83-.3-3.98-.9Z"/>
      <path class="st6" d="M412.14,298.67c.09.09.14.2.14.33v3.78c0,.13-.05.24-.14.33s-.2.14-.33.14h-4.88c-.13,0-.2.07-.2.2v21.92c0,.13-.05.24-.14.33-.09.09-.2.14-.33.14h-4.56c-.13,0-.24-.04-.33-.14-.09-.09-.14-.2-.14-.33v-21.92c0-.13-.07-.2-.2-.2h-4.68c-.13,0-.24-.04-.33-.14-.09-.09-.14-.2-.14-.33v-3.78c0-.13.04-.24.14-.33s.2-.14.33-.14h15.44c.13,0,.24.05.33.14Z"/>
      <path class="st6" d="M415.07,325.69c-.09-.09-.14-.2-.14-.33v-26.36c0-.13.04-.24.14-.33.09-.09.2-.14.33-.14h4.56c.13,0,.24.05.33.14s.14.2.14.33v26.36c0,.13-.05.24-.14.33-.09.09-.2.14-.33.14h-4.56c-.13,0-.24-.04-.33-.14Z"/>
      <path class="st6" d="M435.19,298.67c.09-.09.2-.14.33-.14h4.52c.13,0,.24.05.33.14.09.09.14.2.14.33v26.36c0,.13-.05.24-.14.33s-.2.14-.33.14h-5.15c-.26,0-.43-.13-.51-.39l-4.84-15.09c-.03-.08-.07-.11-.14-.1-.07.01-.1.06-.1.14l.04,14.98c0,.13-.05.24-.14.33-.09.09-.2.14-.33.14h-4.52c-.13,0-.24-.04-.33-.14-.09-.09-.14-.2-.14-.33v-26.36c0-.13.04-.24.14-.33.09-.09.2-.14.33-.14h5.11c.26,0,.43.13.51.39l4.88,15.09c.03.08.07.11.14.1.06-.01.1-.06.1-.14l-.04-14.98c0-.13.04-.24.14-.33Z"/>
      <path class="st6" d="M445.68,324.13c-1.42-1.34-2.12-3.13-2.12-5.36v-13.18c0-2.24.71-4.02,2.12-5.36,1.42-1.34,3.3-2.01,5.64-2.01s4.22.68,5.66,2.03c1.43,1.35,2.14,3.15,2.14,5.38v1.48c0,.13-.05.24-.14.33-.09.09-.2.14-.33.14h-4.56c-.13,0-.24-.04-.33-.14-.09-.09-.14-.2-.14-.33v-1.56c0-.78-.21-1.41-.62-1.89-.42-.48-.97-.72-1.68-.72s-1.22.24-1.64.72c-.42.48-.62,1.11-.62,1.89v13.26c0,.78.21,1.41.62,1.89.42.48.96.72,1.64.72s1.26-.24,1.68-.72c.42-.48.62-1.11.62-1.89v-3.12c0-.13-.07-.2-.2-.2h-1.72c-.13,0-.24-.04-.33-.14-.09-.09-.14-.2-.14-.33v-3.47c0-.13.04-.24.14-.33s.2-.14.33-.14h6.94c.13,0,.24.05.33.14.09.09.14.2.14.33v7.22c0,2.24-.72,4.02-2.14,5.36-1.43,1.34-3.32,2.01-5.66,2.01s-4.22-.67-5.64-2.01Z"/>
      <path class="st6" d="M483.02,298.53h4.52c.13,0,.24.05.33.14.09.09.14.2.14.33v26.36c0,.13-.05.24-.14.33s-.2.14-.33.14h-4.56c-.13,0-.24-.04-.33-.14-.09-.09-.14-.2-.14-.33v-17.51c0-.1-.03-.16-.08-.16s-.1.04-.16.12l-3.04,5.38c-.13.21-.23.31-.31.31s-.18-.1-.31-.31l-3.04-5.38c-.05-.08-.1-.12-.16-.12s-.08.05-.08.16v17.51c0,.13-.04.24-.14.33s-.2.14-.33.14h-4.56c-.13,0-.24-.04-.33-.14-.09-.09-.14-.2-.14-.33v-26.36c0-.13.05-.24.14-.33s.2-.14.33-.14h4.48c.26,0,.46.1.58.31l3.47,6.2c.08.1.16.1.23,0l3.35-6.2c.1-.21.3-.31.58-.31Z"/>
      <path class="st6" d="M505.51,303.11c-.09.09-.2.14-.33.14h-8.15c-.13,0-.2.07-.2.2v6.16c0,.13.06.19.2.19h4.68c.13,0,.24.05.33.14.09.09.14.2.14.33v3.78c0,.13-.04.24-.14.33-.09.09-.2.14-.33.14h-4.68c-.13,0-.2.06-.2.19v6.2c0,.13.06.2.2.2h8.15c.13,0,.24.05.33.14.09.09.14.2.14.33v3.78c0,.13-.05.24-.14.33s-.2.14-.33.14h-13.38c-.13,0-.24-.04-.33-.14-.09-.09-.14-.2-.14-.33v-26.36c0-.13.04-.24.14-.33.09-.09.2-.14.33-.14h13.38c.13,0,.24.05.33.14.09.09.14.2.14.33v3.78c0,.13-.05.24-.14.33Z"/>
      <path class="st6" d="M521.48,298.53h4.52c.13,0,.24.05.33.14.09.09.14.2.14.33v26.36c0,.13-.05.24-.14.33s-.2.14-.33.14h-4.56c-.13,0-.24-.04-.33-.14-.09-.09-.14-.2-.14-.33v-17.51c0-.1-.03-.16-.08-.16s-.1.04-.16.12l-3.04,5.38c-.13.21-.23.31-.31.31s-.18-.1-.31-.31l-3.04-5.38c-.05-.08-.1-.12-.16-.12s-.08.05-.08.16v17.51c0,.13-.04.24-.14.33s-.2.14-.33.14h-4.56c-.13,0-.24-.04-.33-.14-.09-.09-.14-.2-.14-.33v-26.36c0-.13.05-.24.14-.33s.2-.14.33-.14h4.48c.26,0,.46.1.58.31l3.47,6.2c.08.1.16.1.23,0l3.35-6.2c.1-.21.3-.31.58-.31Z"/>
      <path class="st6" d="M531.54,324.04c-1.43-1.4-2.14-3.28-2.14-5.62v-12.48c0-2.34.71-4.21,2.14-5.62s3.34-2.11,5.73-2.11,4.31.7,5.75,2.11c1.44,1.4,2.17,3.28,2.17,5.62v12.48c0,2.34-.72,4.21-2.17,5.62-1.44,1.4-3.36,2.11-5.75,2.11s-4.3-.7-5.73-2.11ZM539.03,320.66c.44-.51.66-1.18.66-2.01v-12.95c0-.83-.22-1.5-.66-2.01-.44-.51-1.03-.76-1.75-.76s-1.31.25-1.74.76c-.43.51-.64,1.18-.64,2.01v12.95c0,.83.21,1.5.64,2.01.43.51,1.01.76,1.74.76s1.31-.25,1.75-.76Z"/>
      <path class="st6" d="M558.45,325.44l-3-10.76c-.05-.1-.12-.16-.19-.16h-1.33c-.13,0-.2.06-.2.19v10.65c0,.13-.05.24-.14.33-.09.09-.2.14-.33.14h-4.56c-.13,0-.24-.04-.33-.14-.09-.09-.14-.2-.14-.33v-26.36c0-.13.04-.24.14-.33.09-.09.2-.14.33-.14h7.88c1.43,0,2.7.34,3.82,1.03,1.12.69,1.98,1.66,2.59,2.91.61,1.25.92,2.68.92,4.29s-.29,2.89-.88,4.06-1.4,2.08-2.44,2.73c-.05.03-.09.06-.12.1-.03.04-.03.08,0,.14l3.59,11.5.04.16c0,.26-.14.39-.43.39h-4.68c-.29,0-.47-.13-.55-.39ZM553.73,303.44v6.67c0,.13.06.19.2.19h1.75c.81,0,1.46-.32,1.97-.96.51-.64.76-1.49.76-2.55s-.25-1.96-.76-2.59c-.51-.64-1.16-.96-1.97-.96h-1.75c-.13,0-.2.07-.2.2Z"/>
      <path class="st6" d="M566.73,325.69c-.09-.09-.14-.2-.14-.33v-26.36c0-.13.04-.24.14-.33.09-.09.2-.14.33-.14h4.56c.13,0,.24.05.33.14s.14.2.14.33v26.36c0,.13-.05.24-.14.33-.09.09-.2.14-.33.14h-4.56c-.13,0-.24-.04-.33-.14Z"/>
      <path class="st6" d="M589.74,303.11c-.09.09-.2.14-.33.14h-8.15c-.13,0-.2.07-.2.2v6.16c0,.13.06.19.2.19h4.68c.13,0,.24.05.33.14.09.09.14.2.14.33v3.78c0,.13-.04.24-.14.33-.09.09-.2.14-.33.14h-4.68c-.13,0-.2.06-.2.19v6.2c0,.13.06.2.2.2h8.15c.13,0,.24.05.33.14.09.09.14.2.14.33v3.78c0,.13-.05.24-.14.33s-.2.14-.33.14h-13.38c-.13,0-.24-.04-.33-.14-.09-.09-.14-.2-.14-.33v-26.36c0-.13.04-.24.14-.33.09-.09.2-.14.33-.14h13.38c.13,0,.24.05.33.14.09.09.14.2.14.33v3.78c0,.13-.05.24-.14.33Z"/>
      <path class="st6" d="M595.69,325.25c-1.14-.6-2.03-1.44-2.65-2.52-.62-1.08-.94-2.32-.94-3.72v-1.13c0-.13.04-.24.14-.33.09-.09.2-.14.33-.14h4.49c.13,0,.24.05.33.14s.14.2.14.33v.86c0,.81.21,1.46.62,1.95.42.5.94.74,1.56.74s1.14-.23,1.56-.7c.42-.47.62-1.08.62-1.83s-.26-1.45-.78-2.01-1.53-1.38-3.04-2.48c-1.3-.94-2.35-1.77-3.16-2.5-.81-.73-1.5-1.62-2.07-2.69-.57-1.07-.86-2.3-.86-3.71,0-2.21.69-3.98,2.07-5.3,1.38-1.33,3.2-1.99,5.46-1.99s4.13.69,5.52,2.07c1.39,1.38,2.09,3.19,2.09,5.42v.94c0,.13-.04.24-.14.33s-.2.14-.33.14h-4.48c-.13,0-.24-.04-.33-.14-.09-.09-.14-.2-.14-.33v-1.05c0-.81-.2-1.45-.6-1.93-.4-.48-.93-.72-1.58-.72s-1.13.23-1.52.68c-.39.46-.58,1.09-.58,1.89s.25,1.47.74,2.07c.49.6,1.47,1.43,2.92,2.5,1.61,1.2,2.83,2.16,3.65,2.91.82.74,1.46,1.56,1.91,2.46.46.9.68,1.97.68,3.22,0,2.29-.7,4.11-2.11,5.46-1.4,1.35-3.25,2.03-5.54,2.03-1.51,0-2.83-.3-3.98-.9Z"/>
    </g>
    <g>
      <path class="st0" d="M524.15,158.27c.09.09.14.2.14.33v3.78c0,.13-.05.24-.14.33s-.2.14-.33.14h-4.88c-.13,0-.19.07-.19.2v21.92c0,.13-.05.24-.14.33s-.2.14-.33.14h-4.56c-.13,0-.24-.04-.33-.14-.09-.09-.14-.2-.14-.33v-21.92c0-.13-.07-.2-.2-.2h-4.68c-.13,0-.24-.04-.33-.14-.09-.09-.14-.2-.14-.33v-3.78c0-.13.05-.24.14-.33s.2-.14.33-.14h15.44c.13,0,.24.05.33.14Z"/>
      <path class="st0" d="M535.75,185l-.62-3.74c0-.13-.08-.2-.23-.2h-4.95c-.16,0-.23.07-.23.2l-.62,3.74c-.03.29-.2.43-.51.43h-4.56c-.34,0-.47-.17-.39-.51l5.73-26.36c.05-.29.22-.43.51-.43h5.26c.29,0,.46.14.51.43l5.69,26.36.04.16c0,.23-.14.35-.43.35h-4.68c-.31,0-.48-.14-.51-.43ZM530.64,176.81h3.51c.13,0,.18-.06.16-.2l-1.83-10.65c-.03-.08-.07-.12-.12-.12s-.09.04-.12.12l-1.75,10.65c0,.13.05.2.16.2Z"/>
      <path class="st0" d="M543.73,185.29c-.09-.09-.14-.2-.14-.33v-26.36c0-.13.04-.24.14-.33.09-.09.2-.14.33-.14h4.56c.13,0,.24.05.33.14s.14.2.14.33v9.83c0,.1.03.16.1.18.06.01.11-.03.14-.14l5.03-9.98c.13-.23.31-.35.55-.35h4.84c.18,0,.3.05.37.14.06.09.06.23-.02.41l-5.77,11.23c-.03.1-.04.18-.04.23l6.12,14.74c.03.05.04.13.04.23,0,.21-.13.31-.39.31h-4.88c-.29,0-.47-.12-.55-.35l-4.06-10.22c-.03-.08-.07-.11-.12-.1-.05.01-.1.04-.16.1l-1.13,2.03c-.05.1-.08.18-.08.23v7.84c0,.13-.05.24-.14.33-.09.09-.2.14-.33.14h-4.56c-.13,0-.24-.04-.33-.14Z"/>
      <path class="st0" d="M562.87,185.29c-.09-.09-.14-.2-.14-.33v-26.36c0-.13.04-.24.14-.33.09-.09.2-.14.33-.14h4.56c.13,0,.24.05.33.14s.14.2.14.33v26.36c0,.13-.05.24-.14.33-.09.09-.2.14-.33.14h-4.56c-.13,0-.24-.04-.33-.14Z"/>
      <path class="st0" d="M583,158.27c.09-.09.2-.14.33-.14h4.52c.13,0,.24.05.33.14s.14.2.14.33v26.36c0,.13-.05.24-.14.33-.09.09-.2.14-.33.14h-5.15c-.26,0-.43-.13-.51-.39l-4.84-15.09c-.03-.08-.07-.11-.14-.1-.07.01-.1.06-.1.14l.04,14.98c0,.13-.05.24-.14.33-.09.09-.2.14-.33.14h-4.52c-.13,0-.24-.04-.33-.14-.09-.09-.14-.2-.14-.33v-26.36c0-.13.04-.24.14-.33.09-.09.2-.14.33-.14h5.11c.26,0,.43.13.51.39l4.88,15.09c.03.08.07.11.14.1.06-.01.1-.06.1-.14l-.04-14.98c0-.13.04-.24.14-.33Z"/>
      <path class="st0" d="M593.49,183.73c-1.42-1.34-2.12-3.13-2.12-5.36v-13.18c0-2.24.71-4.02,2.12-5.36,1.42-1.34,3.3-2.01,5.64-2.01s4.22.68,5.66,2.03c1.43,1.35,2.14,3.15,2.14,5.38v1.48c0,.13-.05.24-.14.33-.09.09-.2.14-.33.14h-4.56c-.13,0-.24-.04-.33-.14-.09-.09-.14-.2-.14-.33v-1.56c0-.78-.21-1.41-.62-1.89-.42-.48-.97-.72-1.68-.72s-1.22.24-1.64.72c-.42.48-.62,1.11-.62,1.89v13.26c0,.78.21,1.41.62,1.89.42.48.96.72,1.64.72s1.26-.24,1.68-.72c.42-.48.62-1.11.62-1.89v-3.12c0-.13-.06-.2-.19-.2h-1.72c-.13,0-.24-.04-.33-.14-.09-.09-.14-.2-.14-.33v-3.47c0-.13.04-.24.14-.33s.2-.14.33-.14h6.94c.13,0,.24.05.33.14.09.09.14.2.14.33v7.22c0,2.24-.71,4.02-2.14,5.36-1.43,1.34-3.32,2.01-5.66,2.01s-4.22-.67-5.64-2.01Z"/>
      <path class="st5" d="M359.77,230.53c-1.42-1.34-2.13-3.13-2.13-5.36v-13.18c0-2.24.71-4.02,2.13-5.36,1.42-1.34,3.3-2.01,5.64-2.01s4.22.68,5.66,2.03c1.43,1.35,2.14,3.15,2.14,5.38v1.48c0,.13-.05.24-.14.33-.09.09-.2.14-.33.14h-4.56c-.13,0-.24-.04-.33-.14-.09-.09-.14-.2-.14-.33v-1.56c0-.78-.21-1.41-.62-1.89-.42-.48-.97-.72-1.68-.72s-1.22.24-1.64.72c-.42.48-.62,1.11-.62,1.89v13.26c0,.78.21,1.41.62,1.89.42.48.96.72,1.64.72s1.26-.24,1.68-.72c.42-.48.62-1.11.62-1.89v-3.12c0-.13-.07-.2-.2-.2h-1.72c-.13,0-.24-.04-.33-.14-.09-.09-.14-.2-.14-.33v-3.47c0-.13.04-.24.14-.33s.2-.14.33-.14h6.94c.13,0,.24.05.33.14.09.09.14.2.14.33v7.22c0,2.24-.72,4.02-2.14,5.36-1.43,1.34-3.32,2.01-5.66,2.01s-4.22-.67-5.64-2.01Z"/>
      <path class="st5" d="M378,230.44c-1.43-1.4-2.14-3.28-2.14-5.62v-12.48c0-2.34.71-4.21,2.14-5.62s3.34-2.11,5.73-2.11,4.31.7,5.75,2.11c1.44,1.4,2.17,3.28,2.17,5.62v12.48c0,2.34-.72,4.21-2.17,5.62-1.44,1.4-3.36,2.11-5.75,2.11s-4.3-.7-5.73-2.11ZM385.49,227.06c.44-.51.66-1.18.66-2.01v-12.95c0-.83-.22-1.5-.66-2.01-.44-.51-1.03-.76-1.75-.76s-1.31.25-1.74.76c-.43.51-.64,1.18-.64,2.01v12.95c0,.83.21,1.5.64,2.01.43.51,1.01.76,1.74.76s1.31-.25,1.75-.76Z"/>
      <path class="st5" d="M396.45,230.44c-1.43-1.4-2.15-3.28-2.15-5.62v-12.48c0-2.34.71-4.21,2.15-5.62,1.43-1.4,3.34-2.11,5.73-2.11s4.31.7,5.75,2.11c1.44,1.4,2.16,3.28,2.16,5.62v12.48c0,2.34-.72,4.21-2.16,5.62-1.44,1.4-3.36,2.11-5.75,2.11s-4.3-.7-5.73-2.11ZM403.93,227.06c.44-.51.66-1.18.66-2.01v-12.95c0-.83-.22-1.5-.66-2.01s-1.03-.76-1.75-.76-1.31.25-1.74.76-.64,1.18-.64,2.01v12.95c0,.83.21,1.5.64,2.01.43.51,1.01.76,1.74.76s1.31-.25,1.75-.76Z"/>
      <path class="st5" d="M413.27,232.09c-.09-.09-.14-.2-.14-.33v-26.36c0-.13.04-.24.14-.33.09-.09.2-.14.33-.14h7.06c2.37,0,4.26.69,5.69,2.07,1.43,1.38,2.15,3.21,2.15,5.5v12.17c0,2.29-.72,4.12-2.15,5.5-1.43,1.38-3.33,2.07-5.69,2.07h-7.06c-.13,0-.24-.04-.33-.14ZM418.83,227.51l1.75-.04c.7-.03,1.27-.33,1.72-.9.44-.57.68-1.33.7-2.26v-11.47c0-.99-.22-1.77-.66-2.34-.44-.57-1.04-.86-1.79-.86h-1.72c-.13,0-.2.07-.2.2v17.47c0,.13.06.2.2.2Z"/>
      <path class="st5" d="M453.68,209.51c-.09.09-.2.14-.33.14h-8.15c-.13,0-.2.07-.2.2v6.16c0,.13.07.19.2.19h4.68c.13,0,.24.05.33.14.09.09.14.2.14.33v3.78c0,.13-.05.24-.14.33-.09.09-.2.14-.33.14h-4.68c-.13,0-.2.06-.2.19v6.2c0,.13.07.2.2.2h8.15c.13,0,.24.05.33.14s.14.2.14.33v3.78c0,.13-.05.24-.14.33-.09.09-.2.14-.33.14h-13.38c-.13,0-.24-.04-.33-.14-.09-.09-.14-.2-.14-.33v-26.36c0-.13.05-.24.14-.33s.2-.14.33-.14h13.38c.13,0,.24.05.33.14s.14.2.14.33v3.78c0,.13-.05.24-.14.33Z"/>
      <path class="st5" d="M455.88,232.07c-.05-.1-.05-.23,0-.39l5.3-12.99c.03-.08.03-.16,0-.23l-5.3-12.99c-.03-.05-.04-.13-.04-.23,0-.21.13-.31.39-.31h4.68c.26,0,.43.13.51.39l2.61,7.49c.03.08.06.12.12.12s.09-.04.12-.12l2.61-7.49c.08-.26.25-.39.51-.39h4.64c.18,0,.3.05.35.16.05.1.05.23,0,.39l-5.3,12.99c-.03.08-.03.16,0,.23l5.3,12.99c.03.05.04.13.04.23,0,.21-.13.31-.39.31h-4.64c-.26,0-.43-.13-.51-.39l-2.61-7.45c-.03-.08-.06-.12-.12-.12s-.09.04-.12.12l-2.65,7.45c-.08.26-.25.39-.51.39h-4.64c-.18,0-.3-.05-.35-.16Z"/>
      <path class="st5" d="M487.24,205.94c1.12.7,1.98,1.68,2.59,2.94.61,1.26.92,2.7.92,4.31,0,2.42-.65,4.36-1.95,5.81-1.3,1.46-3,2.18-5.11,2.18h-2.92c-.13,0-.2.07-.2.2v10.37c0,.13-.05.24-.14.33-.09.09-.2.14-.33.14h-4.56c-.13,0-.24-.04-.33-.14-.09-.09-.14-.2-.14-.33v-26.4c0-.13.04-.24.14-.33.09-.09.2-.14.33-.14h7.88c1.43,0,2.7.35,3.82,1.05ZM484.49,215.95c.51-.64.76-1.51.76-2.63s-.25-2.04-.76-2.69c-.51-.65-1.18-.97-2.01-.97h-1.72c-.13,0-.2.07-.2.2v6.86c0,.13.06.2.2.2h1.72c.83,0,1.5-.32,2.01-.96Z"/>
      <path class="st5" d="M507.42,209.51c-.09.09-.2.14-.33.14h-8.15c-.13,0-.2.07-.2.2v6.16c0,.13.06.19.2.19h4.68c.13,0,.24.05.33.14.09.09.14.2.14.33v3.78c0,.13-.04.24-.14.33-.09.09-.2.14-.33.14h-4.68c-.13,0-.2.06-.2.19v6.2c0,.13.06.2.2.2h8.15c.13,0,.24.05.33.14.09.09.14.2.14.33v3.78c0,.13-.05.24-.14.33s-.2.14-.33.14h-13.38c-.13,0-.24-.04-.33-.14-.09-.09-.14-.2-.14-.33v-26.36c0-.13.04-.24.14-.33.09-.09.2-.14.33-.14h13.38c.13,0,.24.05.33.14.09.09.14.2.14.33v3.78c0,.13-.05.24-.14.33Z"/>
      <path class="st5" d="M520.54,231.84l-3-10.76c-.05-.1-.12-.16-.19-.16h-1.33c-.13,0-.2.06-.2.19v10.65c0,.13-.05.24-.14.33-.09.09-.2.14-.33.14h-4.56c-.13,0-.24-.04-.33-.14-.09-.09-.14-.2-.14-.33v-26.36c0-.13.04-.24.14-.33.09-.09.2-.14.33-.14h7.88c1.43,0,2.7.34,3.82,1.03,1.12.69,1.98,1.66,2.59,2.91.61,1.25.92,2.68.92,4.29s-.29,2.89-.88,4.06-1.4,2.08-2.44,2.73c-.05.03-.09.06-.12.1-.03.04-.03.08,0,.14l3.59,11.5.04.16c0,.26-.14.39-.43.39h-4.68c-.29,0-.47-.13-.55-.39ZM515.82,209.84v6.67c0,.13.06.19.2.19h1.75c.81,0,1.46-.32,1.97-.96.51-.64.76-1.49.76-2.55s-.25-1.96-.76-2.59c-.51-.64-1.16-.96-1.97-.96h-1.75c-.13,0-.2.07-.2.2Z"/>
      <path class="st5" d="M528.83,232.09c-.09-.09-.14-.2-.14-.33v-26.36c0-.13.04-.24.14-.33.09-.09.2-.14.33-.14h4.56c.13,0,.24.05.33.14s.14.2.14.33v26.36c0,.13-.05.24-.14.33-.09.09-.2.14-.33.14h-4.56c-.13,0-.24-.04-.33-.14Z"/>
      <path class="st5" d="M551.84,209.51c-.09.09-.2.14-.33.14h-8.15c-.13,0-.2.07-.2.2v6.16c0,.13.06.19.2.19h4.68c.13,0,.24.05.33.14.09.09.14.2.14.33v3.78c0,.13-.04.24-.14.33-.09.09-.2.14-.33.14h-4.68c-.13,0-.2.06-.2.19v6.2c0,.13.06.2.2.2h8.15c.13,0,.24.05.33.14.09.09.14.2.14.33v3.78c0,.13-.05.24-.14.33s-.2.14-.33.14h-13.38c-.13,0-.24-.04-.33-.14-.09-.09-.14-.2-.14-.33v-26.36c0-.13.04-.24.14-.33.09-.09.2-.14.33-.14h13.38c.13,0,.24.05.33.14.09.09.14.2.14.33v3.78c0,.13-.05.24-.14.33Z"/>
      <path class="st5" d="M566.03,205.07c.09-.09.2-.14.33-.14h4.52c.13,0,.24.05.33.14s.14.2.14.33v26.36c0,.13-.05.24-.14.33-.09.09-.2.14-.33.14h-5.15c-.26,0-.43-.13-.51-.39l-4.84-15.09c-.03-.08-.07-.11-.14-.1-.07.01-.1.06-.1.14l.04,14.98c0,.13-.05.24-.14.33-.09.09-.2.14-.33.14h-4.52c-.13,0-.24-.04-.33-.14-.09-.09-.14-.2-.14-.33v-26.36c0-.13.04-.24.14-.33.09-.09.2-.14.33-.14h5.11c.26,0,.43.13.51.39l4.88,15.09c.03.08.07.11.14.1.06-.01.1-.06.1-.14l-.04-14.98c0-.13.04-.24.14-.33Z"/>
      <path class="st5" d="M576.52,230.46c-1.42-1.39-2.12-3.26-2.12-5.6v-12.64c0-2.31.71-4.16,2.12-5.54s3.3-2.07,5.64-2.07,4.26.69,5.67,2.07c1.42,1.38,2.12,3.22,2.12,5.54v.43c0,.13-.05.24-.14.33-.09.09-.2.14-.33.14l-4.56.2c-.31,0-.47-.14-.47-.43v-1.01c0-.75-.21-1.36-.62-1.83-.42-.47-.97-.7-1.68-.7s-1.22.23-1.64.7c-.42.47-.62,1.08-.62,1.83v13.46c0,.75.21,1.36.62,1.81.42.46.96.68,1.64.68s1.26-.23,1.68-.68c.42-.45.62-1.06.62-1.81v-1.05c0-.13.04-.24.14-.33.09-.09.2-.14.33-.14l4.56.2c.13,0,.24.04.33.14.09.09.14.2.14.33v.39c0,2.34-.71,4.21-2.14,5.6-1.43,1.39-3.32,2.09-5.66,2.09s-4.22-.69-5.64-2.09Z"/>
      <path class="st5" d="M607.06,209.51c-.09.09-.2.14-.33.14h-8.15c-.13,0-.2.07-.2.2v6.16c0,.13.06.19.2.19h4.68c.13,0,.24.05.33.14.09.09.14.2.14.33v3.78c0,.13-.04.24-.14.33-.09.09-.2.14-.33.14h-4.68c-.13,0-.2.06-.2.19v6.2c0,.13.06.2.2.2h8.15c.13,0,.24.05.33.14.09.09.14.2.14.33v3.78c0,.13-.05.24-.14.33s-.2.14-.33.14h-13.38c-.13,0-.24-.04-.33-.14-.09-.09-.14-.2-.14-.33v-26.36c0-.13.04-.24.14-.33.09-.09.2-.14.33-.14h13.38c.13,0,.24.05.33.14.09.09.14.2.14.33v3.78c0,.13-.05.24-.14.33Z"/>
      <path class="st0" d="M563.52,278.6l-.62-3.74c0-.13-.08-.2-.23-.2h-4.95c-.16,0-.23.07-.23.2l-.62,3.74c-.03.29-.2.43-.51.43h-4.56c-.34,0-.47-.17-.39-.51l5.73-26.36c.05-.29.22-.43.51-.43h5.26c.29,0,.46.14.51.43l5.69,26.36.04.16c0,.23-.14.35-.43.35h-4.68c-.31,0-.48-.14-.51-.43ZM558.41,270.41h3.51c.13,0,.18-.06.16-.2l-1.83-10.65c-.03-.08-.07-.12-.12-.12s-.09.04-.12.12l-1.75,10.65c0,.13.05.2.16.2Z"/>
      <path class="st0" d="M582.65,251.87c.09-.09.2-.14.33-.14h4.52c.13,0,.24.05.33.14s.14.2.14.33v26.36c0,.13-.05.24-.14.33-.09.09-.2.14-.33.14h-5.15c-.26,0-.43-.13-.51-.39l-4.84-15.09c-.03-.08-.07-.11-.14-.1-.07.01-.1.06-.1.14l.04,14.98c0,.13-.05.24-.14.33-.09.09-.2.14-.33.14h-4.52c-.13,0-.24-.04-.33-.14-.09-.09-.14-.2-.14-.33v-26.36c0-.13.04-.24.14-.33.09-.09.2-.14.33-.14h5.11c.26,0,.43.13.51.39l4.88,15.09c.03.08.07.11.14.1.06-.01.1-.06.1-.14l-.04-14.98c0-.13.04-.24.14-.33Z"/>
      <path class="st0" d="M591.54,278.89c-.09-.09-.14-.2-.14-.33v-26.36c0-.13.04-.24.14-.33.09-.09.2-.14.33-.14h7.06c2.37,0,4.26.69,5.69,2.07,1.43,1.38,2.15,3.21,2.15,5.5v12.17c0,2.29-.72,4.12-2.15,5.5-1.43,1.38-3.33,2.07-5.69,2.07h-7.06c-.13,0-.24-.04-.33-.14ZM597.1,274.31l1.75-.04c.7-.03,1.27-.33,1.72-.9.44-.57.68-1.33.7-2.26v-11.47c0-.99-.22-1.77-.66-2.34-.44-.57-1.04-.86-1.79-.86h-1.72c-.13,0-.2.07-.2.2v17.47c0,.13.06.2.2.2Z"/>
      <path class="st0" d="M344.63,325.69c-.09-.09-.14-.2-.14-.33v-26.36c0-.13.05-.24.14-.33.09-.09.2-.14.33-.14h4.56c.13,0,.24.05.33.14.09.09.14.2.14.33v21.92c0,.13.06.2.2.2h8.19c.13,0,.24.05.33.14.09.09.14.2.14.33v3.78c0,.13-.05.24-.14.33-.09.09-.2.14-.33.14h-13.42c-.13,0-.24-.04-.33-.14Z"/>
      <path class="st0" d="M372.73,325.4l-.62-3.74c0-.13-.08-.2-.23-.2h-4.95c-.16,0-.23.07-.23.2l-.62,3.74c-.03.29-.19.43-.51.43h-4.56c-.34,0-.47-.17-.39-.51l5.73-26.36c.05-.29.22-.43.51-.43h5.26c.29,0,.46.14.51.43l5.69,26.36.04.16c0,.23-.14.35-.43.35h-4.68c-.31,0-.48-.14-.51-.43ZM367.62,317.21h3.51c.13,0,.18-.06.16-.2l-1.83-10.65c-.03-.08-.07-.12-.12-.12s-.09.04-.12.12l-1.75,10.65c0,.13.05.2.16.2Z"/>
      <path class="st0" d="M382.64,325.25c-1.14-.6-2.03-1.44-2.65-2.52-.62-1.08-.94-2.32-.94-3.72v-1.13c0-.13.04-.24.14-.33.09-.09.2-.14.33-.14h4.49c.13,0,.24.05.33.14s.14.2.14.33v.86c0,.81.21,1.46.62,1.95.42.5.94.74,1.56.74s1.14-.23,1.56-.7c.42-.47.62-1.08.62-1.83s-.26-1.45-.78-2.01c-.52-.56-1.53-1.38-3.04-2.48-1.3-.94-2.35-1.77-3.16-2.5-.81-.73-1.5-1.62-2.07-2.69-.57-1.07-.86-2.3-.86-3.71,0-2.21.69-3.98,2.07-5.3,1.38-1.33,3.2-1.99,5.46-1.99s4.13.69,5.52,2.07c1.39,1.38,2.09,3.19,2.09,5.42v.94c0,.13-.05.24-.14.33-.09.09-.2.14-.33.14h-4.49c-.13,0-.24-.04-.33-.14-.09-.09-.14-.2-.14-.33v-1.05c0-.81-.2-1.45-.6-1.93-.4-.48-.93-.72-1.58-.72s-1.13.23-1.52.68c-.39.46-.58,1.09-.58,1.89s.25,1.47.74,2.07c.49.6,1.47,1.43,2.92,2.5,1.61,1.2,2.83,2.16,3.65,2.91s1.46,1.56,1.91,2.46c.45.9.68,1.97.68,3.22,0,2.29-.7,4.11-2.11,5.46-1.4,1.35-3.25,2.03-5.54,2.03-1.51,0-2.83-.3-3.98-.9Z"/>
      <path class="st0" d="M412.14,298.67c.09.09.14.2.14.33v3.78c0,.13-.05.24-.14.33s-.2.14-.33.14h-4.88c-.13,0-.2.07-.2.2v21.92c0,.13-.05.24-.14.33-.09.09-.2.14-.33.14h-4.56c-.13,0-.24-.04-.33-.14-.09-.09-.14-.2-.14-.33v-21.92c0-.13-.07-.2-.2-.2h-4.68c-.13,0-.24-.04-.33-.14-.09-.09-.14-.2-.14-.33v-3.78c0-.13.04-.24.14-.33s.2-.14.33-.14h15.44c.13,0,.24.05.33.14Z"/>
      <path class="st0" d="M415.07,325.69c-.09-.09-.14-.2-.14-.33v-26.36c0-.13.04-.24.14-.33.09-.09.2-.14.33-.14h4.56c.13,0,.24.05.33.14s.14.2.14.33v26.36c0,.13-.05.24-.14.33-.09.09-.2.14-.33.14h-4.56c-.13,0-.24-.04-.33-.14Z"/>
      <path class="st0" d="M435.19,298.67c.09-.09.2-.14.33-.14h4.52c.13,0,.24.05.33.14.09.09.14.2.14.33v26.36c0,.13-.05.24-.14.33s-.2.14-.33.14h-5.15c-.26,0-.43-.13-.51-.39l-4.84-15.09c-.03-.08-.07-.11-.14-.1-.07.01-.1.06-.1.14l.04,14.98c0,.13-.05.24-.14.33-.09.09-.2.14-.33.14h-4.52c-.13,0-.24-.04-.33-.14-.09-.09-.14-.2-.14-.33v-26.36c0-.13.04-.24.14-.33.09-.09.2-.14.33-.14h5.11c.26,0,.43.13.51.39l4.88,15.09c.03.08.07.11.14.1.06-.01.1-.06.1-.14l-.04-14.98c0-.13.04-.24.14-.33Z"/>
      <path class="st0" d="M445.68,324.13c-1.42-1.34-2.12-3.13-2.12-5.36v-13.18c0-2.24.71-4.02,2.12-5.36,1.42-1.34,3.3-2.01,5.64-2.01s4.22.68,5.66,2.03c1.43,1.35,2.14,3.15,2.14,5.38v1.48c0,.13-.05.24-.14.33-.09.09-.2.14-.33.14h-4.56c-.13,0-.24-.04-.33-.14-.09-.09-.14-.2-.14-.33v-1.56c0-.78-.21-1.41-.62-1.89-.42-.48-.97-.72-1.68-.72s-1.22.24-1.64.72c-.42.48-.62,1.11-.62,1.89v13.26c0,.78.21,1.41.62,1.89.42.48.96.72,1.64.72s1.26-.24,1.68-.72c.42-.48.62-1.11.62-1.89v-3.12c0-.13-.07-.2-.2-.2h-1.72c-.13,0-.24-.04-.33-.14-.09-.09-.14-.2-.14-.33v-3.47c0-.13.04-.24.14-.33s.2-.14.33-.14h6.94c.13,0,.24.05.33.14.09.09.14.2.14.33v7.22c0,2.24-.72,4.02-2.14,5.36-1.43,1.34-3.32,2.01-5.66,2.01s-4.22-.67-5.64-2.01Z"/>
      <path class="st0" d="M483.02,298.53h4.52c.13,0,.24.05.33.14.09.09.14.2.14.33v26.36c0,.13-.05.24-.14.33s-.2.14-.33.14h-4.56c-.13,0-.24-.04-.33-.14-.09-.09-.14-.2-.14-.33v-17.51c0-.1-.03-.16-.08-.16s-.1.04-.16.12l-3.04,5.38c-.13.21-.23.31-.31.31s-.18-.1-.31-.31l-3.04-5.38c-.05-.08-.1-.12-.16-.12s-.08.05-.08.16v17.51c0,.13-.04.24-.14.33s-.2.14-.33.14h-4.56c-.13,0-.24-.04-.33-.14-.09-.09-.14-.2-.14-.33v-26.36c0-.13.05-.24.14-.33s.2-.14.33-.14h4.48c.26,0,.46.1.58.31l3.47,6.2c.08.1.16.1.23,0l3.35-6.2c.1-.21.3-.31.58-.31Z"/>
      <path class="st0" d="M505.51,303.11c-.09.09-.2.14-.33.14h-8.15c-.13,0-.2.07-.2.2v6.16c0,.13.06.19.2.19h4.68c.13,0,.24.05.33.14.09.09.14.2.14.33v3.78c0,.13-.04.24-.14.33-.09.09-.2.14-.33.14h-4.68c-.13,0-.2.06-.2.19v6.2c0,.13.06.2.2.2h8.15c.13,0,.24.05.33.14.09.09.14.2.14.33v3.78c0,.13-.05.24-.14.33s-.2.14-.33.14h-13.38c-.13,0-.24-.04-.33-.14-.09-.09-.14-.2-.14-.33v-26.36c0-.13.04-.24.14-.33.09-.09.2-.14.33-.14h13.38c.13,0,.24.05.33.14.09.09.14.2.14.33v3.78c0,.13-.05.24-.14.33Z"/>
      <path class="st0" d="M521.48,298.53h4.52c.13,0,.24.05.33.14.09.09.14.2.14.33v26.36c0,.13-.05.24-.14.33s-.2.14-.33.14h-4.56c-.13,0-.24-.04-.33-.14-.09-.09-.14-.2-.14-.33v-17.51c0-.1-.03-.16-.08-.16s-.1.04-.16.12l-3.04,5.38c-.13.21-.23.31-.31.31s-.18-.1-.31-.31l-3.04-5.38c-.05-.08-.1-.12-.16-.12s-.08.05-.08.16v17.51c0,.13-.04.24-.14.33s-.2.14-.33.14h-4.56c-.13,0-.24-.04-.33-.14-.09-.09-.14-.2-.14-.33v-26.36c0-.13.05-.24.14-.33s.2-.14.33-.14h4.48c.26,0,.46.1.58.31l3.47,6.2c.08.1.16.1.23,0l3.35-6.2c.1-.21.3-.31.58-.31Z"/>
      <path class="st0" d="M531.54,324.04c-1.43-1.4-2.14-3.28-2.14-5.62v-12.48c0-2.34.71-4.21,2.14-5.62s3.34-2.11,5.73-2.11,4.31.7,5.75,2.11c1.44,1.4,2.17,3.28,2.17,5.62v12.48c0,2.34-.72,4.21-2.17,5.62-1.44,1.4-3.36,2.11-5.75,2.11s-4.3-.7-5.73-2.11ZM539.03,320.66c.44-.51.66-1.18.66-2.01v-12.95c0-.83-.22-1.5-.66-2.01-.44-.51-1.03-.76-1.75-.76s-1.31.25-1.74.76c-.43.51-.64,1.18-.64,2.01v12.95c0,.83.21,1.5.64,2.01.43.51,1.01.76,1.74.76s1.31-.25,1.75-.76Z"/>
      <path class="st0" d="M558.45,325.44l-3-10.76c-.05-.1-.12-.16-.19-.16h-1.33c-.13,0-.2.06-.2.19v10.65c0,.13-.05.24-.14.33-.09.09-.2.14-.33.14h-4.56c-.13,0-.24-.04-.33-.14-.09-.09-.14-.2-.14-.33v-26.36c0-.13.04-.24.14-.33.09-.09.2-.14.33-.14h7.88c1.43,0,2.7.34,3.82,1.03,1.12.69,1.98,1.66,2.59,2.91.61,1.25.92,2.68.92,4.29s-.29,2.89-.88,4.06-1.4,2.08-2.44,2.73c-.05.03-.09.06-.12.1-.03.04-.03.08,0,.14l3.59,11.5.04.16c0,.26-.14.39-.43.39h-4.68c-.29,0-.47-.13-.55-.39ZM553.73,303.44v6.67c0,.13.06.19.2.19h1.75c.81,0,1.46-.32,1.97-.96.51-.64.76-1.49.76-2.55s-.25-1.96-.76-2.59c-.51-.64-1.16-.96-1.97-.96h-1.75c-.13,0-.2.07-.2.2Z"/>
      <path class="st0" d="M566.73,325.69c-.09-.09-.14-.2-.14-.33v-26.36c0-.13.04-.24.14-.33.09-.09.2-.14.33-.14h4.56c.13,0,.24.05.33.14s.14.2.14.33v26.36c0,.13-.05.24-.14.33-.09.09-.2.14-.33.14h-4.56c-.13,0-.24-.04-.33-.14Z"/>
      <path class="st0" d="M589.74,303.11c-.09.09-.2.14-.33.14h-8.15c-.13,0-.2.07-.2.2v6.16c0,.13.06.19.2.19h4.68c.13,0,.24.05.33.14.09.09.14.2.14.33v3.78c0,.13-.04.24-.14.33-.09.09-.2.14-.33.14h-4.68c-.13,0-.2.06-.2.19v6.2c0,.13.06.2.2.2h8.15c.13,0,.24.05.33.14.09.09.14.2.14.33v3.78c0,.13-.05.24-.14.33s-.2.14-.33.14h-13.38c-.13,0-.24-.04-.33-.14-.09-.09-.14-.2-.14-.33v-26.36c0-.13.04-.24.14-.33.09-.09.2-.14.33-.14h13.38c.13,0,.24.05.33.14.09.09.14.2.14.33v3.78c0,.13-.05.24-.14.33Z"/>
      <path class="st0" d="M595.69,325.25c-1.14-.6-2.03-1.44-2.65-2.52-.62-1.08-.94-2.32-.94-3.72v-1.13c0-.13.04-.24.14-.33.09-.09.2-.14.33-.14h4.49c.13,0,.24.05.33.14s.14.2.14.33v.86c0,.81.21,1.46.62,1.95.42.5.94.74,1.56.74s1.14-.23,1.56-.7c.42-.47.62-1.08.62-1.83s-.26-1.45-.78-2.01-1.53-1.38-3.04-2.48c-1.3-.94-2.35-1.77-3.16-2.5-.81-.73-1.5-1.62-2.07-2.69-.57-1.07-.86-2.3-.86-3.71,0-2.21.69-3.98,2.07-5.3,1.38-1.33,3.2-1.99,5.46-1.99s4.13.69,5.52,2.07c1.39,1.38,2.09,3.19,2.09,5.42v.94c0,.13-.04.24-.14.33s-.2.14-.33.14h-4.48c-.13,0-.24-.04-.33-.14-.09-.09-.14-.2-.14-.33v-1.05c0-.81-.2-1.45-.6-1.93-.4-.48-.93-.72-1.58-.72s-1.13.23-1.52.68c-.39.46-.58,1.09-.58,1.89s.25,1.47.74,2.07c.49.6,1.47,1.43,2.92,2.5,1.61,1.2,2.83,2.16,3.65,2.91.82.74,1.46,1.56,1.91,2.46.46.9.68,1.97.68,3.22,0,2.29-.7,4.11-2.11,5.46-1.4,1.35-3.25,2.03-5.54,2.03-1.51,0-2.83-.3-3.98-.9Z"/>
    </g>
  </g>
  <text class="st4" transform="translate(434.49 105.45)"><tspan x="0" y="0">VISION</tspan></text>
  <text class="st2" transform="translate(115.11 457.12) rotate(-90)"><tspan x="0" y="0">VISION</tspan></text>
  <line class="st1" x1="267.71" y1="119.95" x2="720" y2="119.95"/>
  <g>
    <path class="st6" d="M185.47,82.53c26.77-1.41,56.47,12.25,76.5,29.35,5.47,4.67,8.56,6.18,2.14,12.3-19.32,18.42-53.06,32.7-79.9,31.13-22.43-1.31-52.91-15.68-69.13-31.13-2.37-2.26-4.79-4.09-2.89-7.69,20.02-17.97,45.78-32.5,73.27-33.96ZM188.17,85.18c-7.02.11-15.12,1.5-21.89,3.36-7.81,2.15-15.35,5.48-22.54,9.12l-.42.94c7.09,30.5,38.96,51.41,68.36,34.26,12.45-7.27,20.99-20.74,24.22-34.63-.22-.94-9.11-4.76-10.66-5.39-11.58-4.73-24.47-7.86-37.07-7.67ZM140.28,99.54c-3.85,1.87-26.02,16.77-26.03,19.56l.26.81c25.52,22.12,57.91,38.06,92.52,30.83,18.26-3.81,38.57-14.61,52.79-26.56,1.09-.92,5.13-4.01,5.13-5.08,0-2.92-22.2-17.65-26.03-19.56-2.62,7.36-5.2,14.34-9.8,20.75-21.43,29.89-61.73,28.25-80.98-2.9-3.47-5.61-5.48-11.74-7.87-17.84Z"/>
    <path class="st6" d="M237.4,157.12l9.56,9.99c.9,2.08-.69,2.65-2.42,1.35-1.19-.9-9.76-9.69-9.95-10.45-.32-1.27,1.98-2.14,2.81-.88Z"/>
    <path class="st6" d="M188.26,45.91l1.82-.5.86.77v15.55c0,1.01-2.68,1.01-2.68,0v-15.82Z"/>
    <path class="st6" d="M190.94,192.29h-2.68v-15.82c0-1.01,2.68-1.01,2.68,0v15.82Z"/>
    <path class="st6" d="M132.78,68.97c.89-.24,1.31.34,1.89.78.99.74,9.61,9.32,9.92,9.95.56,1.1-.79,2.6-2.19,1.64-1.02-.7-10.16-9.86-10.36-10.58s.1-1.62.73-1.79Z"/>
    <path class="st6" d="M143.03,156.41c.93.08,2.09,1.07,1.56,2.1-.32.62-8.94,9.2-9.92,9.95-1.77,1.33-3.37.63-2.44-1.36.32-.69,10.05-10.55,10.8-10.68Z"/>
    <path class="st6" d="M247.24,68.97l-.51,2.44c-1.63,1.15-9.97,10.65-11.01,10.43-1.23-.27-.83-2.08-.3-2.98.34-.57,8.81-9.04,9.38-9.38.85-.5,1.44-.65,2.44-.51Z"/>
    <path class="st5" d="M187.61,91.64c24.53-2.7,27.69,34.13,4.62,36.79-25.13,2.9-28.71-34.14-4.62-36.79ZM200.94,99.19c-12.97-13.65-35.36,4.36-23.94,19.92,13.13,17.89,39.03-4.03,23.94-19.92Z"/>
    <path class="st5" d="M200.94,99.19c15.1,15.88-10.81,37.8-23.94,19.92-11.42-15.56,10.96-33.57,23.94-19.92Z"/>
  </g>
</svg>