<?xml version="1.0" encoding="UTF-8"?>
<svg id="Layer_1" xmlns="http://www.w3.org/2000/svg" version="1.1" viewBox="0 0 720 450">
  <!-- Generator: Adobe Illustrator 29.6.1, SVG Export Plug-In . SVG Version: 2.1.1 Build 9)  -->
  <defs>
    <style>
      .st0 {
        fill: #001696;
        font-family: BarlowCondensed-Regular, 'Barlow Condensed';
        font-size: 162px;
        letter-spacing: .02em;
      }

      .st1 {
        fill: #01a;
      }

      .st2, .st3 {
        fill: #fff;
      }

      .st2, .st4 {
        font-family: BarlowCondensed-Bold, 'Barlow Condensed';
        font-size: 39px;
        font-weight: 700;
      }

      .st5 {
        font-family: BarlowCondensed-Medium, 'Barlow Condensed';
        font-size: 73.6px;
        font-weight: 500;
        letter-spacing: .02em;
      }

      .st5, .st6, .st4 {
        fill: #32c5f4;
      }

      .st7 {
        fill: none;
        stroke: #32c5f4;
        stroke-miterlimit: 10;
      }
    </style>
  </defs>
  <rect class="st1" width="720" height="450"/>
  <text class="st2" transform="translate(74.37 185.43)"><tspan x="0" y="0">CONVEYING ONENESS </tspan><tspan x="0" y="46.8">AND WELL BEING AS </tspan><tspan x="0" y="93.6">CORE TO IKIGAI EVENTS.</tspan></text>
  <text class="st4" transform="translate(74.37 324.68)"><tspan x="0" y="0">COLLABORATING AND </tspan><tspan x="0" y="46.8">DELIVERING AS ONE TEAM</tspan></text>
  <text class="st5" transform="translate(74.37 105.45)"><tspan x="0" y="0">MISSION</tspan></text>
  <text class="st0" transform="translate(719.68 457.12) rotate(-90)"><tspan x="0" y="0">MISSION</tspan></text>
  <g>
    <path class="st6" d="M535.7,102.24c26.07-4.06,29.22,32.74,6.98,36-24.96,3.66-28.48-32.66-6.98-36Z"/>
    <path class="st3" d="M532.43,56.41l-.26,2.22c-25.74,3.62-45.74,21.11-52.54,46.15-.54,1.98-.99,10.09-3.53,8.24s3.13-16.81,4.39-19.66c6.83-15.36,21.31-28.68,37.19-34.25,2.1-.74,13.87-4.13,14.75-2.7Z"/>
    <path class="st3" d="M547.91,55.92c1.25-.25,9.44,1.93,11.26,2.49,20.83,6.5,39.05,25.45,43.38,47.04.24,1.19,2.17,9.17-.85,7.55-1.43-.76-1.93-7.23-2.49-9.23-6.32-22.44-23.27-37.79-45.49-43.81-1.64-.44-7.6-.62-7.22-2.72.07-.39.98-1.24,1.42-1.33Z"/>
    <path class="st3" d="M603.38,127.22c-1.28,26.61-23.78,50.95-49.67,56.1-1.53.3-6.07,1.63-7.01.3-.49-.7-.43-1.47.3-1.98s10.4-2.15,12.72-2.91c22.11-7.3,38.35-28.25,41.36-51.19l2.29-.33Z"/>
    <path class="st3" d="M476.41,127.23c.95-.3,1.43.09,1.83.95.7,1.51,1,6.09,1.65,8.4,5.38,19.15,20.29,35.79,39.34,42.16,2.25.75,12.16,2.52,12.72,2.91,2.16,1.51-.53,2.63-2.49,2.52-24.23-1.4-51.12-28.48-53.73-52.35-.12-1.07-.66-4.16.68-4.59Z"/>
    <path class="st3" d="M547.38,74.81c16.81,2.26,31.88,15.84,36.44,32.07.43,1.53,2.45,7.3-.75,6.33-.99-.3-2.95-8.3-3.76-10.2-4.32-10.12-13.57-19.04-23.78-23.11-1.78-.71-7.7-2-8.51-2.65-.38-.31-.69-.54-.58-1.1l.94-1.35Z"/>
    <path class="st3" d="M530.14,74.87c2.11-.23,3.37,1.1,1.79,2.39-.71.58-5.31,1.52-6.83,2.1-10.9,4.17-19.95,11.81-24.9,22.54-1.29,2.8-2.41,8.78-3.49,10.46-.41.64-.84,1.33-1.62.64-.83-.64-1.06-1.03-1.01-2.09.19-4.04,4.69-12.96,7.03-16.47,5.79-8.72,18.35-18.4,29.03-19.57Z"/>
    <path class="st3" d="M571.82,153.15c-3.47,3.41-8.1,6.91-12.54,8.96-1.83.84-10.43,3.93-11.7,3.37-.46-.2-1.19-1.06-1.1-1.63,1.16-1.92,3.68-1.5,5.67-2.18,13.65-4.65,23.1-13.53,28.2-27.06.7-1.86,1.02-4.81,1.68-6.13,1.12-2.24,3.11-1.63,2.81,1.09-.87,7.92-7.45,18.08-13.03,23.57Z"/>
    <path class="st3" d="M496.75,127.25c2.14,13.57,11.61,26.24,24.03,32.07,2.68,1.26,9.2,2.59,10.82,3.69,1.83,1.25,1.02,2.64-.96,2.56-13.68-.57-29.36-16.13-34.14-28.3-.94-2.4-4.78-11.2.25-10.02Z"/>
    <path class="st3" d="M538.08,144.25c.38-1.32,2.79-.84,2.79,0v48.56c0,1.05-2.79,1.05-2.79,0v-48.56Z"/>
    <path class="st3" d="M466.91,118.85h48.56c1.05,0,1.05,2.79,0,2.79h-48.56c-.85,0-1.29-2.29,0-2.79Z"/>
    <polygon class="st3" points="612.87 118.85 612.04 121.64 563.2 121.64 562.68 119.75 563.48 118.85 612.87 118.85"/>
    <path class="st3" d="M538.08,96.53v-48.84c0-1.05,2.79-1.05,2.79,0v48.56l-.9.8-1.9-.52Z"/>
  </g>
  <line class="st7" x1="-.68" y1="119.95" x2="466.91" y2="119.95"/>
</svg>